<svg width="40" height="40" viewBox="0 0 40 40" fill="none" xmlns="http://www.w3.org/2000/svg">
<rect width="40" height="40" rx="20" fill="transparent"/>
<path d="M12.25 13.61C14.27 16.2 18 21 18 21V27C18 27.55 18.45 28 19 28H21C21.55 28 22 27.55 22 27V21C22 21 25.72 16.2 27.74 13.61C27.8546 13.4624 27.9255 13.2855 27.9445 13.0996C27.9635 12.9137 27.9299 12.7262 27.8476 12.5584C27.7653 12.3906 27.6375 12.2493 27.4788 12.1506C27.3201 12.0519 27.1369 11.9997 26.95 12H13.04C12.21 12 11.74 12.95 12.25 13.61Z" fill="tranparent"/>
</svg>
