<svg width="48" height="71" viewBox="0 0 48 71" fill="none" xmlns="http://www.w3.org/2000/svg">
    <g clip-path="url(#clip0_243_8913)">
        <path
            d="M6.49667 20.1367C6.48001 18.025 8.74167 16.825 10.4617 17.7934L10.65 17.91L15.1133 20.9167C17.4867 22.5167 16.01 26.16 13.28 25.775L13.0517 25.7334L12.87 25.6934C13.8949 27.6941 15.44 29.3816 17.3429 30.5784C19.2458 31.7751 21.4361 32.4369 23.6834 32.494C25.9306 32.5512 28.1517 32.0016 30.1129 30.9031C32.0742 29.8046 33.7031 28.1978 34.8283 26.2517C34.9923 25.9672 35.2106 25.7177 35.471 25.5176C35.7313 25.3174 36.0285 25.1705 36.3456 25.0853C36.6628 25 36.9936 24.978 37.3192 25.0206C37.6448 25.0631 37.9588 25.1694 38.2433 25.3334C38.5279 25.4973 38.7773 25.7157 38.9775 25.976C39.1776 26.2363 39.3245 26.5335 39.4098 26.8507C39.4951 27.1678 39.517 27.4986 39.4745 27.8242C39.4319 28.1498 39.3256 28.4638 39.1617 28.7484C35.3 35.4484 27.2967 39.0017 19.47 36.9034C15.7714 35.9122 12.4998 33.7357 10.1566 30.7073C7.81331 27.6789 6.52768 23.9657 6.49667 20.1367ZM8.84001 11.2534C12.7 4.55169 20.7033 1.00002 28.53 3.09502C32.2286 4.08617 35.5002 6.26271 37.8435 9.29111C40.1867 12.3195 41.4723 16.0327 41.5033 19.8617C41.52 21.9734 39.2583 23.1734 37.5383 22.2067L37.35 22.09L32.8867 19.0817C30.5133 17.4834 31.99 13.84 34.7183 14.225L34.9483 14.2667L35.1283 14.305C34.1032 12.3045 32.5577 10.6172 30.6547 9.42073C28.7516 8.22427 26.5612 7.56285 24.314 7.50605C22.0668 7.44925 19.8458 7.99918 17.8847 9.09797C15.9236 10.1968 14.2949 11.8038 13.17 13.75C13.011 14.0436 12.7948 14.3024 12.5341 14.5111C12.2734 14.7198 11.9736 14.8741 11.6523 14.965C11.331 15.0559 10.9947 15.0815 10.6633 15.0403C10.332 14.9991 10.0122 14.892 9.72295 14.7252C9.43368 14.5584 9.18075 14.3353 8.9791 14.0692C8.77745 13.803 8.63115 13.4992 8.54885 13.1756C8.46655 12.852 8.44991 12.5152 8.49992 12.185C8.54993 11.8549 8.66556 11.5381 8.84001 11.2534Z" />
    </g>
    <path
        d="M0.3125 63.7891L0.1875 61.5391C0.645833 61.4297 1.21875 61.276 1.90625 61.0781V58.6172H0.359375V56.6172H1.90625V53.8359H3.84375V56.6172H5V58.0859C6.40625 56.487 7.38021 55.0078 7.92188 53.6484L10.2031 53.9141C10.0156 54.2891 9.82031 54.6589 9.61719 55.0234H14.0781V56.7266L12.8438 58.2422H14.8438V62.9297H15.7344V64.6953H11.5938C12.3802 65.8255 13.7552 66.5859 15.7188 66.9766C15.2917 67.6953 14.8854 68.4036 14.5 69.1016C12.6354 68.5078 11.25 67.4609 10.3438 65.9609C9.53125 67.3464 7.95312 68.4141 5.60938 69.1641C5.26562 68.5391 4.84896 67.8828 4.35938 67.1953C6.74479 66.7161 8.21615 65.8828 8.77344 64.6953H4.4375V62.9297H5.71875V58.5859C5.49479 58.4245 5.25521 58.2656 5 58.1094V58.6172H3.84375V60.4922L5.09375 60.1016C5.04167 60.9974 5.02083 61.7057 5.03125 62.2266L3.84375 62.6172V67.2266C3.84375 67.7214 3.7474 68.1068 3.55469 68.3828C3.36198 68.6589 3.08854 68.8281 2.73438 68.8906C2.38542 68.9531 1.71875 68.9974 0.734375 69.0234C0.630208 68.3984 0.473958 67.7109 0.265625 66.9609C0.567708 66.9922 0.932292 67.0078 1.35938 67.0078C1.72396 67.0078 1.90625 66.7682 1.90625 66.2891V63.2578L0.3125 63.7891ZM7.45312 58.2422H10.4219L11.625 56.7109H8.57812C8.22396 57.237 7.84896 57.7474 7.45312 58.2422ZM11.2031 62.9297H12.9219V60.0078H11.2344C11.2344 61.4245 11.224 62.3984 11.2031 62.9297ZM9.25781 62.9297C9.29427 62.6068 9.3125 61.6328 9.3125 60.0078H7.64062V62.9297H9.25781ZM16.4688 60.2109H31.5625V62.5234H16.4688V60.2109ZM32.6094 68.3984L32.2344 66.3203C34.0781 66.112 35.9896 65.8672 37.9688 65.5859C37.9479 65.888 37.9323 66.1901 37.9219 66.4922H38.7344V57.5781C37.5833 59.4844 36.474 61.1849 35.4062 62.6797L38.1562 62.3516C38.0625 63.1016 38.0052 63.7266 37.9844 64.2266C35.3073 64.5078 33.7188 64.737 33.2188 64.9141L32.4531 63.0391C32.9844 62.737 33.7865 61.7786 34.8594 60.1641C33.849 60.2161 33.1667 60.2995 32.8125 60.4141L32.1875 58.5859C32.75 58.2318 33.7135 56.5651 35.0781 53.5859L37.0625 54.3516C36.2083 55.862 35.3854 57.237 34.5938 58.4766L35.9609 58.4062C36.3047 57.8229 36.6458 57.2109 36.9844 56.5703L38.7344 57.4062V54.3516H46.7812V66.4922H47.7656V68.5078H37.6406V67.6562L32.6094 68.3984ZM44.5938 56.3672H40.9219V58.4141H44.5938V56.3672ZM40.9219 62.4297H44.5938V60.3828H40.9219V62.4297ZM40.9219 66.4922H44.5938V64.3984H40.9219V66.4922Z" />
    <defs>
        <clipPath id="clip0_243_8913">
            <rect width="40" height="40" transform="translate(4)" />
        </clipPath>
    </defs>
</svg>