<svg id="图层_1" data-name="图层 1" xmlns="http://www.w3.org/2000/svg" viewBox="0 0 108 108"><defs><style>.cls-1{fill:#24292e;}.cls-2,.cls-3{fill:#fff;}.cls-2{opacity:0.1;}</style></defs><title>默认团队LOGO</title><rect class="cls-1" width="108" height="108"/><polygon class="cls-2" points="69.59 63 69.59 45 54 36 38.41 45 38.41 63 54 72 69.59 63"/><path class="cls-2" d="M54,4.59,11.21,29.3V78.7L54,103.41,96.79,78.7V29.3ZM83.81,71.21,54,88.42,24.19,71.21V36.79L54,19.58,83.81,36.79Z"/><path class="cls-3" d="M14,93.89l.18-.11a.93.93,0,0,0,.87.53c.56,0,.81-.33.81-1V90.08h.23v3.21c0,.69-.28,1.23-1.05,1.23A1.13,1.13,0,0,1,14,93.89Z"/><path class="cls-3" d="M30.2,92.18,29,90.08h.24L30,91.42l.36.58h0c.13-.24.21-.39.33-.58l.76-1.34h.22l-1.22,2.11,1.31,2.25h-.24l-.79-1.39c-.12-.21-.25-.43-.42-.69h0l-.38.69-.8,1.39h-.22Z"/><path class="cls-3" d="M44.06,93.92l.14-.15a1.52,1.52,0,0,0,1.19.55,1,1,0,0,0,1-1c0-.62-.45-1-1.51-1V92c1,0,1.35-.45,1.35-1a.83.83,0,0,0-.89-.85,1.44,1.44,0,0,0-1,.48l-.13-.16A1.6,1.6,0,0,1,45.37,90a1,1,0,0,1,1.12,1,1.11,1.11,0,0,1-.82,1.1v0a1.16,1.16,0,0,1,1,1.14,1.2,1.2,0,0,1-1.27,1.23A1.7,1.7,0,0,1,44.06,93.92Z"/><path class="cls-3" d="M59.64,90.08h1.14c.87,0,1.42.34,1.42,1.06a.93.93,0,0,1-.69,1v0a1,1,0,0,1,1,1c0,.83-.62,1.27-1.61,1.27H59.64Zm1,1.93c1,0,1.32-.32,1.32-.86s-.44-.87-1.28-.87h-.83V92Zm.13,2.23c.91,0,1.47-.32,1.47-1.06s-.54-1-1.47-1h-.92v2Z"/><path class="cls-3" d="M75.14,92.25c0-1.37.73-2.24,1.77-2.24s1.77.87,1.77,2.24-.74,2.27-1.77,2.27S75.14,93.62,75.14,92.25Zm3.3,0c0-1.25-.62-2-1.53-2s-1.54.78-1.54,2,.62,2.06,1.54,2.06S78.44,93.5,78.44,92.25Z"/><path class="cls-3" d="M92.41,92.18l-1.23-2.1h.25l.75,1.34.36.58h0c.13-.24.21-.39.33-.58l.76-1.34h.23l-1.23,2.11L94,94.44h-.24l-.79-1.39-.42-.69h0l-.39.69-.79,1.39h-.23Z"/><path class="cls-3" d="M26.35,33.3a1.24,1.24,0,0,1-.71.39v13.6a3.48,3.48,0,0,1-2.17.78h-.4V46.6H13.31v.62c0,.32-1,.94-2.09.94h-.43V31.7l2.73,1.08h9.37l1.19-1.31ZM23.07,46.1V33.28H13.31V46.1Zm-1.76-11s1,1.12,1.56,1.81a.42.42,0,0,1-.46.29H20.28v6.15c0,1.51-.37,2.22-2.94,2.4A2.19,2.19,0,0,0,17,44.4a2.12,2.12,0,0,0-1.4-.62v-.21s1.62.08,1.94.08.31,0,.31-.24V40.27A13.45,13.45,0,0,1,13.63,44l-.18-.18a15.59,15.59,0,0,0,3.32-6.59H14l-.14-.5h4v-3L20.9,34c0,.27-.21.43-.62.48v2.27h.12Z"/><path class="cls-1" d="M24.08,31.47l2.27,1.83a1.24,1.24,0,0,1-.71.39v13.6a3.48,3.48,0,0,1-2.17.78h-.4V46.6H13.31v.62c0,.32-1,.94-2.09.94h-.43V31.7l2.73,1.08h9.37l1.19-1.31M13.31,46.1h9.76V33.28H13.31V46.1m4.5-12.4L20.9,34c0,.27-.21.43-.62.48v2.27h.12l.91-1.6s1,1.12,1.56,1.81a.42.42,0,0,1-.46.29H20.28v6.15c0,1.51-.37,2.22-2.94,2.4A2.19,2.19,0,0,0,17,44.4a2.12,2.12,0,0,0-1.4-.62v-.21s1.62.08,1.94.08.31,0,.31-.24V40.27A13.45,13.45,0,0,1,13.63,44l-.18-.18a15.59,15.59,0,0,0,3.32-6.59H14l-.14-.5h4v-3m6.27-3.5a1.25,1.25,0,0,0-.94.42l-.81.9H13.76l-2.5-1a1.27,1.27,0,0,0-.47-.09,1.29,1.29,0,0,0-.71.22,1.27,1.27,0,0,0-.56,1.05V48.16a1.27,1.27,0,0,0,1.27,1.27h.43a3.81,3.81,0,0,0,3.2-1.56H21.8v.2a1.27,1.27,0,0,0,1.27,1.27h.4c.69,0,3.29-.48,3.43-1.93V34.5a2.63,2.63,0,0,0,.45-.43,1.26,1.26,0,0,0-.21-1.76l-2.27-1.83a1.29,1.29,0,0,0-.79-.28Zm-9.5,4.34h2v.91h-2v-.91Zm7,3.94h.25v6.36h-.45a5,5,0,0,0,.2-1.47V38.48Zm-7,0h.48q-.22.63-.48,1.23V38.48Zm.1,6.36.1-.07.08.07Z"/><path class="cls-3" d="M35.4,33.63c-.12.18-.37.25-.8.25a26.1,26.1,0,0,1-2.8,4,5.17,5.17,0,0,1,3,4.43c0,1.78-.75,3-2.94,3a6.22,6.22,0,0,0-.25-2,1.11,1.11,0,0,0-.75-.51v4.66c0,.18-.71.75-1.91.75H28.5V31.75l2.57,1h.8l1.22-1.19Zm-3.6,8.94a.61.61,0,0,0,.35-.09c.22-.14.34-.4.34-.88a6.1,6.1,0,0,0-1.13-3.67c.24-1.19.56-3.3.69-4.72H30.84v9.36Zm8.27-11c0,.27-.22.43-.66.5,0,1,0,2-.07,3,.42,4.88,1.75,8.35,5.3,10.36l0,.19a2.77,2.77,0,0,0-2,2.47c-2.27-2.08-3.1-5.87-3.44-10.27-.46,4.13-2,7.78-7.2,10.39L31.76,48c5.41-4.66,5.08-10.29,5.09-16.69Z"/><path class="cls-1" d="M36.85,31.31l3.22.3c0,.27-.22.43-.66.5,0,1,0,2-.07,3,.42,4.88,1.75,8.35,5.3,10.36l0,.19a2.77,2.77,0,0,0-2,2.47c-2.27-2.08-3.1-5.87-3.44-10.27-.46,4.13-2,7.78-7.2,10.39L31.76,48c5.41-4.66,5.08-10.29,5.09-16.69m-3.76.21,2.31,2.11c-.12.18-.37.25-.8.25a26.1,26.1,0,0,1-2.8,4,5.17,5.17,0,0,1,3,4.43c0,1.78-.75,3-2.94,3a6.22,6.22,0,0,0-.25-2,1.11,1.11,0,0,0-.75-.51v4.66c0,.18-.71.75-1.91.75H28.5V31.75l2.57,1h.8l1.22-1.19m-1,1.69H30.84v9.36h1a.61.61,0,0,0,.35-.09c.22-.14.34-.4.34-.88a6.1,6.1,0,0,0-1.13-3.67c.24-1.19.56-3.3.69-4.72M36.85,30a1.29,1.29,0,0,0-.85.33,1.28,1.28,0,0,0-.41.94v.78L34,30.59a1.27,1.27,0,0,0-.86-.33,1.31,1.31,0,0,0-.88.35l-.85.83H31.3l-2.36-.87a1.11,1.11,0,0,0-.44-.08,1.25,1.25,0,0,0-.72.22,1.29,1.29,0,0,0-.55,1V48.2a1.27,1.27,0,0,0,1.27,1.26h.43a4.5,4.5,0,0,0,2-.46,1.27,1.27,0,0,0,1,.5,1.3,1.3,0,0,0,.57-.14,13.72,13.72,0,0,0,6.25-5.71,11.12,11.12,0,0,0,3,5.39,1.25,1.25,0,0,0,.85.33,1.4,1.4,0,0,0,.41-.06,1.27,1.27,0,0,0,.84-1c.15-.83.5-1.32,1.06-1.44a1.29,1.29,0,0,0,1-1l0-.2a1.29,1.29,0,0,0-.63-1.33c-2.82-1.59-4.21-4.37-4.65-9.29,0-.69,0-1.4,0-2.11a1.77,1.77,0,0,0,.66-1.16,1.26,1.26,0,0,0-1.14-1.43L37,30.05Zm-1.48,5,.2-.07a29.44,29.44,0,0,1-.35,4.42,6.86,6.86,0,0,0-1.56-1.81c.68-.9,1.29-1.86,1.71-2.54Z"/><path class="cls-3" d="M55.81,46.49H45.55l0-.6,1.58-.16c.05-1.77.05-3.57.05-5V39.49c0-1.85,0-3.68-.05-5.5l-1.6-.14v-.61H52v.61L50.24,34c0,1.79,0,3.6,0,5.19v1.16c0,1.75,0,3.6,0,5.44h3.69l.88-3.28h1Z"/><path class="cls-1" d="M52,33.24v.61L50.24,34c0,1.79,0,3.6,0,5.19v1.16c0,1.75,0,3.6,0,5.44h3.69l.88-3.28h1l0,4H45.55l0-.6,1.58-.16c.05-1.77.05-3.57.05-5V39.49c0-1.85,0-3.68-.05-5.5l-1.6-.14v-.61H52M52,32H45.55a1.25,1.25,0,0,0-1.26,1.26v.61a1.27,1.27,0,0,0,1.15,1.26l.47,0c0,1.43,0,2.85,0,4.34v1.26c0,1.12,0,2.46,0,3.83l-.47.05a1.26,1.26,0,0,0-1.13,1.22l0,.6a1.24,1.24,0,0,0,.36.92,1.23,1.23,0,0,0,.9.39H55.81a1.29,1.29,0,0,0,.9-.38,1.25,1.25,0,0,0,.36-.9l0-4a1.27,1.27,0,0,0-1.27-1.26h-1a1.27,1.27,0,0,0-1.22.94L53,44.53H51.48c0-1.41,0-2.81,0-4.17V39.2c0-1.25,0-2.64,0-4l.61,0a1.27,1.27,0,0,0,1.15-1.26v-.61A1.26,1.26,0,0,0,52,32Z"/><path class="cls-3" d="M69.53,39.86c0,4.61-2.93,7-6.28,7s-6.3-2.36-6.3-7,3-7,6.3-7S69.53,35.27,69.53,39.86Zm-6.28,6.31c2.16,0,3.16-2.66,3.16-6.31s-1-6.3-3.16-6.3-3.16,2.68-3.16,6.3S61.07,46.17,63.25,46.17Z"/><path class="cls-1" d="M63.25,32.89c3.33,0,6.28,2.38,6.28,7s-2.93,7-6.28,7-6.3-2.36-6.3-7,3-7,6.3-7m0,13.28c2.16,0,3.16-2.66,3.16-6.31s-1-6.3-3.16-6.3-3.16,2.68-3.16,6.3,1,6.31,3.16,6.31m0-14.55c-3.64,0-7.56,2.58-7.56,8.24s3.92,8.25,7.56,8.25,7.55-2.58,7.55-8.25-3.92-8.24-7.55-8.24Zm0,13.29c-1.4,0-1.89-2.72-1.89-5s.49-5,1.89-5,1.89,2.71,1.89,5-.49,5-1.89,5Z"/><path class="cls-3" d="M83.92,40.59l-1.1.14c0,1.29,0,2.62,0,4.08v.87a7.93,7.93,0,0,1-4.33,1.17c-4.2,0-7.06-2.61-7.06-7s2.91-7,7.19-7a7.58,7.58,0,0,1,3.85,1l-.08,3.24H81.25l-.93-3.28A3.33,3.33,0,0,0,79,33.56c-2.5,0-4.44,2-4.44,6.3,0,4,1.88,6.31,4.26,6.31A4.94,4.94,0,0,0,80,46.05V44.72c0-1.31,0-2.57,0-3.9L78,40.59V40h5.92Z"/><path class="cls-1" d="M78.57,32.89a7.58,7.58,0,0,1,3.85,1l-.08,3.24H81.25l-.93-3.28A3.33,3.33,0,0,0,79,33.56c-2.5,0-4.44,2-4.44,6.3,0,4,1.88,6.31,4.26,6.31A4.94,4.94,0,0,0,80,46.05V44.72c0-1.31,0-2.57,0-3.9L78,40.59V40h5.92v.61l-1.1.14c0,1.29,0,2.62,0,4.08v.87a7.93,7.93,0,0,1-4.33,1.17c-4.2,0-7.06-2.61-7.06-7s2.91-7,7.19-7m0-1.27c-5.06,0-8.45,3.31-8.45,8.22s3.34,8.27,8.32,8.27a9.17,9.17,0,0,0,5-1.34A1.28,1.28,0,0,0,84,45.68v-.87c0-1,0-2,0-3h0a1.26,1.26,0,0,0,1.1-1.25V40a1.26,1.26,0,0,0-1.27-1.26H78A1.26,1.26,0,0,0,76.73,40v.61a1.26,1.26,0,0,0,1.12,1.25l.81.1c0,1,0,1.86,0,2.78v.19c-1.71-.08-2.89-2.13-2.89-5,0-3.2,1.15-5,3.17-5a1.88,1.88,0,0,1,.34,0L80,37.43a1.26,1.26,0,0,0,1.22.93h1.09a1.27,1.27,0,0,0,1.27-1.24l.07-3.25A1.28,1.28,0,0,0,83,32.74a8.91,8.91,0,0,0-4.47-1.12Z"/><path class="cls-3" d="M97.73,39.86c0,4.61-2.92,7-6.28,7s-6.29-2.36-6.29-7,3-7,6.29-7S97.73,35.27,97.73,39.86Zm-6.28,6.31c2.17,0,3.16-2.66,3.16-6.31s-1-6.3-3.16-6.3-3.15,2.68-3.15,6.3S89.27,46.17,91.45,46.17Z"/><path class="cls-1" d="M91.45,32.89c3.34,0,6.28,2.38,6.28,7s-2.92,7-6.28,7-6.29-2.36-6.29-7,3-7,6.29-7m0,13.28c2.17,0,3.16-2.66,3.16-6.31s-1-6.3-3.16-6.3-3.15,2.68-3.15,6.3,1,6.31,3.15,6.31m0-14.55c-3.64,0-7.56,2.58-7.56,8.24s3.92,8.25,7.56,8.25S99,45.53,99,39.86s-3.91-8.24-7.55-8.24Zm0,13.29c-1.39,0-1.89-2.72-1.89-5s.5-5,1.89-5,1.9,2.71,1.9,5-.5,5-1.9,5Z"/><path class="cls-3" d="M28.68,61c-.12.23-.34.39-.89.32-.59.68-1.32,1.43-2.12,2.19L27,64c-.07.2-.25.36-.71.45V74.83c0,.3-1.2,1.12-2.59,1.12h-.6V65.69a24.17,24.17,0,0,1-2.82,1.87l-.21-.21a36.31,36.31,0,0,0,4.86-8.52Zm-.34-4.52c-.12.23-.35.37-.87.28A26.57,26.57,0,0,1,20.36,61l-.19-.23a26.28,26.28,0,0,0,4.59-6.59ZM39.39,60.4s1.87,1.43,3,2.42c-.07.25-.32.36-.66.36H27l-.18-.64h5.25V59.05H28.34l-.19-.64h3.93V54.22l4,.32c-.05.3-.18.5-.73.59v3.28h1.16l1.62-2.11s1.85,1.41,2.92,2.39c-.05.25-.32.36-.64.36H35.36v3.49h2.39Zm0,3.53s1.76,1.42,2.81,2.37c-.07.25-.32.37-.67.37H38.14v5.81c0,2.1-.55,3.22-4.29,3.51a3.12,3.12,0,0,0-.73-2.12,4.28,4.28,0,0,0-2.48-1v-.28s3.17.19,3.74.19c.36,0,.48-.12.48-.39v-5.7H27.52L27.33,66h7.53V63.36l4.06.34c-.05.35-.28.53-.78.6v1.3Zm-10.83,3.4c6.93.91,4.4,6.11,1.67,4.15a12,12,0,0,0-1.85-4Z"/><path class="cls-1" d="M32.08,54.22l4,.32c-.05.3-.18.5-.73.59v3.28h1.16l1.62-2.11s1.85,1.41,2.92,2.39c-.05.25-.32.36-.64.36H35.36v3.49h2.39l1.64-2.14s1.87,1.43,3,2.42c-.07.25-.32.36-.66.36H27l-.18-.64h5.25V59.05H28.34l-.19-.64h3.93V54.22m-7.32,0,3.58,2.23a.57.57,0,0,1-.57.31l-.3,0A26.57,26.57,0,0,1,20.36,61l-.19-.23a26.28,26.28,0,0,0,4.59-6.59m.16,4.61L28.68,61a.64.64,0,0,1-.65.33h-.24c-.59.68-1.32,1.43-2.12,2.19L27,64c-.07.2-.25.36-.71.45V74.83c0,.3-1.2,1.12-2.59,1.12h-.6V65.69a24.17,24.17,0,0,1-2.82,1.87l-.21-.21a36.31,36.31,0,0,0,4.86-8.52m9.94,4.53,4.06.34c-.05.35-.28.53-.78.6v1.3l1.23-1.67s1.76,1.42,2.81,2.37c-.07.25-.32.37-.67.37H38.14v5.81c0,2.1-.55,3.22-4.29,3.51a3.12,3.12,0,0,0-.73-2.12,4.28,4.28,0,0,0-2.48-1v-.28s3.17.19,3.74.19c.36,0,.48-.12.48-.39v-5.7H27.52L27.33,66h7.53V63.36m-6.32,4c5.85.77,5,4.59,2.9,4.59a2.08,2.08,0,0,1-1.23-.44,12,12,0,0,0-1.85-4l.18-.11M24.76,53a1.15,1.15,0,0,0-.37.06,1.27,1.27,0,0,0-.79.68,24.69,24.69,0,0,1-4.32,6.22,1.27,1.27,0,0,0-.1,1.69l.19.23a1.27,1.27,0,0,0,1,.47,1.25,1.25,0,0,0,.46-.09c.47-.18.95-.39,1.42-.61a32.19,32.19,0,0,1-3.17,5,1.28,1.28,0,0,0,.09,1.69l.21.2a1.24,1.24,0,0,0,.9.37,1.21,1.21,0,0,0,.61-.16c.32-.17.63-.36.95-.55V76a1.25,1.25,0,0,0,1.26,1.26h.6c1.57,0,3.86-.92,3.86-2.38V68.52A9.92,9.92,0,0,1,29,71.72a1.36,1.36,0,0,0,.42.72s0,.09,0,.13v.28a1.27,1.27,0,0,0,1.05,1.24,3.15,3.15,0,0,1,1.86.72c.14.14.24.51.31,1.3a1.28,1.28,0,0,0,1.26,1.15H34c4-.32,5.46-1.61,5.46-4.78V67.94h2.1a1.83,1.83,0,0,0,1.89-1.3A1.28,1.28,0,0,0,43,65.37c-.32-.29-.69-.62-1.07-.94a1.76,1.76,0,0,0,1.62-1.28,1.26,1.26,0,0,0-.38-1.28c-.59-.53-1.39-1.18-2-1.68a1.66,1.66,0,0,0,1.12-1.28,1.27,1.27,0,0,0-.39-1.16c-1.1-1-2.92-2.4-3-2.46a1.26,1.26,0,0,0-.77-.26H38a1.26,1.26,0,0,0-.84.49l-.51.66V56a1.84,1.84,0,0,0,.72-1.24,1.28,1.28,0,0,0-.26-1,1.25,1.25,0,0,0-.89-.47l-4-.32h-.1a1.24,1.24,0,0,0-.86.34,1.27,1.27,0,0,0-.41.93v2.93H29.4l.07-.13A1.27,1.27,0,0,0,29,55.38l-3.58-2.23a1.27,1.27,0,0,0-.67-.2Zm11.86,7.37h1.24l-.73,1h-.51v-1Zm-6.85,0h1v1h-.9a1.31,1.31,0,0,0-.14-1Zm-1.61,4.13h5.43v.31H28a1.53,1.53,0,0,0,.16-.31Zm5.07,3.49h.36v.41a3.41,3.41,0,0,0-.36-.41Z"/><path class="cls-3" d="M61.37,71.59s2.14,1.62,3.44,2.72c-.07.25-.34.36-.69.36H43.29L43.1,74h8.23V54.61l4.5.41c0,.34-.21.57-.85.66v7.73h3L59.82,61s2.09,1.6,3.35,2.69c-.07.25-.32.37-.66.37H55V74h4.47Z"/><path class="cls-1" d="M51.33,54.61l4.5.41c0,.34-.21.57-.85.66v7.73h3L59.82,61s2.09,1.6,3.35,2.69c-.07.25-.32.37-.66.37H55V74h4.47l1.92-2.44s2.14,1.62,3.44,2.72c-.07.25-.34.36-.69.36H43.29L43.1,74h8.23V54.61m0-1.27a1.29,1.29,0,0,0-.85.33,1.28,1.28,0,0,0-.41.94V72.77h-7a1.25,1.25,0,0,0-1.21,1.61l.18.64a1.27,1.27,0,0,0,1.22.92H64.12A1.83,1.83,0,0,0,66,74.64a1.25,1.25,0,0,0-.41-1.3c-1.3-1.11-3.4-2.69-3.49-2.76a1.28,1.28,0,0,0-.76-.25,1.25,1.25,0,0,0-1,.48l-1.53,2H56.25V65.31h6.26A1.81,1.81,0,0,0,64.39,64,1.24,1.24,0,0,0,64,62.73c-1.27-1.11-3.33-2.68-3.42-2.75a1.28,1.28,0,0,0-.76-.25,1.25,1.25,0,0,0-1,.49l-1.48,1.92H56.25V56.56a1.88,1.88,0,0,0,.83-1.37,1.26,1.26,0,0,0-.26-1,1.29,1.29,0,0,0-.88-.47l-4.49-.41Z"/><path class="cls-3" d="M72.19,61.26c-.07.21-.25.37-.71.46V75a3.94,3.94,0,0,1-2.69.94h-.61V64.55a18.4,18.4,0,0,1-2.26,1.89l-.23-.16a38.83,38.83,0,0,0,4.06-12l4.6,1.32c-.11.29-.38.48-.93.48a27.57,27.57,0,0,1-2.32,4.81ZM85,60.6s1.85,1.49,2.92,2.47c-.07.25-.32.36-.66.36H79.05c-.32,1.16-.61,2.26-.89,3.15h3.58l1.87-1.8,3.08,2.94c-.21.22-.43.29-1,.34a31.63,31.63,0,0,1-4.17,3.31c3.6,1.8,2.8,5,.34,4.42a20.36,20.36,0,0,0-7.61-5.34l.13-.22a17.27,17.27,0,0,1,6,.68,38.23,38.23,0,0,0,1.39-3.69H78.14L77,68.61l-3-1.74a5.21,5.21,0,0,1,.8-.57c.27-.79.59-1.8.88-2.87H71.78l-.18-.64h4.24c.34-1.21.68-2.48,1-3.69H73.1l-.18-.64H77c.41-1.73.75-3.28.89-4.24l4.15.87c-.09.27-.35.54-1,.54-.18.76-.43,1.74-.71,2.83h2l1.5-2s1.74,1.37,2.74,2.3c0,.25-.3.37-.64.37H80.19c-.32,1.18-.64,2.46-1,3.69h4.17Z"/><path class="cls-1" d="M77.87,54.22l4.15.87c-.09.27-.35.54-1,.54-.18.76-.43,1.74-.71,2.83h2l1.5-2s1.74,1.37,2.74,2.3c0,.25-.3.37-.64.37H80.19c-.32,1.18-.64,2.46-1,3.69h4.17L85,60.6s1.85,1.49,2.92,2.47c-.07.25-.32.36-.66.36H79.05c-.32,1.16-.61,2.26-.89,3.15h3.58l1.87-1.8,3.08,2.94c-.21.22-.43.29-1,.34a31.63,31.63,0,0,1-4.17,3.31c3.31,1.65,2.9,4.49.9,4.49a3,3,0,0,1-.56-.07,20.36,20.36,0,0,0-7.61-5.34l.13-.22c.32,0,.62,0,.92,0a16.45,16.45,0,0,1,5.1.7,38.23,38.23,0,0,0,1.39-3.69H78.14L77,68.61l-3-1.74a5.21,5.21,0,0,1,.8-.57c.27-.79.59-1.8.88-2.87H71.78l-.18-.64h4.24c.34-1.21.68-2.48,1-3.69H73.1l-.18-.64H77c.41-1.73.75-3.28.89-4.24m-8.12.05,4.6,1.32c-.11.29-.38.48-.93.48a27.57,27.57,0,0,1-2.32,4.81l1.09.38c-.07.21-.25.37-.71.46V75a3.94,3.94,0,0,1-2.69.94h-.61V64.55a18.4,18.4,0,0,1-2.26,1.89l-.23-.16a38.83,38.83,0,0,0,4.06-12M77.87,53A1.27,1.27,0,0,0,76.61,54c-.11.79-.38,2-.64,3.15H74.34A2,2,0,0,0,75.54,56a1.26,1.26,0,0,0-.84-1.67l-4.6-1.32a1.41,1.41,0,0,0-.35,0,1.28,1.28,0,0,0-.68.2,1.25,1.25,0,0,0-.57.87,37.63,37.63,0,0,1-3.91,11.59A1.27,1.27,0,0,0,65,67.32l.23.16a1.29,1.29,0,0,0,.73.23,1.23,1.23,0,0,0,.73-.24l.26-.18V76a1.26,1.26,0,0,0,1.27,1.26h.61c1,0,3.68-.56,3.94-2a1.64,1.64,0,0,0,0-.23V67.22a1.29,1.29,0,0,0,.59.75l1.69,1-.65,0a1.24,1.24,0,0,0-1,.61l-.14.23a1.27,1.27,0,0,0-.11,1.06,1.25,1.25,0,0,0,.74.77,19.05,19.05,0,0,1,7.08,4.94,1.23,1.23,0,0,0,.71.45,3.5,3.5,0,0,0,.84.1A2.71,2.71,0,0,0,85.2,75a3.9,3.9,0,0,0-1.42-3.7,29.14,29.14,0,0,0,2.52-2.08,2.24,2.24,0,0,0,1.33-.69,1.27,1.27,0,0,0-.07-1.77l-2.2-2.1h1.88a1.82,1.82,0,0,0,1.88-1.3,1.28,1.28,0,0,0-.37-1.27c-.63-.58-1.52-1.32-2.16-1.85A1.66,1.66,0,0,0,87.84,59a1.24,1.24,0,0,0-.38-1.15c-1-1-2.74-2.32-2.81-2.37a1.27,1.27,0,0,0-.79-.28l-.16,0a1.08,1.08,0,0,0-.44.14,1.26,1.26,0,0,0-.15-.87,1.24,1.24,0,0,0-.84-.6L78.13,53l-.26,0Zm-4.44,8.58a1.29,1.29,0,0,0-.35-1.17h2.11c-.1.38-.21.77-.31,1.17Zm7.74-1.17h2.42l-.85,1.17H80.86c.06-.22.12-.44.17-.65s.09-.35.14-.52ZM80,64.7h1.85l-.64.61H79.85c.05-.2.11-.41.17-.61Zm-7.27,0H74c-.09.28-.17.54-.25.77a5.09,5.09,0,0,0-.58.46,1.17,1.17,0,0,0-.38.6V64.7Zm6,3.78h1.33c-.12.3-.23.61-.36.91-.47-.11-1-.2-1.5-.27l.53-.64Z"/></svg>