<?xml version="1.0" encoding="iso-8859-1"?>
<!-- Generator: Adobe Illustrator 18.1.1, SVG Export Plug-In . SVG Version: 6.00 Build 0)  -->
<svg version="1.1" id="Capa_1" xmlns="http://www.w3.org/2000/svg" xmlns:xlink="http://www.w3.org/1999/xlink" x="0px" y="0px"
	 viewBox="0 0 389.144 389.144" style="enable-background:new 0 0 389.144 389.144;" xml:space="preserve">
<g>
	<path style="fill:#000000;" d="M192.36,168.958c14.119,0,25.605,11.486,25.605,25.605c0,4.495,3.633,8.129,8.129,8.129
		s8.129-3.633,8.129-8.129c0-23.085-18.785-41.862-41.862-41.862c-23.085,0-41.862,18.785-41.862,41.862
		c0,23.085,18.777,41.862,41.862,41.862c7.527,0,14.908-2.024,21.354-5.844c3.861-2.292,5.129-7.283,2.845-11.144
		c-2.3-3.861-7.291-5.137-11.144-2.845c-3.926,2.341-8.446,3.568-13.046,3.568c-14.119,0-25.605-11.486-25.605-25.605
		C166.755,180.443,178.24,168.958,192.36,168.958z"/>
	<path style="fill:#000000;" d="M123.291,12.686C62.002,35.95,16.815,88.03,2.419,152.001c-0.984,4.381,1.764,8.73,6.145,9.714
		c4.365,0.984,8.73-1.764,9.714-6.145C31.471,96.938,72.886,49.207,129.054,27.878C220.98-7.026,324.148,39.364,359.052,131.29
		c34.896,91.894-11.486,195.061-103.387,229.974c-91.95,34.896-195.102-11.486-229.998-103.379
		c-1.585-4.202-6.275-6.308-10.486-4.706c-4.194,1.585-6.3,6.283-4.706,10.486c29.474,77.62,103.591,125.481,182.096,125.481
		c22.906-0.008,46.203-4.081,68.865-12.689c100.282-38.09,150.891-150.663,112.808-250.945
		C336.162,25.22,223.581-25.413,123.291,12.686z"/>
	<path style="fill:#000000;" d="M173.062,78.365c-64.061,10.657-107.533,71.442-96.909,135.511
		c9.567,57.567,59.615,98.51,116.157,98.51c6.381,0,12.851-0.52,19.346-1.601c64.069-10.648,107.541-71.434,96.909-135.495
		c-6.495-39.155-32.018-72.198-68.272-88.374c-4.089-1.861-8.901,0.016-10.73,4.113c-1.837,4.097,0.008,8.909,4.113,10.73
		c31.254,13.949,53.258,42.431,58.851,76.189c9.161,55.226-28.312,107.614-83.537,116.799
		c-55.201,9.137-107.622-28.32-116.799-83.537c-9.161-55.226,28.312-107.622,83.537-116.808c4.43-0.74,7.421-4.926,6.682-9.348
		C181.671,80.616,177.484,77.584,173.062,78.365z"/>
</g>
<g>
</g>
<g>
</g>
<g>
</g>
<g>
</g>
<g>
</g>
<g>
</g>
<g>
</g>
<g>
</g>
<g>
</g>
<g>
</g>
<g>
</g>
<g>
</g>
<g>
</g>
<g>
</g>
<g>
</g>
</svg>
