<?xml version="1.0" encoding="utf-8"?>
<!-- Generator: Adobe Illustrator 23.0.5, SVG Export Plug-In . SVG Version: 6.00 Build 0)  -->
<svg version="1.2" baseProfile="tiny" id="图层_1"
	 xmlns="http://www.w3.org/2000/svg" xmlns:xlink="http://www.w3.org/1999/xlink" x="0px" y="0px" viewBox="0 0 256 256"
	 xml:space="preserve">
<g>
	<g>
		<path d="M73.4,4.5c19.4-0.2,36.1,5.6,53,10.3c6.5,1.8,12.9,4.1,18.9,6.8c2.4,1.1,4.6,3.9,5.6,6.5c9,23.2,17.7,46.5,26.4,69.8
			c3.1,8.2,6.2,16.5,8.7,24.9c1.3,4.4,1.6,9.2,1.7,13.8c0,1.4-1.6,3.3-3,4.3c-33.2,22.5-66.3,45.1-99.7,67.3
			c-8,5.4-17.1,9.2-25.5,14.1c-4,2.3-4.9,0.9-5.8-2.9c-8.1-31.7-15.9-63.5-24.8-95c-2.7-9.4-0.9-17.7,1.2-26.2
			c3.1-12.7,6.3-25.5,10.5-37.8c5.1-15,11.4-29.7,17.2-44.5c0.2-0.5,0.6-1,0.7-1.5C60.4,5,66.2,2.4,73.4,4.5z M118.8,80.1
			c0.4-11.4-9.5-21.8-19.8-20.4c-8.5,1.2-13.2,6.7-15.5,14.4c-2.2,7.2-2.3,14.5,3.7,19.8c2.9,2.5,7.6,3.9,11.5,4.2
			c3.8,0.3,7.1-6.3,5.4-10c-2.2-4.8-4.7-1.1-7.2,0c-2.8,1.3-5.8,0.6-6.3-2.4c-0.5-3-0.3-6.7,1-9.5c2-4.3,5.3-8.5,10.6-7.7
			c5,0.8,5.7,6.1,6.9,10c4.3,14.5-0.4,27.7-8,39.5c-6.9,10.8-15.4,20.7-23.6,30.6c-6.9,8.5-7.7,12.1-1.8,20.3c1,1.4,3.6,1.8,5.6,2.3
			c0.8,0.2,2.6-1.2,2.6-1.5c-0.6-1.8-1-4.2-2.4-5.2c-4.2-3-3.1-5.5-0.5-8.8c7.1-9.2,13.7-18.8,21.1-27.8
			C113.8,114.1,117.8,97.7,118.8,80.1z M146.6,106.6c-1.9-3.5-3-7.6-5.6-9.8c-3.5-2.9-7.4-0.2-10.8,1.9c-6.7,4.3-8.1,11.2-3.1,18.4
			c2.4,3.5,1.9,5.8-0.8,8.2c-2.7,2.6-5.5,5.1-8.3,7.5c-4.7,4-9.7,7.6-14.2,11.9c-1.3,1.2-1.1,3.9-1.7,5.9c1.3,0.1,3,0.7,3.7,0.1
			c12.5-9.7,26.3-18.1,35.2-31.8C143.5,115.5,144.6,111.2,146.6,106.6z M167.9,124.7c-2.1,2.3-4.1,5.2-6.8,7.2
			c-22.7,17.1-45.4,34.1-68.3,50.8c-6.4,4.7-13.4,8.7-20.5,12.3c-6.7,3.4-8,2.6-11.8-4.2c-0.3-0.6-0.8-1.2-1.2-1.7
			c0,0.7-0.2,1.4-0.1,2c0.5,2,1.3,3.9,1.8,5.9c1.2,4.6,3,5.4,7.9,3.6c13.9-5.3,24.9-15.1,37.1-23c13.5-8.7,26-18.9,38.8-28.6
			c7.6-5.8,14.9-11.9,22.4-17.8c3.1-2.5,4-5.4,2.8-9.4c-4.1-13.8-7.9-27.7-12-41.5c-1.7-5.5-3.9-10.9-6-16.3c-0.3-0.7-1.2-1-1.9-1.5
			c0,0.7-0.1,1.4,0.1,2.1c3.8,12.9,7.6,25.8,11.4,38.7C163.6,110.1,165.6,116.9,167.9,124.7z M81.6,98.5
			c-5.4-0.1-13.6,9.3-12.1,14.5c0.3,1.2,3.5,2.9,4.2,2.5c1.8-1.2,3-3.4,4.5-5.2c1.4-1.7,2.7-3.4,4.1-5.1c1.4,2,3.8,4,4,6.1
			c0.6,5.4-1.9,10-5.8,14c-4.3,4.4-8.2,9.2-12.2,13.8c-0.4,0.5-0.3,1.6-0.4,2.4c0.7-0.2,1.5-0.2,2-0.5c10.3-7.8,19.6-16.4,21.5-30.1
			C92.1,105.7,86.5,98.6,81.6,98.5z M37.7,106.1c1.5,5.6,2.8,11,4.3,16.4c0.2,0.7,0.7,1.3,1,1.9c0.1-0.8,0.6-1.7,0.4-2.4
			c-3.7-10-1.9-19.8,0.9-29.6c2-6.8,3.4-13.9,6-20.4C57,55.8,64.2,39.8,71.1,23.7c1.2-2.7,2.9-3.2,5.8-2.6
			c5.3,1.1,10.7,1.6,16.1,2.2c0.5,0.1,1.1-0.2,1.6-0.3c-0.4-0.2-0.9-0.6-1.3-0.7c-6.4-1.6-12.7-3.2-19.1-4.7
			c-2.8-0.6-4.4,0.5-5.5,3.3c-7.1,17.7-14.6,35.2-21.5,53c-2.7,6.9-4.1,14.4-6.2,21.5C40.1,99.1,38.8,102.6,37.7,106.1z M132.3,30.7
			c-0.5,0.1-1.3,0.4-2,0.6c0.7,0.5,1.4,1.4,2.1,1.5c7.1,1.5,10.2,6.2,10.8,13c0.1,0.9,0.3,1.9,0.7,2.7c0.6,1.3,1.5,2.5,2.3,3.7
			c0-1.3,0.2-2.7-0.1-4c-0.7-2.9-1.9-5.7-2.5-8.5C142.3,33.7,137.8,32,132.3,30.7z"/>
		<path d="M101.9,251.3c-6-2.5-12.7-4.7-18.7-8c-7.1-3.8-13.6-8.6-20.4-12.9c-2.3-1.5-3-2.6,0-4.2c5.2-2.7,10.3-5.4,15.3-8.4
			c14.2-8.6,28.5-17.3,42.5-26.2c4.7-3,8.9-6.9,13.6-10c16.8-11.6,33.7-23.1,50.5-34.6c6.9-4.7,8.1-4,14,2
			c5.2,5.3,11.5,9.5,17.3,14.3c13.2,10.7,13.4,12.1-0.4,21.9c-30.4,21.4-61.5,41.6-95.2,57.6c-4.7,2.3-9.4,4.7-14.1,7
			C105.1,250.3,103.8,250.6,101.9,251.3z"/>
		<path d="M157.9,28.9c1.8,0.9,3.1,1.3,4.1,2.1c14.2,12.4,27.9,24.9,33.7,44.3c5.1,17,12.8,33.1,19.1,49.8c4.5,11.9,8.6,24,12.8,36
			c0.5,1.3,0.4,2.8,0.6,4.2c-1.5-0.6-3.1-1-4.3-1.9c-3.4-2.6-6.5-5.6-10-8.2c-12-9-18.4-21.3-23.4-35.2
			c-10.2-28.6-21.5-56.7-32.4-85c-0.5-1.2-1.1-2.4-1.3-3.7C156.8,30.5,157.5,29.7,157.9,28.9z"/>
		<path d="M133.8,102.6c1.4,2.3,2.7,3.7,2.9,5.2c0.1,0.8-1.6,1.9-2.5,2.9c-1.2-1.4-2.7-2.7-3.4-4.4
			C130.5,105.9,132.3,104.5,133.8,102.6z"/>
	</g>
</g>
</svg>
