<?xml version="1.0" encoding="utf-8"?>
<!-- Generator: Adobe Illustrator 23.0.5, SVG Export Plug-In . SVG Version: 6.00 Build 0)  -->
<svg version="1.1" id="图层_1" xmlns="http://www.w3.org/2000/svg" xmlns:xlink="http://www.w3.org/1999/xlink" x="0px" y="0px"
	 viewBox="0 0 256 256" style="enable-background:new 0 0 256 256;" xml:space="preserve">
<g>
	<g>
		<path d="M29.8,111.7c0.2-0.9,0.5-2.1,0.8-3.2C40.5,76.2,50.5,44,60.2,11.6c1.1-3.6,2.8-4.3,6.1-3.4c28.8,7.5,57.6,14.9,86.4,22.4
			c1.5,0.4,3.1,1.2,4.3,2.2c10.8,9.9,21.6,19.9,32.2,30c1.7,1.6,3.1,3.9,3.9,6.2c10.7,33,21.2,66.1,31.8,99.2
			c1.2,3.6,0.5,5.8-2.8,7.8c-38,23.8-75.8,47.6-113.8,71.3c-1.6,1-4.5,1.1-6.2,0.3c-14-6.7-27.8-13.6-41.6-20.6
			c-1.5-0.8-3.1-2.6-3.5-4.2c-9-36.1-17.8-72.3-26.7-108.4C30.1,113.6,30,112.7,29.8,111.7z M216.8,163.6c0.1-0.1,0.2-0.2,0.3-0.2
			c-0.1,0.1-0.2,0.1-0.4,0.2c-0.2-1.6,0-3.3-0.5-4.8c-9.6-29.3-19.2-58.6-28.9-87.9c-0.4-1.2-0.8-2.7-1.7-3.5
			c-7.9-7.6-15.9-15.1-24.7-23.5c0.5,2.1,0.7,3,1,3.9c9.5,29.1,18.9,58.1,28.5,87.1c0.7,2.1,2.2,4.1,3.8,5.7
			C201.5,148.3,209.2,155.9,216.8,163.6z M36.8,110.9c0.2,1,0.2,1.8,0.4,2.6c8,32.9,16,65.9,23.9,98.8c0.9,3.8,2.4,2.8,4.6,1.3
			c37.9-24.3,75.7-48.5,113.7-72.6c2.8-1.8,3.3-3.3,2.4-6.4c-9.7-31.3-19.2-62.7-29-94c-0.6-1.9-2.9-4-4.8-4.6
			C122.1,29.3,96.2,22.8,70.3,16c-3.4-0.9-4.8-0.4-5.9,3.2c-8.8,29.5-17.8,58.9-26.7,88.4C37.4,108.8,37.1,109.9,36.8,110.9z
			 M64.4,222.4c13.2,6.6,25.7,12.9,38.4,19.1c1.1,0.5,3.3,0,4.5-0.7c35.2-22.5,70.3-45.1,105.5-67.6c3.2-2,2.2-3.1,0.1-5
			c-7.3-6.8-14.7-13.6-21.7-20.6c-2.6-2.6-4.3-2.8-7.5-0.8c-38.2,24.3-76.5,48.4-114.8,72.5C67.5,220.1,66.3,221.1,64.4,222.4z"/>
		<path d="M120.9,83.4c-1,18.3-5.3,34-16.6,47.4c-6.8,8.1-12.9,16.9-19.4,25.4c-2.2,2.9-2.8,5.3,0.3,8.3c1.2,1.2,1.1,3.7,1.6,5.6
			c-2.1-0.4-4.8-0.2-6.3-1.3c-4.5-3.4-5.3-9.9-1.9-14.8c3.7-5.1,8-9.8,11.7-14.9c5.7-7.8,11.6-15.4,16.7-23.6
			c6.8-11.1,8.2-23.1,3.7-35.4c-0.9-2.4-3.6-5.8-5.6-5.9c-2.7-0.1-6.4,1.8-8.1,4.1c-1.9,2.5-2.7,6.4-2.9,9.7
			c-0.3,4.5,2.3,5.8,6.5,4.1c1.7-0.7,3.5-0.8,5.3-1.2c0.3,2.2,1.3,4.7,0.6,6.5c-0.7,1.8-3,3.9-4.9,4.1c-6.8,0.8-13.8-4.5-15-11.3
			c-1.4-8,0.8-15.4,6.9-20.8c4.8-4.3,10.7-5.4,16.7-2.3C117.5,70.6,120.6,76.8,120.9,83.4z"/>
		<path d="M106.8,152c-0.5-1.1-1.4-2.1-1.2-2.7c0.8-1.9,1.7-4,3.2-5.3c5.9-5.3,12-10.5,18.2-15.5c3.4-2.8,3.8-5.6,1.5-9.5
			c-5.1-8.6-1.2-17.1,8.7-19.3c1.6-0.3,4,0.4,5.3,1.5c3.9,3.4,4.6,8.5,2.8,13.4c-3.5,9.2-10.1,15.9-17.4,22
			c-5.6,4.7-11.6,9-17.4,13.4C109.5,150.6,108.4,151.1,106.8,152z M137.1,105.6c-2.3,2.4-4.6,4.1-5.7,6.4c-0.4,0.7,2.3,3,3.6,4.5
			c1.7-2.4,3.6-4.6,5.1-7.1C140.3,108.9,138.6,107.4,137.1,105.6z"/>
		<path d="M72.2,142.3c1.5-2.1,2.2-3.4,3.2-4.5c3.8-4.4,7.8-8.6,11.5-13.1c4-5.1,4.3-10.6,1.3-14.1c-1.4-1.8-2.4-1.9-3.7,0
			c-1.3,1.9-2.7,3.8-4.4,5.4c-0.9,0.9-2.9,1.8-3.5,1.4c-1.2-0.7-2.4-2.5-2.3-3.8c0.1-5,7.7-12.2,12-11.5c5.2,0.8,10,8.5,8.2,14.4
			C91.5,126.6,81.7,139,72.2,142.3z"/>
	</g>
</g>
</svg>
