<svg width="20" height="20" viewBox="0 0 20 20" fill="none" xmlns="http://www.w3.org/2000/svg">
<g id="ri:dislike-fill">
<path id="Vector" d="M2.33995 1.16089L17.6608 16.4817L16.4816 17.6601L13.36 14.5376L9.99995 17.9042L2.93495 10.8276C2.11347 9.90628 1.6618 8.71369 1.66688 7.47937C1.67195 6.24504 2.13342 5.05621 2.96245 4.14172L1.16162 2.34006L2.33995 1.16089ZM16.8691 3.96422C17.7719 4.86688 18.2952 6.08068 18.3318 7.35679C18.3684 8.63291 17.9154 9.87468 17.0658 10.8276L15.7033 12.1909L6.04995 2.53839C6.75857 2.44978 7.47795 2.51425 8.15952 2.72745C8.84109 2.94064 9.46898 3.2976 10.0008 3.77422C10.9529 2.92189 12.1954 2.46661 13.4728 2.50195C14.7502 2.53729 15.9656 3.06055 16.8691 3.96422Z" fill="white"/>
</g>
</svg>
