<svg width="20" height="20" viewBox="0 0 20 20" fill="none" xmlns="http://www.w3.org/2000/svg">
<g id="solar:inbox-in-bold">
<path id="Vector" fill-rule="evenodd" clip-rule="evenodd" d="M10 8.95835C10.1657 8.95821 10.3246 8.89226 10.4417 8.77502L12.9417 6.27502C13.0521 6.15654 13.1122 5.99984 13.1093 5.83792C13.1065 5.676 13.0409 5.52151 12.9264 5.407C12.8119 5.29249 12.6574 5.2269 12.4955 5.22404C12.3336 5.22118 12.1768 5.28129 12.0584 5.39169L10.625 6.82502V1.66669C10.625 1.50093 10.5592 1.34196 10.442 1.22475C10.3248 1.10754 10.1658 1.04169 10 1.04169C9.83427 1.04169 9.6753 1.10754 9.55809 1.22475C9.44088 1.34196 9.37504 1.50093 9.37504 1.66669V6.82502L7.9417 5.39169C7.82322 5.28129 7.66652 5.22118 7.5046 5.22404C7.34268 5.2269 7.18819 5.29249 7.07368 5.407C6.95917 5.52151 6.89358 5.676 6.89072 5.83792C6.88787 5.99984 6.94797 6.15654 7.05837 6.27502L9.55837 8.77502C9.67504 8.89252 9.8342 8.95835 10 8.95835Z" fill="#FFDB5A"/>
<path id="Vector_2" d="M2.88669 17.1133C4.10836 18.3333 6.07169 18.3333 10 18.3333C13.9284 18.3333 15.8925 18.3333 17.1125 17.1125C18.1717 16.0541 18.3125 14.435 18.3309 11.4583H15.7C14.8884 11.4583 14.6759 11.4716 14.4984 11.5533C14.32 11.6358 14.1717 11.7883 13.6434 12.4033L13.0659 13.0783C12.6475 13.5666 12.3159 13.9541 11.8575 14.165C11.3992 14.3758 10.8892 14.3758 10.2459 14.375H9.75419C9.11086 14.375 8.60086 14.3766 8.14252 14.165C7.68419 13.9541 7.35252 13.5666 6.93419 13.0775L6.35669 12.4041C5.82836 11.7875 5.68002 11.6358 5.50169 11.5541C5.32419 11.4716 5.11169 11.4583 4.30002 11.4583H1.66919C1.68836 14.435 1.82752 16.055 2.88669 17.1133Z" fill="#FFDB5A"/>
<path id="Vector_3" d="M18.3334 10C18.3334 6.07167 18.3334 4.10751 17.1126 2.88667C16.1042 1.87834 14.5876 1.70334 11.8751 1.67334V4.06501C12.2762 3.92298 12.7136 3.92158 13.1156 4.06104C13.5175 4.20051 13.8601 4.47254 14.0871 4.83246C14.314 5.19237 14.4117 5.61876 14.3643 6.04158C14.3168 6.46441 14.127 6.85852 13.8259 7.15917L11.3259 9.65917C11.1518 9.83329 10.9451 9.9714 10.7176 10.0656C10.4901 10.1599 10.2463 10.2084 10.0001 10.2084C9.75385 10.2084 9.51003 10.1599 9.28254 10.0656C9.05506 9.9714 8.84836 9.83329 8.67425 9.65917L6.17425 7.15917C5.87319 6.85852 5.68333 6.46441 5.63588 6.04158C5.58842 5.61876 5.68618 5.19237 5.91311 4.83246C6.14003 4.47254 6.48261 4.20051 6.88458 4.06104C7.28656 3.92158 7.72401 3.92298 8.12508 4.06501V1.67334C5.41175 1.70334 3.89591 1.87834 2.88675 2.88667C1.66675 4.10834 1.66675 6.07167 1.66675 10V10.2083H4.41258C5.05591 10.2083 5.56591 10.2067 6.02425 10.4183C6.48258 10.6292 6.81425 11.0167 7.23258 11.5058L7.81008 12.1792C8.33841 12.7958 8.48675 12.9475 8.66508 13.0292C8.84258 13.1117 9.05508 13.125 9.86675 13.125H10.1334C10.9451 13.125 11.1576 13.1117 11.3351 13.03C11.5134 12.9475 11.6617 12.795 12.1901 12.18L12.7676 11.505C13.1859 11.0167 13.5176 10.6292 13.9759 10.4183C14.4342 10.2067 14.9442 10.2075 15.5884 10.2083H18.3334V10Z" fill="#FFDB5A"/>
</g>
</svg>
