<svg width="960pt" height="960pt" viewBox="0 0 960 960" version="1.1" xmlns="http://www.w3.org/2000/svg">
    <g>
        <path
            d=" M 92.36 268.33 C 223.04 186.12 353.75 103.96 484.42 21.74 C 618.04 104.30 751.39 187.30 885.00 269.87 C 885.00 418.29 885.00 566.71 885.00 715.13 C 810.15 758.37 735.25 801.55 660.42 844.83 C 659.96 840.66 659.07 836.58 658.12 832.52 C 660.74 828.99 663.69 825.37 664.44 820.92 C 666.61 809.72 667.03 798.30 668.19 786.98 C 668.79 780.35 670.37 773.73 669.44 767.06 C 668.52 755.09 663.25 743.89 662.67 731.90 C 662.22 724.25 666.70 717.00 673.14 713.10 C 678.61 709.75 684.54 706.96 690.87 705.69 C 698.92 703.62 706.92 701.29 714.97 699.21 C 723.83 696.29 730.34 689.20 736.45 682.50 C 742.47 674.54 746.81 664.96 747.42 654.91 C 747.29 642.30 747.59 629.59 745.32 617.13 C 743.82 608.69 742.77 600.14 740.33 591.91 C 736.15 582.61 734.06 572.54 732.06 562.59 C 730.87 558.86 729.32 555.19 727.16 551.92 C 721.29 543.84 715.61 535.49 711.72 526.26 C 707.50 518.26 703.52 510.12 700.42 501.63 C 697.25 493.53 697.05 484.73 695.02 476.34 C 697.97 473.75 701.06 471.31 703.93 468.61 C 703.47 467.35 703.00 466.08 702.57 464.83 C 706.18 459.03 710.11 453.20 711.71 446.47 C 713.57 441.80 717.04 438.01 719.36 433.60 C 720.85 427.77 721.73 421.78 723.00 415.90 C 725.68 408.53 728.90 401.36 731.75 394.05 C 732.10 395.74 732.48 397.42 732.91 399.11 C 734.02 396.77 734.96 394.36 735.76 391.90 C 738.76 382.84 743.93 374.66 746.76 365.55 C 751.60 358.87 757.79 353.28 762.79 346.73 C 767.47 340.51 766.62 332.10 770.37 325.45 C 772.40 321.92 775.34 318.85 776.66 314.94 C 776.70 312.55 775.72 310.29 775.13 308.01 C 776.62 306.58 778.55 305.19 778.51 302.89 C 778.68 296.32 778.72 289.74 778.95 283.17 C 777.98 282.59 777.02 282.02 776.06 281.46 C 775.02 282.34 773.99 283.23 772.97 284.13 C 777.25 271.75 781.57 259.40 785.81 247.02 C 786.38 247.60 787.51 248.76 788.07 249.33 C 788.27 246.55 788.22 243.75 788.37 240.96 C 788.50 237.48 791.03 234.47 790.89 231.00 C 789.28 228.27 785.63 227.72 782.77 228.46 C 775.21 250.36 767.35 272.17 760.03 294.16 C 756.72 294.75 754.17 297.12 751.07 298.27 C 747.25 300.12 742.71 299.71 739.06 301.99 C 736.22 303.78 732.90 305.01 730.50 307.38 C 728.54 312.28 728.05 317.75 725.33 322.37 C 723.88 325.18 721.50 327.63 721.11 330.88 C 720.43 334.29 721.15 337.79 720.49 341.21 C 720.11 345.88 716.77 349.46 714.30 353.19 C 711.24 357.48 710.53 363.01 707.21 367.17 C 705.06 369.79 703.36 372.72 701.63 375.62 C 696.77 382.36 692.03 389.20 686.70 395.57 C 683.91 399.53 680.72 403.20 676.90 406.21 C 672.80 399.52 669.22 392.52 664.89 385.97 C 662.01 381.32 661.36 375.46 657.70 371.28 C 649.10 361.88 640.21 352.73 631.91 343.08 C 628.50 335.74 624.06 328.97 619.95 322.01 C 617.67 317.50 613.91 314.03 611.24 309.78 C 606.86 302.66 601.36 296.28 595.70 290.16 C 588.78 290.74 581.91 291.84 574.97 292.13 C 564.84 292.55 554.66 293.88 544.53 292.58 C 544.50 291.96 544.42 290.70 544.39 290.08 C 543.23 288.76 542.22 287.33 541.12 285.97 C 540.94 285.50 540.58 284.57 540.40 284.10 L 539.53 284.44 C 539.53 283.11 539.54 281.78 539.55 280.46 L 538.05 280.52 L 538.86 278.77 C 538.56 278.72 537.98 278.63 537.68 278.58 C 537.49 277.95 537.12 276.68 536.93 276.04 C 536.58 275.54 535.89 274.53 535.54 274.03 C 535.58 273.68 535.66 272.98 535.70 272.63 L 534.89 272.47 C 534.30 270.65 533.66 268.85 532.98 267.07 C 532.65 266.07 532.32 265.07 531.99 264.08 C 531.56 263.04 531.11 262.01 530.66 260.98 C 530.63 260.34 530.56 259.06 530.53 258.42 L 529.49 258.67 C 529.51 257.23 529.53 255.78 529.56 254.34 L 528.25 254.74 C 528.37 253.85 528.63 252.09 528.75 251.20 L 527.24 251.79 C 527.35 250.94 527.56 249.23 527.66 248.38 L 526.38 248.62 C 526.45 247.17 526.52 245.72 526.59 244.27 L 525.58 244.69 C 525.26 241.88 524.90 239.06 525.21 236.25 C 525.83 230.09 524.84 223.93 525.34 217.77 C 525.62 216.42 525.25 215.21 524.36 214.19 L 526.06 214.97 C 525.84 213.41 525.64 211.85 525.47 210.29 C 527.98 209.37 527.31 206.18 527.47 204.07 C 526.69 196.96 523.76 190.31 521.41 183.60 C 522.40 183.34 523.40 183.09 524.40 182.84 C 523.45 182.90 522.51 182.88 521.59 182.80 C 521.21 180.91 519.68 178.73 521.28 176.94 C 520.90 177.09 520.12 177.40 519.74 177.55 C 519.78 175.90 519.49 174.28 518.56 172.90 C 518.57 172.56 518.60 171.87 518.62 171.53 L 517.29 171.55 C 517.39 171.06 517.59 170.07 517.69 169.58 L 516.79 169.77 C 516.40 169.40 515.62 168.67 515.22 168.31 L 515.03 168.22 C 512.35 163.77 509.47 159.42 505.15 156.38 C 504.75 156.46 503.95 156.62 503.55 156.70 L 503.57 155.47 C 502.77 155.53 501.18 155.66 500.38 155.73 L 500.49 154.81 C 498.94 154.59 497.72 153.80 497.09 152.35 C 496.67 152.45 495.84 152.63 495.42 152.73 L 495.67 151.62 C 493.12 150.73 490.64 149.49 487.93 149.21 C 484.45 149.11 481.19 150.53 477.93 151.52 C 476.92 150.92 475.91 150.31 474.91 149.71 C 473.65 149.53 472.41 149.61 471.19 149.95 C 471.19 149.40 471.18 148.30 471.17 147.74 C 471.05 148.15 470.81 148.95 470.69 149.35 C 468.84 149.29 467.02 149.49 465.24 149.95 C 459.52 154.00 453.51 157.61 447.89 161.78 C 445.26 162.75 443.69 164.87 442.89 167.47 L 441.31 167.94 C 441.52 168.42 441.96 169.38 442.17 169.85 L 440.91 169.39 C 438.32 175.97 433.46 181.35 430.85 187.94 C 428.81 192.59 428.30 197.84 429.14 202.83 C 429.45 205.49 429.78 208.15 430.42 210.75 C 430.75 216.85 429.42 222.86 429.51 228.95 C 429.54 235.42 427.26 241.51 425.18 247.52 L 424.21 247.44 C 424.32 247.94 424.54 248.95 424.65 249.46 L 423.75 249.46 C 422.61 251.39 421.43 253.30 420.23 255.20 C 417.34 258.64 414.70 262.36 411.15 265.17 C 410.40 265.77 409.68 266.41 409.00 267.08 C 407.65 267.72 406.18 268.28 405.31 269.58 C 404.87 269.75 403.99 270.09 403.55 270.26 C 404.59 270.36 406.66 270.56 407.70 270.66 C 408.63 269.83 409.43 268.87 410.36 268.03 L 410.41 267.85 C 415.87 264.68 419.07 259.04 423.47 254.73 C 422.13 261.46 419.44 267.85 416.53 274.04 C 416.55 274.39 416.61 275.09 416.64 275.45 L 415.39 275.63 C 415.47 276.10 415.63 277.05 415.72 277.52 L 414.30 277.59 C 414.42 278.09 414.65 279.09 414.76 279.59 L 413.25 279.43 C 413.35 279.87 413.55 280.75 413.65 281.18 C 412.58 281.62 411.51 282.09 410.46 282.57 C 412.24 282.50 414.58 282.77 414.77 280.37 L 415.72 280.60 C 415.66 280.04 415.53 278.91 415.47 278.35 L 416.71 278.29 C 416.64 278.98 416.51 280.35 416.44 281.03 C 416.14 281.70 415.55 283.03 415.25 283.70 L 414.28 283.36 C 414.36 283.89 414.51 284.97 414.59 285.51 L 415.93 285.40 C 415.70 285.98 415.23 287.15 415.00 287.73 C 415.44 287.57 416.32 287.25 416.76 287.09 C 416.65 288.23 416.55 289.37 416.46 290.51 L 415.06 290.53 C 415.20 290.95 415.47 291.80 415.61 292.22 C 413.59 293.95 410.66 294.85 409.22 297.13 C 411.83 295.25 414.47 293.12 417.81 292.81 C 417.65 293.88 417.33 296.02 417.18 297.09 C 416.76 298.41 416.48 299.78 416.18 301.13 C 415.20 305.03 415.73 309.08 415.61 313.06 C 407.09 316.72 399.23 322.08 390.02 323.94 C 381.00 326.64 371.92 329.01 362.66 330.73 C 361.34 335.94 360.13 341.19 358.31 346.25 C 353.85 359.23 352.90 373.10 348.42 386.06 C 343.42 397.34 339.43 409.05 336.11 420.94 C 332.03 433.11 325.96 444.49 319.65 455.63 C 316.57 463.12 313.46 470.60 310.00 477.93 C 306.36 486.23 300.56 493.31 296.18 501.19 C 292.42 507.46 291.28 514.87 290.88 522.06 C 291.03 527.09 292.39 532.35 295.70 536.28 C 299.14 540.67 304.35 543.04 308.78 546.24 C 313.94 550.28 319.94 553.22 324.49 558.04 C 324.98 571.33 325.75 584.64 327.21 597.88 C 328.30 608.17 328.89 618.55 328.33 628.91 C 327.86 641.65 324.92 654.12 322.38 666.56 C 318.89 677.94 313.84 688.79 311.12 700.41 C 304.99 715.58 298.26 730.52 291.21 745.28 C 284.26 756.19 276.52 766.58 269.25 777.28 C 262.08 788.20 253.43 798.06 244.54 807.60 C 191.18 776.78 137.83 745.94 84.44 715.18 C 84.36 567.62 84.43 420.05 84.40 272.48 C 87.12 271.22 89.87 270.00 92.36 268.33 Z" />
        <path
            d=" M 418.58 296.54 C 419.53 296.51 420.47 296.49 421.42 296.46 C 421.46 298.32 421.52 300.18 421.53 302.04 C 420.73 303.55 419.95 305.09 419.23 306.65 L 417.52 306.70 C 417.56 304.58 417.58 302.46 417.56 300.35 L 418.50 300.60 C 418.52 299.24 418.55 297.89 418.58 296.54 Z" />
        <path
            d=" M 580.31 497.41 C 584.54 489.69 588.13 481.66 592.46 474.00 C 594.43 496.42 595.23 519.16 601.08 541.02 C 603.90 552.81 607.93 564.36 614.24 574.78 C 625.26 593.21 636.86 611.42 645.51 631.14 C 646.90 635.34 645.92 639.82 645.06 644.02 C 644.17 649.34 641.04 653.85 638.42 658.44 C 634.40 665.46 629.49 672.01 626.40 679.53 C 626.53 683.21 628.41 686.55 629.31 690.09 C 632.26 698.04 633.98 706.49 638.13 713.96 C 641.94 721.01 645.72 728.11 650.22 734.76 C 651.61 736.32 650.51 738.42 650.20 740.21 C 646.82 752.41 643.35 764.78 637.03 775.85 C 630.54 763.94 623.24 752.38 618.46 739.64 C 615.38 731.54 611.66 723.71 608.21 715.78 C 604.34 707.16 601.54 698.13 597.69 689.51 C 594.34 680.71 591.39 671.72 589.70 662.44 C 590.94 662.55 592.19 662.67 593.44 662.80 C 594.29 658.07 596.55 653.77 597.45 649.07 C 598.31 645.21 599.60 641.47 600.75 637.70 C 598.28 635.62 595.62 633.79 593.13 631.73 C 588.41 627.73 582.68 625.10 578.13 620.88 C 574.43 616.81 573.48 611.23 571.88 606.17 C 567.18 593.57 561.70 581.30 556.69 568.82 C 553.39 567.96 553.74 564.04 552.72 561.47 C 550.77 555.64 550.12 549.53 549.39 543.47 C 548.31 536.99 547.17 530.51 547.37 523.94 C 547.72 523.66 548.41 523.10 548.75 522.82 C 553.57 522.68 558.04 520.58 561.90 517.81 C 569.32 512.31 575.40 505.19 580.31 497.41 Z" />
        <path
            d=" M 352.09 823.07 C 355.37 816.59 357.75 809.70 359.72 802.73 C 360.69 818.27 357.63 833.60 356.85 849.07 C 356.15 856.72 356.76 864.41 356.25 872.07 C 347.86 867.21 339.43 862.42 331.08 857.50 C 339.55 847.02 347.03 835.60 352.09 823.07 Z" />
    </g>
</svg>