<svg xmlns="http://www.w3.org/2000/svg" xmlns:xlink="http://www.w3.org/1999/xlink"  width="14" height="14" viewBox="0 0 14 14" >
<path d="M7.125 0L13.0312 3.40375L11.2025 4.4625L11.1412 4.4275C11.1986 4.25559 11.1423 4.09497 11.0275 3.96375L10.7913 3.68375L10.5112 3.43875C10.2467 3.20954 9.86605 3.26436 9.75875 3.6225L7.125 2.10875L4.36875 3.70125C4.23207 3.58371 4.08075 3.48145 3.9225 3.395C3.95463 3.56691 3.98289 3.73419 4.00125 3.91125L3.0475 4.4625L1.21875 3.40375L7.125 0ZM13.25 3.78L13.25 10.5962L7.34375 14L7.34375 11.8912L11.4213 9.54625L11.4213 4.83875L13.25 3.78ZM6.90625 14L1 10.5962L1 3.78L2.82875 4.83875L2.82875 7.035C2.63311 7.09522 2.4446 7.17408 2.26 7.2625C2.45676 7.3398 2.64528 7.42883 2.82875 7.53375L2.82875 9.5375L3.6075 9.9925C3.58168 10.2905 3.57523 10.5866 3.56375 10.8938C4.005 10.8938 4.5476 10.883 4.955 10.7712L6.90625 11.8912L6.90625 14ZM3.93125 10.5262C3.96683 9.82201 3.98388 9.50867 4.3075 9.07375C4.3811 9.15581 4.45329 9.23597 4.535 9.31C4.61671 9.38403 4.70856 9.45485 4.7975 9.52C4.88644 9.58515 4.97354 9.64811 5.06875 9.70375C5.16396 9.75939 5.2658 9.807 5.36625 9.8525C5.45339 9.8902 5.53802 9.92073 5.62875 9.94875C5.04348 10.4708 4.76096 10.4844 3.93125 10.5262ZM7.09875 5.81C6.99472 5.87807 6.89722 5.95772 6.81 6.04625C6.7762 6.0796 6.74393 6.11458 6.71375 6.15125C6.68361 6.18798 6.66121 6.2254 6.635 6.265C6.60883 6.3046 6.57817 6.34538 6.55625 6.3875C6.53437 6.42962 6.52115 6.47457 6.50375 6.51875L6.88875 6.1425C6.93293 6.09248 6.96652 6.04121 7.0025 5.985C7.03848 5.92879 7.07184 5.87103 7.09875 5.81ZM7.99125 4.97875C7.85629 4.99932 7.72419 5.04163 7.5975 5.0925C7.71914 5.12803 7.82944 5.15984 7.99125 5.20625C7.99125 5.13176 7.99125 5.05324 7.99125 4.97875ZM8.86625 4.5675L8.98 4.62L9.05875 4.5325C8.93372 4.47392 8.81378 4.4264 8.6825 4.38375L8.86625 4.5675ZM8.4375 4.31375C8.21538 4.2591 7.99189 4.22515 7.76375 4.20875C7.9072 4.09415 8.21774 4.0311 8.4375 3.98125C8.07945 3.83628 7.46183 3.81679 6.95 3.98125C6.92131 4.06778 6.86136 4.20525 6.7925 4.27C6.70184 4.35194 6.61392 4.42759 6.53875 4.4975C7.11829 4.24079 7.7412 4.22403 8.35 4.3925L8.4375 4.31375ZM4.42125 4.2875C4.49068 4.74018 4.29875 5.46342 4.26375 5.55625C4.22875 5.64908 4.18888 5.76087 4.03625 6.1425C3.88362 6.52413 3.88979 7.24975 3.9925 7.48125C3.7429 7.30591 3.43639 7.20899 3.14375 7.315C3.63607 7.56598 3.91919 8.12128 4.24625 8.54875C4.99735 9.53033 5.91974 9.99006 7.1075 9.66C7.69507 9.49669 8.54697 8.35654 8.04375 7.91875C7.17273 8.40983 6.24355 7.78251 6.20625 6.825C6.17986 6.12764 6.93835 5.41929 7.67625 5.32875C7.37558 5.23821 7.26903 5.19744 6.88 5.25875C7.22772 5.00376 7.49305 4.7998 8.0875 4.7425C8.10833 4.71022 8.13065 4.67374 8.1575 4.64625C8.18435 4.61876 8.21321 4.59786 8.245 4.57625C7.49906 4.38372 6.414 4.4115 5.47125 5.66125C5.75298 5.04124 5.94902 4.78851 6.6525 4.10375C6.83784 3.92325 6.80728 3.65884 6.78375 3.47375C6.58579 3.79865 6.21847 3.9735 5.725 4.19125C5.67722 4.21265 5.63125 4.23677 5.585 4.26125C5.53871 4.28573 5.49832 4.31255 5.45375 4.34C5.40918 4.36745 5.36515 4.3972 5.3225 4.4275C5.27981 4.45781 5.23183 4.49073 5.19125 4.52375C5.15067 4.55677 5.11587 4.59314 5.0775 4.62875C5.03917 4.66436 4.99967 4.69572 4.96375 4.73375C4.92779 4.77179 4.89211 4.81595 4.85875 4.85625C4.8254 4.89655 4.79314 4.93635 4.7625 4.97875C4.69996 4.71115 4.64101 4.46555 4.42125 4.27875L4.42125 4.2875ZM7.9825 9.3975C8.07127 9.35928 8.15778 9.32197 8.245 9.28375C7.9954 9.68887 7.39214 10.138 6.3025 10.2812C7.46788 10.5872 8.57632 10.4123 9.2775 9.68625C9.22012 9.78481 9.16677 9.89035 9.1025 9.98375C9.9632 9.48752 11.0772 8.02937 10.275 6.62375C10.3107 6.6528 10.3475 6.67865 10.38 6.71125C10.4125 6.74391 10.4473 6.78044 10.4762 6.81625C10.5052 6.85206 10.5299 6.89138 10.555 6.93C10.5801 6.96862 10.6041 7.01153 10.625 7.0525C10.625 6.38379 10.4255 5.77394 10.0387 5.29375L9.81125 5.52125L10.2312 5.9325L9.91625 6.30875C9.76305 6.49326 9.6681 6.4925 9.47875 6.4925L9.2075 6.4925C9.2075 6.50333 9.2075 6.51678 9.2075 6.5275C9.2075 6.53822 9.19875 6.54326 9.19875 6.55375C9.19875 6.56424 9.19 6.57849 9.19 6.58875C9.19 6.59895 9.18125 6.6052 9.18125 6.615C9.18125 6.6248 9.16375 6.64066 9.16375 6.65C9.16375 6.65928 9.14625 6.66748 9.14625 6.67625L9.12875 6.7025L9.1025 6.72L9.1025 6.9125C9.1025 6.9239 9.1025 6.9361 9.1025 6.9475C9.1025 6.9589 9.09375 6.97121 9.09375 6.9825C9.09375 6.99385 9.085 7.00633 9.085 7.0175C9.085 7.02867 9.07625 7.04156 9.07625 7.0525C9.07625 7.06344 9.0675 7.07684 9.0675 7.0875C9.0675 7.09816 9.05875 7.10349 9.05875 7.11375C9.05875 7.12406 9.04125 7.13889 9.04125 7.14875C9.04125 7.15861 9.02375 7.1656 9.02375 7.175C9.02375 7.1844 8.9975 7.19243 8.9975 7.20125C8.9975 7.21013 8.98 7.2275 8.98 7.2275L8.95375 7.25375C8.95375 7.25375 8.93662 7.27125 8.9275 7.27125C8.91838 7.27125 8.91089 7.28875 8.90125 7.28875C8.89167 7.28875 8.87635 7.30625 8.86625 7.30625C8.85621 7.30625 8.8505 7.32375 8.84 7.32375C8.8295 7.32375 8.81579 7.34125 8.805 7.34125C8.75124 7.35884 8.69851 7.37815 8.6475 7.4025C8.59649 7.42685 8.54615 7.45048 8.49875 7.48125C8.4513 7.51202 8.41048 7.54963 8.3675 7.58625C8.32446 7.62287 8.28293 7.65811 8.245 7.7C8.27157 7.72315 8.29216 7.75199 8.315 7.77875C8.33784 7.80557 8.3576 7.8364 8.37625 7.86625C8.3949 7.8961 8.41469 7.92149 8.42875 7.95375C8.44281 7.98601 8.45457 8.02477 8.46375 8.05875C8.52457 8.27707 8.48484 8.51865 8.385 8.75875C8.33514 8.87519 8.27822 8.9845 8.21 9.09125C8.14172 9.19795 8.06731 9.30335 7.9825 9.3975ZM6.50375 6.8775L7.06375 6.335C7.10219 6.29225 7.1349 6.24147 7.16875 6.195C7.20255 6.14853 7.23608 6.10468 7.265 6.055C7.29392 6.00532 7.32005 5.94987 7.34375 5.8975C7.36745 5.84518 7.38681 5.79449 7.405 5.74L7.41375 5.7225L7.43125 5.705L7.44875 5.6875L7.46625 5.67875L7.48375 5.66125L7.51 5.66125L7.5275 5.6525L7.55375 5.6525L7.92125 5.6525L7.9475 5.5825C7.95898 5.54755 7.96902 5.53875 8 5.53875L8.245 5.53875L8.25375 5.53875L8.2625 5.53L8.2625 5.52125L8.2625 4.99625C8.2625 4.89311 8.26092 4.83579 8.34125 4.76875L8.51625 4.62875L8.93625 5.06625L10.03 3.99875L10.0913 3.73625C10.1182 3.63253 10.1941 3.63134 10.275 3.70125L10.5375 3.92875L10.765 4.19125C10.835 4.27147 10.8339 4.34807 10.73 4.375L10.4675 4.43625L9.4 5.53L9.8375 5.95L9.6975 6.125C9.62807 6.20064 9.57271 6.195 9.47 6.195L8.945 6.195L8.93625 6.195L8.93625 6.20375L8.9275 6.20375L8.9275 6.2125L8.91875 6.2125L8.91875 6.22125L8.91875 6.4575C8.91875 6.48902 8.91932 6.50786 8.88375 6.51875L8.81375 6.53625L8.805 6.9125L8.805 6.93L8.805 6.95625L8.79625 6.97375L8.7875 6.99125L8.77875 7.00875L8.76125 7.02625L8.74375 7.04375L8.72625 7.0525C8.67168 7.07095 8.61244 7.08986 8.56 7.11375C8.50761 7.13764 8.46094 7.17208 8.41125 7.20125C8.36156 7.23042 8.30892 7.25466 8.2625 7.28875C8.21608 7.32284 8.17394 7.36382 8.13125 7.4025L7.83375 7.70875C7.49636 7.87607 7.15671 7.84968 6.85375 7.5775C6.83166 7.55727 6.81287 7.5382 6.7925 7.51625C6.77213 7.4943 6.74978 7.46974 6.73125 7.44625C6.7127 7.4227 6.69528 7.40118 6.67875 7.37625C6.66218 7.35132 6.64946 7.32374 6.635 7.2975C6.62054 7.27131 6.60353 7.24608 6.59125 7.21875C6.57897 7.19147 6.57502 7.1595 6.565 7.13125C6.55498 7.10306 6.53875 7.08144 6.53875 7.0525C6.53875 7.02356 6.5125 6.99445 6.5125 6.965C6.5125 6.9352 6.50375 6.905 6.50375 6.8775Z" fill="currentColor" >
</path>
</svg>
