<svg xmlns="http://www.w3.org/2000/svg" xmlns:xlink="http://www.w3.org/1999/xlink" width="14" height="14" viewBox="0 0 14 14" fill="none">
<path d="M2.15622 1.99499C2.27401 2.82976 1.96639 4.17466 1.90701 4.34583C1.84763 4.51701 1.76504 4.71038 1.50611 5.41834C1.24716 6.12629 1.26684 7.47227 1.44109 7.89916C1.01764 7.57583 0.496465 7.38952 0 7.585C0.83523 8.04781 1.30879 9.08257 1.86367 9.87083C1.93384 9.97028 2.00919 10.0684 2.08929 10.1649L1.97283 10.849C1.96893 10.8444 1.96506 10.8397 1.96119 10.835C1.96119 10.835 1.39309 12.2014 1.33274 13.5C2.74036 13.4229 3.22102 13.4009 4.21492 12.4383C4.21186 12.4373 4.20878 12.4363 4.20572 12.4353L4.85066 12.1128C5.56494 12.4013 6.30936 12.5733 7.00638 12.5843C6.55078 12.7891 6.00284 12.9521 5.35263 13.045C7.32973 13.6093 9.21229 13.2896 10.4019 11.9508C10.3045 12.1326 10.2075 12.3311 10.0985 12.5033C11.5587 11.5883 13.4629 8.89863 12.103 6.30666C12.1635 6.36024 12.2212 6.41988 12.2764 6.48C12.3315 6.54023 12.379 6.59812 12.4281 6.66417C12.4771 6.73021 12.5264 6.79879 12.5689 6.87C12.6115 6.94121 12.6527 7.01112 12.6881 7.08667C12.6881 5.85355 12.3474 4.7438 11.6913 3.85834L11.3012 4.28084L12.0163 5.02833L11.4962 5.72167C11.2363 6.06191 11.059 6.06833 10.7378 6.06833L10.2935 6.06833C10.2935 6.08831 10.2827 6.10274 10.2827 6.1225C10.2827 6.14225 10.2718 6.16817 10.2718 6.1875C10.2718 6.20683 10.261 6.22286 10.261 6.24166C10.261 6.26037 10.2393 6.27776 10.2393 6.29583C10.2393 6.31391 10.2068 6.33289 10.2068 6.35C10.2068 6.36722 10.1852 6.37717 10.1852 6.39333C10.1743 6.4094 10.1541 6.4326 10.1418 6.4475C10.1296 6.4624 10.1229 6.47731 10.1093 6.49083L10.0985 6.84833L10.0985 6.9675C10.0985 6.98843 10.0876 7.0119 10.0876 7.0325C10.0876 7.0531 10.066 7.07731 10.066 7.0975C10.066 7.11768 10.0443 7.13201 10.0443 7.15166C10.0443 7.17132 10.0226 7.18691 10.0226 7.20583C10.0226 7.22486 10.001 7.25265 10.001 7.27084C10.001 7.28901 9.97955 7.30766 9.96845 7.325C9.95736 7.34233 9.94822 7.35206 9.93596 7.36833C9.92358 7.38472 9.90604 7.40728 9.8926 7.4225C9.87918 7.43781 9.86377 7.45178 9.84926 7.46584C9.83476 7.47988 9.82141 7.48555 9.80592 7.49834C9.79251 7.50941 9.78208 7.52526 9.76889 7.53672C9.78494 7.52103 9.64324 7.5887 9.51688 7.65036C9.45708 7.67628 9.39955 7.70577 9.34001 7.73667C9.33403 7.73977 9.33128 7.74125 9.33131 7.74132C9.3315 7.7417 9.41966 7.69782 9.51688 7.65036C9.544 7.63861 9.57159 7.62758 9.60006 7.6175C9.61836 7.6175 9.63642 7.59583 9.65423 7.59583C9.67205 7.59583 9.69137 7.57417 9.7084 7.57417C9.71861 7.57417 9.73009 7.56673 9.74115 7.5583C9.62538 7.65317 9.25617 8.00967 9.18832 8.0725C9.18735 8.07338 9.18643 8.07432 9.18555 8.07531C9.05707 8.20613 8.92496 8.32298 8.79055 8.42599C8.77669 8.42206 8.7709 8.42277 8.77657 8.43C8.77765 8.43139 8.77874 8.43278 8.77982 8.43418C7.23906 9.60536 5.39792 8.96127 5.17926 6.68583C5.13449 5.39988 6.43034 4.09029 7.68221 3.92333C7.64026 3.90964 7.60059 3.89647 7.56275 3.88391C7.13954 3.74345 6.94447 3.67872 6.33864 3.78251C6.92856 3.31228 7.378 2.93483 8.38651 2.82916C8.42058 2.7701 8.45076 2.71735 8.49486 2.66666C8.53895 2.61599 8.59417 2.577 8.64656 2.53667C7.38105 2.18163 5.53261 2.22544 3.93321 4.53C4.4102 3.3867 4.75511 2.92186 5.94857 1.65917C6.25318 1.33672 6.19826 0.871447 6.15825 0.53239C6.15696 0.521459 6.15568 0.51066 6.15444 0.5C5.8186 1.09912 5.2038 1.42014 4.36662 1.82167C4.28562 1.86123 4.2067 1.90641 4.12825 1.95166C4.04985 1.99691 3.97624 2.04177 3.9007 2.0925C3.82518 2.14324 3.74545 2.19899 3.67316 2.255C3.60087 2.31101 3.53604 2.36729 3.46728 2.42834C3.39853 2.48937 3.32634 2.55754 3.26142 2.62333C3.1965 2.68915 3.13801 2.75888 3.07722 2.82916C3.01643 2.89945 2.96027 2.97137 2.90385 3.04583C2.84744 3.12029 2.79311 3.195 2.74132 3.27333C2.63522 2.77988 2.52905 2.33948 2.15622 1.99499ZM9.74115 7.5583C9.74978 7.55122 9.757 7.5456 9.76258 7.54167C9.75601 7.54633 9.74868 7.55254 9.74115 7.5583ZM5.68852 6.77249L6.64203 5.765C6.70724 5.68618 6.76878 5.61236 6.82623 5.52667C6.88356 5.44097 6.93969 5.34745 6.98875 5.25583C7.03782 5.16422 7.07858 5.07075 7.11877 4.97417C7.15898 4.87769 7.19628 4.78216 7.22713 4.68166C7.22713 4.6692 7.2488 4.64981 7.2488 4.63833C7.2488 4.62692 7.27047 4.60583 7.27047 4.60583L7.29214 4.58417C7.29214 4.58417 7.31365 4.5625 7.32465 4.5625C7.33565 4.5625 7.34538 4.54084 7.35716 4.54084C7.36892 4.54084 7.38813 4.53 7.4005 4.53C7.41286 4.53 7.42034 4.51917 7.433 4.51917L7.47634 4.51917L8.10478 4.50834L8.13729 4.38917C8.15676 4.32471 8.18225 4.31334 8.23481 4.31334L8.65739 4.31334L8.66822 4.3025L8.67905 4.29167L8.67905 3.30583C8.67905 3.11564 8.68363 3.01779 8.81991 2.89416L9.10164 2.63416L9.8276 3.43583L11.6696 1.475L11.7888 0.976667C11.8336 0.785413 11.9549 0.793588 12.0922 0.922499L12.5364 1.345L12.9157 1.82167C13.0344 1.96959 13.0377 2.10784 12.8615 2.1575L12.4172 2.27667L10.6077 4.29167L11.3445 5.07167L11.1062 5.37501C10.9923 5.52504 10.9012 5.52667 10.7269 5.52667L9.81676 5.52667L9.80592 5.5375L9.80592 5.54833L9.79509 5.55916L9.79509 6.00333C9.79509 6.06145 9.79043 6.09159 9.73008 6.11167L9.62172 6.14417L9.61089 6.8375L9.61089 6.87C9.61089 6.88364 9.60006 6.89991 9.60006 6.91333C9.60006 6.92675 9.58921 6.94388 9.58921 6.95666C9.58921 6.96945 9.57838 6.97723 9.57838 6.98916C9.57838 7.00111 9.55672 7.02167 9.55672 7.02167L9.52421 7.05417L9.50254 7.07583C9.50254 7.07583 9.48143 7.0975 9.47003 7.0975C9.37745 7.13099 9.27729 7.17302 9.18832 7.21666C9.09944 7.26019 9.01266 7.30425 8.92827 7.3575C8.84387 7.41075 8.76883 7.46849 8.6899 7.53083C8.61094 7.59318 8.53497 7.66587 8.46235 7.73667L7.96393 8.3C7.39154 8.60854 6.80929 8.56358 6.2953 8.06166C6.25772 8.02447 6.22149 7.99381 6.18694 7.95334C6.15228 7.91286 6.12087 7.86676 6.08942 7.82333C6.05795 7.7799 6.03084 7.73929 6.00274 7.69334C5.97464 7.64737 5.94059 7.58995 5.91607 7.54167C5.89152 7.49338 5.87188 7.45124 5.85105 7.40083C5.83022 7.35043 5.81388 7.30126 5.79688 7.24917C5.77994 7.19717 5.76651 7.14002 5.75353 7.08667C5.74055 7.0333 5.72103 6.97848 5.72103 6.92416C5.72103 6.86922 5.69936 6.82322 5.69936 6.77249L5.68852 6.77249Z" fill-rule="evenodd"  fill="currentcolor" >
</path>
</svg>
