<svg xmlns="http://www.w3.org/2000/svg" xmlns:xlink="http://www.w3.org/1999/xlink" width="14" height="14" viewBox="0 0 14 14" fill="none">
<path fill="currentColor" d="M6.62,6.91a3,3,0,0,1,3.73-1.39,3.31,3.31,0,0,1,2.54,3.32,3.34,3.34,0,0,1-2.53,3.28,15,15,0,0,1-7,.05c-1.3-.33-1.81-.84-1.81-2.2A11.18,11.18,0,0,1,3.07,3.84a6.32,6.32,0,0,0,.41-1.18c.22-.58.48-1.22,1.2-1.22A2.83,2.83,0,0,1,7.1,2.49a.5.5,0,0,1,.12.37A7.08,7.08,0,0,1,6.6,4.47,1.55,1.55,0,0,1,5.3,5H4.59L5.89,7.6c.13.44.27.87.39,1.31.23.86.44,1.73-.46,2.45a1.15,1.15,0,0,0,1.09-1.24A8.3,8.3,0,0,0,6.62,6.91ZM6.27,3.4a1.21,1.21,0,0,0-.89-.27c-.17,0-.37.05-.37.26s.24.19.39.17A8.33,8.33,0,0,0,6.27,3.4Z"></path>
</svg>
