<svg xmlns="http://www.w3.org/2000/svg" xmlns:xlink="http://www.w3.org/1999/xlink" width="14" height="14" viewBox="0 0 14 14" fill="none">
<path   fill-rule="evenodd"  fill="currentColor"  d="M8.41178 12.412L12.352 8.46027C13.6436 6.95448 13.5562 4.70771 12.1516 3.30682C10.7468 1.90605 8.49991 1.82475 6.99762 3.12038C5.49383 1.82464 3.24516 1.90814 1.84153 3.31171C0.430501 4.72341 0.363935 6.97041 1.63569 8.46841L5.58138 12.4141C6.36323 13.196 7.63106 13.195 8.41178 12.412ZM3.49998 6.99995C4.32841 6.99995 4.99998 6.32838 4.99998 5.49995C4.99998 4.67152 4.32841 3.99995 3.49998 3.99995C2.67155 3.99995 1.99998 4.67152 1.99998 5.49995C1.99998 6.32838 2.67155 6.99995 3.49998 6.99995Z">
</path>
</svg>
