<svg xmlns="http://www.w3.org/2000/svg" xmlns:xlink="http://www.w3.org/1999/xlink" width="14" height="14" viewBox="0 0 14 14" fill="none">
<path   fill-rule="evenodd"  fill="currentColor"  d="M8.2 13.7C5.2 12.5 1 10.7 1 6.80004C1 4.14906 3.14908 2 5.8 2L8.2 2C10.8509 2 13 4.14906 13 6.80004C13 9.45091 10.8509 11.6 8.2 11.6L8.2 13.7ZM5.90926 7.18178C5.90926 7.63365 5.54295 7.99996 5.09108 7.99996C4.63921 7.99996 4.2729 7.63365 4.2729 7.18178C4.2729 6.72991 4.63921 6.3636 5.09108 6.3636C5.54295 6.3636 5.90926 6.72991 5.90926 7.18178ZM8.09096 7.18178C8.09096 7.63365 7.72465 7.99996 7.27278 7.99996C6.82091 7.99996 6.4546 7.63365 6.4546 7.18178C6.4546 6.72991 6.82091 6.3636 7.27278 6.3636C7.72465 6.3636 8.09096 6.72991 8.09096 7.18178ZM10.2726 7.18178C10.2726 7.63365 9.90625 7.99996 9.45438 7.99996C9.00251 7.99996 8.6362 7.63365 8.6362 7.18178C8.6362 6.72991 9.00251 6.3636 9.45438 6.3636C9.90625 6.3636 10.2726 6.72991 10.2726 7.18178Z">
</path>
</svg>
