<svg xmlns="http://www.w3.org/2000/svg" xmlns:xlink="http://www.w3.org/1999/xlink" width="14" height="14" viewBox="0 0 14 14" fill="none">
<path   fill-rule="evenodd"  fill="currentColor"  d="M3.9444 13L11.4444 13C11.7513 13 12 12.7313 12 12.4L12 1.6C12 1.26868 11.7513 1 11.4444 1L3.6667 1C2.7462 1 2 1.80592 2 2.8L2 10.9C2 12.0598 2.8706 13 3.9444 13ZM4 6.5L5.5 5.07143L7 6.5L7 1.5L4 1.5L4 6.5ZM11.1113 10L3.96842 10C3.49506 10 3.1113 10.4477 3.1113 11C3.1113 11.5523 3.49506 12 3.96842 12L11.1113 12L11.1113 10Z">
</path>
</svg>
