<svg width="24" height="24" viewBox="0 0 24 24" fill="none" xmlns="http://www.w3.org/2000/svg">
<path d="M9.07031 11.175C8.64843 12.75 9.58125 14.3672 11.1562 14.7891C12.7312 15.2109 14.3484 14.2781 14.7703 12.7031C15.1922 11.1281 14.2594 9.51094 12.6844 9.08906C11.1094 8.66719 9.49218 9.6 9.07031 11.175Z" fill="#5B00D1"/>
<path d="M4.75312 8.08594C4.97343 7.26094 4.49062 6.4125 3.67031 6.18281C3.66797 6.18281 3.66445 6.18164 3.66093 6.18047C3.65742 6.1793 3.6539 6.17813 3.65156 6.17813C2.82187 5.95313 1.96406 6.45 1.74375 7.27969C1.51875 8.10938 2.01562 8.96719 2.84531 9.1875C2.91562 9.20625 2.98593 9.22031 3.05625 9.22969C3.81562 9.32344 4.54687 8.84531 4.75312 8.08594Z" fill="#5B00D1"/>
<path d="M14.6297 3.07032C14.5359 3.82969 15.0141 4.56563 15.7734 4.76719C16.5984 4.9875 17.4469 4.50469 17.6766 3.68438C17.6766 3.68203 17.6777 3.67852 17.6789 3.675C17.6801 3.67149 17.6812 3.66797 17.6812 3.66563C17.9062 2.83594 17.4094 1.97813 16.5797 1.75782C15.75 1.53282 14.8922 2.02969 14.6719 2.85938C14.6531 2.92969 14.6391 3 14.6297 3.07032Z" fill="#5B00D1"/>
<path d="M20.7891 14.6484C20.0297 14.5547 19.2937 15.0328 19.0922 15.7922C18.8719 16.6172 19.3547 17.4656 20.175 17.6953L20.1783 17.6958C20.1783 17.6958 20.1823 17.697 20.1844 17.6977C20.1864 17.6983 20.1903 17.6995 20.1903 17.6995L20.1937 17.7C21.0234 17.925 21.8812 17.4281 22.1016 16.5984C22.3266 15.7688 21.8297 14.9109 21 14.6906C20.9297 14.6719 20.8594 14.6578 20.7891 14.6484Z" fill="#5B00D1"/>
<path fill-rule="evenodd" clip-rule="evenodd" d="M17.5453 13.1578C17.3625 13.1438 17.2078 13.2797 17.1937 13.4625C17.0344 15.7359 16.1297 17.4844 14.7844 18.6656C13.4766 19.8188 11.7469 20.4375 9.88125 20.4844C9.89062 20.6156 9.88593 20.7516 9.86718 20.8875C9.85781 20.9766 9.83906 21.0609 9.82031 21.1453C11.8687 21.1125 13.7766 20.4375 15.2203 19.1625C16.6875 17.8688 17.6719 15.9703 17.85 13.5094C17.8641 13.3266 17.7281 13.1719 17.5453 13.1578ZM5.19375 14.8031C6.375 16.1438 8.12343 17.0484 10.3969 17.2125C10.5797 17.2266 10.7156 17.3813 10.7016 17.5594C10.6875 17.7422 10.5328 17.8781 10.35 17.8641C7.88906 17.6906 5.99062 16.7016 4.69687 15.2344C3.42187 13.7906 2.74687 11.8828 2.71406 9.83438C2.79843 9.85313 2.8875 9.87188 2.97187 9.88125C3.10781 9.9 3.24375 9.90469 3.375 9.89531C3.42187 11.7656 4.04062 13.4906 5.19375 14.8031ZM4.39218 3.9C4.07343 4.42031 3.80625 4.95469 3.58125 5.48906C3.66093 5.49844 3.74062 5.51719 3.82031 5.54063C3.825 5.54063 3.83437 5.54063 3.84375 5.54531C3.975 5.58281 4.09687 5.62969 4.21406 5.68594C4.42031 5.19844 4.66875 4.71563 4.95468 4.24219C5.34843 3.59532 5.8125 2.9625 6.35156 2.3625C6.47343 2.22657 6.46406 2.02032 6.32812 1.89844C6.19218 1.77657 5.98593 1.78594 5.86406 1.92188C5.29218 2.55469 4.80468 3.22032 4.39218 3.9ZM6.29531 10.7156C6.47812 10.7297 6.63281 10.5938 6.64687 10.4109C6.81093 8.14219 7.71562 6.39375 9.05625 5.20781C10.3641 4.05469 12.0937 3.43594 13.9594 3.38907C13.95 3.25782 13.9547 3.12188 13.9734 2.98594C13.9828 2.89688 14.0016 2.8125 14.0203 2.72813C11.9719 2.76094 10.0641 3.43594 8.62031 4.71094C7.15312 6.00469 6.16875 7.90313 5.99062 10.3641C5.97656 10.5469 6.1125 10.7016 6.29531 10.7156ZM19.9594 4.41094C19.4391 4.09219 18.9047 3.825 18.3703 3.6C18.3609 3.67969 18.3422 3.75938 18.3187 3.83907C18.3187 3.84375 18.3187 3.85313 18.3141 3.8625C18.2766 3.99375 18.2297 4.11563 18.1734 4.23282C18.6609 4.43907 19.1437 4.6875 19.6172 4.97344C20.2641 5.36719 20.8969 5.83125 21.4969 6.37031C21.6328 6.49219 21.8391 6.48281 21.9609 6.34688C22.0828 6.21094 22.0734 6.00469 21.9375 5.88281C21.3047 5.31094 20.6391 4.82344 19.9594 4.41094ZM18.6516 9.075C17.4703 7.73438 15.7219 6.82969 13.4484 6.66563C13.2656 6.65156 13.1297 6.49219 13.1437 6.31406C13.1578 6.13125 13.3125 5.99531 13.4953 6.00938C15.9562 6.18281 17.8547 7.17188 19.1484 8.63906C20.4234 10.0828 21.0984 11.9906 21.1312 14.0391C21.0469 14.0203 20.9578 14.0016 20.8734 13.9922C20.7375 13.9734 20.6016 13.9688 20.4703 13.9781C20.4234 12.1125 19.8047 10.3828 18.6516 9.075ZM20.2594 18.3891C20.0344 18.9234 19.7672 19.4578 19.4484 19.9781C19.0359 20.6578 18.5437 21.3234 17.9766 21.9563C17.8547 22.0922 17.6484 22.1016 17.5125 21.9797C17.3766 21.8578 17.3672 21.6516 17.4891 21.5156C18.0281 20.9109 18.4969 20.2828 18.8859 19.6359C19.1719 19.1625 19.4203 18.6797 19.6266 18.1922C19.7437 18.2484 19.8656 18.2953 19.9969 18.3328C19.9969 18.3328 20.0016 18.3336 20.0048 18.3346C20.0093 18.3359 20.0148 18.3375 20.0203 18.3375C20.1 18.3609 20.1797 18.375 20.2594 18.3891ZM3.88125 19.4672C4.40156 19.7859 4.93593 20.0531 5.47031 20.2781C5.48437 20.1984 5.49843 20.1188 5.52187 20.0391C5.52187 20.0344 5.52187 20.025 5.52656 20.0156C5.56406 19.8844 5.61093 19.7625 5.66718 19.6453C5.17968 19.4391 4.69687 19.1906 4.22343 18.9047C3.57656 18.5109 2.94375 18.0469 2.34375 17.5078C2.20781 17.3859 2.00156 17.3953 1.87968 17.5313C1.75781 17.6672 1.76718 17.8734 1.90312 17.9953C2.53593 18.5672 3.20156 19.0547 3.88125 19.4672Z" fill="black"/>
<path d="M9.21093 20.8031C9.30468 20.0438 8.82656 19.3078 8.06718 19.1063C7.24218 18.8859 6.39375 19.3688 6.16406 20.1891C6.16406 20.1914 6.16289 20.1949 6.16172 20.1984C6.16054 20.202 6.15937 20.2055 6.15937 20.2078C5.93437 21.0375 6.43125 21.8953 7.26093 22.1156C8.09062 22.3406 8.94843 21.8437 9.16875 21.0141C9.1875 20.9437 9.20156 20.8734 9.21093 20.8031Z" fill="#5B00D1"/>
</svg>
