<svg width="272" height="60" viewBox="0 0 272 60" fill="none" xmlns="http://www.w3.org/2000/svg">
<path d="M81.4649 0H82.088C83.7923 0.0608387 85.6595 0.271601 86.9839 1.45796C88.05 2.49221 88.7339 3.93279 88.7143 5.4342C87.9197 6.32723 87.4095 7.41363 86.8971 8.48048C85.2883 8.51525 83.6794 8.78468 82.177 9.36699C79.1135 10.5164 76.6471 12.8109 73.5749 13.9451C73.5728 13.3476 73.5728 12.7479 73.5793 12.1504C74.0396 11.7918 74.4521 11.3768 74.8125 10.9184C74.4 10.9119 73.9896 10.9075 73.5771 10.9097C71.3777 13.5909 68.2166 15.151 65.5352 17.2673C63.7961 18.634 62.3458 20.3853 61.4578 22.4212C61.8594 22.4234 62.2611 22.4234 62.6649 22.4234C64.5126 19.6183 67.5674 18.03 69.9491 15.7572C71.4277 15.7333 72.9106 15.8029 74.3696 16.0484C76.9967 16.4699 79.4566 17.5281 82.0272 18.1756C82.1987 18.6188 82.3963 19.049 82.646 19.4532C82.0402 21.6043 80.6029 23.3816 79.8235 25.4588C79.6585 25.8565 79.6129 26.2888 79.6237 26.7169C79.6324 28.7441 79.6281 30.7692 79.6281 32.7964C79.6172 33.8524 79.6932 34.9171 79.4978 35.96C78.9615 39.2605 80.2317 42.5415 79.7822 45.8441C79.5868 47.6889 78.3015 49.1468 77.8022 50.8981C77.2919 50.8894 76.7839 50.8764 76.2758 50.9003C74.6996 50.9394 73.3035 51.7716 71.7881 52.1105C70.5614 50.4679 68.6269 49.6248 67.131 48.2755C66.434 47.6606 65.9651 46.7893 65.8522 45.8659C65.7545 45.1163 66.1214 44.4079 66.1257 43.667C66.0367 43.0934 65.4983 42.7674 65.1183 42.3916C65.0532 42.9109 65.2356 43.5279 64.8448 43.956C63.3054 46.0115 62.7453 48.6427 61.093 50.6265C60.5568 51.2914 59.8403 51.7759 59.0674 52.1257C57.9796 51.148 56.7008 50.4396 55.4611 49.6857C55.1398 48.2994 55.0442 46.8588 54.8076 45.453C55.9713 44.1646 57.1524 42.8413 57.8472 41.2247C55.8454 41.1313 53.8805 40.4295 52.2782 39.2236C50.7606 38.1089 49.5947 36.4533 49.3341 34.5586C49.4926 34.5542 49.8053 34.5455 49.9637 34.5412C49.9637 34.3869 49.9616 34.0805 49.9616 33.9263C50.9321 33.9241 51.9265 34.237 52.8839 34.0067C54.0477 32.5118 53.9391 30.4867 54.2822 28.7072C54.6469 26.1215 56.1819 23.94 57.337 21.6629C58.1055 20.1876 58.6874 18.6166 59.0413 16.9914C60.281 16.8827 61.5034 16.5003 62.5325 15.792C64.6667 14.3623 66.091 12.083 66.9291 9.69074C66.5209 9.69074 66.1127 9.69291 65.7045 9.69508C59.6796 14.4144 51.7571 15.6377 45.5824 20.1072C43.6891 21.5304 43.3266 24.1356 41.5571 25.6674C41.0252 26.1433 40.3586 26.417 39.7051 26.6734C39.0581 25.8543 38.105 25.3024 37.6056 24.3659C37.091 23.3512 36.253 22.4582 36.1792 21.2631C35.923 18.5667 37.0281 15.9962 37.2517 13.3345C38.2005 13.1129 39.1493 12.8457 40.0047 12.3676C42.3235 11.1596 43.4416 8.5587 45.704 7.26371C46.8264 8.76512 48.1899 10.1644 49.942 10.914C52.415 9.14754 55.3352 8.15456 58.2597 7.43971C63.034 6.24466 67.9473 5.68625 72.7021 4.40429C75.8677 3.54386 79.0549 2.30535 81.4649 0ZM63.2815 27.8728C64.9164 27.862 66.5317 28.1292 68.1232 28.4769C68.2252 27.8381 68.3186 27.1819 68.7181 26.6474C68.514 27.7664 69.2305 28.6941 69.3412 29.7675C69.8579 32.942 69.1979 36.2229 69.9491 39.3605C70.0968 39.3735 70.3964 39.3996 70.544 39.4105C70.557 33.9524 70.5397 28.4921 70.5527 23.034C69.5865 22.6559 68.5574 22.4951 67.5261 22.4191C65.913 24.0682 64.2412 25.7348 63.2815 27.8728ZM60.2485 43.0477C60.8998 43.1955 61.1864 42.5828 61.5881 42.2155C62.9689 40.8163 65.0337 40.1688 66.0758 38.424C66.7423 37.4158 66.7793 36.1795 66.9985 35.0366C67.5457 33.9263 67.5587 32.5813 66.9356 31.4992C64.6798 35.3277 61.7031 38.7912 60.2485 43.0477Z" fill="#313956" fill-opacity="0.4"/>
<path d="M200.287 5.66668C202.908 4.49336 205.187 2.57694 207.99 1.8208C209.475 2.79857 211.284 2.99195 212.908 3.64162C213.431 3.86107 213.983 4.09791 214.341 4.56289C215.45 5.87092 216.571 7.17026 217.685 8.47612C217.685 8.68037 217.689 8.88678 217.693 9.09103C217.546 9.0932 217.248 9.09537 217.101 9.09537C216.293 11.6245 213.625 12.8804 212.7 15.3313C212.485 15.8528 212.367 16.4069 212.239 16.9523C213.386 16.7415 214.625 16.811 215.631 17.4564C216.566 18.0343 217.389 18.7752 218.299 19.3945C218.093 20.0094 217.889 20.6243 217.68 21.237C214.491 22.2365 211.08 21.3913 207.854 22.1583C206.946 22.3713 206.106 22.8623 205.557 23.6271C206.325 23.7054 207.122 23.6489 207.871 23.8792C208.566 24.1138 208.885 24.8265 209.208 25.4241C208.633 26.5865 208.399 27.8706 208.006 29.0961C208.162 29.0896 208.477 29.0744 208.633 29.0679C209.569 27.8272 210.676 26.719 211.862 25.7152C213.384 24.4702 215.103 23.3338 217.081 23.0144C217.821 24.9265 219.102 26.5691 220.698 27.8424C220.555 27.8576 220.268 27.888 220.123 27.9032C219.38 28.4616 218.666 29.0679 217.843 29.5068C215.368 30.9039 212.535 31.4058 209.819 32.1207C209.821 32.2706 209.821 32.5704 209.821 32.7204C215.709 33.3135 220.529 37.1312 226.098 38.7608C228.43 39.4474 230.889 39.38 233.269 39.7994C234.248 39.9689 235.253 40.3556 235.859 41.19C235.31 41.3269 234.722 41.3334 234.209 41.5833C233.903 41.8223 233.675 42.1417 233.434 42.4415C233.853 42.3416 234.27 42.2112 234.672 42.0439C234.856 42.3698 235.047 42.6957 235.243 43.0217C235.095 43.0217 234.798 43.026 234.648 43.026C231.4 46.4373 226.554 47.8105 221.96 47.8648C220.97 47.2021 219.676 47.2608 218.72 46.5329C215.338 44.1906 213.377 40.4121 210.305 37.7395C209.426 36.953 208.438 36.2946 207.396 35.7449C207.391 36.149 207.391 36.5532 207.396 36.9573C208.967 39.0454 209.699 41.6593 209.816 44.2471C207.029 46.094 204.108 47.9561 200.741 48.4819C199.775 46.0397 198.444 43.7452 197.71 41.2117C198.813 41.1574 200.044 41.392 201.038 40.7902C201.913 40.0514 201.77 38.789 202.063 37.7787C202.404 36.6488 201.959 35.5037 201.416 34.5216C201.388 34.6759 201.334 34.9844 201.305 35.1387C199.86 36.3077 198.422 37.494 197.139 38.8433C196.171 39.8602 195.194 40.9683 194.842 42.3655C194.562 43.2759 194.679 44.258 194.384 45.1619C194.143 45.8615 193.498 46.2743 192.916 46.6676C192.899 46.522 192.86 46.2309 192.84 46.0853C191.262 45.4031 190.181 43.9429 189.646 42.3437C189.025 40.6185 188.815 38.7825 188.628 36.9682C189.028 36.966 189.429 36.966 189.833 36.9682C190.252 37.5375 190.641 38.2263 191.351 38.4674C192.033 38.6847 192.758 38.7086 193.468 38.7825C195.658 36.0578 199.291 34.9757 201.353 32.1185C201.759 32.5183 202.146 32.9355 202.55 33.3396C202.699 30.5084 202.966 27.6859 203.162 24.8569C202.176 24.8374 201.384 24.2985 200.734 23.6076C199.013 23.927 197.662 25.2285 195.91 25.461C194.762 23.9813 193.238 22.821 192.254 21.2088C193.027 20.9068 193.837 20.7091 194.664 20.6048C195.682 21.3174 196.994 21.5543 198.201 21.2436C200.092 20.759 201.811 19.4184 202.569 17.5932C201.861 17.289 201.143 16.9327 200.654 16.3178C200.222 15.7637 199.903 15.1336 199.525 14.5426C197.708 14.9337 196.525 16.6111 194.699 16.9783C194.679 16.5112 194.855 15.9962 194.664 15.553C194.195 15.0728 193.754 14.5643 193.465 13.9516C197.078 12.8652 199.875 10.0579 203.494 8.99542C204.647 8.62605 205.837 8.92372 206.959 9.24964C207.665 9.47996 208.316 8.95849 208.668 8.39138C209.152 7.71129 209.124 6.84434 209.217 6.05126C205.313 5.83616 201.742 7.83732 197.875 7.96117C197.015 8.00679 196.156 7.95247 195.3 7.88294C195.385 7.44186 195.463 6.99861 195.526 6.55318C195.839 6.40109 196.149 6.24682 196.459 6.0882C197.717 6.63792 199.106 6.21205 200.287 5.66668ZM201.34 14.5448C201.338 14.9598 201.338 15.377 201.347 15.792C201.944 15.7876 202.476 15.4639 203.071 15.44C203.642 15.4074 204.284 15.3466 204.671 14.862C205.446 14.1863 206.078 13.1607 205.626 12.1134C204.419 13.2693 202.862 13.9212 201.34 14.5448Z" fill="#313956" fill-opacity="0.4"/>
<path d="M135.513 11.2508C138.017 10.5903 140.609 10.3013 143.197 10.297C144.391 11.4094 145.922 12.083 147.092 13.2237C147.95 14.0451 148.429 15.1771 148.657 16.3287C148.377 16.7002 148.193 17.1261 148.054 17.5672C145.075 18.6732 141.933 19.2272 138.868 20.0355C135.73 20.9546 133.42 23.6532 132.307 26.6474C132.819 26.5279 133.032 26.756 132.954 27.2601C137.48 25.5436 142.352 24.4789 146.402 21.7064C149.07 19.9095 150.978 17.0761 151.69 13.9408C151.834 13.9386 152.123 13.9343 152.266 13.9343C152.22 14.8534 153.071 15.5943 152.85 16.5329C152.683 16.7546 152.498 16.9588 152.324 17.1696C152.713 17.0131 153.065 16.7785 153.38 16.5003C153.779 16.6503 154.116 16.9219 154.359 17.2717C155.627 18.96 156.678 20.8025 158.054 22.4082C157.657 23.349 156.814 23.9661 156.072 24.6223C154.676 25.7087 152.926 26.1846 151.226 26.5496C148.497 27.1558 145.574 27.46 143.206 29.0787C147.018 29.7002 150.85 30.3194 154.726 30.302C154.724 30.9061 154.724 31.508 154.726 32.112C154.328 32.1142 153.933 32.1142 153.54 32.1185C151.623 33.5417 149.129 33.6482 146.847 33.9372C147.038 37.5419 147.264 41.1444 147.435 44.7512C147.248 45.6377 146.693 46.4069 146.182 47.1435C144.393 49.4901 142.046 51.3631 139.515 52.8558C137.489 54.0161 135.277 54.9765 132.923 55.1568C132.921 54.7505 132.923 54.3442 132.925 53.9401C133.494 53.6511 134.243 53.449 134.489 52.7885C134.708 52.2322 134.849 51.6391 135.19 51.1393C136.948 48.4993 139.098 45.9571 139.786 42.7762C140.357 40.0623 139.979 37.2702 139.584 34.5608C138.783 34.6303 137.843 34.0393 137.142 34.5868C135.526 37.0986 135.989 40.3317 134.586 42.9283C134.111 43.8321 133.268 44.4818 132.333 44.8534C131.445 43.717 130.363 42.7588 129.284 41.8136C129.645 40.3839 130.322 39.0454 130.502 37.5679C129.499 37.6874 128.481 37.833 127.543 38.2241C126.766 38.5261 126.054 38.9846 125.237 39.1802C124.189 39.4344 123.099 39.4083 122.028 39.3953C120.867 37.6679 119.49 36.01 118.984 33.9415C119.382 33.9393 119.779 33.9393 120.179 33.9372C120.37 33.7307 120.563 33.5287 120.76 33.3288C121.034 34.1566 121.169 35.2452 122.078 35.6298C123.136 36.0078 124.288 35.7906 125.385 35.7667C125.639 35.7971 125.808 35.5885 125.993 35.4538C126.596 34.9432 127.276 34.5282 127.969 34.1479C131.117 32.4227 134.452 31.0756 137.763 29.6958C137.763 29.5437 137.765 29.2395 137.765 29.0874C137.166 29.0853 136.564 29.0853 135.967 29.0918C134.599 30.6497 132.354 30.3238 130.504 30.2999C130.059 29.6567 129.53 29.0809 129.048 28.4682C128.379 27.6164 128.199 26.5105 128.077 25.4654C129.356 23.5859 129.119 20.8547 131.073 19.4228C132.469 19.1729 133.92 19.4054 135.337 19.3924C136.757 17.7801 138.162 16.157 139.582 14.5448C139.43 14.5448 139.128 14.5426 138.978 14.5426C138.976 14.3905 138.976 14.0885 138.976 13.9364C137.604 14.8338 136.41 15.9767 135.016 16.8415C133.305 17.8931 131.258 18.1539 129.291 18.1864C128.066 17.1717 126.622 16.4395 125.504 15.2988C124.51 14.2862 124.054 12.8913 123.83 11.5181C124.226 11.5159 124.621 11.5159 125.018 11.5159C125.038 11.6702 125.077 11.9765 125.098 12.1286C125.55 12.9022 125.919 13.717 126.26 14.5448C129.347 13.4584 132.333 12.0656 135.513 11.2508ZM135.329 32.7182C135.837 32.6987 136.39 32.8247 136.855 32.5552C137.693 32.1163 138.668 32.1772 139.584 32.1163C139.486 31.2842 139.291 30.4693 138.981 29.6915C137.554 30.4281 136.384 31.5275 135.329 32.7182Z" fill="#313956" fill-opacity="0.4"/>
<path d="M99.1011 24.342C98.6756 21.513 98.313 18.571 99.0012 15.7529C100.908 17.1435 102.849 18.5189 104.49 20.2245C105.562 21.3196 106.335 22.771 106.39 24.3268C106.498 25.4784 106.188 26.656 106.485 27.7881C106.672 28.5138 107.382 28.8853 108.042 29.0918C108.795 28.642 109.72 28.3704 110.58 28.6746C111.839 29.0657 112.647 30.2694 112.946 31.5036C111.403 32.2228 109.779 33.0897 108.936 34.6433C108.331 35.7188 108.155 36.9682 108.085 38.1828C108.231 38.1828 108.522 38.1828 108.667 38.185C108.55 37.5266 109.117 37.1464 109.462 36.6901C110.376 35.545 111.188 34.3043 112.308 33.344C112.766 33.6395 113.27 34.0023 113.852 33.9045C114.584 33.8133 115.454 33.4852 116.082 34.0436C116.713 34.7671 117.139 35.645 117.764 36.375C117.604 37.418 117.821 38.6195 117.093 39.4908C115.893 40.9901 114.149 41.9331 112.925 43.4084C112.475 43.9538 112.098 44.6752 112.321 45.3965C112.599 46.4938 112.847 47.7823 113.865 48.445C114.835 49.0251 116.014 49.0577 117.113 49.0729C118.277 47.8475 120.166 47.6432 121.173 46.2418C122.067 45.1858 122.484 43.8256 123.329 42.737C124.336 41.5202 126.019 41.3008 127.495 41.203C127.517 41.5767 127.45 41.9244 127.098 42.1134C124.901 43.9473 124.163 46.8632 123.45 49.5097C122.649 52.4582 122.098 55.6978 119.938 58.0097C118.893 59.1092 117.456 59.7588 115.973 60C112.15 55.8782 108.554 51.5021 105.669 46.6611C103.148 47.7432 100.562 48.6949 97.8831 49.2967C96.0289 50.0094 94.1552 50.6808 92.3467 51.5087C92.3489 51.1023 92.3489 50.696 92.3532 50.2897C95.0302 48.7687 97.5509 46.9305 99.6656 44.6817C101.342 42.8522 102.759 40.6837 103.244 38.2154C102.955 37.8438 102.775 37.4115 102.644 36.9639C101.913 36.7835 101.585 37.5071 101.138 37.9242C100.167 37.4832 98.96 37.3398 98.2652 36.4598C97.7203 35.5276 97.8657 34.3891 97.7984 33.3548C98.009 33.1506 98.2175 32.9442 98.4237 32.7334C99.0078 32.8529 99.5918 33.0876 100.198 33.0202C100.853 32.7921 101.096 32.0663 101.429 31.5231C100.074 29.3655 99.5614 26.8125 99.1011 24.342ZM107.534 33.2766C107.295 33.6938 107.082 34.124 106.898 34.5651C107.241 34.2196 107.692 33.8241 107.534 33.2766ZM103.272 41.1856C102.853 41.7918 102.449 42.4089 102.041 43.0238C102.651 42.8218 103.261 42.6197 103.869 42.4111C103.719 41.9809 103.543 41.555 103.272 41.1856Z" fill="#313956" fill-opacity="0.4"/>
<path d="M177.736 19.9942C180.28 19.9616 182.986 20.3875 185.05 21.978C186.468 23.0405 187.334 24.7635 187.406 26.5257C187.395 26.8016 187.189 27.0167 187.085 27.2579C185.938 29.346 185.676 31.7795 185.623 34.1218C185.574 39.2236 186.642 44.2428 186.978 49.3185C187.102 51.589 187.152 53.9357 186.412 56.115C185.951 57.4209 185.109 58.7159 183.824 59.3112C183.398 58.8962 183.183 59.422 182.936 59.6458C181.075 58.2878 179.405 56.6952 177.697 55.1568C176.248 53.7836 174.735 52.4625 173.474 50.909C174.271 50.8981 175.072 50.8872 175.871 50.9263C175.888 50.8525 175.925 50.7069 175.942 50.633C175.992 51.5543 176.998 51.9063 177.744 52.1214C177.76 51.7737 177.775 51.4261 177.788 51.0784C178.166 51.0306 178.546 50.9785 178.925 50.922C179.464 51.2914 180.111 51.4087 180.743 51.5108C180.89 51.0719 181.066 50.6417 181.355 50.2745C180.054 43.089 180.146 35.7601 180.152 28.4877C179.444 27.9988 178.791 27.4361 178.083 26.9494C177.069 26.2693 175.814 26.1476 174.629 26.0824C173.971 25.9825 173.432 26.4605 172.814 26.5887C170.999 27.071 169.116 27.3057 167.243 27.3231C166.552 27.397 166.415 26.5452 166.218 26.0694C169.483 25.8217 172.59 24.4419 175.187 22.4842C176.133 21.7629 177.006 20.9372 177.736 19.9942Z" fill="#313956" fill-opacity="0.4"/>
<path d="M108.695 20.6004C110.649 20.8047 112.697 21.3218 114.164 22.7037C115.406 23.8597 115.94 25.5849 115.962 27.2471C115.667 27.6078 115.498 28.0401 115.35 28.4769C114.759 28.479 114.169 28.4812 113.58 28.4725C111.752 27.3883 109.496 27.8142 107.508 27.2558C107.497 27.1102 107.471 26.819 107.46 26.6734C107.618 26.6713 107.935 26.6626 108.094 26.6604C108.917 25.4588 110.083 24.4702 110.521 23.0318C109.564 22.5342 108.949 21.6369 108.695 20.6004Z" fill="#313956" fill-opacity="0.4"/>
<path d="M86.2935 21.2088C88.6514 21.8215 91.0331 22.6276 92.9785 24.1443C94.1661 25.0721 95.0997 26.3649 95.3863 27.8663C94.6242 28.2726 93.7818 28.629 93.2347 29.3286C92.6289 30.126 92.5073 31.1538 92.3445 32.112C92.4965 32.112 92.8004 32.1141 92.9502 32.1163C93.6493 31.1016 94.7327 30.4628 95.9529 30.3107C96.3242 30.5867 96.7519 30.7692 97.1883 30.9191C97.1883 31.0647 97.1883 31.3558 97.1861 31.5014C95.6055 32.6834 94.6264 34.4934 94.1574 36.3837C94.6329 36.3272 95.0975 36.2142 95.5686 36.1252C96.309 36.438 96.4154 37.3528 96.7649 37.9959C97.2665 39.3887 98.0047 40.8358 97.8288 42.3503C96.0485 44.4926 93.7036 46.1831 91.146 47.2804C90.9919 46.6459 90.9094 45.9854 90.6315 45.3922C90.3731 44.8403 89.8151 44.5448 89.3288 44.2254C89.3223 44.6317 89.3201 45.038 89.3201 45.4465C89.6175 45.7116 89.9584 45.9419 90.1842 46.2765C90.3861 46.7806 90.4187 47.3325 90.5316 47.8605C90.0887 48.0039 89.6631 48.1886 89.2897 48.4711C87.9827 48.1017 86.8775 47.2912 85.6899 46.6611C85.538 42.2481 83.4732 38.2436 82.6655 33.961C82.8761 33.7524 83.0889 33.5417 83.2973 33.3287C83.7185 33.483 84.181 33.6025 84.4849 33.961C85.6313 35.2104 86.5888 36.6314 87.8177 37.8069C88.05 38.0546 88.3539 38.211 88.6666 38.3349C89.2636 36.9291 89.3309 35.3712 89.192 33.8676C88.799 29.5285 87.0426 25.4762 86.2935 21.2088ZM92.351 35.143C92.1469 35.7493 91.945 36.3576 91.7431 36.966C92.1447 36.966 92.5464 36.966 92.9481 36.966C92.9481 36.5641 92.9481 36.1643 92.9481 35.7623C93.1522 35.5559 93.3562 35.3473 93.5625 35.1409C93.1587 35.1409 92.7548 35.1409 92.351 35.143ZM89.8954 41.8701C89.5589 42.3959 89.4656 43.0303 89.3136 43.6257C89.4634 43.6257 89.763 43.63 89.9128 43.63C90.2906 43.0695 90.7661 42.5827 91.1547 42.0287C91.4652 41.6006 91.2741 41.0683 91.1677 40.6098C90.7444 41.0314 90.271 41.4051 89.8954 41.8701Z" fill="#313956" fill-opacity="0.4"/>
<path d="M157.403 24.4094C158.087 23.8835 159.051 24.0356 159.856 23.8379C161.326 24.3616 162.922 23.6706 164.37 24.2225C165.041 25.0721 164.935 26.2324 165.015 27.2492C163.866 28.1336 163.284 29.5676 162.017 30.3172C161.973 29.9978 162.003 29.6437 161.767 29.3895C160.868 28.1575 160.369 26.6517 159.281 25.5566C158.764 25.0178 158.065 24.7244 157.403 24.4094Z" fill="#313956" fill-opacity="0.4"/>
<path d="M191.036 26.0607C193.702 26.2606 196.492 26.5279 198.854 27.8924C200.185 28.6377 201.16 29.9783 201.362 31.5036C199.534 32.7182 197.506 33.6612 195.309 33.9371C195.634 32.6856 195.491 31.2385 194.516 30.3064C193.205 29.0309 191.542 27.9337 191.036 26.0607Z" fill="#313956" fill-opacity="0.4"/>
<path d="M171.691 27.8706C173.771 27.8076 175.877 28.1379 177.744 29.0918C177.51 29.585 177.301 30.1152 176.895 30.4954C176.498 30.8691 175.936 30.9691 175.497 31.2776C175.065 31.7426 174.954 32.4053 174.874 33.0115C174.639 35.3451 175.134 37.6613 175.321 39.9797C176.09 39.8776 176.952 39.7472 177.638 40.2079C178.326 40.675 178.914 41.2769 179.546 41.8179C179.34 42.4263 179.138 43.0369 178.93 43.6453C178.23 43.5344 177.56 43.0195 176.843 43.1672C176.224 43.604 175.818 44.2971 175.571 45.0033C175.102 46.5242 174.974 48.1212 174.702 49.6835C174.294 49.6835 173.888 49.6835 173.484 49.6857C173.484 49.5357 173.484 49.2381 173.484 49.0881C171.669 48.0148 170.588 46.1288 169.854 44.2145C170.469 44.2884 171.059 44.4883 171.619 44.7534C171.867 44.3949 172.082 44.0146 172.292 43.6322C171.274 43.6626 170.245 43.5627 169.235 43.6757C167.583 44.6122 165.649 44.7251 163.801 44.8425C163.599 44.2363 163.397 43.63 163.195 43.0238C164.018 42.6805 164.858 42.3524 165.601 41.8505C164.956 40.2231 165.592 38.4848 166.163 36.94C166.613 35.7471 167.123 34.5738 167.44 33.3353C166.139 32.4618 164.656 31.7078 163.792 30.3477C164.003 30.1347 164.216 29.9218 164.424 29.7045C166.954 30.0152 169.678 29.5046 171.691 27.8706ZM171.064 32.766C170.538 33.2679 170.119 33.8698 169.837 34.5412C169.987 34.5412 170.288 34.5433 170.438 34.5433C171.118 33.9958 171.943 33.5764 172.297 32.7247C171.886 32.7443 171.463 32.6682 171.064 32.766ZM169.238 37.5679C170.254 37.5809 171.268 37.5722 172.284 37.5744C172.284 37.1768 172.284 36.7813 172.286 36.3837C171.606 36.425 171.1 35.9122 170.475 35.7427C169.98 36.2925 169.509 36.8704 169.238 37.5679ZM169.238 41.2052C169.839 41.2139 170.44 41.2161 171.044 41.203C171.411 40.9119 171.843 40.7359 172.284 40.5881C172.284 40.4404 172.286 40.1449 172.286 39.9971C171.878 39.7929 171.47 39.5908 171.055 39.4039C170.384 39.9384 169.6 40.3839 169.238 41.2052Z" fill="#313956" fill-opacity="0.4"/>
<path d="M158.354 30.2955C159.281 30.5562 160.329 30.7214 161.026 31.4514C161.641 32.1207 161.806 33.0506 161.982 33.9089C161.395 34.8193 161.435 35.9296 161.376 36.966C161.528 36.966 161.828 36.966 161.977 36.966C161.977 36.8205 161.979 36.5293 161.979 36.3837C162.794 35.5081 163.256 34.3999 163.81 33.3592C163.957 33.344 164.253 33.3114 164.4 33.294C164.407 33.9111 164.407 34.5303 164.402 35.1474C162.805 36.7618 161.88 39.0128 161.94 41.2899C161.995 44.7708 163.267 48.0691 163.795 51.4826C163.58 51.689 163.373 51.8998 163.171 52.117C162.776 52.117 162.383 52.1192 161.99 52.1214C160.34 49.7117 158.124 47.6454 157.129 44.8316C156.53 45.0402 155.892 45.2901 155.323 44.8642C157.459 42.5393 158.634 39.4365 158.755 36.2946C158.866 34.287 158.658 32.2771 158.354 30.2955Z" fill="#313956" fill-opacity="0.4"/>
<path d="M164.496 32.338C164.765 32.364 165.156 33.546 164.572 33.2549C164.426 32.9637 164.4 32.6574 164.496 32.338Z" fill="#313956" fill-opacity="0.4"/>
</svg>
