<svg width="10" height="12" viewBox="0 0 10 12" fill="none" xmlns="http://www.w3.org/2000/svg">
<path d="M6.76213 0.693639C6.90205 0.67222 7.04274 0.659039 7.18443 0.654984C7.21409 0.69478 7.22068 0.744462 7.2364 0.790216C7.28012 0.950416 7.33513 1.10745 7.38418 1.26613C7.4312 1.40579 7.4644 1.54939 7.51472 1.68792C7.55781 1.81289 7.59723 1.93912 7.63195 2.06662C7.69723 2.26535 7.76288 2.46395 7.82016 2.66522C7.87111 2.82592 7.92346 2.98638 7.97187 3.14797C8.02143 3.32642 8.08759 3.49955 8.13828 3.67775C8.27922 4.12793 8.40431 4.58331 8.55348 5.03108C8.62611 5.25947 8.70202 5.48697 8.773 5.71599C8.82408 5.8715 8.87604 6.02688 8.92129 6.1843C8.97477 6.36262 9.03662 6.53854 9.08706 6.71787C9.14828 6.91445 9.21773 7.10874 9.2721 7.3076C9.38021 7.62622 9.46893 7.95093 9.57565 8.27006C9.65676 8.55371 9.75537 8.83191 9.83775 9.1153C9.89453 9.28399 9.94434 9.45509 9.99997 9.62429C9.99022 9.64292 9.98147 9.66218 9.97349 9.6817C9.88971 9.68994 9.80898 9.71339 9.72634 9.72733C9.66969 9.72543 9.61912 9.75711 9.56272 9.75559C9.52318 9.75344 9.48655 9.7675 9.44954 9.77878C9.40543 9.78563 9.35981 9.78271 9.31722 9.79818C9.28224 9.81148 9.24447 9.81098 9.20772 9.8111C9.17236 9.8087 9.1427 9.8348 9.10759 9.83265C9.05386 9.83049 9.00227 9.84532 8.95132 9.86015C8.91279 9.87283 8.87122 9.86839 8.83295 9.88183C8.76856 9.90261 8.69949 9.90172 8.63498 9.92251C8.58745 9.93835 8.53587 9.92847 8.48897 9.94672C8.44132 9.96484 8.38923 9.95787 8.34107 9.97333C8.29316 9.98829 8.24398 9.99767 8.19405 10.0005C8.14094 10.0186 8.08835 10.0408 8.03106 10.0378C7.99101 10.0556 7.94906 10.0681 7.90521 10.0712C7.85172 10.0727 7.80534 10.1079 7.75071 10.1013C7.68151 10.0944 7.61649 10.124 7.54792 10.1257C7.34083 10.1697 7.13196 10.2049 6.92499 10.2496C6.86454 10.2491 6.80941 10.2788 6.74921 10.2797C6.68736 10.2817 6.63375 10.3219 6.57126 10.316C6.51765 10.3112 6.47405 10.3656 6.41955 10.3454C6.37963 10.3333 6.34503 10.3651 6.30587 10.3658C6.24795 10.3703 6.19091 10.3814 6.13616 10.4008C6.05048 10.4029 5.97102 10.4409 5.88522 10.4442C5.8169 10.4693 5.74314 10.4641 5.67419 10.4866C5.62945 10.4979 5.57977 10.4928 5.53934 10.5182C5.51488 10.5356 5.48433 10.5305 5.45645 10.5309C5.40373 10.5276 5.35582 10.5553 5.30373 10.5572C5.2325 10.5604 5.17281 10.6111 5.10069 10.6065C5.0671 10.6034 5.03846 10.6222 5.00754 10.6311C4.97611 10.6353 4.94429 10.6306 4.91299 10.6339C4.87966 10.6463 4.84632 10.6609 4.80995 10.6567C4.73542 10.652 4.66686 10.6874 4.59386 10.6941C4.54975 10.6952 4.51236 10.7267 4.46762 10.7224C4.42326 10.7173 4.38195 10.7342 4.33961 10.7438C4.2732 10.749 4.20844 10.7652 4.14393 10.7813C4.05926 10.7865 3.97916 10.8188 3.89437 10.8243C3.84051 10.8405 3.7855 10.853 3.72885 10.8467C3.7087 10.8139 3.69869 10.7776 3.69945 10.7392C3.68145 10.7036 3.67118 10.6662 3.67359 10.626C3.64596 10.5802 3.65217 10.5252 3.62847 10.478C3.58741 10.3432 3.55091 10.207 3.51403 10.0712C3.51174 10.0214 3.48247 9.97802 3.48196 9.92796C3.4703 9.8765 3.4518 9.82695 3.44521 9.77448C3.4177 9.72961 3.42772 9.67448 3.39869 9.6305C3.39806 9.56586 3.35408 9.51225 3.35497 9.44748C3.32658 9.38652 3.32974 9.31694 3.29971 9.25674C3.29514 9.22797 3.30174 9.19654 3.28336 9.17182C3.26637 9.14939 3.27296 9.12049 3.26485 9.0954C3.23862 9.04001 3.22911 8.97892 3.20757 8.92164C3.19895 8.85903 3.16308 8.80364 3.16549 8.73951C3.1442 8.70846 3.13887 8.67323 3.14065 8.63647C3.11327 8.58666 3.11758 8.52824 3.09375 8.47729C3.0641 8.38641 3.04306 8.29351 3.01543 8.20277C3.01201 8.15321 2.98007 8.11126 2.97855 8.0617C2.97563 8.02279 2.95345 7.98845 2.95092 7.94954C2.9461 7.89745 2.91391 7.85207 2.91556 7.79922C2.91328 7.76767 2.8859 7.7427 2.89008 7.70949C2.89262 7.67286 2.8622 7.64473 2.86347 7.60823C2.8603 7.56311 2.83001 7.52546 2.82684 7.4806C2.82266 7.42407 2.78121 7.37718 2.7878 7.31862C2.75105 7.27211 2.77437 7.21001 2.7418 7.16147C2.73647 7.10076 2.70897 7.04588 2.69591 6.98682C2.67247 6.92776 2.66474 6.86362 2.63761 6.80596C2.63622 6.77693 2.63292 6.74829 2.61886 6.72244C2.60415 6.69595 2.61379 6.66426 2.60238 6.63676C2.57982 6.57935 2.57691 6.51674 2.5546 6.4592C2.53103 6.37694 2.50694 6.29494 2.48388 6.21281C2.47894 6.15629 2.4456 6.10698 2.44395 6.05008C2.41937 5.98607 2.41328 5.91687 2.3873 5.85325C2.38325 5.81878 2.38109 5.78405 2.36449 5.75262C2.34003 5.64362 2.31037 5.53526 2.27843 5.42791C2.2522 5.38241 2.2617 5.32778 2.2342 5.28292C2.22913 5.2487 2.22786 5.21384 2.21278 5.1819C2.16905 4.99268 2.10188 4.80967 2.05993 4.62006C2.01823 4.45099 1.97197 4.28268 1.92102 4.11589C1.9029 4.00816 1.86057 3.9055 1.84333 3.79777C1.79517 3.6268 1.75335 3.45367 1.70049 3.28396C1.64954 3.05799 1.5792 2.83708 1.52027 2.61313C1.45804 2.34697 1.37338 2.08601 1.31127 1.82011C1.2716 1.67981 1.24119 1.53684 1.19505 1.39832C1.191 1.35903 1.17908 1.32113 1.15868 1.28717C1.14347 1.28818 1.12813 1.28881 1.1128 1.28894C1.11546 1.3404 1.14676 1.38412 1.15069 1.4352C1.18986 1.55864 1.22648 1.68399 1.25564 1.81073C1.2692 1.84381 1.27617 1.87892 1.27997 1.91453C1.29049 1.94355 1.30202 1.97258 1.30418 2.00376C1.36717 2.2035 1.42217 2.40628 1.46945 2.61059C1.52496 2.81756 1.58846 3.02224 1.63484 3.23137C1.64891 3.26749 1.65614 3.30564 1.6607 3.34404C1.67832 3.37522 1.68275 3.40994 1.68693 3.4448C1.71735 3.49068 1.71634 3.54771 1.73788 3.59727C1.7612 3.69232 1.79187 3.78548 1.81076 3.88104C1.85955 4.06937 1.91697 4.25556 1.96792 4.44364C2.02609 4.71144 2.1138 4.97177 2.17514 5.23805C2.18946 5.26454 2.18959 5.2947 2.19149 5.32398C2.20264 5.35338 2.21569 5.38253 2.21747 5.4146C2.29618 5.63994 2.34421 5.87568 2.40961 6.10584C2.46081 6.28531 2.51303 6.46452 2.55574 6.64626C2.58844 6.80089 2.64205 6.95057 2.67919 7.10443C2.69908 7.14613 2.69338 7.19416 2.71353 7.23573C2.72735 7.2659 2.71835 7.30088 2.73242 7.33117C2.7532 7.37452 2.75105 7.42509 2.77437 7.46742C2.78894 7.49213 2.78121 7.5228 2.79465 7.5479C2.81911 7.59276 2.82063 7.64523 2.83926 7.69238C2.88603 7.8664 2.92595 8.0413 2.97779 8.21405C3.02836 8.39059 3.07588 8.56816 3.11771 8.74699C3.15725 8.90326 3.20782 9.05636 3.24419 9.21378C3.26422 9.25839 3.26207 9.30896 3.2812 9.35382C3.2935 9.38057 3.2883 9.41149 3.29857 9.43849C3.32366 9.47676 3.31479 9.52568 3.3395 9.56459C3.37905 9.70059 3.41694 9.83721 3.44939 9.97498C3.51504 10.2316 3.59742 10.484 3.65433 10.7424C3.67765 10.7856 3.67296 10.835 3.67638 10.8824C3.65559 10.8821 3.63494 10.8823 3.6144 10.8828C3.54026 10.6348 3.47816 10.3835 3.41213 10.1334C3.32607 9.85052 3.27081 9.55914 3.16929 9.28107C3.17385 9.22379 3.1442 9.17284 3.13532 9.11758C3.06207 8.83343 2.97715 8.55232 2.90821 8.26715C2.84268 8.03496 2.77931 7.80227 2.72038 7.5683C2.64116 7.31153 2.58083 7.04981 2.50682 6.79138C2.45346 6.60989 2.41012 6.4251 2.35929 6.24272C2.32089 6.07112 2.26259 5.9042 2.22229 5.73297C2.18553 5.58304 2.14142 5.43475 2.09884 5.28621C2.09301 5.25364 2.08186 5.22271 2.06931 5.1923C2.00302 4.88723 1.90442 4.5899 1.83256 4.28623C1.79111 4.12641 1.74561 3.96735 1.70113 3.80829C1.62876 3.51336 1.53662 3.22338 1.46514 2.92795C1.38592 2.65292 1.3147 2.37599 1.24334 2.09907C1.17706 1.87816 1.12205 1.65433 1.06096 1.43228C1.0545 1.40034 1.04309 1.36993 1.03004 1.34014C1.02066 1.33989 1.00177 1.33926 0.992395 1.339C0.985931 1.36917 0.988719 1.40009 1.00152 1.42835C1.07845 1.70199 1.14258 1.97866 1.2261 2.25052C1.23624 2.30198 1.25842 2.35115 1.2583 2.40426C1.14068 2.41541 1.02535 2.44329 0.906845 2.44494C0.843855 2.45521 0.781625 2.47396 0.716988 2.47016C0.642591 2.46611 0.572503 2.49995 0.49836 2.49614C0.461986 2.40882 0.447157 2.31478 0.420541 2.22441C0.355143 1.96979 0.283028 1.71644 0.216489 1.46232C0.215855 1.43203 0.20673 1.40225 0.183283 1.38197C0.14881 1.37538 0.113956 1.39021 0.0823975 1.40275C0.111675 1.34433 0.16085 1.29984 0.222066 1.27715C0.239429 1.28425 0.256539 1.29363 0.27593 1.29312C0.37859 1.2935 0.481757 1.29173 0.582516 1.26955C0.649815 1.26118 0.718635 1.27031 0.785427 1.25611C0.848418 1.25802 0.909 1.22988 0.97199 1.2423C0.98365 1.26511 0.991381 1.28957 1.00139 1.31302C1.00139 1.28539 1.00152 1.25776 1.00051 1.23013C1.0744 1.19946 1.15627 1.2262 1.23333 1.21226C1.29898 1.19566 1.3678 1.20821 1.43383 1.19249C1.54169 1.18932 1.64739 1.16359 1.75563 1.1641C1.80214 1.16499 1.84713 1.15117 1.89352 1.14902C1.95816 1.13153 2.02596 1.14496 2.09086 1.12912C2.20365 1.12582 2.31417 1.09934 2.42735 1.1006C2.49985 1.09959 2.57082 1.08083 2.64306 1.07589C2.81721 1.07424 2.98805 1.03761 3.16207 1.03533C3.30123 1.00555 3.44483 1.01797 3.58386 0.988185C3.65509 0.988185 3.7248 0.971328 3.79628 0.97399C3.88069 0.965751 3.96408 0.944839 4.04963 0.947628C4.19348 0.935714 4.33581 0.910619 4.48055 0.909732C4.56445 0.897058 4.64848 0.88299 4.73378 0.884764C4.81945 0.886158 4.90145 0.85536 4.98713 0.858275C5.06368 0.846235 5.14213 0.853713 5.21767 0.834828C5.2799 0.822028 5.34327 0.822281 5.40652 0.820887C5.4908 0.811888 5.57394 0.794145 5.65898 0.793638C5.71868 0.777922 5.78129 0.79123 5.84086 0.775134C5.89447 0.772219 5.94668 0.757136 6.00068 0.758784C6.11208 0.761699 6.22019 0.729127 6.33147 0.731028C6.39826 0.716453 6.46759 0.727986 6.53387 0.710496C6.61004 0.704539 6.68533 0.691992 6.76213 0.693639ZM6.36543 1.24838C6.25251 1.26511 6.13249 1.23026 6.02387 1.2769C5.9439 1.27728 5.86405 1.2807 5.7856 1.29756C5.68142 1.3191 5.57495 1.31251 5.46951 1.3167C5.34429 1.35307 5.20905 1.30339 5.08485 1.34914C4.99055 1.35953 4.8941 1.34547 4.79968 1.35827C4.7576 1.37005 4.71337 1.36536 4.67079 1.37411C4.62579 1.38298 4.57636 1.36866 4.53581 1.39528C4.52871 1.46663 4.57383 1.52607 4.59132 1.59236C4.60552 1.65345 4.63238 1.71061 4.64303 1.77258C4.67281 1.83101 4.66736 1.89958 4.69892 1.95724C4.6988 2.00274 4.70412 2.04672 4.72554 2.08741C4.72845 2.15242 4.768 2.2073 4.76838 2.27194C4.7794 2.29856 4.80209 2.32099 4.8031 2.35115C4.80336 2.38943 4.82719 2.42048 4.84214 2.45419C4.8448 2.48195 4.84113 2.50983 4.8443 2.53759C4.85431 2.55406 4.86635 2.56915 4.87699 2.58537C4.88346 2.61439 4.87421 2.6462 4.88865 2.67358C4.9069 2.71249 4.91413 2.75495 4.92097 2.79703C4.93529 2.82744 4.94493 2.85926 4.94873 2.89272C5.00082 2.97915 5.02705 3.07776 5.05392 3.17421C5.0775 3.22313 5.07623 3.27915 5.09778 3.3287C5.11159 3.3595 5.10449 3.39372 5.10791 3.42617C5.13453 3.54822 5.17483 3.66647 5.20893 3.78662C5.26533 3.96114 5.31311 4.13845 5.35658 4.31601C5.38079 4.36988 5.39638 4.42767 5.43364 4.47469C5.43858 4.54022 5.47774 4.59624 5.48117 4.66189C5.4965 4.70764 5.51463 4.75263 5.51526 4.80181C5.53592 4.84211 5.54365 4.88634 5.55062 4.9307C5.58104 4.98533 5.58814 5.04845 5.61513 5.10459C5.62844 5.17417 5.65962 5.23856 5.67052 5.30877C5.68649 5.34717 5.69701 5.38684 5.6932 5.42892C5.7079 5.46631 5.73414 5.50154 5.72806 5.544C5.71817 5.58608 5.75962 5.61536 5.75429 5.65693C5.74846 5.708 5.79003 5.74742 5.79219 5.7971C5.79536 5.84235 5.83756 5.8753 5.83059 5.92321C5.89105 6.1118 5.93464 6.30647 5.99751 6.49494C6.0534 6.67808 6.10346 6.86274 6.15783 7.04626C6.22703 7.29556 6.30409 7.5427 6.37317 7.79187C6.3771 7.85372 6.41867 7.90607 6.41613 7.96893C6.46341 7.97273 6.51119 7.97336 6.55846 7.96754C6.64503 7.94269 6.73552 7.93838 6.82246 7.91443C6.85478 7.90404 6.88989 7.91 6.92246 7.89986C6.94958 7.89339 6.97582 7.88148 7.00433 7.88148C7.08152 7.87882 7.15427 7.84599 7.23145 7.84358C7.27898 7.84118 7.32271 7.81595 7.37087 7.81836C7.41903 7.82178 7.46136 7.79187 7.50927 7.79238C7.58367 7.79035 7.65287 7.75588 7.72726 7.75423C7.77061 7.7522 7.8099 7.72863 7.85362 7.72888C7.92384 7.72445 7.98962 7.69187 8.06046 7.69175C8.11103 7.69099 8.15742 7.66285 8.20875 7.66602C8.25311 7.66906 8.2924 7.64283 8.33625 7.6413C8.41774 7.64181 8.49366 7.60455 8.57503 7.60202C8.61445 7.59619 8.66134 7.58262 8.68137 7.54473C8.68834 7.49302 8.65006 7.45259 8.63435 7.40671C8.63713 7.34765 8.59784 7.29873 8.59404 7.24004C8.59506 7.21267 8.57718 7.19214 8.55539 7.17832C8.55716 7.15424 8.55412 7.13016 8.55805 7.10633C8.55019 7.10291 8.5346 7.09619 8.52687 7.09277C8.53054 7.06083 8.53295 7.02737 8.51229 7.0005C8.48226 6.95817 8.49379 6.90139 8.46451 6.85881C8.44335 6.83207 8.46071 6.7948 8.4417 6.76743C8.41356 6.71534 8.4071 6.65476 8.37833 6.60292C8.35032 6.49646 8.30495 6.39418 8.28746 6.2848C8.26857 6.25273 8.26211 6.21737 8.26173 6.18062C8.23258 6.1194 8.22447 6.05084 8.19164 5.99114C8.19012 5.94247 8.15235 5.90572 8.14779 5.85794C8.14437 5.80902 8.10584 5.77011 8.10964 5.72017C8.10926 5.67987 8.07732 5.64768 8.07643 5.60724C8.08024 5.56137 8.04475 5.52499 8.04627 5.47936C8.04906 5.44413 8.00888 5.4255 8.00977 5.3909C8.00546 5.3492 7.97225 5.31777 7.96452 5.27696C7.95235 5.21828 7.91953 5.16593 7.9175 5.10523C7.88898 5.04769 7.88974 4.98216 7.86313 4.92411C7.85844 4.88913 7.85806 4.85314 7.83537 4.82399C7.80065 4.71905 7.7554 4.61702 7.73056 4.50853C7.7047 4.44516 7.69723 4.37647 7.67074 4.31348C7.67074 4.25277 7.63487 4.20118 7.6298 4.14098C7.60673 4.10714 7.59989 4.06722 7.59076 4.02818C7.56035 3.98002 7.55743 3.9216 7.53284 3.87103C7.51738 3.83567 7.51839 3.79574 7.50166 3.76089C7.48151 3.72071 7.48874 3.67217 7.46377 3.63415C7.44666 3.60715 7.45629 3.57268 7.44083 3.5448C7.41624 3.50031 7.41472 3.44797 7.39153 3.40297C7.34375 3.27243 7.31295 3.13682 7.26631 3.00615C7.26428 2.94012 7.20953 2.8865 7.22651 2.81819C7.24223 2.84367 7.25186 2.87244 7.26795 2.89778C7.23006 2.77485 7.19913 2.64937 7.15376 2.52884C7.15161 2.54342 7.14755 2.5727 7.1454 2.58727C7.12981 2.55673 7.11954 2.52415 7.11257 2.49069C7.08494 2.40375 7.05224 2.3182 7.03399 2.22859C7.01016 2.19019 7.0094 2.14469 6.9947 2.10312C6.97125 2.05445 6.97138 1.99856 6.94489 1.95091C6.93691 1.8902 6.89977 1.8395 6.88925 1.77981C6.88292 1.74369 6.85516 1.71377 6.85833 1.67601C6.85934 1.65053 6.85453 1.62569 6.84325 1.60288C6.82424 1.57018 6.8397 1.52949 6.81853 1.49768C6.79914 1.46701 6.78951 1.43241 6.79585 1.39616C6.75098 1.35941 6.73539 1.29794 6.75732 1.24433C6.72665 1.21682 6.68824 1.20605 6.64794 1.21657C6.5558 1.2442 6.45491 1.20745 6.36543 1.24838ZM7.27062 2.92377C7.24831 2.95824 7.31498 2.92732 7.27062 2.92377V2.92377Z" fill="#DEDDD3"/>
<path d="M4.56372 0.822281C4.62177 0.817591 4.68032 0.818478 4.7385 0.819619C4.68121 0.829632 4.62139 0.828744 4.56372 0.822281Z" fill="#DEDDD3"/>
<path d="M7.36182 0.954102C7.42088 1.03369 7.43482 1.13382 7.47221 1.2233C7.50186 1.29275 7.51669 1.36702 7.53875 1.43888C7.57943 1.59528 7.62607 1.75003 7.66853 1.90592C7.67816 1.95497 7.703 2.00199 7.69261 2.0532C7.67056 1.95016 7.63317 1.85054 7.603 1.74927C7.51986 1.50504 7.45332 1.25562 7.36625 1.01266C7.3622 0.993391 7.36296 0.97362 7.36182 0.954102Z" fill="#DEDDD3"/>
<path d="M6.30616 1.29084C6.42111 1.29299 6.5334 1.2575 6.64848 1.26511C6.6699 1.26498 6.69005 1.27601 6.70336 1.29261C6.7187 1.3646 6.74582 1.43304 6.75824 1.50566C6.78042 1.54888 6.77408 1.60008 6.79829 1.64229C6.81908 1.68094 6.81616 1.72771 6.84303 1.76396C6.89613 1.91503 6.93416 2.07143 6.97585 2.2253C7.00285 2.26458 6.99347 2.31667 7.02376 2.35495C7.09892 2.56876 7.15469 2.78891 7.22351 3.00462C7.28079 3.18143 7.33618 3.35962 7.387 3.53845C7.41133 3.587 7.40766 3.64403 7.43542 3.69143C7.45734 3.79827 7.50284 3.89776 7.53161 4.00258C7.55987 4.05492 7.5633 4.11563 7.58903 4.16924C7.59498 4.22691 7.62667 4.27735 7.63174 4.33502C7.6785 4.48064 7.72489 4.6269 7.77698 4.77113C7.78509 4.83057 7.81652 4.88343 7.82235 4.94337C7.84935 5.02449 7.86912 5.10776 7.89016 5.19039C7.92831 5.27113 7.95708 5.35642 7.97837 5.44299C8.00119 5.48925 8.0022 5.54235 8.02349 5.58924C8.03743 5.62207 8.03173 5.65958 8.04707 5.69228C8.06075 5.72384 8.06595 5.75781 8.07381 5.79114C8.0918 5.81801 8.10334 5.84805 8.11145 5.87948C8.15568 5.98924 8.18686 6.10343 8.22045 6.21674C8.22311 6.24766 8.23021 6.2777 8.24351 6.30596C8.27203 6.44145 8.33147 6.5673 8.37089 6.69975C8.37951 6.74727 8.40118 6.791 8.40942 6.83853C8.41474 6.88035 8.43869 6.91685 8.44262 6.95893C8.44858 7.00329 8.4771 7.04169 8.47659 7.08744C8.47456 7.11837 8.50498 7.13801 8.50726 7.1683C8.51182 7.20658 8.53147 7.23966 8.54465 7.27527C8.56683 7.35854 8.60612 7.43864 8.60916 7.52597C8.56036 7.55233 8.50511 7.55829 8.45111 7.56538C8.35581 7.58832 8.25822 7.59897 8.1624 7.61912C8.0918 7.62343 8.0259 7.65283 7.9548 7.65309C7.90638 7.66754 7.85734 7.67844 7.80689 7.68262C7.71057 7.70695 7.6112 7.7157 7.51526 7.74105C7.42781 7.74206 7.34644 7.78173 7.25874 7.77831C7.2121 7.79098 7.16533 7.80695 7.11616 7.80239C7.08016 7.79897 7.05164 7.82862 7.0159 7.82774C6.98232 7.82913 6.94848 7.83103 6.91679 7.84282C6.85266 7.865 6.78372 7.86386 6.7192 7.8835C6.66762 7.9001 6.61198 7.8996 6.55862 7.89465C6.4841 7.85397 6.43594 7.76677 6.45444 7.6816C6.41756 7.65182 6.39095 7.61202 6.36991 7.5702C6.31047 7.38313 6.26116 7.19327 6.20996 7.00418C6.16839 6.86755 6.12466 6.73156 6.08943 6.5929C6.06446 6.53447 6.0599 6.46996 6.03354 6.41204C6.02657 6.36971 6.01681 6.32852 5.99754 6.28999C5.99995 6.22472 5.95838 6.17124 5.95242 6.10761C5.92163 6.04437 5.91326 5.97428 5.88703 5.90926C5.87803 5.85058 5.8466 5.79875 5.83836 5.74019C5.83012 5.70293 5.80579 5.67036 5.80579 5.63132C5.80566 5.5862 5.77296 5.5497 5.77017 5.50483C5.7689 5.45971 5.73937 5.42245 5.7343 5.37809C5.72721 5.32727 5.70122 5.28177 5.69248 5.2312C5.65142 5.12056 5.62569 5.00522 5.58817 4.89356C5.58386 4.83095 5.5504 4.77595 5.54723 4.71334C5.5305 4.67164 5.51593 4.62931 5.51276 4.58419C5.48386 4.52374 5.47499 4.45669 5.44572 4.39623C5.43418 4.33122 5.39882 4.27317 5.39489 4.20663C5.36485 4.14757 5.36752 4.08002 5.34141 4.01981C5.34103 3.9624 5.30643 3.91487 5.29819 3.85949C5.24534 3.71703 5.20149 3.57077 5.16524 3.42325C5.14407 3.37914 5.1513 3.32806 5.12899 3.28434C5.11137 3.24682 5.11632 3.20259 5.09439 3.16698C5.07297 3.13504 5.07842 3.09397 5.06042 3.06102C5.03127 3.0069 5.02975 2.94379 5.00478 2.88789C4.99452 2.81781 4.9622 2.75342 4.95561 2.6827C4.94661 2.65216 4.92912 2.62351 4.9309 2.59056C4.93495 2.5443 4.89313 2.51059 4.89579 2.46433C4.89807 2.42985 4.86233 2.40983 4.85802 2.3765C4.84965 2.3225 4.81911 2.27536 4.81138 2.22137C4.80428 2.17523 4.78007 2.13379 4.77564 2.08715C4.77019 2.04228 4.74294 2.00261 4.74357 1.95673C4.74712 1.91808 4.71328 1.89007 4.71315 1.85179C4.7091 1.803 4.67703 1.76345 4.66867 1.71592C4.66068 1.67549 4.63812 1.63975 4.63052 1.5992C4.62165 1.54444 4.58515 1.49375 4.60276 1.43646C4.64028 1.42075 4.68109 1.41897 4.72139 1.42087C4.80251 1.42518 4.88121 1.40123 4.96169 1.39565C5.02329 1.39388 5.08552 1.3992 5.14673 1.38906C5.24103 1.37309 5.33646 1.36878 5.43203 1.36891C5.50718 1.35738 5.58297 1.34964 5.65889 1.3447C5.76979 1.34863 5.8779 1.31441 5.9888 1.31923C6.09577 1.32341 6.19931 1.28894 6.30616 1.29084ZM4.91264 1.54482C4.884 1.54989 4.84446 1.54647 4.83254 1.57968C4.9077 1.55902 4.98615 1.55788 5.06296 1.54685C5.17829 1.54964 5.29173 1.52797 5.40617 1.51758C5.2409 1.51289 5.07753 1.53976 4.91264 1.54482ZM6.93213 2.50172C6.97357 2.63631 6.99157 2.77852 7.04886 2.90855C7.03492 2.82098 7.0102 2.73581 6.99322 2.64899C6.96901 2.60146 6.9552 2.54975 6.93213 2.50172ZM5.75002 4.88672C5.77828 5.00903 5.79552 5.13589 5.84571 5.25148C5.82467 5.12753 5.80338 5.00129 5.75002 4.88672ZM5.9433 5.54412C5.95661 5.63893 5.98094 5.73157 6.00059 5.82498C6.02568 5.88011 6.03962 5.9393 6.06041 5.99595C6.03658 5.91953 6.02124 5.83981 6.00806 5.76034C6.0016 5.71193 5.97714 5.66795 5.97321 5.61903C5.97359 5.59076 5.95559 5.56808 5.9433 5.54412ZM6.34773 6.96108C6.3675 7.02243 6.36687 7.08808 6.38752 7.14904C6.40033 7.1863 6.3964 7.22737 6.413 7.26361C6.4367 7.30899 6.43607 7.36272 6.46484 7.40594C6.42314 7.25854 6.41173 7.10177 6.34773 6.96108ZM8.44009 7.33142C8.44351 7.36108 8.44313 7.39099 8.44161 7.4209C8.37038 7.4517 8.29307 7.45791 8.2188 7.47705C8.28369 7.48313 8.34338 7.4503 8.4079 7.45309C8.43299 7.45525 8.45187 7.43623 8.47291 7.42571C8.47013 7.39175 8.45111 7.36285 8.44009 7.33142Z" fill="#DEDDD3"/>
<path d="M0.0864782 1.55485C0.106376 1.5224 0.115755 1.4802 0.151116 1.46017C0.163283 1.52811 0.182801 1.59414 0.197249 1.66157C0.256057 1.85599 0.306626 2.05294 0.357449 2.24951C0.396105 2.376 0.422214 2.50629 0.466954 2.63088C0.469615 2.67067 0.479247 2.70958 0.493189 2.74697C0.548574 2.94583 0.590399 3.14861 0.654656 3.34506C0.708648 3.54493 0.755542 3.74632 0.815997 3.94416C0.88938 4.23199 0.968339 4.51817 1.04502 4.80537C1.08912 4.96138 1.12334 5.12006 1.1691 5.2757C1.20446 5.39927 1.24185 5.52221 1.26884 5.64794C1.31561 5.81954 1.36339 5.9914 1.4113 6.16314C1.43703 6.29191 1.4791 6.41725 1.51079 6.54488C1.5696 6.76566 1.62891 6.98657 1.68531 7.20773C1.72283 7.34677 1.76693 7.48466 1.80026 7.62509C1.86009 7.86704 1.93423 8.10582 1.99164 8.34853C2.10698 8.75955 2.20799 9.1731 2.32573 9.58323C2.39734 9.87905 2.48606 10.1705 2.55855 10.4665C2.60646 10.6354 2.64727 10.8067 2.69657 10.9752C2.7057 10.9987 2.71812 11.0207 2.72712 11.0443C2.71888 11.0871 2.67287 11.1065 2.65374 11.1438C2.62674 11.195 2.5768 11.2268 2.54157 11.2718C2.5166 11.232 2.48504 11.1921 2.48289 11.1432C2.47047 11.0574 2.43435 10.9773 2.41825 10.8923C2.31534 10.4986 2.21154 10.1054 2.10419 9.71302C2.03372 9.44141 1.96389 9.16993 1.88848 8.89972C1.83018 8.65765 1.7644 8.41671 1.69862 8.1773C1.65172 7.98554 1.59748 7.79594 1.54577 7.60557C1.45008 7.22205 1.33906 6.84234 1.24831 6.45794C1.21384 6.35185 1.20294 6.23956 1.16593 6.13424C1.11282 5.9421 1.0511 5.75224 1.00839 5.55744C0.923726 5.24579 0.839571 4.93388 0.758457 4.62146C0.718153 4.43402 0.657064 4.25164 0.611184 4.06545C0.510932 3.67053 0.402949 3.27763 0.300163 2.88322C0.237426 2.67118 0.194841 2.45445 0.135527 2.2414C0.0852107 2.09768 0.06113 1.94724 0.0222206 1.80047C0.0133488 1.77424 -0.00553543 1.74927 0.00156204 1.72025C0.0228545 1.66169 0.0545396 1.60795 0.0864782 1.55485Z" fill="#DEDDD3"/>
<path d="M1.0719 2.48549C1.1359 2.48866 1.19699 2.46623 1.25998 2.45926C1.28939 2.4694 1.30637 2.49703 1.30612 2.52745C1.26138 2.5514 1.21055 2.53733 1.16303 2.54696C1.0444 2.58169 0.918543 2.56965 0.798266 2.59563C0.731601 2.60945 0.663414 2.60881 0.595735 2.6116C0.572414 2.61236 0.561641 2.64202 0.572034 2.66128C0.629194 2.66445 0.6842 2.64557 0.741233 2.64709C0.784198 2.64798 0.826783 2.64265 0.867973 2.63023C0.914994 2.61426 0.966197 2.6277 1.01347 2.61173C1.06797 2.60957 1.12247 2.61059 1.17393 2.58955C1.21917 2.58359 1.27633 2.56826 1.31423 2.60083C1.35605 2.71553 1.38077 2.83581 1.41562 2.95291C1.44921 3.09778 1.49217 3.24023 1.53007 3.38409C1.55922 3.47901 1.57823 3.57686 1.60979 3.6709C1.61245 3.69181 1.61156 3.71285 1.6108 3.73376C1.55288 3.76329 1.48926 3.76811 1.42538 3.76405C1.36226 3.77761 1.29876 3.79143 1.23451 3.79903C1.1918 3.79967 1.14832 3.79777 1.10802 3.81424C1.06404 3.83161 1.01613 3.82121 0.970633 3.82894C0.93147 3.83769 0.893448 3.85353 0.852638 3.85112C0.83274 3.73896 0.792056 3.63148 0.769242 3.5197C0.698521 3.22997 0.60486 2.94607 0.54187 2.65444C0.524506 2.6239 0.504862 2.59474 0.492188 2.56179C0.521084 2.54265 0.554544 2.53188 0.589398 2.53619C0.641868 2.54164 0.691424 2.522 0.743007 2.51642C0.805617 2.5021 0.871395 2.52136 0.933245 2.50222C0.978364 2.4898 1.02488 2.48245 1.0719 2.48549Z" fill="#DEDDD3"/>
<path d="M7.1991 2.73365C7.2209 2.72769 7.2351 2.8012 7.2024 2.78663C7.19365 2.77104 7.19238 2.75013 7.1991 2.73365Z" fill="#DEDDD3"/>
<path d="M1.47733 3.80207C1.5293 3.80004 1.57987 3.78711 1.63183 3.78496C1.65528 3.81639 1.66161 3.85162 1.64501 3.88787C1.46884 3.88115 1.29749 3.93122 1.1222 3.93793C1.04046 3.94871 0.954527 3.98065 0.873413 3.95073C0.8743 3.93096 0.875187 3.91132 0.875821 3.89155C0.910675 3.89193 0.944895 3.88546 0.978354 3.87596C1.02512 3.86227 1.07417 3.86328 1.12195 3.85568C1.18165 3.84934 1.23919 3.8283 1.29977 3.82818C1.3601 3.82754 1.41713 3.80334 1.47733 3.80207Z" fill="#DEDDD3"/>
<path d="M1.21353 3.97938C1.3229 3.9738 1.43241 3.96823 1.54039 3.95023C1.58336 3.94199 1.62696 3.93971 1.67055 3.93768C1.70072 3.9975 1.70934 4.06442 1.73139 4.12716C1.81656 4.44845 1.90376 4.76885 1.99298 5.08912C1.86143 5.11903 1.73088 5.14894 1.59945 5.17873C1.54483 5.18266 1.49438 5.20762 1.43951 5.2094C1.37081 5.22271 1.30389 5.24869 1.23279 5.24641C1.13558 4.89115 1.03939 4.53552 0.94471 4.17938C0.936599 4.12361 0.907702 4.07292 0.908589 4.01576C0.952061 3.99294 1.00339 4.00701 1.05054 4.00067C1.10478 3.99244 1.15992 3.9918 1.21353 3.97938Z" fill="#DEDDD3"/>
<path d="M1.82633 5.18228C1.8845 5.15313 1.95092 5.1544 2.01315 5.13969C2.02024 5.16111 2.02633 5.18291 2.0319 5.20484C1.99261 5.22398 1.94749 5.21206 1.90757 5.22803C1.84344 5.25325 1.77158 5.23944 1.7077 5.26618C1.64902 5.2914 1.58197 5.26884 1.52481 5.29875C1.47209 5.32309 1.40923 5.2909 1.35916 5.3222C1.33103 5.34032 1.29681 5.33297 1.2655 5.33551C1.26715 5.32233 1.26804 5.30915 1.26816 5.29597C1.30834 5.29381 1.35055 5.2966 1.38641 5.27467C1.43888 5.24311 1.50454 5.25984 1.55777 5.23095C1.5963 5.21244 1.6423 5.23336 1.68045 5.21358C1.72506 5.1876 1.77842 5.19723 1.82633 5.18228Z" fill="#DEDDD3"/>
<path d="M1.70049 5.31384C1.78959 5.28824 1.88414 5.29293 1.97248 5.26505C1.99453 5.26036 2.0233 5.24895 2.03927 5.27189C2.10074 5.49217 2.15879 5.71384 2.21595 5.93513C2.2508 6.05743 2.28768 6.17923 2.31873 6.30267C2.34598 6.39152 2.35929 6.48455 2.39364 6.57124C2.39997 6.59063 2.38983 6.60964 2.38362 6.62764C2.3494 6.62536 2.31506 6.62776 2.28287 6.64044C2.23762 6.65704 2.1887 6.65818 2.14206 6.66921C2.08591 6.68923 2.02508 6.68822 1.96982 6.71116C1.90011 6.71876 1.83534 6.74715 1.76614 6.75666C1.72457 6.77047 1.6825 6.78467 1.63788 6.77935C1.63649 6.73968 1.62356 6.70203 1.61139 6.66464C1.51292 6.30774 1.4209 5.94919 1.32243 5.59229C1.31267 5.51929 1.27198 5.45161 1.28162 5.3762C1.33662 5.37468 1.3863 5.34477 1.44169 5.34578C1.4754 5.34528 1.50924 5.34122 1.54093 5.32893C1.59188 5.30776 1.64866 5.33007 1.70049 5.31384Z" fill="#DEDDD3"/>
<path d="M2.28657 6.69315C2.32713 6.67477 2.37098 6.66501 2.41572 6.66641C2.42624 6.67655 2.43727 6.68643 2.44867 6.69581C2.44335 6.70329 2.43258 6.71812 2.42725 6.72547C2.35577 6.71698 2.2962 6.76983 2.22434 6.76324C2.18252 6.75791 2.14893 6.79011 2.10812 6.79074C2.07352 6.79365 2.03639 6.78466 2.00533 6.80443C1.95489 6.83573 1.89152 6.79999 1.8412 6.82952C1.80255 6.85208 1.75667 6.84169 1.71459 6.83915C1.70268 6.8536 1.69064 6.86792 1.67834 6.88212C1.71269 6.88339 1.74716 6.88364 1.78164 6.88364C1.83373 6.8863 1.87986 6.85195 1.93258 6.85778C1.99038 6.86412 2.04082 6.82597 2.09823 6.83079C2.12586 6.83016 2.15527 6.8337 2.18024 6.81938C2.22852 6.79353 2.28556 6.81406 2.33587 6.79568C2.37111 6.78326 2.40761 6.77477 2.44538 6.77692C2.52725 7.05499 2.59202 7.33775 2.67364 7.61607C2.70545 7.73889 2.73688 7.86144 2.76882 7.98438C2.74803 7.98362 2.72725 7.9821 2.70659 7.98311C2.4782 8.04661 2.24931 8.11163 2.01839 8.16486C1.89887 7.78578 1.81776 7.39593 1.70382 7.0152C1.68975 6.95753 1.66922 6.90126 1.66846 6.84131C1.72029 6.83548 1.76529 6.80113 1.81839 6.80557C1.86237 6.81292 1.88937 6.7645 1.93296 6.76793C1.96452 6.76881 1.9957 6.76438 2.02244 6.74651C2.06338 6.71964 2.11585 6.74321 2.15679 6.7171C2.19646 6.6929 2.24563 6.71343 2.28657 6.69315Z" fill="#DEDDD3"/>
<path d="M1.34426 7.08061C1.42309 7.37807 1.49951 7.67617 1.5786 7.97375C1.58608 8.0228 1.61193 8.06754 1.61219 8.11786C1.58557 8.03028 1.54894 7.94638 1.52093 7.85931C1.45997 7.6588 1.40218 7.45703 1.3601 7.25159C1.35135 7.19481 1.33298 7.13866 1.34426 7.08061Z" fill="#DEDDD3"/>
<path d="M2.65736 8.05042C2.70679 8.04637 2.75533 7.99795 2.80248 8.03636C2.80311 8.05575 2.80311 8.07501 2.80248 8.09453C2.74595 8.10378 2.69208 8.12609 2.63378 8.12355C2.58651 8.1451 2.53607 8.15004 2.48486 8.15182C2.44367 8.17425 2.39767 8.17615 2.35179 8.17501C2.30933 8.18958 2.25939 8.21785 2.21985 8.17932C2.23671 8.16677 2.25635 8.15955 2.27701 8.15587C2.31643 8.14839 2.34976 8.12152 2.39069 8.12038C2.43049 8.11709 2.46446 8.09301 2.50375 8.08781C2.55647 8.08211 2.60451 8.05701 2.65736 8.05042Z" fill="#DEDDD3"/>
<path d="M2.70631 8.15054C2.74091 8.15498 2.76943 8.13229 2.80276 8.129C2.81391 8.15295 2.82646 8.17665 2.8347 8.20213C2.91746 8.54826 3.0238 8.8883 3.10821 9.23418C3.09148 9.24178 3.07538 9.25052 3.05827 9.25712C2.82557 9.31668 2.59668 9.39121 2.36196 9.44228C2.32394 9.34267 2.30733 9.23671 2.27324 9.13582C2.2375 9.00845 2.20809 8.87943 2.17134 8.75243C2.1323 8.5973 2.07793 8.44534 2.05005 8.28793C2.1318 8.29123 2.20607 8.24978 2.28705 8.24649C2.32888 8.2314 2.36867 8.20606 2.41506 8.21113C2.45942 8.21239 2.49592 8.17779 2.5413 8.18223C2.59884 8.18362 2.64877 8.14674 2.70631 8.15054Z" fill="#DEDDD3"/>
<path d="M2.95444 9.33824C3.00754 9.31061 3.06876 9.31023 3.12351 9.28703C3.1339 9.30288 3.14493 9.31846 3.15621 9.33393C3.15076 9.3537 3.13872 9.37385 3.14404 9.39514C3.18941 9.49869 3.20703 9.61136 3.24125 9.71871C3.29816 9.96294 3.37813 10.2012 3.43669 10.4452C3.47027 10.5931 3.52274 10.7362 3.55379 10.8847C3.49524 10.9116 3.42718 10.9011 3.3704 10.9325C3.30209 10.9421 3.23162 10.9438 3.16774 10.9722C3.11819 10.9766 3.06952 10.9874 3.02148 10.9989C2.93378 10.9975 2.85216 11.0388 2.76458 11.0362C2.76559 10.993 2.76788 10.9485 2.75026 10.9082C2.7168 10.7791 2.67814 10.6515 2.64253 10.523C2.56484 10.2079 2.47409 9.89615 2.39209 9.58208C2.43315 9.56586 2.46763 9.5324 2.51427 9.53278C2.56446 9.53468 2.60527 9.49603 2.65634 9.50389C2.70159 9.50921 2.73822 9.47207 2.78372 9.4779C2.83644 9.48145 2.88435 9.45699 2.93416 9.44419C3.00526 9.44292 3.07548 9.42315 3.14113 9.3973C3.10691 9.3594 3.04518 9.37334 3.00197 9.38779C2.95925 9.41238 2.90716 9.39337 2.8642 9.41631C2.81553 9.43899 2.75875 9.42797 2.70983 9.44939C2.66788 9.46891 2.61642 9.43811 2.57916 9.4703C2.55444 9.4883 2.52225 9.47689 2.49399 9.47943C2.49526 9.47283 2.49779 9.45978 2.49893 9.45319C2.53493 9.44888 2.57612 9.46117 2.60539 9.43431C2.63315 9.40934 2.67092 9.41656 2.70489 9.41276C2.7424 9.38893 2.78435 9.37638 2.82896 9.37841C2.86749 9.35509 2.91211 9.35053 2.95444 9.33824Z" fill="#DEDDD3"/>
<path d="M9.74027 9.75939C9.82443 9.75445 9.90225 9.71123 9.98792 9.71998C9.99616 9.76053 9.97563 9.79741 9.966 9.83569C9.95459 9.86852 9.94255 9.90375 9.91644 9.92796C9.87474 9.95229 9.82443 9.93594 9.78197 9.95635C9.73698 9.97726 9.68565 9.96294 9.64027 9.98207C9.60618 9.99475 9.57006 9.99893 9.53457 10.0048C9.47893 10.0112 9.42697 10.0344 9.37108 10.0395C9.3162 10.0451 9.26499 10.0684 9.20999 10.0719C9.15676 10.075 9.10784 10.0997 9.05448 10.1018C8.99022 10.106 8.92989 10.1318 8.86563 10.1352C8.81811 10.1367 8.77426 10.1585 8.72711 10.1624C8.66234 10.1669 8.60189 10.195 8.53687 10.1979C8.49479 10.1993 8.45728 10.223 8.4152 10.225C8.34879 10.2285 8.28757 10.2591 8.22116 10.2619C8.16413 10.2646 8.11166 10.2922 8.05424 10.293C7.98973 10.2956 7.93016 10.3272 7.86514 10.3245C7.82852 10.3216 7.79671 10.3425 7.7616 10.3486C7.73245 10.3513 7.7019 10.3461 7.67453 10.3587C7.62066 10.3822 7.56046 10.3779 7.50457 10.3936C7.43866 10.4127 7.36921 10.4132 7.30432 10.4362C7.22422 10.4437 7.14817 10.4728 7.06795 10.4783C7.02486 10.4849 6.98404 10.503 6.94007 10.5036C6.87898 10.5058 6.82384 10.5377 6.76276 10.54C6.72283 10.5411 6.68671 10.5613 6.64717 10.5651C6.58253 10.5712 6.5203 10.5904 6.45655 10.6022C6.38051 10.611 6.30763 10.6373 6.23121 10.6439C6.14553 10.6682 6.05643 10.676 5.96796 10.6817C5.67963 10.7424 5.38965 10.795 5.10106 10.8544C5.04555 10.8567 4.99422 10.8822 4.93845 10.8827C4.75949 10.9172 4.58092 10.957 4.40183 10.9913C4.34683 11.0099 4.28777 11.0061 4.23289 11.0248C4.04417 11.0561 3.85735 11.0993 3.66952 11.1353C3.38018 11.1927 3.09032 11.2466 2.80148 11.304C2.74901 11.3287 2.69045 11.3269 2.63519 11.341C2.60947 11.3488 2.58298 11.3436 2.5575 11.3385C2.557 11.3044 2.58222 11.2805 2.60541 11.2595C2.66625 11.2061 2.71694 11.1402 2.78868 11.1003C2.8343 11.0719 2.89007 11.0765 2.93988 11.06C2.98208 11.0463 3.02632 11.0401 3.07055 11.0391C3.10958 11.031 3.1471 11.0131 3.18804 11.015C3.23607 11.0168 3.27802 10.986 3.32644 10.9873C3.39209 10.9848 3.45128 10.9475 3.51756 10.9509C3.57105 10.953 3.62187 10.9331 3.66965 10.9113C3.68689 10.9222 3.704 10.9334 3.72149 10.9444C3.74924 10.9111 3.78942 10.8856 3.83429 10.8885C3.88321 10.894 3.92605 10.865 3.97396 10.8625C4.05038 10.8608 4.11958 10.8217 4.19639 10.8208C4.27408 10.7931 4.3576 10.7925 4.43593 10.768C4.47788 10.7565 4.52262 10.7608 4.56406 10.7459C4.62895 10.7236 4.69942 10.7291 4.76431 10.7069C4.80499 10.6942 4.84847 10.7003 4.88928 10.6888C4.96773 10.6661 5.04998 10.6615 5.12844 10.6386C5.19168 10.6353 5.25023 10.6096 5.31284 10.6026C5.38394 10.595 5.4515 10.5685 5.52349 10.5655C5.60485 10.5405 5.69104 10.5425 5.77291 10.5197C5.82158 10.5078 5.87316 10.5121 5.92006 10.4926C5.96137 10.4762 6.00776 10.4885 6.04895 10.4705C6.10599 10.4466 6.17037 10.4544 6.22728 10.4304C6.26048 10.4174 6.29648 10.417 6.33133 10.4112C6.38253 10.404 6.43044 10.3793 6.48304 10.3813C6.53145 10.3827 6.57429 10.3533 6.62283 10.3542C6.65503 10.3534 6.68696 10.3478 6.71789 10.3382C6.77708 10.3188 6.84184 10.3266 6.90052 10.3044C6.94108 10.2894 6.98544 10.2945 7.02638 10.2805C7.08734 10.2618 7.1516 10.2576 7.21319 10.2408C7.27567 10.2225 7.34183 10.2215 7.40381 10.2007C7.44601 10.1861 7.49227 10.1966 7.53423 10.1803C7.58289 10.1624 7.63549 10.1664 7.6853 10.1539C7.72763 10.1442 7.76946 10.1312 7.81305 10.1283C7.85995 10.1269 7.90266 10.1032 7.94968 10.1012C8.01166 10.0972 8.0692 10.0702 8.13117 10.0655C8.17895 10.0642 8.22217 10.04 8.26983 10.0376C8.34321 10.0339 8.41152 10.0005 8.48529 10.0002C8.53294 9.99741 8.57641 9.97105 8.62508 9.97396C8.67781 9.97827 8.72419 9.94697 8.77628 9.94709C8.81164 9.94532 8.8465 9.93772 8.87996 9.92644C8.93027 9.90793 8.98617 9.91908 9.03433 9.8931C9.10125 9.87916 9.16994 9.87282 9.23546 9.85115C9.31303 9.85115 9.38388 9.81528 9.46094 9.81174C9.51341 9.813 9.56017 9.77967 9.6134 9.78575C9.65852 9.7926 9.69642 9.7618 9.74027 9.75939Z" fill="#DEDDD3"/>
<path d="M8.83325 10.1794C8.87938 10.1615 8.92957 10.1627 8.97824 10.1642C8.92349 10.205 8.85226 10.2088 8.78876 10.2281C8.66266 10.2541 8.5344 10.2685 8.40918 10.2982C8.33719 10.3174 8.26571 10.339 8.1922 10.3513C8.13782 10.3562 8.08282 10.3548 8.02832 10.3525C8.03022 10.3192 8.06862 10.3311 8.08992 10.3253C8.15557 10.3242 8.21387 10.2888 8.27965 10.2892C8.34543 10.2714 8.41184 10.257 8.47926 10.2468C8.54897 10.2229 8.62413 10.2245 8.69422 10.2015C8.73934 10.1864 8.78876 10.197 8.83325 10.1794Z" fill="#DEDDD3"/>
</svg>
