<svg width="14" height="14" viewBox="0 0 14 14" fill="none" xmlns="http://www.w3.org/2000/svg">
<path d="M9.91667 2.625C10.2869 2.62494 10.6433 2.76572 10.9136 3.01877C11.1839 3.27183 11.3478 3.61821 11.3721 3.98767L11.375 4.08333V9.625H12.25C12.4747 9.62511 12.6908 9.71167 12.8534 9.86674C13.016 10.0218 13.1128 10.2335 13.1236 10.458C13.1344 10.6824 13.0584 10.9024 12.9114 11.0724C12.7644 11.2423 12.5577 11.3492 12.334 11.3709L12.25 11.375H11.375V12.25C11.3749 12.4747 11.2883 12.6908 11.1333 12.8534C10.9782 13.016 10.7665 13.1128 10.5421 13.1236C10.3176 13.1344 10.0976 13.0584 9.92763 12.9114C9.75767 12.7644 9.65077 12.5577 9.62908 12.334L9.625 12.25V4.375H5.54167V2.625H9.91667ZM3.5 0.875C3.73206 0.875 3.95462 0.967187 4.11872 1.13128C4.28281 1.29538 4.375 1.51794 4.375 1.75V9.625H8.45833V11.375H4.08333C3.69656 11.375 3.32563 11.2214 3.05214 10.9479C2.77865 10.6744 2.625 10.3034 2.625 9.91667V4.375H1.75C1.51794 4.375 1.29538 4.28281 1.13128 4.11872C0.967187 3.95462 0.875 3.73206 0.875 3.5C0.875 3.26794 0.967187 3.04538 1.13128 2.88128C1.29538 2.71719 1.51794 2.625 1.75 2.625H2.625V1.75C2.625 1.51794 2.71719 1.29538 2.88128 1.13128C3.04538 0.967187 3.26794 0.875 3.5 0.875Z" fill="white"/>
</svg>
