<svg width="20" height="21" viewBox="0 0 20 21" fill="none" xmlns="http://www.w3.org/2000/svg">
<path fill-rule="evenodd" clip-rule="evenodd" d="M0.25 1.875C0.25 1.44402 0.421205 1.0307 0.725952 0.725952C1.0307 0.421205 1.44402 0.25 1.875 0.25H18.125C18.556 0.25 18.9693 0.421205 19.274 0.725952C19.5788 1.0307 19.75 1.44402 19.75 1.875V4.13483C19.7499 4.70942 19.5215 5.26043 19.1152 5.66667L13.25 11.5318V19.5745C13.25 19.7776 13.1981 19.9774 13.0992 20.1549C13.0003 20.3323 12.8577 20.4815 12.6849 20.5883C12.5121 20.6952 12.3148 20.756 12.1119 20.7651C11.9089 20.7743 11.707 20.7314 11.5253 20.6405L7.49858 18.6277C7.27365 18.5152 7.08448 18.3423 6.95226 18.1284C6.82004 17.9145 6.75001 17.668 6.75 17.4165V11.5318L0.884833 5.66667C0.478476 5.26043 0.250123 4.70942 0.25 4.13483V1.875Z" fill="#C8C8C8"/>
</svg>
