<svg width="14" height="14" viewBox="0 0 14 14" fill="none" xmlns="http://www.w3.org/2000/svg">
<g clip-path="url(#clip0_547_2054)">
<path d="M7.14383 4.34389C6.8291 4.34426 6.51697 4.40089 6.22217 4.51111L9.64439 7.93333C9.75607 7.63488 9.81273 7.31866 9.81161 7C9.80853 6.29449 9.5261 5.61892 9.02613 5.12113C8.52615 4.62335 7.84936 4.34388 7.14383 4.34389Z" fill="#313956"/>
<path d="M13.335 6.81722C12.0245 4.39444 9.72613 2.92833 7.1828 2.92833C6.49032 2.92996 5.8025 3.04153 5.14502 3.25889L5.77113 3.88889C6.2323 3.76971 6.70649 3.70831 7.1828 3.70611C9.37224 3.70611 11.3634 4.92722 12.5495 6.98444C12.1144 7.74768 11.5376 8.42084 10.85 8.96778L11.4022 9.52C12.1979 8.87808 12.8588 8.08507 13.3467 7.18667L13.4478 7L13.335 6.81722Z" fill="#313956"/>
<path d="M1.89411 2.24778L3.62856 3.98222C2.53225 4.6881 1.63624 5.66447 1.02689 6.81722L0.925781 7L1.02689 7.18667C2.33745 9.60945 4.63578 11.0756 7.17911 11.0756C8.17181 11.0754 9.15162 10.8507 10.0452 10.4183L11.9897 12.3628L12.6702 11.7794L2.55911 1.66833L1.89411 2.24778ZM5.12189 5.47556C4.75806 5.98866 4.58753 6.61395 4.64049 7.24072C4.69346 7.86749 4.9665 8.4553 5.41127 8.90007C5.85604 9.34484 6.44385 9.61788 7.07062 9.67085C7.69739 9.72381 8.32268 9.55328 8.83578 9.18945L9.458 9.81167C8.7377 10.1196 7.96247 10.2783 7.17911 10.2783C4.98967 10.2783 2.99856 9.05722 1.81245 7C2.38167 5.99209 3.20145 5.14819 4.19245 4.55L5.12189 5.47556Z" fill="#313956"/>
</g>
<defs>
<clipPath id="clip0_547_2054">
<rect width="14" height="14" fill="white"/>
</clipPath>
</defs>
</svg>
