<svg width="66" height="14" viewBox="0 0 66 14" fill="none" xmlns="http://www.w3.org/2000/svg">
<path d="M7.08325 5.33333C3.33325 6.16667 2.45825 8.7375 1.59159 10.8917L2.37909 11.1667L2.77492 10.2083C2.97492 10.2792 3.18325 10.3333 3.33325 10.3333C7.91659 10.3333 9.16659 3.25 9.16659 3.25C8.74992 4.08333 5.83325 4.1875 3.74992 4.60417C1.66659 5.02083 0.833252 6.79167 0.833252 7.625C0.833252 8.45833 1.56242 9.1875 1.56242 9.1875C2.91659 5.33333 7.08325 5.33333 7.08325 5.33333Z" fill="#7879D0"/>
<path d="M16.3604 2.93652L12.7324 11.7549H11.8389L15.4668 2.93652H16.3604Z" fill="#7879D0"/>
<path fill-rule="evenodd" clip-rule="evenodd" d="M23.7084 3C23.9359 3.0002 24.154 3.09075 24.3148 3.25174L27.1755 6.11244C27.3271 6.27513 27.4097 6.49031 27.4057 6.71264C27.4018 6.93498 27.3117 7.14711 27.1545 7.30435C26.9973 7.46159 26.7851 7.55166 26.5628 7.55558C26.3405 7.5595 26.1253 7.47698 25.9626 7.32538L23.7084 5.07229L21.4541 7.32653C21.2922 7.48278 21.0754 7.56918 20.8504 7.56712C20.6253 7.56506 20.4101 7.4747 20.2511 7.31551C20.092 7.15631 20.0019 6.94102 20 6.716C19.9982 6.49098 20.0848 6.27423 20.2412 6.11244L23.1019 3.25174C23.2627 3.09075 23.4808 3.0002 23.7084 3ZM23.7084 6.43284C23.9359 6.43304 24.154 6.52359 24.3148 6.68458L27.1755 9.54529C27.3271 9.70797 27.4097 9.92315 27.4057 10.1455C27.4018 10.3678 27.3117 10.58 27.1545 10.7372C26.9973 10.8944 26.7851 10.9845 26.5628 10.9884C26.3405 10.9923 26.1253 10.9098 25.9626 10.7582L23.7084 8.50513L21.4541 10.7594C21.2922 10.9156 21.0754 11.002 20.8504 11C20.6253 10.9979 20.4101 10.9075 20.2511 10.7483C20.092 10.5892 20.0019 10.3739 20 10.1488C19.9982 9.92382 20.0848 9.70707 20.2412 9.54529L23.1019 6.68458C23.2627 6.52359 23.4808 6.43304 23.7084 6.43284Z" fill="#7879D0"/>
<path d="M35.3604 2.93652L31.7324 11.7549H30.8389L34.4668 2.93652H35.3604Z" fill="#7879D0"/>
<path d="M43.0001 11.1667C42.0348 10.9236 41.2379 10.3697 40.6092 9.50499C39.9806 8.64027 39.6665 7.68027 39.6667 6.62499V4.08333L43.0001 2.83333L46.3334 4.08333V6.62499C46.3334 7.68055 46.0191 8.64069 45.3905 9.50541C44.7619 10.3701 43.9651 10.9239 43.0001 11.1667Z" fill="#7879D0"/>
<path d="M54.3604 2.93652L50.7324 11.7549H49.8389L53.4668 2.93652H54.3604Z" fill="#7879D0"/>
<g clip-path="url(#clip0_466_2419)">
<path d="M62.3009 2.85543C62.1491 2.85485 62.0008 2.86078 61.8576 2.87245C58.329 2.87245 58.6108 6.34356 61.8576 6.8451C65.1045 7.34661 64.2743 10.2009 62.0318 10.2009C60.5523 10.2009 59.5559 9.8513 58.8496 9.07313C58.1102 8.25856 58.6299 7.32246 59.6279 8.16016C60.6304 9.00157 61.3914 9.62927 62.6481 8.65235C61.0742 9.17438 60.4574 7.90123 59.3379 7.21314C58.2764 6.56069 56.9115 7.89422 57.8262 9.34448C58.5891 10.5541 60.5106 11.2391 62.1037 11.2391C65.9822 11.2391 66.6621 6.47018 63.2128 5.93159C61.995 5.74143 61.1144 5.52029 60.687 4.84338C60.3738 4.34722 61.2613 3.33442 62.4036 3.79417C62.569 4.07103 62.6476 4.41957 62.6739 4.94501L64.1417 5.63988L64.1983 5.54429L64.1994 5.54648C64.3494 5.46756 64.4622 5.28884 64.5669 5.08893C64.3749 5.17109 64.1608 5.16759 63.9571 5.11473C63.9076 5.08244 63.8601 5.04722 63.8148 5.00926C63.4037 4.66499 63.3097 4.20105 63.605 3.97268C63.8236 3.80367 64.1942 3.81114 64.5388 3.96611C64.6901 4.28381 64.7094 4.586 64.7355 4.88896C64.9155 4.64244 65.0115 4.37123 65.0618 4.08641L65.2502 3.7689C64.408 3.12452 63.2808 2.859 62.3009 2.85543H62.3009ZM63.0535 3.2432C63.2932 3.25653 63.5545 3.27177 63.7868 3.40856L63.6204 3.69203C63.4765 3.60727 63.2695 3.58415 63.0354 3.57116L63.0535 3.2432Z" fill="#7879D0"/>
</g>
<defs>
<clipPath id="clip0_466_2419">
<rect width="9" height="9" fill="white" transform="translate(57 2.5)"/>
</clipPath>
</defs>
</svg>
