<svg width="40" height="10" viewBox="0 0 40 10" fill="none" xmlns="http://www.w3.org/2000/svg">
<path d="M4.07227 1.63965H6.60156V0.213867H7.30469V1.63965H9.62891V2.25488C9.4987 2.7041 9.33268 3.1403 9.13086 3.56348C8.93555 3.47233 8.71419 3.3877 8.4668 3.30957C8.63607 2.97103 8.77279 2.62923 8.87695 2.28418H7.30469V4.19824H9.05273V4.78418C8.73698 6.0179 8.24219 7.03027 7.56836 7.82129C8.10872 8.2998 8.8737 8.70671 9.86328 9.04199C9.66797 9.27637 9.48242 9.52051 9.30664 9.77441C8.36914 9.361 7.61556 8.88249 7.0459 8.33887C6.39486 8.9248 5.60872 9.41309 4.6875 9.80371C4.54427 9.58236 4.38151 9.36751 4.19922 9.15918C5.18555 8.78158 5.97493 8.33724 6.56738 7.82617C5.91309 7.08724 5.47201 6.09277 5.24414 4.84277H4.75586V5.36035C4.75586 7.24837 4.25456 8.72949 3.25195 9.80371C3.08919 9.57585 2.92318 9.37402 2.75391 9.19824C3.63281 8.19564 4.07227 6.91634 4.07227 5.36035V1.63965ZM0.195312 2.81152V2.09863H3.39844V2.83105C3.05013 3.44629 2.65299 4.04199 2.20703 4.61816V4.84766C2.33724 4.97786 2.46094 5.10319 2.57812 5.22363C2.88737 4.87533 3.14128 4.56934 3.33984 4.30566L3.85742 4.73535C3.62956 5.00879 3.3431 5.31803 2.99805 5.66309C3.25195 5.93327 3.47331 6.17741 3.66211 6.39551L3.17383 6.90332C2.90365 6.54525 2.58138 6.15625 2.20703 5.73633V9.74512H1.52344V5.43359C1.17513 5.81771 0.804036 6.19368 0.410156 6.56152C0.338542 6.30762 0.247396 6.02441 0.136719 5.71191C1.19792 4.8265 1.9987 3.8597 2.53906 2.81152H0.195312ZM4.75586 4.19824H6.60156V2.28418H4.75586V4.19824ZM8.29102 4.84277H5.91797C6.1263 5.81608 6.51204 6.63639 7.0752 7.30371C7.60254 6.65267 8.00781 5.83236 8.29102 4.84277ZM1.15234 0.467773L1.81641 0.135742C2.10938 0.584961 2.36654 1.03743 2.58789 1.49316L1.88477 1.84473C1.69596 1.43457 1.45182 0.975586 1.15234 0.467773ZM14.6484 2.21582H16.1035C16.1133 1.56152 16.1165 0.890951 16.1133 0.204102H16.9141C16.9108 0.88444 16.9027 1.55501 16.8896 2.21582H19.5215C19.4759 4.67676 19.4108 6.65918 19.3262 8.16309C19.2546 9.08105 18.8281 9.54655 18.0469 9.55957C17.6432 9.55957 17.2038 9.5498 16.7285 9.53027C16.6829 9.25684 16.6309 8.97038 16.5723 8.6709C17.0215 8.72949 17.4316 8.76204 17.8027 8.76855C18.2845 8.76855 18.5352 8.49837 18.5547 7.95801C18.6523 6.34342 18.7109 4.67676 18.7305 2.95801H16.875C16.8685 3.23796 16.862 3.51465 16.8555 3.78809C16.8229 6.35319 16.0482 8.37793 14.5312 9.8623C14.349 9.64095 14.1536 9.4196 13.9453 9.19824C15.306 7.9873 16.0156 6.17741 16.0742 3.76855C16.0807 3.50163 16.0872 3.23145 16.0938 2.95801H14.6484V2.21582ZM13.6523 5.58496C14.0625 6.47038 14.4401 7.34928 14.7852 8.22168C14.4987 8.34538 14.2546 8.4528 14.0527 8.54395C14.0072 8.42025 13.9616 8.29655 13.916 8.17285C12.6758 8.29004 11.5462 8.40723 10.5273 8.52441L10.1855 7.7334C10.472 7.57064 10.7031 7.30697 10.8789 6.94238C11.1979 6.30111 11.5299 5.4873 11.875 4.50098H10.2246V3.77832H14.9414V4.50098H12.6953C12.1387 5.8877 11.6569 6.96517 11.25 7.7334C11.9987 7.67806 12.8044 7.60482 13.667 7.51367C13.4489 6.96029 13.2194 6.41829 12.9785 5.8877L13.6523 5.58496ZM10.6348 1.03418H14.5508V1.75684H10.6348V1.03418ZM23.7402 4.6377V3.99316H26.25V2.49902H23.7012V1.78613H26.25V0.213867H27.0312V1.78613H29.6875V2.49902H27.0312V3.99316H29.1113V4.5791C28.6523 5.88118 27.9997 6.93587 27.1533 7.74316C27.8857 8.31934 28.7923 8.75879 29.873 9.06152C29.6257 9.34798 29.4173 9.59863 29.248 9.81348C28.1901 9.38379 27.2933 8.86133 26.5576 8.24609C25.7015 8.89062 24.7005 9.43913 23.5547 9.8916C23.418 9.68327 23.2454 9.45215 23.0371 9.19824C24.1992 8.82064 25.1921 8.33236 26.0156 7.7334C25.293 6.94564 24.751 5.91374 24.3896 4.6377H23.7402ZM20.1172 5.36035C20.6087 5.22038 21.084 5.08203 21.543 4.94531V2.84082H20.2441V2.16699H21.543V0.272461H22.2949V2.16699H23.4375V2.84082H22.2949V4.71094C22.6693 4.59049 23.0339 4.47168 23.3887 4.35449C23.3887 4.66699 23.3952 4.9209 23.4082 5.11621C23.0404 5.2334 22.6693 5.35221 22.2949 5.47266V8.62207C22.2949 9.31217 21.9694 9.66048 21.3184 9.66699C21.0579 9.6735 20.7454 9.6735 20.3809 9.66699C20.3418 9.39355 20.2995 9.11686 20.2539 8.83691C20.638 8.87598 20.9277 8.89551 21.123 8.89551C21.403 8.89551 21.543 8.74902 21.543 8.45605V5.72168C21.1035 5.86816 20.6608 6.0179 20.2148 6.1709L20.1172 5.36035ZM28.2617 4.6377H25.1416C25.4346 5.66634 25.9229 6.53548 26.6064 7.24512C27.3747 6.51595 27.9264 5.64681 28.2617 4.6377ZM31.4844 9.68652H30.7227V3.9248H34.6875V8.54395C34.6875 9.24707 34.362 9.59863 33.7109 9.59863C33.4245 9.60514 33.0566 9.6084 32.6074 9.6084C32.5749 9.40658 32.526 9.15918 32.4609 8.86621C32.8711 8.89876 33.1999 8.91504 33.4473 8.91504C33.7663 8.91504 33.9258 8.74902 33.9258 8.41699V7.60645H31.4844V9.68652ZM35.6348 4.97949H36.3965V6.59082C37.321 6.24577 38.2878 5.79329 39.2969 5.2334L39.7363 5.90723C38.6719 6.46712 37.5586 6.96354 36.3965 7.39648V8.24121C36.3965 8.65137 36.556 8.85645 36.875 8.85645H38.3105C38.6426 8.85645 38.8346 8.69694 38.8867 8.37793C38.9323 8.09147 38.9714 7.66504 39.0039 7.09863C39.2513 7.19629 39.5052 7.28743 39.7656 7.37207C39.7135 7.94499 39.6582 8.37793 39.5996 8.6709C39.515 9.24382 39.1081 9.53027 38.3789 9.53027H36.748C36.0059 9.53027 35.6348 9.14941 35.6348 8.3877V4.97949ZM35.6543 0.213867H36.416V1.88867C37.3112 1.53385 38.1999 1.10579 39.082 0.604492L39.5215 1.27832C38.5059 1.79264 37.4707 2.26302 36.416 2.68945V3.25098C36.416 3.68717 36.5885 3.90527 36.9336 3.90527H38.1738C38.584 3.90527 38.8151 3.736 38.8672 3.39746C38.9128 3.11751 38.9518 2.71061 38.9844 2.17676C39.2318 2.27441 39.4857 2.36882 39.7461 2.45996C39.694 2.98079 39.6387 3.40397 39.5801 3.72949C39.4824 4.2959 39.043 4.5791 38.2617 4.5791H36.8359C36.0482 4.5791 35.6543 4.18848 35.6543 3.40723V0.213867ZM33.8477 1.04395C34.4401 1.81217 34.9544 2.55111 35.3906 3.26074C35.1432 3.43001 34.9186 3.57975 34.7168 3.70996C34.5898 3.48535 34.4548 3.25586 34.3115 3.02148C32.7197 3.13867 31.4453 3.24447 30.4883 3.33887L30.1758 2.51855C30.4622 2.3623 30.778 2.06934 31.123 1.63965C31.4811 1.1709 31.8327 0.64681 32.1777 0.0673828L32.9492 0.350586C32.4089 1.13184 31.8392 1.87077 31.2402 2.56738C32.2168 2.50553 33.1038 2.44206 33.9014 2.37695C33.6963 2.06771 33.4766 1.75033 33.2422 1.4248L33.8477 1.04395ZM31.4844 7.02051H33.9258V6.07324H31.4844V7.02051ZM33.9258 4.5498H31.4844V5.4873H33.9258V4.5498Z" fill="#7879D0"/>
</svg>
