<svg width="264" height="872" viewBox="0 0 264 872" fill="none" xmlns="http://www.w3.org/2000/svg">
<g clip-path="url(#clip0_491_1783)">
<g clip-path="url(#clip1_491_1783)">
<path d="M185.711 73H189.721C194.458 73.467 199.535 74.2383 203.297 77.4225C207.045 80.7199 209.223 85.6024 209.343 90.5839C206.868 93.5983 205.044 97.0585 203.396 100.575C198.652 100.795 193.885 101.396 189.402 103.009C178.81 106.569 170.437 114.501 160.021 118.442C160.007 116.532 160.007 114.621 160.007 112.711C161.457 111.338 162.85 109.916 164.165 108.423C162.779 108.557 161.322 108.387 159.993 108.84C158.416 110.05 157.193 111.642 155.743 112.994C147.194 121.138 135.923 125.886 127.939 134.696C124.807 137.986 122.466 141.92 120.507 145.996C121.801 146.01 123.095 146.025 124.389 146.046C130.534 136.953 140.399 131.653 148.255 124.287C155.071 124.223 161.931 124.761 168.528 126.523C174.935 128.207 181.129 130.578 187.557 132.17C188.165 133.663 188.943 135.113 189.282 136.705C187.543 144.376 181.511 150.341 179.842 158.033C179.283 168.71 180.323 179.459 179.29 190.108C177.509 201.104 181.871 212.044 180.104 223.026C179.679 226.111 178.237 228.913 176.851 231.652C177.183 232.72 177.516 233.788 177.855 234.864C177.127 234.772 175.663 234.588 174.935 234.496C175.189 235.897 175.465 237.291 175.748 238.685C171.632 238.77 167.382 238.402 163.408 239.725C160.368 240.716 157.363 241.827 154.279 242.704C151.656 239.563 148.432 237.029 145.037 234.779C141.219 232.097 136.806 229.366 135.343 224.639C134.07 221.342 135.809 217.952 135.59 214.612C134.876 213.226 133.702 212.164 132.677 211.011C132.436 213.063 132.387 215.278 131.022 216.962C126.383 223.528 124.51 231.694 119.319 237.907C117.594 240.058 115.211 241.501 112.814 242.782C109.992 240.412 106.973 238.282 103.734 236.506C102.589 235.706 100.835 235.175 100.701 233.548C99.9229 229.408 99.541 225.198 98.8763 221.037C102.674 216.856 106.45 212.525 108.762 207.303C99.6117 206.737 90.5181 202.491 84.9601 195.076C82.8458 192.316 81.7498 188.955 80.9719 185.608C81.5093 185.572 82.5842 185.488 83.1216 185.445C83.1145 184.957 83.0933 183.973 83.0862 183.478C86.2683 183.57 89.5493 184.476 92.689 183.676C96.5357 178.539 96.0549 171.718 97.3065 165.696C98.8905 156.356 104.943 148.742 108.705 140.258C110.466 136.465 111.696 132.46 112.665 128.405C120.14 127.776 126.843 123.495 131.333 117.607C134.487 113.68 136.757 109.123 138.397 104.382C133.921 103.844 130.895 107.397 127.395 109.463C108.932 120.919 86.9754 125.554 69.1842 138.22C63.8807 142.012 62.0917 148.607 58.3864 153.674C56.3145 156.532 53.3375 158.761 49.9221 159.717C46.6764 157.183 43.6994 154.183 41.7548 150.518C39.8173 147.574 38.1768 144.333 38 140.746V138.991C38.4172 131.356 40.9063 124.039 41.7265 116.454C44.7955 115.654 47.9068 114.819 50.6999 113.263C58.1813 109.279 61.9149 100.964 69.163 96.6339C72.8824 101.509 77.302 106.038 82.9872 108.557C89.8746 103.675 97.8227 100.554 105.912 98.318C122.183 93.8318 139.034 92.0133 155.368 87.8172C166.308 84.9939 177.381 80.9251 185.711 73ZM126.49 163.743C131.793 163.771 137.033 164.613 142.209 165.703C142.584 163.722 143.05 161.747 143.906 159.915C144.09 162.611 144.832 165.201 145.723 167.734C148.318 178.716 145.504 190.271 148.212 201.218C148.644 201.246 149.506 201.31 149.938 201.338C150.327 198.918 150.115 196.448 150.143 194.014C150.143 178.666 150.122 163.318 150.157 147.978C146.996 146.852 143.687 146.272 140.356 145.968C135.074 151.325 129.636 156.78 126.49 163.743ZM116.59 213.077C117.071 213.077 118.046 213.084 118.527 213.084C122.19 208.329 127.734 205.789 132.26 202.031C135.668 199.187 137.584 194.92 138.016 190.547C138.207 187.837 139.416 185.367 139.847 182.714C140.25 180.23 139.387 177.796 138.433 175.546C131.001 187.957 121.469 199.286 116.59 213.077Z" fill="#313956" fill-opacity="0.4"/>
<path d="M185.662 224.922C187.005 224.873 188.356 224.844 189.706 224.83C189.721 225.34 189.756 226.359 189.77 226.868C188.342 226.352 186.956 225.722 185.662 224.922Z" fill="#313956" fill-opacity="0.4"/>
<path d="M179.962 226.925C180.712 228.17 181.348 229.486 181.992 230.788C181.433 230.774 180.316 230.739 179.764 230.717C179.821 229.451 179.884 228.184 179.962 226.925Z" fill="#313956" fill-opacity="0.4"/>
<path d="M132.408 244.686C136.495 247.318 140.328 250.325 144.104 253.389C148.835 257.373 153.848 261.725 155.743 267.845C157.32 272.551 156.16 277.547 156.578 282.38C156.719 285.16 159.067 287.481 161.775 287.828C164.264 287.135 166.767 285.67 169.433 286.469C173.959 287.403 176.745 291.614 177.982 295.782C173.16 298.202 167.955 300.777 165.141 305.631C162.892 309.339 162.256 313.748 162.114 318.014C162.468 317.83 163.182 317.47 163.536 317.286C164.971 314.236 167.411 311.865 169.362 309.162C171.25 306.558 173.379 304.131 175.734 301.945C177.332 302.751 178.958 303.997 180.86 303.636C183.229 303.53 186.086 302.313 188.073 304.152C190.074 306.488 191.743 309.106 193.376 311.71C193.496 315.333 193.588 319.536 191.007 322.43C186.871 327.284 181.002 330.376 177.19 335.535C175.825 337.304 175.309 339.646 176.016 341.797C176.893 345.123 177.777 348.979 180.839 351.01C183.781 352.807 187.387 353.055 190.753 353.09C191.799 353.133 192.478 352.17 193.299 351.675C196.601 348.88 201.254 348.073 204.068 344.649C207.377 341.075 208.806 336.278 211.747 332.464C215.078 328.437 220.671 327.772 225.558 327.468C225.289 329.81 223.196 331.02 221.753 332.619C219.243 335.252 217.518 338.535 216.11 341.868C212.009 351.866 210.842 362.791 206.663 372.762C204.577 377.743 201.43 382.491 196.77 385.392C194.083 387.168 190.944 388.025 187.84 388.739C176.844 376.915 166.456 364.461 157.709 350.868C156.471 349.071 155.595 346.991 154.039 345.427C148.495 347.528 143.05 349.906 137.344 351.548C128.335 354.237 119.347 357.074 110.805 361.044C110.834 359.692 110.862 358.341 110.911 356.996C119.192 352.361 126.956 346.708 133.589 339.901C139.529 333.78 144.535 326.392 146.296 317.929C145.525 316.486 144.839 315.007 144.203 313.514C142.032 313.556 140.752 315.361 139.394 316.783C135.59 315.127 129.855 314.399 129.099 309.431C128.781 306.233 127.486 302.178 130.478 299.864C132.401 300.303 134.331 300.954 136.333 300.827C138.482 300.154 139.274 297.749 140.413 296.022C136.184 289.187 134.438 281.191 132.967 273.379C131.446 263.932 130.315 254.132 132.408 244.686ZM158.296 305.872C159.413 304.704 160.453 303.374 160.467 301.669C159.562 302.964 158.862 304.393 158.296 305.872ZM146.473 327.355C145.087 329.315 143.764 331.317 142.492 333.355C144.457 332.725 146.416 332.074 148.382 331.431C147.788 330.051 147.173 328.685 146.473 327.355Z" fill="#313956" fill-opacity="0.4"/>
<path d="M164.038 260.366C170.416 261.059 177.112 262.715 181.907 267.251C185.916 270.994 187.649 276.563 187.726 281.934C186.956 283.264 186.284 284.644 185.64 286.038C183.477 285.981 181.193 286.349 179.142 285.472C173.273 282.733 166.541 283.802 160.431 282.012C160.283 281.559 159.986 280.667 159.837 280.221C160.41 280.179 161.549 280.108 162.114 280.073C164.893 276.266 168.436 272.94 170.041 268.397C166.979 266.642 164.915 263.763 164.038 260.366Z" fill="#313956" fill-opacity="0.4"/>
<path d="M91.1192 262.347C100.001 264.732 109.285 267.824 115.812 274.638C118.351 277.214 119.942 280.554 120.712 284.064C118.089 285.458 115.133 286.682 113.408 289.236C111.697 291.791 111.336 294.932 110.806 297.89C111.293 297.883 112.269 297.869 112.757 297.862C115.077 294.84 118.322 292.399 122.247 292.152C123.739 292.626 125.125 293.383 126.567 293.991C126.567 294.458 126.582 295.385 126.582 295.852C121.455 299.772 118.23 305.645 116.703 311.844C118.322 311.54 119.942 311.207 121.54 310.804C123.817 312.814 124.672 315.807 125.811 318.51C127.183 322.161 128.66 325.883 128.873 329.824C128.993 331.438 127.607 332.534 126.659 333.645C121.002 339.334 114.348 344.111 106.973 347.295C106.457 345.229 106.124 343.092 105.233 341.139C104.392 339.349 102.553 338.386 101.033 337.261C100.998 338.563 100.977 339.879 100.962 341.195C101.924 342.115 103.027 342.936 103.763 344.075C104.434 345.646 104.569 347.38 104.929 349.043C103.501 349.694 102.094 350.38 100.715 351.13C96.5712 349.793 92.9436 347.352 89.1676 345.25C88.6231 330.872 81.9266 317.823 79.2891 303.869C79.982 303.176 80.675 302.475 81.3609 301.782C85.2501 302.766 87.3008 306.417 89.7404 309.254C92.4911 312.509 95.0296 316.139 98.7986 318.319C100.39 314.349 100.969 310.047 100.694 305.794C99.9017 290.85 93.6578 276.966 91.1192 262.347ZM110.841 307.747C110.183 309.714 109.526 311.681 108.868 313.656C110.148 313.663 111.428 313.67 112.708 313.684C112.602 311.497 112.856 309.311 114.49 307.705C113.273 307.719 112.057 307.733 110.841 307.747ZM102.85 329.697C101.74 331.395 101.45 333.447 100.92 335.365C101.401 335.365 102.377 335.372 102.865 335.372C104.173 333.61 105.686 331.997 106.895 330.164C107.906 328.798 107.22 327.043 107.164 325.515C105.658 326.831 104.053 328.076 102.85 329.697Z" fill="#313956" fill-opacity="0.4"/>
<path d="M130.562 333.376C131.913 333.398 133.264 333.419 134.614 333.468C132.811 335.612 130.683 337.431 128.611 339.306C128.597 337.997 128.59 336.688 128.583 335.386C129.07 335.386 130.046 335.386 130.534 335.379C130.541 334.884 130.555 333.879 130.562 333.376Z" fill="#313956" fill-opacity="0.4"/>
<path d="M127.444 358.907C128.172 356.6 130.577 357.067 132.458 357.017C131.475 359.006 129.459 359.452 127.444 358.907Z" fill="#313956" fill-opacity="0.4"/>
<path d="M122.063 375.33C129.735 373.427 137.648 372.641 145.539 372.571C149.4 376.009 154.131 378.295 157.95 381.769C160.919 384.444 162.553 388.223 163.394 392.065C162.652 393.445 161.98 394.86 161.358 396.304C151.621 399.912 141.346 401.681 131.347 404.37C121.186 407.392 113.768 416.18 110.134 425.867C110.636 425.881 111.64 425.903 112.149 425.917C112.156 426.398 112.177 427.36 112.192 427.848C126.977 422.273 142.859 418.777 156.076 409.734C164.773 403.896 170.932 394.669 173.294 384.487C173.704 384.458 174.517 384.409 174.928 384.38C175.479 386.807 176.681 389.036 177.155 391.485C177.374 392.914 176.123 393.94 175.437 395.058C176.717 394.308 177.876 393.183 179.397 392.992C181.313 394.039 182.473 395.971 183.724 397.683C188.094 403.847 191.8 410.703 197.853 415.437C196.778 416.987 195.491 418.374 193.935 419.456C192.379 418.918 190.81 418.43 189.24 417.963C176.929 428.429 158.798 424.671 145.773 433.736C158.133 435.851 170.6 437.769 183.173 437.741C183.166 439.694 183.173 441.647 183.18 443.607C181.921 443.628 180.662 443.649 179.404 443.677C173.047 448.192 165 448.687 157.511 449.579C158.098 459.938 158.635 470.297 159.258 480.65C159.371 482.907 159.774 485.334 158.551 487.393C154.683 494.915 148.304 500.802 141.672 505.876C132.974 512.216 123.081 517.657 112.199 518.719C112.184 517.403 112.17 516.086 112.163 514.777C113.995 513.751 116.455 513.115 117.226 510.928C118.103 508.819 118.768 506.59 120.118 504.715C125.832 496.33 132.571 488.087 134.607 477.89C136.347 469.222 135.088 460.342 133.907 451.695C131.171 451.772 127.055 449.43 125.323 452.579C120.769 460.695 121.971 470.68 117.58 478.852C116.059 481.824 113.259 483.827 110.275 485.15C107.341 481.471 103.855 478.293 100.298 475.237C101.571 470.609 103.565 466.193 104.321 461.438C99.3431 461.728 94.57 463.278 90.1646 465.571C85.7804 467.863 80.6962 467.177 76.1423 465.847C74.5796 464.778 73.7381 462.967 72.6067 461.495C70.0186 457.886 67.9609 453.888 66.7659 449.6C68.0387 449.586 69.3186 449.579 70.5914 449.579C71.2561 448.921 71.9279 448.263 72.5996 447.619C73.3987 450.194 73.823 453.414 76.404 454.872C79.4163 456.28 82.8742 455.693 86.0916 455.65C89.1181 455.862 90.9566 453.074 93.4032 451.794C104.35 445.369 116.18 440.67 127.868 435.809C127.89 435.299 127.939 434.288 127.96 433.778C126.03 433.778 124.099 433.778 122.176 433.806C117.58 438.753 110.395 437.889 104.307 437.727C102.087 434.507 98.9047 431.882 97.5965 428.103C96.7762 425.464 95.7933 422.421 97.4833 419.902C100.552 414.17 100.39 406.422 106.117 402.361C110.671 401.427 115.423 402.29 120.055 402.198C124.616 396.976 129.177 391.754 133.745 386.539C133.285 386.489 132.352 386.397 131.885 386.355C131.878 385.873 131.864 384.918 131.857 384.437C127.444 387.388 123.541 391.039 119.044 393.862C113.457 397.33 106.761 398.172 100.312 398.278C96.0762 394.74 90.9424 392.277 87.2866 388.074C84.4652 384.869 83.2984 380.651 82.5135 376.554C83.751 376.561 84.9885 376.568 86.2259 376.583C87.1523 380.057 89.21 383.064 90.4687 386.418C100.998 382.725 111.173 377.927 122.063 375.33ZM119.998 445.708C121.823 445.645 123.696 445.666 125.394 444.895C128.074 443.762 131.022 443.784 133.879 443.635C133.483 440.939 132.868 438.286 131.941 435.731C127.282 438.165 123.357 441.696 119.998 445.708Z" fill="#313956" fill-opacity="0.4"/>
<path d="M75.7604 451.397C74.6502 450.138 76.0716 448.701 76.4888 447.477C77.8889 448.772 79.289 450.081 80.4486 451.61C78.9566 451.964 77.0474 452.544 75.7604 451.397Z" fill="#313956" fill-opacity="0.4"/>
<path d="M153.466 523.049C161.414 522.95 169.794 524.21 176.441 528.88C181.475 532.312 184.771 538.192 184.926 544.299C183.83 547.426 181.857 550.221 181.143 553.504C177.657 566.68 179.418 580.464 180.881 593.802C182.31 606.978 184.792 620.253 183.342 633.541C182.6 640.511 179.587 647.771 173.223 651.359C172.87 651.132 172.17 650.68 171.816 650.453C171.349 651.04 170.89 651.635 170.43 652.236C161.683 645.564 153.693 637.95 145.737 630.357C143.559 628.277 141.488 626.076 139.578 623.741C142.124 623.741 144.691 623.493 147.222 623.833C149.026 625.574 150.984 627.159 153.502 627.725C153.537 626.579 153.565 625.439 153.594 624.314C154.824 624.144 156.061 623.982 157.292 623.833C159.13 624.767 161.11 625.333 163.118 625.751C163.762 624.364 164.413 622.991 165.176 621.675C161.103 598.246 161.28 574.393 161.315 550.695C157.596 548.176 154.336 544.596 149.768 543.676C146.367 543.025 142.633 542.211 139.373 543.81C132.953 546.089 126.051 546.789 119.277 546.91C117.049 547.129 116.668 544.369 115.911 542.883C130.315 541.482 144.267 534.265 153.466 523.049Z" fill="#313956" fill-opacity="0.4"/>
<path d="M93.1557 534.378C97.6035 537.307 102.956 535.786 107.885 536.211C109.561 536.175 110.721 537.414 111.11 538.942C111.916 541.433 111.902 544.079 112.008 546.669C108.465 549.598 106.358 553.894 102.567 556.568C101.556 553.059 99.0884 550.271 97.5045 547.044C95.6872 543.407 92.9789 540.209 89.3655 538.27C90.8717 537.215 92.1091 535.871 93.1557 534.378Z" fill="#313956" fill-opacity="0.4"/>
<path d="M133.822 548.7C140.604 548.488 147.456 549.598 153.551 552.698C152.78 554.141 152.13 555.691 151.027 556.929C149.57 558.387 147.42 558.819 145.865 560.142C144.592 561.861 144.267 564.083 144.069 566.163C143.503 573.508 144.981 580.782 145.596 588.071C147.972 587.908 150.581 587.392 152.759 588.672C155.234 590.151 157.228 592.281 159.371 594.177C158.685 596.137 158.02 598.112 157.334 600.079C154.711 599.612 151.288 596.909 149.181 599.697C144.556 605.251 145.016 613.014 143.588 619.729C142.258 619.729 140.929 619.729 139.6 619.736C139.607 619.269 139.614 618.321 139.621 617.847C133.752 614.245 130.089 608.167 127.798 601.827C129.785 602.287 131.729 602.895 133.646 603.61C134.353 602.421 135.053 601.239 135.739 600.043C133.087 600.036 130.435 599.951 127.783 600.015C125.627 599.937 123.809 601.232 121.844 601.89C117.417 603.447 112.679 603.638 108.048 603.971C107.418 601.982 106.768 600.008 106.124 598.034C108.677 596.916 111.392 596.031 113.655 594.347C113.401 591.772 112.708 589.182 113.287 586.599C114.553 579.608 118.188 573.346 119.927 566.482C115.621 563.736 111.06 561.097 107.984 556.894C108.684 556.151 109.384 555.422 110.084 554.7C118.365 555.67 127.204 553.993 133.822 548.7ZM127.614 570.699C131.178 570.14 134.056 567.501 135.809 564.465C134.544 564.437 133.285 564.479 132.026 564.6C129.877 566.029 128.689 568.435 127.614 570.699ZM125.719 580.259C129.049 580.323 132.38 580.301 135.703 580.301C135.703 578.992 135.703 577.683 135.71 576.381C135.251 576.36 134.346 576.303 133.893 576.275C132.564 575.56 131.213 574.888 129.841 574.251C128.222 576.07 126.801 578.072 125.719 580.259ZM125.697 592.125C127.663 592.147 129.636 592.14 131.602 592.083C132.917 591.333 134.282 590.661 135.654 590.031C135.675 589.571 135.703 588.658 135.717 588.198C134.423 587.547 133.136 586.896 131.849 586.245C129.474 587.83 127.112 589.564 125.697 592.125Z" fill="#313956" fill-opacity="0.4"/>
<path d="M90.3343 556.604C93.9336 557.538 98.3036 558.344 100.199 561.982C101.259 564.31 102.624 567.076 101.514 569.631C100.397 572.405 100.262 575.412 100.17 578.37C100.588 578.334 101.422 578.271 101.832 578.242C102.249 576.919 102.758 575.624 103.607 574.527C105.446 572.037 106.768 569.234 108.111 566.461C108.571 566.468 109.497 566.489 109.957 566.496C110.049 565.152 110.148 563.807 110.268 562.477C110.919 563.786 111.52 565.109 112.114 566.446C111.598 566.461 110.558 566.489 110.042 566.503C110.042 568.456 110.042 570.416 110.021 572.383C104.859 577.683 101.797 584.972 102.016 592.408C102.228 603.78 106.315 614.563 108.104 625.701C106.881 626.862 105.545 628.128 103.692 627.711C101.571 628.015 100.906 625.531 99.7108 624.279C94.7326 617.882 89.21 611.712 86.3249 603.999C84.4086 604.657 82.3509 605.152 80.4346 604.183C83.9065 599.987 87.0533 595.437 88.8564 590.25C92.8305 579.495 92.0597 567.734 90.3343 556.604Z" fill="#313956" fill-opacity="0.4"/>
<path d="M135.732 619.87C136.474 620.769 137.224 621.668 137.966 622.581C137.202 622.927 136.446 623.281 135.689 623.635C135.696 622.375 135.71 621.123 135.732 619.87Z" fill="#313956" fill-opacity="0.4"/>
<path d="M147.59 619.955C148.325 620.769 149.054 621.59 149.789 622.418C149.018 622.878 148.248 623.324 147.484 623.805C147.519 622.51 147.555 621.229 147.59 619.955Z" fill="#313956" fill-opacity="0.4"/>
<path d="M106.584 660.133C115.798 656.758 123.456 650.156 132.733 646.943C134.346 646.009 135.859 647.262 137.33 647.856C141.714 650.014 146.643 650.644 151.119 652.555C155.39 654.111 157.546 658.406 160.552 661.52C162.574 664.294 165.855 666.416 166.428 670.018C165.869 670.089 164.759 670.23 164.2 670.301C161.549 678.382 153.035 682.437 150.023 690.277C149.33 692.003 148.891 693.815 148.389 695.605C151.43 695.357 154.64 695.046 157.504 696.355C161.478 698.11 164.611 701.231 168.167 703.658C167.524 705.625 166.873 707.599 166.265 709.587C155.651 713.062 144.189 709.969 133.476 712.864C130.732 713.529 128.434 715.269 126.631 717.385C129.155 717.668 131.765 717.512 134.211 718.277C136.467 718.984 137.443 721.334 138.581 723.195C136.821 727.058 135.866 731.212 134.678 735.28C135.194 735.238 136.219 735.153 136.729 735.111C143.864 726.358 152.787 717.767 164.222 715.432C166.612 721.496 170.579 726.846 175.712 730.872C172.891 731.792 170.897 734.092 168.401 735.578C159.993 740.899 150.03 742.618 140.554 745.102C140.568 745.59 140.597 746.56 140.604 747.048C159.512 748.987 175.048 761.08 192.86 766.507C201.042 769.097 209.753 768.637 218.097 770.342C220.99 770.866 223.5 772.5 225.572 774.538C222.453 774.949 219.179 775.699 217.482 778.621C218.833 778.288 220.176 777.913 221.513 777.51C222.128 778.515 222.75 779.527 223.373 780.539C222.87 780.574 221.866 780.659 221.357 780.694C212.511 789.971 199.847 794.634 187.309 795.95C184.396 796.155 181.292 796.912 178.534 795.575C175.557 794.309 172.205 793.912 169.525 792.016C161.329 786.341 155.658 777.984 149.188 770.576C144.5 765.106 139.069 760.145 132.606 756.876C132.67 758.808 132.465 760.938 133.808 762.537C138.242 768.998 140.165 776.852 140.568 784.6C131.475 790.601 121.971 796.672 110.996 798.391C107.857 790.438 103.543 782.959 101.132 774.722C104.463 774.602 107.963 775.076 111.131 773.823C113.464 772.797 114.115 770.066 114.511 767.802C114.949 764.964 115.876 762.155 115.614 759.261C115.274 757.103 114.235 755.143 113.507 753.105C112.863 755.482 110.65 756.678 108.903 758.157C105.148 761.214 101.585 764.518 98.2682 768.057C95.4892 771.057 92.8092 774.397 91.798 778.458C90.907 781.444 91.2464 784.657 90.2635 787.622C89.5422 789.787 87.4987 791.025 85.8157 792.391C85.1298 789.405 81.5376 789.051 79.8334 786.836C73.4764 779.824 72.5359 769.854 71.5742 760.853C72.8612 760.86 74.1481 760.881 75.4351 760.903C76.8494 762.721 78.1151 764.936 80.4062 765.757C82.6407 766.479 85.0166 766.549 87.3289 766.783C92.9859 759.778 101.471 756.133 108.161 750.324C109.95 748.817 111.364 746.942 113.005 745.293C114.447 746.368 115.635 747.734 116.894 749.015C117.36 739.823 118.287 730.667 118.86 721.482C115.642 721.376 113.217 719.416 110.841 717.52C105.29 718.397 100.934 722.643 95.3053 723.442C91.501 718.645 86.6218 714.767 83.3195 709.559C85.8298 708.646 88.4321 707.981 91.0767 707.592C93.8062 709.241 96.9317 710.408 100.17 710.068C107.39 709.382 114.037 704.478 116.972 697.848C115.034 696.886 112.983 695.994 111.442 694.423C109.617 692.548 108.43 690.192 107.121 687.963C106.068 688.204 105.014 688.43 103.96 688.664C105.233 689.534 107.015 689.951 107.425 691.664C106.294 691.444 105.163 691.232 104.031 691.041C103.897 690.673 103.635 689.93 103.501 689.555C99.2228 691.197 95.9771 694.841 91.3808 695.754C91.2747 694.303 91.7768 692.739 91.2111 691.374C89.8817 689.59 88.3755 687.935 87.2512 686.003C98.8904 682.401 107.984 673.485 119.616 669.891C123.477 668.553 127.487 669.572 131.27 670.584C133.561 671.356 135.675 669.671 136.821 667.832C138.369 665.596 138.306 662.765 138.645 660.183C128.858 659.723 119.63 663.345 110.211 665.348C104.668 666.537 98.9541 666.678 93.3254 666.211C93.5658 664.718 93.7991 663.225 94.0183 661.732C95.3902 661.201 96.7761 660.19 98.3106 660.727C101.061 661.428 103.953 661.159 106.584 660.133ZM112.92 687.878C112.955 689.265 112.998 690.652 113.061 692.053C114.878 691.621 116.675 691.048 118.541 690.829C123.894 690.921 128.533 685.175 127.126 679.96C122.954 683.519 117.99 685.897 112.92 687.878Z" fill="#313956" fill-opacity="0.4"/>
<path d="M79.3384 725.367C88.4179 726.053 98.0206 726.931 105.87 731.976C109.78 734.41 112.283 738.571 113.089 743.064C107.121 746.998 100.538 750.105 93.3748 751.01C93.8132 748.06 94.2587 744.847 92.7879 742.109C90.6524 737.998 86.3672 735.747 83.3973 732.344C81.5163 730.363 80.3425 727.865 79.3384 725.367Z" fill="#313956" fill-opacity="0.4"/>
</g>
</g>
<defs>
<clipPath id="clip0_491_1783">
<rect width="264" height="872" fill="white"/>
</clipPath>
<clipPath id="clip1_491_1783">
<rect width="268" height="726" fill="white" transform="translate(38 73)"/>
</clipPath>
</defs>
</svg>
