<svg width="14" height="14" viewBox="0 0 14 14" fill="none" xmlns="http://www.w3.org/2000/svg">
<g clip-path="url(#clip0_547_2059)">
<path d="M13.0745 6.81722C11.7639 4.39444 9.46561 2.92833 6.92228 2.92833C4.37895 2.92833 2.07672 4.39444 0.777834 6.81722L0.668945 7L0.770056 7.18667C2.08061 9.60944 4.37895 11.0756 6.92228 11.0756C9.46561 11.0756 11.7678 9.62889 13.0745 7.18667L13.1756 7L13.0745 6.81722ZM6.92228 10.2783C4.73283 10.2783 2.72228 9.05722 1.55561 7C2.72228 4.94278 4.73283 3.72167 6.92228 3.72167C9.11172 3.72167 11.0989 4.94667 12.2851 7C11.0989 9.05722 9.10783 10.2783 6.92228 10.2783Z" fill="#FBFF47"/>
<path d="M7.03497 9.67944C8.50834 9.67944 9.70274 8.48504 9.70274 7.01167C9.70274 5.53829 8.50834 4.34389 7.03497 4.34389C5.56159 4.34389 4.36719 5.53829 4.36719 7.01167C4.36719 8.48504 5.56159 9.67944 7.03497 9.67944Z" fill="#FBFF47"/>
</g>
<defs>
<clipPath id="clip0_547_2059">
<rect width="14" height="14" fill="white"/>
</clipPath>
</defs>
</svg>
