<svg xmlns="http://www.w3.org/2000/svg" xmlns:xlink="http://www.w3.org/1999/xlink" width="12" height="12.0001220703125" viewBox="0 0 12 12.0001220703125" fill="none">
<path   fill-rule="evenodd"  fill="#A6A6A6"  d="M3.33333 0L2 0L2 1.99999L0 1.99999L2.66667 4.66667L5.33333 1.99999L3.33333 1.99999L3.33333 0ZM9.99983 0L8.6665 0L8.6665 1.99999L6.6665 1.99999L9.33317 4.66667L11.9998 1.99999L9.99983 1.99999L9.99983 0ZM12 6.66673L0 6.66673L0 5.3334L12 5.3334L12 6.66673ZM5.33333 10.0001L2.66667 7.3334L0 10.0001L2 10.0001L2 12.0001L3.33333 12.0001L3.33333 10.0001L5.33333 10.0001ZM11.9998 10.0001L9.33317 7.3334L6.6665 10.0001L8.6665 10.0001L8.6665 12.0001L9.99983 12.0001L9.99983 10.0001L11.9998 10.0001Z">
</path>
</svg>
