<svg xmlns="http://www.w3.org/2000/svg" xmlns:xlink="http://www.w3.org/1999/xlink" width="13.33349609375" height="11.9998779296875" viewBox="0 0 13.33349609375 11.9998779296875" fill="none">
<path   fill-rule="evenodd"  fill="#A6A6A6"  d="M5.33332 2.66667L2.66665 0L-1.17188e-05 2.66667L1.99999 2.66667L1.99999 5.33333L3.33332 5.33333L3.33332 2.66667L5.33332 2.66667ZM13.3337 1.99993L6.66699 1.99993L6.66699 0.6666L13.3337 0.6666L13.3337 1.99993ZM13.3335 6.66673L5.33349 6.66673L5.33349 5.3334L13.3335 5.3334L13.3335 6.66673ZM1.99999 6.6666L1.99999 9.33327L-1.17188e-05 9.33327L2.66665 11.9999L5.33332 9.33327L3.33332 9.33327L3.33332 6.6666L1.99999 6.6666ZM6.66699 11.3333L6.66699 10L13.3337 10L13.3337 11.3333L6.66699 11.3333Z">
</path>
</svg>
