<svg xmlns="http://www.w3.org/2000/svg" xmlns:xlink="http://www.w3.org/1999/xlink" width="24" height="24" viewBox="0 0 24 24" fill="none">
<path   fill-rule="evenodd"  fill="#FF5733"  d="M19.5005 15.5C19.5005 14.63 19.2705 13.8 19.0005 13.03C17.3305 14.68 16.0705 15.5 15.2005 15.5C19.1905 8.5 17.0005 5.5 11.0005 1.5C11.4464 5.95911 8.86999 8.24693 7.35688 9.59055C7.17334 9.75353 7.00545 9.90261 6.86049 10.04C4.62049 12.14 3.89049 15.4 5.03049 18.26C6.16049 21.12 8.92049 23 12.0005 23C16.1405 23 19.5005 19.64 19.5005 15.5ZM15.202 17.505C13.662 17.505 12.702 15.845 13.462 14.505C15.972 10.125 15.952 7.985 12.712 5.235C12.262 6.915 11.372 8.375 10.142 9.695C9.80199 10.065 9.45199 10.405 9.02199 10.785C9.00199 10.805 8.36199 11.375 8.23199 11.495C6.53199 13.095 6.03199 15.595 6.97199 17.725C7.92199 19.865 10.112 21.165 12.442 20.985C14.762 20.795 16.722 19.165 17.322 16.905C16.582 17.305 15.892 17.505 15.202 17.505Z">
</path>
</svg>
