<svg xmlns="http://www.w3.org/2000/svg" xmlns:xlink="http://www.w3.org/1999/xlink" width="14.66668701171875" height="13.574462890625" viewBox="0 0 14.66668701171875 13.574462890625" fill="none">
<path   fill-rule="evenodd"  fill="#7A7A7A"  d="M11.8866 13.5744L0.666605 13.5744C0.298472 13.5744 5.17577e-06 13.2759 5.17577e-06 12.9078L5.17577e-06 6.24108C5.17577e-06 5.87293 0.298472 5.57443 0.666605 5.57443L2.98805 5.57443C3.20453 5.57443 3.40766 5.46936 3.53262 5.29249L7.16805 0.141097C7.26294 0.00657358 7.44202 -0.0384938 7.58927 0.0350801L8.79869 0.639825C9.4999 0.990318 9.86202 1.78212 9.66871 2.54175L9.06664 4.90779L13.3333 4.90779C14.0697 4.90779 14.6667 5.50466 14.6667 6.24108L14.6667 7.64373C14.6668 7.81803 14.6329 7.99056 14.5666 8.15182L12.5033 13.1618C12.4004 13.4115 12.1569 13.5746 11.8866 13.5744ZM4.00001 6.63315C4.24202 6.49042 4.45538 6.29709 4.62198 6.06115L7.76199 1.61312L8.20271 1.83312C8.34299 1.90327 8.41551 2.06173 8.37669 2.21382L7.77469 4.57908C7.67323 4.97795 7.76162 5.40126 8.01418 5.72616C8.26674 6.05095 8.65519 6.24108 9.0667 6.24108L13.3333 6.24108L13.3333 7.64377L11.44 12.2411L4.00001 12.2411L4.00001 6.63315ZM1.33331 12.2412L1.33331 6.90782L2.66664 6.90782L2.66664 12.2412L1.33331 12.2412Z">
</path>
</svg>
