<svg xmlns="http://www.w3.org/2000/svg" xmlns:xlink="http://www.w3.org/1999/xlink" width="272.1138916015625" height="27" viewBox="0 0 272.1138916015625 27" fill="none">
<path fill="#FFFFFF"  d="M4.33392 26.5C-37.1444 26.5 271.614 26.5 271.614 26.5L271.614 10.5C271.614 4.97715 267.038 0.5 261.515 0.5C229.192 0.5 128.349 0.5 93.2639 0.5C51.246 0.5 45.8122 26.5 4.33392 26.5Z">
</path>
<path fill="rgba(236, 236, 236, 1)"  d="M93.2639 0M93.2639 0L176.349 0L261.515 0C267.314 0 272.114 4.70101 272.114 10.5L272.114 27L271.614 27L272.114 27L136.057 27L0.5 27L0.5 26.5L0.5 26L4.33392 26Q11.6757 26 18.2167 24.8967Q24.0411 23.9142 29.5873 21.9888Q34.2139 20.3826 39.3099 17.8693Q41.3524 16.862 43.8213 15.5384Q45.3052 14.7429 48.2409 13.1251Q51.2022 11.4932 52.7032 10.6888Q55.208 9.3464 57.2866 8.32237Q62.493 5.75745 67.2432 4.11365Q72.9491 2.1391 78.9563 1.13098Q85.6956 0 93.2639 0L93.2639 1Q85.7789 1 79.1218 2.11719Q73.1971 3.11146 67.5702 5.05866Q62.8789 6.68208 57.7285 9.21942Q55.6653 10.2359 53.1756 11.5702Q51.6797 12.3719 48.7235 14.0009Q45.7827 15.6215 44.2938 16.4197Q41.8099 17.7513 39.7522 18.7661Q34.6005 21.3069 29.9152 22.9334Q24.29 24.8863 18.383 25.8827Q11.7595 27 4.33392 27L0.5 27C-0.166667 27 -0.166667 26 0.5 26L136.057 26L271.614 26L271.614 26.5L271.614 26L271.614 26.5L271.114 26.5L271.114 10.5C271.114 5.25329 266.762 1 261.515 1L176.349 1L93.2639 1L93.2639 0Z">
</path>
</svg>
