<svg xmlns="http://www.w3.org/2000/svg" xmlns:xlink="http://www.w3.org/1999/xlink" width="16" height="16" viewBox="0 0 16 16" fill="none">
<path   fill-rule="evenodd"  fill="#FFFFFF"  d="M7.99999 0.666687C10.21 0.666687 12 2.45669 12 4.66669C12 6.87669 10.21 8.66669 7.99999 8.66669C5.78999 8.66669 3.99999 6.87669 3.99999 4.66669C3.99999 2.45669 5.78999 0.666687 7.99999 0.666687ZM7.99966 1.99999C9.47299 1.99999 10.6663 3.19332 10.6663 4.66665C10.6663 6.13999 9.47299 7.33332 7.99966 7.33332C6.52633 7.33332 5.33299 6.13999 5.33299 4.66665C5.33299 3.19332 6.52633 1.99999 7.99966 1.99999ZM13.9997 11.3333L13.9997 10.6667C13.9997 9.56213 13.1042 8.66669 11.9997 8.66669C10.8951 8.66669 9.99966 9.56213 9.99966 10.6667L9.99966 11.3333L9.33299 11.3333L9.33299 14.6667L14.6663 14.6667L14.6663 11.3333L13.9997 11.3333ZM2.66699 14.6667L4.00033 14.6667C4.00033 12.4576 5.79121 10.6667 8.00032 10.6667L8.00032 9.33339C5.05483 9.33339 2.66699 11.7212 2.66699 14.6667ZM11.9997 9.99999C12.3678 9.99999 12.6663 10.2985 12.6663 10.6667L12.6663 11.3333L11.333 11.3333L11.333 10.6667C11.333 10.2985 11.6315 9.99999 11.9997 9.99999Z">
</path>
</svg>
