<svg xmlns="http://www.w3.org/2000/svg" xmlns:xlink="http://www.w3.org/1999/xlink" width="14.6669921875" height="13.57452392578125" viewBox="0 0 14.6669921875 13.57452392578125" fill="none">
<path   fill-rule="evenodd"  fill="#FFFFFF"  d="M11.8866 13.5745L0.6666 13.5745C0.298467 13.5745 0 13.276 0 12.9079L0 6.24118C0 5.87303 0.298467 5.57453 0.6666 5.57453L2.98804 5.57453C3.20452 5.57453 3.40765 5.46946 3.53261 5.29259L7.16804 0.141197C7.26293 0.00667358 7.44201 -0.0383938 7.58927 0.0351801L8.79868 0.639925C9.49989 0.990418 9.86201 1.78222 9.66871 2.54185L9.06664 4.90789L13.3333 4.90789C14.0697 4.90789 14.6667 5.50476 14.6667 6.24118L14.6667 7.64383C14.6668 7.81813 14.6329 7.99066 14.5666 8.15192L12.5033 13.1619C12.4004 13.4116 12.1569 13.5747 11.8866 13.5745ZM4 6.63335C4.24201 6.49062 4.45537 6.29729 4.62197 6.06135L7.76199 1.61332L8.20271 1.83332C8.34299 1.90347 8.41551 2.06193 8.37668 2.21402L7.77468 4.57928C7.67323 4.97815 7.76161 5.40146 8.01417 5.72636C8.26673 6.05115 8.65519 6.24128 9.06669 6.24128L13.3333 6.24128L13.3333 7.64397L11.44 12.2413L4 12.2413L4 6.63335ZM1.333 12.2412L1.333 6.90782L2.66633 6.90782L2.66633 12.2412L1.333 12.2412Z">
</path>
</svg>
