<svg xmlns="http://www.w3.org/2000/svg" xmlns:xlink="http://www.w3.org/1999/xlink" width="14.341796875" height="13.0269775390625" viewBox="0 0 14.341796875 13.0269775390625" fill="none">
<path   fill-rule="evenodd"  fill="#FFFFFF"  d="M4.30266 13.027C1.92687 13.027 0 11.0766 0 8.689L0 4.33799C-0.00071711 3.18653 0.452496 2.08197 1.25968 1.26818C2.06685 0.454381 3.16174 -0.00195405 4.30266 0L10.0395 0C12.4153 0 14.3422 1.9504 14.3422 4.33799L14.3422 13.027L4.30266 13.027ZM4.30204 11.5795C2.72015 11.5779 1.4375 10.2854 1.4336 8.68891L1.4336 4.33799C1.4328 3.57038 1.7349 2.83398 2.27313 2.29161C2.81137 1.74924 3.54144 1.44547 4.30204 1.4474L10.0389 1.4474C11.6208 1.44902 12.9035 2.74147 12.9074 4.33799L12.9074 11.5795L4.30204 11.5795ZM4.3027 7.12313L5.73692 7.12313L5.73692 5.7898L4.3027 5.7898L4.3027 7.12313ZM8.6045 7.12313L10.0387 7.12313L10.0387 5.7898L8.6045 5.7898L8.6045 7.12313Z">
</path>
</svg>
