<svg xmlns="http://www.w3.org/2000/svg" xmlns:xlink="http://www.w3.org/1999/xlink" width="13.33331298828125" height="12" viewBox="0 0 13.33331298828125 12" fill="none">
<path   fill-rule="evenodd"  fill="#7A7A7A"  d="M4 12C1.79133 12 -5.17577e-06 10.2034 -5.17577e-06 8.004L-5.17577e-06 3.996C-0.000671842 2.93532 0.420662 1.91784 1.17106 1.1682C1.92146 0.41856 2.93933 -0.0018 4 0L9.33333 0C11.542 0 13.3333 1.79664 13.3333 3.996L13.3333 12L4 12ZM4.00006 10.6666C2.52945 10.6651 1.33702 9.47459 1.33339 8.00393L1.33339 3.99601C1.33265 3.28892 1.6135 2.61057 2.11387 2.11095C2.61425 1.61134 3.29297 1.33153 4.00006 1.3333L9.3334 1.3333C10.804 1.33479 11.9964 2.52535 12.0001 3.99601L12.0001 10.6666L4.00006 10.6666ZM3.99999 6.66663L5.33333 6.66663L5.33333 5.3333L3.99999 5.3333L3.99999 6.66663ZM8 6.66663L9.33333 6.66663L9.33333 5.3333L8 5.3333L8 6.66663Z">
</path>
</svg>
