<svg xmlns="http://www.w3.org/2000/svg" xmlns:xlink="http://www.w3.org/1999/xlink" width="15" height="12" viewBox="0 0 15 12" fill="none">
<path   fill-rule="evenodd"  fill="#7A7A7A"  d="M7.2002 2.4L7.2002 0.6C7.2002 0.26862 7.46883 0 7.8002 0C8.13157 0 8.4002 0.26862 8.4002 0.6L8.4002 2.4C8.4002 2.73138 8.13157 3 7.8002 3C7.46883 3 7.2002 2.73138 7.2002 2.4ZM11.6188 3.87832L12.8914 2.60572C13.1257 2.37127 13.1255 1.99131 12.8911 1.75703C12.6566 1.52275 12.2767 1.52287 12.0424 1.75733L10.7704 3.02992C10.5361 3.26422 10.5361 3.64401 10.7704 3.87832C11.0047 4.11254 11.3845 4.11254 11.6188 3.87832ZM4.40573 3.03002L3.13372 1.75743C2.89928 1.52313 2.51931 1.52328 2.28501 1.75773C2.05074 1.99218 2.05089 2.37214 2.28533 2.60642L3.55732 3.87841C3.79162 4.11266 4.17141 4.11266 4.40573 3.87841C4.63996 3.64411 4.63996 3.26432 4.40573 3.03002ZM0.6 5.4L2.4 5.4C2.73138 5.4 3 5.66863 3 6C3 6.33137 2.73138 6.6 2.4 6.6L0.6 6.6C0.26862 6.6 0 6.33137 0 6C0 5.66863 0.26862 5.4 0.6 5.4ZM12.6 5.4L14.4 5.4C14.7314 5.4 15 5.66863 15 6C15 6.33137 14.7314 6.6 14.4 6.6L12.6 6.6C12.2686 6.6 12 6.33137 12 6C12 5.66863 12.2686 5.4 12.6 5.4ZM2.71008 10.4187C2.86931 10.4187 3.02204 10.3554 3.13458 10.2427L4.40657 8.9701C4.56256 8.81945 4.6251 8.59636 4.57019 8.38659C4.51529 8.17679 4.35145 8.01298 4.14167 7.95807C3.9319 7.90316 3.70881 7.96571 3.55816 8.12168L2.28557 9.39428C2.05135 9.62858 2.05135 10.0084 2.28557 10.2427C2.39811 10.3554 2.55082 10.4187 2.71008 10.4187ZM13.0694 9.81812C13.0694 9.65888 13.0061 9.50616 12.8934 9.39363L11.6208 8.12162C11.3854 7.89423 11.0112 7.89749 10.7797 8.12894C10.5483 8.36038 10.5451 8.73461 10.7724 8.97003L12.045 10.2426C12.2793 10.4768 12.6591 10.4768 12.8934 10.2426C13.0061 10.1301 13.0694 9.97737 13.0694 9.81812ZM7.2002 11.4L7.2002 9.6C7.2002 9.26862 7.46883 9 7.8002 9C8.13157 9 8.4002 9.26862 8.4002 9.6L8.4002 11.4C8.4002 11.7314 8.13157 12 7.8002 12C7.46883 12 7.2002 11.7314 7.2002 11.4Z">
</path>
</svg>
