<svg xmlns="http://www.w3.org/2000/svg" xmlns:xlink="http://www.w3.org/1999/xlink" width="12" height="12" viewBox="0 0 12 12" fill="none">
<path   fill-rule="evenodd"  fill="#A6A6A6"  d="M3.33333 0L2 0L2 1.99999L0 1.99999L2.66667 4.66667L5.33333 1.99999L3.33333 1.99999L3.33333 0ZM9.99983 0L8.6665 0L8.6665 1.99999L6.6665 1.99999L9.33317 4.66667L11.9998 1.99999L9.99983 1.99999L9.99983 0ZM12 6.66663L0 6.66663L0 5.3333L12 5.3333L12 6.66663ZM5.33333 9.99997L2.66667 7.3333L0 9.99997L2 9.99997L2 12L3.33333 12L3.33333 9.99997L5.33333 9.99997ZM11.9998 9.99997L9.33317 7.3333L6.6665 9.99997L8.6665 9.99997L8.6665 12L9.99983 12L9.99983 9.99997L11.9998 9.99997Z">
</path>
</svg>
