<svg xmlns="http://www.w3.org/2000/svg" xmlns:xlink="http://www.w3.org/1999/xlink" width="24" height="24" viewBox="0 0 24 24" fill="none">
<path   fill-rule="evenodd"  fill="#70BA8D"  d="M17.29 18L20 18C21.3 16.27 22 14.16 22 12C22 6.48 17.52 2 12 2C6.48 2 2 6.48 2 12C2 17.52 6.48 22 12 22L20 22L20 20L12 20C8.14 20 4.82 17.24 4.13 13.44C3.44 9.64 5.56 5.88 9.17 4.52C12.79 3.15 16.86 4.56 18.85 7.87C20.85 11.18 20.19 15.44 17.29 18ZM12 6C13.1 6 14 6.9 14 8C14 9.1 13.1 10 12 10C10.9 10 10 9.1 10 8C10 6.9 10.9 6 12 6ZM10 12C10 13.1 9.1 14 8 14C6.9 14 6 13.1 6 12C6 10.9 6.9 10 8 10C9.1 10 10 10.9 10 12ZM16 10C17.1 10 18 10.9 18 12C18 13.1 17.1 14 16 14C14.9 14 14 13.1 14 12C14 10.9 14.9 10 16 10ZM12 14C13.1 14 14 14.9 14 16C14 17.1 13.1 18 12 18C10.9 18 10 17.1 10 16C10 14.9 10.9 14 12 14Z">
</path>
</svg>
