<svg id="图层_1" data-name="图层 1" xmlns="http://www.w3.org/2000/svg" viewBox="0 0 384 384"><defs><style>.cls-1{fill:#fff;}</style></defs><title>github</title><path class="cls-1" d="M208,392.89V208H592V592H208V416.09c.21,1.2.46,2.4.64,3.61,1.31,8.74,1.88,17.66,4,26.19,17.07,68,59.3,113.37,125,137.24,8.69,3.16,14.54-1.28,14.49-10.52-.05-9-.16-18-.27-27,0-.93-.2-1.87-.3-2.77-4.21.55-8.15,1.19-12.11,1.58-22.35,2.16-44.58-5.88-53.54-30.07a48.14,48.14,0,0,0-20.74-25.27A21.76,21.76,0,0,1,260.3,485c-2.58-2.84-1.94-5.16,1.71-6a21,21,0,0,1,7-.44c12.6,1.64,21.46,9,27.81,19.44,12.92,21.24,33.28,24.15,53.58,16.13a4.09,4.09,0,0,0,2.3-2.48c1.63-8.74,4.94-16.62,11.26-23.06-8.79-1.79-17.38-3.13-25.74-5.34-19.12-5-35.52-14.44-46.66-31.42-8.33-12.71-11.9-27-13.5-41.91-2.54-23.67,1.24-45.48,17.63-63.91a3.85,3.85,0,0,0,.59-3.2c-4.3-12.72-4-25.5-.71-38.33,2.73-10.82,4-11.59,15.12-9.29,13.92,2.88,26.06,9.68,38,17a8.39,8.39,0,0,0,5.77,1,186,186,0,0,1,89.62,0,9.19,9.19,0,0,0,5.81-.93c8-4.07,15.55-9.06,23.79-12.46,6.68-2.76,14.08-3.88,21.23-5.37,2.09-.43,4.6-.58,5.71,2.6,5.14,14.76,6.59,29.65,1.93,44.77-.71,2.29-.19,3.61,1.23,5.27,8.86,10.38,15.07,22.22,16.32,35.85a171.87,171.87,0,0,1,0,30.18C517,448.93,496.52,473.34,462,482.76c-8.93,2.44-18.11,3.91-27.35,5.86,7.59,7.53,10.74,17.07,11.84,27.46a73.09,73.09,0,0,1,.33,7.84c0,16.47-.12,32.93-.12,49.4,0,8.07,5.26,12.07,13.09,10.08a19,19,0,0,0,2.48-.83c7.49-3.05,15.13-5.8,22.44-9.23C560.05,537.89,602.77,455.08,588.45,373,573.73,288.53,501.2,222.39,411.6,217.13c-45.79-2.69-87.8,9-125,36-40.95,29.71-66.44,69.54-75.67,119.48C209.68,379.32,209,386.13,208,392.89Z" transform="translate(-208 -208)"/><path d="M208,392.89c1-6.76,1.68-13.57,2.92-20.28,9.23-49.94,34.72-89.77,75.67-119.48,37.21-27,79.22-38.69,125-36,89.6,5.26,162.13,71.4,176.85,155.84,14.32,82.11-28.4,164.92-103.79,200.37-7.31,3.43-15,6.18-22.44,9.23a19,19,0,0,1-2.48.83c-7.83,2-13.09-2-13.09-10.08,0-16.47.1-32.93.12-49.4a73.09,73.09,0,0,0-.33-7.84c-1.1-10.39-4.25-19.93-11.84-27.46,9.24-1.95,18.42-3.42,27.35-5.86,34.57-9.42,55.06-33.83,58.12-69.56a171.87,171.87,0,0,0,0-30.18c-1.25-13.63-7.46-25.47-16.32-35.85-1.42-1.66-1.94-3-1.23-5.27,4.66-15.12,3.21-30-1.93-44.77-1.11-3.18-3.62-3-5.71-2.6-7.15,1.49-14.55,2.61-21.23,5.37-8.24,3.4-15.81,8.39-23.79,12.46a9.19,9.19,0,0,1-5.81.93,186,186,0,0,0-89.62,0,8.39,8.39,0,0,1-5.77-1c-11.94-7.32-24.08-14.12-38-17-11.09-2.3-12.39-1.53-15.12,9.29-3.25,12.83-3.59,25.61.71,38.33a3.85,3.85,0,0,1-.59,3.2c-16.39,18.43-20.17,40.24-17.63,63.91,1.6,14.95,5.17,29.2,13.5,41.91,11.14,17,27.54,26.37,46.66,31.42,8.36,2.21,16.95,3.55,25.74,5.34-6.32,6.44-9.63,14.32-11.26,23.06a4.09,4.09,0,0,1-2.3,2.48c-20.3,8-40.66,5.11-53.58-16.13-6.35-10.44-15.21-17.8-27.81-19.44a21,21,0,0,0-7,.44c-3.65.79-4.29,3.11-1.71,6a21.76,21.76,0,0,0,4.84,4.09,48.14,48.14,0,0,1,20.74,25.27c9,24.19,31.19,32.23,53.54,30.07,4-.39,7.9-1,12.11-1.58.1.9.29,1.84.3,2.77.11,9,.22,18,.27,27,0,9.24-5.8,13.68-14.49,10.52-65.65-23.87-107.88-69.2-125-137.24-2.14-8.53-2.71-17.45-4-26.19-.18-1.21-.43-2.41-.64-3.61Z" transform="translate(-208 -208)"/></svg>