<svg width="16" height="14" viewBox="0 0 16 14" fill="none" xmlns="http://www.w3.org/2000/svg">
<path d="M8.02333 0.815331H14.192C14.6715 0.815331 15.1314 1.00582 15.4704 1.34488C15.8095 1.68395 16 2.14382 16 2.62333V9.64266C16.0001 9.88015 15.9534 10.1153 15.8626 10.3348C15.7717 10.5542 15.6386 10.7536 15.4707 10.9215C15.3028 11.0895 15.1034 11.2227 14.884 11.3136C14.6646 11.4045 14.4295 11.4513 14.192 11.4513H5.36467L8.02333 0.815331ZM6.90267 2.54866L4.51067 12.118H8.24267L7.97667 13.1847H1.808C1.32849 13.1847 0.868617 12.9942 0.529551 12.6551C0.190485 12.316 0 11.8562 0 11.3767L0 4.35733C0 3.87782 0.190485 3.41795 0.529551 3.07888C0.868617 2.73982 1.32849 2.54933 1.808 2.54933L6.90267 2.54866Z" fill="black"/>
</svg>
