<svg width="12" height="14" viewBox="0 0 12 14" fill="none" xmlns="http://www.w3.org/2000/svg">
<path d="M10.5063 13H7.41885C7.93909 12.5354 8.42964 12.0386 8.8876 11.5125C10.6001 9.54375 11.5063 7.4625 11.5063 5.5C11.5063 4.04131 10.9269 2.64236 9.89544 1.61091C8.86399 0.579463 7.46504 0 6.00635 0C4.54766 0 3.14871 0.579463 2.11726 1.61091C1.08581 2.64236 0.506348 4.04131 0.506348 5.5C0.506348 7.4625 1.4126 9.54375 3.13135 11.5125C3.58766 12.0401 4.07831 12.537 4.6001 13H1.50635C1.37374 13 1.24656 13.0527 1.15279 13.1464C1.05903 13.2402 1.00635 13.3674 1.00635 13.5C1.00635 13.6326 1.05903 13.7598 1.15279 13.8536C1.24656 13.9473 1.37374 14 1.50635 14H10.5063C10.639 14 10.7661 13.9473 10.8599 13.8536C10.9537 13.7598 11.0063 13.6326 11.0063 13.5C11.0063 13.3674 10.9537 13.2402 10.8599 13.1464C10.7661 13.0527 10.639 13 10.5063 13ZM6.00635 3.5C6.40191 3.5 6.78859 3.6173 7.11749 3.83706C7.44639 4.05682 7.70273 4.36918 7.85411 4.73463C8.00548 5.10009 8.04509 5.50222 7.96792 5.89018C7.89075 6.27814 7.70027 6.63451 7.42056 6.91421C7.14086 7.19392 6.78449 7.3844 6.39653 7.46157C6.00857 7.53874 5.60643 7.49913 5.24098 7.34776C4.87553 7.19638 4.56317 6.94004 4.34341 6.61114C4.12365 6.28224 4.00635 5.89556 4.00635 5.5C4.00635 4.96957 4.21706 4.46086 4.59213 4.08579C4.96721 3.71071 5.47591 3.5 6.00635 3.5Z" fill="black"/>
</svg>
