<svg width="14" height="14" viewBox="0 0 14 14" fill="none" xmlns="http://www.w3.org/2000/svg">
<path d="M7 10.3333C7.92222 10.3333 8.70844 10.0111 9.35867 9.36667C10.0089 8.72222 10.3338 7.93333 10.3333 7C10.3333 6.91111 10.3304 6.82222 10.3247 6.73333C10.3189 6.64444 10.3051 6.55556 10.2833 6.46667C10.1611 6.98889 9.88889 7.41956 9.46667 7.75867C9.04445 8.09778 8.55 8.26711 7.98333 8.26667C7.31667 8.26667 6.75556 8.03889 6.3 7.58333C5.84444 7.12778 5.61667 6.56667 5.61667 5.9C5.61667 5.38889 5.76111 4.93044 6.05 4.52467C6.33889 4.11889 6.71667 3.83289 7.18333 3.66667H7C6.06667 3.66667 5.27778 3.99178 4.63333 4.642C3.98889 5.29222 3.66667 6.07822 3.66667 7C3.66667 7.93333 3.98889 8.72222 4.63333 9.36667C5.27778 10.0111 6.06667 10.3333 7 10.3333ZM7.68333 6.66667L8.66667 5.95L9.63333 6.66667L9.25 5.53333L10.2333 4.81667L9.03333 4.83333L8.66667 3.66667L8.3 4.83333L7.08333 4.81667L8.06667 5.53333L7.68333 6.66667ZM4.76667 12.3333H3C2.63333 12.3333 2.31933 12.2027 2.058 11.9413C1.79667 11.68 1.66622 11.3662 1.66667 11V9.23333L0.4 7.95C0.133333 7.69444 0 7.37778 0 7C0 6.62222 0.133333 6.30556 0.4 6.05L1.66667 4.76667V3C1.66667 2.63333 1.79733 2.31933 2.05867 2.058C2.32 1.79667 2.63378 1.66622 3 1.66667H4.76667L6.05 0.4C6.30556 0.133333 6.62222 0 7 0C7.37778 0 7.69444 0.133333 7.95 0.4L9.23333 1.66667H11C11.3667 1.66667 11.6807 1.79733 11.942 2.05867C12.2033 2.32 12.3338 2.63378 12.3333 3V4.76667L13.6 6.05C13.8667 6.30556 14 6.62222 14 7C14 7.37778 13.8667 7.69444 13.6 7.95L12.3333 9.23333V11C12.3333 11.3667 12.2027 11.6807 11.9413 11.942C11.68 12.2033 11.3662 12.3338 11 12.3333H9.23333L7.95 13.6C7.69444 13.8667 7.37778 14 7 14C6.62222 14 6.30556 13.8667 6.05 13.6L4.76667 12.3333Z" fill="black"/>
</svg>
