<svg width="30" height="30" viewBox="0 0 30 30" fill="none" xmlns="http://www.w3.org/2000/svg">
<g id="bxs:barcode">
<path d="M0 0H26C28.2091 0 30 1.79086 30 4V30H10C4.47715 30 0 25.5228 0 20V0Z" fill="white"/>
<path id="Vector" d="M25 5H9C8.46957 5 7.96086 5.21071 7.58579 5.58579C7.21071 5.96086 7 6.46957 7 7V19C7 19.5304 7.21071 20.0391 7.58579 20.4142C7.96086 20.7893 8.46957 21 9 21H25C25.5304 21 26.0391 20.7893 26.4142 20.4142C26.7893 20.0391 27 19.5304 27 19V7C27 6.46957 26.7893 5.96086 26.4142 5.58579C26.0391 5.21071 25.5304 5 25 5ZM13 18H10V8H13V18ZM15 18H14V8H15V18ZM17 18H16V8H17V18ZM21 18H18V8H21V18ZM24 18H22V8H24V18Z" fill="#6B52FF"/>
</g>
</svg>
