<svg width="21" height="22" viewBox="0 0 21 22" fill="none" xmlns="http://www.w3.org/2000/svg">
<g id="bxs:copy">
<path id="Vector" d="M12.25 7.5H3.5C2.53487 7.5 1.75 8.28487 1.75 9.25V18C1.75 18.9651 2.53487 19.75 3.5 19.75H12.25C13.2151 19.75 14 18.9651 14 18V9.25C14 8.28487 13.2151 7.5 12.25 7.5Z" fill="white"/>
<path id="Vector_2" d="M17.5 2.25H8.75C8.28587 2.25 7.84075 2.43437 7.51256 2.76256C7.18437 3.09075 7 3.53587 7 4V5.75H14C14.4641 5.75 14.9092 5.93437 15.2374 6.26256C15.5656 6.59075 15.75 7.03587 15.75 7.5V14.5H17.5C17.9641 14.5 18.4092 14.3156 18.7374 13.9874C19.0656 13.6592 19.25 13.2141 19.25 12.75V4C19.25 3.53587 19.0656 3.09075 18.7374 2.76256C18.4092 2.43437 17.9641 2.25 17.5 2.25Z" fill="white"/>
</g>
</svg>
