<svg width="18" height="18" viewBox="0 0 18 18" fill="none" xmlns="http://www.w3.org/2000/svg">
<path d="M16.4998 2.33332H13.9998V1.49999C13.9998 1.27898 13.912 1.06701 13.7558 0.910734C13.5995 0.754454 13.3875 0.666656 13.1665 0.666656H4.83317C4.61216 0.666656 4.4002 0.754454 4.24392 0.910734C4.08763 1.06701 3.99984 1.27898 3.99984 1.49999V2.33332H1.49984C1.27882 2.33332 1.06686 2.42112 0.910582 2.5774C0.754301 2.73368 0.666504 2.94564 0.666504 3.16666V5.66666C0.666504 9.25832 2.1665 11.425 4.68317 11.5C5.05037 12.135 5.55278 12.6814 6.15476 13.1004C6.75674 13.5195 7.44356 13.801 8.1665 13.925V15.6667H6.49984V17.3333H11.4998V15.6667H9.83317V13.925C10.5561 13.801 11.2429 13.5195 11.8449 13.1004C12.4469 12.6814 12.9493 12.135 13.3165 11.5C15.8165 11.4167 17.3332 9.24999 17.3332 5.66666V3.16666C17.3332 2.94564 17.2454 2.73368 17.0891 2.5774C16.9328 2.42112 16.7208 2.33332 16.4998 2.33332ZM2.33317 5.66666V3.99999H3.99984V9.69166C2.5165 9.06666 2.33317 6.74999 2.33317 5.66666ZM13.9998 9.69166V3.99999H15.6665V5.66666C15.6665 6.74999 15.4832 9.06666 13.9998 9.69166Z" fill="#786CBB"/>
</svg>
