<svg width="13" height="16" viewBox="0 0 13 16" fill="none" xmlns="http://www.w3.org/2000/svg">
<path d="M10.5163 6.18269H9.125V1.80769C9.125 1.32644 8.73125 0.932693 8.25 0.932693H4.75C4.26875 0.932693 3.875 1.32644 3.875 1.80769V6.18269H2.48375C1.705 6.18269 1.31125 7.12769 1.8625 7.67894L5.87875 11.6952C6.22 12.0364 6.77125 12.0364 7.1125 11.6952L11.1288 7.67894C11.68 7.12769 11.295 6.18269 10.5163 6.18269ZM0.375 14.9327C0.375 15.4139 0.76875 15.8077 1.25 15.8077H11.75C12.2312 15.8077 12.625 15.4139 12.625 14.9327C12.625 14.4514 12.2312 14.0577 11.75 14.0577H1.25C0.76875 14.0577 0.375 14.4514 0.375 14.9327Z" fill="white"/>
</svg>
