<svg width="18" height="18" viewBox="0 0 18 18" fill="none" xmlns="http://www.w3.org/2000/svg">
<path d="M8.1665 13.1667H9.83317V8.16667H8.1665V13.1667ZM8.99984 6.5C9.23595 6.5 9.434 6.42 9.594 6.26C9.754 6.1 9.83373 5.90222 9.83317 5.66667C9.83317 5.43055 9.75317 5.2325 9.59317 5.0725C9.43317 4.9125 9.23539 4.83278 8.99984 4.83333C8.76373 4.83333 8.56567 4.91333 8.40567 5.07333C8.24567 5.23333 8.16595 5.43111 8.1665 5.66667C8.1665 5.90278 8.2465 6.10083 8.4065 6.26083C8.5665 6.42083 8.76428 6.50055 8.99984 6.5ZM8.99984 17.3333C7.84706 17.3333 6.76373 17.1144 5.74984 16.6767C4.73595 16.2389 3.854 15.6453 3.104 14.8958C2.354 14.1458 1.76039 13.2639 1.32317 12.25C0.885948 11.2361 0.667059 10.1528 0.666504 9C0.666504 7.84722 0.885393 6.76389 1.32317 5.75C1.76095 4.73611 2.35456 3.85417 3.104 3.10417C3.854 2.35417 4.73595 1.76056 5.74984 1.32333C6.76373 0.886111 7.84706 0.667222 8.99984 0.666666C10.1526 0.666666 11.2359 0.885555 12.2498 1.32333C13.2637 1.76111 14.1457 2.35472 14.8957 3.10417C15.6457 3.85417 16.2396 4.73611 16.6773 5.75C17.1151 6.76389 17.3337 7.84722 17.3332 9C17.3332 10.1528 17.1143 11.2361 16.6765 12.25C16.2387 13.2639 15.6451 14.1458 14.8957 14.8958C14.1457 15.6458 13.2637 16.2397 12.2498 16.6775C11.2359 17.1153 10.1526 17.3339 8.99984 17.3333Z" fill="#3D7CDE"/>
</svg>
