<svg width="20" height="18" viewBox="0 0 20 18" fill="none" xmlns="http://www.w3.org/2000/svg">
<mask id="mask0_243_10264" style="mask-type:luminance" maskUnits="userSpaceOnUse" x="0" y="0" width="20" height="18">
<path d="M7.61829 16.9879C6.23998 16.5764 4.9917 15.815 3.99496 14.7779C4.31566 14.3975 4.51557 13.9301 4.56912 13.4355C4.62267 12.9409 4.52742 12.4415 4.29556 12.0013C4.0637 11.5611 3.70577 11.2001 3.26758 10.9645C2.82939 10.7289 2.33086 10.6294 1.83579 10.6787C1.72301 10.1263 1.66633 9.56383 1.66663 8.99998C1.66663 8.12915 1.79996 7.28915 2.04829 6.49998H2.08329C2.50819 6.50012 2.92611 6.39195 3.2976 6.18571C3.66908 5.97946 3.98187 5.68194 4.20643 5.32122C4.43099 4.96051 4.55991 4.54852 4.58101 4.12415C4.60211 3.69977 4.51471 3.27702 4.32704 2.89581C5.30396 1.98616 6.4854 1.32491 7.77163 0.967896C7.98095 1.3789 8.2999 1.72398 8.69317 1.96496C9.08645 2.20594 9.53872 2.33343 9.99996 2.33331C10.4612 2.33343 10.9135 2.20594 11.3067 1.96496C11.7 1.72398 12.019 1.3789 12.2283 0.967896C13.5145 1.32491 14.696 1.98616 15.6729 2.89581C15.4838 3.27969 15.3965 3.70567 15.4192 4.13296C15.4419 4.56025 15.574 4.97457 15.8026 5.33624C16.0313 5.69791 16.349 5.99484 16.7252 6.1986C17.1015 6.40236 17.5238 6.50613 17.9516 6.49998C18.2054 7.30903 18.3341 8.15208 18.3333 8.99998C18.3333 9.57498 18.275 10.1366 18.1641 10.6791C17.6691 10.6298 17.1705 10.7293 16.7323 10.9649C16.2941 11.2006 15.9362 11.5616 15.7044 12.0017C15.4725 12.4419 15.3772 12.9413 15.4308 13.4359C15.4844 13.9305 15.6843 14.3979 16.005 14.7783C15.0082 15.8153 13.7599 16.5765 12.3816 16.9879C12.2198 16.4834 11.9019 16.0434 11.4739 15.7312C11.0459 15.419 10.5297 15.2508 9.99996 15.2508C9.47017 15.2508 8.95406 15.419 8.52603 15.7312C8.098 16.0434 7.78015 16.4834 7.61829 16.9879Z" fill="white" stroke="white" stroke-width="1.66667" stroke-linejoin="round"/>
<path d="M9.99992 11.9166C10.3829 11.9166 10.7622 11.8411 11.1161 11.6946C11.4699 11.548 11.7915 11.3332 12.0623 11.0623C12.3332 10.7915 12.548 10.4699 12.6946 10.1161C12.8411 9.76221 12.9166 9.38294 12.9166 8.99992C12.9166 8.6169 12.8411 8.23763 12.6946 7.88376C12.548 7.52989 12.3332 7.20836 12.0623 6.93752C11.7915 6.66669 11.4699 6.45185 11.1161 6.30527C10.7622 6.15869 10.3829 6.08325 9.99992 6.08325C9.22637 6.08325 8.48451 6.39054 7.93752 6.93752C7.39054 7.48451 7.08325 8.22637 7.08325 8.99992C7.08325 9.77347 7.39054 10.5153 7.93752 11.0623C8.48451 11.6093 9.22637 11.9166 9.99992 11.9166Z" fill="black" stroke="black" stroke-width="1.66667" stroke-linejoin="round"/>
</mask>
<g mask="url(#mask0_243_10264)">
<path d="M0 -1H20V19H0V-1Z" fill="white"/>
</g>
</svg>
