<svg width="20" height="20" viewBox="0 0 20 20" fill="none" xmlns="http://www.w3.org/2000/svg">
<path d="M10 15.4167C10.3069 15.4167 10.5644 15.3127 10.7724 15.1047C10.9804 14.8967 11.0841 14.6396 11.0833 14.3333C11.0833 14.0264 10.9793 13.7689 10.7713 13.5609C10.5633 13.3529 10.3062 13.2493 10 13.25C9.69306 13.25 9.43558 13.354 9.22758 13.562C9.01958 13.77 8.91595 14.0271 8.91667 14.3333C8.91667 14.6403 9.02067 14.8977 9.22867 15.1058C9.43667 15.3138 9.69378 15.4174 10 15.4167ZM8.91667 11.0833H11.0833V4.58333H8.91667V11.0833ZM5.9375 19.75L0.25 14.0625V5.9375L5.9375 0.25H14.0625L19.75 5.9375V14.0625L14.0625 19.75H5.9375Z" fill="white"/>
</svg>
