<svg width="20" height="18" viewBox="0 0 20 18" fill="none" xmlns="http://www.w3.org/2000/svg">
<mask id="mask0_2058_1065" style="mask-type:luminance" maskUnits="userSpaceOnUse" x="0" y="0" width="20" height="18">
<path d="M16.2502 12.3333H5.41683L3.3335 4H18.3335L16.2502 12.3333Z" fill="white"/>
<path d="M1.25 1.5H2.70833L3.33333 4M3.33333 4L5.41667 12.3333H16.25L18.3333 4H3.33333Z" stroke="white" stroke-width="1.66667" stroke-linecap="round" stroke-linejoin="round"/>
<path d="M5.4165 16.5C6.10686 16.5 6.6665 15.9404 6.6665 15.25C6.6665 14.5596 6.10686 14 5.4165 14C4.72615 14 4.1665 14.5596 4.1665 15.25C4.1665 15.9404 4.72615 16.5 5.4165 16.5Z" stroke="white" stroke-width="1.66667" stroke-linecap="round" stroke-linejoin="round"/>
<path d="M16.25 16.5C16.9404 16.5 17.5 15.9404 17.5 15.25C17.5 14.5596 16.9404 14 16.25 14C15.5596 14 15 14.5596 15 15.25C15 15.9404 15.5596 16.5 16.25 16.5Z" stroke="white" stroke-width="1.66667" stroke-linecap="round" stroke-linejoin="round"/>
</mask>
<g mask="url(#mask0_2058_1065)">
<path d="M0 -1H20V19H0V-1Z" fill="white"/>
</g>
</svg>
