<svg xmlns="http://www.w3.org/2000/svg" xmlns:xlink="http://www.w3.org/1999/xlink" width="18" height="18" viewBox="0 0 18 18" fill="none">
<path   fill-rule="evenodd"  fill="#FFFFFF"  d="M2.25 2.25C1.836 2.25 1.5 2.58594 1.5 2.99997L1.5 16.875L4.84125 14.25L15.75 14.25C16.164 14.25 16.5 13.914 16.5 13.5L16.5 2.99997C16.5 2.58594 16.164 2.25 15.75 2.25L2.25 2.25ZM3 3.75L3 13.7887L4.32228 12.75L15 12.75L15 3.75L3 3.75ZM5.625 8.62877C5.625 9.37501 5.83276 9.8355 6.21901 10.245C6.46199 10.5037 6.84676 10.6875 7.24951 10.6875C7.97401 10.6875 8.562 10.0995 8.562 9.37501C8.562 8.68497 8.02876 8.12925 7.35225 8.06627C7.23075 8.05499 7.10851 8.05802 6.99226 8.07299L6.99225 8.06118C6.99189 7.8045 6.9904 6.74147 8.22151 6.07498L7.88626 5.559C6.54601 6.14026 5.625 7.31623 5.625 8.62877ZM9.375 8.62877C9.375 9.37501 9.58276 9.8355 9.96901 10.245C10.212 10.5037 10.5968 10.6875 10.9995 10.6875C11.724 10.6875 12.312 10.0995 12.312 9.37501C12.312 8.68497 11.7788 8.12925 11.1023 8.06627C10.9807 8.05499 10.8585 8.05802 10.7423 8.07299L10.7423 8.06118C10.7419 7.80449 10.7404 6.74147 11.9715 6.07498L11.6363 5.559C10.296 6.14026 9.375 7.31623 9.375 8.62877Z">
</path>
</svg>
