<svg xmlns="http://www.w3.org/2000/svg" xmlns:xlink="http://www.w3.org/1999/xlink" width="18" height="18" viewBox="0 0 18 18" fill="none">
<path d="M14.7181 9.84226L15.9129 8.666L15.3454 7.08872L15.9129 5.51144L14.7181 4.33518L14.5423 2.66846L12.9563 2.12758L12.0769 0.700452L10.4123 0.901405L9.00001 -5.59578e-17L7.58767 0.901405L5.92317 0.700452L5.04374 2.12755L3.45773 2.66843L3.28192 4.33518L2.0871 5.51144L2.65462 7.08872L2.0871 8.666L3.28192 9.84223L3.4577 11.509L4.33826 11.8093L2.82903 16.5266L5.41273 16.3845L7.43418 18L8.71531 13.9957L9.00001 14.1774L9.2847 13.9957L10.5658 18L12.5872 16.3845L15.1709 16.5266L13.6617 11.8093L14.5422 11.509L14.7181 9.84226ZM6.89583 16.2185L5.75706 15.3084L4.30148 15.3884L5.25822 12.398L5.9231 13.477L7.58764 13.276L7.79489 13.4083L6.89583 16.2185ZM12.243 15.3084L11.1042 16.2185L10.2051 13.4083L10.4123 13.276L12.0768 13.477L12.7418 12.398L13.6985 15.3884L12.243 15.3084ZM13.5632 10.7276L12.2566 11.1732L11.5326 12.348L10.1633 12.1827L9.00001 12.9252L7.83669 12.1827L6.46735 12.348L5.74338 11.1732L4.43676 10.7276L4.29202 9.35535L3.30909 8.38771L3.77649 7.08872L3.30909 5.78973L4.29202 4.82206L4.43676 3.44981L5.74338 3.0042L6.46735 1.82942L7.83665 1.99473L9.00001 1.2523L10.1633 1.99476L11.5327 1.82946L12.2566 3.00427L13.5632 3.44988L13.708 4.82213L14.6909 5.78977L14.2235 7.08876L14.6909 8.38774L13.708 9.35542L13.5632 10.7276Z"   fill="#FFFFFF" >
</path>
<path d="M9 2.98093C6.73496 2.98093 4.89221 4.82367 4.89221 7.08875C4.89221 9.35383 6.73496 11.1965 9 11.1965C11.265 11.1965 13.1078 9.35376 13.1078 7.08872C13.1078 4.82367 11.265 2.98093 9 2.98093ZM9 10.1409C7.31704 10.1409 5.94781 8.77168 5.94781 7.08872C5.94781 5.40572 7.31704 4.03653 9 4.03653C10.683 4.03653 12.0522 5.40575 12.0522 7.08872C12.0522 8.77171 10.683 10.1409 9 10.1409Z"   fill="#FFFFFF" >
</path>
</svg>
