<svg width="500" height="500" viewBox="0 0 500 500" fill="none" xmlns="http://www.w3.org/2000/svg">
<g clip-path="url(#clip0_86_2)">
<rect width="500" height="500" fill="#F5FAFF"/>
<path fill-rule="evenodd" clip-rule="evenodd" d="M149.125 122.6L377.4 350.875C402.14 319.633 414.536 280.389 412.234 240.605C409.931 200.82 393.089 163.269 364.91 135.09C336.731 106.911 299.18 90.0691 259.395 87.7664C219.611 85.4636 180.367 97.8604 149.125 122.6ZM350.875 377.4L122.6 149.125C97.8604 180.367 85.4636 219.611 87.7664 259.395C90.0691 299.18 106.911 336.731 135.09 364.91C163.269 393.089 200.82 409.931 240.605 412.234C280.389 414.536 319.633 402.14 350.875 377.4ZM108.575 108.575C127.147 90.0028 149.196 75.2706 173.461 65.2194C197.727 55.1682 223.735 49.9949 250 49.9949C276.265 49.9949 302.273 55.1682 326.539 65.2194C350.804 75.2706 372.853 90.0028 391.425 108.575C409.997 127.147 424.73 149.196 434.781 173.461C444.832 197.727 450.005 223.735 450.005 250C450.005 276.265 444.832 302.273 434.781 326.539C424.729 350.804 409.997 372.853 391.425 391.425C353.917 428.933 303.045 450.005 250 450.005C196.955 450.005 146.083 428.933 108.575 391.425C71.0668 353.917 49.9949 303.045 49.9949 250C49.9949 196.955 71.0668 146.083 108.575 108.575Z" fill="#DCDADA"/>
</g>
<defs>
<clipPath id="clip0_86_2">
<rect width="500" height="500" fill="white"/>
</clipPath>
</defs>
</svg>
