<svg t="1692171301394" viewBox="0 0 1024 1024" version="1.1" xmlns="http://www.w3.org/2000/svg" width="512" height="512"
    xmlns:xlink="http://www.w3.org/1999/xlink">
    <path
        d="M757.460065 1023.963095a31.35887 31.35887 0 0 1-24.532449-11.519585l-90.876724-109.009405C293.903439 1058.735175 11.673611 760.932575 8.687052 757.73269a31.785521 31.785521 0 0 1-8.533025-24.9591C32.152873 424.731359 156.948376 245.964468 361.527669 41.385175a34.985406 34.985406 0 0 1 5.333141-4.479838c5.546467-3.41321 135.67511-83.836978 298.655903 10.026305A31.145544 31.145544 0 0 1 682.79609 70.184137a204.152642 204.152642 0 0 1-150.821231 227.191812 32.212172 32.212172 0 0 1-26.45238-4.053188 302.495764 302.495764 0 0 1-67.837555-66.130949 478.702747 478.702747 0 0 0-39.465244 240.844653 232.311627 232.311627 0 0 1 152.101184-20.052611c94.076609 18.772657 181.753449 142.714856 259.190659 251.937586 21.332564 29.86559 41.171849 58.024575 58.237901 79.35714 85.330258 106.662822 98.343122 116.049151 124.368851 116.049151a31.998847 31.998847 0 0 1 0 63.997693c-59.517855 0-89.170119-33.705452-174.287052-139.941623-18.346005-23.03917-38.825267-51.838132-60.584483-82.557024-63.997693-89.596771-149.327951-212.259016-219.298763-226.125184a162.554141 162.554141 0 0 0-142.074879 34.132104 31.998847 31.998847 0 0 1-54.39804-15.999424 524.141109 524.141109 0 0 1 69.970812-387.399371 31.998847 31.998847 0 0 1 56.31797 8.533026 195.619616 195.619616 0 0 0 61.011134 81.063745 137.16839 137.16839 0 0 0 91.303376-136.528412 232.311627 232.311627 0 0 0-216.098878-4.90649C210.066461 283.936433 97.857172 444.357318 65.645 725.307192c51.198155 49.704875 286.496341 253.21754 570.859425 111.142661a31.785521 31.785521 0 0 1 38.825267 8.106374l106.662823 127.995387a31.785521 31.785521 0 0 1-4.053188 45.011711 31.145544 31.145544 0 0 1-20.479262 6.39977z">
    </path>
    <path
        d="M992.118275 597.311805a31.572195 31.572195 0 0 1-27.092357-15.146121c-36.905337-58.664552-83.197001-89.810096-137.595041-91.943352a191.99308 191.99308 0 0 0-151.034557 72.95737 31.998847 31.998847 0 1 1-51.198154-38.398616 254.71082 254.71082 0 0 1 205.005944-98.129797c52.691434 2.133256 127.995387 25.172426 189.006522 122.235595a31.785521 31.785521 0 0 1-10.239631 43.945083 30.292242 30.292242 0 0 1-16.852726 4.479838zM439.81818 794.424701a183.033403 183.033403 0 0 1-131.621922-57.171273 31.998847 31.998847 0 0 1 45.225036-45.225037c70.397463 70.397463 151.034556 28.372311 191.993081-2.986559a31.998847 31.998847 0 1 1 38.398616 51.198155 243.191235 243.191235 0 0 1-143.994811 54.184714z">
    </path>
</svg>