<svg id="图层_1" data-name="图层 1" xmlns="http://www.w3.org/2000/svg" viewBox="0 0 512 512"><g class="cls-1"><path d="M67,307H35c-6.25-.77-12.51-1.44-18.73-2.33-51.13-7.33-96.28-27.84-134.83-62.21C-162.79,203-190.43,154-201,95.6c-1.72-9.46-2.68-19.06-4-28.6V35c1.2-8.88,2.12-17.8,3.63-26.63q13.58-79.38,70.12-136.8C-93-167.26-46.88-191.61,6.91-201.07,16.22-202.7,25.63-203.71,35-205H67c8.72,1.14,17.49,2,26.14,3.46,47.9,8.19,90.32,28.17,126.68,60.41,44.76,39.68,72.74,89,83.25,148C304.73,16.2,305.71,25.63,307,35V67c-.78,6.25-1.45,12.52-2.34,18.75-7.3,51.14-27.85,96.29-62.22,134.83C203,264.82,154,292.45,95.57,303,86.12,304.73,76.53,305.69,67,307ZM51-175C-73.5-175-175-73.47-175,51.07-174.94,175.45-73.76,276.73,50.69,277S276.83,175.8,277,51.17,175.65-175,51-175Z" transform="translate(205 205)"/><path d="M51,38H208.45c12.87,0,18.65,6,18.17,18.77-3.07,82.49-57.07,148.54-137,167.55-92.35,22-189-38.29-209.44-131-2.71-12.28-3.72-25-4.73-37.57C-125.46,44.3-119,38-107.46,38Q-28.25,38,51,38ZM-93.72,68.19C-86.52,142.87-19.29,205.86,65,197.94c79.84-7.51,127.06-74.5,130.33-129.75Z" transform="translate(205 205)"/><path d="M173.25-64.16c12.34.12,31.2,7.65,47.16,22.42,7.44,6.89,8.28,16,2.25,22.56s-15,6.35-22.65-.48c-21.91-19.65-51-19.64-73.21.17-4.87,4.34-10.19,6.38-16.48,4.22-5.69-1.95-9-6.2-9.84-12.13-.8-5.57,1.49-10,5.45-13.8C121.39-56.09,141.87-64.26,173.25-64.16Z" transform="translate(205 205)"/><path d="M-61-64.25A81.7,81.7,0,0,1-4.86-42C3-34.89,3.9-25.87-2.31-19.16c-6,6.54-15,6.33-22.64-.52-22-19.64-51.14-19.57-73.24.18-7.4,6.61-16.31,6.81-22.3.5-6.18-6.5-5.46-15.69,1.9-22.54C-102.39-56.6-83.23-64.23-61-64.25Z" transform="translate(205 205)"/></g><path class="cls-2" d="M-719-5" transform="translate(205 205)"/></svg>