<?xml version="1.0" encoding="utf-8"?>
<!-- Generator: Adobe Illustrator 23.0.5, SVG Export Plug-In . SVG Version: 6.00 Build 0)  -->
<svg version="1.1" id="图层_1" xmlns="http://www.w3.org/2000/svg" xmlns:xlink="http://www.w3.org/1999/xlink" x="0px" y="0px"
	 viewBox="0 0 256 256" style="enable-background:new 0 0 256 256;" xml:space="preserve">
<path d="M252.8,146.8c0.2-0.8,0.5-1.6,0.7-2.3c-1.2-0.5-2.5-0.9-3.7-1.4c-4-1.6-8.1-3-12-4.6c-3.9-1.8-7.7-3.6-11.5-5.6
	c-4.5-2.7-8.7-5.8-12.5-9.3c-0.1-0.1-0.2-0.2-0.3-0.3c-0.2-0.2-0.4-0.5-0.5-0.7c-2.6-3.7-5.5-7.7-6.8-12c-0.9-7.2-0.4-14.7,0.1-22.1
	c0-0.5,0.9-1.1,1.9-1.6c4.2-1.1,8.4-2.1,12.4-3.5c0.7-0.2,1.3-0.7,2-1.2c0.3-0.1,0.7-0.2,1-0.3c0.5-0.1,1.1-1.1,1-1.3
	c-0.1-0.2-0.2-0.3-0.3-0.5c0,0,0.1-0.1,0.1-0.1c0.3-0.4-1.1-2.6-2.2-3.1c-8.5-3.7-17.4-6.5-25.6-11c-2.8-2.5-5.4-5.2-7.8-8
	c-2.7-3.1-5.3-6.6-7.4-10.3c-0.6-1.4-1-2.8-1.4-4.2c-1-4-0.4-8.3-0.5-12.5c0-0.4,0-0.8,0-1.2c0.2-1.7,0.5-3.4,0.3-5.1
	c0-0.2-0.2-0.5-0.4-0.7c-0.5-0.6-1.5-1.4-1.9-1.4c-0.1,0-0.1-0.1-0.2-0.1c0,0.1-0.1,0.1-0.1,0.2c-1,0.6-2.2,1.7-2.3,2.8
	c-0.1,0.8-0.2,1.5-0.3,2.1c-2.6,3.2-5.1,7.4-8.4,8.6c-2.7,0.9-5.6,1.6-8.5,2.2c-5.9,0.3-11.8-0.1-17.7,0.1c-4,0.1-7.9,0.4-11.9,0.7
	c-4-0.3-7.9-0.5-11.9-0.7c-5.9-0.2-11.9,0.3-17.7-0.1c-2.9-0.5-5.7-1.2-8.5-2.2c-3.4-1.1-5.8-5.4-8.4-8.6c-0.1-0.7-0.3-1.4-0.3-2.1
	c-0.1-1-1.3-2.2-2.3-2.8c0-0.1-0.1-0.1-0.1-0.2c-0.1,0-0.1,0.1-0.2,0.1c-0.5,0.1-1.5,0.8-1.9,1.4c-0.2,0.2-0.4,0.4-0.4,0.7
	c-0.1,1.7,0.1,3.4,0.3,5.1c0,0.4,0,0.8,0,1.2c0,4.2,0.5,8.6-0.5,12.5c-0.3,1.4-0.8,2.8-1.4,4.2c-2.1,3.7-4.6,7.2-7.4,10.3
	c-2.4,2.8-5,5.5-7.8,8c-8.1,4.4-17,7.3-25.6,11c-1,0.4-2.4,2.7-2.2,3.1c0,0,0.1,0.1,0.1,0.1c-0.1,0.2-0.2,0.4-0.3,0.5
	c-0.1,0.2,0.6,1.1,1,1.3c0.3,0.1,0.7,0.2,1,0.3c0.6,0.5,1.3,1,2,1.2c4.1,1.4,8.3,2.4,12.4,3.5c1.1,0.5,1.9,1.1,1.9,1.6
	c0.4,7.3,1,14.9,0.1,22.1c-1.3,4.2-4.1,8.3-6.8,12c-0.2,0.2-0.3,0.5-0.5,0.7c-0.1,0.1-0.2,0.2-0.3,0.3c-3.8,3.5-8,6.7-12.5,9.3
	c-3.8,1.9-7.7,3.8-11.5,5.6c-4,1.6-8.1,3-12,4.6c-1.2,0.5-2.4,0.9-3.7,1.4c0.3,0.7,0.5,1.5,0.7,2.3c-0.2,0.2-0.5,0.4-0.7,0.5
	c0.4,0.2,0.8,0.5,1.1,0.7c0.3,0.9,0.7,1.6,1.2,1.7c0.8,0.2,1.7,0.5,2.5,0.7c0.9,0.5,1.8,0.9,2.7,1.2c2.6,0.8,5.4,1,8.2,1.4
	c3.3,0.8,6.7,1.5,10,2.4c1.3,0.6,2.3,1.6,2.9,3.4c0,6.2,0.1,12.5,0.1,18.7c-0.3,13.2-0.1,26.5,0.2,39.7c0,3.6,0.1,7.1,0.2,10.7
	c0,0.2,0,0.3,0.1,0.5c0.2,2.1,3.6,5.6,5.5,5.6c7.6,0.1,15.2,0.2,22.7,0.2c21.8,0.1,43.7,0.1,65.5,0.1c0.7,0,1.4,0,2.2,0s1.4,0,2.2,0
	c21.8,0,43.7,0.1,65.5-0.1c7.6,0,15.2-0.1,22.7-0.2c1.9,0,5.3-3.5,5.5-5.6c0-0.2,0.1-0.4,0.1-0.5c0.1-3.6,0.1-7.1,0.2-10.7
	c0.3-13.2,0.4-26.5,0.2-39.7c0-6.2,0-12.5,0.1-18.7c0.6-1.7,1.6-2.7,2.9-3.4c3.3-0.8,6.7-1.6,10-2.4c2.8-0.4,5.6-0.6,8.2-1.4
	c0.9-0.3,1.8-0.7,2.7-1.2c0.8-0.2,1.7-0.5,2.5-0.7c0.5-0.1,0.9-0.8,1.2-1.7c0.4-0.2,0.8-0.5,1.1-0.7
	C253.3,147.2,253,147,252.8,146.8z M204.2,215.5c-0.1-1.3,0-2.7,0-4c0,0,0.1,0,0.1,0c0-1.1,0-2.2-0.1-3.3c0.2-1.1,0.8-3.5,1.5-6.1
	c0.3-0.3,0.6-0.7,0.9-1c0,0,0.1,0,0.1,0c0.3,0.9,0.7,1.7,0.9,2.7c0.2,1.1,0.4,2.2,0.5,3.3c0.4,3,0.7,5.9,0.8,8.9
	c0,1.4-1.9,2.8-3,4.3c-0.6-1.4-1.4-2.7-1.7-4.1C204.3,215.9,204.2,215.7,204.2,215.5z M209.1,195.6c-3.1,0.1-6.2,0.1-9.3,0.1
	c-3.3-0.5-6.8,0-10.2,0c-2.3,0-4.5,0-6.8,0c-12,0-15.1,0-15.8-6.8c-0.2-2.2-0.2-5-0.1-8.7c0-1.1,1.2-2.2,2.2-3.2
	c0.2-0.2,0.4-0.3,0.6-0.5c1.8-1.7,3.8-3.4,5.5-5.3c1.4-1.6,2.7-3.6,4.1-5.4c1.3-1.6,2.6-3.1,4.1-4.1c0.4-0.2,0.7-0.3,1.1-0.4
	c4.3-1.1,9.4-0.5,14,0.9c2.2,1.5,4.1,3.9,5.6,6.1c0,0,0,0,0,0c0.5,1.8,1,3.8,1.8,5.3c0.1,0.2,0.3,0.5,0.4,0.7c0.5,1.8,1,3.3,1.7,3.4
	c0.7,0,1.4,0.1,1.9,0.3c0.1,0.1,0.2,0.3,0.3,0.4c1,1.4,2,3.1,2.4,4.8c0.1,0.3,0.1,0.6,0.2,1c-0.3,1.4-0.5,2.8-0.1,3.9
	c0.3,0.9,0.4,1.9,0.3,2.8C212.5,193.1,211.2,194.7,209.1,195.6z M196.9,219c-0.2,0.4-0.5,0.8-0.7,1.1c-0.8-1.9-1.6-3.9-2.4-5.8
	c0-0.6,0-1.4,0-2.7c0.1,0,0.1,0,0.2-0.1c0-1.1-0.1-2.3-0.1-3.4c0.2-0.9,0.8-3.4,1.5-6c0.3-0.3,0.7-0.7,0.9-1.1c0,0,0,0,0,0
	c0,0,0,0,0.1,0c0.3,0.9,0.7,1.8,0.9,2.7c0.2,1.1,0.4,2.2,0.6,3.4c0.4,2.5,0.6,4.9,0.7,7.4C198.5,216,197.7,217.5,196.9,219z
	 M186,220.1c0,0-0.1,0-0.1,0c-0.2-1-0.5-2-0.5-3c0-4.4,0-8.8,0.2-13.1c0.1-1,1.1-1.8,1.7-2.8c0.1,0,0.1,0,0.2-0.1c0,0,0,0,0,0
	c0.5,0.9,1.2,1.8,1.3,2.7c0.2,2.3,0.1,4.5,0.1,6.8c0.1,0,0.1,0,0.2,0.1c0,1.1,0,2.2,0,3.3C188,216,187,218,186,220.1z M176.6,219.9
	c-0.1,0-0.2,0-0.3,0.1c-0.5-0.8-1.1-1.7-1.1-2.5c-0.1-3.8-0.2-7.7,0.2-11.5c0.2-1.6,1.4-3.2,2.2-4.7c0-0.1,0.1-0.1,0.1-0.2
	c0.3,1.5,0.7,2.9,0.9,4.4c0.2,1.7,0,3.5,0,5.2c0.1,0,0.1,0,0.2,0.1c0,1,0,1.9,0,2.9C178.1,215.8,177.3,217.8,176.6,219.9z
	 M167.4,219.8c-0.3-0.4-0.7-0.7-1.1-1.1c-0.4-0.7-0.8-1.4-1-2.2c0.2-3.5,0.6-7,1-10.5c0.1-0.8,0.2-1.6,0.4-2.4
	c0.2-0.9,1-1.8,1.5-2.6c0,0,0,0,0,0c0,0,0,0,0,0c0.7,2.6,1.5,5.2,1.8,6.2c0,1.2-0.1,2.3-0.1,3.5c0.1,0,0.1,0.1,0.2,0.1
	c0,1.2,0.1,2.2,0.1,3.1C169.3,215.9,168.3,217.8,167.4,219.8z M178,104.7c-1.9,0.4-3.5,0.6-4.8,0.6c-0.7,0-1.5-0.1-2.2-0.3
	c-0.2-0.1-0.5-0.1-0.7-0.2c0,0-0.1,0-0.1,0c-3.9-1.4-4.6-5.8-3.4-11.8c0-0.2,0.1-0.4,0.1-0.6c0,0,0-0.1,0-0.1c0-0.1,0-0.1,0-0.1
	c0.3-1.6,1.1-3.9,1.9-5.6c1.1-1.2,2.5-1.7,4.1-1.4c6.9,1.4,14,2.5,20.9,3.8c0.5,0.1,1.3,0.6,1.6,1c0.1,0.2,0.1,0.4,0.1,0.6
	c0.5,14.1,0.5,14.1-14.5,14.1C180,104.6,179,104.4,178,104.7z M152.4,195.5c-3.4,0.1-6.7,0.1-10.1,0.1c-4.5-0.6-9.3,0-13.9,0
	c-4.6,0-9.4-0.6-13.9,0c-3.4,0-6.7,0-10.1-0.1c-2-0.8-3.4-2.3-4-4.4c0-2.2,0.2-4.4-0.1-6.6c-0.1-0.5-0.1-1-0.2-1.5
	c0-0.3,0.1-0.5,0.1-0.8c0.4-2.2,0.3-4,1.3-5.1c0.4-0.4,1-0.7,1.6-0.9c0.6-0.1,1.4-0.2,2.3-0.1c0.2,0,0.4,0,0.6-0.1
	c0.5,0,1,0.1,1.6,0.2c0.7,0.1,2.7-2.1,2.8-3.3c0-0.7,0.1-1.3,0.1-1.9c0,0,0,0,0-0.1c2.3-3.3,3.4-8.6,6.4-9.9c3.5-1.5,7.5-1.9,11.5-2
	c4,0.1,8.1,0.5,11.5,2c2.9,1.3,4.1,6.6,6.4,9.9c0,0,0,0,0,0.1c0.1,0.6,0.1,1.2,0.1,1.9c0,1.2,2,3.4,2.8,3.3c0.6-0.1,1.1-0.2,1.6-0.2
	c0.2,0.1,0.4,0.1,0.6,0.1c0.9-0.1,1.7,0,2.3,0.1c0.7,0.2,1.2,0.5,1.6,0.9c1,1.1,0.9,2.9,1.3,5.1c0,0.3,0.1,0.6,0.1,0.8
	c0,0.5-0.1,1-0.2,1.5c-0.3,2.2,0,4.4-0.1,6.6C155.8,193.2,154.4,194.7,152.4,195.5z M147,219.7c-0.3-0.4-0.6-0.8-0.9-1.2
	c-0.5-1.1-0.9-2.3-1.1-3.4c0.2-3.2,0.6-6.4,1-9.7c0.1-0.5,0.2-1.1,0.3-1.6c0.2-1,1-1.8,1.5-2.8c0.8,2.6,1.5,5.2,1.8,6.1
	c0,1.1-0.1,2.3-0.1,3.4c0.1,0,0.1,0.1,0.2,0.1c0,1.3,0.1,2.3,0.1,3.2C148.9,215.8,148,217.7,147,219.7z M136.7,219.8
	c-0.2-0.2-0.4-0.4-0.6-0.6c-0.5-1.3-1.1-2.6-1.4-3.8c0.2-3.5,0.7-6.9,1.1-10.4c0.1-0.4,0.2-0.9,0.3-1.3c0.2-0.9,0.9-1.6,1.4-2.4
	c0.8,2.6,1.6,5.1,1.9,5.9c0,1.2,0,2.4,0,3.6c0.1,0,0.1,0,0.2,0.1c0,1.2,0.1,2.2,0.1,3.1C138.7,215.9,137.7,217.9,136.7,219.8z
	 M128.4,218.4c-0.7-1-1.4-1.9-2.1-2.9c0.3-4.5,0.7-9,1.1-13.4c0.1-0.2,0.3-0.3,0.4-0.5c0.2-0.1,0.4-0.3,0.6-0.4
	c0.2,0.1,0.4,0.3,0.6,0.4c0.1,0.2,0.3,0.3,0.4,0.5c0.4,4.5,0.7,9,1.1,13.4C129.8,216.5,129.1,217.4,128.4,218.4z M120.7,219.2
	c-0.2,0.2-0.4,0.4-0.6,0.6c-1-2-1.9-3.9-2.9-5.9c0-0.9,0-1.9,0.1-3.1c0.1,0,0.1,0,0.2-0.1c0-1.2,0-2.4,0-3.6
	c0.3-0.8,1.1-3.3,1.9-5.9c0.5,0.8,1.2,1.5,1.4,2.4c0.1,0.4,0.2,0.9,0.3,1.3c0.4,3.5,0.9,6.9,1.1,10.4
	C121.8,216.7,121.2,218,120.7,219.2z M110.7,218.5c-0.3,0.4-0.6,0.8-0.9,1.2c-0.9-1.9-1.9-3.9-2.8-5.8c0-0.8,0-1.8,0.1-3.2
	c0.1,0,0.1-0.1,0.2-0.1c0-1.1,0-2.2-0.1-3.4c0.3-0.9,1-3.5,1.8-6.1c0.5,0.9,1.4,1.8,1.5,2.8c0.1,0.5,0.2,1.1,0.3,1.6
	c0.4,3.2,0.8,6.4,1,9.7C111.6,216.2,111.2,217.4,110.7,218.5z M154.6,104.6c-3.1,0.1-6.3,0.1-9.4,0.1c-5.5-0.7-11.2,0-16.7,0
	c-5.6,0-11.3-0.7-16.7,0c-3.1,0-6.3,0-9.4-0.1c-1.7-0.7-2.8-1.8-3.4-3.4c0.3-4.4,0.7-8.9,1.1-13.3c0.3-1,0.6-2,0.8-2.9
	c2,0.3,4,0.4,5.9,0.9c2.2,0.7,4.2,2.3,6.5,2.9c4.9,1.4,10,3.5,15,3.2c0.1,0,0.2,0,0.3,0c0.1,0,0.2,0,0.3,0c4.9,0.2,10-1.9,15-3.2
	c2.3-0.6,4.3-2.2,6.5-2.9c1.9-0.6,3.9-0.7,5.9-0.9c0.3,1,0.6,2,0.8,2.9c0.4,4.4,0.8,8.9,1.1,13.3
	C157.3,102.8,156.2,103.9,154.6,104.6z M90.5,218.7c-0.3,0.4-0.7,0.7-1.1,1.1c-1-1.9-1.9-3.9-2.9-5.8c0-0.9,0-1.9,0.1-3.1
	c0.1,0,0.1-0.1,0.2-0.1c0-1.2,0-2.3-0.1-3.5c0.3-1,1-3.6,1.8-6.2c0,0,0,0,0,0c0,0,0,0,0,0c0.5,0.9,1.4,1.7,1.5,2.6
	c0.1,0.8,0.3,1.6,0.4,2.4c0.4,3.5,0.8,7,1,10.5C91.3,217.3,90.9,218,90.5,218.7z M80.2,219.9c-0.7-2.1-1.5-4.2-2.2-6.3
	c0-1,0-1.9,0-2.9c0.1,0,0.1,0,0.2-0.1c0-1.7-0.1-3.5,0-5.2c0.1-1.5,0.6-2.9,0.9-4.4c0,0.1,0.1,0.1,0.1,0.2c0.8,1.6,2,3.1,2.2,4.7
	c0.4,3.8,0.3,7.7,0.2,11.5c0,0.8-0.7,1.7-1.1,2.5C80.4,220,80.3,220,80.2,219.9z M70.9,220.1c-1-2-2-4-3-6.1c0-1.1,0-2.2,0-3.3
	c0.1,0,0.1,0,0.2-0.1c0-2.3-0.1-4.6,0.1-6.8c0.1-0.9,0.8-1.8,1.3-2.7c0,0,0,0,0,0c0.1,0,0.1,0,0.2,0.1c0.7,0.9,1.7,1.8,1.7,2.8
	c0.3,4.4,0.2,8.7,0.2,13.1c0,1-0.3,2-0.5,3C70.9,220.1,70.9,220.1,70.9,220.1z M60.6,220.1c-0.2-0.4-0.4-0.8-0.7-1.1
	c-0.8-1.5-1.6-2.9-1.8-4.4c0.1-2.5,0.4-4.9,0.7-7.4c0.2-1.1,0.4-2.2,0.6-3.4c0.1-0.9,0.6-1.8,0.9-2.7c0,0,0,0,0.1,0c0,0,0,0,0,0
	c0.3,0.4,0.6,0.7,0.9,1.1c0.7,2.5,1.3,5,1.5,6c0,1.1-0.1,2.3-0.1,3.4c0.1,0,0.1,0,0.2,0.1c0,1.2,0.1,2,0,2.7
	C62.2,216.2,61.4,218.2,60.6,220.1z M67.2,195.7c-3.4,0-6.9-0.5-10.2,0c-3.1,0-6.2,0-9.3-0.1c-2.1-0.8-3.4-2.5-3.9-4.9
	c-0.1-1,0-2,0.3-2.8c0.4-1.1,0.1-2.5-0.1-3.9c0.1-0.3,0.1-0.6,0.2-1c0.4-1.7,1.3-3.4,2.4-4.8c0.1-0.1,0.2-0.3,0.3-0.4
	c0.6-0.1,1.2-0.2,1.9-0.3c0.7,0,1.2-1.5,1.7-3.4c0.2-0.2,0.3-0.4,0.4-0.7c0.8-1.5,1.3-3.5,1.8-5.3c0,0,0,0,0,0
	c1.5-2.2,3.4-4.6,5.6-6.1c4.5-1.4,9.7-2,14-0.9c0.4,0.1,0.7,0.2,1.1,0.4c1.5,1,2.9,2.5,4.1,4.1c1.3,1.8,2.6,3.9,4.1,5.4
	c1.7,1.9,3.6,3.5,5.5,5.3c0.2,0.2,0.4,0.3,0.6,0.5c1,1,2.2,2.1,2.2,3.2c0,3.7,0.1,6.6-0.1,8.7c-0.7,6.8-3.8,6.8-15.8,6.8
	C71.7,195.7,69.4,195.7,67.2,195.7z M50.8,220.2c-1-1.4-3-2.9-3-4.3c0.1-3,0.4-5.9,0.8-8.9c0.2-1.1,0.3-2.2,0.5-3.3
	c0.1-0.9,0.6-1.8,0.9-2.7c0,0,0.1,0,0.1,0c0.3,0.3,0.6,0.7,0.9,1c0.6,2.5,1.2,5,1.5,6.1c0,1.1-0.1,2.2-0.1,3.3c0,0,0.1,0,0.1,0
	c0,1.3,0.1,2.7,0,4c0,0.2,0,0.4,0,0.7C52.2,217.6,51.4,218.9,50.8,220.2z M89.9,92.2c0,0.1,0,0.1,0,0.1c0,0,0,0.1,0,0.1
	c0,0.2,0.1,0.4,0.1,0.6c1.1,5.9,0.4,10.4-3.4,11.8c0,0-0.1,0-0.1,0c-0.2,0.1-0.5,0.1-0.7,0.2c-0.7,0.2-1.4,0.2-2.2,0.3
	c-1.4,0-3-0.2-4.8-0.6c-1-0.2-2,0-3.1,0c-15,0-15,0-14.5-14.1c0-0.2,0-0.4,0.1-0.6c0.3-0.4,1.1-0.9,1.6-1c7-1.3,14-2.3,20.9-3.8
	c1.6-0.3,3,0.2,4.1,1.4C88.8,88.3,89.6,90.6,89.9,92.2z"/>
</svg>
