<svg id="Capa_1" enable-background="new 0 0 512 512" height="512" viewBox="0 0 512 512" width="512" xmlns="http://www.w3.org/2000/svg"><g><path d="m497 1h-482c-8.284 0-15 6.716-15 15v480c0 8.284 6.716 15 15 15h482c8.284 0 15-6.716 15-15v-480c0-8.284-6.716-15-15-15zm-467 270h50v50h-50zm0-80h50v50h-50zm50-30h-50v-50h50zm-50 190h50v50h-50zm80-240h292v290h-292zm372 50h-50v-50h50zm0 80h-50v-50h50zm0 80h-50v-50h50zm-50 30h50v50h-50zm50-270h-50v-50h50zm-80 0h-292v-50h292zm-372-50h50v50h-50zm0 400h50v50h-50zm80 0h292v50h-292zm372 50h-50v-50h50z"/><path d="m346.87 172.494c-24.559-24.538-62.407-28.191-90.879-10.337-28.465-17.814-66.302-14.16-90.862 10.338-13.875 13.863-21.517 32.304-21.517 51.924s7.642 38.061 21.513 51.92l80.269 80.268c2.928 2.929 6.767 4.393 10.606 4.393s7.678-1.464 10.606-4.394l80.265-80.264c13.875-13.863 21.517-32.304 21.517-51.924s-7.642-38.061-21.518-51.924zm-21.208 82.631-69.662 69.662-69.666-69.666c-8.204-8.197-12.722-19.1-12.722-30.703s4.518-22.506 12.712-30.693c8.47-8.448 19.606-12.709 30.76-12.709 10.33 0 20.673 3.656 28.92 11.027 5.696 5.092 14.31 5.088 20.002-.009 17.146-15.353 43.353-14.614 59.66 1.681 8.204 8.197 12.722 19.1 12.722 30.703s-4.518 22.506-12.726 30.707z"/></g></svg>