<svg id="_x31__px" enable-background="new 0 0 24 24" height="512" viewBox="0 0 24 24" width="512" xmlns="http://www.w3.org/2000/svg"><path d="m19.964 10h-.214c-.276 0-.5-.224-.5-.5s.224-.5.5-.5h.214c1.225 0 2.261-.876 2.465-2.083l.567-3.356c.004-.337-.22-.561-.496-.561h-2.179c-1.253 0-2.417.676-3.039 1.764l-.848 1.484c-.138.239-.443.323-.682.186-.24-.137-.323-.442-.186-.682l.848-1.484c.799-1.399 2.296-2.268 3.907-2.268h2.179c.827 0 1.5.673 1.5 1.5 0 .073-.005.146-.016.216l-.569 3.367c-.285 1.69-1.736 2.917-3.451 2.917z"/><path d="m4.25 10h-.214c-1.715 0-3.166-1.227-3.452-2.917l-.567-3.355c-.012-.082-.017-.155-.017-.228 0-.827.673-1.5 1.5-1.5h2.179c1.611 0 3.108.869 3.907 2.268l.848 1.484c.137.24.054.545-.186.682s-.545.053-.682-.186l-.848-1.484c-.622-1.088-1.786-1.764-3.039-1.764h-2.179c-.276 0-.5.224-.5.5l.571 3.417c.203 1.207 1.24 2.083 2.465 2.083h.214c.276 0 .5.224.5.5s-.224.5-.5.5z"/><circle cx="9" cy="10" r="1"/><circle cx="15" cy="10" r="1"/><circle cx="13.75" cy="17.75" r=".75"/><circle cx="10.25" cy="17.75" r=".75"/><path d="m13 22h-2c-4.411 0-8-3.589-8-8 0-.338.021-.672.062-.999l.178-1.428c.467-3.747 3.666-6.573 7.442-6.573h2.636c3.776 0 6.976 2.826 7.442 6.573l.178 1.429c.041.327.062.66.062.998 0 4.411-3.589 8-8 8zm-2.318-16c-3.272 0-6.045 2.449-6.45 5.697l-.178 1.428c-.036.287-.054.579-.054.875 0 3.86 3.14 7 7 7h2c3.86 0 7-3.14 7-7 0-.296-.018-.588-.054-.874 0 0 0 0 0-.001l-.178-1.429c-.405-3.247-3.178-5.696-6.45-5.696z"/><path d="m12 22c-2.757 0-5-1.794-5-4s2.243-4 5-4 5 1.794 5 4-2.243 4-5 4zm0-7c-2.206 0-4 1.346-4 3s1.794 3 4 3 4-1.346 4-3-1.794-3-4-3z"/></svg>