<?xml version="1.0" encoding="utf-8"?>
<!-- Generator: Adobe Illustrator 22.1.0, SVG Export Plug-In . SVG Version: 6.00 Build 0)  -->
<svg version="1.1" id="图层_1" xmlns="http://www.w3.org/2000/svg" xmlns:xlink="http://www.w3.org/1999/xlink" x="0px" y="0px"
	 viewBox="0 0 96 96" style="enable-background:new 0 0 96 96;" xml:space="preserve">
<style type="text/css">
	.st0{fill:#FEB501;}
</style>
<title>feed</title>
<path class="st0" d="M93.5,14.2v68c-0.1,0.1-0.1,0.3-0.2,0.5c-0.8,4.7-4.1,8.5-8.6,10.1c-0.9,0.3-1.8,0.5-2.8,0.8H48.5
	c0-4.4,0-8.7,0-13.1c3.9-0.3,6.9-3.7,6.6-7.7c-0.1-3.1-0.6-6.3-1.5-9.3c-1.2-3.5-2.9-6.9-5.1-9.9v-17c0.8,0.6,1.6,1.2,2.4,1.8
	c10.3,8.7,15.9,19.7,16.5,33.3c0,1.1,0.1,2.2,0.3,3.3c0.8,3.8,4.6,6.2,8.4,5.4c3.3-0.7,5.6-3.7,5.5-7c0-3.8-0.3-7.7-1.1-11.4
	c-2.8-14.6-11.1-27.6-23.2-36.3c-2.8-2.1-5.9-3.7-8.9-5.5V2.9h0.9h30.8c5.7,0,10.7,3.6,12.5,9C93.1,12.6,93.3,13.4,93.5,14.2z"/>
<path class="st0" d="M48.5,36.6v17l-0.4-0.5C42,45.2,32.6,40.6,22.6,40.6c-3.9-0.1-7.2,2.9-7.3,6.8c-0.1,3.5,2.3,6.5,5.7,7.2
	c1,0.1,2,0.2,3,0.2c9.4,0.8,16.7,8.5,16.9,17.9c0,4.6,3.5,7.8,7.6,7.6c0,4.4,0,8.7,0,13.1H14.2c-0.2-0.1-0.5-0.1-0.7-0.1
	C7.2,92,2.7,86.4,2.8,79.9c0-21.2,0-42.4,0-63.6c0-1,0.1-1.9,0.3-2.9C4.3,7.2,9.9,2.8,16.2,2.8h23.1c3.1,0,6.1,0,9.2,0
	c0,5.7,0,11.5,0,17.2l-0.7-0.3C39.9,16,31.3,14,22.6,14c-3.9-0.1-7.2,3-7.3,6.9c0,0.5,0,1,0.1,1.5c0.6,3.2,3.3,5.5,6.5,5.7
	c3.1,0.1,6.1,0.4,9.1,0.9C37.4,30.2,43.4,32.8,48.5,36.6z M21.7,81.9c4.3-0.2,7.7-3.8,7.5-8.1c-0.2-4.1-3.5-7.4-7.5-7.5
	c-4.3-0.1-7.9,3.2-8,7.6c-0.1,4.3,3.2,7.9,7.6,8C21.3,81.9,21.5,81.9,21.7,81.9z"/>
</svg>
