<svg id="图层_1" data-name="图层 1" xmlns="http://www.w3.org/2000/svg" viewBox="0 0 86.18 85.95"><defs><style>.cls-1{fill:#05b99b;}.cls-2{fill:#4ff8dc;}</style></defs><title>2</title><path class="cls-1" d="M51.06,8.15C72.54,7.7,91.28,24.44,93.82,46.34,96.31,67.75,81.27,88.68,60.3,93c-25.73,5.28-48.38-11.21-52-37.89h42.8Zm22.08,52c.64,4.63,1.52,10.23-.55,15.7l-1.66.13C70.47,73,70,70.07,69.52,67H60.34c.11,2.09.06,3.89.32,5.65,1,6.6,5,9.57,12.4,9.24,6.72-.31,9.89-3.44,10.21-10.33.15-3.15.16-6.33,0-9.49-.42-8.08-3.9-10.43-11.92-8.25A4.49,4.49,0,0,1,70,53.76v-5H81.74c-.11-2.18-.2-3.78-.28-5.48H61.08V63.07Z" transform="translate(-7.92 -8.02)"/><path class="cls-2" d="M51.06,8.15v47H8.26C5.41,33.63,20.62,12.48,44.11,8.23,46.35,7.82,48.74,8.15,51.06,8.15Z" transform="translate(-7.92 -8.02)"/></svg>