<svg id="图层_1" data-name="图层 1" xmlns="http://www.w3.org/2000/svg" viewBox="0 0 99.81 99.91"><defs><style>.cls-1{fill:#fefefe;}.cls-2{fill:#639ff0;}.cls-3{fill:#c0d8f8;}.cls-4{fill:#c1d8f8;}</style></defs><title>3</title><path class="cls-1" d="M100.84,101H1V1.09h99.81ZM90.92,39Q91,28,91,17c0-3.53-1.56-5.89-5.23-6-8.16-.14-16.32-.1-24.48,0-2.6,0-4.36,1.09-4.32,4.22.1,8.66-.08,17.32.17,26,0,1.25,1.86,2.45,2.86,3.67,8.22,0,16.44-.11,24.65.15C89.16,45.21,91,43.24,90.92,39ZM10,27.94c0,4.17.16,8.34-.05,12.49-.17,3.5,1.21,4.7,4.66,4.62,7.82-.17,15.66-.24,23.47,0,4.22.14,5.8-1.95,5.86-5.56.15-7.65.08-15.31,0-23C44,13,42,11,38.43,11q-12-.06-24,0C11.2,11,9.73,12.52,9.94,16,10.19,19.94,10,24,10,27.94ZM10,75c0,4.16.17,8.33-.05,12.48-.18,3.57,1.33,4.64,4.72,4.57,7.82-.17,15.65-.23,23.47,0,4.23.14,5.75-2,5.81-5.61.13-7.66.07-15.32,0-23,0-3.32-1.75-5.39-5.1-5.44q-12.48-.18-25,0c-2.69,0-4.11,1.43-4,4.45C10.17,66.66,10,70.84,10,75Zm47-.53c0,4.16,0,8.33,0,12.49,0,3.55,1.67,5.09,5.19,5.06,7.66-.07,15.32-.2,23,0,4.22.14,5.74-2,5.79-5.62.13-7.65.09-15.31,0-23,0-3.6-2-5.46-5.59-5.48-7.82,0-15.64,0-23.46,0-3.38,0-5.24,1.17-5,5S57,70.65,57,74.47Z" transform="translate(-1.03 -1.09)"/><path class="cls-2" d="M10,27.94c0-4,.19-8-.06-12C9.73,12.52,11.2,11,14.46,11q12,0,24,0C42,11,44,13,44,16.55c.05,7.66.12,15.32,0,23-.06,3.61-1.64,5.7-5.86,5.56-7.81-.27-15.65-.2-23.47,0-3.45.08-4.83-1.12-4.66-4.62C10.16,36.28,10,32.11,10,27.94Z" transform="translate(-1.03 -1.09)"/><path class="cls-2" d="M10,75c0-4.16.17-8.34-.05-12.49-.16-3,1.26-4.41,4-4.45q12.48-.18,25,0c3.35.05,5.08,2.12,5.1,5.44.05,7.65.11,15.31,0,23-.06,3.6-1.58,5.75-5.81,5.61-7.82-.25-15.65-.19-23.47,0-3.39.07-4.9-1-4.72-4.57C10.17,83.33,10,79.16,10,75Z" transform="translate(-1.03 -1.09)"/><path class="cls-2" d="M57,74.47c0-3.82.2-7.67-.06-11.47s1.59-5,5-5c7.82,0,15.64,0,23.46,0C89,58,90.94,59.89,91,63.49c.07,7.65.11,15.31,0,23,0,3.61-1.57,5.76-5.79,5.62-7.65-.25-15.31-.12-23,0C58.67,92.05,57,90.51,57,87,57,82.8,57,78.63,57,74.47Z" transform="translate(-1.03 -1.09)"/><path class="cls-3" d="M90.92,39c.06,4.25-1.76,6.22-6.27,6.08C76.44,44.81,68.22,45,60,44.92c0-8.78.17-17.58-.07-26.36-.12-4.21,1.65-5.64,5.55-5.58,6.3.09,12.61.13,18.9,0,3.46-.09,4.75,1.31,4.66,4.71-.15,5.8-.16,11.61,0,17.41C89.13,36.4,90.28,37.69,90.92,39Z" transform="translate(-1.03 -1.09)"/><path class="cls-4" d="M90.92,39c-.64-1.3-1.79-2.59-1.83-3.91-.21-5.8-.2-11.61,0-17.41.09-3.4-1.2-4.8-4.66-4.71-6.29.15-12.6.11-18.9,0-3.9-.06-5.67,1.37-5.55,5.58.24,8.78.07,17.58.07,26.36-1-1.22-2.82-2.42-2.86-3.67-.25-8.66-.07-17.32-.17-26,0-3.13,1.72-4.19,4.32-4.22,8.16-.09,16.32-.13,24.48,0,3.67.06,5.24,2.42,5.23,6Q91,28,90.92,39Z" transform="translate(-1.03 -1.09)"/></svg>