<svg id="图层_1" data-name="图层 1" xmlns="http://www.w3.org/2000/svg" viewBox="0 0 87.87 87.92"><defs><style>.cls-1{fill:#ced1fb;}.cls-2{fill:#5153fe;}</style></defs><title>5</title><path class="cls-1" d="M50.2,95C26.55,94.53,6.65,75.58,7,49.21,7.22,26.76,27.58,6.64,50.77,7.08c25.54.48,43.95,18.33,44,44.21C94.91,76,75.85,94.94,50.2,95Zm.4-14c17.59-.07,30.3-13.6,30.08-30.09-.22-17.07-12-29.19-29.86-29.8-17-.59-29.75,14.35-30.07,29.57C20.41,66.71,35.45,82.14,50.6,81Z" transform="translate(-6.95 -7.07)"/><path class="cls-2" d="M50.6,81C35.45,82.14,20.41,66.71,20.75,50.68c.32-15.22,13-30.16,30.07-29.57,17.82.61,29.64,12.73,29.86,29.8C80.9,67.4,68.19,80.93,50.6,81Z" transform="translate(-6.95 -7.07)"/></svg>