<svg id="图层_1" data-name="图层 1" xmlns="http://www.w3.org/2000/svg" viewBox="0 0 100 100"><defs><style>.cls-1{fill:#fdfdfe;}.cls-2{fill:#67a1f0;}.cls-3{fill:#fcfdfe;}.cls-4{fill:#6aa3f1;}</style></defs><title>5</title><path class="cls-1" d="M101,101H1V1H101ZM93,51.25c0-5.83,0-11.66,0-17.5a10.18,10.18,0,0,0-5.28-9.53Q72.38,15.34,57,6.54A10.33,10.33,0,0,0,46,6.61C35.93,12.41,25.8,18.16,15.72,24,11.8,26.29,10,29.8,10,34.4c.06,11.16,0,22.33,0,33.49A11,11,0,0,0,15.82,78.2c9.82,5.64,19.66,11.23,29.45,16.93,4.32,2.51,8.45,2.41,12.74-.08,9.79-5.68,19.66-11.24,29.46-16.91A10.4,10.4,0,0,0,93,68.25C92.9,62.59,93,56.92,93,51.25Z" transform="translate(-1 -1)"/><path class="cls-2" d="M93,51.25c0,5.67-.09,11.34,0,17a10.4,10.4,0,0,1-5.55,9.89C77.67,83.81,67.8,89.37,58,95.05c-4.29,2.49-8.42,2.59-12.74.08-9.79-5.7-19.63-11.29-29.45-16.93A11,11,0,0,1,10,67.89c0-11.16.05-22.33,0-33.49,0-4.6,1.81-8.11,5.73-10.38C25.8,18.16,35.93,12.41,46,6.61A10.33,10.33,0,0,1,57,6.54q15.39,8.82,30.75,17.68A10.18,10.18,0,0,1,93,33.75C93,39.59,93,45.42,93,51.25Zm-7.07-.1c0-4.83-.21-9.67.07-14.48C86.2,33,85,30.8,81.78,29c-8.75-4.82-17.39-9.83-26-14.88a7.42,7.42,0,0,0-8.37,0c-8.58,5.1-17.21,10.13-26,14.91-3.23,1.77-4.4,4-4.34,7.6.15,9.66.2,19.32,0,29-.08,3.69,1.32,5.8,4.43,7.53,9,5,17.84,10.39,26.92,15.28a7.77,7.77,0,0,0,6.3,0c9.38-5,18.64-10.32,27.7-15.91a8.67,8.67,0,0,0,3.35-5.92C86.24,61.51,85.92,56.32,85.92,51.15Z" transform="translate(-1 -1)"/><path class="cls-3" d="M85.92,51.15c0,5.17.32,10.36-.16,15.48a8.67,8.67,0,0,1-3.35,5.92c-9.06,5.59-18.32,10.87-27.7,15.91a7.77,7.77,0,0,1-6.3,0c-9.08-4.89-17.9-10.26-26.92-15.28-3.11-1.73-4.51-3.84-4.43-7.53.23-9.66.18-19.32,0-29-.06-3.57,1.11-5.83,4.34-7.6,8.77-4.78,17.4-9.81,26-14.91a7.42,7.42,0,0,1,8.37,0C64.39,19.21,73,24.22,81.78,29,85,30.8,86.2,33,86,36.67,85.71,41.48,85.92,46.32,85.92,51.15ZM48,54.88c0,3.64-.42,6.69.16,9.53.34,1.68,2.26,3,3.47,4.54,1.18-1.48,3.07-2.83,3.38-4.48.55-3,.15-6.15.15-9.58,3.55,0,6.48.48,9.14-.16,2-.49,3.65-2.42,5.46-3.71-1.87-1.25-3.6-3.14-5.64-3.6-2.76-.63-5.77-.16-9-.16,0-3.71.39-6.59-.13-9.3-.34-1.74-2-3.22-3.06-4.82-1.33,1.56-3.4,2.94-3.8,4.71-.64,2.81-.17,5.86-.17,9.43-3.64,0-6.83-.42-9.83.16-1.73.33-3.16,2.25-4.72,3.46,1.61,1.32,3.06,3.39,4.88,3.81C41.14,55.36,44.23,54.88,48,54.88Z" transform="translate(-1 -1)"/><path class="cls-4" d="M48,54.88c-3.75,0-6.84.48-9.67-.17-1.82-.42-3.27-2.49-4.88-3.81,1.56-1.21,3-3.13,4.72-3.46,3-.58,6.19-.16,9.83-.16,0-3.57-.47-6.62.17-9.43.4-1.77,2.47-3.15,3.8-4.71C53,34.74,54.67,36.22,55,38c.52,2.71.13,5.59.13,9.3,3.19,0,6.2-.47,9,.16,2,.46,3.77,2.35,5.64,3.6-1.81,1.29-3.46,3.22-5.46,3.71-2.66.64-5.59.16-9.14.16,0,3.43.4,6.59-.15,9.58-.31,1.65-2.2,3-3.38,4.48-1.21-1.5-3.13-2.86-3.47-4.54C47.56,61.57,48,58.52,48,54.88Z" transform="translate(-1 -1)"/></svg>