<svg id="图层_1" data-name="图层 1" xmlns="http://www.w3.org/2000/svg" viewBox="0 0 95.96 96.03"><defs><style>.cls-1{fill:#b6dff5;}.cls-2{fill:#c9e7f8;}.cls-3{fill:#1789fb;}.cls-4{fill:#549cfe;}</style></defs><title>userdata</title><path class="cls-1" d="M61.13,98.25H59.44a3.45,3.45,0,0,1-2.1-3.12c-.41-4.22-3-6.78-7.08-7q0-6.27,0-12.54A24.66,24.66,0,0,0,58,74.37,25.35,25.35,0,0,0,75.39,47.2,25.38,25.38,0,0,0,50.24,24.92q0-6.27,0-12.53a7.29,7.29,0,0,0,5.62-2.9A8.38,8.38,0,0,0,57.38,5,2.85,2.85,0,0,1,61,2.31,49.15,49.15,0,0,1,76.66,8.88a3.4,3.4,0,0,1,1,1.26c.65,1.28.09,2.36-.73,3.34a7.62,7.62,0,0,0-2,4.65,7,7,0,0,0,10.25,6.54,23.93,23.93,0,0,0,2.4-1.61,2.64,2.64,0,0,1,4,.82c1.66,3.14,3.26,6.31,4.7,9.56a58.8,58.8,0,0,1,1.92,5.94v1.68a3.32,3.32,0,0,1-2.58,2l-1.39.19a7.09,7.09,0,0,0-6.15,6.91,7,7,0,0,0,6.16,7c1.64.22,3.26.4,4,2.25v1.69a3.75,3.75,0,0,0-.21.5A51,51,0,0,1,92,76.14a4.54,4.54,0,0,1-1.3,1.42c-1.3.84-2.5.36-3.59-.54a8.17,8.17,0,0,0-4-1.93,7,7,0,0,0-8,8,10.6,10.6,0,0,0,2.26,4.44,2.71,2.71,0,0,1-.8,4.19,45.91,45.91,0,0,1-9.47,4.63C65.1,97,63.11,97.62,61.13,98.25Z" transform="translate(-2.29 -2.22)"/><path class="cls-2" d="M50.25,75.57q0,6.27,0,12.54A7.1,7.1,0,0,0,43.16,95a3.51,3.51,0,0,1-2.28,3.28H39.56c-1.34-.39-2.68-.77-4-1.19a53.37,53.37,0,0,1-11-5c-2.27-1.33-2.62-3.12-1-5.17A9.66,9.66,0,0,0,25.18,84a6.58,6.58,0,0,0-1.65-6.91,6.45,6.45,0,0,0-7-1.8A9.86,9.86,0,0,0,13.51,77c-1.85,1.41-3.72,1.22-4.86-.67A51.17,51.17,0,0,1,2.38,61.07a2.91,2.91,0,0,1,2.67-3.69c.53-.05,1.06-.11,1.57-.21a7,7,0,0,0,4.9-10.29A7.32,7.32,0,0,0,5.4,43.13c-2.46-.24-3.54-1.71-2.93-4.1.31-1.21.64-2.41,1-3.6A52.42,52.42,0,0,1,8.43,24.54c1.3-2.22,3.11-2.6,5.1-1A9.24,9.24,0,0,0,16,25a6.6,6.6,0,0,0,7.23-1.32,6.76,6.76,0,0,0,2.1-6.81,7.84,7.84,0,0,0-1.81-3.44c-1.5-1.76-1.21-3.67.69-4.82a51.55,51.55,0,0,1,15-6.2C41.45,1.91,43,3,43.13,5.38a7.19,7.19,0,0,0,7.13,7q0,6.27,0,12.53l0,0a23.57,23.57,0,0,0-12.91,3.55A24.85,24.85,0,0,0,25,49.07,23.3,23.3,0,0,0,28.42,63c5,8.14,12.28,12.36,21.85,12.58Z" transform="translate(-2.29 -2.22)"/><path class="cls-3" d="M50.24,24.92A25.38,25.38,0,0,1,75.39,47.2,25.35,25.35,0,0,1,58,74.37a24.66,24.66,0,0,1-7.72,1.2l0,0V64.33l1.48-.16a14,14,0,0,0-1.48-28V25Z" transform="translate(-2.29 -2.22)"/><path class="cls-4" d="M50.26,64.33v11.2C40.7,75.31,33.4,71.09,28.42,63A23.3,23.3,0,0,1,25,49.07,24.85,24.85,0,0,1,37.35,28.51,23.57,23.57,0,0,1,50.26,25v11.2l-.47,0a14.07,14.07,0,0,0,.47,28.14Z" transform="translate(-2.29 -2.22)"/></svg>