<?xml version="1.0" encoding="utf-8"?>
<!-- Generator: Adobe Illustrator 23.0.5, SVG Export Plug-In . SVG Version: 6.00 Build 0)  -->
<svg version="1.1" id="图层_1" xmlns="http://www.w3.org/2000/svg" xmlns:xlink="http://www.w3.org/1999/xlink" x="0px" y="0px"
	 viewBox="0 0 256 256" style="enable-background:new 0 0 256 256;" xml:space="preserve">
<style type="text/css">
	.st0{fill:#fff;}
</style>
<g>
	<g>
		<path class="st0" d="M3,127.8C3.1,58.9,59.1,3,128.1,3C196.8,3,253,59.1,253,127.4c0,69.9-55.8,125.6-125.8,125.6
			C58.8,252.9,2.9,196.6,3,127.8z M147.2,71.8c2.1,3,3.7,4.9,4.9,7.1c2.9,5.7,7.6,8.6,13.8,10.1c6.3,1.5,12.4,3.5,18.6,5.4
			c5.9,1.8,10,5.5,10.1,12.1c0.2,14.6,0.1,29.3-0.1,43.9c-0.1,6.1-3.7,9.7-9.4,11.5c-6.5,2.1-12.9,4.9-19.5,5.9
			c-10.6,1.6-13.2,10.3-18.4,17.1c0.8,0.5,1,0.8,1.3,0.8c10.5,0,21,0.3,31.5,0c5.1-0.1,10.3-0.6,15.2-1.8
			c12.3-2.8,21.9-13.4,22.4-26.1c0.8-18.1,1.3-36.3,0.7-54.4c-0.5-16.6-8.9-26.8-23.5-30.8c-2-0.6-4.3-0.8-6.4-0.8
			C175.2,71.7,161.7,71.8,147.2,71.8z M109,185.7c-2.6-3.9-4.7-6.7-6.4-9.6c-2.5-4.3-6.1-6.7-10.9-7.9c-6.7-1.7-13.3-4-20-6
			c-7.5-2.3-10.5-6-10.6-13.7c-0.1-13.5-0.1-27,0-40.5c0.1-7.5,3.4-11.7,10.6-13.8c6-1.8,12-4.2,18.2-5.2c10-1.6,13.3-9.6,18.2-16.7
			c-0.9-0.3-1.4-0.6-1.8-0.6c-12.7,0-25.3-0.3-38,0.1c-18.7,0.6-30.8,13.3-31,32.1c-0.2,16.2-0.3,32.3,0,48.5
			c0.4,19.8,11.5,30.9,29.9,33.1C80.6,186.9,94.2,185.7,109,185.7z M98,135.1c20.5,0,40.3,0,60.6,0c0-3.2-0.2-6,0.1-8.8
			c0.5-4.2-1.2-5.3-5.3-5.3c-16.8,0.2-33.6,0.1-50.4,0.1c-1.6,0-3.2,0.2-4.9,0.2C98,126.2,98,130.5,98,135.1z"/>
	</g>
</g>
</svg>
