<?xml version="1.0" encoding="utf-8"?>
<!-- Generator: Adobe Illustrator 23.0.5, SVG Export Plug-In . SVG Version: 6.00 Build 0)  -->
<svg version="1.1" id="图层_1" xmlns="http://www.w3.org/2000/svg" xmlns:xlink="http://www.w3.org/1999/xlink" x="0px" y="0px"
	 viewBox="0 0 256 256" style="enable-background:new 0 0 256 256;" xml:space="preserve">
<style type="text/css">
	.st0{fill:#fff;}
</style>
<g>
	<path class="st0" d="M253.6,127.9c0.3,68.8-55.8,125.7-125.3,125.7c-70.1,0-125.7-56.4-125.8-125.2C2.3,60.1,55.1,2.6,127.7,2.4
		C200.3,2.2,253.5,60.1,253.6,127.9z M112.2,198c14.5,0,29,0.2,43.5,0c23.7-0.3,42-18.4,42.6-42c0.3-11.3,0.1-22.7,0-34
		c0-5.7-2.9-8.6-8.7-8.6c-22.7-0.1-45.3-0.1-68,0c-5.2,0-7.8,2.8-8,8.1c-0.1,3.5,0,7,0,10.5c0,8.4,1.9,10.2,10.3,10.3
		c12.5,0,25,0,37.5,0c6.3,0,8.5,2.4,8.3,8.5c-0.3,11.3-8.1,18.6-20.2,18.7c-18,0.1-36,0-54,0c-7.3,0-8.9-1.6-8.9-8.8
		c0-17.7,0-35.3,0-53c0-15.1,6.4-21.4,21.7-21.4c17.5,0,35,0,52.5,0c9.2,0,18.3,0,27.5,0c7.9,0,9.5-1.6,9.5-9.2c0-3.7,0-7.3,0-11
		c0-6.8-1.3-8.1-8.2-8.1c-27.8,0-55.6-0.1-83.5,0c-28,0.1-48,20.2-48.1,48.2c-0.1,27.3,0,54.6,0,82c0,7.6,2.3,9.8,9.9,9.8
		C82.5,198.1,97.4,198,112.2,198z"/>
</g>
</svg>
