<?xml version="1.0" encoding="utf-8"?>
<!-- Generator: Adobe Illustrator 22.0.0, SVG Export Plug-In . SVG Version: 6.00 Build 0)  -->
<svg version="1.1" id="图层_1" xmlns="http://www.w3.org/2000/svg" xmlns:xlink="http://www.w3.org/1999/xlink" x="0px" y="0px"
	 viewBox="0 0 42 42" style="enable-background:new 0 0 42 42;" xml:space="preserve">
<style type="text/css">
	.st0{fill:#A669F5;}
</style>
<path class="st0" d="M21,7.2C13.4,7.2,7.2,13.4,7.2,21S13.4,34.8,21,34.8S34.8,28.6,34.8,21S28.6,7.2,21,7.2z M21,33.5
	c-6.9,0-12.5-5.6-12.5-12.5S14.1,8.5,21,8.5S33.5,14.1,33.5,21S27.9,33.5,21,33.5z"/>
<path class="st0" d="M21,9.1C14.4,9.1,9.1,14.4,9.1,21c0,6.6,5.3,11.9,11.9,11.9S32.9,27.6,32.9,21C32.9,14.4,27.6,9.1,21,9.1z
	 M14.2,23.9c-1.6,0-2.9-1.3-2.9-2.9c0-1.6,1.3-2.9,2.9-2.9s2.9,1.3,2.9,2.9C17.1,22.6,15.8,23.9,14.2,23.9z M20.9,31
	c-1.6,0-2.9-1.3-2.9-2.9c0-1.6,1.3-2.9,2.9-2.9s2.9,1.3,2.9,2.9C23.8,29.7,22.5,31,20.9,31z M20,21c0-0.6,0.5-1.1,1.1-1.1
	s1.1,0.5,1.1,1.1s-0.5,1.1-1.1,1.1S20,21.6,20,21z M20.9,16.9c-1.6,0-2.9-1.3-2.9-2.9c0-1.6,1.3-2.9,2.9-2.9s2.9,1.3,2.9,2.9
	C23.8,15.5,22.5,16.9,20.9,16.9z M27.9,23.9c-1.6,0-2.9-1.3-2.9-2.9c0-1.6,1.3-2.9,2.9-2.9s2.9,1.3,2.9,2.9
	C30.9,22.6,29.6,23.9,27.9,23.9z"/>
<image style="overflow:visible;" width="1129" height="-273" xlink:href="C30F6A4E.jpg"  transform="matrix(1 0 0 1 -572 183)">
</image>
<image style="overflow:visible;" width="1129" height="-273" xlink:href="C30F6A49.jpg"  transform="matrix(1 0 0 1 -522 150)">
</image>
<rect x="20.6" y="33.5" class="st0" width="14.3" height="1.3"/>
</svg>
