<svg id="图层_1" data-name="图层 1" xmlns="http://www.w3.org/2000/svg" viewBox="0 0 14 14"><defs><style>.cls-1{fill:none;}.cls-2{fill:#a669f5;}</style></defs><polygon class="cls-1" points="6.39 7.03 6.4 7.23 6.4 7.03 6.39 7.03"/><path class="cls-2" d="M4.82,3.76c.31-.14.46-.24.46-.29a3,3,0,0,0,.66-.31,1.18,1.18,0,0,1,.57-.32h.18l0,0a1,1,0,0,1,.61-.26l.14,0a.43.43,0,0,0,.23-.08h.12L8,2.64H8a.28.28,0,0,1,.2-.09l.2,0c0-.06.06-.08.08-.08l0-.35V2.06A2.08,2.08,0,0,0,7.61.86,1.84,1.84,0,0,0,7,.49C6.84.33,6.74.26,6.66.26H6.2c-.5.09-.75.21-.75.34V.66L5.54.8a2.14,2.14,0,0,1,.92.35v.17l-.35.6-.17.32a1.78,1.78,0,0,1-.34.46,10.12,10.12,0,0,1-1,1.17l0,.06C4.74,3.84,4.82,3.79,4.82,3.76Z"/><path class="cls-2" d="M6.29,8.39l0,0V9.93L6.4,10v1.09l-.09.12L6,11.34H5.94l-.09-.06h-.2c-.07,0-.11.07-.11.09-.31,0-.46.07-.46.11v.06a.32.32,0,0,0,.06.17,7.91,7.91,0,0,1,.92,1.21,2.51,2.51,0,0,1,.43.4,2.35,2.35,0,0,1,.54.4h.2s.07,0,.12-.14v-.43a.62.62,0,0,0,.08-.37c0-.06,0-.25,0-.58,0-.11,0-.17.08-.17l-.14-.29v-.26l-.06-.08v-1a3.17,3.17,0,0,0-.14-1V8.55s0,0,0,0l-.81-.14Z"/><path class="cls-2" d="M6.4,7v.2l-.25.25,1-.25V7.06L7.06,7v-.2s0,0,.06,0A1.38,1.38,0,0,1,7.23,6a5.92,5.92,0,0,1,.2-1,5.6,5.6,0,0,0,.43-.74V4.1c0-.14,0-.23-.11-.26a.59.59,0,0,0-.17-.22c-.29-.09-.53-.18-.72-.26h-.2a.39.39,0,0,1-.2.05c-.14,0-.34.14-.61.41a6.68,6.68,0,0,0-.94.46,2.3,2.3,0,0,1-1.09.46H3.24s-.05,0-.06,0v.06l.72.66a.62.62,0,0,0,.49.23h.26a1.77,1.77,0,0,0,.54-.14,4.08,4.08,0,0,0,1.18-.89h.12c0,.35,0,.61,0,.77v.15l-.06.08v1h0V7Z"/><polygon class="cls-2" points="6.31 7.03 6.31 7.23 6.4 7.23 6.39 7.03 6.31 7.03"/><path class="cls-2" d="M6.4,7.23H6.31V7h.08V6.72l-.07,0c-.12,0-.23-.1-.31-.29a3.32,3.32,0,0,1-.75-.29H5a.63.63,0,0,1-.4-.09H4.5a.2.2,0,0,1-.14.06,3,3,0,0,1-.31.49l-.89.49a5.49,5.49,0,0,0-1.35.77,2.07,2.07,0,0,0-.32,0s-.06,0-.09.11,0,.08.12.14a6.14,6.14,0,0,1,.6.46c.17.08.26.14.26.18a1.84,1.84,0,0,1,.46.2h.23c.17-.13.45-.37.83-.72H4v.11a20.5,20.5,0,0,1-1.32,2.19,3.39,3.39,0,0,1-.81.74s-.12.14-.37.32-.35.16-.35.2a.05.05,0,0,0,.06.06h.29a7.07,7.07,0,0,0,.75-.15,2.08,2.08,0,0,1,.57-.28A2.27,2.27,0,0,1,3.53,11c.35-.39.56-.58.63-.58A3.07,3.07,0,0,0,5.05,9a2,2,0,0,1,.23-.64c0-.16.13-.35.4-.57h.2l.27-.27Z"/><path class="cls-2" d="M7.32,8.47a10.13,10.13,0,0,1,1.49.77c.23.13.35.2.35.23A2.54,2.54,0,0,1,9.9,10c0,.12-.34.45-1,1a6.45,6.45,0,0,0-1.09.92v0l0,.06a1.25,1.25,0,0,1,.46-.14.58.58,0,0,1,.25-.15h.06l.15,0s0,0,.17-.08h.8a.87.87,0,0,0,.43-.23l.23,0a.66.66,0,0,0,.38-.15H11l.23.12h.25l.61.43h.17l.09-.06h0l.12.09h.34a0,0,0,0,0,0,0l.32-.17v0l-.2-.35s-.08,0-.12-.14a1.56,1.56,0,0,0-.26-.43.82.82,0,0,1-.31-.23c-.08-.25-.17-.39-.26-.43a2,2,0,0,1-.63-.38c-.12-.19-.21-.28-.29-.28a.58.58,0,0,0-.52-.29h0c0-.06-.06-.11-.2-.17a4.11,4.11,0,0,0-1.23-.72A3,3,0,0,0,8.52,8H8.24C8.13,7.8,8,7.72,8,7.72V7.61H8a4,4,0,0,1,.63-.55L9,7a3.39,3.39,0,0,0,1.17-.84,3.82,3.82,0,0,0,.72-.57V5.48c0-.48-.38-1-1.15-1.46H9.07L9,4.1c.17.23.28.35.34.35v.23l-.37.54A12.09,12.09,0,0,0,7.69,6.77a3.14,3.14,0,0,0-.43.46H7.12l-1,.25-.27.27c0,.06.1.12.29.2h.14v.12a0,0,0,0,1,0,0l-.38.2,0,.06L6,8.32h.23s0,0,.06.07h.07l.81.14s0-.06.06-.06Z"/></svg>