<svg id="图层_1" data-name="图层 1" xmlns="http://www.w3.org/2000/svg" viewBox="0 0 42 42"><defs><style>.cls-1{fill:#a669f5;}</style></defs><path class="cls-1" d="M15.85,23.39l12.38-17a2.41,2.41,0,0,1,2,.09,3.49,3.49,0,0,1,2,2.85l-11,18a5.18,5.18,0,0,1-3.35-1.08A5.47,5.47,0,0,1,15.85,23.39Z"/><path class="cls-1" d="M15.2,24.28c.82.18.3,2.28,1.71,3.3s3.28-.09,3.69.62-1.14,2.79-2.94,4c-3.2,2.21-7.14,1.88-9.32,1.48A4.57,4.57,0,0,0,11.65,32c.68-1.07.14-1.89.61-3.68C12.8,26.14,14.35,24.09,15.2,24.28Z"/></svg>