<svg xmlns="http://www.w3.org/2000/svg" width="42" height="42" viewBox="0 0 42 42">
  <defs>
    <style>
      .cls-1 {
        fill: #bb55e5;
        fill-rule: evenodd;
      }
    </style>
  </defs>
  <path id="形状_1" data-name="形状 1" class="cls-1" d="M17,29L30,5s3.055-3.906,8-1c4.508,2.469,2,8,2,8L27,36l-7,3a2.1,2.1,0,0,1-2,2c-1.867.031-15,0-15,0a2.073,2.073,0,0,1-2-2,2.012,2.012,0,0,1,2-2H17V29ZM30.957,8.418l6.407,3.31s2.9-3.814-.665-5.963S31.04,8.031,30.957,8.418ZM30,11l6,3L25,34l-5,2V30Z"/>
</svg>
