<?xml version="1.0" encoding="utf-8"?>
<!-- Generator: Adobe Illustrator 27.4.1, SVG Export Plug-In . SVG Version: 6.00 Build 0)  -->
<svg version="1.1" id="_图层_1" xmlns="http://www.w3.org/2000/svg" xmlns:xlink="http://www.w3.org/1999/xlink" x="0px" y="0px"
	 viewBox="0 0 420 420" style="enable-background:new 0 0 420 420;" xml:space="preserve">
<style type="text/css">
	.st0{fill:#E86601;}
	.st1{fill:#F6C9A5;}
</style>
<path class="st0" d="M286.4,271.4c-0.1,0.1-0.1,0.1-0.2,0.2c-0.5,0.2-0.8,0.5-1,1c-2.5,2.4-4.9,4.8-7.4,7.2c-0.4,0-0.6,0.2-0.6,0.6
	c-0.1,0.1-0.3,0.3-0.4,0.4c-0.4,0.1-0.7,0.4-0.8,0.8c-2.2,2.2-4.5,4.4-6.7,6.6c-0.4,0-0.6,0.2-0.6,0.6l0,0c-0.6,0.2-1,0.7-1.2,1.2
	c-2.5,2.4-4.9,4.8-7.4,7.2c-0.4,0-0.6,0.2-0.6,0.6c-0.1,0.1-0.1,0.1-0.2,0.2c-0.5,0.2-0.8,0.5-1,1c-2.2,2.2-4.5,4.4-6.7,6.6
	c-0.4,0-0.6,0.2-0.6,0.6l0,0c-0.4,0.1-0.7,0.4-0.8,0.8c-2.6,2.5-5.2,5.1-7.8,7.6c-0.1,0.1-0.1,0.1-0.2,0.2c-0.3,0.3-0.6,0.5-0.8,0.8
	c-0.3,0.1-0.6,0.3-0.6,0.6c-2.2,2.1-4.4,4.2-6.5,6.4c-0.4,0.1-0.7,0.4-0.8,0.8c-2.4,2.3-4.8,4.7-7.1,7c-0.5,0.1-0.9,0.5-1,1
	c-0.1,0.1-0.3,0.3-0.4,0.4c-0.2,0-0.4,0.1-0.4,0.4c-0.3,0.3-0.5,0.6-0.8,0.8c-0.2,0-0.4,0.2-0.4,0.4c-2,1.9-3.9,3.8-5.9,5.8
	c-0.7,0.3-1.1,0.8-1.4,1.4l0,0c-0.2,0-0.4,0.2-0.4,0.4c-1.5,1.5-3,3-4.6,4.5c-1.2,0.7-2,1.6-2.8,2.7l0,0c-0.6,0.2-1,0.7-1.2,1.2
	c-2.3,2.3-4.6,4.6-7.1,6.7c-1.3,1.1-2.7,1.9-4.4,2.3c-1.7,0.4-2.9-0.3-4.1-1.6c-1.7-2-0.6-3.8,0-5.7c0.4-1.4,0.7-2.9,1-4.3
	c0.7-2.8,1.6-5.5,2.3-8.2c0.6-2.1,1.4-4.2,1.8-6.4c0.4-2.3,1.2-4.4,1.7-6.6c0.8-3.6,1.8-7.2,2.9-10.7c2-6.2,3.4-12.5,5.3-18.7
	c0.2-0.8,0.1-1.1-0.6-1.5c-36.2-21.1-72.5-42.3-108.7-63.4c-2.9-1.7-5.9-3.4-9.1-4.6c-0.2-0.1-0.5-0.2-0.8-0.3
	c-1.7-0.8-3.3-1.6-3.7-3.7c-0.2-1.3,0.2-2.5,0.7-3.7c0,0,0.1-0.1,0.1-0.1c0.2-0.1,0.4-0.2,0.3-0.5c0,0,0.1-0.1,0.1-0.1
	c0.2-0.1,0.4-0.2,0.3-0.5c0.2-0.3,0.4-0.6,0.7-1c0.3-0.1,0.4-0.3,0.4-0.6c0,0,0,0,0,0c0.2-0.1,0.4-0.2,0.3-0.5c0,0,0.1-0.1,0.1-0.1
	c0.2-0.1,0.4-0.2,0.3-0.5c0,0,0.1-0.1,0.1-0.1c0.2-0.1,0.4-0.2,0.3-0.5c0.9-1.3,1.8-2.6,2.7-3.9c0.1,0,0.2,0,0.3-0.1
	c1.2-1.7,2.5-3.3,3.6-5c0.7-1,1.4-2,1.8-3.1l0,0c0.8-0.6,1.3-1.5,1.7-2.4c1.1-1.6,2.2-3.2,3.3-4.9c0.2-0.1,0.4-0.2,0.3-0.5
	c0.6-0.9,1.3-1.9,1.9-2.8c0.3,0,0.4-0.2,0.4-0.5c0.5-0.7,1-1.5,1.5-2.2c0.2-0.1,0.4-0.2,0.3-0.5c0,0,0.1-0.1,0.1-0.1
	c0.2-0.1,0.4-0.2,0.3-0.5c0.2-0.3,0.4-0.6,0.7-1c0.7-0.3,0.9-1,1.2-1.7c0,0,0.1-0.1,0.1-0.1c0.2-0.1,0.4-0.2,0.3-0.5
	c0.4-0.5,0.7-1.1,1.1-1.6c0.5-0.2,0.6-0.6,0.8-1.1c0.5-0.7,1-1.5,1.5-2.2c0.5-0.3,0.8-0.8,0.9-1.3l0,0c1-0.9,1.8-2,2.2-3.3
	c0.3-0.4,0.6-0.9,0.9-1.3c0.2-0.1,0.4-0.2,0.3-0.5c0.5-0.7,1-1.5,1.5-2.2c0.2-0.1,0.4-0.2,0.3-0.5c0,0,0.1-0.1,0.1-0.1
	c0.2-0.1,0.4-0.2,0.3-0.5c0.4-0.5,0.7-1.1,1.1-1.6c0.5-0.2,0.6-0.6,0.8-1.1c0.5-0.7,1-1.5,1.5-2.2c0.5-0.2,0.7-0.6,0.8-1.1
	c0.4-0.5,0.7-1.1,1.1-1.6c0.7-0.6,1.3-1.2,1.5-2.1c0-0.1,0.1-0.1,0.1-0.1c1.3-1.4,2.6-2.9,3.3-4.7c0,0,0.1-0.1,0.1-0.1
	c0.2-0.1,0.4-0.2,0.3-0.5c0.2-0.3,0.4-0.6,0.7-1c0.2-0.1,0.4-0.2,0.3-0.5c0,0,0.1-0.1,0.1-0.1c0.2-0.1,0.4-0.2,0.3-0.5
	c0,0,0.1-0.1,0.1-0.1c0.2-0.1,0.4-0.2,0.3-0.5c0,0,0.1-0.1,0.1-0.1c0.2-0.1,0.4-0.2,0.3-0.5c0.2-0.3,0.4-0.6,0.7-1
	c0.2-0.1,0.4-0.2,0.4-0.5c0,0,0.1-0.1,0.1-0.1c0.2-0.1,0.4-0.2,0.3-0.5c0.5-0.7,1-1.5,1.5-2.2c0.2-0.1,0.4-0.2,0.4-0.5
	c0,0,0.1-0.1,0.1-0.1c0.2-0.1,0.4-0.2,0.3-0.5c0.3-0.4,0.6-0.8,0.8-1.2c0.6-0.3,0.8-0.9,1-1.4c0.4-0.6,0.8-1.2,1.2-1.8
	c0.4-0.2,0.7-0.6,0.7-1.1c0.6-0.9,1.2-1.7,1.8-2.6c0.5-0.3,0.9-0.7,0.9-1.3l0,0c0.7-0.4,1.1-1.1,1.2-1.8l0,0
	c0.3-0.1,0.5-0.3,0.4-0.6c0.4-0.5,0.7-1.1,1.1-1.6c0.3-0.1,0.3-0.2,0.3-0.5l0,0c0.3-0.1,0.5-0.3,0.4-0.6c0.4-0.5,0.7-1.1,1.1-1.6
	c0.2-0.1,0.4-0.2,0.3-0.5c0,0,0.1-0.1,0.1-0.1c0.2-0.1,0.4-0.2,0.4-0.5c0,0,0.1-0.1,0.1-0.1c0.2-0.1,0.4-0.2,0.3-0.5
	c0.4-0.5,0.7-1.1,1.1-1.6c0.3-0.1,0.3-0.2,0.3-0.5l0,0c0.3-0.1,0.5-0.3,0.4-0.6c0.3-0.4,0.6-0.8,0.8-1.2c0.3,0,0.4-0.2,0.6-0.5
	c0.8-1.2,1.7-2.3,2.5-3.6c0.8-1.3,2-2.4,2.5-4c0,0,0.1-0.1,0.1-0.1c0.2-0.1,0.4-0.2,0.3-0.5c1.1-1.6,2.2-3.2,3.4-4.9
	c0.3-0.1,0.4-0.3,0.4-0.6l0,0c0.2-0.1,0.4-0.2,0.3-0.5c1.1-1.6,2.2-3.3,3.3-4.9c0.3,0,0.4-0.2,0.4-0.4c0.4-0.5,0.7-1.1,1.1-1.6
	c0.5-0.2,0.7-0.6,0.8-1.1c0,0,0.1-0.1,0.1-0.1c0.2-0.1,0.4-0.2,0.3-0.5c0.4-0.5,0.7-1.1,1.1-1.6c0.3-0.1,0.6-0.3,0.5-0.7
	c0.6-0.8,1.2-1.7,1.8-2.6c0.2-0.1,0.4-0.2,0.5-0.4c1.7-2.4,3.3-4.8,4.9-7.2c0.3-0.5,1-0.8,0.9-1.5c0,0,0.1-0.1,0.1-0.1
	c0.3-0.1,0.4-0.3,0.4-0.6l0,0c0.2-0.1,0.4-0.2,0.3-0.5c0.2-0.3,0.4-0.7,0.7-1c0.3-0.1,0.4-0.3,0.4-0.6l0,0c0.2-0.1,0.4-0.2,0.3-0.5
	c0.5-0.7,1-1.5,1.5-2.2c0.2-0.1,0.4-0.2,0.3-0.5c0,0,0.1-0.1,0.1-0.1c0.2-0.1,0.4-0.2,0.3-0.5c0.4-0.6,0.8-1.2,1.2-1.8
	c0.5-0.1,0.5-0.5,0.6-0.8c0,0,0.1-0.1,0.1-0.1c0.2-0.1,0.4-0.2,0.3-0.5c0.4-0.5,0.7-1.1,1.1-1.6c0.6-0.5,1.2-1.1,1.3-1.9l0,0
	c0.9-0.8,1.6-1.9,2.1-3c0.4-0.5,0.7-1.1,1.1-1.6c0.3-0.1,0.4-0.3,0.4-0.6c0.1-0.1,0.1-0.2,0.2-0.2c0.8-0.6,1.3-1.4,1.6-2.3
	c0.5-0.7,1-1.5,1.5-2.2c0.2-0.1,0.4-0.2,0.4-0.5c0,0,0.1-0.1,0.1-0.1c0.2-0.1,0.4-0.2,0.3-0.5c0.4-0.5,0.7-1,1.1-1.6
	c0.3-0.1,0.4-0.3,0.4-0.6l0,0c0.2,0,0.4-0.2,0.3-0.5c0,0,0.1-0.1,0.1-0.1c0.2-0.1,0.4-0.2,0.3-0.5c0.4-0.5,0.7-1,1.1-1.6
	c0.3-0.1,0.5-0.3,0.7-0.6c1.7-2.4,3.4-4.8,5.1-7.3c0.8-1.1,1.7-2.2,2.1-3.5c0.2-0.4,0.5-0.8,0.8-1.1c0.3-0.1,0.4-0.3,0.4-0.6l0,0
	c0.2,0,0.4-0.2,0.3-0.5c0.2-0.3,0.4-0.7,0.7-1c0.9-0.7,1.4-1.5,1.8-2.5c0,0,0.1-0.1,0.1-0.1c0.2-0.1,0.4-0.2,0.3-0.5
	c0,0,0.1-0.1,0.1-0.1c0.2-0.1,0.4-0.2,0.3-0.5c0,0,0.1-0.1,0.1-0.1c0.2-0.1,0.4-0.2,0.3-0.5c0.2-0.3,0.4-0.7,0.7-1
	c0.5-0.2,0.8-0.6,0.8-1.1c0,0,0.1-0.1,0.1-0.1c0.2-0.1,0.4-0.2,0.3-0.5c0,0,0.1-0.1,0.1-0.1c0.2-0.1,0.4-0.2,0.3-0.5
	c0.2-0.3,0.4-0.7,0.7-1c0.4-0.1,0.7-0.4,0.8-0.8c0.3-0.3,0.6-0.5,0.9-0.6c0.2,0.2,0.4,0,0.5-0.2c0.1,0,0.1,0,0.2,0
	c0.2,0.2,0.5,0.2,0.7,0c0.4,0.1,0.9,0.2,1.3,0.4c0.1,0.2,0.2,0.4,0.5,0.3c2.2,2.5,2.5,5.5,2.5,8.6c0,0.6,0,1.2,0,1.8
	c-0.3,0.2-0.2,0.6-0.2,0.9c-0.1,1.4-0.2,2.8-0.3,4.2c-0.5,6.1-0.9,12.2-1.4,18.3c-0.2,3.3-0.4,6.5-0.7,9.8c-0.3,4.2-0.7,8.4-1,12.7
	c-0.3,4.2-0.6,8.5-0.9,12.8c-0.3,4.6-0.7,9.1-1,13.7c-0.2,2.2-0.3,4.4-0.5,6.6c-0.4,5-0.7,10-1.1,15c-0.2,3.3-0.5,6.5-0.7,9.8
	c-0.2,2.6-0.4,5.3-0.5,7.9c0.1,0.1,0.1,0.2,0.2,0.4c-0.1,0.1-0.2,0.1-0.2,0.2c-0.3,3.4-0.5,6.7-0.8,10.1c0,0.1,0.2,0.2,0.3,0.3l0,0
	c0.2,0.4,0.5,0.6,0.9,0.4c0.1,0,0.2,0,0.3,0.1c0.3,0.3,0.7,0.5,1.1,0.4c0.1,0,0.2,0,0.3,0.1c0.3,0.3,0.7,0.5,1.1,0.4
	c0.1,0,0.2,0,0.3,0.1c1.5,0.7,3.2,1.1,4.8,1.4c0.1,0,0.2,0,0.3,0.1c1.3,0.6,2.7,1,4.2,1.2c0.1,0,0.2,0,0.3,0.1
	c0.3,0.3,0.7,0.5,1.1,0.4c0.1,0,0.2,0,0.3,0.1c0.3,0.3,0.7,0.5,1.1,0.4c0.1,0,0.2,0,0.3,0.1c0.3,0.3,0.7,0.5,1.1,0.4
	c0.1,0,0.2,0,0.3,0.1c0.1,0.1,0.2,0.3,0.4,0.4c2,0.5,3.9,1.3,5.9,1.5c1.3,0.4,2.6,0.7,3.9,1.1c0.1,0.2,0.3,0.3,0.6,0.2
	c0.3,0.1,0.6,0.2,0.9,0.2c0.1,0.2,0.3,0.3,0.6,0.2c0.5,0.1,1,0.3,1.5,0.4c0.1,0.2,0.3,0.4,0.5,0.2c0.1,0,0.2,0,0.3,0.1
	c0.3,0.3,0.7,0.5,1.1,0.4c0.1,0,0.2,0,0.3,0.1c0.3,0.3,0.7,0.5,1.1,0.4c0.1,0,0.2,0,0.3,0.1c0.6,0.5,1.3,0.6,2,0.6
	c0.1,0,0.2,0,0.3,0.1c0.3,0.3,0.7,0.5,1.1,0.3c0.1,0,0.2,0,0.3,0.1c0.3,0.3,0.7,0.5,1.1,0.4c0.1,0,0.2,0,0.3,0.1
	c0.3,0.3,0.7,0.5,1.1,0.4c0.1,0,0.2,0,0.3,0.1c0.3,0.3,0.7,0.5,1.1,0.4c0.1,0,0.2,0,0.3,0.1c0.3,0.3,0.7,0.5,1.1,0.4
	c0.1,0,0.2,0,0.3,0.1c1.5,0.7,3.1,1.1,4.8,1.4c0.1,0,0.2,0,0.3,0.1c0.3,0.3,0.7,0.5,1.1,0.4c0.1,0,0.2,0,0.3,0.1
	c0.9,0.5,1.8,0.8,2.8,0.8c0.1,0,0.2,0,0.3,0.1c0.3,0.3,0.7,0.5,1.1,0.4c0.1,0,0.2,0,0.3,0.1c0.3,0.3,0.7,0.5,1.1,0.3
	c0.1,0,0.2,0,0.3,0.1c0.6,0.4,1.2,0.8,2,0.6c0.1,0,0.3,0.1,0.4,0.1c0.3,0.3,0.6,0.4,1,0.3c0.1,0,0.2,0.1,0.4,0.1
	c0.3,0.3,0.6,0.4,1.1,0.3c0.1,0,0.2,0.1,0.4,0.1c0.3,0.3,0.6,0.4,1,0.3c0.1,0,0.2,0,0.3,0.1c0.3,0.3,0.7,0.5,1.1,0.4
	c0.1,0,0.2,0,0.3,0.1c0.3,0.3,0.7,0.5,1.1,0.4c0.1,0,0.2,0,0.3,0.1c0.3,0.3,0.7,0.5,1.1,0.4c0.1,0,0.2,0,0.3,0.1
	c0.1,0.2,0.3,0.4,0.5,0.2c0.1,0,0.2,0,0.3,0.1c0.3,0.3,0.7,0.4,1.2,0.4c0.1,0,0.2,0.1,0.4,0.1c0.3,0.3,0.6,0.4,1,0.3
	c0.1,0,0.2,0,0.3,0.1c0.3,0.3,0.7,0.5,1.1,0.4c0.1,0,0.2,0,0.3,0.1c0.3,0.3,0.7,0.5,1.1,0.4c0.1,0,0.2,0,0.3,0.1
	c0.3,0.3,0.7,0.5,1.1,0.4c0.1,0,0.2,0,0.3,0.1c1,0.6,2.2,0.9,3.4,1c0.1,0,0.2,0,0.3,0.1c0.8,0.5,1.7,0.7,2.6,0.8
	c0.1,0,0.2,0,0.3,0.1c0.3,0.3,0.7,0.5,1.1,0.4c0.1,0,0.2,0,0.3,0.1c1.5,0.7,3.2,1.1,4.8,1.4c0.1,0,0.2,0,0.3,0.1
	c0.3,0.3,0.7,0.5,1.1,0.4c0.1,0,0.2,0,0.3,0.1c0.3,0.3,0.7,0.5,1.1,0.4c0.1,0,0.2,0,0.3,0.1c1.6,0.8,3.4,1.1,5.2,1.7
	c0.1,0,0.3-0.1,0.5-0.1c0.1,0,0.2,0,0.3,0.1c0.1,0.2,0.3,0.4,0.5,0.2c0.1,0,0.2,0,0.3,0.1c0.3,0.3,0.7,0.5,1.1,0.4
	c0.1,0,0.2,0,0.3,0.1c0.3,0.3,0.7,0.5,1.1,0.4c0.1,0,0.2,0,0.3,0.1c0.3,0.3,0.7,0.5,1.1,0.4c0.1,0,0.2,0,0.3,0.1
	c0.3,0.3,0.7,0.5,1.1,0.4c0.1,0,0.2,0,0.3,0.1c0.3,0.3,0.7,0.5,1.1,0.4c0.1,0,0.2,0,0.3,0.1c0.3,0.3,0.7,0.5,1.1,0.3
	c0.1,0,0.2,0,0.3,0.1c0.6,0.5,1.2,0.6,2,0.6c0.1,0,0.2,0,0.3,0.1c0.3,0.3,0.7,0.4,1.2,0.4c0.1,0,0.2,0.1,0.4,0.1
	c0.3,0.3,0.6,0.4,1,0.3c0.1,0,0.2,0,0.3,0.1c0.3,0.3,0.7,0.5,1.1,0.4c0.1,0,0.2,0,0.3,0.1c0.3,0.3,0.7,0.5,1.1,0.4
	c0.1,0,0.2,0,0.3,0.1c1.5,0.7,3.2,1.1,4.8,1.4c0.1,0,0.2,0,0.3,0.1c0.3,0.3,0.7,0.5,1.1,0.4c0.1,0,0.2,0,0.3,0.1
	c0.3,0.3,0.7,0.5,1.1,0.4c0.1,0,0.2,0,0.3,0.1c0.3,0.3,0.7,0.5,1.1,0.4c0.1,0,0.2,0,0.3,0.1c1.5,0.7,3.2,1.1,4.8,1.4
	c0.1,0,0.2,0,0.3,0.1c0.6,0.5,1.4,0.5,2.1,0.7c1.2,0.3,2.3,0.9,3.6,0.9c0.4,0.1,0.9,0.3,1.3,0.4c0.1,0.3,0.4,0.4,0.6,0.4l0,0
	c0,0.3,0.3,0.4,0.5,0.4l0,0.1c0,0.3,0.1,0.5,0.4,0.5l0,0c0,0.3,0,0.5,0.3,0.6c0,0.1,0,0.2,0.1,0.3c0,0.6,0,1.1,0,1.6
	c0,0.1,0,0.2-0.1,0.3c-0.3,0.1-0.3,0.4-0.3,0.7c-0.2,0.3-0.4,0.5-0.6,0.8c-0.5,0.2-0.8,0.5-1,1c-2.1,2.1-4.2,4.1-6.3,6.2
	c-0.5,0.1-0.7,0.4-0.8,0.8c-0.2,0.2-0.4,0.4-0.6,0.6c-0.3,0-0.4,0.1-0.4,0.4c-0.1,0.1-0.3,0.3-0.4,0.4c-0.5,0.2-0.8,0.5-1,1
	c-2,2-4.1,4-6.1,6c-1,0.2-1.3,1.1-1.9,1.8c-2.2,2.1-4.4,4.2-6.5,6.4c-0.5,0.1-0.7,0.4-0.8,0.8c-0.1,0.1-0.3,0.3-0.4,0.4
	c-0.3,0-0.4,0.1-0.4,0.4c-0.2,0.2-0.4,0.4-0.6,0.6c-0.4,0.1-0.7,0.4-0.8,0.8c-2,2-4.1,4-6.1,6c-0.7,0.4-1.3,0.9-1.7,1.6
	c-2.2,2.2-4.5,4.4-6.7,6.6c-0.8,0.4-1.4,1.1-1.9,1.8c-2.4,2.3-4.8,4.7-7.1,7c-0.9,0.5-1.5,1.2-2.1,2c-2.2,2.1-4.4,4.3-6.5,6.4
	C286.6,270.9,286.4,271.1,286.4,271.4L286.4,271.4z"/>
<path class="st0" d="M162.5,377.7c0-0.2,0-0.4-0.1-0.6c0.2-0.4,0.2-0.8-0.1-1.1c0-0.2,0-0.4-0.1-0.5c0.2-0.5,0.2-1-0.2-1.5
	c0-0.1,0-0.2,0-0.4c0.2-0.5,0.2-0.9-0.1-1.3c0-0.2,0-0.4-0.1-0.5c0.2-0.5,0.2-0.9-0.1-1.3c0-0.2,0-0.4-0.1-0.5
	c0.2-0.5,0.2-0.9-0.1-1.3c0-0.2,0-0.4-0.1-0.5c0.2-0.5,0.2-1-0.2-1.5c0-0.1,0-0.2,0-0.4c0.2-0.5,0.2-0.9-0.1-1.3
	c0-0.2,0-0.4-0.1-0.5c0.2-0.5,0.2-1-0.2-1.5c0-0.1,0-0.2,0-0.4c0.2-0.5,0.2-0.9-0.1-1.3c0-0.2,0-0.4-0.1-0.5c0.3-0.4,0.1-0.7,0-1.1
	c-0.3-1.5,0.3-2.3,1.7-2.8c0.5-0.1,1,0,1.4-0.3c0.1,0,0.2,0,0.4,0c0.1,0.2,0.3,0.2,0.5,0.3c2.4,0.8,4.7,1.7,7,2.5
	c2.1,0.7,4.1,1.7,6.3,2.2c1.4,0.5,2.8,1,4.2,1.5c1.9,0.7,2.2,1.5,1.7,3.9c-0.3,0.1-0.5,0.3-0.5,0.7c-0.4,0.4-0.9,0.9-1.3,1.3
	c-1.4,0.8-2.5,2.1-3.6,3.4c-0.7,0.7-1.3,1.3-2,2c-1.1,0.5-1.8,1.5-2.5,2.3c-0.6,0.6-1.2,1.2-1.8,1.8c-1.1,0.6-2,1.5-2.7,2.6
	c-0.7,0.7-1.5,1.4-2.2,2.1c-0.5,0-0.7,0.4-0.9,0.7c-0.6,0.6-1.3,0.9-2.1,0.7c-0.9-0.3-1.3-1.1-1.3-2.1c0-0.1-0.1-0.2-0.1-0.3
	c0.4-0.4,0.3-0.7,0-1c0-0.2,0-0.4-0.1-0.6c0.2-0.3,0.2-0.6-0.1-0.9l-0.1-0.8C162.8,378.6,162.8,378.1,162.5,377.7L162.5,377.7z"/>
<path class="st1" d="M209.8,156.3c0.1-2.6,0.3-5.3,0.5-7.9c0.3-3.3,0.5-6.5,0.7-9.8c0.4-5,0.7-10,1.1-15c0.2-2.2,0.3-4.4,0.5-6.6
	c0.3-4.6,0.7-9.1,1-13.7c0.3-4.2,0.6-8.5,0.9-12.8c0.3-4.2,0.7-8.4,1-12.7c0.2-3.3,0.4-6.5,0.7-9.8c0.4-6.1,0.9-12.2,1.4-18.3
	c0.1-1.4,0.2-2.8,0.3-4.2c0-0.3-0.1-0.6,0.2-0.9c0.2,0.9,0,1.9,0,2.8c-0.1,2.5-0.4,4.9-0.6,7.4c-0.3,3.6-0.5,7.2-0.8,10.8
	c-0.2,2.2-0.3,4.4-0.4,6.6c-0.4,4.2-0.6,8.5-0.9,12.7c-0.2,2.2-0.3,4.4-0.5,6.6c-0.2,3.5-0.5,7.1-0.8,10.6c-0.2,2.3-0.3,4.7-0.4,7
	c-0.4,4.2-0.6,8.3-0.9,12.5c-0.2,2.3-0.3,4.5-0.5,6.8c-0.2,3.5-0.5,6.9-0.8,10.4c-0.2,2.2-0.3,4.5-0.4,6.7
	c-0.1,3.4-0.6,6.7-0.6,10.1C210.2,156,210.2,156.2,209.8,156.3L209.8,156.3z"/>
<path class="st1" d="M202.4,47c-0.5,1.3-1.4,2.4-2.1,3.5c-1.7,2.4-3.4,4.8-5.1,7.3c-0.2,0.2-0.4,0.5-0.7,0.6c-0.2-0.5,0.2-0.7,0.4-1
	c2.2-3.2,4.4-6.4,6.6-9.6C201.8,47.4,201.9,47,202.4,47z"/>
<path class="st1" d="M177.8,361.7c-2.2-0.5-4.2-1.5-6.3-2.2c-2.4-0.8-4.7-1.7-7-2.5c-0.2-0.1-0.4-0.1-0.5-0.3
	c0.4-0.1,0.8,0.1,1.2,0.2c4,1.4,7.9,2.9,11.9,4.3C177.4,361.3,177.7,361.4,177.8,361.7z"/>
<path class="st1" d="M95.2,202.4c-0.4,1.1-1.1,2.1-1.8,3.1c-1.1,1.7-2.4,3.4-3.6,5c-0.1,0.1-0.2,0.1-0.3,0.1c-0.1-0.4,0.2-0.7,0.4-1
	c1.6-2.3,3.1-4.5,4.7-6.8C94.7,202.6,94.8,202.4,95.2,202.4L95.2,202.4z"/>
<path class="st1" d="M154.3,116.7c-0.4,1.6-1.6,2.7-2.5,4c-0.8,1.2-1.7,2.4-2.5,3.6c-0.2,0.2-0.3,0.5-0.6,0.5
	c-0.1-0.3,0.1-0.6,0.3-0.8c1.6-2.3,3.1-4.6,4.7-6.8C153.9,116.9,153.9,116.7,154.3,116.7L154.3,116.7z"/>
<path class="st1" d="M174.3,87.6c0.1,0.7-0.6,1.1-0.9,1.5c-1.6,2.4-3.3,4.8-4.9,7.2c-0.1,0.2-0.3,0.2-0.5,0.4
	c-0.2-0.3,0.1-0.5,0.2-0.7c1.8-2.7,3.7-5.3,5.5-8C173.9,87.8,174,87.5,174.3,87.6z"/>
<path class="st1" d="M209.3,167.2c-0.1-0.1-0.3-0.2-0.3-0.3c0.2-3.4,0.5-6.7,0.8-10.1c0-0.1,0.1-0.1,0.2-0.2
	c-0.1,2.4-0.1,4.8-0.5,7.1C209.3,164.9,209.6,166.1,209.3,167.2L209.3,167.2z"/>
<path class="st1" d="M233.6,174.2c-2.1-0.1-4-0.9-5.9-1.5c-0.1,0-0.2-0.2-0.4-0.4c1.6,0,3.1,0.7,4.6,1.1
	C232.5,173.7,233.2,173.6,233.6,174.2L233.6,174.2z"/>
<path class="st1" d="M127.4,155.7c-0.7,1.8-2,3.3-3.3,4.7C124.9,158.6,126.1,157.1,127.4,155.7z"/>
<path class="st1" d="M163.6,356.6c-0.4,0.3-0.9,0.1-1.4,0.3c-1.4,0.5-2,1.3-1.7,2.8c0.1,0.4,0.3,0.7,0,1.1c-1-2.5,0.1-4.4,2.5-4.3
	C163.3,356.4,163.5,356.4,163.6,356.6L163.6,356.6z"/>
<path class="st1" d="M307.2,194.9c-0.2,0-0.3,0.1-0.5,0.1c-1.7-0.6-3.5-0.9-5.2-1.7c1.3-0.1,2.5,0.5,3.7,0.9
	C305.9,194.4,306.7,194.3,307.2,194.9L307.2,194.9z"/>
<path class="st1" d="M178.4,372.4c1.1-1.2,2.1-2.5,3.6-3.4C180.9,370.3,179.9,371.6,178.4,372.4z"/>
<path class="st1" d="M345.2,205.6c-1.3,0-2.4-0.6-3.6-0.9c-0.7-0.2-1.5-0.2-2.1-0.7c1.4,0,2.7,0.6,4,0.9
	C344,205.1,344.8,205,345.2,205.6L345.2,205.6z"/>
<path class="st1" d="M329.8,201.3c-1.7-0.2-3.3-0.7-4.8-1.4C326.6,200.1,328.3,200.5,329.8,201.3z"/>
<path class="st1" d="M339.2,204c-1.7-0.2-3.3-0.6-4.8-1.4C336.1,202.7,337.7,203.2,339.2,204z"/>
<path class="st1" d="M298.4,192.5c-1.7-0.2-3.3-0.6-4.8-1.4C295.2,191.3,296.9,191.7,298.4,192.5z"/>
<path class="st1" d="M259,181.4c-1.7-0.2-3.3-0.6-4.8-1.4C255.9,180.2,257.5,180.6,259,181.4z"/>
<path class="st1" d="M218.2,169.9c-1.7-0.2-3.3-0.6-4.8-1.4C215.1,168.7,216.7,169.1,218.2,169.9z"/>
<path class="st1" d="M207.7,348.3c0.8-1,1.6-2,2.8-2.7C209.8,346.8,209,347.8,207.7,348.3z"/>
<path class="st1" d="M169.4,381c0.7-1.1,1.6-2,2.7-2.6C171.4,379.5,170.5,380.4,169.4,381z"/>
<path class="st1" d="M113.8,175.3c-0.5,1.3-1.2,2.4-2.2,3.3C112,177.3,112.8,176.2,113.8,175.3z"/>
<path class="st1" d="M222.7,171.2c-1.5-0.2-2.9-0.6-4.2-1.2C220,170.1,221.4,170.4,222.7,171.2z"/>
<path class="st1" d="M173.9,376.7c0.8-0.9,1.5-1.8,2.5-2.3C175.7,375.3,175,376.2,173.9,376.7z"/>
<path class="st1" d="M185.6,71.2c-0.5,1.2-1.2,2.2-2.1,3C184,73,184.6,72,185.6,71.2z"/>
<path class="st1" d="M206.3,41.2c-0.4,1-0.9,1.9-1.8,2.5C204.8,42.7,205.4,41.9,206.3,41.2z"/>
<path class="st1" d="M83.7,219.1c-0.6,1.2-0.9,2.4-0.7,3.7C82.3,221.7,82.7,219.7,83.7,219.1z"/>
<path class="st1" d="M289,189.8c-1.2-0.1-2.3-0.4-3.4-1C286.8,188.9,287.9,189.1,289,189.8z"/>
<path class="st1" d="M328.9,230c0.5-0.7,0.9-1.6,1.9-1.8C330.4,229.1,329.8,229.8,328.9,230z"/>
<path class="st1" d="M293.6,264.5c0.5-0.8,1.2-1.5,2.1-2C295.3,263.4,294.6,264.1,293.6,264.5z"/>
<path class="st1" d="M96.8,200c-0.4,0.9-0.9,1.8-1.7,2.4C95.5,201.4,95.9,200.5,96.8,200z"/>
<path class="st1" d="M188.9,66.5c-0.3,0.9-0.8,1.7-1.6,2.3C187.6,67.8,188,67,188.9,66.5z"/>
<path class="st1" d="M124.1,160.6c-0.2,0.9-0.8,1.6-1.5,2.1C122.7,161.8,123.2,161,124.1,160.6z"/>
<path class="st1" d="M263.5,182.6c-1,0-1.9-0.3-2.8-0.8C261.8,181.8,262.7,182,263.5,182.6z"/>
<path class="st1" d="M302.8,255.4c0.5-0.8,1-1.4,1.9-1.8C304.4,254.5,303.8,255.2,302.8,255.4z"/>
<path class="st1" d="M183.5,74.2c-0.1,0.8-0.7,1.4-1.3,1.9C182.3,75.3,182.8,74.7,183.5,74.2z"/>
<path class="st1" d="M311.4,247c0.4-0.7,0.9-1.3,1.7-1.6C312.8,246.3,312.3,246.8,311.4,247z"/>
<path class="st1" d="M291.8,190.6c-0.9-0.1-1.8-0.2-2.6-0.8C290.2,189.9,291.1,190,291.8,190.6z"/>
<path class="st1" d="M106.9,185.4c-0.3,0.7-0.4,1.4-1.2,1.7C105.8,186.4,106.2,185.8,106.9,185.4z"/>
<path class="st1" d="M215.5,340.7c0.3-0.6,0.8-1.1,1.4-1.4C216.7,340.1,216.3,340.6,215.5,340.7z"/>
<path class="st1" d="M141.5,135.1c-0.2,0.8-0.5,1.4-1.2,1.8C140.4,136.2,140.8,135.6,141.5,135.1z"/>
<path class="st1" d="M268.7,184.1c-0.8,0.2-1.4-0.2-2-0.6C267.4,183.4,268.1,183.6,268.7,184.1z"/>
<path class="st1" d="M318.9,198.2c-0.7,0-1.4-0.1-2-0.6C317.7,197.6,318.4,197.7,318.9,198.2z"/>
<path class="st1" d="M267.3,290.1c0.2-0.6,0.7-1,1.2-1.2C268.5,289.6,268.1,290,267.3,290.1z"/>
<path class="st1" d="M206.4,349.6c0.3-0.5,0.6-1,1.2-1.2C207.6,349.1,207.2,349.5,206.4,349.6z"/>
<path class="st1" d="M246.7,177.9c-0.7,0-1.4-0.1-2-0.6C245.5,177.3,246.2,177.3,246.7,177.9z"/>
<path class="st1" d="M140.3,137c0,0.6-0.4,1.1-0.9,1.3C139.4,137.7,139.6,137.2,140.3,137z"/>
<path class="st1" d="M135.6,143.8c-0.2,0.6-0.4,1.1-1,1.4C134.7,144.6,134.9,144,135.6,143.8z"/>
<path class="st1" d="M162.1,374c0.4,0.5,0.3,1,0.2,1.5C161.9,375,162,374.5,162.1,374z"/>
<path class="st1" d="M111.6,178.6c-0.1,0.6-0.4,1-0.9,1.3C110.7,179.3,110.9,178.8,111.6,178.6z"/>
<path class="st1" d="M160.8,362.9c0.4,0.5,0.3,1,0.2,1.5C160.6,364,160.8,363.4,160.8,362.9z"/>
<path class="st1" d="M161.2,366.6c0.4,0.5,0.3,1,0.2,1.5C161.1,367.6,161.2,367.1,161.2,366.6z"/>
<path class="st1" d="M164.3,102.2c-0.1,0.5-0.2,0.9-0.8,1.1C163.5,102.7,163.8,102.3,164.3,102.2z"/>
<path class="st1" d="M258.1,299.1c0.2-0.5,0.5-0.8,1-1C259.1,298.7,258.8,299.1,258.1,299.1z"/>
<path class="st1" d="M285.2,272.7c0.2-0.5,0.5-0.8,1-1C286.2,272.3,285.8,272.7,285.2,272.7z"/>
<path class="st1" d="M224.9,331.5c0.2-0.5,0.5-0.9,1-1C225.9,331.1,225.6,331.5,224.9,331.5z"/>
<path class="st1" d="M346.5,212.8c0.2-0.5,0.5-0.8,1-1C347.5,212.4,347.1,212.8,346.5,212.8z"/>
<path class="st1" d="M336.9,222.2c0.2-0.5,0.5-0.8,1-1C337.9,221.9,337.5,222.2,336.9,222.2z"/>
<path class="st1" d="M160.7,361.3c0.3,0.4,0.4,0.8,0.1,1.3C160.4,362.2,160.6,361.7,160.7,361.3z"/>
<path class="st1" d="M161.7,370.5c0.3,0.4,0.3,0.8,0.1,1.3C161.5,371.4,161.6,370.9,161.7,370.5z"/>
<path class="st1" d="M209,37.3c0,0.5-0.3,0.9-0.8,1.1C208.2,37.9,208.5,37.5,209,37.3z"/>
<path class="st1" d="M161.9,372.3c0.3,0.4,0.3,0.8,0.1,1.3C161.7,373.2,161.8,372.8,161.9,372.3z"/>
<path class="st1" d="M161.5,368.6c0.3,0.4,0.3,0.8,0.1,1.3C161.3,369.5,161.4,369.1,161.5,368.6z"/>
<path class="st1" d="M348.5,210c0-0.6,0-1.1,0-1.6C349,208.9,349,209.5,348.5,210z"/>
<path class="st1" d="M161.1,365c0.3,0.4,0.3,0.8,0.1,1.3C160.9,365.9,161,365.4,161.1,365z"/>
<path class="st1" d="M162.5,377.7c0.4,0.4,0.4,0.8,0.1,1.3C162.3,378.6,162.4,378.1,162.5,377.7z"/>
<path class="st1" d="M137.6,140.9c0,0.5-0.3,0.9-0.7,1.1C136.9,141.5,137,141,137.6,140.9z"/>
<path class="st1" d="M109.2,182.1c-0.1,0.4-0.3,0.9-0.8,1.1C108.3,182.6,108.6,182.3,109.2,182.1z"/>
<path class="st1" d="M121.4,164.3c-0.1,0.5-0.3,0.9-0.8,1.1C120.6,164.8,120.9,164.5,121.4,164.3z"/>
<path class="st1" d="M119.2,167.6c-0.1,0.4-0.3,0.9-0.8,1.1C118.4,168.1,118.6,167.7,119.2,167.6z"/>
<path class="st1" d="M166.3,383.9c0.2-0.4,0.4-0.7,0.9-0.7C167.1,383.6,166.8,383.9,166.3,383.9z"/>
<path class="st1" d="M162.9,381.2c0.3,0.3,0.5,0.7,0,1C162.7,381.9,162.8,381.5,162.9,381.2z"/>
<path class="st1" d="M162.3,376c0.3,0.3,0.3,0.7,0.1,1.1C162.1,376.8,162.2,376.4,162.3,376z"/>
<path class="st1" d="M211.3,34.3c-0.1,0.4-0.4,0.7-0.8,0.8C210.4,34.6,210.7,34.3,211.3,34.3z"/>
<path class="st1" d="M233.1,323.5c0.1-0.4,0.4-0.7,0.8-0.8C233.9,323.3,233.7,323.6,233.1,323.5z"/>
<path class="st1" d="M249.9,307.1c0.1-0.4,0.4-0.7,0.8-0.8C250.8,306.9,250.5,307.1,249.9,307.1z"/>
<path class="st1" d="M276,281.7c0.1-0.4,0.4-0.7,0.8-0.8C276.8,281.4,276.5,281.7,276,281.7z"/>
<path class="st1" d="M319.2,239.4c0.1-0.4,0.4-0.7,0.8-0.8C320.1,239.2,319.8,239.5,319.2,239.4z"/>
<path class="st1" d="M321.5,237.2c0.1-0.4,0.4-0.7,0.8-0.8C322.3,236.9,322,237.2,321.5,237.2z"/>
<path class="st1" d="M339.3,219.8c0.1-0.4,0.4-0.7,0.8-0.8C340.2,219.5,339.9,219.8,339.3,219.8z"/>
<path class="st1" d="M274.4,185.7c-0.5,0.1-0.8,0-1.1-0.4C273.7,185.2,274.1,185.3,274.4,185.7z"/>
<path class="st1" d="M309.5,195.6c-0.5,0.1-0.8-0.1-1.1-0.4C308.8,195,309.2,195.1,309.5,195.6z"/>
<path class="st1" d="M243,176.9c-0.5,0.1-0.8-0.1-1.1-0.4C242.4,176.4,242.7,176.5,243,176.9z"/>
<path class="st1" d="M244.4,177.3c-0.5,0.2-0.8,0-1.1-0.4C243.8,176.8,244.2,176.9,244.4,177.3z"/>
<path class="st1" d="M332.6,202.1c-0.5,0.1-0.8-0.1-1.1-0.4C332,201.6,332.3,201.7,332.6,202.1z"/>
<path class="st1" d="M248.1,178.3c-0.4,0.1-0.8-0.1-1.1-0.3C247.5,177.8,247.9,177.9,248.1,178.3z"/>
<path class="st1" d="M249.6,178.8c-0.5,0.1-0.8-0.1-1.1-0.4C248.9,178.2,249.3,178.3,249.6,178.8z"/>
<path class="st1" d="M224.1,171.6c-0.5,0.1-0.8,0-1.1-0.4C223.5,171,223.9,171.1,224.1,171.6z"/>
<path class="st1" d="M251,179.1c-0.5,0.1-0.8-0.1-1.1-0.4C250.3,178.6,250.7,178.7,251,179.1z"/>
<path class="st1" d="M252.4,179.6c-0.5,0.2-0.8-0.1-1.1-0.4C251.8,179,252.2,179.1,252.4,179.6z"/>
<path class="st1" d="M253.9,179.9c-0.5,0.2-0.8,0-1.1-0.4C253.2,179.4,253.6,179.5,253.9,179.9z"/>
<path class="st1" d="M225.6,172c-0.5,0.1-0.8,0-1.1-0.4C224.9,171.4,225.3,171.5,225.6,172z"/>
<path class="st1" d="M260.5,181.8c-0.5,0.1-0.8-0.1-1.1-0.4C259.8,181.3,260.2,181.4,260.5,181.8z"/>
<path class="st1" d="M213.1,168.5c-0.5,0.2-0.8,0-1.1-0.4C212.4,168,212.8,168.1,213.1,168.5z"/>
<path class="st1" d="M211.6,168.1c-0.5,0.1-0.8-0.1-1.1-0.4C211,167.5,211.4,167.6,211.6,168.1z"/>
<path class="st1" d="M265,183.1c-0.5,0.1-0.8,0-1.1-0.4C264.3,182.5,264.7,182.6,265,183.1z"/>
<path class="st1" d="M266.4,183.4c-0.5,0.1-0.8,0-1.1-0.3C265.7,182.9,266.1,183.1,266.4,183.4z"/>
<path class="st1" d="M285.3,188.8c-0.5,0.1-0.8,0-1.1-0.4C284.6,188.2,285,188.4,285.3,188.8z"/>
<path class="st1" d="M270.1,184.5c-0.4,0.1-0.8,0-1-0.3C269.5,183.9,269.9,184.1,270.1,184.5z"/>
<path class="st1" d="M271.5,184.9c-0.4,0.1-0.8,0-1.1-0.3C270.9,184.3,271.3,184.5,271.5,184.9z"/>
<path class="st1" d="M334.1,202.5c-0.5,0.2-0.8,0-1.1-0.4C333.4,202,333.8,202.1,334.1,202.5z"/>
<path class="st1" d="M273,185.3c-0.4,0.1-0.7,0-1-0.3C272.4,184.7,272.7,184.9,273,185.3z"/>
<path class="st1" d="M331.2,201.7c-0.5,0.1-0.8-0.1-1.1-0.4C330.5,201.2,330.9,201.3,331.2,201.7z"/>
<path class="st1" d="M324.6,199.9c-0.5,0.1-0.8,0-1.1-0.4C324,199.3,324.3,199.4,324.6,199.9z"/>
<path class="st1" d="M275.8,186.1c-0.5,0.1-0.8,0-1.1-0.4C275.2,185.6,275.5,185.7,275.8,186.1z"/>
<path class="st1" d="M277.3,186.5c-0.5,0.1-0.8,0-1.1-0.4C276.6,186,277,186.1,277.3,186.5z"/>
<path class="st1" d="M323.2,199.4c-0.5,0.1-0.8-0.1-1.1-0.4C322.5,198.9,322.9,199,323.2,199.4z"/>
<path class="st1" d="M279.5,187.2c-0.5,0.1-0.8-0.1-1.2-0.4C278.9,186.6,279.3,186.7,279.5,187.2z"/>
<path class="st1" d="M281,187.6c-0.4,0.1-0.7,0-1-0.3C280.4,187,280.7,187.2,281,187.6z"/>
<path class="st1" d="M282.4,188c-0.5,0.1-0.8-0.1-1.1-0.4C281.7,187.4,282.1,187.5,282.4,188z"/>
<path class="st1" d="M283.8,188.4c-0.5,0.1-0.8,0-1.1-0.4C283.1,187.8,283.5,188,283.8,188.4z"/>
<path class="st1" d="M321.8,199.1c-0.4,0.1-0.7,0-1-0.3C321.2,198.5,321.5,198.6,321.8,199.1z"/>
<path class="st1" d="M320.4,198.7c-0.5,0.1-0.8-0.1-1.2-0.4C319.7,198.1,320.1,198.2,320.4,198.7z"/>
<path class="st1" d="M316.6,197.6c-0.5,0.2-0.8,0-1.1-0.3C316,197.1,316.3,197.2,316.6,197.6z"/>
<path class="st1" d="M315.2,197.2c-0.5,0.1-0.8,0-1.1-0.4C314.5,196.7,314.9,196.8,315.2,197.2z"/>
<path class="st1" d="M313.8,196.8c-0.5,0.1-0.8,0-1.1-0.4C313.1,196.3,313.5,196.4,313.8,196.8z"/>
<path class="st1" d="M293.3,191c-0.5,0.2-0.8-0.1-1.1-0.4C292.6,190.5,293,190.6,293.3,191z"/>
<path class="st1" d="M312.3,196.4c-0.5,0.1-0.8-0.1-1.1-0.4C311.6,195.8,312,196,312.3,196.4z"/>
<path class="st1" d="M310.9,196c-0.5,0.1-0.8-0.1-1.1-0.4C310.2,195.4,310.6,195.5,310.9,196z"/>
<path class="st1" d="M299.8,192.9c-0.5,0.1-0.8-0.1-1.1-0.4C299.1,192.4,299.5,192.5,299.8,192.9z"/>
<path class="st1" d="M301.2,193.3c-0.5,0.1-0.8-0.1-1.1-0.4C300.6,192.8,301,192.9,301.2,193.3z"/>
<path class="st1" d="M227,172.4c-0.5,0.1-0.8,0-1.1-0.4C226.4,171.9,226.7,172,227,172.4z"/>
<path class="st1" d="M162.7,379.7c0.3,0.3,0.3,0.6,0.1,0.9C162.5,380.3,162.6,380,162.7,379.7z"/>
<path class="st1" d="M210.2,167.7c-0.4,0.1-0.7,0-0.9-0.4C209.7,167.1,210,167.3,210.2,167.7z"/>
<path class="st1" d="M180.7,78.4c-0.1,0.3-0.1,0.8-0.6,0.8C180.1,78.8,180.2,78.4,180.7,78.4z"/>
<path class="st1" d="M183.3,367.7c-0.1-0.4,0.1-0.6,0.5-0.7C183.7,367.4,183.6,367.6,183.3,367.7z"/>
<path class="st1" d="M240.5,316.4c0.1-0.3,0.3-0.5,0.6-0.6C241.2,316.2,241,316.4,240.5,316.4z"/>
<path class="st1" d="M250.7,306.3c0.1-0.4,0.3-0.5,0.6-0.6C251.4,306.2,251.2,306.4,250.7,306.3z"/>
<path class="st1" d="M259.4,297.9c0.1-0.4,0.3-0.5,0.6-0.6C260,297.8,259.8,298,259.4,297.9z"/>
<path class="st1" d="M268.6,288.9c0.1-0.4,0.3-0.5,0.6-0.6C269.2,288.7,269,288.9,268.6,288.9z"/>
<path class="st1" d="M277.2,280.5c0.1-0.4,0.3-0.5,0.6-0.6C277.9,280.3,277.6,280.5,277.2,280.5z"/>
<path class="st1" d="M286.4,271.4c0.1-0.4,0.3-0.6,0.6-0.6C287.1,271.3,286.9,271.5,286.4,271.4z"/>
<path class="st1" d="M166.3,99.2c0.1,0.4-0.2,0.6-0.5,0.7C165.7,99.5,165.9,99.3,166.3,99.2z"/>
<path class="st1" d="M347.1,206.4c-0.3,0-0.5-0.1-0.6-0.4C346.8,205.9,347.1,205.9,347.1,206.4z"/>
<path class="st1" d="M348.1,211c0-0.3,0.1-0.5,0.3-0.7C348.7,210.7,348.6,210.9,348.1,211z"/>
<path class="st1" d="M143.8,131.9c0,0.3-0.1,0.5-0.4,0.6C143.4,132.2,143.4,131.9,143.8,131.9z"/>
<path class="st1" d="M142,134.6c0,0.3-0.1,0.5-0.4,0.6C141.5,134.8,141.5,134.5,142,134.6z"/>
<path class="st1" d="M203.5,45.2c0,0.3-0.1,0.5-0.4,0.6C203,45.5,203.1,45.2,203.5,45.2z"/>
<path class="st1" d="M192.6,61c0,0.3-0.1,0.5-0.4,0.6C192.1,61.3,192.2,61,192.6,61z"/>
<path class="st1" d="M187.1,69c0,0.3-0.1,0.5-0.4,0.6C186.6,69.3,186.7,69,187.1,69z"/>
<path class="st1" d="M176.2,84.8c0,0.3-0.1,0.5-0.4,0.6C175.7,85,175.8,84.8,176.2,84.8z"/>
<path class="st1" d="M174.8,86.9c0,0.3-0.1,0.5-0.4,0.6C174.3,87.1,174.4,86.9,174.8,86.9z"/>
<path class="st1" d="M85.6,216.2c0,0.3-0.1,0.5-0.4,0.6C85.1,216.5,85.2,216.3,85.6,216.2z"/>
<path class="st1" d="M147.9,125.9c0,0.3-0.1,0.5-0.4,0.6C147.5,126.2,147.5,125.9,147.9,125.9z"/>
<path class="st1" d="M158.4,110.7c0,0.3-0.1,0.5-0.4,0.6C157.9,110.9,158,110.6,158.4,110.7z"/>
<path class="st1" d="M347.6,206.8c-0.3,0-0.5-0.1-0.5-0.4C347.5,206.3,347.7,206.3,347.6,206.8z"/>
<path class="st1" d="M348.1,207.4c-0.3-0.1-0.4-0.3-0.4-0.5C348.2,206.8,348.2,207,348.1,207.4z"/>
<path class="st1" d="M348.5,208.1c-0.3-0.1-0.3-0.4-0.3-0.6C348.6,207.5,348.7,207.7,348.5,208.1z"/>
<path class="st1" d="M278.1,186.8c-0.3,0.2-0.4,0-0.5-0.2C277.8,186.4,278,186.5,278.1,186.8z"/>
<path class="st1" d="M212.8,33.6c-0.1,0.2-0.3,0.3-0.5,0.2C212.4,33.5,212.5,33.4,212.8,33.6z"/>
<path class="st1" d="M130.1,151.8c0,0.3-0.1,0.4-0.3,0.5C129.6,151.9,129.7,151.8,130.1,151.8z"/>
<path class="st1" d="M86.8,214.5c0,0.3-0.1,0.4-0.3,0.5C86.3,214.7,86.5,214.5,86.8,214.5z"/>
<path class="st1" d="M86.4,215.1c0,0.3-0.1,0.4-0.3,0.5C85.9,215.3,86,215.1,86.4,215.1z"/>
<path class="st1" d="M86,215.8c0,0.3-0.1,0.4-0.3,0.5C85.5,215.9,85.6,215.8,86,215.8z"/>
<path class="st1" d="M147.4,126.5c0,0.2,0,0.4-0.3,0.5C147,126.7,147.1,126.6,147.4,126.5z"/>
<path class="st1" d="M84.6,217.8c0,0.3-0.1,0.4-0.3,0.5C84.1,218,84.2,217.8,84.6,217.8z"/>
<path class="st1" d="M84.1,218.4c0,0.3-0.1,0.4-0.3,0.5C83.7,218.6,83.8,218.4,84.1,218.4z"/>
<path class="st1" d="M158.8,110.2c0,0.2-0.1,0.4-0.3,0.5C158.3,110.3,158.4,110.1,158.8,110.2z"/>
<path class="st1" d="M129.6,152.4c0,0.3-0.1,0.4-0.3,0.5C129.2,152.6,129.3,152.4,129.6,152.4z"/>
<path class="st1" d="M338.3,220.8c0-0.3,0.2-0.4,0.4-0.4C338.8,220.8,338.6,220.9,338.3,220.8z"/>
<path class="st1" d="M162.5,104.8c0,0.3-0.1,0.4-0.4,0.4C162,104.9,162.1,104.8,162.5,104.8z"/>
<path class="st1" d="M164.7,101.6c0,0.3-0.1,0.4-0.3,0.5C164.3,101.7,164.4,101.5,164.7,101.6z"/>
<path class="st1" d="M238.1,175.5c-0.2,0.1-0.4,0-0.6-0.2C237.8,175.1,238,175.2,238.1,175.5z"/>
<path class="st1" d="M320.7,238c0-0.2,0.2-0.4,0.4-0.4C321.2,238,321,238.1,320.7,238z"/>
<path class="st1" d="M115.1,173.5c0,0.3-0.1,0.4-0.3,0.5C114.6,173.7,114.7,173.5,115.1,173.5z"/>
<path class="st1" d="M105.1,188.1c0,0.3-0.1,0.4-0.3,0.5C104.6,188.2,104.7,188.1,105.1,188.1z"/>
<path class="st1" d="M146.1,128.6c0,0.3-0.1,0.4-0.3,0.5C145.6,128.8,145.7,128.6,146.1,128.6z"/>
<path class="st1" d="M175.2,86.4c0,0.2-0.1,0.4-0.3,0.5C174.7,86.5,174.8,86.4,175.2,86.4z"/>
<path class="st1" d="M241.6,176.5c-0.3,0.2-0.4,0-0.5-0.2C241.3,176.2,241.5,176.2,241.6,176.5z"/>
<path class="st1" d="M145.6,129.2c0,0.3-0.1,0.4-0.4,0.5C145.2,129.4,145.3,129.2,145.6,129.2z"/>
<path class="st1" d="M143.4,132.5c0,0.2,0,0.4-0.3,0.5C142.9,132.7,143.1,132.5,143.4,132.5z"/>
<path class="st1" d="M129.2,153c0,0.3-0.1,0.4-0.3,0.5C128.8,153.2,128.9,153,129.2,153z"/>
<path class="st1" d="M104.6,188.7c0,0.3-0.1,0.4-0.3,0.5C104.2,188.8,104.3,188.7,104.6,188.7z"/>
<path class="st1" d="M176.6,84.3c0.1,0.3-0.1,0.4-0.3,0.5C176.1,84.5,176.3,84.3,176.6,84.3z"/>
<path class="st1" d="M131.5,149.7c0,0.3-0.1,0.4-0.3,0.5C131,149.9,131.1,149.7,131.5,149.7z"/>
<path class="st1" d="M178.4,81.7c0,0.3-0.1,0.4-0.3,0.5C178,81.8,178.1,81.7,178.4,81.7z"/>
<path class="st1" d="M133.3,147.1c0,0.3-0.1,0.4-0.4,0.5C132.9,147.2,133,147.1,133.3,147.1z"/>
<path class="st1" d="M117.3,170.2c0,0.3-0.1,0.4-0.3,0.5C116.9,170.4,117,170.2,117.3,170.2z"/>
<path class="st1" d="M154.7,116.1c0,0.2-0.1,0.4-0.3,0.5C154.2,116.3,154.3,116.1,154.7,116.1z"/>
<path class="st1" d="M133.8,146.5c0,0.3-0.1,0.4-0.3,0.5C133.3,146.6,133.4,146.4,133.8,146.5z"/>
<path class="st1" d="M128.8,153.6c0,0.3-0.1,0.4-0.3,0.5C128.4,153.8,128.5,153.6,128.8,153.6z"/>
<path class="st1" d="M178.9,81.1c0,0.3-0.1,0.4-0.3,0.5C178.4,81.2,178.5,81,178.9,81.1z"/>
<path class="st1" d="M224.1,332.3c0.1-0.2,0.2-0.4,0.4-0.4C224.6,332.3,224.4,332.4,224.1,332.3z"/>
<path class="st1" d="M222.8,333.6c0-0.2,0.2-0.4,0.4-0.4C223.3,333.5,223.2,333.6,222.8,333.6z"/>
<path class="st1" d="M102.8,191.4c0,0.3-0.1,0.4-0.4,0.5C102.3,191.5,102.4,191.3,102.8,191.4z"/>
<path class="st1" d="M215.1,341.2c0-0.2,0.2-0.4,0.4-0.4C215.5,341.1,215.4,341.2,215.1,341.2z"/>
<path class="st1" d="M181.1,77.8c0,0.3-0.1,0.4-0.3,0.5C180.7,77.9,180.8,77.8,181.1,77.8z"/>
<path class="st1" d="M107.3,184.8c0,0.2-0.1,0.4-0.3,0.5C106.8,185,106.9,184.8,107.3,184.8z"/>
<path class="st1" d="M190.8,63.8c0,0.3-0.1,0.4-0.4,0.5C190.3,64,190.4,63.8,190.8,63.8z"/>
<path class="st1" d="M191.2,63.2c0,0.3-0.1,0.4-0.3,0.5C190.7,63.4,190.8,63.2,191.2,63.2z"/>
<path class="st1" d="M239.6,175.9c-0.2,0.1-0.4,0-0.6-0.2C239.3,175.5,239.4,175.6,239.6,175.9z"/>
<path class="st1" d="M193,60.5c0,0.3-0.1,0.4-0.3,0.5C192.6,60.7,192.7,60.5,193,60.5z"/>
<path class="st1" d="M193.4,59.9c0,0.3-0.1,0.4-0.3,0.5C193,60.1,193.1,59.9,193.4,59.9z"/>
<path class="st1" d="M131.1,150.4c0,0.3-0.1,0.4-0.4,0.5C130.6,150.5,130.7,150.3,131.1,150.4z"/>
<path class="st1" d="M203.9,44.8c0,0.2-0.1,0.4-0.3,0.5C203.4,44.9,203.5,44.7,203.9,44.8z"/>
<path class="st1" d="M145.2,129.8c0,0.3-0.1,0.4-0.3,0.5C144.8,130,144.9,129.8,145.2,129.8z"/>
<path class="st1" d="M206.7,40.6c0,0.3-0.1,0.4-0.3,0.5C206.3,40.8,206.4,40.6,206.7,40.6z"/>
<path class="st1" d="M207.2,40c0,0.3-0.1,0.4-0.3,0.5C206.7,40.2,206.8,40,207.2,40z"/>
<path class="st1" d="M207.6,39.4c0,0.3-0.1,0.4-0.3,0.5C207.1,39.6,207.2,39.4,207.6,39.4z"/>
<path class="st1" d="M209.4,36.8c0,0.3-0.1,0.4-0.3,0.5C209,36.9,209.1,36.7,209.4,36.8z"/>
<path class="st1" d="M209.8,36.1c0,0.3-0.1,0.4-0.3,0.5C209.4,36.3,209.5,36.1,209.8,36.1z"/>
<path class="st1" d="M127.8,155.1c0,0.2-0.1,0.4-0.3,0.5C127.3,155.2,127.4,155.1,127.8,155.1z"/>
<path class="st1" d="M308,195.2c-0.2,0.2-0.4,0-0.5-0.2C307.7,194.8,307.9,194.9,308,195.2z"/>
<path class="st1" d="M215.5,34.3c-0.2,0-0.4-0.1-0.5-0.3C215.4,33.8,215.5,33.9,215.5,34.3z"/>
<path class="st1" d="M116.9,170.9c0,0.3-0.1,0.4-0.3,0.5C116.5,171,116.6,170.9,116.9,170.9z"/>
<path class="st1" d="M100.5,194.6c0,0.3-0.1,0.4-0.3,0.5C100.1,194.8,100.2,194.6,100.5,194.6z"/>
<path class="st1" d="M213.7,33.6c-0.2,0.2-0.5,0.1-0.7,0C213.2,33.4,213.5,33.4,213.7,33.6z"/>
<path class="st1" d="M241.9,314.9c0.1-0.1,0.1-0.1,0.2-0.2C242.1,314.9,242.1,314.9,241.9,314.9z"/>
</svg>
