<?xml version="1.0" encoding="UTF-8"?>
<svg id="_图层_1" data-name="图层 1" xmlns="http://www.w3.org/2000/svg" viewBox="0 0 420 420">
  <defs>
    <style>
      .cls-1 {
        fill: #fff;
      }

      .cls-2 {
        fill: #1fb4fe;
      }

      .cls-3 {
        fill: #8fd9fe;
      }
    </style>
  </defs>
  <path class="cls-1" d="m.02.02C139.7.02,279.38.02,419.06,0c.77,0,.94.17.94.94-.02,139.37-.02,278.74,0,418.12,0,.77-.17.94-.94.94-139.37-.02-278.74-.02-418.12,0-.77,0-.94-.17-.94-.94C.02,279.38.02,139.7.02.02Zm370.76,118.11h0c.04-.39-.09-.74-.28-1.07-2.06-3.5-4.11-7-6.41-10.35-.18-.26-.28-.65-.71-.67h0c.05-.29-.08-.52-.24-.75-2.15-3.11-4.34-6.18-6.7-9.14-2.95-3.7-6.03-7.28-9.25-10.76-4.29-4.63-8.87-8.96-13.64-13.08-.81-.69-1.48-1.62-2.58-1.92-.12-.09-.24-.18-.36-.27-.02-.3-.24-.48-.45-.65-3.78-3.07-7.67-6-11.69-8.74-5.55-3.79-11.31-7.24-17.23-10.42-.64-.35-1.24-.87-2.05-.83-.05-.02-.1-.05-.16-.06-.12-.48-.59-.53-.93-.71-4.53-2.35-9.2-4.4-13.92-6.31-.97-.39-1.86-1.09-3.01-.94-.26-.09-.52-.17-.78-.26-.07-.38-.4-.43-.68-.53-2.72-.96-5.44-1.91-8.16-2.84-.25-.09-.54-.37-.84-.05-.06-.01-.13-.02-.19-.02-.06-.34-.35-.38-.6-.46-5.6-1.71-11.26-3.24-16.99-4.43-7.37-1.53-14.78-2.73-22.29-3.3-.38-.03-.78-.38-1.14.04-.6-.04-1.2-.07-1.8-.11-.25-.38-.54-.42-.87-.09-.74-.04-1.47-.08-2.21-.11-.33-.42-.69-.43-1.07-.08-1.37-.05-2.74-.11-4.11-.16-.13-.27-.38-.26-.62-.26-3.65,0-7.3,0-10.95,0-.31,0-.64-.04-.73.37-.75-.02-1.5-.03-2.26-.05-.77-.13-1.57-.46-2.25.25-.14,0-.27-.02-.41-.02-.24-.29-.57-.18-.86-.17-1.02.05-2.03.16-3.05.19-3.2.12-6.37.52-9.54.89-4.42.52-8.8,1.34-13.16,2.22-1.14.23-2.36.22-3.39.89-.06.02-.12.04-.17.08-.05-.02-.1-.02-.15,0-1.31.28-2.61.57-3.92.85-.15-.04-.3-.06-.41.1-.13.05-.26.1-.38.15-.46-.17-.88.08-1.28.18-1.86.44-3.77.75-5.52,1.58-.13.02-.26.04-.39.06-2.64.46-5.16,1.3-7.61,2.39-.33.09-.67.19-1,.28-.35-.06-.66.05-.99.16-5.37,1.85-10.67,3.9-15.85,6.25-1.4.63-2.95,1.03-4.14,2.1-.06.02-.11.04-.17.06-.44-.04-.78.22-1.14.39-3.62,1.75-7.2,3.59-10.71,5.56-4.67,2.62-9.22,5.43-13.64,8.43-4.68,3.17-9.21,6.54-13.57,10.14-1.04.85-2.2,1.59-2.99,2.72-.39.36-.79.72-1.18,1.08-.27-.03-.45.12-.63.29-2.46,2.26-4.98,4.46-7.36,6.8-4.14,4.06-8.07,8.33-11.8,12.77-3.88,4.62-7.52,9.43-10.94,14.41-4.37,6.37-8.2,13.06-11.72,19.93-.49.95-1.14,1.87-1.24,2.99,0,.06-.01.12-.04.18-.42.07-.48.46-.62.75-.48,1-.82,2.08-1.33,3.05-.92,1.75-1.67,3.57-2.39,5.4-.45,1.15-1.18,2.23-1.17,3.53-.8,1.71-1.31,3.52-1.88,5.3-.38,0-.38.32-.46.57-.79,2.54-1.62,5.08-2.36,7.64-.19.66-.7,1.3-.37,2.07-.11.41-.23.82-.34,1.22-.39.1-.36.48-.43.74-.53,2.16-1.05,4.33-1.52,6.5-.3,1.4-.77,2.78-.69,4.24-.01.13-.03.27-.04.4-.3.09-.27.35-.31.58-.56,3.25-1.04,6.51-1.48,9.79-.77,5.68-1.02,11.39-1.16,17.11-.08,3.24.01,6.48.16,9.72.12,2.65.24,5.31.5,7.95.56,5.55,1.29,11.08,2.46,16.53,1.9,8.9,4.31,17.65,7.66,26.13.17.42.13.97.64,1.22.08.2.17.39.25.59-.29.27-.07.35.15.44.09.19.17.39.26.58-.29.27-.07.35.15.44.41.96.82,1.92,1.23,2.89,0,.27.01.53.14.79.92,1.94,1.8,3.9,2.75,5.83,3.89,7.91,8.36,15.46,13.44,22.67,4.73,6.73,9.94,13.06,15.61,19.01,3.13,3.28,6.4,6.42,9.78,9.45,3.42,3.07,7,5.95,10.63,8.77.37.29.7.66,1.22.69.05.03.09.06.14.1.11.33.31.53.67.52.05.03.1.06.15.09.37.55.86.94,1.5,1.13,0,0,0,0,0,0-.06.51-.16,1.01-.17,1.52-.14,5.77.16,11.54.2,17.31,0,.24-.03.48.19.66.01,1.63.03,3.25.04,4.88-.09,1.04-.2,2.08.09,3.11.04,3.4.09,6.81.13,10.21-.12.91-.2,1.81.07,2.71.06,3.63.12,7.25.18,10.88-.26,1.94-.13,3.89-.01,5.83.03.43.11.96.63,1.19.15.14.3.28.45.41.87.73,1.52.72,2.33-.03.18-.08.38-.15.55-.25,4.02-2.46,8.03-4.94,12.05-7.39,5.18-3.16,10.37-6.31,15.56-9.46,4.72-2.87,9.45-5.73,14.17-8.6,3.16-1.92,6.31-3.85,9.47-5.77,1,.09,1.86.82,2.92.67.38-.07.66.23,1.02.26.15.27.43.3.7.36,2.48.59,4.96,1.21,7.45,1.77,3.75.84,7.53,1.55,11.34,2.11,3.26.48,6.53.9,9.8,1.2,1.57.14,3.15.56,4.75.26.21.02.41.05.62.07.33.32.7.15,1.06.07.19,0,.39.01.58.02.15.24.4.22.64.23,1.6.07,3.19.19,4.79.21,7.69.07,15.39.22,23.06-.48.97-.09,2.03.13,2.93-.47l.98-.09c.22.27.35.13.46-.09,1.01-.1,2.02-.2,3.02-.3.28.29.49.19.66-.12.26-.01.52-.03.78-.04.5.31.99,0,1.46-.08,1.57-.24,3.22-.17,4.69-.92.68-.1,1.37-.19,2.05-.29.16.22.35.1.55.07,7.08-1.23,14.08-2.85,20.97-4.89.93-.28,1.91-.43,2.73-1.01.12-.03.24-.06.36-.08.31.29.59,0,.84-.08,5.69-1.83,11.33-3.81,16.81-6.23.5-.22,1.14-.25,1.45-.83.39-.17.78-.33,1.17-.5.47.1.87-.13,1.27-.31,8.83-4.03,17.39-8.57,25.54-13.84,5.75-3.72,11.31-7.73,16.62-12.06,4.07-3.32,8.03-6.76,11.79-10.42,2.25-2.19,4.46-4.42,6.6-6.72,3.12-3.34,6.13-6.78,8.99-10.34,4.72-5.88,9.06-12.04,12.96-18.49.84-1.39,1.87-2.69,2.36-4.27.02-.06.03-.11.04-.17.41-.08.48-.45.64-.74,2.32-4.05,4.45-8.2,6.39-12.45.57-1.26,1.33-2.46,1.55-3.86.21-.54.42-1.08.64-1.62.55-.19.55-.75.71-1.16.81-2.02,1.59-4.05,2.33-6.1.89-2.45,1.76-4.9,2.56-7.38.38-1.19.9-2.35.91-3.64l.26-1.2c.34-.06.39-.35.45-.6.59-2.3,1.21-4.59,1.75-6.91.15-.63.58-1.27.2-1.96l.13-.39c.18-.53.42-1.04.53-1.59.42-2.02.84-4.05,1.15-6.09.08-.56.44-1.16.07-1.75.02-.19.04-.38.06-.58.35-.16.45-.36.13-.65.03-.32.07-.65.1-.97.23-.11.41-.24.09-.46.03-.19.05-.38.08-.58.47-.3.43-.67.13-1.06.03-.26.07-.51.1-.77.39-.25.41-.54.1-.87.03-.26.05-.52.08-.78.4-.23.44-.52.13-.86.03-.4.05-.79.08-1.19.4-.23.43-.52.14-.86.02-.4.04-.79.07-1.19.49-.37.38-.82.14-1.27l.07-.98c.52-.53.4-1.1.1-1.68.03-.4.05-.8.08-1.2.6-.8.41-1.65.13-2.49l.09-3.45c.28-.09.32-.32.32-.57,0-1.9,0-3.8,0-5.7,0-.25-.04-.48-.33-.56-.03-1.01-.05-2.03-.08-3.04.29-.85.46-1.69-.12-2.5-.03-.4-.06-.8-.08-1.19.29-.65.39-1.29-.11-1.89-.01-.19-.02-.38-.04-.57.26-.53.31-1.03-.16-1.48-.02-.4-.04-.79-.06-1.19.28-.4.31-.77-.15-1.07-.02-.26-.04-.52-.05-.78.24-.17.2-.42.17-.65-.25-1.72-.41-3.44-.66-5.16-.76-5.18-1.73-10.32-3.01-15.4-1.59-6.27-3.4-12.48-5.82-18.49-.24-.59-.22-1.36-.9-1.74-.02-.05-.04-.11-.05-.16.05-.17.06-.33-.12-.43-.03-.07-.06-.14-.09-.2.28-.21.08-.43,0-.63-.47-1.13-.94-2.26-1.42-3.39-1.57-3.7-3.29-7.33-5.13-10.9-.18-.35-.32-.77-.78-.88-.04-.49-.52-.76-.63-1.22-.18-.7-.31-1.44-1.01-1.85Z"/>
  <path class="cls-2" d="m43.26,133.28c.02-.06.03-.12.04-.18.41-.08.48-.45.63-.75,4.49-9.22,9.71-18.01,15.74-26.3,3.95-5.43,8.19-10.62,12.74-15.57,1.43-1.56,2.96-3.02,4.37-4.6,2.1-2.34,4.52-4.35,6.73-6.57,1.15-1.15,2.6-1.98,3.49-3.4.39-.36.79-.72,1.18-1.08.41.01.7-.23.99-.47,4.96-4.31,10.23-8.23,15.65-11.94,7.77-5.32,15.93-9.98,24.42-14.07.37-.18.9-.21,1-.77.06-.02.11-.04.17-.06.37.14.66-.08.96-.21,5.67-2.57,11.42-4.96,17.29-7.06.93-.33,2.03-.37,2.73-1.23.33-.09.67-.19,1-.28.29.34.58.04.84-.04,1.86-.57,3.71-1.15,5.55-1.78.42-.14.99-.03,1.22-.58.13-.02.26-.04.39-.06.19.24.4.16.64.09,1.4-.4,2.81-.76,4.2-1.19.66-.2,1.43-.06,1.95-.66.13-.05.26-.1.38-.15.24.39.31.11.41-.1,1.31-.28,2.61-.57,3.92-.85.03.05.05.11.08.16.02-.05.05-.11.07-.16.06-.03.11-.06.17-.08.27.02.55.09.8.04,2.64-.5,5.28-.99,7.91-1.52,3.37-.68,6.77-1.08,10.18-1.49,2.83-.34,5.68-.54,8.53-.7.85-.05,1.77.06,2.58-.35.14,0,.27.02.41.02.78.21,1.53.12,2.25-.25.75.02,1.5.03,2.26.05,4.01,0,8.02,0,12.02,0,.09,0,.18-.08.27-.12,1.37.05,2.74.11,4.11.16.34.28.7.19,1.07.08.74.04,1.47.08,2.21.11.26.27.56.2.87.09.6.04,1.2.07,1.8.11,1.02.75,2.25.45,3.35.55,4.79.44,9.54,1.12,14.26,1.97,7.01,1.27,13.95,2.89,20.77,4.95.86.26,1.68.79,2.64.68.06,0,.13,0,.19.02.17.23.42.32.68.4,2.14.74,4.26,1.5,6.41,2.21.86.28,1.64.82,2.59.82.26.09.52.17.78.26.09.21.27.29.47.37,5.62,2.13,11.08,4.61,16.44,7.33.3.15.6.35.96.27.05.02.11.04.16.06.14.47.6.52.95.7,3.57,1.91,7.11,3.88,10.56,6,5.8,3.56,11.39,7.42,16.75,11.63,1.03.81,1.91,1.82,3.17,2.32.12.09.24.18.36.27.05.38.35.58.61.79,3.13,2.52,6.07,5.27,8.98,8.03,3.54,3.35,6.85,6.93,10.06,10.6,4.06,4.64,7.85,9.49,11.37,14.54.41.59.7,1.33,1.4,1.69,0,0,0,0,0,0-.06.42.24.69.44,1,1.92,2.97,3.81,5.96,5.58,9.02.41.71.57,1.61,1.38,2.06,0,0,0,0,0,0,.12.74.35,1.41,1.01,1.85.11.46.59.72.63,1.22-.1.34.1.59.24.85,2.11,3.81,3.82,7.8,5.59,11.78.48,1.07.64,2.29,1.5,3.17.03.07.06.14.09.2-.31.24-.12.34.12.43,0,.06.03.11.05.16-.05.39.09.73.23,1.09,2.06,5.34,3.84,10.77,5.29,16.3,1.87,7.11,3.28,14.32,4.18,21.62.1.8-.13,1.73.53,2.43.02.26.04.52.05.78-.08.37-.19.75.15,1.07.02.4.04.79.06,1.19-.08.51-.23,1.02.16,1.48.01.19.02.38.04.57-.09.64-.22,1.28.11,1.89.03.4.06.8.08,1.19-.07.84-.22,1.68.12,2.5.03,1.01.05,2.03.08,3.04-.11,2.28-.12,4.56,0,6.84-.03,1.15-.06,2.3-.09,3.45-.34.82-.18,1.66-.13,2.49-.03.4-.05.8-.08,1.2-.33.54-.19,1.11-.1,1.68l-.07.98c-.36.39-.22.83-.14,1.27-.02.4-.04.79-.07,1.19-.31.25-.23.55-.14.86-.03.4-.05.79-.08,1.19-.29.25-.22.56-.13.86-.03.26-.05.52-.08.78-.29.26-.21.56-.1.87l-.1.77c-.32.32-.21.69-.13,1.06-.03.19-.05.38-.08.58-.2.12-.2.28-.09.46-.03.32-.07.65-.1.97-.25.18-.22.41-.13.65-.02.19-.04.38-.06.58-.07.11-.17.22-.19.34-.54,2.69-1.09,5.39-1.6,8.09-.06.31-.46.69.04,1-.04.13-.08.26-.13.39-.47.16-.36.63-.45.96-.39,1.48-.76,2.96-1.08,4.46-.28,1.35-.9,2.64-.88,4.06-.09.4-.17.8-.26,1.2-.75.78-.73,1.85-1.05,2.79-1.54,4.59-3.19,9.15-4.91,13.68-.23.59-.6,1.14-.56,1.81-.21.54-.42,1.08-.64,1.62-.6.12-.58.7-.76,1.1-1.79,4.06-3.82,8-5.86,11.94-.68,1.32-1.68,2.49-1.96,4.01,0,.06-.02.12-.04.17-.37.03-.49.32-.64.59-2.72,4.69-5.66,9.24-8.78,13.67-5.13,7.28-10.85,14.08-17,20.51-4.88,5.1-10.09,9.86-15.54,14.36-4.81,3.97-9.81,7.7-14.99,11.16-9.13,6.08-18.72,11.33-28.74,15.8-.19.09-.38.15-.44.38-.39.17-.78.33-1.17.5-.43-.08-.81.13-1.18.28-5.65,2.39-11.38,4.56-17.24,6.36-.27.08-.65.07-.69.49-.12.03-.24.06-.36.08-.71-.19-1.33.17-1.97.36-6.42,1.91-12.9,3.55-19.49,4.75-.93.17-1.97.07-2.79.73-.68.1-1.37.19-2.05.29-.09-.12-.19-.17-.34-.15-1.37.19-2.76.29-4.09.61-.56.13-1.35-.26-1.71.53-.26.01-.52.03-.78.04-.24-.08-.49-.15-.66.13-1.01.1-2.02.2-3.02.3-.18-.09-.34-.12-.46.09-.33.03-.65.06-.98.09-.5-.06-1.02-.22-1.51-.17-3.49.39-6.99.56-10.49.71-3.1.13-6.22.07-9.33.05-2.11-.02-4.23.04-6.34-.15-1.23-.11-2.5-.28-3.74.07-.19,0-.39-.01-.58-.02-.32-.45-.68-.45-1.06-.07-.21-.02-.41-.05-.62-.07-.08-.27-.27-.36-.54-.36-2.28-.03-4.53-.4-6.8-.61-3.76-.34-7.48-.97-11.2-1.56-4.91-.78-9.75-1.9-14.56-3.15-.28-.07-.62-.38-.94-.02-.35-.03-.64-.33-1.02-.26-.66-.71-1.63-.62-2.45-.93-.22-.08-.39.04-.47.26-3.16,1.92-6.31,3.85-9.47,5.77-4.72,2.87-9.45,5.73-14.17,8.6-5.19,3.15-10.38,6.3-15.56,9.46-4.02,2.45-8.04,4.93-12.05,7.39-.17.1-.36.17-.55.25-.77.26-1.55.19-2.33.03-.15-.14-.3-.28-.45-.41-.17-.81-.39-1.61-.36-2.46.05-1.21,0-2.43-.02-3.64,0-.32.12-.69-.24-.92-.06-3.63-.12-7.25-.18-10.88.33-.91.41-1.82-.07-2.71-.04-3.4-.09-6.81-.13-10.21.32-1.05.43-2.09-.09-3.11-.01-1.63-.03-3.25-.04-4.88.05-.12.15-.24.15-.36,0-2.55.07-5.11-.05-7.65-.17-3.63-.29-7.26.03-10.88.03-.3.03-.56-.36-.59,0,0,0,0,0,0-.26-.69-.79-1.04-1.5-1.13-.05-.03-.1-.06-.15-.09-.05-.39-.24-.62-.67-.52-.05-.03-.09-.07-.14-.1-.45-.94-1.41-1.34-2.17-1.92-4.91-3.75-9.53-7.82-13.99-12.07-2.69-2.57-5.29-5.23-7.79-7.99-1.55-1.72-3.11-3.43-4.58-5.22-4.79-5.86-9.31-11.91-13.3-18.34-3.89-6.27-7.44-12.71-10.43-19.45-.34-.77-.51-1.68-1.29-2.21-.41-.96-.82-1.92-1.23-2.89.05-.18.07-.35-.15-.44-.09-.19-.17-.39-.26-.58.05-.18.07-.36-.15-.44-.08-.2-.17-.39-.25-.59,0-.54-.12-1.05-.32-1.56-.62-1.62-1.21-3.26-1.78-4.9-3.16-9.16-5.49-18.52-6.98-28.11-.87-5.55-1.52-11.13-1.71-16.73-.25-7.39-.28-14.79.48-22.18.51-4.97,1.04-9.94,2.03-14.84.06-.28.11-.55-.19-.72.01-.13.03-.27.04-.4.33-.06.38-.29.43-.58.58-3.26,1.35-6.48,2.14-9.69.09-.38.46-.79.06-1.21.11-.41.23-.82.34-1.22.24-.47.49-.92.64-1.44.65-2.17,1.35-4.32,1.99-6.5.22-.77.63-1.5.56-2.34.57-1.79,1.07-3.6,1.88-5.3.34-.06.37-.35.48-.6,1.17-2.87,2.3-5.75,3.58-8.57.53-1.17,1.25-2.27,1.45-3.57Zm242,22.37h0c-.16-.35-.37-.65-.82-.61h0c-.15-.36-.37-.63-.81-.63-.39-.37-.99-.48-1.28-.98-.03-.49-.48-.64-.78-.87-1.57-1.17-3.16-2.31-4.75-3.45-1.17-.84-2.34-1.66-3.65-2.27h0c-.37-.62-.92-1.05-1.47-1.51-.9-.77-1.98-1.26-2.9-2.01-1.35-1.1-2.67-2.32-4.41-2.87-.7-.48-1.45-.91-2.02-1.56-.09-.22-.26-.29-.48-.25h0c-1.87-2-4.02-3.62-6.52-4.75-.3-.25-.61-.5-.91-.75-1.68-1.76-3.63-3.17-5.85-4.18-1.06-.8-2.11-1.59-3.17-2.39-.24-.91-1.19-1.01-1.76-1.56-.22-.21-.5.08-.68.29-1.09,1.33-2.2,2.65-3.26,4.01-.53.68-1.31,1.2-1.43,2.15h0c-.49.08-.73.37-.77.86-.04.4-.38.58-.62.83-.97.58-1.65,1.38-1.92,2.49-.05.04-.11.09-.16.13-.9.64-1.56,1.48-2.04,2.47l-.67.78c-.93.7-1.61,1.65-2.36,2.51-1.74,2-3.4,4.07-5.03,6.15-.68.87-1.57,1.6-1.96,2.68-.14.21-.28.41-.42.62-.44,0-.61.34-.85.63-2.31,2.83-4.66,5.63-6.93,8.5-.74.93-1.76,1.69-2.08,2.93h0c-.41.02-.57.27-.58.64-.48.62-.96,1.23-1.45,1.85-1.06.39-1.41,1.41-1.94,2.25-.94,1.49-3.07,1.61-3.98.1-.55-.91-1.2-1.74-1.87-2.54-.97-1.16-1.81-2.47-3.12-3.32h0c-.82-1.84-2.17-3.25-3.69-4.51-.07-.07-.13-.14-.2-.21.02-.44-.26-.66-.62-.82h0c0-.1.02-.22-.03-.3-1.82-2.72-4.1-5.07-6.07-7.67-.16-.22-.43-.17-.66-.24-.72-.89-1.44-1.78-2.16-2.67.37-.17.17-.36.02-.54-.62-.75-1.2-1.54-1.86-2.26-.94-1.02-1.58-2.34-2.92-2.98l-.9-1.16c-.13-1.07-1.09-1.59-1.64-2.37-.31-.43-.48-1.1-1.2-1.14h0c-.03-.54-.37-.82-.83-1.02-.08-.06-.18-.11-.24-.18-2.07-2.54-4.14-5.08-6.21-7.63.05-.04.16-.08.15-.11-.15-.96-1.09-1.36-1.83-.81-.81.6-1.62,1.2-2.43,1.8-.29.21-.69.33-.66.8-.03.04-.06.09-.09.13-.17.03-.38,0-.49.1-1.22,1.03-2.64,1.79-3.92,2.73-2.47,1.8-4.94,3.6-7.34,5.48-1.42,1.11-3,1.99-4.43,3.08-1.72,1.32-3.62,2.4-5.12,4-.38.32-.71.7-1.21.86-1,.54-1.89,1.21-2.69,2.01-.28.21-.56.41-.84.62-.39,0-.71.17-1.01.42-2.78,2.23-5.69,4.29-8.65,6.29-1.37.93-2.72,1.91-3.85,3.14-.2.17-.39.34-.59.51-1.03.12-1.74.72-2.26,1.57-.26.16-.52.31-.78.47-1.08.43-1.98,1.1-2.71,2h0c-1.95,1-3.59,2.44-5.37,3.68-.42.29-.6.7-.56,1.24.24,2.81.43,5.62.69,8.43.29,3.15.65,6.28.96,9.43.24,2.44.43,4.88.66,7.31.32,3.42.64,6.83,1,10.24.16,1.54.17,3.1.73,4.57.03.33.06.66.09,1-.06.43-.18.86.12,1.26.02.2.04.41.06.61,0,.31-.03.61-.03.92,0,3.81.65,7.58.91,11.37.18,2.64.51,5.27.78,7.9.07.71.66,1.27,1.4,1.36l1.41,1.06c1.2,1.15,2.41,2.3,3.96,2.99.14.07.28.14.42.22.61,1.03,1.61,1.57,2.65,2.04.25.16.51.33.76.49.92,1,2.04,1.78,3.12,2.58,3.1,2.3,6.25,4.53,9.36,6.82,1.55,1.14,2.94,2.5,4.73,3.31.21.14.42.28.63.42.13.15.25.33.4.46,1.95,1.72,4.17,3.09,6.2,4.72.25.2.51.34.84.28.19.16.38.33.56.49.49.45.95.95,1.49,1.35,2.5,1.86,5.02,3.68,7.53,5.52,3.57,2.62,7.13,5.25,10.7,7.88,1.3.96,2.56,1.99,4.05,2.67.99.73,1.97,1.46,2.96,2.18-.01.37.25.51.51.7,1.42,1.03,2.82,2.09,4.25,3.12,2.05,1.49,4.13,2.94,6.16,4.44,2.67,1.98,5.28,4.03,7.98,5.97.86.61,1.66,1.39,2.75,1.63.14.14.28.28.43.41,1.27,1.55,1.53,1.69,2.57.76,1.2-1.07,2.56-1.88,3.84-2.82,2.63-1.93,5.3-3.82,7.89-5.8,1-.77,2.22-1.32,2.91-2.46l.02-.02c.32.02.58-.09.84-.29,2.34-1.74,4.7-3.45,7.03-5.2,1.95-1.47,3.85-3.03,5.86-4.39,2.96-1.99,5.65-4.34,8.64-6.28.59-.38,1.35-.68,1.6-1.47.03-.04.06-.09.09-.13,1.46-.34,2.43-1.46,3.56-2.3,1.65-1.23,3.52-2.2,4.82-3.87.63-.47,1.26-.94,1.88-1.41.8-.2,1.47-.66,2.13-1.14,2.5-1.84,5.02-3.66,7.49-5.54.5-.38,1.29-.55,1.36-1.39.21-.14.42-.28.63-.42.58.08.94-.34,1.35-.62,2.87-1.98,5.53-4.24,8.4-6.22,1.36-.93,2.57-2.08,3.84-3.12.25-.24.5-.48.75-.72.82.13,1.3-.49,1.86-.89,2.74-1.99,5.46-4.03,8.2-6.02.7-.51.99-1.11,1.04-1.97.12-1.93.4-3.85.53-5.78.12-1.86.47-3.72.26-5.6.03-.47.06-.94.09-1.4.26-.25.2-.55.12-.85.03-.47.06-.94.09-1.41.23-.19.19-.41.1-.65.04-.54.07-1.07.11-1.61.22-.19.19-.41.1-.65.02-.47.04-.93.06-1.4.18-.46.48-.91.53-1.39.25-2.47.44-4.94.66-7.41.22-2.47.43-4.94.67-7.41.32-3.35.66-6.69.98-10.04.23-2.47.43-4.94.67-7.41.3-3.11.64-6.22.95-9.33.06-.64-.23-1.11-.77-1.45-.8-.51-1.66-.95-2.38-1.56-2.82-2.37-5.9-4.37-8.86-6.55-.27-.2-.53-.45-.92-.25-.19-.16-.38-.33-.57-.49-.06-.34-.28-.46-.6-.43Z"/>
  <path class="cls-3" d="m282.77,355.76c.06-.23.24-.29.44-.38,10.02-4.47,19.61-9.71,28.74-15.8,5.19-3.46,10.18-7.18,14.99-11.16,5.45-4.5,10.65-9.26,15.54-14.36,6.15-6.43,11.87-13.23,17-20.51,3.12-4.43,6.06-8.98,8.78-13.67.16-.27.28-.56.64-.59-.5,1.58-1.52,2.88-2.36,4.27-3.91,6.45-8.24,12.61-12.96,18.49-2.86,3.56-5.87,7-8.99,10.34-2.15,2.3-4.35,4.53-6.6,6.72-3.76,3.66-7.72,7.1-11.79,10.42-5.32,4.33-10.87,8.34-16.62,12.06-8.15,5.28-16.71,9.82-25.54,13.84-.39.18-.79.42-1.27.31Z"/>
  <path class="cls-3" d="m29.66,174.72c.31.18.25.45.19.72-.99,4.9-1.52,9.87-2.03,14.84-.76,7.39-.73,14.79-.48,22.18.19,5.6.84,11.18,1.71,16.73,1.49,9.58,3.82,18.95,6.98,28.11.57,1.64,1.16,3.28,1.78,4.9.2.51.32,1.02.32,1.56-.51-.25-.47-.8-.64-1.22-3.35-8.48-5.76-17.23-7.66-26.13-1.17-5.46-1.9-10.99-2.46-16.53-.26-2.64-.38-5.3-.5-7.95-.15-3.24-.24-6.48-.16-9.72.14-5.72.4-11.43,1.16-17.11.44-3.27.92-6.53,1.48-9.79.04-.23.01-.49.31-.58Z"/>
  <path class="cls-3" d="m40.17,268.69c.79.52.95,1.44,1.29,2.21,3,6.74,6.55,13.19,10.43,19.45,3.99,6.44,8.52,12.49,13.3,18.34,1.46,1.79,3.03,3.5,4.58,5.22,2.49,2.76,5.1,5.42,7.79,7.99,4.46,4.25,9.09,8.32,13.99,12.07.76.58,1.72.98,2.17,1.92-.52-.03-.84-.4-1.22-.69-3.63-2.81-7.21-5.69-10.63-8.77-3.38-3.03-6.65-6.17-9.78-9.45-5.67-5.95-10.88-12.28-15.61-19.01-5.08-7.21-9.55-14.77-13.44-22.67-.95-1.93-1.82-3.89-2.75-5.83-.12-.26-.13-.52-.14-.79Z"/>
  <path class="cls-3" d="m86.99,75.92c-.88,1.42-2.34,2.25-3.49,3.4-2.22,2.22-4.63,4.23-6.73,6.57-1.41,1.57-2.94,3.04-4.37,4.6-4.54,4.95-8.79,10.14-12.74,15.57-6.03,8.3-11.25,17.08-15.74,26.3-.14.3-.22.67-.63.75.1-1.13.76-2.04,1.24-2.99,3.52-6.87,7.34-13.56,11.72-19.93,3.42-4.98,7.06-9.78,10.94-14.41,3.73-4.44,7.66-8.71,11.8-12.77,2.38-2.34,4.91-4.54,7.36-6.8.18-.17.36-.31.63-.29Z"/>
  <path class="cls-3" d="m130.22,47.58c-.09.56-.63.59-1,.77-8.49,4.08-16.65,8.74-24.42,14.07-5.42,3.71-10.68,7.63-15.65,11.94-.28.25-.58.49-.99.47.79-1.13,1.95-1.87,2.99-2.72,4.36-3.6,8.9-6.97,13.57-10.14,4.43-3,8.98-5.82,13.64-8.43,3.51-1.97,7.09-3.81,10.71-5.56.36-.18.7-.43,1.14-.39Z"/>
  <path class="cls-3" d="m363.38,106.04c-.7-.37-.98-1.1-1.4-1.69-3.53-5.06-7.32-9.9-11.37-14.54-3.21-3.67-6.52-7.25-10.06-10.6-2.91-2.76-5.85-5.51-8.98-8.03-.26-.21-.56-.41-.61-.79,1.11.3,1.78,1.23,2.58,1.92,4.77,4.12,9.35,8.45,13.64,13.08,3.22,3.48,6.3,7.06,9.25,10.76,2.36,2.95,4.55,6.03,6.7,9.14.16.23.29.46.24.75Z"/>
  <path class="cls-3" d="m390.25,179.24c-.66-.7-.44-1.63-.53-2.43-.9-7.31-2.31-14.51-4.18-21.62-1.45-5.53-3.23-10.96-5.29-16.3-.14-.35-.28-.7-.23-1.09.68.38.66,1.14.9,1.74,2.43,6.01,4.23,12.22,5.82,18.49,1.29,5.08,2.26,10.22,3.01,15.4.25,1.71.41,3.44.66,5.16.03.23.07.48-.17.65Z"/>
  <path class="cls-3" d="m270.51,37.73c-.96.11-1.78-.42-2.64-.68-6.83-2.06-13.76-3.68-20.77-4.95-4.72-.85-9.47-1.53-14.26-1.97-1.11-.1-2.33.2-3.35-.55.36-.43.76-.07,1.14-.04,7.51.57,14.92,1.77,22.29,3.3,5.74,1.19,11.39,2.73,16.99,4.43.26.08.55.12.6.46Z"/>
  <path class="cls-3" d="m330.6,70.11c-1.26-.5-2.15-1.51-3.17-2.32-5.35-4.21-10.94-8.07-16.75-11.63-3.45-2.12-6.99-4.09-10.56-6-.34-.18-.81-.23-.95-.7.81-.04,1.41.48,2.05.83,5.92,3.19,11.68,6.63,17.23,10.42,4.02,2.75,7.91,5.67,11.69,8.74.21.17.43.35.45.65Z"/>
  <path class="cls-3" d="m156.07,365.89c.31-.37.66-.06.94.02,4.81,1.25,9.65,2.37,14.56,3.15,3.72.59,7.44,1.22,11.2,1.56,2.27.21,4.52.57,6.8.61.27,0,.46.1.54.36-1.6.3-3.18-.11-4.75-.26-3.28-.3-6.55-.72-9.8-1.2-3.8-.56-7.59-1.27-11.34-2.11-2.49-.56-4.97-1.18-7.45-1.77-.27-.06-.54-.09-.7-.36Z"/>
  <path class="cls-3" d="m192.37,371.75c1.24-.35,2.52-.19,3.74-.07,2.12.2,4.23.14,6.34.15,3.11.03,6.22.09,9.33-.05,3.5-.15,7-.31,10.49-.71.49-.06,1.01.1,1.51.17-.9.6-1.96.38-2.93.47-7.67.7-15.37.55-23.06.48-1.6-.02-3.19-.14-4.79-.21-.24-.01-.49.01-.64-.23Z"/>
  <path class="cls-3" d="m202.21,29.31c-.82.41-1.74.3-2.58.35-2.85.16-5.7.36-8.53.7-3.4.41-6.81.81-10.18,1.49-2.63.53-5.27,1.03-7.91,1.52-.26.05-.53-.03-.8-.04,1.03-.66,2.25-.66,3.39-.89,4.36-.89,8.74-1.71,13.16-2.22,3.17-.37,6.34-.77,9.54-.89,1.02-.04,2.03-.14,3.05-.19.29-.01.62-.12.86.17Z"/>
  <path class="cls-3" d="m151.38,39.02c-.7.86-1.81.9-2.73,1.23-5.87,2.09-11.61,4.48-17.29,7.06-.3.14-.6.35-.96.21,1.19-1.07,2.74-1.46,4.14-2.1,5.18-2.34,10.48-4.4,15.85-6.25.33-.11.64-.23.99-.16Z"/>
  <path class="cls-3" d="m237.89,369.31c.82-.65,1.85-.56,2.79-.73,6.59-1.2,13.07-2.84,19.49-4.75.64-.19,1.26-.55,1.97-.36-.82.58-1.81.73-2.73,1.01-6.89,2.05-13.88,3.66-20.97,4.89-.2.03-.39.15-.55-.07Z"/>
  <path class="cls-3" d="m262.5,363.39c.04-.43.42-.41.69-.49,5.87-1.8,11.59-3.97,17.24-6.36.37-.16.74-.36,1.18-.28-.31.58-.95.61-1.45.83-5.48,2.41-11.12,4.39-16.81,6.23-.25.08-.53.38-.84.08Z"/>
  <path class="cls-3" d="m368.94,279.12c.28-1.51,1.28-2.69,1.96-4.01,2.04-3.94,4.07-7.88,5.86-11.94.18-.4.15-.98.76-1.1-.22,1.4-.98,2.6-1.55,3.86-1.94,4.24-4.07,8.39-6.39,12.45-.16.29-.23.66-.64.74Z"/>
  <path class="cls-3" d="m378.16,260.45c-.05-.68.33-1.22.56-1.81,1.72-4.53,3.37-9.09,4.91-13.68.32-.94.29-2.01,1.05-2.79,0,1.29-.52,2.45-.91,3.64-.8,2.48-1.68,4.93-2.56,7.38-.74,2.05-1.52,4.08-2.33,6.1-.16.41-.16.97-.71,1.16Z"/>
  <path class="cls-3" d="m299.02,49.41c-.37.07-.66-.12-.96-.27-5.36-2.72-10.82-5.2-16.44-7.33-.2-.07-.38-.16-.47-.37,1.15-.15,2.04.55,3.01.94,4.73,1.91,9.39,3.97,13.92,6.31.34.18.81.22.93.71Z"/>
  <path class="cls-3" d="m96.2,337.75c.39.03.38.29.36.59-.33,3.63-.2,7.25-.03,10.88.12,2.55.04,5.1.05,7.65,0,.12-.1.24-.15.36-.22-.17-.19-.42-.19-.66-.04-5.77-.34-11.54-.2-17.31.01-.51.11-1.01.17-1.52Z"/>
  <path class="cls-3" d="m379.76,137c-.86-.88-1.03-2.11-1.5-3.17-1.77-3.97-3.48-7.97-5.59-11.78-.14-.26-.35-.52-.24-.85.46.11.6.53.78.88,1.84,3.57,3.56,7.2,5.13,10.9.48,1.13.95,2.26,1.42,3.39.09.21.29.42,0,.63Z"/>
  <path class="cls-3" d="m370.78,118.12c-.81-.45-.97-1.36-1.38-2.06-1.77-3.06-3.66-6.05-5.58-9.02-.2-.31-.5-.58-.44-1,.43.02.53.41.71.67,2.29,3.35,4.35,6.85,6.41,10.35.19.33.33.68.28,1.07Z"/>
  <path class="cls-3" d="m43.26,133.28c-.2,1.3-.92,2.4-1.45,3.57-1.29,2.82-2.41,5.7-3.58,8.57-.1.25-.14.54-.48.6-.01-1.31.72-2.38,1.17-3.53.72-1.83,1.47-3.65,2.39-5.4.51-.97.85-2.05,1.33-3.05.14-.29.19-.68.62-.75Z"/>
  <path class="cls-3" d="m32.34,162.83c.4.42.03.83-.06,1.21-.79,3.21-1.56,6.43-2.14,9.69-.05.3-.1.53-.43.58-.08-1.46.39-2.84.69-4.24.47-2.18.99-4.34,1.52-6.5.06-.27.04-.64.43-.74Z"/>
  <path class="cls-3" d="m35.87,151.33c.06.84-.34,1.58-.56,2.34-.63,2.17-1.34,4.33-1.99,6.5-.15.51-.4.97-.64,1.44-.33-.77.18-1.41.37-2.07.74-2.56,1.56-5.09,2.36-7.64.08-.25.08-.56.46-.57Z"/>
  <path class="cls-3" d="m384.93,240.98c-.02-1.42.6-2.7.88-4.06.31-1.5.68-2.98,1.08-4.46.09-.33-.03-.79.45-.96.38.7-.06,1.33-.2,1.96-.54,2.31-1.15,4.61-1.75,6.91-.07.26-.11.55-.45.6Z"/>
  <path class="cls-3" d="m219.43,29.02c-.09.04-.18.11-.27.12-4.01,0-8.02,0-12.02,0,.09-.42.43-.37.73-.37,3.65,0,7.3,0,10.95,0,.24,0,.49-.01.62.26Z"/>
  <path class="cls-3" d="m387.46,231.12c-.5-.31-.1-.69-.04-1,.51-2.7,1.06-5.39,1.6-8.09.02-.12.13-.23.19-.34.37.59,0,1.19-.07,1.75-.31,2.04-.73,4.07-1.15,6.09-.11.54-.35,1.06-.53,1.59Z"/>
  <path class="cls-3" d="m280.38,41.18c-.95,0-1.73-.54-2.59-.82-2.15-.7-4.27-1.47-6.41-2.21-.26-.09-.51-.17-.68-.4.3-.32.59-.03.84.05,2.73.93,5.45,1.89,8.16,2.84.28.1.61.15.68.53Z"/>
  <path class="cls-3" d="m159.99,36.34c-.24.55-.8.43-1.22.58-1.84.62-3.69,1.21-5.55,1.78-.26.08-.54.38-.84.04,2.44-1.09,4.97-1.93,7.61-2.39Z"/>
  <path class="cls-3" d="m229.69,370.6c.36-.79,1.15-.4,1.71-.53,1.34-.32,2.73-.42,4.09-.61.15-.02.26.03.34.15-1.47.75-3.12.68-4.69.92-.46.07-.96.39-1.46.08Z"/>
  <path class="cls-3" d="m167.18,34.52c-.52.6-1.3.46-1.95.66-1.39.43-2.8.79-4.2,1.19-.24.07-.46.15-.64-.09,1.75-.83,3.66-1.15,5.52-1.58.41-.1.83-.35,1.28-.18Z"/>
  <path class="cls-3" d="m96.93,389.02c.36.23.23.6.24.92.02,1.21.07,2.43.02,3.64-.04.86.19,1.65.36,2.46-.52-.23-.6-.77-.63-1.19-.12-1.94-.24-3.89.01-5.83Z"/>
  <path class="cls-3" d="m391.12,199.78c-.13-2.28-.12-4.56,0-6.84.28.09.33.31.33.56,0,1.9,0,3.8,0,5.7,0,.25-.04.48-.32.57Z"/>
  <path class="cls-3" d="m96.46,362.11c.52,1.02.41,2.07.09,3.11-.29-1.03-.18-2.07-.09-3.11Z"/>
  <path class="cls-3" d="m152.13,364.96c.09-.22.25-.34.47-.26.82.31,1.79.22,2.45.93-1.06.15-1.92-.58-2.92-.67Z"/>
  <path class="cls-3" d="m96.68,375.44c.48.89.4,1.8.07,2.71-.27-.9-.19-1.8-.07-2.71Z"/>
  <path class="cls-3" d="m204.87,29.09c-.72.37-1.47.45-2.25.25.68-.7,1.48-.38,2.25-.25Z"/>
  <path class="cls-3" d="m390.91,205.73c-.05-.84-.21-1.68.13-2.49.28.85.47,1.69-.13,2.49Z"/>
  <path class="cls-3" d="m391.04,189.9c-.34-.82-.19-1.66-.12-2.5.58.81.41,1.65.12,2.5Z"/>
  <path class="cls-3" d="m97.99,396.46c.78.16,1.56.23,2.33-.03-.81.75-1.46.76-2.33.03Z"/>
  <path class="cls-3" d="m371.79,119.98c-.66-.44-.89-1.12-1.01-1.85.7.42.83,1.15,1.01,1.85Z"/>
  <path class="cls-3" d="m390.83,186.21c-.33-.61-.2-1.25-.11-1.89.51.6.4,1.24.11,1.89Z"/>
  <path class="cls-3" d="m94.69,336.62c.72.09,1.24.43,1.5,1.13-.64-.19-1.13-.58-1.5-1.13Z"/>
  <path class="cls-3" d="m390.72,208.61c-.09-.57-.22-1.14.1-1.68.3.58.42,1.15-.1,1.68Z"/>
  <path class="cls-3" d="m390.68,183.75c-.4-.45-.24-.97-.16-1.48.47.45.43.95.16,1.48Z"/>
  <path class="cls-3" d="m390.52,210.86c-.08-.44-.22-.88.14-1.27.24.46.35.9-.14,1.27Z"/>
  <path class="cls-3" d="m389.69,218.45c-.08-.37-.19-.74.13-1.06.3.4.34.76-.13,1.06Z"/>
  <path class="cls-3" d="m190.73,371.66c.38-.38.74-.38,1.06.07-.36.08-.73.24-1.06-.07Z"/>
  <path class="cls-3" d="m390.46,181.09c-.35-.31-.23-.69-.15-1.07.46.3.43.66.15,1.07Z"/>
  <path class="cls-3" d="m224.61,29.26c-.37.11-.73.2-1.07-.08.39-.35.74-.33,1.07.08Z"/>
  <path class="cls-3" d="m227.68,29.47c-.3.11-.6.18-.87-.09.33-.33.62-.29.87.09Z"/>
  <path class="cls-3" d="m390.31,212.92c-.09-.31-.17-.62.14-.86.29.34.27.63-.14.86Z"/>
  <path class="cls-3" d="m390.11,214.97c-.09-.31-.16-.61.13-.86.31.34.27.63-.13.86Z"/>
  <path class="cls-3" d="m389.92,216.61c-.11-.31-.18-.61.1-.87.31.33.29.62-.1.87Z"/>
  <path class="cls-3" d="m93.87,336c.44-.1.62.13.67.52-.36,0-.57-.2-.67-.52Z"/>
  <path class="cls-3" d="m389.28,221.11c-.09-.25-.12-.48.13-.65.31.29.22.5-.13.65Z"/>
  <path class="cls-3" d="m228.25,370.76c.18-.28.42-.2.66-.13-.17.31-.38.41-.66.13Z"/>
  <path class="cls-3" d="m167.97,34.27c-.09.21-.17.49-.41.1.11-.16.26-.13.41-.1Z"/>
  <path class="cls-3" d="m389.51,219.49c-.1-.18-.1-.34.09-.46.31.22.14.35-.09.46Z"/>
  <path class="cls-3" d="m38.79,265.37c.22.09.21.26.15.44-.22-.09-.44-.18-.15-.44Z"/>
  <path class="cls-3" d="m38.37,264.34c.22.09.21.26.15.44-.22-.09-.44-.18-.15-.44Z"/>
  <path class="cls-3" d="m224.76,371.16c.12-.21.28-.18.46-.09-.12.22-.25.36-.46.09Z"/>
  <path class="cls-3" d="m379.97,137.63c-.24-.09-.44-.19-.12-.43.18.1.17.26.12.43Z"/>
  <path class="cls-3" d="m172.03,33.41c-.02.05-.05.11-.07.16-.03-.05-.05-.11-.08-.16.05-.02.1-.02.15,0Z"/>
  <path class="cls-1" d="m256.39,256.79c-.63.47-1.26.94-1.88,1.41-.65-.03-1.05.43-1.48.79-1.42,1.2-2.94,2.26-4.47,3.31-.86.59-1.9,1.05-2.42,2.07-.03.04-.06.09-.09.13-.34-.03-.56.16-.82.34-1.99,1.36-3.9,2.84-5.82,4.29-2.24,1.69-4.57,3.28-6.84,4.95-2.3,1.69-4.59,3.38-6.89,5.06-1.26.92-2.59,1.77-3.6,2.99,0,0-.02.02-.02.02-.39.03-.68.28-.98.49-1.74,1.22-3.42,2.53-5.18,3.73-2.68,1.83-5.09,4.02-7.84,5.76-.95.6-1.71,1.4-2.81.36-.07-.07-.26,0-.4-.01-.14-.14-.28-.28-.43-.41-.12-.57-.64-.76-1.04-1.04-1-.7-2.15-1.22-3.02-2.06-1.92-1.86-4.29-3.07-6.33-4.76-2.19-1.82-4.51-3.49-6.84-5.13-1.44-1.01-2.71-2.28-4.42-2.87-.99-.73-1.97-1.46-2.96-2.18.02-.45-.32-.64-.63-.85-.9-.61-1.84-1.17-2.68-1.86-4.09-3.31-8.56-6.12-12.65-9.42-1.95-1.58-4.19-2.75-6.07-4.42-.47-.42-.91-1.09-1.74-.88-.19-.16-.38-.33-.56-.49-.11-.13-.21-.26-.32-.39-1.54-1.65-3.63-2.59-5.3-4.07-.51-.45-.99-1.06-1.8-1-.21-.14-.42-.28-.63-.42.04-.41-.26-.59-.53-.8-4.62-3.57-9.5-6.78-14.1-10.38-.77-.6-1.47-1.44-2.57-1.53-.25-.16-.51-.33-.76-.49-.63-1.02-1.67-1.49-2.65-2.04-.14-.07-.28-.14-.42-.22-.54-.91-1.49-1.38-2.25-2.05-.48-.43-.94-1-1.71-.94l-1.41-1.06c-.35-.74-1.03-1.32-1.04-2.24,0-.71-.13-1.42-.19-2.13-.49-5.51-.98-11.03-1.47-16.54-.02-.27.01-.57-.36-.63-.02-.2-.04-.41-.06-.61.3-.45.41-.89-.12-1.26-.03-.33-.06-.66-.09-1,.34-.22.2-.54.17-.84-.18-1.86-.38-3.72-.56-5.57-.3-3.18-.57-6.36-.87-9.54-.38-4.02-.79-8.04-1.18-12.06-.33-3.41-.64-6.83-1.01-10.24-.17-1.53.02-2.79,1.53-3.62,1.01-.55,1.95-1.24,2.88-1.92.39-.28.93-.49.93-1.12h0c1.1-.39,2.06-.99,2.71-2,.26-.16.52-.31.78-.47.92-.29,1.6-.92,2.26-1.57.2-.17.39-.34.59-.51.6.12.95-.33,1.34-.62.92-.7,1.79-1.49,2.74-2.11,2.6-1.68,5.03-3.6,7.56-5.38.68-.48,1.61-.78,1.88-1.73.28-.21.56-.41.84-.62,1.16-.31,2.12-.9,2.69-2.01.49-.16.83-.54,1.21-.86.5.11.84-.2,1.19-.46,1.67-1.22,3.34-2.44,5.02-3.65,4.77-3.46,9.55-6.91,14.31-10.39.3-.22.76-.38.78-.88.03-.04.06-.09.09-.13,1.07-.34,1.85-1.13,2.69-1.8.77-.62,1.44-.82,2.09.12,2.07,2.54,4.14,5.09,6.21,7.63.06.08.16.12.24.18.03.54.28.9.83,1.02,0,0,0,0,0,0,.68,1.39,1.65,2.54,2.84,3.51.3.39.6.78.9,1.16.03.13.02.3.1.39,1.54,1.81,2.87,3.8,4.66,5.39.72.89,1.44,1.78,2.16,2.67.07.15.1.33.21.45,1.61,2.03,3.19,4.1,4.88,6.07.5.59.78,1.46,1.68,1.68,0,0,0,0,0,0,0,.43.13.76.62.82.07.07.13.14.2.21.28,1.19,1.3,1.86,2.04,2.69.54.6.74,1.56,1.65,1.82,0,0,0,0,0,0-.04.43.25.68.5.96,1.41,1.57,2.76,3.17,3.92,4.95,1.18,1.81,3.21,2.19,4.48.76.81-.92,1.62-1.92,2.02-3.15.48-.62.96-1.23,1.45-1.85.39-.03.6-.24.58-.64,0,0,0,0,0,0,.4,0,.6-.31.81-.56,2.44-2.97,4.88-5.93,7.28-8.92.65-.81,1.48-1.52,1.78-2.57.14-.21.28-.41.42-.62.66-.14.97-.71,1.37-1.15,2.48-2.75,4.55-5.84,7.03-8.59.39-.43,1.08-.81.94-1.6.22-.26.45-.52.67-.78,1.01-.55,1.69-1.37,2.04-2.47.05-.04.11-.09.16-.13.69-.79,1.58-1.43,1.92-2.49.25-.25.58-.43.62-.83.47-.09.76-.35.77-.86h0c1.38-1.39,2.71-2.82,3.9-4.37,1.12-1.47,1.11-1.48,2.75-.61.14.08.33.06.49.09,1.06.8,2.11,1.59,3.17,2.39.4.91,1.33,1.22,2.04,1.74,1.22.88,2.35,1.93,3.81,2.44.3.25.61.5.91.75.01.47.43.58.72.79,1.2.87,2.43,1.69,3.63,2.57.7.51,1.26,1.23,2.17,1.4h0c.05.29.17.46.48.25.57.65,1.32,1.08,2.02,1.56-.02.34.25.46.47.61,2.57,1.88,5.15,3.76,7.73,5.63.15.11.38.1.58.15h0c.01.32.24.45.47.62,2.04,1.48,4.05,3.01,6.11,4.45.82.58,1.56,1.33,2.61,1.52.29.5.89.61,1.28.98.03.52.38.62.81.63,0,0,0,0,0,0,.06.49.39.62.82.61h0c.02.4.32.4.6.43.19.16.38.33.57.49.67.56,1.32,1.15,2.02,1.66,3.11,2.25,6.24,4.47,9.36,6.71.62.44,1.16.92,1,1.84-.14.77-.16,1.56-.24,2.34-.33,3.45-.67,6.91-1,10.36-.28,2.91-.55,5.83-.84,8.74-.32,3.28-.66,6.57-.98,9.85-.27,2.77-.58,5.55-.78,8.33-.07.99-.31,1.99-.08,2.99-.02.47-.04.93-.06,1.4-.35.17-.48.37-.1.65-.04.54-.07,1.07-.11,1.61-.36.17-.45.38-.1.65-.03.47-.06.94-.09,1.41-.45.23-.44.51-.12.85-.03.47-.06.94-.09,1.41-.29.08-.31.31-.33.56-.28,3.18-.55,6.36-.86,9.53-.11,1.16-.06,2.42-1.27,3.15-1.98,1.2-3.78,2.65-5.62,4.04-1.29.97-2.73,1.75-3.82,2.98-.25.24-.5.48-.75.72-.59-.12-.94.33-1.34.62-3.02,2.19-6.04,4.37-9.01,6.62-1.12.85-2.44,1.48-3.25,2.72l-.63.42c-.18.09-.38.15-.54.26-2.83,2.03-5.68,4.06-8.49,6.13-.69.51-1.57.81-1.96,1.68Z"/>
  <path class="cls-3" d="m294.9,209.38c-.23-1,0-2,.08-2.99.2-2.78.5-5.55.78-8.33.32-3.28.66-6.57.98-9.85.29-2.91.56-5.83.84-8.74.33-3.45.67-6.91,1-10.36.08-.78.1-1.57.24-2.34.16-.92-.39-1.4-1-1.84-3.12-2.24-6.25-4.46-9.36-6.71-.71-.51-1.35-1.11-2.02-1.66.38-.2.64.05.92.25,2.96,2.17,6.04,4.18,8.86,6.55.72.61,1.58,1.05,2.38,1.56.54.34.83.82.77,1.45-.31,3.11-.64,6.22-.95,9.33-.24,2.47-.44,4.94-.67,7.41-.32,3.35-.66,6.69-.98,10.04-.23,2.47-.45,4.94-.67,7.41-.22,2.47-.4,4.94-.66,7.41-.05.48-.34.93-.53,1.39Z"/>
  <path class="cls-3" d="m119.57,161.4c0,.63-.54.84-.93,1.12-.93.68-1.87,1.37-2.88,1.92-1.5.83-1.7,2.09-1.53,3.62.37,3.41.68,6.82,1.01,10.24.39,4.02.8,8.04,1.18,12.06.3,3.18.57,6.36.87,9.54.17,1.86.38,3.72.56,5.57.03.29.16.61-.17.84-.56-1.47-.57-3.04-.73-4.57-.35-3.41-.67-6.83-1-10.24-.23-2.44-.43-4.88-.66-7.31-.31-3.14-.66-6.28-.96-9.43-.26-2.81-.46-5.62-.69-8.43-.05-.53.14-.94.56-1.24,1.78-1.24,3.42-2.68,5.37-3.68Z"/>
  <path class="cls-3" d="m222.07,282.13c1.01-1.22,2.34-2.07,3.6-2.99,2.3-1.68,4.59-3.37,6.89-5.06,2.27-1.67,4.6-3.25,6.84-4.95,1.92-1.45,3.83-2.93,5.82-4.29.26-.18.48-.37.82-.34-.26.79-1.01,1.09-1.6,1.47-2.99,1.94-5.68,4.28-8.64,6.28-2.01,1.35-3.91,2.92-5.86,4.39-2.33,1.75-4.69,3.46-7.03,5.2-.26.2-.52.31-.84.29Z"/>
  <path class="cls-3" d="m156.04,256.59c.83-.21,1.27.47,1.74.88,1.88,1.67,4.12,2.84,6.07,4.42,4.09,3.3,8.56,6.11,12.65,9.42.84.68,1.78,1.25,2.68,1.86.31.21.65.39.63.85-1.49-.68-2.75-1.71-4.05-2.67-3.57-2.63-7.13-5.26-10.7-7.88-2.51-1.84-5.03-3.67-7.53-5.52-.54-.4-.99-.9-1.49-1.35Z"/>
  <path class="cls-3" d="m182.77,276.2c1.71.59,2.98,1.87,4.42,2.87,2.34,1.63,4.65,3.31,6.84,5.13,2.04,1.69,4.41,2.91,6.33,4.76.86.83,2.02,1.36,3.02,2.06.4.28.92.47,1.04,1.04-1.1-.24-1.9-1.02-2.75-1.63-2.7-1.94-5.31-3.99-7.98-5.97-2.04-1.51-4.11-2.96-6.16-4.44-1.42-1.03-2.82-2.09-4.25-3.12-.26-.19-.52-.33-.51-.7Z"/>
  <path class="cls-3" d="m282.34,237.61c1.09-1.23,2.53-2.01,3.82-2.98,1.84-1.39,3.64-2.84,5.62-4.04,1.21-.73,1.16-1.99,1.27-3.15.31-3.17.58-6.35.86-9.53.02-.25.05-.48.33-.56.21,1.88-.14,3.74-.26,5.6-.13,1.93-.41,3.85-.53,5.78-.05.86-.34,1.46-1.04,1.97-2.75,1.99-5.46,4.03-8.2,6.02-.55.4-1.04,1.02-1.86.89Z"/>
  <path class="cls-3" d="m165.46,128.14c-.03.5-.48.65-.78.88-4.76,3.48-9.54,6.93-14.31,10.39-1.68,1.21-3.35,2.44-5.02,3.65-.36.26-.7.57-1.19.46,1.5-1.6,3.4-2.68,5.12-4,1.43-1.09,3-1.97,4.43-3.08,2.41-1.88,4.88-3.68,7.34-5.48,1.29-.94,2.7-1.69,3.92-2.73.11-.09.32-.07.49-.1Z"/>
  <path class="cls-3" d="m117.94,209.17c.37.07.34.36.36.63.49,5.51.98,11.03,1.47,16.54.06.71.19,1.42.19,2.13,0,.92.69,1.5,1.04,2.24-.74-.09-1.33-.64-1.4-1.36-.27-2.63-.6-5.26-.78-7.9-.26-3.79-.9-7.56-.91-11.37,0-.31.02-.61.03-.92Z"/>
  <path class="cls-3" d="m130.21,237.51c1.1.09,1.8.93,2.57,1.53,4.6,3.6,9.48,6.81,14.1,10.38.27.21.57.39.53.8-1.79-.8-3.18-2.16-4.73-3.31-3.11-2.29-6.26-4.52-9.36-6.82-1.08-.8-2.2-1.58-3.12-2.58Z"/>
  <path class="cls-3" d="m204.85,292.47c.13,0,.32-.06.4.01,1.1,1.04,1.86.24,2.81-.36,2.75-1.74,5.16-3.93,7.84-5.76,1.75-1.2,3.43-2.51,5.18-3.73.31-.21.59-.46.98-.49-.69,1.14-1.91,1.69-2.91,2.46-2.59,1.99-5.26,3.87-7.89,5.8-1.28.94-2.64,1.75-3.84,2.82-1.04.93-1.3.79-2.57-.76Z"/>
  <path class="cls-3" d="m268,248.3c.81-1.24,2.13-1.87,3.25-2.72,2.97-2.25,5.99-4.43,9.01-6.62.39-.29.74-.74,1.34-.62-1.28,1.05-2.49,2.19-3.84,3.12-2.87,1.98-5.53,4.24-8.4,6.22-.41.28-.77.69-1.35.62Z"/>
  <path class="cls-3" d="m222.34,150.99c-.31,1.05-1.13,1.76-1.78,2.57-2.4,3-4.84,5.96-7.28,8.92-.21.25-.41.57-.81.56.32-1.24,1.34-2,2.08-2.93,2.27-2.86,4.62-5.66,6.93-8.5.24-.29.41-.63.85-.63Z"/>
  <path class="cls-3" d="m139.42,147.01c-.28.95-1.2,1.25-1.88,1.73-2.53,1.77-4.95,3.7-7.56,5.38-.95.61-1.82,1.41-2.74,2.11-.39.3-.74.74-1.34.62,1.14-1.23,2.49-2.21,3.85-3.14,2.95-2,5.86-4.05,8.65-6.29.31-.25.62-.41,1.01-.42Z"/>
  <path class="cls-3" d="m210.44,165.55c-.4,1.22-1.2,2.23-2.02,3.15-1.27,1.43-3.3,1.05-4.48-.76-1.16-1.78-2.51-3.38-3.92-4.95-.25-.28-.54-.54-.5-.96,1.31.85,2.15,2.16,3.12,3.32.67.8,1.32,1.63,1.87,2.54.92,1.51,3.05,1.4,3.98-.1.53-.84.87-1.86,1.94-2.25Z"/>
  <path class="cls-3" d="m232.11,139.02c.13.79-.55,1.17-.94,1.6-2.48,2.75-4.55,5.84-7.03,8.59-.4.44-.71,1.01-1.37,1.15.39-1.08,1.28-1.81,1.96-2.68,1.63-2.09,3.29-4.16,5.03-6.15.75-.86,1.43-1.81,2.36-2.51Z"/>
  <path class="cls-3" d="m256.39,256.79c.39-.87,1.27-1.17,1.96-1.68,2.81-2.07,5.65-4.09,8.49-6.13.16-.11.36-.18.54-.26-.07.83-.86,1-1.36,1.39-2.47,1.88-4.99,3.7-7.49,5.54-.65.48-1.32.94-2.13,1.14Z"/>
  <path class="cls-3" d="m282.34,153.44c-1.05-.2-1.79-.95-2.61-1.52-2.06-1.45-4.07-2.97-6.11-4.45-.23-.17-.46-.3-.47-.62,1.31.61,2.49,1.43,3.65,2.27,1.59,1.15,3.19,2.28,4.75,3.45.3.23.75.38.78.87Z"/>
  <path class="cls-3" d="m273.16,146.84c-.19-.05-.43-.04-.58-.15-2.58-1.87-5.16-3.75-7.73-5.63-.21-.16-.49-.28-.47-.61,1.73.55,3.05,1.76,4.41,2.87.92.75,2,1.25,2.9,2.01.54.46,1.1.89,1.47,1.51Z"/>
  <path class="cls-3" d="m195.03,156.48c-.9-.22-1.18-1.09-1.68-1.68-1.68-1.97-3.26-4.04-4.88-6.07-.1-.13-.14-.3-.21-.45.22.06.49.02.66.24,1.97,2.6,4.26,4.95,6.07,7.67.05.07.02.2.03.3Z"/>
  <path class="cls-3" d="m245.43,126.58c-.17-.03-.35-.02-.49-.09-1.64-.88-1.62-.87-2.75.61-1.19,1.56-2.52,2.99-3.9,4.37.13-.95.91-1.47,1.43-2.15,1.06-1.36,2.17-2.68,3.26-4.01.17-.21.46-.5.68-.29.57.54,1.52.65,1.76,1.56Z"/>
  <path class="cls-3" d="m246.13,264.38c.52-1.02,1.56-1.48,2.42-2.07,1.54-1.05,3.05-2.11,4.47-3.31.43-.36.83-.82,1.48-.79-1.3,1.67-3.16,2.65-4.82,3.87-1.13.84-2.1,1.96-3.56,2.3Z"/>
  <path class="cls-3" d="m148.05,250.64c.82-.06,1.3.56,1.8,1,1.68,1.48,3.76,2.42,5.3,4.07.11.12.22.26.32.39-.33.06-.59-.08-.84-.28-2.03-1.62-4.25-2.99-6.2-4.72-.15-.13-.27-.3-.4-.46Z"/>
  <path class="cls-3" d="m186.1,145.61c-1.8-1.59-3.13-3.58-4.66-5.39-.08-.09-.07-.26-.1-.39,1.34.63,1.98,1.95,2.92,2.98.66.72,1.24,1.5,1.86,2.26.15.19.35.37-.02.54Z"/>
  <path class="cls-3" d="m261.88,138.64c-.91-.17-1.47-.89-2.17-1.4-1.19-.88-2.43-1.7-3.63-2.57-.29-.21-.71-.32-.72-.79,2.5,1.14,4.65,2.76,6.52,4.75Z"/>
  <path class="cls-3" d="m254.45,133.14c-1.46-.51-2.59-1.56-3.81-2.44-.72-.52-1.65-.83-2.04-1.74,2.23,1.01,4.17,2.41,5.85,4.18Z"/>
  <path class="cls-3" d="m170.32,126.33c-.65-.94-1.31-.74-2.09-.12-.84.67-1.62,1.46-2.69,1.8-.03-.47.38-.59.66-.8.81-.6,1.62-1.19,2.43-1.8.74-.56,1.68-.15,1.83.81,0,.03-.1.07-.15.11Z"/>
  <path class="cls-3" d="m199.54,162.02c-.91-.26-1.11-1.22-1.65-1.82-.74-.82-1.76-1.5-2.04-2.69,1.52,1.26,2.87,2.67,3.69,4.51Z"/>
  <path class="cls-3" d="m122.42,231.77c.77-.06,1.22.51,1.71.94.76.67,1.71,1.14,2.25,2.05-1.55-.69-2.76-1.84-3.96-2.99Z"/>
  <path class="cls-3" d="m180.43,138.67c-1.19-.97-2.16-2.12-2.84-3.51.71.04.89.71,1.2,1.14.56.78,1.51,1.29,1.64,2.37Z"/>
  <path class="cls-3" d="m122.27,159.4c-.65,1.01-1.6,1.61-2.71,2,.73-.9,1.63-1.57,2.71-2Z"/>
  <path class="cls-3" d="m234.82,135.77c-.35,1.1-1.03,1.92-2.04,2.47.48-.99,1.14-1.83,2.04-2.47Z"/>
  <path class="cls-3" d="m142.95,144.38c-.57,1.11-1.53,1.7-2.69,2.01.8-.8,1.7-1.47,2.69-2.01Z"/>
  <path class="cls-3" d="m126.79,234.98c.98.56,2.03,1.03,2.65,2.04-1.04-.47-2.04-1.01-2.65-2.04Z"/>
  <path class="cls-3" d="m236.9,133.15c-.34,1.06-1.23,1.7-1.92,2.49.27-1.11.95-1.91,1.92-2.49Z"/>
  <path class="cls-3" d="m125.31,157.36c-.66.66-1.34,1.29-2.26,1.57.53-.85,1.23-1.45,2.26-1.57Z"/>
  <path class="cls-3" d="m117.77,207.3c.53.37.41.81.12,1.26-.3-.4-.18-.83-.12-1.26Z"/>
  <path class="cls-3" d="m177.59,135.16c-.55-.12-.79-.48-.83-1.02.45.2.79.48.83,1.02Z"/>
  <path class="cls-3" d="m238.3,131.46c-.02.51-.3.76-.77.86.04-.48.29-.78.77-.86Z"/>
  <path class="cls-3" d="m284.43,155.05c-.43,0-.78-.11-.81-.63.43,0,.65.27.81.63Z"/>
  <path class="cls-3" d="m294.33,215.94c-.33-.33-.33-.62.12-.85.08.3.15.6-.12.85Z"/>
  <path class="cls-3" d="m285.26,155.66c-.43,0-.76-.12-.82-.61.45-.04.66.26.82.61Z"/>
  <path class="cls-3" d="m195.65,157.3c-.49-.05-.62-.39-.62-.82.36.15.64.37.62.82Z"/>
  <path class="cls-3" d="m212.47,163.05c.02.4-.19.61-.58.64.01-.38.17-.62.58-.64Z"/>
  <path class="cls-3" d="m294.75,211.43c-.38-.28-.25-.48.1-.65.09.23.12.46-.1.65Z"/>
  <path class="cls-3" d="m294.54,213.69c-.35-.27-.26-.48.1-.65.09.24.13.46-.1.65Z"/>
  <path class="cls-3" d="m285.86,156.08c-.28-.03-.58-.03-.6-.43.32-.03.54.09.6.43Z"/>
  <path class="cls-3" d="m262.36,138.89c-.31.2-.43.04-.48-.25.22-.03.39.03.48.25Z"/>
</svg>