<?xml version="1.0" encoding="UTF-8"?>
<svg id="_图层_1" data-name="图层 1" xmlns="http://www.w3.org/2000/svg" viewBox="0 0 420 420">
  <defs>
    <style>
      .cls-1 {
        fill: #fff;
      }

      .cls-2 {
        fill: #27e101;
      }

      .cls-3 {
        fill: #28e102;
      }
    </style>
  </defs>
  <path class="cls-1" d="m.02.02C139.7.02,279.38.02,419.06,0c.77,0,.94.17.94.94-.02,139.37-.02,278.74,0,418.12,0,.77-.17.94-.94.94-139.37-.02-278.74-.02-418.12,0-.77,0-.94-.17-.94-.94C.02,279.38.02,139.7.02.02Zm108.69,339.16h0c.13.25.33.39.61.41h.01c.16.32.49.41.77.57.97.55,1.92,1.13,2.91,1.64.51.26.78.87,1.42.89.16.33.52.38.8.55.28.03.35.48.71.35.42.32.85.62,1.39.71,1.08.49,2.16.99,3.24,1.48.37.65,1.1.68,1.68.97.2.09.36.31.62.24.07.21.22.23.41.15,2.11.84,4.21,1.68,6.32,2.53.45.31.95.46,1.48.57.07,0,.14,0,.22.01.07.21.21.25.4.16l2.15.52c.22.59.75.38,1.17.47,3.64.94,7.31,1.81,11.03,2.39.08.23.25.18.42.15.21,0,.42,0,.63,0,.18.4.52.19.81.2.22-.01.43-.03.65-.04.24.47.65.21.99.24.28-.01.57-.02.85-.04.32.49.79.19,1.2.24.36.06.73.07,1.08-.07.67.6,1.47.2,2.2.28,2.48.01,4.96.06,7.44.03,3.59-.05,7.13-.52,10.64-1.29,2.09-.46,4.21-.76,6.28-1.29,3.57-.91,6.93-2.43,10.36-3.75,1.04-.4,1.36-1.17,1.06-2.26-.33-1.2-1.43-1.74-2.19-2.51-1.91-1.95-3.86-3.86-5.79-5.79-4.3-4.31-8.6-8.62-12.87-12.96-3.04-3.09-6.1-6.14-9.14-9.23-1.49-1.52-3.07-2.98-4.56-4.52-1.9-1.96-3.93-3.79-5.8-5.78-2.64-2.79-5.36-5.49-8.08-8.21.15-.31,0-.39-.28-.37-1.76-1.69-3.59-3.31-5.26-5.08-1.99-2.09-4.14-4.01-6.05-6.17-1.38-1.56-2.88-3.02-4.41-4.42-1.79-1.63-3.3-3.5-4.99-5.21-1.42-1.43-2.93-2.77-4.33-4.22-1.97-2.06-3.95-4.14-5.99-6.12-2.75-2.67-5.38-5.46-8.2-8.06-2.51-2.31-4.87-4.78-7.23-7.24-2.46-2.57-4.94-5.13-7.42-7.67-2.78-2.85-5.61-5.67-8.46-8.46-1.54-1.51-2.91-3.2-4.75-4.39-.57-.37-1.1-.69-1.79-.4-.31-.11-.51.02-.62.31-1.05.32-1.26,1.38-1.84,2.11-.43.18-.7.45-.53.97-.31.86-.62,1.72-.94,2.57-.6.67-.87,1.47-.93,2.35-.7,3.34-1.6,6.64-2.13,10.03-.12.02-.19.09-.16.22-.02.34-.03.68-.05,1.03-.24.07-.19.24-.16.41-.04.83-.08,1.66-.12,2.5-.4.24-.33.62-.29.99-.01.48-.02.96-.03,1.44-.38.29-.15.68-.17,1.02,0,3.55,0,7.11,0,10.66.02.35-.2.74.17,1.03.01.55.03,1.09.04,1.64,0,.22-.15.48.16.62.08.96.16,1.91.25,2.87-.03.17-.08.35.16.42-.08.86.27,1.65.41,2.48,1.41,8.27,3.94,16.19,7.55,23.76.4,1.35.89,2.65,1.89,3.7.78,1.5,1.56,3,2.34,4.51-.06.43.21.64.54.8-.01.37.36.53.46.84-.12.49.38.51.57.76-.06.4.27.62.45.88,1.19,1.73,2.43,3.42,3.65,5.13.02.27.15.46.42.53,0,.14.05.25.2.29.01.27.16.43.43.47-.03.23.15.36.26.53.88,1.29,2.03,2.34,2.99,3.55,1.2,1.51,2.43,2.99,3.87,4.28.04.26.24.39.43.53.64.64,1.28,1.28,1.92,1.92.21.25.39.54.74.64.78.79,1.42,1.73,2.47,2.21-.04.3.17.39.4.45.71.78,1.47,1.5,2.41,2.01.03.27.2.41.46.45.41.52.94.88,1.51,1.2.08.27.28.39.54.44.64.48,1.27.95,1.91,1.43-.03.12,0,.18.13.11,1.22.85,2.44,1.69,3.66,2.54-.02.19.12.19.25.2ZM258.6,51.28c-.13,0-.2.07-.19.21-.12.1-.37-.05-.42.2-.13,0-.2.07-.2.21-.13.09-.37-.03-.42.21-.13,0-.2.06-.2.2-.58.02-.77.63-1.24.81-.13.02-.2.08-.19.21-.7.2-1.08.84-1.65,1.22-.35.1-.62.31-.82.62-.83.68-1.8,1.19-2.46,2.07-.24.07-.52.09-.6.4-.31.23-.65.44-.93.71-1.38,1.3-3.03,2.3-4.21,3.81-.24.08-.52.09-.58.41-.51.32-.95.71-1.26,1.24-.34.1-.63.25-.75.62-1.97,1.67-3.92,3.36-5.61,5.33-.29.13-.63.21-.64.62-.07.01-.15,0-.2.04-2.23,2.07-4.38,4.22-6.44,6.46-.06.07-.07.19-.1.29-.43.1-.69.38-.85.77-1.07,1.06-2.3,1.97-3.05,3.33-.44.09-.68.39-.85.77-.6.53-1.22,1.03-1.6,1.76-.37.09-.54.37-.66.7-.45.39-.94.75-1.19,1.33-.34.13-.54.39-.66.72-.39.31-.78.62-.99,1.1-.32.05-.3.35-.41.55-.6.43-1.13.91-1.42,1.61-.3,0-.4.19-.45.44-.27.18-.53.38-.58.74-.35.11-.53.38-.65.7-.27.18-.53.37-.58.73-.29.04-.4.24-.45.5h0c-.4.03-.64.19-.53.64-.19.05-.24.19-.25.36-.28.02-.4.19-.44.44-.31.17-.49.45-.59.78-.49.09-.81.32-.72.88-.66.51-1.08,1.22-1.54,1.9-.27.07-.4.27-.43.54-.7.48-.95,1.29-1.42,1.93-.46.61-.74.5-1.1-.07-.44-.71-.94-1.38-1.42-2.06.04-.14-.04-.18-.16-.18-.52-.62-.93-1.35-1.46-1.93-1.89-2.03-3.59-4.22-5.45-6.28-1.59-1.75-3.11-3.58-4.69-5.36-.87-.98-1.89-1.84-2.69-2.83-1.98-2.46-4.43-4.45-6.49-6.81-1.26-1.45-2.81-2.66-4.16-4.03-2.17-2.2-4.45-4.27-6.67-6.4.04-.14-.05-.19-.16-.22-1.95-1.7-3.9-3.41-5.87-5.1-1.39-1.19-2.82-2.34-4.23-3.5.03-.13-.02-.19-.15-.15-2.11-1.7-4.25-3.37-6.58-4.77,0-.12-.04-.2-.18-.15-.34-.23-.68-.45-1.02-.68-.03-.1-.07-.2-.21-.14-1.64-.84-3.18-1.9-4.94-2.52,0-.12-.04-.21-.19-.15-.09-.01-.18-.03-.27-.04-.02-.05-.03-.11-.05-.16-.02.05-.04.1-.07.16-1.64-.44-3.29-.56-4.96-.22-.14-.07-.27-.08-.4.03-.35,0-.69,0-1.04,0-.18-.03-.37-.06-.39.21-.5.06-1.03.03-1.5.19-2.43.86-4.79,1.84-6.98,3.24-3.84,2.45-7.44,5.22-10.77,8.31-2.12,1.96-4.07,4.09-6.09,6.15-1.86,1.89-3.73,3.78-5.57,5.69-.34.36-.94.43-1.09.99-.3.12-.64.2-.65.63-.39.02-.56.34-.79.58-1.85,1.87-3.69,3.75-5.53,5.63-.33.04-.55.2-.64.53-.06.07-.12.15-.18.22-.17.11-.5.04-.43.41-.42.34-.87.64-1.24,1.02-1.34,1.35-2.66,2.71-3.96,4.1-.48.52-1.21.76-1.54,1.44-.47.23-.91.51-1.08,1.05-.35.02-.52.3-.72.51-.87.9-1.7,1.82-2.58,2.7-1.11,1.11-2.25,2.2-3.38,3.29-.38.07-.61.31-.73.66-.71.42-1.25,1.01-1.75,1.65-.3-.04-.43.08-.37.39-.49.5-.96,1.01-1.46,1.5-1.02,1.01-2.06,2.01-3.09,3.01-.16.12-.5.04-.42.41-.42.34-.85.66-1.25,1.02-1.39,1.26-2.58,2.7-3.92,4.01-8.2,7.92-16.29,15.94-24.55,23.79-3.19,3.03-5.8,6.3-6.96,10.61-.43,1.6-.8,3.22-1.05,4.85-.31.14-.17.4-.16.62-.06,2.11-.19,4.23-.07,6.34.07,1.23.35,2.43.51,3.65.31,2.29.93,4.48,1.87,6.58.61,1.35,1.74,2.31,2.75,3.35,10.82,11.05,21.64,22.1,32.46,33.15,6.27,6.4,12.51,12.85,18.85,19.18,3.42,3.42,6.6,7.06,10.13,10.37,3.78,3.54,7.11,7.52,10.85,11.1,2.18,2.09,4.28,4.26,6.31,6.5,3.44,3.77,7.28,7.16,10.75,10.91,2.77,3,5.72,5.84,8.62,8.71.91.9,1.55,2.06,2.67,2.75-.07.12-.11.25.04.32.06.03.17-.03.25-.06,1.1,1.13,2.16,2.28,3.29,3.37,2.87,2.77,5.45,5.81,8.33,8.57,2.5,2.4,4.9,4.92,7.27,7.46,2.72,2.92,5.63,5.65,8.42,8.5,1.31,1.34,2.45,2.84,3.93,4.02-.09.32.02.43.34.32.05.26.18.44.44.51-.04.42.16.61.58.57,1.98,2.04,4.04,4.02,5.95,6.13,1.29,1.44,2.65,2.83,4.11,4.13,1.68,1.5,3.28,3.1,4.77,4.78,1.82,2.05,3.7,4.04,5.7,5.92-.05.3.08.43.38.38,1.12,1.13,2.38,2.15,3.32,3.41.83,1.11,1.72,1.56,3.02,1.32.31.04.42-.2.57-.39l.04-.02c.12.02.2-.02.16-.16.55-.96,1.45-1.58,2.2-2.35,2.19-2.26,4.26-4.64,6.47-6.89,1.5-1.53,3.09-2.98,4.58-4.52,2.55-2.64,5.14-5.25,7.72-7.86,1.84-1.86,3.77-3.64,5.52-5.58,1.66-1.83,3.51-3.45,5.2-5.25,1.15-1.22,2.29-2.46,3.43-3.7.37-.02.52-.26.57-.59,3.39-3.4,6.88-6.71,10.09-10.29.21-.04.43-.07.45-.35.63-.66,1.24-1.34,1.91-1.97,1.66-1.58,3.28-3.2,4.86-4.85,2.66-2.78,5.37-5.52,8.04-8.3,1.75-1.82,3.52-3.62,5.27-5.43.14.03.19-.04.19-.17,2.15-2.18,4.3-4.36,6.45-6.55.87-.89,1.72-1.81,2.58-2.71.37-.03.52-.26.58-.59.41-.35.86-.67,1.21-1.06,1.98-2.21,4.12-4.26,6.2-6.36.3.05.43-.06.34-.37.64-.69,1.28-1.38,1.92-2.07.53-.14,1.07-.26.99-1,1.39-1.38,2.77-2.76,4.16-4.14.12.02.21,0,.17-.15.62-.62,1.24-1.25,1.87-1.87.59.05.87-.2.78-.81l.03-.03c.64.1.74-.3.75-.79.62-.27.86-.9,1.29-1.35.77.26.48-.4.61-.7l.02-.02c.51-.15,1.08-.25.98-1l5.4-5.39c.13.05.17,0,.12-.12,1.53-1.59,3.06-3.17,4.59-4.76.14.04.19-.05.22-.16,3.08-3.28,6.41-6.32,9.41-9.68.14.03.19-.04.19-.17,1.74-1.78,3.48-3.56,5.22-5.33,2.61-2.66,5.23-5.31,7.84-7.97,4.47-4.55,8.94-9.1,13.4-13.66,1.24-1.27,2.46-2.56,3.68-3.84.44-.09.71-.34.78-.79,1.86-1.87,3.73-3.72,5.56-5.62,1.17-1.21,2.47-2.29,3.5-3.63.36-.04.53-.25.58-.59.22-.21.45-.42.67-.64.14.04.19-.05.22-.16,1.52-1.52,2.6-3.23,3.24-5.36,1.68-5.59,1.95-11.21.81-16.9-.78-3.9-2.05-7.66-4.9-10.58-3.35-3.45-6.86-6.74-10.31-10.1-2.79-2.72-5.57-5.45-8.4-8.13.04-.14,0-.19-.15-.15-1.98-1.95-3.95-3.9-5.95-5.83-2.55-2.45-5.08-4.91-7.63-7.36.03-.14-.02-.19-.16-.16-.22-.22-.45-.44-.67-.66.04-.14-.01-.19-.15-.15-.23-.22-.45-.45-.68-.67.04-.14,0-.19-.14-.14-.23-.23-.46-.45-.69-.68.04-.13,0-.17-.13-.13-2.52-2.43-5.04-4.85-7.56-7.28-1.75-1.69-3.47-3.4-5.21-5.1.03-.13-.02-.19-.16-.16l-.67-.67c.04-.14,0-.19-.15-.15-.23-.22-.46-.45-.68-.67.04-.13,0-.18-.14-.14-.23-.23-.47-.46-.7-.69.05-.13,0-.17-.12-.12-1.18-1.12-2.35-2.24-3.53-3.36.03-.14-.03-.19-.16-.16-.34-.65-1.1-.87-1.49-1.48.03-.13-.02-.19-.15-.15-.22-.22-.45-.44-.67-.67.04-.14,0-.19-.14-.15-2.2-2.14-4.41-4.28-6.61-6.42.03-.13-.02-.19-.15-.15-.23-.22-.45-.45-.68-.67.04-.14,0-.19-.14-.14-.23-.23-.46-.45-.69-.68.04-.13,0-.17-.13-.13-.24-.23-.47-.46-.71-.69.05-.12,0-.16-.11-.11-.76-.72-1.54-1.44-2.29-2.17-1.39-1.35-2.68-2.79-3.92-4.27.04-.14,0-.19-.15-.15-2.21-2.07-4.41-4.14-6.62-6.21.03-.13,0-.19-.15-.13-.17-.03-.4,0-.49-.1-1.92-2.14-4.5-3.39-6.77-5.06-1.51-1.1-3.23-1.8-4.9-2.56-1.73-.78-3.57-1.23-5.48-1.35-.13-.01-.27-.02-.4-.03-1.74-.32-3.46-.27-5.13.37-.15-.08-.3-.19-.41.06-.07.01-.14.02-.21.03-.14-.03-.18.04-.18.17-.22.09-.43.17-.65.26-.15-.07-.18.03-.21.14-.41.01-.69.29-1.02.46-.15-.05-.19.03-.2.15-.07.02-.14.04-.21.06-.15-.06-.18.03-.19.15-.07.02-.15.04-.22.07-.15-.06-.18.02-.18.14-.39-.04-.57.3-.85.46-.15-.05-.18.03-.18.15-.12.11-.37-.05-.43.2-.13,0-.2.07-.2.21-.07.02-.14.05-.22.07-.14-.07-.17.03-.21.13-.41.27-.81.55-1.22.82-.28.03-.48.16-.61.41h0Zm54.23,284.93s-.04-.04-.06-.07c.02.02.04.04.06.06.21-.16.41-.32.62-.48.92-.6,1.81-1.24,2.59-2.02.15-.11.29-.22.44-.33.25-.18.65-.17.77-.54.27-.28.55-.55.82-.83.31,0,.53-.11.6-.44.2-.2.4-.4.61-.59.45-.16.79-.45,1.04-.85.35-.31.79-.54,1-1,1.44-1.11,2.62-2.48,3.93-3.73.14.04.18-.04.2-.16.27-.17.26-.58.62-.67.14.04.18-.04.18-.16.14-.21.28-.42.43-.63.44-.23.71-.63.99-1.01.15-.15.3-.31.45-.46.14.04.18-.04.19-.16h0c.4-.48.79-.96,1.19-1.43.14-.19.28-.38.41-.57.17-.21.34-.43.51-.64,1.45-1.57,2.71-3.28,3.95-5.01,2.8-3.89,5.41-7.9,7.51-12.22.38-.5.65-1.04.84-1.63.07-.14.13-.27.2-.41.28-.37.5-.78.6-1.24.66-1.18,1.23-2.4,1.65-3.68.16-.1.18-.26.18-.43,1.48-3.23,2.62-6.59,3.57-10.01l.16-.63c.69-2.09,1.21-4.21,1.56-6.38.02-.14.04-.27.07-.41.31-.93.46-1.9.54-2.87l.04-.41c.07-.27.14-.54.21-.81.29-.15.15-.4.14-.63.03-.82,0-1.65.25-2.46.35-.22.15-.54.16-.82.02-.48.04-.95.05-1.43.34-.22.14-.54.15-.83,0-.68,0-1.37,0-2.05.02-.41.04-.82.06-1.23.25-2.19.25-4.37,0-6.55.1-.42.03-.83-.03-1.24.06-.69.05-1.38-.16-2.05-.02-.27-.03-.55-.05-.82.06-.49.02-.97-.17-1.44-.01-.14-.02-.27-.03-.41.07-.44.01-.85-.23-1.23,0-.14,0-.27,0-.41-.11-.75-.22-1.5-.33-2.26-.02-.14-.04-.27-.06-.41,0-.64-.13-1.25-.35-1.85-.02-.14-.05-.27-.07-.41-.02-.2-.03-.4-.07-.6-.92-4.45-1.98-8.85-4.07-12.93-.19-.38-.14-.95-.78-.97-.61-.64-1.33-1.06-2.25-1.06-.5-.28-.73.11-.99.41h-.02c-.31-.06-.44.1-.44.39-.46.02-.64.46-1,.64-.12,0-.19.05-.17.19-.83.84-1.67,1.69-2.5,2.53-.51,0-.76.24-.76.76-.43.43-.85.87-1.28,1.3-1.11.5-1.87,1.34-2.41,2.41-.16.02-.24.12-.25.28-.32-.08-.44.02-.31.34h-.08s0,.08,0,.08c-.25-.05-.34.17-.46.31-1.28,1.41-2.66,2.73-3.98,4.09-1.94,1.99-3.94,3.93-5.86,5.95-1.77,1.52-3.24,3.33-4.91,4.96-.13-.02-.19.04-.17.17l-1.67,1.68c-.13-.02-.19.04-.17.17-.9.89-1.8,1.78-2.7,2.67-.41,0-.61.21-.61.62l-2.87,2.88c-.41,0-.61.2-.6.61-.89.81-1.74,1.67-2.55,2.53-1.77,1.89-3.63,3.69-5.44,5.55-.32-.09-.43.03-.35.34-.26.06-.42.22-.47.48-.31-.07-.44.02-.32.35-.37.1-.59.35-.7.72-.25-.05-.34.16-.47.29-1.17,1.14-2.25,2.37-3.41,3.52-2.03,2.01-4.06,4.02-6.01,6.11-3.07,3.09-6.14,6.18-9.21,9.27-.14-.03-.19.03-.16.16l-7.02,7.04c-.13-.05-.18,0-.14.14-1.59,1.6-3.17,3.19-4.76,4.79-.41-.03-.61.14-.57.57-.25.06-.4.23-.45.48-.31-.08-.43.03-.34.35-.43.17-.7.5-.89.9-1.23.75-2.05,1.92-3.05,2.91-2.15,2.15-4.33,4.27-6.31,6.59-.05.05-.09.09-.14.14-.23.23-.45.46-.68.68-.79.76-1.58,1.51-2.37,2.27-.3-.02-.44.12-.42.42-.06.07-.13.13-.19.2-.3-.02-.44.12-.42.42-1.31,1.03-2.23,2.44-3.47,3.52-.13-.02-.19.04-.17.17-1.52,1.64-3.33,2.98-4.75,4.73-.3-.03-.43.11-.41.41-.48.34-.9.75-1.23,1.24-.3-.03-.43.1-.4.41-.78.59-1.29,1.43-2.02,2.07-1.1.96-2.08,2.06-3.11,3.09-.41-.02-.61.17-.58.59-.24.06-.38.22-.44.46-.31-.07-.43.06-.36.37-.25.05-.4.21-.46.46-.42-.04-.61.15-.57.57-.79.61-1.5,1.31-2.08,2.13-1.69,1.41-3.16,3.03-4.63,4.65-.63.19-.87.68-.99,1.27-.32.5-.3,1.01,0,1.51-.05.27-.02.5.33.52.2.24.44.38.76.37.2.19.44.23.71.23,0,.37.25.39.52.36.88.3,1.76.61,2.64.91.11.15.27.17.44.16,1.42.63,2.88,1.13,4.39,1.45.54.6,1.28.61,2,.69,2.39.47,4.73,1.21,7.17,1.41.18.2.31.52.6.51,1.24-.07,2.46.38,3.7.16l1.41.06c.21.01.41.02.62.04.74.22,1.49.23,2.26.17.48.07.96.15,1.45.04,1.91.23,3.81.22,5.72,0,1.03.26,2.06.33,3.07-.06.14,0,.28,0,.42,0,.55-.03,1.15.27,1.61-.27.23.1.44.06.65-.07.21-.02.41-.03.62-.05.41,0,.82-.01,1.23-.02.22.01.47.14.63-.14.27-.02.54-.04.81-.06.16.03.33.08.42-.13.34-.03.67-.05,1.01-.08.17.03.34.08.42-.14.95-.2,1.91-.4,2.86-.59.14-.02.27-.05.41-.07.2-.02.4-.03.6-.07,3.13-.64,6.19-1.54,9.24-2.45.33.18.42-.1.54-.3,3.07-.89,6.03-2.07,8.89-3.48.17,0,.33-.03.43-.19.91-.33,1.81-.68,2.64-1.19.42,0,.77-.13.99-.51,1.24-.68,2.49-1.35,3.73-2.03.42-.03.65-.36.95-.59,2.78-1.42,5.3-3.25,7.87-5.01.14.04.18-.04.19-.16.14-.09.28-.18.42-.27.29-.02.39-.24.51-.45Z"/>
  <path class="cls-2" d="m180.97,301.03c-1.48-1.18-2.62-2.69-3.93-4.02-2.79-2.85-5.7-5.58-8.42-8.5-2.37-2.54-4.77-5.06-7.27-7.46-2.88-2.76-5.46-5.8-8.33-8.57-1.13-1.09-2.2-2.25-3.29-3.37-.1-.09-.19-.18-.29-.26-1.13-.69-1.76-1.85-2.67-2.75-2.9-2.88-5.85-5.71-8.62-8.71-3.47-3.76-7.3-7.14-10.75-10.91-2.04-2.23-4.14-4.41-6.31-6.5-3.74-3.59-7.07-7.56-10.85-11.1-3.53-3.31-6.71-6.96-10.13-10.37-6.35-6.33-12.58-12.77-18.85-19.18-10.82-11.05-21.64-22.1-32.46-33.15-1.02-1.04-2.15-1.99-2.75-3.35-.94-2.1-1.56-4.29-1.87-6.58-.16-1.21-.44-2.42-.51-3.65-.12-2.12,0-4.23.07-6.34.44-.11.49-.31.16-.62.25-1.64.62-3.25,1.05-4.85,1.16-4.31,3.78-7.58,6.96-10.61,8.26-7.85,16.35-15.87,24.55-23.79,1.35-1.3,2.54-2.75,3.92-4.01.4-.36.83-.68,1.25-1.02.27,0,.42-.12.42-.41,1.03-1,2.07-2,3.09-3.01.5-.49.98-1,1.46-1.5.23-.03.35-.16.37-.39.5-.64,1.04-1.23,1.75-1.65.43-.02.69-.22.73-.66,1.13-1.1,2.27-2.18,3.38-3.29.88-.88,1.72-1.81,2.58-2.7.2-.21.38-.49.72-.51.58-.12.96-.45,1.08-1.05.33-.67,1.06-.92,1.54-1.44,1.3-1.39,2.63-2.75,3.96-4.1.37-.38.82-.68,1.24-1.02.27,0,.43-.12.43-.41.06-.07.12-.15.18-.22.36,0,.59-.16.64-.53,1.84-1.88,3.68-3.76,5.53-5.63.23-.23.4-.56.79-.58.37-.05.63-.21.65-.63.15-.56.74-.64,1.09-.99,1.84-1.91,3.71-3.8,5.57-5.69,2.02-2.06,3.98-4.19,6.09-6.15,3.34-3.09,6.93-5.86,10.77-8.31,2.19-1.4,4.56-2.38,6.98-3.24.46-.16,1-.13,1.5-.19.31.26.35.02.39-.21.35,0,.69,0,1.04,0,.15.19.28.17.4-.03,1.67-.35,3.32-.22,4.96.22,0,0,.06,0,.06,0h.06c.09.02.18.04.27.05.06.05.13.1.19.15,1.76.62,3.29,1.68,4.94,2.52.07.05.14.09.21.14.34.23.68.45,1.02.68.06.05.12.1.18.15,2.33,1.4,4.47,3.06,6.58,4.77.05.05.1.1.15.15,1.41,1.17,2.84,2.31,4.23,3.5,1.97,1.68,3.91,3.4,5.87,5.1.05.07.11.15.16.22,2.22,2.14,4.5,4.21,6.67,6.4,1.35,1.37,2.9,2.58,4.16,4.03,2.06,2.37,4.51,4.35,6.49,6.81.8.99,1.82,1.86,2.69,2.83,1.58,1.78,3.1,3.6,4.69,5.36,1.86,2.06,3.56,4.25,5.45,6.28.54.58.94,1.31,1.46,1.93.05.06.11.12.16.18.47.69.97,1.36,1.42,2.06.36.58.64.68,1.1.07.48-.64.73-1.45,1.42-1.93.37,0,.42-.25.43-.54.46-.67.88-1.39,1.54-1.9.4-.16.67-.43.72-.88.1-.33.28-.61.59-.78.31.01.4-.18.44-.44.01-.17.06-.31.25-.36.35-.07.54-.28.53-.65h0c.36.03.42-.21.45-.49.05-.36.31-.55.58-.73.46,0,.62-.29.65-.7.05-.36.3-.56.58-.74.31.02.41-.17.45-.44.29-.7.82-1.18,1.42-1.61.37-.01.4-.28.41-.55.21-.47.6-.79.99-1.1.49,0,.63-.3.66-.72.24-.58.73-.94,1.19-1.33.47,0,.63-.29.66-.7.37-.73,1-1.23,1.6-1.76.49-.03.75-.31.85-.77.74-1.36,1.98-2.27,3.05-3.33.49-.03.75-.31.85-.77.03-.1.03-.22.1-.29,2.06-2.24,4.21-4.39,6.44-6.46.04-.04.13-.03.2-.04.37-.05.62-.22.64-.62,1.69-1.97,3.64-3.66,5.61-5.33.41-.02.72-.15.75-.62.31-.52.75-.92,1.26-1.24.29,0,.57-.02.58-.41,1.18-1.51,2.84-2.51,4.21-3.81.28-.27.62-.47.93-.71.29,0,.58,0,.6-.4.66-.88,1.63-1.39,2.46-2.07.45.02.8-.09.82-.62.57-.38.95-1.02,1.65-1.22.06-.07.13-.14.19-.21.47-.18.66-.79,1.24-.81l.2-.2c.05-.24.29-.12.42-.21.07-.07.13-.14.2-.21.05-.25.3-.1.42-.2.06-.07.13-.14.19-.21,0,0,0,0,0,0,.3,0,.6,0,.61-.41.41-.27.81-.55,1.22-.82.07-.04.14-.09.21-.13.07-.02.14-.05.22-.07.07-.07.13-.14.2-.21.06-.25.3-.09.43-.2.06-.05.12-.1.18-.15.28-.17.46-.5.85-.46.06-.05.12-.09.18-.14.07-.02.15-.04.22-.07.06-.05.13-.1.19-.15.07-.02.14-.04.21-.06.07-.05.14-.1.2-.15.33-.17.62-.45,1.02-.46.07-.05.14-.1.21-.14.22-.09.43-.17.65-.26.06-.06.12-.11.18-.17.07-.01.14-.02.21-.03.18.26.3.18.41-.06,1.67-.64,3.39-.69,5.13-.37.12.23.25.26.4.03,1.91.12,3.75.57,5.48,1.35,1.68.76,3.4,1.45,4.9,2.56,2.27,1.66,4.85,2.92,6.77,5.06.09.1.32.07.49.1.03.06.08.11.15.13,2.21,2.07,4.41,4.14,6.62,6.21.05.05.1.1.15.15,1.24,1.48,2.53,2.93,3.92,4.27.76.73,1.53,1.45,2.29,2.17.02.05.06.09.11.11.24.23.47.46.71.69.03.06.07.1.13.13.23.23.46.45.69.68.05.05.1.1.14.14.23.22.45.45.68.67.05.05.1.1.15.15,2.2,2.14,4.41,4.28,6.61,6.42.05.05.1.1.14.15.22.22.45.44.67.67.05.05.1.1.15.15.38.61,1.14.83,1.49,1.48.05.05.11.11.16.16,1.18,1.12,2.35,2.24,3.53,3.36.02.06.06.1.12.12.23.23.47.46.7.69.03.06.07.11.14.14.23.22.46.45.68.67.05.05.1.1.15.15.22.22.45.44.67.67.05.05.1.1.16.16,1.74,1.7,3.46,3.41,5.21,5.1,2.51,2.43,5.04,4.85,7.56,7.28.03.06.07.1.13.13.23.23.46.45.69.68.05.05.09.09.14.14.23.22.45.45.68.67.05.05.1.1.15.15.22.22.45.44.67.66.05.05.11.11.16.16,2.56,2.44,5.09,4.91,7.63,7.36,2,1.92,3.97,3.88,5.95,5.83.05.05.1.1.15.15,2.83,2.68,5.62,5.41,8.4,8.13,3.44,3.36,6.95,6.66,10.31,10.1,2.84,2.92,4.12,6.68,4.9,10.58,1.14,5.69.87,11.31-.81,16.9-.64,2.13-1.72,3.84-3.24,5.36l-.22.16c-.22.21-.45.42-.67.64-.35.05-.54.24-.58.59-1.03,1.35-2.33,2.42-3.5,3.63-1.83,1.9-3.71,3.75-5.56,5.62-.43.1-.69.36-.78.79-1.23,1.28-2.44,2.57-3.68,3.84-4.46,4.56-8.93,9.11-13.4,13.66-2.61,2.66-5.23,5.31-7.84,7.97-1.74,1.78-3.48,3.56-5.22,5.33-.06.06-.13.11-.19.17-3,3.36-6.33,6.4-9.41,9.68-.07.05-.15.11-.22.16-1.53,1.59-3.06,3.17-4.59,4.76-.06.02-.1.06-.12.12l-5.4,5.39c-.51.16-.84.48-.98,1l-.02.02c-.42.04-.57.32-.61.7-.43.45-.67,1.08-1.29,1.35-.4.12-.67.37-.75.79l-.03.03c-.43.1-.71.36-.78.81-.62.62-1.24,1.25-1.87,1.87-.06.05-.11.1-.17.15-1.39,1.38-2.77,2.76-4.16,4.14-.51.15-.85.48-.99,1-.64.69-1.28,1.38-1.92,2.07-.21.04-.32.17-.34.37-2.09,2.1-4.23,4.15-6.2,6.36-.36.4-.81.71-1.21,1.06-.35.05-.54.24-.58.59-.86.9-1.71,1.82-2.58,2.71-2.14,2.19-4.3,4.37-6.45,6.55-.06.06-.13.12-.19.17-1.76,1.81-3.53,3.61-5.27,5.43-2.67,2.78-5.38,5.52-8.04,8.3-1.58,1.65-3.2,3.27-4.86,4.85-.66.63-1.27,1.31-1.91,1.97-.25-.01-.41.09-.45.35-3.21,3.58-6.7,6.89-10.09,10.29-.34.05-.54.24-.57.59-1.14,1.23-2.28,2.47-3.43,3.7-1.69,1.79-3.54,3.41-5.2,5.25-1.75,1.94-3.68,3.72-5.52,5.58-2.58,2.61-5.16,5.22-7.72,7.86-1.49,1.54-3.08,2.99-4.58,4.52-2.21,2.25-4.28,4.62-6.47,6.89-.75.77-1.65,1.39-2.2,2.35-.05.05-.11.11-.16.16,0,0-.04.02-.04.02-.27.02-.55.02-.57.39-1.31.25-2.2-.21-3.02-1.32-.94-1.26-2.2-2.28-3.32-3.41-.03-.23-.15-.36-.38-.38-2-1.88-3.88-3.87-5.7-5.92-1.49-1.68-3.09-3.29-4.77-4.78-1.46-1.3-2.81-2.69-4.11-4.13-1.91-2.12-3.96-4.09-5.95-6.13-.05-.33-.24-.52-.58-.57-.26-.07-.4-.25-.44-.51-.04-.18-.16-.29-.34-.32Z"/>
  <path class="cls-2" d="m91.87,325.05c-1.44-1.29-2.67-2.77-3.87-4.28-.96-1.21-2.12-2.26-2.99-3.55-.11-.17-.29-.3-.26-.53-.03-.25-.11-.47-.43-.47-.15-.04-.2-.15-.2-.29-.02-.27-.07-.52-.42-.53-1.22-1.7-2.46-3.4-3.65-5.13-.18-.26-.51-.48-.45-.88-.01-.39-.1-.72-.57-.76-.1-.31-.48-.47-.46-.84,0-.39-.06-.74-.54-.8-.78-1.5-1.56-3-2.34-4.51-.5-1.3-1.06-2.57-1.89-3.7-3.61-7.57-6.14-15.49-7.55-23.76-.14-.83-.5-1.62-.41-2.48.32-.28.12-.36-.16-.42-.08-.96-.16-1.91-.25-2.87.32-.31.27-.51-.16-.62-.01-.55-.03-1.09-.04-1.64.28-.4.43-.77-.17-1.03,0-3.55,0-7.11,0-10.66.59-.25.45-.63.17-1.02.01-.48.02-.96.03-1.44.59-.18.33-.62.29-.99.04-.83.08-1.66.12-2.5.28-.05.48-.13.16-.41.02-.34.03-.68.05-1.03.05-.07.11-.15.16-.22.52-3.38,1.43-6.68,2.13-10.03.59-.67.68-1.54.93-2.35.31-.86.62-1.72.94-2.57.47-.16.5-.56.53-.97.58-.73.79-1.79,1.84-2.11.25,0,.54.06.62-.31.69-.29,1.23.03,1.79.4,1.84,1.19,3.21,2.88,4.75,4.39,2.85,2.79,5.68,5.61,8.46,8.46,2.48,2.55,4.96,5.11,7.42,7.67,2.36,2.46,4.73,4.93,7.23,7.24,2.82,2.6,5.46,5.39,8.2,8.06,2.04,1.98,4.01,4.06,5.99,6.12,1.39,1.45,2.91,2.79,4.33,4.22,1.69,1.71,3.21,3.58,4.99,5.21,1.54,1.4,3.04,2.86,4.41,4.42,1.91,2.16,4.07,4.08,6.05,6.17,1.68,1.76,3.5,3.39,5.26,5.08,0,.2.1.31.28.37,2.71,2.72,5.44,5.41,8.08,8.21,1.87,1.98,3.9,3.81,5.8,5.78,1.49,1.54,3.07,3,4.56,4.52,3.03,3.09,6.1,6.15,9.14,9.23,4.27,4.34,8.57,8.64,12.87,12.96,1.93,1.93,3.88,3.84,5.79,5.79.76.78,1.86,1.32,2.19,2.51.3,1.09-.01,1.86-1.06,2.26-3.43,1.32-6.79,2.83-10.36,3.75-2.07.53-4.2.83-6.28,1.29-3.51.78-7.05,1.24-10.64,1.29-2.48.03-4.96-.01-7.44-.03-.65-.77-1.46-.27-2.2-.28-.35.15-.71.13-1.08.07-.28-.66-.76-.35-1.2-.24-.28.01-.57.02-.85.04-.21-.59-.6-.4-.99-.24-.22.01-.43.03-.65.04-.15-.53-.46-.44-.81-.2-.21,0-.42,0-.63,0-.06-.29-.14-.48-.42-.15-3.72-.59-7.38-1.45-11.03-2.39-.29-.4-.73-.44-1.17-.47l-2.15-.52c-.06-.24-.14-.43-.4-.16-.07,0-.14,0-.22-.01-.31-.65-.93-.52-1.48-.57-2.11-.84-4.21-1.68-6.32-2.53-.06-.26-.14-.44-.41-.15-.26.07-.42-.15-.62-.24-.36-.66-1.03-.79-1.68-.97-1.08-.49-2.16-.99-3.24-1.48-.27-.62-.79-.73-1.39-.71-.36.13-.43-.32-.71-.35-.04-.52-.4-.56-.8-.55-.64-.02-.91-.63-1.42-.89-.99-.51-1.94-1.09-2.91-1.64-.03-.5-.38-.55-.77-.56h-.01c-.03-.4-.32-.41-.61-.41h0c-.08-.07-.17-.14-.25-.2-1.22-.85-2.44-1.69-3.66-2.54-.03-.06-.07-.09-.13-.11-.64-.48-1.27-.95-1.91-1.43,0-.38-.25-.42-.54-.44-.57-.31-1.11-.68-1.51-1.2.02-.33-.2-.42-.46-.45-.94-.5-1.7-1.23-2.41-2.01.02-.29-.14-.41-.4-.45-1.05-.48-1.7-1.42-2.47-2.21,0-.49-.3-.65-.74-.64-.64-.64-1.28-1.28-1.92-1.92,0-.3-.06-.54-.43-.53Z"/>
  <path class="cls-2" d="m318.27,253.91c1.67-1.62,3.13-3.44,4.91-4.96.29-.02.57.04.84-.22,3.04-2.81,5.94-5.76,8.72-8.82.34-.37.68-.77.74-1.3v-.08s.09,0,.09,0c.17-.05.28-.16.31-.34.01-.16.09-.26.25-.28.98-.63,1.78-1.43,2.41-2.41.43-.43.85-.87,1.28-1.3.43-.08.68-.33.76-.76.83-.84,1.67-1.69,2.5-2.53l.17-.19c.36-.17.54-.62,1-.64.26,0,.42-.11.44-.38h.02c.38-.02.73-.12.99-.42.92,0,1.63.42,2.25,1.06.2.37.07,1.01.78.97,2.1,4.08,3.15,8.48,4.07,12.93.04.2.04.4.07.6-.1.06-.29.12-.29.19,0,.23.21.2.36.22.22.6.35,1.21.35,1.85-.1.06-.29.12-.3.18-.01.23.2.2.35.23.11.75.22,1.5.33,2.26-.13.02-.29.04-.29.21,0,.17.16.18.29.2.24.38.3.79.23,1.23-.1.06-.29.1-.3.17-.03.22.18.21.33.24.19.46.22.94.17,1.44-.22.03-.37.13-.38.38,0,.3.15.43.43.44.21.67.22,1.36.16,2.05-1.08.44-.53.84.03,1.24.25,2.18.25,4.37,0,6.55-.8.37-.8.78-.06,1.23,0,.68,0,1.37,0,2.05-.27.01-.55,0-.57.38-.01.29.15.42.42.44-.02.48-.04.95-.05,1.43-.23.02-.51-.04-.55.29-.03.27.16.42.39.53-.25.8-.22,1.63-.25,2.46-.18.03-.45-.07-.5.2-.05.24.18.33.35.42-.07.27-.14.54-.21.81-.15.03-.36,0-.33.23,0,.07.19.12.29.18-.09.98-.24,1.94-.54,2.87-.15.03-.36,0-.36.22,0,.07.19.13.29.19-.35,2.17-.87,4.29-1.56,6.38-.16,0-.34,0-.41.18-.08.23.06.36.25.45-.95,3.42-2.08,6.78-3.57,10.01-.29.05-.57.1-.18.43-.42,1.28-1,2.5-1.65,3.68-.59.22-.91.58-.6,1.24-.07.14-.13.27-.2.41-.74.31-1.06.83-.84,1.63-2.11,4.32-4.71,8.33-7.51,12.22-1.24,1.73-2.5,3.44-3.95,5.01-.3-.01-.63-.07-.78.29-.08.21.1.28.26.35-.14.19-.28.38-.41.57-1.07-.08-1.25.57-1.19,1.43h0c-.06.06-.13.11-.19.16-.15.15-.3.31-.45.46-.76-.09-1.07.27-.99,1.01-.14.21-.28.42-.43.63-.06.05-.12.1-.18.16-.36.08-.35.5-.62.67-.07.05-.14.11-.2.16-1.31,1.24-2.49,2.62-3.93,3.73-.74-.07-1.09.24-1,1-.25.4-.59.69-1.04.85-.43-.04-.64.16-.61.59-.07.33-.3.44-.6.44-.6-.04-.87.23-.82.83-.12.37-.52.36-.77.54-.07-.14-.14-.33-.33-.2-.18.12-.1.35-.1.53-.78.78-1.67,1.42-2.59,2.02-.33,0-.75-.12-.62.48-.02-.02-.04-.04-.06-.06.02.02.04.04.06.07-.45-.17-.5.12-.5.45-.14.09-.28.18-.42.27-.06.05-.12.11-.19.16-2.57,1.75-5.09,3.58-7.87,5.01-.48-.06-.9-.04-.95.59-1.24.68-2.49,1.35-3.73,2.03-.4.03-.8.07-.99.51-.83.51-1.73.86-2.64,1.19-.34-.39-.39-.1-.43.19-2.87,1.41-5.82,2.59-8.89,3.48-.26-.04-.48-.02-.54.3-3.06.91-6.12,1.81-9.24,2.45-.2.04-.4.05-.6.07-.06-.1-.12-.29-.19-.29-.23,0-.19.21-.22.36-.95.2-1.91.4-2.86.59-.04-.14-.02-.38-.23-.34-.25.05-.16.3-.19.48-.34.03-.67.05-1.01.08-.04-.14-.01-.38-.23-.34-.25.04-.16.3-.19.48-.27.02-.54.04-.81.06-.3-.35-.51-.31-.63.14-.41,0-.82.01-1.23.02-.03-.17-.06-.35-.28-.36-.28-.01-.31.2-.33.41-.21.13-.42.17-.65.07-.31-.09-.62-.18-.94-.26-.46-.12-.69.05-.67.53-.14,0-.28,0-.42,0-.53-.41-1.22.02-1.76-.35-.59-.4-1.02-.2-1.31.4-1.91.22-3.81.23-5.72,0-.79-.82-1.01-.83-1.45-.04-.76.06-1.52.05-2.26-.17-.02-.21-.06-.42-.34-.4-.22.01-.24.19-.27.36l-1.41-.06c-.04-.35-.15-.62-.57-.46-.48.18-.96-.15-1.32-.11-.82.09-1.6-.56-2.4-.1-2.44-.2-4.78-.95-7.17-1.41-.55-.58-1.3-.55-2-.69-1.52-.32-2.98-.82-4.39-1.45-.05-.31-.13-.56-.44-.16-.88-.3-1.76-.61-2.64-.91-.03-.33-.24-.39-.52-.36-.26,0-.51-.04-.71-.23-.07-.5-.43-.41-.76-.37-.34-.03-.37-.25-.33-.52.32-.5.31-1.01,0-1.51.11-.59.35-1.08.99-1.27.74.11,1.2-.34,1.62-.83,1.06-1.23,2.48-2.18,3.01-3.82.58-.82,1.29-1.51,2.08-2.13.33-.05.52-.24.57-.57.06-.25.21-.4.46-.46.21-.03.33-.15.36-.37.06-.24.2-.4.44-.46.35-.04.54-.24.58-.59,1.03-1.04,2.01-2.13,3.11-3.09.73-.64,1.25-1.48,2.02-2.07.26-.01.39-.15.4-.41.33-.49.75-.9,1.23-1.24.26,0,.4-.14.41-.41,1.41-1.74,3.23-3.09,4.75-4.73.06-.06.11-.11.17-.17,1.25-1.08,2.16-2.5,3.47-3.52.28,0,.42-.14.42-.42.06-.07.13-.13.19-.2.28,0,.42-.14.42-.42.79-.76,1.58-1.51,2.37-2.27.55.09.77-.14.68-.68.05-.05.09-.09.14-.14.51.12.82-.17,1.14-.49,2.29-2.3,4.61-4.58,6.87-6.91.57-.59,1.22-1.2,1.34-2.1.19-.4.46-.74.89-.9.19-.04.3-.16.34-.35.05-.25.2-.42.45-.48.33-.05.52-.24.57-.57,1.59-1.6,3.17-3.19,4.76-4.79.06-.03.11-.07.14-.14l7.02-7.04c.05-.05.11-.11.16-.16,3.07-3.09,6.14-6.18,9.21-9.27.47.03.85-.15,1.18-.48,2.47-2.48,4.99-4.92,7.41-7.45.52-.55,1.34-1.02,1.3-1.98.1-.37.32-.62.7-.72.18-.04.29-.16.32-.35.05-.26.21-.42.47-.48.2-.03.31-.14.35-.34,1.81-1.85,3.67-3.66,5.44-5.55.81-.87,1.66-1.73,2.55-2.53.38-.03.58-.23.6-.61l2.87-2.88c.39-.02.6-.22.61-.62.9-.89,1.8-1.78,2.7-2.67.06-.06.11-.11.17-.17l1.67-1.68c.06-.06.12-.12.17-.17Zm25.67-12.9c-1.3.27-1.96,1.22-2.89,1.73-.19.1-.26.33-.13.53.12.17.34.17.45.05.75-.81,1.95-1.12,2.57-2.31Zm-81.04,77.22c-.13-.45-.38-.41-.63-.22-.66.51-1.03,1.34-1.86,1.68-.18.07-.23.34-.04.52.14.14.36.11.46-.02.49-.67,1.31-.95,1.82-1.58.1-.13.18-.28.25-.39Zm8.22-7.55c1.07-.3,1.54-1.09,2.14-1.7.12-.12.13-.32-.02-.45-.15-.14-.34-.11-.46,0-.59.61-1.4,1.06-1.66,2.14Zm61.6-59.18c-.25.04-1.73,1.97-1.71,2.24.02.2.11.31.34.23.26-.09,1.63-1.87,1.65-2.17.01-.2-.04-.33-.28-.3Zm-42.04,41.71c.53-.49,1.16-1,1.69-1.59.17-.19-.14-.54-.36-.37-.61.47-1.35.81-1.76,1.5-.15.25-.02.46.42.46Zm28.57-26.13c-.07-.36-.27-.59-.56-.35-.49.41-.92.89-1.35,1.37-.07.07-.07.28-.02.37.05.08.27.16.34.12.65-.38,1.11-.96,1.58-1.5Zm18.84-21.46c.86-.29,1.56-.77,2.03-1.54.07-.12-.12-.27-.25-.23-.81.25-1.38.82-1.84,1.5-.02.04.02.12.06.26Zm-80.63,77.02c.93-.39,1.44-.86,1.91-1.37.11-.12.26-.27.13-.44-.12-.16-.31-.09-.47-.02-.73.3-1.02.97-1.57,1.83Zm30.62-27.3c.03-.3-.08-.41-.27-.43-.3-.03-1.33,1-1.3,1.3.02.19.15.34.33.27.59-.23.93-.72,1.23-1.14Zm7.87-7.11c-.82.53-1.4.91-1.99,1.28-.19.12-.33.26-.22.48.04.08.31.15.33.12.5-.64,1.49-.76,1.88-1.88Zm-11.92,10.75c.75-.19,1.2-.5,1.39-1.09.06-.18-.12-.35-.3-.3-.59.19-.9.64-1.09,1.39Zm38.02-34.84c.64-.23,1.12-.49,1.31-1.09.06-.19-.1-.36-.28-.31-.58.15-.86.6-1.04,1.13-.01.03,0,.07.01.28Zm-.6.75c.05-.27-.11-.33-.29-.33-.5,0-.79.35-.97.75-.09.2.1.43.32.39.46-.09.67-.5.93-.8Zm-44.64,40.86c0-.27-.12-.4-.31-.36-.43.1-.71.4-.84.8-.08.24.11.42.35.34.41-.13.67-.43.8-.78Zm-24.42,21.07c.56-.16,1.07-.41,1.39-.95.01-.02-.14-.19-.18-.18-.54.17-1.06.39-1.29.97,0,.02.02.06.07.15Zm51.12-45.09c.32-.13.62-.36.72-.74.05-.2-.19-.25-.36-.23-.42.05-.69.28-.74.7-.02.19.14.29.38.27Zm-13.82,12.15c-.07-.16-.21-.22-.39-.2-.41.05-.68.28-.74.68-.03.19.11.31.32.23.34-.13.67-.29.81-.71Zm-21.77,19.37c-.3-.06-.42.14-.58.24-.28.17-.62.29-.66.68,0,.05.12.16.19.17.38.05.47-.32.68-.51.16-.15.43-.22.37-.58Zm-10.92,9.35c-.28.1-.55.28-.62.64-.04.2.09.34.27.33.37-.03.6-.27.68-.62.04-.19-.08-.3-.33-.35Zm67.56-60.54c.33-.08.58-.28.65-.64.04-.2-.09-.34-.28-.32-.37.04-.6.27-.67.63-.04.19.09.3.3.33Zm3.7-3.66c-.04-.21-.15-.36-.33-.34-.34.03-.54.28-.59.61-.03.2.11.33.31.31.33-.05.54-.26.62-.57Zm-48.03,43.84c.45-.12.82-.2.9-.65.02-.13-.04-.3-.21-.26-.43.08-.7.33-.69.91Zm18.16-15.59c.21-.04.37-.2.37-.46,0-.19-.13-.3-.33-.28-.27.03-.42.21-.42.47,0,.19.13.29.38.27Zm31.78-30.96c.21-.04.36-.2.37-.46,0-.19-.13-.3-.33-.28-.27.03-.42.2-.42.46,0,.19.12.3.38.27Zm-60.29,56.39c.21-.04.37-.2.37-.46,0-.19-.13-.3-.33-.28-.27.03-.42.21-.42.47,0,.19.13.29.38.27Zm13.63-13.01c-.21.1-.47.15-.47.45,0,.19.15.3.34.26.26-.05.41-.21.4-.49,0-.17-.12-.21-.27-.22Zm31.49-28.95c-.23.05-.38.2-.38.47,0,.16.11.27.25.23.22-.06.48-.13.49-.42,0-.2-.12-.3-.36-.28Zm-64.12,57.41c-.27.04-.43.19-.45.46-.01.14.07.29.23.25.23-.04.47-.11.51-.4.03-.2-.1-.3-.3-.31Zm85.31-81c-.27.04-.43.19-.46.46-.01.14.07.29.23.26.25-.05.42-.23.48-.47.04-.15-.1-.23-.25-.24Zm-61.43,61.03c0-.15-.04-.27-.2-.31-.23-.05-.4.05-.47.27-.05.14.04.25.2.27.21.03.41.02.47-.23Zm59.48-57.83c-.02-.15-.05-.29-.23-.27-.18.02-.29.16-.32.34-.03.14,0,.29.17.31.26.02.34-.17.38-.38Zm11.24-10.15c-.15,0-.26.04-.29.2-.03.15.02.27.17.31.2.05.33-.04.35-.24.01-.14-.07-.25-.23-.27Zm-39.79,40.11c.16-.02.24-.12.24-.27,0-.14-.08-.26-.24-.26-.2,0-.31.1-.28.31.02.16.14.21.28.22Zm-50.36,45.1s.08-.12.11-.25c.04-.15-.05-.27-.2-.22-.1.03-.2.16-.24.27-.05.1.04.17.33.2Zm26.85-24.55c-.13.12-.25.18-.3.28-.07.13-.03.29.16.25.11-.02.21-.14.27-.25.02-.04-.06-.15-.13-.29Zm-13.34,12.6c-.08-.1-.16-.22-.19-.21-.11.04-.24.1-.3.2-.07.12-.03.28.16.24.11-.02.2-.13.33-.23Zm28.09-25.02c-.08-.1-.16-.22-.19-.21-.11.04-.24.1-.3.2-.07.12-.03.28.16.24.11-.02.2-.13.33-.23Zm38.69-39.96c.02-.19-.06-.27-.15-.24-.11.04-.24.12-.28.22-.06.14.04.26.19.22.11-.03.19-.15.24-.2Zm1.44-1.5c-.02-.06-.03-.15-.07-.16-.04-.02-.11.04-.17.06.02.06.03.15.07.16.04.02.11-.04.17-.06Zm7.33-5.74c.06.02.13.08.17.07.04-.02.05-.11.08-.16-.06-.02-.13-.08-.17-.07-.04.02-.05.1-.08.16Zm-79.11,74.94c-.06-.02-.11-.05-.17-.07-.02.06-.08.13-.06.17.02.04.1.05.16.08.02-.06.05-.11.07-.17Z"/>
  <path class="cls-3" d="m333.48,238.61c-.06.54-.4.94-.74,1.3-2.78,3.06-5.69,6.01-8.72,8.82-.27.25-.55.2-.84.22,1.92-2.02,3.92-3.96,5.86-5.95,1.32-1.36,2.71-2.68,3.98-4.09.12-.14.21-.35.46-.31Z"/>
  <path class="cls-3" d="m299.64,272.67c.04.96-.78,1.43-1.3,1.98-2.41,2.54-4.93,4.97-7.41,7.45-.33.33-.71.51-1.18.48,1.95-2.09,3.98-4.1,6.01-6.11,1.16-1.15,2.24-2.38,3.41-3.52.13-.13.22-.34.47-.29Z"/>
  <path class="cls-3" d="m266.21,306.28c-.12.91-.76,1.51-1.34,2.1-2.26,2.33-4.58,4.6-6.87,6.91-.32.32-.64.62-1.14.49,1.98-2.32,4.16-4.44,6.31-6.59.99-.99,1.82-2.17,3.05-2.91Z"/>
  <path class="cls-3" d="m232.58,340.1c-.54,1.64-1.96,2.58-3.01,3.82-.42.49-.88.95-1.62.83,1.47-1.62,2.94-3.25,4.63-4.65Z"/>
  <path class="cls-3" d="m245.92,353.63c.8-.47,1.57.19,2.4.1.36-.04.84.29,1.32.11.42-.16.54.12.57.46-1.24.22-2.46-.22-3.7-.16-.28.01-.42-.31-.6-.51Z"/>
  <path class="cls-3" d="m261.66,354.6c.29-.61.73-.8,1.31-.4.54.37,1.23-.07,1.76.35-1.02.39-2.04.31-3.07.06Z"/>
  <path class="cls-3" d="m73.8,298.79c.83,1.13,1.39,2.4,1.89,3.7-1-1.04-1.49-2.35-1.89-3.7Z"/>
  <path class="cls-3" d="m336.54,235.5c-.62.98-1.43,1.78-2.41,2.41.54-1.07,1.3-1.91,2.41-2.41Z"/>
  <path class="cls-3" d="m152.64,354.46c.74.02,1.56-.49,2.2.28-.74-.08-1.53.32-2.2-.28Z"/>
  <path class="cls-3" d="m69.1,235.34c-.24.81-.34,1.68-.93,2.35.06-.88.32-1.68.93-2.35Z"/>
  <path class="cls-3" d="m254.5,354.56c.44-.78.66-.78,1.45.04-.49.11-.97.02-1.45-.04Z"/>
  <path class="cls-3" d="m328.31,322.16c-.06-.85.12-1.51,1.19-1.43-.4.48-.79.95-1.19,1.43Z"/>
  <path class="cls-3" d="m265.16,354.53c-.02-.49.21-.65.67-.53.31.08.63.17.94.26-.46.54-1.06.24-1.61.27Z"/>
  <path class="cls-3" d="m352.33,257.38c-.56-.4-1.12-.79-.03-1.24.07.41.13.82.03,1.24Z"/>
  <path class="cls-3" d="m236.75,351.52c.7.14,1.46.11,2,.69-.72-.08-1.46-.09-2-.69Z"/>
  <path class="cls-3" d="m306.77,229.24c.14-.52.47-.85.98-1,.1.75-.47.85-.98,1Z"/>
  <path class="cls-3" d="m296.11,240.1c.14-.52.47-.85.99-1,.08.74-.46.86-.99,1Z"/>
  <path class="cls-3" d="m341.89,302.29c-.21-.8.11-1.32.84-1.63-.2.59-.47,1.14-.84,1.63Z"/>
  <path class="cls-3" d="m120.56,345.76c.64.17,1.31.31,1.68.97-.58-.29-1.31-.32-1.68-.97Z"/>
  <path class="cls-3" d="m326.68,323.79c-.09-.74.22-1.1.99-1.01-.28.38-.55.78-.99,1.01Z"/>
  <path class="cls-3" d="m320.32,330.13c-.09-.76.26-1.07,1-1-.21.46-.65.68-1,1Z"/>
  <path class="cls-3" d="m97.22,86.15c-.12.6-.5.93-1.08,1.05.18-.54.61-.82,1.08-1.05Z"/>
  <path class="cls-3" d="m352.27,265.16c-.74-.45-.74-.86.06-1.23l-.06,1.23Z"/>
  <path class="cls-3" d="m352.13,268.04c-.27-.02-.43-.15-.42-.44.02-.39.3-.37.57-.38,0,.28.19.6-.15.83Z"/>
  <path class="cls-3" d="m346.72,231.33c-.71.04-.58-.6-.78-.97.64.02.59.6.78.97Z"/>
  <path class="cls-3" d="m342.93,300.25c-.31-.66,0-1.02.6-1.24-.1.46-.32.86-.6,1.24Z"/>
  <path class="cls-3" d="m115.93,343.57c.59-.02,1.12.09,1.39.71-.54-.09-.97-.39-1.39-.71Z"/>
  <path class="cls-3" d="m150.36,354.29c.44-.11.92-.42,1.2.24-.41-.05-.88.25-1.2-.24Z"/>
  <path class="cls-3" d="m303.29,232.94c.07-.45.34-.71.78-.81.1.61-.18.86-.78.81Z"/>
  <path class="cls-3" d="m304.1,232.1c.09-.42.35-.67.75-.79-.01.49-.11.9-.75.79Z"/>
  <path class="cls-3" d="m351.91,270.29c-.23-.11-.42-.26-.39-.53.04-.33.32-.28.55-.29,0,.28.19.61-.16.82Z"/>
  <path class="cls-3" d="m306.14,229.96c.04-.38.19-.65.61-.7-.12.3.16.96-.61.7Z"/>
  <path class="cls-3" d="m213.31,95.13c-.04.45-.32.72-.72.88-.09-.56.23-.79.72-.88Z"/>
  <path class="cls-3" d="m129.58,349.65c.54.06,1.16-.08,1.48.57-.52-.12-1.03-.26-1.48-.57Z"/>
  <path class="cls-3" d="m357.84,177.15c.08-.44.35-.7.78-.79-.07.45-.34.7-.78.79Z"/>
  <path class="cls-3" d="m226.96,346.02c.31.5.32,1.01,0,1.51-.3-.5-.32-1.01,0-1.51Z"/>
  <path class="cls-3" d="m65.23,254.29c.27.4.42.77-.17,1.02.03-.35-.21-.74.17-1.02Z"/>
  <path class="cls-3" d="m225.6,81.26c-.1.46-.36.74-.85.77.17-.38.41-.69.85-.77Z"/>
  <path class="cls-3" d="m229.49,77.17c-.11.45-.36.74-.85.77.17-.39.43-.67.85-.77Z"/>
  <path class="cls-3" d="m65.06,265.98c.59.25.45.63.17,1.03-.37-.29-.14-.68-.17-1.03Z"/>
  <path class="cls-3" d="m338.57,233.44c-.08.42-.33.68-.76.76,0-.51.25-.76.76-.76Z"/>
  <path class="cls-3" d="m148.51,354.08c.39-.16.79-.35.99.24-.34-.04-.76.22-.99-.24Z"/>
  <path class="cls-3" d="m70.56,231.8c-.03.41-.06.8-.53.97-.17-.51.1-.78.53-.97Z"/>
  <path class="cls-3" d="m298.17,345.23c.19-.45.59-.48.99-.51-.22.38-.57.51-.99.51Z"/>
  <path class="cls-3" d="m133.82,350.91c.44.03.88.07,1.17.47-.42-.09-.95.12-1.17-.47Z"/>
  <path class="cls-3" d="m343.69,229.29c-.26.3-.61.4-.99.41.26-.3.49-.69.99-.41Z"/>
  <path class="cls-3" d="m317.25,332.84c-.05-.59.22-.87.82-.83-.27.28-.55.55-.82.83Z"/>
  <path class="cls-3" d="m89.45,93.71c-.04.44-.3.64-.73.66.12-.36.35-.6.73-.66Z"/>
  <path class="cls-3" d="m223.15,83.8c-.03.41-.19.71-.66.7.12-.33.29-.61.66-.7Z"/>
  <path class="cls-3" d="m302.89,342.68c.05-.63.47-.65.95-.59-.29.23-.53.56-.95.59Z"/>
  <path class="cls-3" d="m329.91,320.16c-.16-.06-.34-.14-.26-.35.14-.37.47-.31.78-.29-.17.21-.34.43-.51.64Z"/>
  <path class="cls-3" d="m216.8,90.98c-.04.4-.19.69-.65.7.13-.32.3-.59.65-.7Z"/>
  <path class="cls-3" d="m94.22,327.5c.44-.01.73.14.74.64-.34-.1-.53-.38-.74-.64Z"/>
  <path class="cls-3" d="m236.87,69.76c-.02.41-.27.58-.64.62.02-.41.35-.49.64-.62Z"/>
  <path class="cls-3" d="m351.52,273.37c-.18-.09-.4-.18-.35-.42.05-.27.31-.18.5-.2.01.22.15.47-.14.63Z"/>
  <path class="cls-3" d="m221.3,85.83c-.02.42-.17.73-.66.72.11-.34.31-.59.66-.72Z"/>
  <path class="cls-3" d="m112.19,71.6c-.02.42-.28.58-.65.63.01-.42.35-.51.65-.63Z"/>
  <path class="cls-3" d="m79.03,308.63c.47.05.56.37.57.76-.19-.26-.69-.28-.57-.76Z"/>
  <path class="cls-3" d="m147.06,353.92c.35-.23.65-.32.81.2-.28-.01-.62.2-.81-.2Z"/>
  <path class="cls-3" d="m78.02,306.99c.48.07.55.41.54.8-.33-.16-.61-.37-.54-.8Z"/>
  <path class="cls-3" d="m243.23,63.81c-.03.47-.34.6-.75.62.11-.37.4-.52.75-.62Z"/>
  <path class="cls-3" d="m352.14,254.09c-.28-.01-.44-.14-.43-.44,0-.25.16-.35.38-.38.02.27.03.55.05.82Z"/>
  <path class="cls-3" d="m254.08,54.56c-.02.54-.37.64-.82.62.19-.31.46-.52.82-.62Z"/>
  <path class="cls-3" d="m65.55,251.87c.04.37.3.8-.29.99-.04-.37-.11-.75.29-.99Z"/>
  <path class="cls-3" d="m235.24,337.4c-.05.33-.24.52-.57.57-.04-.42.16-.61.57-.57Z"/>
  <path class="cls-3" d="m367.68,167.1c.04-.35.23-.54.58-.59-.05.34-.22.55-.58.59Z"/>
  <path class="cls-3" d="m215.12,92.9c0,.37-.18.58-.53.65-.11-.45.14-.61.53-.65Z"/>
  <path class="cls-3" d="m285.86,250.56c.04-.35.23-.55.58-.59-.05.33-.21.57-.58.59Z"/>
  <path class="cls-3" d="m105.22,78.43c-.05.37-.28.53-.64.53.09-.32.31-.49.64-.53Z"/>
  <path class="cls-3" d="m245.46,291.78c.04-.35.23-.54.57-.59-.06.33-.2.57-.57.59Z"/>
  <path class="cls-3" d="m310.07,262.09c-.02.38-.22.58-.6.61-.01-.41.19-.62.6-.61Z"/>
  <path class="cls-3" d="m181.76,301.85c.33.05.53.24.58.57-.42.04-.61-.15-.58-.57Z"/>
  <path class="cls-3" d="m268.46,303.98c-.05.33-.24.52-.57.57-.05-.42.15-.6.57-.57Z"/>
  <path class="cls-3" d="m237.08,335.54c-.04.35-.23.54-.58.59-.03-.42.17-.61.58-.59Z"/>
  <path class="cls-3" d="m313.55,258.6c-.02.39-.22.6-.61.62,0-.41.21-.61.61-.62Z"/>
  <path class="cls-3" d="m267.42,354.2c.02-.21.05-.42.33-.41.22,0,.25.19.28.36l-.62.05Z"/>
  <path class="cls-3" d="m270.7,353.92c.03-.18-.06-.43.19-.48.22-.04.19.2.23.34-.09.21-.26.16-.42.13Z"/>
  <path class="cls-3" d="m348.94,284.89c-.2-.09-.34-.22-.25-.45.07-.18.25-.18.41-.18l-.16.63Z"/>
  <path class="cls-3" d="m272.13,353.71c.03-.18-.06-.43.19-.48.22-.04.2.19.23.34-.08.22-.26.17-.42.14Z"/>
  <path class="cls-3" d="m109.33,339.59c.39,0,.74.06.77.56-.27-.16-.61-.24-.77-.56Z"/>
  <path class="cls-3" d="m114.43,342.68c.4-.01.76.03.8.55-.28-.16-.64-.21-.8-.55Z"/>
  <path class="cls-3" d="m318.67,331.57c-.03-.44.18-.63.61-.59-.2.2-.4.4-.61.59Z"/>
  <path class="cls-3" d="m43.89,145.61c.33.31.28.51-.16.62,0-.22-.15-.48.16-.62Z"/>
  <path class="cls-3" d="m269.26,354.12c.12-.45.33-.49.63-.14-.15.29-.41.16-.63.14Z"/>
  <path class="cls-3" d="m256.72,315.92c.09.54-.13.78-.68.68.23-.23.45-.46.68-.68Z"/>
  <path class="cls-3" d="m251.63,354.35c.03-.17.06-.35.27-.36.28-.02.32.19.34.4-.21-.01-.41-.02-.62-.04Z"/>
  <path class="cls-3" d="m65.27,268.65c.43.11.48.31.16.62-.31-.14-.17-.4-.16-.62Z"/>
  <path class="cls-3" d="m250.81,57.25c-.03.4-.32.4-.6.4.08-.31.36-.33.6-.4Z"/>
  <path class="cls-3" d="m209.59,328.49c.02-.37.3-.37.57-.39-.15.19-.25.44-.57.39Z"/>
  <path class="cls-3" d="m91.87,325.05c.38-.01.44.23.43.53-.19-.14-.39-.27-.43-.53Z"/>
  <path class="cls-3" d="m97.43,330.34c.26.04.42.16.4.45-.23-.06-.44-.15-.4-.45Z"/>
  <path class="cls-3" d="m73.02,229.38c-.08.36-.37.3-.62.31.12-.29.31-.42.62-.31Z"/>
  <path class="cls-3" d="m100.24,332.8c.27.04.48.12.46.45-.26-.04-.43-.18-.46-.45Z"/>
  <path class="cls-3" d="m316.04,333.71c0-.19-.08-.41.1-.53.19-.13.26.06.33.2-.15.11-.29.22-.44.33Z"/>
  <path class="cls-3" d="m219.66,87.65c-.01.28-.05.54-.41.55.11-.21.09-.51.41-.55Z"/>
  <path class="cls-3" d="m102.21,334.45c.29.02.55.06.54.44-.26-.05-.46-.17-.54-.44Z"/>
  <path class="cls-3" d="m312.83,336.21c-.13-.6.29-.48.62-.48-.21.16-.41.32-.62.48Z"/>
  <path class="cls-3" d="m217.82,89.81c-.04.26-.14.46-.45.44.05-.25.15-.44.45-.44Z"/>
  <path class="cls-3" d="m312.32,336.66c0-.33.05-.62.5-.45-.11.21-.22.43-.5.45Z"/>
  <path class="cls-3" d="m215.56,92.41c-.03.28-.09.52-.45.5.05-.26.16-.45.45-.5Z"/>
  <path class="cls-3" d="m214.34,93.91c-.04.26-.13.45-.44.44.04-.25.16-.42.44-.44Z"/>
  <path class="cls-3" d="m84.31,316.22c.32,0,.39.22.43.47-.27-.04-.41-.2-.43-.47Z"/>
  <path class="cls-3" d="m83.7,315.4c.35,0,.4.26.42.53-.27-.07-.4-.25-.42-.53Z"/>
  <path class="cls-3" d="m259.21,50.87c-.02.42-.32.42-.61.41.13-.25.33-.39.61-.41Z"/>
  <path class="cls-3" d="m108.71,339.18c.29,0,.58,0,.61.4-.28-.01-.48-.16-.61-.4Z"/>
  <path class="cls-3" d="m211.05,97.91c-.02.28-.06.54-.43.54.03-.27.16-.46.43-.54Z"/>
  <path class="cls-3" d="m245.07,62.16c-.02.39-.3.4-.58.41.07-.32.35-.33.58-.41Z"/>
  <path class="cls-3" d="m82.05,100.92c0,.28-.15.4-.42.41-.08-.36.27-.29.42-.41Z"/>
  <path class="cls-3" d="m104.4,79.18c0,.29-.16.41-.43.41-.07-.37.26-.3.43-.41Z"/>
  <path class="cls-3" d="m227.29,348.05c.33-.04.69-.13.76.37-.32.01-.56-.13-.76-.37Z"/>
  <path class="cls-3" d="m228.75,348.65c.28-.04.49.03.52.36-.28.04-.52.01-.52-.36Z"/>
  <path class="cls-3" d="m342.68,229.71c-.03.27-.18.39-.44.38,0-.29.13-.45.44-.38Z"/>
  <path class="cls-3" d="m285.67,350.39c.06-.31.29-.34.54-.3-.13.2-.21.48-.54.3Z"/>
  <path class="cls-3" d="m131.27,350.23c.26-.28.34-.09.4.16-.19.09-.33.05-.4-.16Z"/>
  <path class="cls-3" d="m65.83,248.96c.32.28.12.36-.16.41-.03-.17-.08-.35.16-.41Z"/>
  <path class="cls-3" d="m231.91,349.92c.31-.39.39-.15.44.16-.17,0-.33,0-.44-.16Z"/>
  <path class="cls-3" d="m351.33,247.53c-.15-.03-.37,0-.35-.23,0-.07.19-.12.3-.18.02.14.04.27.06.41Z"/>
  <path class="cls-3" d="m180.97,301.03c.18.03.3.14.34.32-.32.11-.43,0-.34-.32Z"/>
  <path class="cls-3" d="m142.2,297.17c-.18-.06-.28-.17-.28-.37.28-.02.43.06.28.37Z"/>
  <path class="cls-3" d="m350.93,245.27c-.15-.03-.37,0-.36-.22,0-.07.19-.13.29-.19.02.14.05.27.07.41Z"/>
  <path class="cls-3" d="m345.19,295.33c-.38-.33-.1-.38.18-.43,0,.17-.02.33-.18.43Z"/>
  <path class="cls-3" d="m267.44,305.03c-.03.19-.15.31-.34.35-.1-.32.02-.42.34-.35Z"/>
  <path class="cls-3" d="m122.85,346.97c.26-.29.35-.11.41.15-.19.08-.33.06-.41-.15Z"/>
  <path class="cls-3" d="m295.1,346.61c.05-.29.09-.58.43-.19-.1.16-.26.18-.43.19Z"/>
  <path class="cls-3" d="m293.85,242.55c.02-.21.14-.33.34-.37.09.31-.04.42-.34.37Z"/>
  <path class="cls-3" d="m146.02,46.77c-.12.2-.25.22-.4.03.13-.11.26-.1.4-.03Z"/>
  <path class="cls-3" d="m351.66,250.19c-.13-.02-.29-.03-.29-.2,0-.17.16-.19.29-.21,0,.14,0,.27,0,.41Z"/>
  <path class="cls-3" d="m351.92,251.83c-.15-.03-.36-.01-.33-.24,0-.07.19-.12.3-.17.01.14.02.27.03.41Z"/>
  <path class="cls-3" d="m333.88,238.19c-.03.18-.14.29-.31.34-.13-.33,0-.42.31-.34Z"/>
  <path class="cls-3" d="m146.01,353.77c.27-.33.36-.14.42.15-.17.03-.34.08-.42-.15Z"/>
  <path class="cls-3" d="m86.97,96.02c-.02.23-.14.36-.37.39-.06-.31.08-.43.37-.39Z"/>
  <path class="cls-3" d="m236.06,336.58c-.03.21-.15.34-.36.37-.07-.31.05-.43.36-.37Z"/>
  <path class="cls-3" d="m266.19,47.14c-.1.24-.23.32-.41.06.1-.24.26-.14.41-.06Z"/>
  <path class="cls-3" d="m256.13,280.9c.04-.26.2-.36.45-.35-.02.28-.24.31-.45.35Z"/>
  <path class="cls-3" d="m253.67,318.87c0,.28-.14.42-.42.42-.02-.3.12-.44.42-.42Z"/>
  <path class="cls-3" d="m253.06,319.49c0,.28-.14.42-.42.42-.02-.3.12-.44.42-.42Z"/>
  <path class="cls-3" d="m350.65,277.87c-.1-.06-.29-.12-.29-.19,0-.23.2-.2.36-.22-.02.14-.04.27-.07.41Z"/>
  <path class="cls-3" d="m351.27,274.59c-.1-.06-.28-.11-.29-.18-.02-.22.18-.2.33-.23-.01.14-.03.27-.04.41Z"/>
  <path class="cls-3" d="m144.59,46.81c-.04.23-.08.47-.39.21.02-.27.21-.24.39-.21Z"/>
  <path class="cls-3" d="m65.67,272.13c.28.05.48.14.16.42-.23-.07-.19-.25-.16-.42Z"/>
  <path class="cls-3" d="m300.66,271.61c-.03.19-.14.3-.32.35-.12-.32.02-.42.32-.35Z"/>
  <path class="cls-3" d="m301.48,270.79c-.04.2-.16.31-.35.34-.08-.31.04-.43.35-.34Z"/>
  <path class="cls-3" d="m202.86,323.39c.23.02.36.15.38.38-.31.05-.43-.07-.38-.38Z"/>
  <path class="cls-3" d="m242.61,329.97c0,.26-.14.39-.4.41-.04-.3.1-.43.4-.41Z"/>
  <path class="cls-3" d="m244.25,328.33c0,.26-.14.4-.41.41-.03-.3.11-.43.41-.41Z"/>
  <path class="cls-3" d="m149.44,268.83c.1.09.19.18.29.26-.09.02-.19.09-.25.06-.15-.07-.11-.2-.04-.32Z"/>
  <path class="cls-3" d="m271.72,46.8c-.15.23-.28.2-.4-.03.13.01.27.02.4.03Z"/>
  <path class="cls-3" d="m275.41,352.98c.03-.15,0-.37.22-.36.06,0,.13.19.19.29-.14.02-.27.05-.41.07Z"/>
  <path class="cls-3" d="m326.07,324.58c.06-.05.12-.1.18-.16,0,.12-.04.2-.18.16Z"/>
  <path class="cls-3" d="m320.48,86.34c-.05-.05-.1-.1-.16-.16.13-.03.19.02.16.16Z"/>
  <path class="cls-3" d="m318.82,84.7c-.06-.03-.11-.07-.14-.14.14-.04.18,0,.14.14Z"/>
  <path class="cls-3" d="m210.19,328.08c.05-.05.11-.11.16-.16.04.15-.03.18-.16.16Z"/>
  <path class="cls-3" d="m325.25,325.4c.07-.05.14-.11.2-.16-.02.12-.07.2-.2.16Z"/>
  <path class="cls-3" d="m341.24,230.72c-.06.06-.11.13-.17.19-.03-.14.05-.18.17-.19Z"/>
  <path class="cls-3" d="m263.1,48.47c-.06.05-.13.1-.19.15.01-.12.05-.21.19-.15Z"/>
  <path class="cls-3" d="m249.16,323.43c-.06.06-.11.11-.17.17-.02-.13.04-.19.17-.17Z"/>
  <path class="cls-3" d="m261.67,49.29c-.06.05-.12.1-.18.15,0-.12.04-.21.18-.15Z"/>
  <path class="cls-3" d="m319.65,85.52s-.1-.1-.15-.15c.14-.04.19,0,.15.15Z"/>
  <path class="cls-3" d="m156.7,49.84c-.07-.05-.14-.09-.21-.14.14-.06.18.04.21.14Z"/>
  <path class="cls-3" d="m328.12,322.32c.06-.05.13-.11.19-.16,0,.12-.05.2-.19.16Z"/>
  <path class="cls-3" d="m261.06,49.64c-.07.07-.13.14-.2.21,0-.13.07-.2.2-.21Z"/>
  <path class="cls-3" d="m260.64,49.92c-.07.04-.14.09-.21.13.03-.1.06-.2.21-.13Z"/>
  <path class="cls-3" d="m313.15,222.84c.02-.06.06-.1.12-.12.05.13,0,.17-.12.12Z"/>
  <path class="cls-3" d="m301.26,234.97c.06-.05.11-.1.17-.15.04.16-.05.17-.17.15Z"/>
  <path class="cls-3" d="m157.9,50.67c-.06-.05-.12-.1-.18-.15.15-.05.18.03.18.15Z"/>
  <path class="cls-3" d="m104.66,336.32c.06.02.1.06.13.11-.14.07-.16.01-.13-.11Z"/>
  <path class="cls-3" d="m317.99,83.88c-.06-.02-.1-.06-.12-.12.13-.05.17,0,.12.12Z"/>
  <path class="cls-3" d="m311.71,337.09c.06-.05.12-.11.19-.16,0,.12-.05.2-.19.16Z"/>
  <path class="cls-3" d="m317.86,217.96c.07-.05.15-.11.22-.16-.03.11-.08.2-.22.16Z"/>
  <path class="cls-3" d="m108.45,338.98c.08.07.17.13.25.2-.13-.01-.27,0-.25-.2Z"/>
  <path class="cls-3" d="m314.34,80.4c-.05-.05-.11-.11-.16-.16.14-.03.19.03.16.16Z"/>
  <path class="cls-3" d="m327.5,208.12c.06-.06.13-.11.19-.17,0,.13-.05.2-.19.17Z"/>
  <path class="cls-3" d="m263.52,48.26c-.07.05-.14.1-.2.15.02-.12.06-.21.2-.15Z"/>
  <path class="cls-3" d="m368.92,165.88l.22-.16c-.03.11-.08.2-.22.16Z"/>
  <path class="cls-3" d="m349.59,114.64s-.1-.1-.15-.15c.14-.04.19,0,.15.15Z"/>
  <path class="cls-3" d="m335.86,101.31l-.16-.16c.14-.03.19.02.16.16Z"/>
  <path class="cls-3" d="m258.6,51.28c-.06.07-.13.14-.19.21,0-.13.07-.2.19-.21Z"/>
  <path class="cls-3" d="m264.74,47.65c-.07.05-.14.1-.21.14.02-.11.06-.21.21-.14Z"/>
  <path class="cls-3" d="m335.04,100.49c-.05-.05-.1-.1-.15-.15.14-.04.19.01.15.15Z"/>
  <path class="cls-3" d="m257.98,51.7c-.07.07-.13.14-.2.21,0-.13.07-.2.2-.21Z"/>
  <path class="cls-3" d="m257.37,52.11l-.2.2c0-.13.06-.2.2-.2Z"/>
  <path class="cls-3" d="m312.69,78.76c-.05-.05-.1-.1-.15-.15.13-.03.19.02.15.15Z"/>
  <path class="cls-3" d="m255.93,53.12c-.06.07-.13.14-.19.21,0-.14.07-.2.19-.21Z"/>
  <path class="cls-3" d="m334.21,99.67s-.09-.09-.14-.14c.14-.04.18,0,.14.14Z"/>
  <path class="cls-3" d="m66.04,247.71c-.05.07-.11.15-.16.22-.03-.14.04-.2.16-.22Z"/>
  <path class="cls-3" d="m273.36,299.06c-.03.06-.08.11-.14.14-.04-.13,0-.18.14-.14Z"/>
  <path class="cls-3" d="m164.64,55.59c-.05-.05-.1-.1-.15-.15.14-.04.18.01.15.15Z"/>
  <path class="cls-3" d="m333.38,98.85c-.06-.03-.1-.07-.13-.13.13-.04.17,0,.13.13Z"/>
  <path class="cls-3" d="m265.57,47.23c-.06.06-.12.11-.18.17,0-.13.04-.19.18-.17Z"/>
  <path class="cls-3" d="m289.51,56c-.07-.03-.11-.07-.15-.13.14-.06.17,0,.15.13Z"/>
  <path class="cls-3" d="m206.67,98.24c-.05-.06-.11-.12-.16-.18.12,0,.2.04.16.18Z"/>
  <path class="cls-3" d="m296.28,62.35s-.1-.1-.15-.15c.14-.04.19,0,.15.15Z"/>
  <path class="cls-3" d="m318.27,253.91c-.06.06-.12.12-.17.17-.02-.13.04-.19.17-.17Z"/>
  <path class="cls-3" d="m316.42,255.76c-.06.06-.11.11-.17.17-.02-.13.04-.19.17-.17Z"/>
  <path class="cls-3" d="m311.86,77.94s-.1-.1-.14-.15c.14-.04.19,0,.14.15Z"/>
  <path class="cls-3" d="m276.65,260c.06-.06.13-.12.19-.17,0,.13-.05.2-.19.17Z"/>
  <path class="cls-3" d="m174.9,64.4c-.05-.07-.11-.15-.16-.22.11.03.2.08.16.22Z"/>
  <path class="cls-3" d="m305.1,71.38c-.05-.05-.1-.1-.15-.15.13-.03.18.02.15.15Z"/>
  <path class="cls-3" d="m304.27,70.55s-.1-.1-.14-.14c.14-.04.19,0,.14.14Z"/>
  <path class="cls-3" d="m151.55,47.18c-.06-.05-.13-.1-.19-.15.15-.06.18.03.19.15Z"/>
  <path class="cls-3" d="m151.09,46.99h-.06s-.06,0-.06,0c.02-.05.04-.1.07-.16.02.05.03.11.05.16Z"/>
  <path class="cls-3" d="m302.6,68.91c-.05-.02-.09-.06-.11-.11.12-.05.16-.01.11.11Z"/>
  <path class="cls-3" d="m303.44,69.73c-.06-.03-.1-.07-.13-.13.13-.04.17,0,.13.13Z"/>
  <path class="cls-3" d="m280.54,291.86l-.16.16c-.03-.14.03-.19.16-.16Z"/>
  <path class="cls-3" d="m262.69,48.69c-.06.05-.12.09-.18.14,0-.12.03-.21.18-.14Z"/>
  <path class="cls-3" d="m343.94,241.02c-.62,1.19-1.82,1.5-2.57,2.31-.11.12-.33.12-.45-.05-.14-.21-.06-.43.13-.53.93-.51,1.59-1.46,2.89-1.73Z"/>
  <path class="cls-3" d="m262.9,318.23c-.07.11-.15.26-.25.39-.51.63-1.34.91-1.82,1.58-.09.13-.31.16-.46.02-.18-.18-.13-.45.04-.52.83-.34,1.2-1.17,1.86-1.68.24-.19.5-.24.63.22Z"/>
  <path class="cls-3" d="m271.12,310.69c.27-1.09,1.07-1.53,1.66-2.14.12-.12.31-.14.46,0,.15.14.14.34.02.45-.6.61-1.07,1.39-2.14,1.7Z"/>
  <path class="cls-3" d="m332.72,251.51c.24-.03.29.1.28.3-.02.3-1.39,2.08-1.65,2.17-.23.08-.32-.03-.34-.23-.02-.27,1.46-2.2,1.71-2.24Z"/>
  <path class="cls-3" d="m290.68,293.22c-.44,0-.57-.21-.42-.46.41-.69,1.15-1.03,1.76-1.5.22-.17.53.18.36.37-.54.59-1.16,1.1-1.69,1.59Z"/>
  <path class="cls-3" d="m319.25,267.09c-.47.54-.93,1.12-1.58,1.5-.07.04-.29-.04-.34-.12-.06-.09-.05-.3.02-.37.43-.47.86-.96,1.35-1.37.28-.24.49-.01.56.35Z"/>
  <path class="cls-3" d="m338.09,245.63c-.03-.14-.08-.23-.06-.26.46-.69,1.03-1.25,1.84-1.5.13-.04.32.11.25.23-.47.77-1.17,1.24-2.03,1.54Z"/>
  <path class="cls-3" d="m257.46,322.66c.55-.86.84-1.53,1.57-1.83.16-.07.34-.14.47.02.13.17-.02.31-.13.44-.47.52-.98.98-1.91,1.37Z"/>
  <path class="cls-3" d="m288.08,295.35c-.3.42-.65.91-1.23,1.14-.18.07-.31-.08-.33-.27-.03-.3,1-1.33,1.3-1.3.19.02.3.13.27.43Z"/>
  <path class="cls-3" d="m295.95,288.25c-.39,1.12-1.38,1.24-1.88,1.88-.02.03-.29-.04-.33-.12-.12-.22.03-.36.22-.48.59-.37,1.17-.75,1.99-1.28Z"/>
  <path class="cls-3" d="m284.03,298.99c.19-.75.5-1.2,1.09-1.39.18-.06.35.12.3.3-.19.59-.64.9-1.39,1.09Z"/>
  <path class="cls-3" d="m322.05,264.15c-.01-.21-.03-.25-.01-.28.18-.53.46-.98,1.04-1.13.18-.05.34.13.28.31-.19.6-.67.86-1.31,1.09Z"/>
  <path class="cls-3" d="m321.45,264.89c-.26.3-.47.71-.93.8-.22.04-.41-.19-.32-.39.18-.4.46-.74.97-.75.18,0,.33.06.29.33Z"/>
  <path class="cls-3" d="m276.81,305.75c-.13.35-.39.66-.8.78-.24.07-.42-.1-.35-.34.13-.4.41-.71.84-.8.19-.04.31.09.31.36Z"/>
  <path class="cls-3" d="m252.4,326.83c-.05-.1-.08-.13-.07-.15.23-.58.75-.8,1.29-.97.04-.01.19.16.18.18-.32.54-.83.79-1.39.95Z"/>
  <path class="cls-3" d="m303.52,281.73c-.25.02-.4-.08-.38-.27.05-.42.32-.65.74-.7.17-.02.41.03.36.23-.1.37-.4.6-.72.74Z"/>
  <path class="cls-3" d="m289.7,293.88c-.13.42-.46.58-.81.71-.21.08-.35-.05-.32-.23.06-.4.33-.64.74-.68.18-.02.32.04.39.2Z"/>
  <path class="cls-3" d="m267.93,313.25c.06.36-.21.43-.37.58-.21.19-.3.56-.68.51-.07,0-.2-.12-.19-.17.04-.39.38-.51.66-.68.16-.1.28-.3.58-.24Z"/>
  <path class="cls-3" d="m257,322.6c.25.04.37.15.33.35-.08.35-.31.59-.68.62-.18.02-.31-.13-.27-.33.07-.37.34-.54.62-.64Z"/>
  <path class="cls-3" d="m324.56,262.06c-.21-.03-.34-.14-.3-.33.07-.36.3-.59.67-.63.19-.02.32.13.28.32-.07.36-.31.57-.65.64Z"/>
  <path class="cls-3" d="m328.26,258.4c-.08.31-.29.52-.62.57-.2.03-.34-.11-.31-.31.05-.33.25-.57.59-.61.18-.02.3.14.33.34Z"/>
  <path class="cls-3" d="m280.22,302.24c-.02-.58.25-.82.69-.91.17-.03.24.13.21.26-.08.44-.44.53-.9.65Z"/>
  <path class="cls-3" d="m298.39,286.65c-.25.02-.38-.08-.38-.27,0-.26.15-.43.42-.47.2-.03.33.09.33.28,0,.26-.16.42-.37.46Z"/>
  <path class="cls-3" d="m330.17,255.68c-.26.02-.38-.09-.38-.27,0-.26.15-.43.42-.46.2-.02.33.09.33.28,0,.26-.16.42-.37.46Z"/>
  <path class="cls-3" d="m269.88,312.08c-.25.02-.38-.08-.38-.27,0-.26.15-.43.42-.47.2-.03.33.09.33.28,0,.26-.16.42-.37.46Z"/>
  <path class="cls-3" d="m283.51,299.07c.15,0,.27.04.27.21,0,.27-.14.44-.4.49-.2.04-.34-.06-.34-.26,0-.29.26-.35.47-.44Z"/>
  <path class="cls-3" d="m315,270.12c.24-.02.37.08.36.28-.01.29-.27.36-.49.42-.14.04-.26-.07-.25-.23,0-.27.16-.43.38-.47Z"/>
  <path class="cls-3" d="m250.88,327.53c.2.01.32.11.29.31-.04.28-.29.35-.51.4-.16.03-.24-.12-.23-.25.02-.26.18-.42.45-.45Z"/>
  <path class="cls-3" d="m336.19,246.53c.15.01.29.09.25.24-.06.24-.23.42-.48.47-.16.03-.24-.11-.23-.26.03-.27.19-.42.46-.45Z"/>
  <path class="cls-3" d="m274.75,307.55c-.07.25-.26.26-.47.23-.16-.02-.25-.13-.2-.27.07-.21.24-.31.47-.27.16.03.2.15.2.31Z"/>
  <path class="cls-3" d="m334.24,249.72c-.05.2-.13.4-.38.38-.17-.01-.19-.16-.17-.31.03-.18.14-.32.32-.34.18-.02.21.12.23.27Z"/>
  <path class="cls-3" d="m345.48,239.57c.16.02.24.13.23.27-.02.2-.15.29-.35.24-.15-.04-.2-.16-.17-.31.03-.16.15-.2.29-.2Z"/>
  <path class="cls-3" d="m305.68,279.68c-.14,0-.26-.05-.28-.22-.02-.21.08-.32.28-.31.16,0,.24.12.24.26,0,.14-.08.25-.24.27Z"/>
  <path class="cls-3" d="m255.32,324.78c-.28-.03-.37-.1-.33-.2.05-.11.14-.24.24-.27.15-.05.24.07.2.22-.03.12-.11.23-.11.25Z"/>
  <path class="cls-3" d="m282.17,300.23c.06.14.15.25.13.29-.06.1-.17.22-.27.25-.18.04-.22-.12-.16-.25.05-.1.17-.17.3-.28Z"/>
  <path class="cls-3" d="m268.83,312.83c-.13.09-.22.21-.33.23-.18.04-.23-.12-.16-.24.06-.09.19-.16.3-.2.03-.01.11.12.19.21Z"/>
  <path class="cls-3" d="m296.93,287.81c-.13.09-.22.21-.33.23-.18.04-.23-.12-.16-.24.06-.09.19-.16.3-.2.03-.01.11.12.19.21Z"/>
  <path class="cls-3" d="m335.62,247.85c-.06.05-.14.17-.24.2-.15.04-.25-.08-.19-.22.04-.1.17-.19.28-.22.1-.03.17.06.15.24Z"/>
  <path class="cls-3" d="m337.06,246.35c-.06.02-.13.08-.17.06-.04-.02-.05-.11-.07-.16.06-.02.13-.08.17-.06.04.02.05.11.07.17Z"/>
  <path class="cls-3" d="m344.39,240.61c.03-.06.04-.15.08-.16.04-.02.11.04.17.07-.02.06-.04.15-.08.16-.04.02-.11-.04-.17-.07Z"/>
  <path class="cls-3" d="m265.28,315.55c-.02.06-.05.11-.07.17-.06-.02-.15-.04-.16-.08-.02-.04.04-.11.06-.17.06.02.11.05.17.07Z"/>
</svg>