<svg t="1723905666787" class="icon" viewBox="0 0 1024 1024" version="1.1" xmlns="http://www.w3.org/2000/svg" p-id="15479" width="200" height="200"><path d="M0 512C0 229.2224 229.2224 0 512 0c282.7776 0 512 229.2224 512 512 0 282.7776-229.2224 512-512 512C229.2224 1024 0 794.7776 0 512z" fill="#6FD454" p-id="15480"></path><path d="M362.052267 257.041067c6.229333-0.512 11.554133 0.989867 15.0016 6.690133 7.7312 12.544 15.530667 25.088 22.869333 37.9392 8.533333 14.830933 16.366933 30.088533 24.7296 45.073067 2.133333 4.027733 5.12 7.68 7.6288 11.554133 2.286933 3.652267 4.488533 7.424 6.621867 11.076267 4.4032 8.311467 4.181333 16.674133-2.338134 23.296-9.301333 9.506133-19.541333 18.346667-29.422933 27.374933-8.260267 7.5776-16.827733 14.848-24.866133 22.5792-6.263467 6.058667-7.8848 13.636267-3.652267 21.623467 6.519467 12.2368 13.0048 24.456533 20.155733 36.420266 26.538667 44.253867 60.450133 81.8688 103.304534 110.865067a729.821867 729.821867 0 0 0 51.029333 31.351467c16.366933 9.250133 22.7328 7.68 35.4304-6.485334 11.810133-13.1072 23.210667-26.436267 34.952533-39.645866 2.816-3.191467 6.212267-6.007467 9.506134-8.738134 6.690133-5.632 13.994667-6.263467 21.674666-2.389333 2.1504 1.024 4.437333 1.979733 6.314667 3.345067 20.394667 14.574933 43.178667 24.866133 64.682667 37.239466 11.554133 6.638933 22.784 13.738667 34.133333 20.5312 6.109867 3.618133 8.567467 8.874667 8.1408 16.145067-1.143467 20.4288-4.539733 40.4992-16.384 57.736533-4.983467 7.168-12.032 13.431467-19.131733 18.500267-19.694933 13.789867-41.693867 22.306133-65.109334 27.528533-21.265067 4.744533-42.461867 3.0208-62.839466-3.345066-39.355733-12.117333-78.114133-26.026667-113.800534-47.069867-32.392533-19.182933-61.8496-42.325333-89.122133-68.181333-34.542933-32.8704-65.365333-68.7104-90.282667-109.5168-16.247467-26.487467-27.8528-55.005867-38.3488-84.104534-6.382933-17.5616-12.6464-34.952533-15.4624-53.5552-3.242667-21.060267-1.006933-41.335467 5.7344-61.2864 6.058667-18.0224 13.653333-35.259733 25.088-50.688 8.977067-11.946667 20.206933-20.736 34.747734-24.644266 11.639467-3.072 23.3984-5.546667 35.106133-8.260267 1.501867 1.194667 2.7136 1.194667 3.925333 1.041067z" fill="#FFFFFF" p-id="15481"></path></svg>
