<svg width="64" height="64" viewBox="0 0 64 64" fill="none" xmlns="http://www.w3.org/2000/svg">
<path d="M10.8187 3.92499C7.37246 7.57999 5.67496 12.3875 5.87496 17C6.10996 22.3875 8.86246 27.475 14.5 30.2875L15.125 30.6V31.3C15.125 36.925 18.0125 43.8125 21.6875 49.45C23.5125 52.2625 25.5375 54.775 27.4375 56.675C29.175 58.4 30.825 59.575 32 60.075C33.175 59.575 34.8125 58.4 36.55 56.6625C38.45 54.7625 40.475 52.25 42.3125 49.4375C45.975 43.8 48.875 36.925 48.875 31.3V30.6L49.5 30.2875C55.1375 27.475 57.8875 22.3875 58.125 17C58.325 12.3875 56.625 7.57999 53.1875 3.92499C53.3 7.49374 53.55 10.2875 53.1125 12.75C52.55 15.8 50.675 18.225 46.5 20.3125L45.8875 20.6125L45.325 20.2C45.0625 20 44.8 19.825 44.5375 19.6375C44.125 20.5125 43.55 21.3375 42.8 22.1C41.4 23.4875 39.375 23.4625 37.8375 22.85C36.3 22.225 34.875 21.05 34.875 19.3V18.8375L35.2 18.5C35.95 17.75 36.5375 17.1 37.025 16.475C33.7375 15.7625 30.275 15.7625 26.975 16.475C27.4625 17.1 28.05 17.75 28.8 18.5L29.125 18.8375V19.3C29.125 21.05 27.7 22.225 26.1625 22.85C24.625 23.4625 22.6 23.4875 21.2 22.1C20.45 21.3375 19.875 20.5125 19.4625 19.6375C19.2 19.8125 18.9375 20 18.675 20.2L18.1125 20.6125L17.5 20.3125C13.325 18.225 11.4475 15.8 10.8937 12.75C10.4462 10.2875 10.7012 7.49374 10.8187 3.92499ZM21.8375 10.5137C21.375 11.7825 21 13.1125 20.875 14.4125C20.6375 16.6875 21.0625 18.775 22.8 20.5C23.4 21.1125 24.375 21.1375 25.3375 20.75C26.0375 20.475 26.5375 19.9625 26.75 19.6C24.9875 17.7625 23.95 16.2125 23.2125 14.4875C22.7125 13.325 22.3 12 21.8375 10.5137ZM42.1625 10.5137C41.7 11.9962 41.2875 13.325 40.7875 14.4875C40.05 16.2125 39.0125 17.7625 37.25 19.6C37.4625 19.9625 37.9625 20.475 38.6625 20.75C39.625 21.1375 40.6 21.1125 41.2 20.5C42.9375 18.775 43.3625 16.6875 43.125 14.4125C43 13.1125 42.625 11.7825 42.1625 10.5137ZM19.65 24.075L21.0125 26.8C22.4 29.575 24.925 32.4625 27.675 34.5125L24.95 27.7125L27.05 26.8875L30.8875 36.4875L31.125 36.6V36.7125H32.875V36.6L33.1125 36.4875L36.95 26.8875L39.05 27.7125L36.325 34.5125C39.075 32.4625 41.6 29.575 42.9875 26.8L44.35 24.075L47.125 35.1625V35.3C47.125 36.075 46.8 36.8125 46.3375 37.35C45.8625 37.9 45.2625 38.2875 44.6 38.6C43.2875 39.225 41.6875 39.5375 40.0875 39.675C39.825 39.7 39.575 39.7125 39.325 39.725L37.2 43.9625C38.4125 43.5125 39.8375 42.95 41.5875 42.25L43.125 41.6375V43.3C43.125 45.8625 41.425 48.4625 39.3 50.6C37.1625 52.725 34.5625 54.425 32 54.425C29.4375 54.425 26.8375 52.725 24.7 50.6C22.575 48.4625 20.875 45.8625 20.875 43.3V41.6375L22.4125 42.25C24.1625 42.95 25.5875 43.5125 26.8 43.9625L24.675 39.725C24.425 39.7125 24.175 39.7 23.9125 39.675C22.3125 39.5375 20.7125 39.225 19.4 38.6C18.7375 38.2875 18.1375 37.9 17.6625 37.35C17.2 36.8125 16.875 36.075 16.875 35.3V35.1625L19.65 24.075ZM20.4375 30.2L19.1375 35.3875C19.15 35.55 19.2 35.7 19.3625 35.875C19.55 36.1 19.8875 36.35 20.35 36.5625C21.2875 37 22.6875 37.3125 24.0875 37.425C25.4375 37.5375 26.775 37.4875 27.75 37.3125C24.9375 35.5375 22.325 32.9875 20.4375 30.2ZM43.5625 30.2C41.675 32.9875 39.0625 35.5375 36.25 37.3125C37.225 37.4875 38.5625 37.5375 39.9125 37.425C41.3125 37.3125 42.7125 37 43.65 36.5625C44.1125 36.35 44.45 36.1 44.6375 35.875C44.8 35.7 44.85 35.55 44.8625 35.3875L43.5625 30.2ZM30.2625 38.9625L27.5125 40.3375L32 49.325L36.4875 40.3375L33.7375 38.9625H30.2625ZM23.6 45.1375C24.1375 46.3875 25.1 47.8 26.3 49C27.7125 50.4125 29.425 51.5125 30.8 51.95L28.225 46.8125C26.9 46.425 25.4125 45.8625 23.6 45.1375ZM40.4 45.1375C38.5875 45.8625 37.1 46.425 35.775 46.8125L33.2 51.95C34.575 51.5125 36.2875 50.4125 37.7 49C38.9 47.8 39.8625 46.3875 40.4 45.1375Z" fill="#ffffff"/>
</svg>
