<svg width="64" height="64" viewBox="0 0 64 64" fill="none" xmlns="http://www.w3.org/2000/svg">
<path fill-rule="evenodd" clip-rule="evenodd" d="M53.1949 0C48.7917 0 45.0682 3.0304 43.9923 7.09888L42.8077 6.54848C42.5964 6.45023 42.3661 6.39933 42.1331 6.39933C41.9001 6.39933 41.6699 6.45023 41.4586 6.54848L21.8662 15.6499L2.27392 6.54912C2.03013 6.4359 1.76175 6.38593 1.49355 6.40381C1.22535 6.4217 0.965977 6.50686 0.739379 6.65144C0.51278 6.79602 0.326258 6.99536 0.197033 7.23106C0.0678082 7.46675 4.51408e-05 7.7312 4.31523e-08 8V52.9837C-7.07923e-05 53.2887 0.0870683 53.5875 0.251147 53.8446C0.415225 54.1018 0.649403 54.3067 0.92608 54.4352L21.1923 63.849C21.4036 63.9472 21.6338 63.9981 21.8669 63.9981C22.0999 63.9981 22.3301 63.9472 22.5414 63.849L42.1338 54.7482L61.7261 63.849C62.7866 64.3411 64 63.5674 64 62.3987V17.415C64.0001 17.11 63.9129 16.8113 63.7489 16.5541C63.5848 16.2969 63.3506 16.092 63.0739 15.9635L61.0067 15.0022L61.6538 13.9002C61.801 13.6333 61.9181 13.3491 62.0186 13.0586C62.482 11.929 62.7203 10.7198 62.72 9.49888C62.72 4.2784 58.4307 0 53.1949 0ZM53.1949 4.44992C56.0141 4.44992 58.256 6.68736 58.256 9.49888C58.256 12.3098 56.0141 14.5453 53.1949 14.5453C50.3757 14.5453 48.1338 12.3098 48.1338 9.49888C48.1338 6.68736 50.3757 4.44992 53.1949 4.44992ZM42.8486 10.096L43.7299 10.5062C43.9018 12.1055 44.4802 13.6341 45.4099 14.9466L52.0326 26.3962C52.9606 27.6083 53.5776 27.3779 54.3488 26.3322L59.3773 17.7734L60.8 18.4352V59.8912L43.0861 51.6627L42.9414 26.2701C43.2026 26.3264 43.463 26.3808 43.7248 26.4429L44.3136 23.9526C43.8529 23.8437 43.3903 23.7428 42.9261 23.6499L42.8493 10.096H42.8486ZM40.9299 10.3226L41.0035 23.3376C40.3425 23.2469 39.6777 23.1869 39.0112 23.1578L38.9165 25.7152C39.6128 25.7408 40.3149 25.8163 41.0189 25.9187L41.1661 51.6685L22.8134 60.1952L22.5773 18.8486L40.9299 10.3226ZM3.2 10.5075L20.656 18.6163L20.8934 60.1824L3.2 51.9622V10.5075ZM36.1875 23.3325C35.3062 23.4906 34.4045 23.7728 33.5648 24.2611C32.5604 24.8427 31.7343 25.6882 31.1763 26.7059L33.4176 27.9424C33.7515 27.3344 34.2438 26.8282 34.8422 26.4774L34.8461 26.4749L34.8499 26.4723C35.3664 26.1715 35.9814 25.9693 36.64 25.8515L36.1875 23.3325ZM46.8538 24.6323L46.1286 27.0861C47.7306 27.5597 49.3171 28.1037 50.8947 28.6925L51.7901 26.2938C50.1696 25.6896 48.5261 25.1264 46.8538 24.6323ZM30.2125 29.4938L30.1933 29.5949L30.1914 29.6038C29.872 31.4157 29.9059 33.1987 29.9776 34.8934L32.535 34.7846C32.4653 33.1405 32.4506 31.5494 32.7123 30.0563L32.7277 29.9763L30.2125 29.4938ZM32.6874 37.3082L30.1338 37.481C30.249 39.1891 30.3718 40.8634 30.3674 42.505L32.9274 42.5114C32.9325 40.7386 32.8026 39.0054 32.6874 37.3082ZM30.24 44.9178C30.1696 45.5277 30.0646 46.121 29.911 46.6906L29.9098 46.6938L29.9085 46.6989C29.6845 47.5533 29.3075 48.3443 28.7814 48.9638L30.7315 50.6214C31.5558 49.6518 32.0787 48.5107 32.3827 47.3562L32.384 47.3523C32.576 46.6381 32.7008 45.9187 32.7827 45.2083L30.24 44.9178ZM8.62848 47.4125L7.47904 49.6998C9.06624 50.4979 10.7078 51.1578 12.361 51.7286L13.1962 49.3088C11.625 48.7667 10.0909 48.1472 8.62848 47.4125ZM15.5635 50.0448L14.8826 52.5126C16.576 52.9805 18.3168 53.3523 20.096 53.5526L20.3814 51.0086C18.768 50.8275 17.159 50.4858 15.5635 50.0448ZM27.1738 50.2253C25.8989 50.8781 24.3597 51.1194 22.777 51.1386L22.809 53.6986C24.6227 53.6768 26.5619 53.4144 28.3398 52.5037L27.1738 50.2253Z" fill="#ffffff"/>
</svg>
