<svg width="60" height="64" viewBox="0 0 60 64" fill="none" xmlns="http://www.w3.org/2000/svg">
<path d="M40.5499 0.231428C41.3876 0.103194 42.2299 0.024281 43.0782 0C43.2557 0.238257 43.2952 0.5357 43.3893 0.80962C43.6511 1.76872 43.9804 2.70885 44.274 3.65885C44.5555 4.49502 44.7543 5.35472 45.0556 6.18407C45.3135 6.93223 45.5495 7.68798 45.7574 8.45131C46.1482 9.64108 46.5413 10.8301 46.8842 12.035C47.1893 12.9972 47.5026 13.9578 47.7925 14.9252C48.0892 15.9936 48.4852 17.0301 48.7888 18.0969C49.6325 20.7921 50.3814 23.5184 51.2745 26.1992C51.7093 27.5665 52.1638 28.9286 52.5887 30.2997C52.8945 31.2307 53.2056 32.161 53.4765 33.1034C53.7967 34.171 54.167 35.2242 54.469 36.2978C54.8355 37.4747 55.2513 38.6379 55.5768 39.8284C56.2241 41.736 56.7552 43.68 57.3941 45.5906C57.8797 47.2888 58.4701 48.9543 58.9633 50.651C59.3032 51.6609 59.6014 52.6852 59.9345 53.6982C59.8761 53.8098 59.8237 53.9251 59.7759 54.0419C59.2744 54.0913 58.791 54.2316 58.2963 54.3151C57.9571 54.3037 57.6544 54.4934 57.3167 54.4843C57.08 54.4714 56.8607 54.5556 56.6391 54.6232C56.3751 54.6642 56.1019 54.6467 55.847 54.7393C55.6375 54.8189 55.4114 54.8159 55.1914 54.8167C54.9797 54.8022 54.8021 54.9586 54.5919 54.9457C54.2702 54.9328 53.9614 55.0215 53.6563 55.1103C53.4257 55.1862 53.1768 55.1596 52.9476 55.2401C52.5622 55.3645 52.1486 55.3592 51.7624 55.4836C51.4779 55.5785 51.1691 55.5193 50.8883 55.6286C50.603 55.7371 50.2911 55.6953 50.0028 55.7879C49.716 55.8774 49.4216 55.9336 49.1226 55.9503C48.8047 56.0588 48.4898 56.1916 48.1468 56.1741C47.9071 56.2804 47.6559 56.3555 47.3934 56.3737C47.0732 56.3828 46.7954 56.5937 46.4684 56.5543C46.0541 56.5125 45.6649 56.6901 45.2544 56.7C44.0145 56.9633 42.764 57.1742 41.5249 57.442C41.163 57.439 40.8329 57.6166 40.4725 57.6219C40.1022 57.634 39.7813 57.8746 39.4072 57.8396C39.0862 57.8108 38.8252 58.1363 38.4989 58.0157C38.2599 57.9428 38.0528 58.1333 37.8183 58.1379C37.4715 58.1644 37.1301 58.2312 36.8023 58.3473C36.2894 58.3594 35.8136 58.5871 35.2999 58.6068C34.8909 58.757 34.4493 58.7259 34.0365 58.861C33.7687 58.9285 33.4712 58.8981 33.2292 59.0499C33.0827 59.1539 32.8999 59.1235 32.7329 59.1258C32.4173 59.1061 32.1305 59.2722 31.8186 59.2836C31.3922 59.3026 31.0348 59.6061 30.603 59.5788C30.402 59.5598 30.2305 59.6729 30.0453 59.726C29.8572 59.751 29.6667 59.7229 29.4793 59.7427C29.2797 59.817 29.0802 59.9043 28.8624 59.8793C28.4162 59.8512 28.0057 60.0629 27.5687 60.1031C27.3046 60.1099 27.0808 60.2981 26.8129 60.2723C26.5474 60.242 26.3 60.3429 26.0466 60.4005C25.649 60.4316 25.2612 60.5288 24.875 60.6251C24.3681 60.6562 23.8886 60.8497 23.381 60.8824C23.0585 60.9795 22.7292 61.0546 22.39 61.0167C22.2693 60.8201 22.2094 60.6031 22.214 60.3732C22.1062 60.16 22.0447 59.9362 22.0592 59.6956C21.8937 59.4209 21.9309 59.0916 21.789 58.8094C21.5432 58.002 21.3247 57.1871 21.1039 56.3737C21.0902 56.0755 20.9149 55.816 20.9119 55.5163C20.8421 55.2082 20.7313 54.9115 20.6918 54.5974C20.5272 54.3288 20.5871 53.9987 20.4134 53.7354C20.4096 53.3484 20.1463 53.0275 20.1516 52.6397C19.9816 52.2747 20.0006 51.8582 19.8208 51.4978C19.7934 51.3255 19.8329 51.1373 19.7229 50.9894C19.6212 50.8551 19.6607 50.6821 19.6121 50.5318C19.455 50.2002 19.3981 49.8345 19.2691 49.4915C19.2175 49.1167 19.0028 48.7851 19.0172 48.4012C18.8897 48.2153 18.8579 48.0043 18.8685 47.7843C18.7046 47.4861 18.7304 47.1363 18.5877 46.8312C18.4102 46.2872 18.2842 45.731 18.1188 45.1877C18.0983 44.891 17.9071 44.6399 17.898 44.3432C17.8805 44.1103 17.7478 43.9046 17.7326 43.6717C17.7038 43.3598 17.511 43.0882 17.5209 42.7718C17.5072 42.5828 17.3433 42.4333 17.3684 42.2345C17.3835 42.0153 17.2014 41.8468 17.209 41.6283C17.1901 41.3582 17.0087 41.1328 16.9897 40.8642C16.9647 40.5258 16.7166 40.245 16.756 39.8945C16.536 39.616 16.6756 39.2442 16.4806 38.9536C16.4487 38.5901 16.2841 38.2616 16.2059 37.908C16.0655 37.5544 16.0193 37.1704 15.8569 36.8252C15.8485 36.6514 15.8288 36.4799 15.7446 36.3252C15.6566 36.1666 15.7142 35.9769 15.6459 35.8122C15.5109 35.4685 15.4934 35.0937 15.3599 34.7492C15.2187 34.2567 15.0746 33.7658 14.9365 33.2741C14.9069 32.9357 14.7073 32.6405 14.6975 32.2998C14.5503 31.9166 14.5138 31.5023 14.3583 31.1214C14.334 30.915 14.3211 30.7071 14.2217 30.519C14.0753 29.8664 13.8977 29.2176 13.7065 28.575C13.5494 28.3026 13.6063 27.9755 13.4417 27.7069C13.4113 27.502 13.4037 27.2934 13.3134 27.1022C13.0517 25.9693 12.6495 24.8736 12.3984 23.7385C12.1487 22.7263 11.8718 21.7186 11.5667 20.7201C11.4582 20.0751 11.2048 19.4605 11.1016 18.8155C10.8133 17.7919 10.5629 16.7554 10.2464 15.7394C9.94142 14.3865 9.52029 13.0639 9.16746 11.7232C8.7949 10.1297 8.28803 8.5674 7.91623 6.97548C7.67873 6.13551 7.49662 5.2796 7.22043 4.45025C7.19615 4.21503 7.12482 3.98816 7.00266 3.7848C6.9116 3.79087 6.81979 3.79467 6.72798 3.79543C6.74391 4.10349 6.93133 4.36527 6.95485 4.67106C7.18932 5.41011 7.4086 6.16055 7.58312 6.91933C7.66431 7.11737 7.70605 7.32755 7.72881 7.54077C7.79179 7.71453 7.86084 7.88829 7.87374 8.07495C8.25085 9.27079 8.58016 10.4848 8.86319 11.708C9.19554 12.9471 9.57568 14.1725 9.8534 15.4245C9.93762 15.6408 9.98088 15.8692 10.0082 16.0991C10.1137 16.2857 10.1402 16.4936 10.1653 16.7023C10.3474 16.977 10.3413 17.3184 10.4703 17.6151C10.6099 18.1842 10.7935 18.7419 10.9066 19.314C11.1987 20.4416 11.5424 21.5562 11.8475 22.6823C12.1958 24.2856 12.7208 25.8441 13.0881 27.4383C13.1738 27.5969 13.1746 27.7775 13.186 27.9528C13.2527 28.1288 13.3309 28.3033 13.3415 28.4953C13.8127 29.8444 14.1003 31.2557 14.4918 32.6337C14.7984 33.7081 15.111 34.781 15.3667 35.8691C15.5625 36.7948 15.8834 37.691 16.1058 38.6121C16.2249 38.8618 16.1907 39.1493 16.3114 39.3982C16.3941 39.5788 16.3402 39.7882 16.4244 39.9696C16.5489 40.2291 16.536 40.5318 16.6756 40.7853C16.7629 40.9332 16.7166 41.1169 16.797 41.2671C16.9435 41.5357 16.9526 41.8498 17.0641 42.1321C17.3441 43.1739 17.5831 44.221 17.8934 45.2553C18.1962 46.3122 18.4807 47.3753 18.7311 48.4459C18.9679 49.3815 19.2706 50.2981 19.4884 51.2405C19.6083 51.5076 19.5954 51.8104 19.71 52.079C19.7836 52.2391 19.7525 52.4242 19.8139 52.5858C19.9642 52.815 19.911 53.1079 20.059 53.3408C20.2958 54.155 20.5226 54.973 20.7169 55.7978C21.1099 57.3343 21.6031 58.845 21.9438 60.3922C22.0834 60.6509 22.0554 60.9469 22.0759 61.2306C21.9514 61.2284 21.8277 61.2299 21.7048 61.2329C21.2609 59.748 20.8891 58.2433 20.4938 56.7462C19.9786 55.0526 19.6478 53.3082 19.04 51.6434C19.0673 51.3005 18.8897 50.9954 18.8366 50.6646C18.398 48.9634 17.8897 47.2804 17.4769 45.5732C17.0846 44.1831 16.7052 42.79 16.3524 41.3893C15.8781 39.852 15.5169 38.2851 15.0738 36.7379C14.7544 35.6514 14.4949 34.5451 14.1906 33.4532C13.9607 32.4258 13.6116 31.4265 13.3704 30.4013C13.1503 29.5037 12.8862 28.6159 12.6313 27.7266C12.5964 27.5316 12.5296 27.3465 12.4545 27.1644C12.0577 25.338 11.4673 23.5579 11.0371 21.7399C10.789 20.783 10.5166 19.8308 10.2502 18.8785C9.81698 17.1128 9.26534 15.3767 8.83739 13.608C8.36315 11.9614 7.93672 10.3035 7.50952 8.64556C7.11268 7.323 6.78337 5.98299 6.41764 4.65361C6.37894 4.4624 6.31065 4.28029 6.23249 4.10197C6.17634 4.10046 6.06328 4.09666 6.00713 4.09514C5.96844 4.27573 5.98513 4.46088 6.06177 4.63009C6.52235 6.26829 6.90629 7.92472 7.40633 9.5523C7.46703 9.86037 7.59982 10.1548 7.59906 10.4727C6.89491 10.5395 6.20442 10.7064 5.49496 10.7163C5.11784 10.7777 4.74528 10.89 4.3583 10.8673C3.9129 10.843 3.49329 11.0456 3.0494 11.0228C2.83163 10.5 2.74286 9.937 2.58351 9.39599C2.19198 7.8716 1.76023 6.3548 1.36187 4.83344C1.35808 4.65209 1.30345 4.47378 1.16307 4.35237C0.956684 4.31291 0.748019 4.40169 0.559082 4.47681C0.734361 4.12701 1.02877 3.86068 1.39526 3.72486C1.49921 3.76735 1.60165 3.8235 1.71774 3.82047C2.33236 3.82274 2.95 3.81212 3.55324 3.67933C3.95615 3.62925 4.36817 3.68388 4.76804 3.5989C5.14516 3.61028 5.50786 3.44183 5.88497 3.51619C5.95478 3.65277 6.00106 3.79922 6.06101 3.93959C6.06101 3.77418 6.06177 3.60877 6.0557 3.44335C6.49807 3.25973 6.98824 3.41983 7.44958 3.33636C7.84263 3.23696 8.25464 3.31208 8.64997 3.21799C9.29569 3.19902 9.92852 3.04499 10.5765 3.04803C10.855 3.05334 11.1244 2.97063 11.4021 2.95773C11.7891 2.85302 12.195 2.93345 12.5835 2.8386C13.2588 2.81887 13.9205 2.66029 14.5981 2.66788C15.0321 2.66181 15.457 2.54951 15.8895 2.51991C16.9321 2.51005 17.9549 2.29076 18.9967 2.2771C19.8299 2.09879 20.6896 2.17315 21.5219 1.99484C21.9484 1.99484 22.3657 1.89392 22.7937 1.90985C23.299 1.86053 23.7983 1.73533 24.3105 1.75203C25.1717 1.6807 26.0238 1.53046 26.8903 1.52515C27.3926 1.44927 27.8957 1.36505 28.4064 1.37567C28.9193 1.38402 29.4102 1.19963 29.9232 1.21709C30.3815 1.145 30.8512 1.18977 31.3034 1.07671C31.676 1.00007 32.0554 1.00159 32.434 0.993245C32.9386 0.939372 33.4363 0.833142 33.9455 0.830107C34.3029 0.736018 34.6777 0.81569 35.0343 0.719325C35.3553 0.701873 35.6679 0.611578 35.9912 0.621442C36.6581 0.638894 37.3054 0.443887 37.9716 0.455269C38.3714 0.368009 38.7865 0.437058 39.1833 0.332346C39.6394 0.296684 40.0901 0.221564 40.5499 0.231428ZM38.1749 3.55262C37.4988 3.65277 36.7803 3.44411 36.13 3.72334C35.6512 3.72562 35.1732 3.74611 34.7035 3.84702C34.0798 3.97602 33.4424 3.93656 32.8111 3.9616C32.0614 4.17937 31.2518 3.88193 30.5082 4.15585C29.9437 4.21807 29.3662 4.13384 28.8009 4.21048C28.549 4.28105 28.2842 4.25297 28.0293 4.30533C27.7599 4.35844 27.464 4.2727 27.2212 4.43204C27.1787 4.85924 27.4488 5.21511 27.5535 5.61195C27.6385 5.97768 27.7993 6.31989 27.8631 6.69094C28.0414 7.04074 28.0088 7.45124 28.1977 7.79648C28.1969 8.06888 28.2288 8.33218 28.357 8.57575C28.3745 8.965 28.6112 9.29356 28.6135 9.68054C28.6795 9.83988 28.8154 9.97418 28.8214 10.1548C28.8229 10.3839 28.9656 10.5698 29.0551 10.7717C29.0711 10.9378 29.0491 11.1048 29.068 11.2709C29.128 11.3696 29.2001 11.4599 29.2638 11.557C29.3025 11.7308 29.2471 11.9212 29.3336 12.0851C29.4429 12.3181 29.4861 12.5723 29.5271 12.8242C29.6128 13.0063 29.6705 13.1967 29.6933 13.397C30.0051 13.9145 30.1622 14.5049 30.3231 15.0823C30.4642 15.3752 30.4566 15.7106 30.5856 16.0073C30.6683 16.1916 30.6258 16.3965 30.6463 16.5908C30.8056 17.3215 31.0469 18.0294 31.251 18.7487C31.5887 19.7936 31.8748 20.8551 32.135 21.9182C32.28 22.2406 32.3733 22.5867 32.5964 22.8682C32.626 23.2605 32.8604 23.5958 32.8809 23.9889C32.9727 24.2628 33.0812 24.5322 33.085 24.8266C33.2087 25.0679 33.255 25.3327 33.2967 25.5983C33.4788 25.9253 33.5213 26.3032 33.6829 26.6393C33.7626 27.0559 33.9493 27.4413 34.0145 27.8617C34.1101 28.0916 34.1731 28.3291 34.1503 28.581C34.2384 28.8049 34.3954 29.0158 34.359 29.27C34.2998 29.5219 34.548 29.6972 34.5161 29.9461C34.4812 30.2519 34.7301 30.4878 34.743 30.7853C34.7619 31.0562 35.0146 31.2535 34.9729 31.5403C35.3348 32.6693 35.5958 33.8348 35.9722 34.9631C36.3068 36.0596 36.6065 37.1651 36.932 38.2638C37.3463 39.7564 37.8077 41.236 38.2212 42.7278C38.2447 43.098 38.4936 43.4114 38.4784 43.7878C38.7615 43.8105 39.0475 43.8143 39.3306 43.7794C39.8488 43.6307 40.3906 43.6049 40.9111 43.4615C41.1046 43.3993 41.3148 43.4349 41.5098 43.3742C41.6721 43.3355 41.8292 43.2642 41.9999 43.2642C42.462 43.2483 42.8976 43.0518 43.3597 43.0373C43.6442 43.0229 43.906 42.8719 44.1943 42.8863C44.4827 42.9068 44.7361 42.7278 45.0229 42.7308C45.4683 42.7186 45.8826 42.5123 46.328 42.5024C46.5875 42.4903 46.8228 42.3491 47.0845 42.3506C47.5049 42.3241 47.8987 42.1291 48.3229 42.1283C48.6256 42.1238 48.9033 41.9553 49.2106 41.9743C49.4762 41.9925 49.7114 41.8354 49.974 41.8263C50.4619 41.8294 50.9164 41.6063 51.4035 41.5911C51.6395 41.5562 51.9203 41.475 52.0401 41.2481C52.0819 40.9385 51.8527 40.6965 51.7586 40.4218C51.7753 40.0682 51.5401 39.7753 51.5173 39.424C51.5234 39.2601 51.4164 39.1372 51.2859 39.0545C51.2965 38.9103 51.2783 38.7662 51.3018 38.6235C51.2548 38.603 51.1615 38.5628 51.1152 38.5423C51.1372 38.3511 51.1516 38.1508 51.0279 37.9899C50.8481 37.7365 50.9171 37.3966 50.7419 37.1416C50.6152 36.9815 50.7191 36.7584 50.6053 36.5945C50.4368 36.2827 50.3981 35.92 50.2259 35.6096C50.0582 34.9722 49.7866 34.3599 49.6819 33.7051C49.5688 33.5131 49.5301 33.3014 49.5278 33.0814C49.3533 32.7149 49.3047 32.3044 49.1082 31.947C49.0991 31.6556 48.873 31.4356 48.8457 31.1495C48.8252 30.8566 48.5945 30.6237 48.6173 30.3247C48.615 30.0834 48.4238 29.8907 48.4185 29.6486C48.4412 29.374 48.2288 29.1562 48.2379 28.883C48.2546 28.6721 48.014 28.5605 48.0194 28.3534C47.9936 28.1038 47.7948 27.9156 47.7485 27.6712C47.6756 27.3199 47.4791 27.0066 47.467 26.6431C47.2962 26.2986 47.3008 25.9063 47.1414 25.5588C47.1134 25.3494 47.1111 25.1339 46.9753 24.9594C46.7674 24.3311 46.4965 23.7203 46.3478 23.0708C46.193 22.6914 46.1482 22.2801 45.9896 21.903C45.9896 21.5395 45.7749 21.2307 45.7445 20.8703C45.6064 20.6677 45.5655 20.4287 45.5108 20.195C45.3287 19.9066 45.3113 19.5568 45.1641 19.2541C45.0715 19.0424 45.0776 18.8034 44.9774 18.5947C44.8568 18.3542 44.9 18.0636 44.7505 17.8359C44.6481 17.6743 44.7058 17.4679 44.6132 17.301C44.466 17.0346 44.4569 16.7213 44.318 16.4519C44.032 15.6704 43.8476 14.8585 43.5683 14.0762C43.5562 13.6808 43.2284 13.3599 43.3301 12.9509C43.4242 13.1034 43.4818 13.2756 43.5782 13.4274C43.3513 12.6914 43.1662 11.9402 42.8945 11.2186C42.8816 11.3058 42.8574 11.4811 42.8445 11.5684C42.7511 11.3855 42.6897 11.1905 42.6479 10.9902C42.4825 10.4697 42.2868 9.95749 42.1775 9.42103C42.0348 9.19112 42.0303 8.91872 41.9423 8.66984C41.8019 8.37847 41.8027 8.04384 41.6441 7.75854C41.5963 7.39509 41.3739 7.09157 41.311 6.73419C41.273 6.51793 41.1069 6.33886 41.1258 6.11274C41.1319 5.96023 41.1031 5.81151 41.0355 5.67493C40.9217 5.47916 41.0143 5.23559 40.8876 5.04514C40.7715 4.86151 40.7138 4.65437 40.7517 4.43736C40.4831 4.21731 40.3898 3.8493 40.5211 3.52833C40.3375 3.36368 40.1075 3.29918 39.8662 3.36216C39.3146 3.52758 38.7106 3.30753 38.1749 3.55262ZM43.5941 13.583C43.4606 13.7893 43.8597 13.6042 43.5941 13.583V13.583Z" fill="#ffffff"/>
<path d="M27.3879 1.0016C27.7355 0.973525 28.086 0.978836 28.4343 0.985665C28.0913 1.04561 27.7332 1.0403 27.3879 1.0016Z" fill="#ffffff"/>
<path d="M44.1396 1.79074C44.4932 2.26726 44.5767 2.86669 44.8005 3.40239C44.9781 3.81821 45.0669 4.26285 45.1989 4.69308C45.4425 5.62942 45.7217 6.55589 45.9759 7.48919C46.0336 7.78284 46.1823 8.06435 46.1201 8.3709C45.988 7.75401 45.7642 7.1576 45.5836 6.55134C45.0858 5.08917 44.6875 3.59588 44.1662 2.1413C44.1419 2.02596 44.1465 1.90759 44.1396 1.79074Z" fill="#ffffff"/>
<path d="M37.8197 3.80677C38.5079 3.81967 39.1802 3.60721 39.8691 3.65274C39.9974 3.65198 40.118 3.71799 40.1977 3.81739C40.2895 4.24838 40.4519 4.65813 40.5262 5.09291C40.659 5.35165 40.6211 5.6582 40.766 5.91087C40.8905 6.1423 40.873 6.42229 41.0339 6.6393C41.3518 7.54377 41.5794 8.48011 41.8291 9.40127C41.9907 9.63649 41.9345 9.94835 42.1159 10.1775C42.5658 11.4576 42.8997 12.7756 43.3117 14.067C43.6547 15.1255 43.9863 16.1924 44.2906 17.263C44.4362 17.5536 44.4142 17.8951 44.5804 18.1789C44.7117 18.8185 44.9841 19.4142 45.1563 20.0417C45.3255 20.355 45.346 20.7185 45.5001 21.0395C45.5357 21.3847 45.7254 21.6867 45.7558 22.0319C46.0358 22.9038 46.3135 23.7794 46.6253 24.6429C46.6739 24.9988 46.8621 25.3152 46.897 25.6741C47.0586 26.1597 47.177 26.6582 47.3029 27.153C47.5313 27.6363 47.7036 28.147 47.831 28.6652C47.9676 28.9422 47.9737 29.2601 48.1012 29.5409C48.1846 29.7374 48.1505 29.962 48.2423 30.1577C48.3242 30.3467 48.3554 30.55 48.4024 30.7496C48.5101 30.9105 48.5792 31.0903 48.6278 31.2785C48.8926 31.9356 49.0792 32.6192 49.2803 33.2976C49.2962 33.4827 49.3387 33.6626 49.4184 33.8318C49.5891 34.6429 49.945 35.3964 50.181 36.1893C50.2326 36.4738 50.3623 36.7356 50.4117 37.0202C50.4435 37.2706 50.5869 37.4891 50.6105 37.741C50.6461 38.0066 50.8168 38.2365 50.8138 38.5104C50.8017 38.6956 50.9838 38.8132 50.9974 38.9945C51.0247 39.2237 51.1424 39.4217 51.2213 39.6349C51.3541 40.1334 51.5893 40.613 51.6075 41.1358C51.3154 41.2936 50.9845 41.3293 50.6613 41.3718C50.0907 41.5091 49.5064 41.5729 48.9328 41.6935C48.5101 41.7193 48.1156 41.8953 47.6899 41.8969C47.4 41.9834 47.1064 42.0486 46.8044 42.0737C46.2277 42.2193 45.6328 42.2717 45.0584 42.4235C44.5349 42.4295 44.0478 42.667 43.5227 42.6465C43.2434 42.7224 42.9635 42.818 42.669 42.7907C42.4536 42.7702 42.2828 42.9478 42.0688 42.9425C41.8678 42.9508 41.6652 42.9622 41.4755 43.0328C41.0915 43.1655 40.6788 43.1587 40.2925 43.2763C39.9837 43.3757 39.6506 43.3727 39.3312 43.3431C38.885 43.0995 38.5967 42.5775 38.7074 42.0676C38.4866 41.8893 38.3273 41.651 38.2013 41.4006C37.8455 40.2807 37.5503 39.144 37.2438 38.0119C36.9949 37.1939 36.7331 36.3798 36.5222 35.5496C36.3727 35.1998 36.3454 34.8136 36.1875 34.4669C36.1458 34.2134 36.0874 33.9668 35.972 33.7362C35.9865 33.3454 35.7376 33.0252 35.7019 32.6443C35.5175 32.2656 35.4674 31.846 35.3104 31.4568C35.2565 31.1055 35.0683 30.7951 35.019 30.4446C34.9697 30.2215 34.824 30.0265 34.824 29.7928C34.8232 29.5226 34.6275 29.3041 34.6108 29.0355C34.6032 28.7654 34.4264 28.5423 34.396 28.2767C34.3536 27.9725 34.198 27.7001 34.1457 27.3973C33.8998 26.7349 33.7458 26.0444 33.5212 25.3759C33.4954 25.0011 33.2951 24.6718 33.2761 24.2969C33.1759 24.0473 33.0887 23.7938 33.0697 23.5237C32.8967 23.1618 32.8436 22.7604 32.6683 22.3984C32.5993 22.0092 32.3876 21.6617 32.364 21.2633C32.1842 20.9097 32.2001 20.5053 32.0438 20.1449C32.0415 19.8011 31.8344 19.5166 31.7851 19.185C31.4687 18.3321 31.2061 17.4565 30.9891 16.5733C30.8624 16.3092 30.9057 16.0034 30.7721 15.7416C30.6666 15.517 30.6962 15.2522 30.565 15.039C30.4367 14.8478 30.4694 14.602 30.3616 14.4047C30.1871 14.0807 30.178 13.7028 30.0285 13.3682C29.967 12.9486 29.7735 12.5631 29.7341 12.1397C29.6802 11.9568 29.5755 11.7854 29.5861 11.5881C29.6104 11.3111 29.36 11.1093 29.376 10.8323C29.3896 10.6259 29.1756 10.5061 29.1498 10.3065C29.0998 9.98325 28.9169 9.70099 28.8706 9.37775C28.8281 9.10155 28.6832 8.85343 28.6566 8.5742C28.624 8.30559 28.4609 8.06809 28.4647 7.79341C28.4859 7.56198 28.2833 7.39429 28.2825 7.16514C28.2583 6.87301 28.0663 6.63627 28.0162 6.35173C27.9684 6.10967 27.8333 5.8957 27.7878 5.65289C27.7347 5.32509 27.5162 5.02158 27.6216 4.67861C27.8462 4.58452 28.0906 4.5739 28.3319 4.58528C28.8175 4.61108 29.2887 4.46767 29.7705 4.43428C30.1393 4.42366 30.5118 4.45553 30.8783 4.39483C31.4429 4.29922 32.0142 4.27342 32.5864 4.27418C33.0363 4.20513 33.4901 4.15885 33.9446 4.12925C34.6085 4.15278 35.2557 3.94791 35.9197 3.97674C36.5601 4.00178 37.18 3.79539 37.8197 3.80677ZM29.4769 5.32737C29.3054 5.35772 29.0686 5.33723 28.9973 5.53604C29.4473 5.41235 29.917 5.40553 30.3768 5.33951C31.0673 5.3562 31.7464 5.22645 32.4316 5.16423C31.4421 5.13616 30.464 5.29702 29.4769 5.32737ZM41.5673 11.0562C41.8154 11.862 41.9232 12.7134 42.2661 13.4919C42.1827 12.9675 42.0347 12.4576 41.933 11.9379C41.7881 11.6533 41.7054 11.3438 41.5673 11.0562ZM34.4901 25.3349C34.6593 26.0672 34.7625 26.8267 35.063 27.5187C34.9371 26.7766 34.8096 26.0209 34.4901 25.3349ZM35.6473 29.2707C35.727 29.8383 35.8726 30.393 35.9902 30.9522C36.1405 31.2823 36.224 31.6366 36.3484 31.9758C36.2057 31.5182 36.1139 31.041 36.035 30.5652C35.9963 30.2754 35.8499 30.0121 35.8264 29.7192C35.8286 29.55 35.7209 29.4141 35.6473 29.2707ZM38.0686 37.7539C38.1869 38.1212 38.1831 38.5142 38.3068 38.8792C38.3834 39.1023 38.3599 39.3481 38.4593 39.5651C38.6012 39.8368 38.5974 40.1585 38.7697 40.4172C38.52 39.5348 38.4517 38.5962 38.0686 37.7539ZM50.5953 39.9711C50.6158 40.1486 50.6135 40.3277 50.6044 40.5068C50.1779 40.6912 49.7151 40.7283 49.2704 40.8429C49.6589 40.8793 50.0163 40.6828 50.4025 40.6995C50.5528 40.7124 50.6658 40.5986 50.7918 40.5356C50.7751 40.3322 50.6613 40.1592 50.5953 39.9711Z" fill="#ffffff"/>
<path d="M0.583287 5.38737C0.702416 5.19312 0.758565 4.94044 0.970265 4.82056C1.04311 5.22726 1.15996 5.62259 1.24646 6.02626C1.59854 7.19023 1.90129 8.36938 2.20556 9.54625C2.43699 10.3035 2.5933 11.0835 2.86115 11.8294C2.87708 12.0677 2.93475 12.3006 3.01822 12.5245C3.34981 13.715 3.6002 14.929 3.98491 16.1052C4.30815 17.3018 4.5889 18.5075 4.95083 19.6919C5.39017 21.4151 5.86289 23.1284 6.32195 24.8478C6.58601 25.7819 6.79088 26.7319 7.0648 27.6637C7.2765 28.4035 7.50034 29.1395 7.66196 29.8922C7.94195 30.9196 8.22801 31.9485 8.51483 32.9767C8.66886 33.7476 8.92078 34.498 9.11048 35.2621C9.46255 36.5839 9.81766 37.9065 10.1553 39.2305C10.3799 40.0629 10.644 40.8885 10.8435 41.7292C11.2017 43.1777 11.6456 44.6073 11.9893 46.0603C12.6798 48.5211 13.2845 50.997 13.9894 53.4524C14.4182 55.2234 14.9493 56.9686 15.3833 58.7403C15.6701 59.7518 15.9145 60.7769 16.2096 61.7861C16.2643 61.9265 16.3386 62.0585 16.3925 62.1996C16.3432 62.4561 16.0677 62.5722 15.9532 62.7953C15.7915 63.1018 15.4926 63.2923 15.2816 63.5616C15.1322 63.3234 14.9432 63.0844 14.9303 62.7915C14.856 62.2778 14.6397 61.7982 14.5434 61.2898C13.9272 58.9323 13.3058 56.5786 12.6631 54.2294C12.2412 52.6033 11.8231 50.978 11.3716 49.3603C11.0226 47.911 10.6288 46.4686 10.235 45.0352C9.95424 43.8872 9.62948 42.752 9.3199 41.6124C8.74702 39.3163 8.08233 37.043 7.53904 34.7416C7.33265 34.1065 7.2674 33.4342 7.04583 32.8037C6.7279 31.6534 6.35837 30.5167 6.10266 29.3505C5.5958 27.4846 5.09197 25.6172 4.60635 23.7468C4.36506 22.6246 3.99932 21.5327 3.72464 20.4181C3.12445 18.0537 2.47797 15.7015 1.86259 13.3402C1.487 12.0707 1.23205 10.7732 0.876935 9.49769C0.575699 8.63723 0.43153 7.73655 0.198584 6.85789C0.145469 6.70082 0.0324118 6.55134 0.0749035 6.37758C0.202379 6.02702 0.392074 5.7053 0.583287 5.38737Z" fill="#ffffff"/>
<path d="M6.48275 10.9591C6.86594 10.978 7.23167 10.8437 7.60878 10.802C7.78482 10.8627 7.8865 11.0281 7.88498 11.2102C7.61713 11.3536 7.31286 11.2694 7.02832 11.3271C6.3181 11.535 5.56463 11.4629 4.84454 11.6185C4.44542 11.7012 4.0372 11.6974 3.63201 11.7141C3.49239 11.7186 3.4279 11.8962 3.49012 12.0115C3.83233 12.0305 4.16164 11.9174 4.50309 11.9265C4.76032 11.9318 5.01527 11.9 5.26187 11.8256C5.54338 11.73 5.84993 11.8104 6.13295 11.7148C6.45923 11.7019 6.78551 11.708 7.09357 11.582C7.36446 11.5464 7.70667 11.4546 7.93354 11.6496C8.18394 12.3363 8.3319 13.0563 8.54057 13.7575C8.74165 14.6247 8.99887 15.4776 9.22575 16.3388C9.40027 16.9072 9.51409 17.4929 9.70302 18.056C9.71896 18.1812 9.71365 18.3071 9.70909 18.4323C9.36233 18.6091 8.98142 18.6379 8.599 18.6137C8.22112 18.6949 7.84097 18.7776 7.45627 18.8231C7.20056 18.8269 6.9403 18.8155 6.69901 18.9141C6.43571 19.0181 6.14889 18.9559 5.87649 19.0022C5.64202 19.0545 5.41439 19.1494 5.17006 19.1349C5.05093 18.4634 4.80736 17.82 4.67078 17.1507C4.24738 15.4162 3.68664 13.7165 3.30953 11.9705C3.20557 11.7877 3.08796 11.6131 3.01208 11.4159C3.18509 11.3013 3.38541 11.2368 3.59407 11.2626C3.90821 11.2952 4.20489 11.1776 4.51371 11.1442C4.88855 11.0585 5.28236 11.1738 5.65265 11.0592C5.92277 10.9849 6.20125 10.9409 6.48275 10.9591Z" fill="#ffffff"/>
<path d="M43.1661 12.4447C43.2966 12.4091 43.3816 12.8492 43.1858 12.7619C43.1335 12.6686 43.1259 12.5434 43.1661 12.4447Z" fill="#ffffff"/>
<path d="M8.91015 18.8413C9.22125 18.8291 9.52401 18.7517 9.83511 18.7388C9.97548 18.927 10.0134 19.1379 9.91402 19.355C8.85931 19.3147 7.83344 19.6145 6.78404 19.6547C6.29463 19.7192 5.78018 19.9104 5.29456 19.7313C5.29987 19.6129 5.30518 19.4953 5.30897 19.377C5.51764 19.3792 5.72251 19.3405 5.92283 19.2836C6.20282 19.2017 6.49647 19.2078 6.78253 19.1622C7.13991 19.1243 7.4844 18.9983 7.8471 18.9976C8.20828 18.9938 8.54973 18.8489 8.91015 18.8413Z" fill="#ffffff"/>
<path d="M7.33112 19.9028C7.98595 19.8694 8.64153 19.836 9.28802 19.7283C9.54524 19.679 9.80627 19.6653 10.0673 19.6532C10.2479 20.0113 10.2995 20.412 10.4315 20.7875C10.9414 22.7111 11.4634 24.6293 11.9976 26.5467C11.21 26.7258 10.4285 26.9048 9.64161 27.0832C9.31457 27.1067 9.01258 27.2562 8.68403 27.2668C8.27277 27.3465 7.87213 27.502 7.44645 27.4883C6.86447 25.3615 6.28855 23.2323 5.72174 21.1002C5.67318 20.7663 5.50018 20.4628 5.50549 20.1206C5.76575 19.984 6.07306 20.0682 6.35533 20.0303C6.68008 19.981 7.01015 19.9772 7.33112 19.9028Z" fill="#ffffff"/>
<path d="M10.9998 27.1044C11.3481 26.9299 11.7457 26.9375 12.1183 26.8495C12.1608 26.9777 12.1972 27.1082 12.2306 27.2395C11.9953 27.354 11.7252 27.2827 11.4862 27.3783C11.1023 27.5293 10.672 27.4466 10.2896 27.6067C9.93829 27.7577 9.53689 27.6227 9.19468 27.8017C8.87903 27.9474 8.50267 27.7547 8.20295 27.9421C8.0345 28.0506 7.82963 28.0066 7.64221 28.0218C7.65208 27.9429 7.65739 27.8639 7.65815 27.785C7.89868 27.7721 8.15136 27.7888 8.36609 27.6576C8.68023 27.4686 9.07328 27.5688 9.39196 27.3958C9.62263 27.285 9.89807 27.4102 10.1265 27.2918C10.3936 27.1363 10.713 27.1939 10.9998 27.1044Z" fill="#ffffff"/>
<path d="M10.2464 27.8921C10.7798 27.7388 11.3459 27.7669 11.8747 27.6C12.0068 27.5719 12.179 27.5036 12.2746 27.6409C12.6426 28.9597 12.9902 30.2868 13.3324 31.6116C13.541 32.3439 13.7618 33.0731 13.9477 33.8121C14.1109 34.344 14.1905 34.901 14.3962 35.42C14.4341 35.5361 14.3734 35.6499 14.3362 35.7576C14.1314 35.744 13.9257 35.7584 13.733 35.8343C13.4621 35.9337 13.1692 35.9405 12.89 36.0065C12.5539 36.1264 12.1896 36.1203 11.8588 36.2577C11.4415 36.3032 11.0537 36.4732 10.6394 36.5301C10.3906 36.6128 10.1386 36.6978 9.87156 36.6659C9.86321 36.4284 9.78582 36.203 9.71297 35.9792C9.1234 33.8425 8.57252 31.6959 7.98295 29.5591C7.92453 29.1221 7.68096 28.7169 7.73862 28.2654C8.06793 28.2563 8.36538 28.0772 8.69697 28.0833C8.8988 28.0803 9.10139 28.056 9.29109 27.9824C9.59612 27.8557 9.93605 27.9892 10.2464 27.8921Z" fill="#ffffff"/>
<path d="M13.755 36.1498C13.9978 36.0398 14.2604 35.9814 14.5282 35.9897C14.5912 36.0504 14.6572 36.1096 14.7255 36.1658C14.6936 36.2105 14.6291 36.2993 14.5973 36.3433C14.1693 36.2925 13.8127 36.6089 13.3825 36.5694C13.1321 36.5376 12.931 36.7303 12.6867 36.7341C12.4795 36.7516 12.2572 36.6977 12.0713 36.8161C11.7693 37.0035 11.3899 36.7895 11.0887 36.9663C10.8572 37.1014 10.5826 37.0391 10.3306 37.024C10.2593 37.1105 10.1872 37.1962 10.1136 37.2812C10.3193 37.2888 10.5256 37.2903 10.732 37.2903C11.0439 37.3062 11.3201 37.1006 11.6357 37.1355C11.9817 37.1734 12.2837 36.945 12.6275 36.9739C12.7929 36.9701 12.9689 36.9913 13.1184 36.9056C13.4075 36.7508 13.749 36.8737 14.0502 36.7637C14.2611 36.6893 14.4797 36.6385 14.7058 36.6514C15.1959 38.3162 15.5837 40.009 16.0723 41.6753C16.2628 42.4105 16.451 43.1443 16.6422 43.8803C16.5177 43.8758 16.3933 43.8667 16.2696 43.8727C14.9023 44.2529 13.5319 44.6421 12.1494 44.9608C11.4339 42.6913 10.9483 40.3573 10.2661 38.0779C10.1819 37.7327 10.059 37.3958 10.0544 37.0369C10.3648 37.002 10.6342 36.7963 10.9521 36.8229C11.2154 36.8669 11.377 36.577 11.638 36.5975C11.827 36.6028 12.0136 36.5763 12.1737 36.4693C12.4188 36.3084 12.7329 36.4496 12.978 36.2933C13.2155 36.1483 13.5099 36.2712 13.755 36.1498Z" fill="#ffffff"/>
<path d="M8.11346 38.4695C8.58542 40.2504 9.04297 42.035 9.51645 43.8166C9.56122 44.1103 9.71601 44.3781 9.71752 44.6794C9.55818 44.1551 9.33889 43.6528 9.1712 43.1315C8.80623 41.9311 8.46022 40.7231 8.20831 39.4931C8.15595 39.1532 8.04593 38.817 8.11346 38.4695Z" fill="#ffffff"/>
<path d="M15.9751 44.2757C16.2711 44.2514 16.5617 43.9616 16.844 44.1915C16.8477 44.3076 16.8477 44.4229 16.844 44.5398C16.5055 44.5952 16.1831 44.7287 15.834 44.7135C15.551 44.8425 15.249 44.8721 14.9424 44.8827C14.6958 45.017 14.4204 45.0284 14.1457 45.0216C13.8915 45.1088 13.5926 45.2781 13.3558 45.0474C13.4568 44.9723 13.5744 44.929 13.698 44.907C13.934 44.8622 14.1336 44.7014 14.3787 44.6946C14.6169 44.6748 14.8203 44.5307 15.0555 44.4995C15.3712 44.4654 15.6587 44.3152 15.9751 44.2757Z" fill="#ffffff"/>
<path d="M16.2681 44.8751C16.4752 44.9017 16.646 44.7659 16.8455 44.7461C16.9123 44.8895 16.9874 45.0314 17.0367 45.1839C17.5322 47.2562 18.1688 49.292 18.6742 51.3627C18.574 51.4082 18.4777 51.4606 18.3752 51.5C16.9821 51.8567 15.6117 52.3028 14.2065 52.6086C13.9788 52.0122 13.8794 51.3779 13.6753 50.7739C13.4613 50.0113 13.2853 49.2389 13.0653 48.4786C12.8316 47.5498 12.506 46.64 12.3391 45.6976C12.8285 45.7174 13.2732 45.4692 13.758 45.4495C14.0084 45.3592 14.2467 45.2075 14.5244 45.2378C14.79 45.2454 15.0085 45.0383 15.2801 45.0648C15.6246 45.0732 15.9236 44.8523 16.2681 44.8751Z" fill="#ffffff"/>
<path d="M17.7537 51.9857C18.0716 51.8202 18.4381 51.818 18.7659 51.6791C18.8281 51.774 18.8941 51.8673 18.9617 51.9599C18.929 52.0782 18.8569 52.1989 18.8888 52.3263C19.1605 52.9463 19.2659 53.6208 19.4708 54.2635C19.8115 55.7257 20.2903 57.1522 20.6408 58.6129C20.8419 59.4984 21.1561 60.355 21.342 61.2443C20.9914 61.4052 20.5839 61.3422 20.244 61.5304C19.835 61.588 19.4131 61.5979 19.0307 61.7679C18.734 61.7944 18.4427 61.8589 18.1551 61.928C17.63 61.9196 17.1413 62.167 16.617 62.151C16.6231 61.8923 16.6368 61.626 16.5313 61.3847C16.331 60.6122 16.0995 59.8481 15.8863 59.0787C15.4212 57.1924 14.8779 55.3258 14.387 53.4455C14.6328 53.3484 14.8392 53.1481 15.1184 53.1504C15.4189 53.1618 15.6632 52.9303 15.969 52.9774C16.2399 53.0093 16.4592 52.7869 16.7316 52.8218C17.0473 52.8431 17.3341 52.6966 17.6323 52.62C18.0579 52.6124 18.4783 52.494 18.8714 52.3392C18.6665 52.1124 18.297 52.1958 18.0382 52.2823C17.7825 52.4295 17.4707 52.3157 17.2134 52.4531C16.9221 52.5889 16.5821 52.5229 16.2892 52.6511C16.0381 52.768 15.73 52.5836 15.5069 52.7763C15.359 52.8841 15.1662 52.8158 14.997 52.8309C15.0046 52.7915 15.0198 52.7133 15.0266 52.6739C15.2421 52.6481 15.4887 52.7217 15.664 52.5608C15.8302 52.4113 16.0563 52.4546 16.2596 52.4318C16.4842 52.2892 16.7354 52.214 17.0025 52.2262C17.2332 52.0866 17.5002 52.0593 17.7537 51.9857Z" fill="#ffffff"/>
<path d="M58.3797 54.5071C58.8835 54.4775 59.3494 54.2188 59.8623 54.2711C59.9117 54.5139 59.7887 54.7347 59.7311 54.9639C59.6628 55.1604 59.5907 55.3714 59.4344 55.5163C59.1847 55.662 58.8835 55.5641 58.6293 55.6863C58.36 55.8115 58.0526 55.7257 57.781 55.8403C57.5769 55.9162 57.3606 55.9412 57.1482 55.9761C56.8151 56.0148 56.504 56.1537 56.1693 56.184C55.8408 56.2174 55.5342 56.357 55.2049 56.3783C54.8862 56.3965 54.5934 56.5444 54.2739 56.5573C53.8892 56.5824 53.528 56.7364 53.1433 56.7569C52.8588 56.766 52.5962 56.8965 52.314 56.92C51.9262 56.9466 51.5643 57.115 51.175 57.1325C50.9231 57.1408 50.6985 57.2827 50.4466 57.2949C50.049 57.3154 49.6825 57.499 49.2849 57.5157C48.9435 57.5316 48.6293 57.697 48.2856 57.7016C47.8994 57.7175 47.5428 57.9065 47.1535 57.8905C46.9342 57.8731 46.7438 57.9983 46.5336 58.0347C46.3591 58.0506 46.1762 58.0195 46.0123 58.0954C45.6898 58.2358 45.3294 58.21 44.9948 58.3041C44.6002 58.4186 44.1844 58.4217 43.7959 58.559C43.3163 58.6038 42.8611 58.7783 42.3808 58.8109C42.1228 58.8504 41.8785 58.9589 41.6152 58.9627C41.2494 58.9756 40.9194 59.1668 40.5536 59.1805C40.3146 59.1873 40.0984 59.3079 39.8616 59.3307C39.4746 59.3671 39.1021 59.4824 38.7204 59.553C38.2651 59.6054 37.8288 59.7632 37.3713 59.8027C36.8584 59.9483 36.3249 59.9946 35.7953 60.0288C34.0691 60.3922 32.333 60.7071 30.6052 61.063C30.2729 61.0766 29.9656 61.2292 29.6317 61.2322C28.5603 61.4386 27.4912 61.6768 26.419 61.8825C26.0897 61.994 25.7361 61.9713 25.4076 62.0828C24.2778 62.2702 23.1593 62.529 22.0348 62.7444C20.3025 63.0882 18.5672 63.4107 16.8379 63.7544C16.5238 63.9023 16.1732 63.8917 15.8424 63.976C15.6883 64.023 15.5298 63.9919 15.3772 63.9608C15.3742 63.7567 15.5252 63.614 15.6641 63.4881C16.0283 63.1686 16.3318 62.774 16.7613 62.535C17.0344 62.3651 17.3683 62.3924 17.6665 62.2937C17.9192 62.2118 18.184 62.1746 18.4488 62.1685C18.6825 62.12 18.9071 62.013 19.1522 62.0244C19.4398 62.035 19.6909 61.8506 19.9808 61.8582C20.3738 61.8438 20.7282 61.6199 21.125 61.6404C21.4452 61.6533 21.7495 61.5342 22.0356 61.4037C22.1387 61.4689 22.2412 61.5357 22.3459 61.6017C22.5121 61.4022 22.7526 61.2496 23.0212 61.2671C23.3141 61.2997 23.5706 61.126 23.8574 61.1116C24.3149 61.1009 24.7292 60.8672 25.189 60.8619C25.6542 60.6957 26.1542 60.6919 26.6231 60.5455C26.8743 60.4764 27.1422 60.5022 27.3903 60.4135C27.7788 60.2799 28.2007 60.3126 28.5892 60.1798C28.8327 60.1039 29.093 60.1403 29.3373 60.0713C29.807 59.9354 30.2994 59.9081 30.7691 59.7708C31.1478 59.7511 31.4983 59.597 31.8732 59.5553C32.2988 59.5098 32.7033 59.3512 33.1343 59.333C33.6214 59.1835 34.1374 59.1956 34.6275 59.059C34.9189 58.9877 35.2277 59.0135 35.5085 58.8967C35.7558 58.7988 36.0336 58.8724 36.2802 58.7646C36.6216 58.6212 37.0071 58.6683 37.3478 58.5241C37.5466 58.4467 37.7621 58.4444 37.9707 58.4095C38.2773 58.3663 38.5641 58.2183 38.879 58.2305C39.1688 58.2388 39.4253 58.0628 39.7159 58.0681C39.9087 58.0635 40.0999 58.0301 40.285 57.9725C40.6394 57.8564 41.0271 57.9027 41.3784 57.7699C41.6212 57.6803 41.8868 57.7107 42.1319 57.6272C42.4969 57.5149 42.8816 57.4899 43.2503 57.389C43.6244 57.2797 44.0205 57.2736 44.3915 57.1492C44.6442 57.0619 44.9212 57.1249 45.1723 57.027C45.4637 56.92 45.7786 56.9436 46.0768 56.8692C46.3302 56.8108 46.5806 56.7334 46.8416 56.7159C47.1224 56.7076 47.3781 56.5657 47.6596 56.5535C48.0307 56.5293 48.3751 56.3676 48.7462 56.3396C49.0322 56.332 49.291 56.1871 49.5763 56.1726C50.0156 56.1506 50.4246 55.9503 50.8662 55.9488C51.1515 55.9321 51.4118 55.7743 51.7032 55.7917C52.0188 55.8175 52.2965 55.6301 52.6084 55.6309C52.8201 55.6202 53.0288 55.5747 53.2291 55.5072C53.5303 55.3964 53.8649 55.4632 54.1533 55.3076C54.5539 55.2242 54.9652 55.1862 55.3574 55.0565C55.8218 55.0565 56.246 54.8417 56.7073 54.8205C57.0215 54.8281 57.3014 54.6285 57.6201 54.6649C57.8903 54.7059 58.1171 54.5215 58.3797 54.5071Z" fill="#ffffff"/>
<path d="M52.9492 57.0217C53.2253 56.9147 53.5258 56.9215 53.8172 56.9306C53.4894 57.175 53.063 57.1977 52.6828 57.3131C51.9278 57.4686 51.1599 57.5551 50.4103 57.7327C49.9793 57.848 49.5513 57.977 49.1112 58.0506C48.7857 58.0802 48.4564 58.0719 48.1301 58.0582C48.1415 57.8586 48.3714 57.93 48.4989 57.8951C48.8919 57.8882 49.241 57.6765 49.6348 57.6788C50.0286 57.5726 50.4262 57.4861 50.8299 57.4254C51.2472 57.282 51.6972 57.2918 52.1168 57.1537C52.3869 57.0634 52.6828 57.1272 52.9492 57.0217Z" fill="#ffffff"/>
</svg>
