<svg t="1681228372666" class="icon" viewBox="0 0 1024 1024" version="1.1" xmlns="http://www.w3.org/2000/svg" p-id="10848" width="200" height="200"><path d="M309.9 140.6h402.9c21.1 0 38.2-17.1 38.2-38.2s-17.1-38.2-38.2-38.2H309.9c-21.1 0-38.2 17.1-38.2 38.2s17.1 38.2 38.2 38.2z" fill="#61D0ED" p-id="10849"></path><path d="M776.3 112.1c-4.7 30.5-30.8 54-62.7 54H309.1c-31.8 0-58-23.5-62.7-54-46.2 19.1-78.7 64.5-78.7 117.6v602.7c0 70.3 57 127.3 127.3 127.3h432.7c70.3 0 127.3-57 127.3-127.3V229.7c0-53.1-32.5-98.6-78.7-117.6z m-47.9 572.1h-434c-21.1 0-38.2-17.1-38.2-38.2s17.1-38.2 38.2-38.2h433.9c21.1 0 38.2 17.1 38.2 38.2s-17.1 38.2-38.1 38.2z m0-173h-434c-21.1 0-38.2-17.1-38.2-38.2s17.1-38.2 38.2-38.2h433.9c21.1 0 38.2 17.1 38.2 38.2s-17.1 38.2-38.1 38.2z m0-173h-434c-21.1 0-38.2-17.1-38.2-38.2s17.1-38.2 38.2-38.2h433.9c21.1 0 38.2 17.1 38.2 38.2s-17.1 38.2-38.1 38.2z" fill="#61D0ED" p-id="10850"></path></svg>
