<svg width="20" height="20" viewBox="0 0 20 20" fill="none" xmlns="http://www.w3.org/2000/svg">
<g id="bxs:package">
<path id="Vector" d="M18.3275 6.62501C18.3262 6.56484 18.3181 6.50502 18.3034 6.44667C18.2975 6.42584 18.2859 6.40584 18.2784 6.38501C18.2609 6.33751 18.245 6.29084 18.22 6.24751C18.2067 6.22501 18.1884 6.20667 18.1725 6.18501C18.1459 6.14751 18.12 6.10917 18.0875 6.07667C18.0684 6.05834 18.0434 6.04334 18.0225 6.02584C17.99 5.99917 17.96 5.97001 17.9225 5.94751C17.9192 5.94501 17.915 5.94501 17.9109 5.94251L17.9042 5.93751L10.4217 1.77917C10.298 1.71061 10.159 1.67457 10.0176 1.67442C9.87624 1.67428 9.73714 1.71003 9.61335 1.77834L2.09585 5.93667C2.09335 5.93917 2.09085 5.94251 2.08669 5.94501L2.07835 5.94834C2.04919 5.96501 2.02752 5.98917 2.00002 6.00917C1.97002 6.03167 1.93835 6.05167 1.91169 6.07751C1.88669 6.10334 1.86752 6.13334 1.84585 6.16251C1.82335 6.19167 1.79835 6.21751 1.78002 6.24917C1.75835 6.28501 1.74669 6.32584 1.73085 6.36501C1.71919 6.39251 1.70419 6.41834 1.69669 6.44834C1.68229 6.50562 1.67419 6.5643 1.67252 6.62334C1.67169 6.63751 1.66669 6.65001 1.66669 6.66501V13.3333C1.66669 13.6358 1.83085 13.915 2.09585 14.0617L9.57752 18.2175L9.57835 18.2183L9.58002 18.2192L9.59669 18.2283C9.63252 18.2483 9.67169 18.2592 9.70919 18.2733C9.73585 18.2842 9.76169 18.2983 9.79002 18.3058C9.92831 18.3415 10.0734 18.3415 10.2117 18.3058C10.2392 18.2983 10.265 18.2842 10.2925 18.2733C10.33 18.2592 10.3692 18.2492 10.405 18.2283L10.4217 18.2192L10.4234 18.2183L10.4242 18.2175L17.9059 14.0617C18.1692 13.915 18.3334 13.6358 18.3334 13.3333V6.66501C18.3334 6.65084 18.3284 6.63917 18.3275 6.62501ZM9.97669 9.89334L4.21502 6.67084L6.51669 5.39751L12.2117 8.65167L9.97669 9.89334ZM10.0167 3.46084L15.7842 6.66667L13.9142 7.70584L8.22252 4.45334L10.0167 3.46084ZM10.8334 16.0842L10.835 11.3517L13.3334 9.95334V12.5L15 11.6667V9.02084L16.6667 8.08834V12.8425L10.8334 16.0842Z" fill="#DA8029"/>
</g>
</svg>
