<svg width="20" height="20" viewBox="0 0 20 20" fill="none" xmlns="http://www.w3.org/2000/svg">
<g id="&#229;&#143;&#150;&#230;&#182;&#136;&#230;&#148;&#182;&#232;&#151;&#143;">
<path id="Vector" d="M3.02928 3L16.4121 16.3828L15.3821 17.4121L12.6553 14.6846L9.72032 17.6254L3.54901 11.4439C2.83145 10.6391 2.43691 9.5974 2.44134 8.51921C2.44578 7.44102 2.84887 6.40258 3.57303 5.60377L2 4.03001L3.02928 3ZM15.7206 5.44872C16.5091 6.2372 16.9663 7.29745 16.9982 8.41215C17.0301 9.52684 16.6345 10.6115 15.8923 11.4439L14.7022 12.6347L6.26998 4.20325C6.88896 4.12585 7.51734 4.18217 8.11269 4.36839C8.70804 4.55462 9.25651 4.86643 9.72105 5.28276C10.5527 4.53824 11.638 4.14056 12.7538 4.17142C13.8697 4.20229 14.9313 4.65937 15.7206 5.44872Z" />
</g>
</svg>
