<svg width="30" height="30" viewBox="0 0 30 30" fill="none" xmlns="http://www.w3.org/2000/svg">
<g id="mdi:hot">
<path id="Vector" d="M24.7199 13.6671C24.3257 13.167 23.8458 12.7337 23.4001 12.3004C22.2518 11.3003 20.9492 10.5836 19.8522 9.53361C17.2984 7.1002 16.7328 3.08342 18.3611 0C16.7328 0.383344 15.3102 1.25004 14.0933 2.20006C9.65408 5.66683 7.90583 11.7837 9.99687 17.0338C10.0654 17.2005 10.134 17.3672 10.134 17.5838C10.134 17.9505 9.8769 18.2839 9.5341 18.4172C9.13989 18.5839 8.72853 18.4839 8.40288 18.2172C8.3056 18.1379 8.22425 18.0419 8.16292 17.9338C6.22613 15.5504 5.91762 12.1337 7.22024 9.40027C4.35791 11.667 2.79819 15.5004 3.02101 19.1172C3.12385 19.9506 3.22668 20.7839 3.51806 21.6173C3.75802 22.6173 4.22079 23.6173 4.73498 24.5007C6.58607 27.3841 9.7912 29.4508 13.2363 29.8675C16.9042 30.3175 20.8292 29.6675 23.6401 27.2008C26.7767 24.434 27.8736 20.0006 26.2625 16.2005L26.0396 15.7671C25.6797 15.0004 24.7199 13.6671 24.7199 13.6671ZM19.3037 24.1674C18.8238 24.5674 18.0354 25.0007 17.4184 25.1674C15.4987 25.8341 13.5791 24.9007 12.4479 23.8007C14.4875 23.334 15.7044 21.8673 16.0643 20.3839C16.3557 19.0505 15.8072 17.9505 15.5844 16.6671C15.3787 15.4338 15.413 14.3837 15.8758 13.2337C16.2015 13.8671 16.5442 14.5004 16.9556 15.0004C18.2754 16.6671 20.3493 17.4005 20.7949 19.6672C20.8635 19.9006 20.8977 20.1339 20.8977 20.3839C20.9492 21.7506 20.3321 23.2507 19.3037 24.1674Z" fill="#FF0000"/>
</g>
</svg>
