<svg width="18" height="18" viewBox="0 0 18 18" fill="none" xmlns="http://www.w3.org/2000/svg">
<g id="ant-design:read-filled">
<path id="Vector" d="M16.3125 2.83008H12.2906C11.4275 2.83008 10.5838 3.07793 9.85781 3.54551L9 4.0957L8.14219 3.54551C7.41693 3.07802 6.57224 2.82962 5.70937 2.83008H1.6875C1.37637 2.83008 1.125 3.08145 1.125 3.39258V13.377C1.125 13.6881 1.37637 13.9395 1.6875 13.9395H5.70937C6.57246 13.9395 7.41621 14.1873 8.14219 14.6549L8.92266 15.1576C8.94551 15.1717 8.97187 15.1805 8.99824 15.1805C9.02461 15.1805 9.05098 15.1734 9.07383 15.1576L9.8543 14.6549C10.582 14.1873 11.4275 13.9395 12.2906 13.9395H16.3125C16.6236 13.9395 16.875 13.6881 16.875 13.377V3.39258C16.875 3.08145 16.6236 2.83008 16.3125 2.83008ZM7.10156 9.72949C7.10156 9.80156 7.04531 9.86133 6.97676 9.86133H3.71074C3.64219 9.86133 3.58594 9.80156 3.58594 9.72949V8.93848C3.58594 8.86641 3.64219 8.80664 3.71074 8.80664H6.975C7.04355 8.80664 7.0998 8.86641 7.0998 8.93848V9.72949H7.10156ZM7.10156 7.26856C7.10156 7.34063 7.04531 7.40039 6.97676 7.40039H3.71074C3.64219 7.40039 3.58594 7.34063 3.58594 7.26856V6.47754C3.58594 6.40547 3.64219 6.3457 3.71074 6.3457H6.975C7.04355 6.3457 7.0998 6.40547 7.0998 6.47754V7.26856H7.10156ZM14.4141 9.72949C14.4141 9.80156 14.3578 9.86133 14.2893 9.86133H11.0232C10.9547 9.86133 10.8984 9.80156 10.8984 9.72949V8.93848C10.8984 8.86641 10.9547 8.80664 11.0232 8.80664H14.2875C14.3561 8.80664 14.4123 8.86641 14.4123 8.93848V9.72949H14.4141ZM14.4141 7.26856C14.4141 7.34063 14.3578 7.40039 14.2893 7.40039H11.0232C10.9547 7.40039 10.8984 7.34063 10.8984 7.26856V6.47754C10.8984 6.40547 10.9547 6.3457 11.0232 6.3457H14.2875C14.3561 6.3457 14.4123 6.40547 14.4123 6.47754V7.26856H14.4141Z" fill="white"/>
</g>
</svg>
