<svg width="18" height="18" viewBox="0 0 18 18" fill="none" xmlns="http://www.w3.org/2000/svg">
<g id="Property 1=Default">
<path id="Vector" d="M15 8.24999C14.8166 6.93016 14.2043 5.70724 13.2575 4.76962C12.3107 3.83199 11.0818 3.23168 9.76025 3.06116C8.43869 2.89063 7.09772 3.15935 5.9439 3.82593C4.79009 4.4925 3.88744 5.51995 3.375 6.74999M3 3.74999V6.74999H6M3 9.74999C3.18342 11.0698 3.7957 12.2927 4.74252 13.2304C5.68934 14.168 6.91818 14.7683 8.23975 14.9388C9.56131 15.1094 10.9023 14.8406 12.0561 14.1741C13.2099 13.5075 14.1126 12.48 14.625 11.25M15 14.25V11.25H12" stroke-width="1.5" stroke-linecap="round" stroke-linejoin="round"/>
</g>
</svg>
