<svg width="30" height="30" viewBox="0 0 30 30" fill="none" xmlns="http://www.w3.org/2000/svg">
<g id="mingcute:search-fill" clip-path="url(#clip0_323_11092)">
<g id="Group">
<path id="Vector" d="M13.125 2.5C15.12 2.49987 17.0747 3.06138 18.7654 4.12029C20.4561 5.1792 21.8146 6.69271 22.6853 8.48762C23.556 10.2825 23.9038 12.2863 23.6889 14.2697C23.474 16.253 22.705 18.1358 21.47 19.7025L26.035 24.2675C26.2627 24.5033 26.3887 24.819 26.3859 25.1468C26.383 25.4745 26.2515 25.788 26.0198 26.0198C25.788 26.2515 25.4745 26.383 25.1468 26.3858C24.819 26.3887 24.5033 26.2627 24.2675 26.035L19.7025 21.47C18.3718 22.5187 16.8096 23.234 15.1463 23.5561C13.4829 23.8783 11.7667 23.798 10.1407 23.322C8.51464 22.846 7.02605 21.988 5.79906 20.8197C4.57207 19.6513 3.64227 18.2065 3.08723 16.6057C2.5322 15.005 2.36802 13.2947 2.6084 11.6176C2.84877 9.94043 3.48674 8.34511 4.46906 6.96469C5.45138 5.58427 6.74957 4.45878 8.25533 3.68212C9.76109 2.90546 11.4308 2.50014 13.125 2.5ZM13.125 5C10.9701 5 8.9035 5.85602 7.37977 7.37976C5.85604 8.90349 5.00001 10.9701 5.00001 13.125C5.00001 15.2799 5.85604 17.3465 7.37977 18.8702C8.9035 20.394 10.9701 21.25 13.125 21.25C15.2799 21.25 17.3465 20.394 18.8703 18.8702C20.394 17.3465 21.25 15.2799 21.25 13.125C21.25 10.9701 20.394 8.90349 18.8703 7.37976C17.3465 5.85602 15.2799 5 13.125 5ZM13.125 6.25C14.9484 6.25 16.6971 6.97433 17.9864 8.26364C19.2757 9.55295 20 11.3016 20 13.125C20 14.9484 19.2757 16.697 17.9864 17.9864C16.6971 19.2757 14.9484 20 13.125 20C11.3017 20 9.55297 19.2757 8.26365 17.9864C6.97434 16.697 6.25001 14.9484 6.25001 13.125C6.25001 11.3016 6.97434 9.55295 8.26365 8.26364C9.55297 6.97433 11.3017 6.25 13.125 6.25Z" fill="white"/>
</g>
</g>
<defs>
<clipPath id="clip0_323_11092">
<rect width="30" height="30" fill="white"/>
</clipPath>
</defs>
</svg>
