<svg width="21" height="20" viewBox="0 0 21 20" fill="none" xmlns="http://www.w3.org/2000/svg">
<g id="solar:inbox-in-bold">
<path id="Vector" fill-rule="evenodd" clip-rule="evenodd" d="M10.5 8.95832C10.6657 8.95818 10.8246 8.89223 10.9417 8.77499L13.4417 6.27499C13.5521 6.15651 13.6122 5.9998 13.6093 5.83789C13.6065 5.67597 13.5409 5.52148 13.4264 5.40697C13.3119 5.29246 13.1574 5.22687 12.9955 5.22401C12.8336 5.22115 12.6768 5.28126 12.5584 5.39166L11.125 6.82499V1.66666C11.125 1.5009 11.0592 1.34192 10.942 1.22471C10.8248 1.1075 10.6658 1.04166 10.5 1.04166C10.3343 1.04166 10.1753 1.1075 10.0581 1.22471C9.94088 1.34192 9.87504 1.5009 9.87504 1.66666V6.82499L8.4417 5.39166C8.32322 5.28126 8.16652 5.22115 8.0046 5.22401C7.84268 5.22687 7.68819 5.29246 7.57368 5.40697C7.45917 5.52148 7.39358 5.67597 7.39072 5.83789C7.38787 5.9998 7.44797 6.15651 7.55837 6.27499L10.0584 8.77499C10.175 8.89249 10.3342 8.95832 10.5 8.95832Z" fill="#886542"/>
<path id="Vector_2" d="M3.38669 17.1133C4.60836 18.3333 6.57169 18.3333 10.5 18.3333C14.4284 18.3333 16.3925 18.3333 17.6125 17.1125C18.6717 16.0542 18.8125 14.435 18.8309 11.4583H16.2C15.3884 11.4583 15.1759 11.4717 14.9984 11.5533C14.82 11.6358 14.6717 11.7883 14.1434 12.4033L13.5659 13.0783C13.1475 13.5667 12.8159 13.9542 12.3575 14.165C11.8992 14.3758 11.3892 14.3758 10.7459 14.375H10.2542C9.61086 14.375 9.10086 14.3767 8.64252 14.165C8.18419 13.9542 7.85252 13.5667 7.43419 13.0775L6.85669 12.4042C6.32836 11.7875 6.18002 11.6358 6.00169 11.5542C5.82419 11.4717 5.61169 11.4583 4.80002 11.4583H2.16919C2.18836 14.435 2.32752 16.055 3.38669 17.1133Z" fill="#886542"/>
<path id="Vector_3" d="M18.8334 10C18.8334 6.07167 18.8334 4.10751 17.6126 2.88667C16.6042 1.87834 15.0876 1.70334 12.3751 1.67334V4.06501C12.7762 3.92298 13.2136 3.92158 13.6156 4.06104C14.0175 4.20051 14.3601 4.47254 14.5871 4.83246C14.814 5.19237 14.9117 5.61876 14.8643 6.04158C14.8168 6.46441 14.627 6.85852 14.3259 7.15917L11.8259 9.65917C11.6518 9.83329 11.4451 9.9714 11.2176 10.0656C10.9901 10.1599 10.7463 10.2084 10.5001 10.2084C10.2539 10.2084 10.01 10.1599 9.78254 10.0656C9.55506 9.9714 9.34836 9.83329 9.17425 9.65917L6.67425 7.15917C6.37319 6.85852 6.18333 6.46441 6.13588 6.04158C6.08842 5.61876 6.18618 5.19237 6.41311 4.83246C6.64003 4.47254 6.98261 4.20051 7.38458 4.06104C7.78656 3.92158 8.22401 3.92298 8.62508 4.06501V1.67334C5.91175 1.70334 4.39591 1.87834 3.38675 2.88667C2.16675 4.10834 2.16675 6.07167 2.16675 10V10.2083H4.91258C5.55591 10.2083 6.06591 10.2067 6.52425 10.4183C6.98258 10.6292 7.31425 11.0167 7.73258 11.5058L8.31008 12.1792C8.83841 12.7958 8.98675 12.9475 9.16508 13.0292C9.34258 13.1117 9.55508 13.125 10.3667 13.125H10.6334C11.4451 13.125 11.6576 13.1117 11.8351 13.03C12.0134 12.9475 12.1617 12.795 12.6901 12.18L13.2676 11.505C13.6859 11.0167 14.0176 10.6292 14.4759 10.4183C14.9342 10.2067 15.4442 10.2075 16.0884 10.2083H18.8334V10Z" fill="#886542"/>
</g>
</svg>
