<svg width="18" height="18" viewBox="0 0 18 18" fill="none" xmlns="http://www.w3.org/2000/svg">
<g id="octicon:person-fill-16">
<path id="Vector" d="M4.77337 5.35163C4.77331 4.62179 4.96223 3.90438 5.32174 3.26923C5.68126 2.63409 6.19911 2.10286 6.82488 1.72727C7.45066 1.35168 8.16302 1.14453 8.89262 1.12599C9.62222 1.10745 10.3442 1.27815 10.9882 1.62147C11.6323 1.96479 12.1764 2.46903 12.5678 3.0851C12.9591 3.70116 13.1842 4.40806 13.2212 5.13695C13.2582 5.86585 13.1058 6.59191 12.7789 7.24443C12.452 7.89696 11.9617 8.45372 11.3557 8.8605C12.5945 9.32259 13.6705 10.138 14.4504 11.2056C15.2303 12.2733 15.6798 13.5462 15.7432 14.8669C15.7484 14.9776 15.7317 15.0883 15.694 15.1926C15.6564 15.2968 15.5985 15.3926 15.5238 15.4746C15.4491 15.5565 15.359 15.6229 15.2586 15.6699C15.1583 15.717 15.0496 15.7438 14.9389 15.7489H3.06112C2.83766 15.7384 2.62752 15.6396 2.47689 15.4742C2.32626 15.3088 2.24748 15.0903 2.25787 14.8669C2.32111 13.5461 2.77052 12.2728 3.55043 11.2049C4.33033 10.1371 5.40643 9.32154 6.64537 8.85938C6.06927 8.47338 5.59711 7.95144 5.27062 7.33965C4.94412 6.72787 4.77334 6.04508 4.77337 5.35163Z"  fill-opacity="0.3"/>
</g>
</svg>
