<svg xmlns="http://www.w3.org/2000/svg" xmlns:xlink="http://www.w3.org/1999/xlink" width="589.122314453125" height="588.3490600585938" viewBox="0 0 589.122314453125 588.3490600585938" fill="none">
<path d="M194.888 30.8502C195.972 26.7962 197.062 22.7421 198.363 17.8998C202.627 20.2646 207.31 21.4302 209.082 24.2568C210.773 26.9707 209.448 31.4133 209.448 36.8581C213.647 42.6971 217.475 37.5676 221.951 32.9505L215.06 31.4696C215.343 29.5214 215.649 27.5732 215.967 25.1746C224.213 30.6419 227.187 28.9415 230.644 18.6205L240.38 17.1622C240.215 19.4144 240.48 22.3874 239.679 25.0451C238.501 29.0372 241.004 32.8885 245.463 32.9842C251.388 33.1138 257.154 33.4122 260.116 26.6442C260.64 25.4505 264.627 25.0563 266.871 25.3322C268.709 25.5574 271.872 27.4381 271.795 28.4009C271.454 32.7083 274.151 32.8097 277.096 32.5901C281.06 32.2973 285.577 30.2478 288.828 31.464C297.386 34.6734 307.675 26.036 314.813 35.6081L323.241 31.8243L345.951 39.2568L368.544 32.866C371.371 19.0822 377.791 18.0518 393.51 29.0259L393.51 22.4381C397.097 25.8165 400.112 29.3412 403.899 31.7962C405.266 32.6858 408.57 31.1993 410.832 30.3942C414.365 29.1216 417.787 27.5 421.097 26.098L424.313 34.9437C424.313 39.7748 423.135 43.7838 424.66 46.205C426.127 48.5023 429.996 48.0969 433.495 46.3795C437.788 44.2737 441.151 46.4189 441.994 52.0552L434.991 54.0766C445.869 61.1374 448.808 61.5822 452.913 57.455L463.95 60.6926C465.97 55.8897 466.506 50.991 469.298 49.0541C471.872 47.2692 476.86 48.6768 481.413 48.6768C479.646 53.3784 478.509 56.4752 477.29 59.7917C486.125 61.5484 494.37 66.4246 503.793 61.5315L487.891 76.2782L488.663 77.8998L503.051 73.2095C503.57 75.884 504.194 79.1104 504.818 82.1847C506.432 83.3559 509.23 84.6734 510.678 86.8243C511.161 87.5338 508.252 90.4279 506.779 92.241C505.549 93.7613 504.153 95.1633 503.947 95.3885C506.98 96.8356 510.172 99.6115 513.158 99.4257C516.144 99.2399 517.281 105.22 520.685 101.115L524.955 106.075L530.65 102.348C524.908 113.046 535.268 119.887 535.951 128.919C536.11 131.171 540.757 133.114 543.283 135.259C550.104 141.07 546.411 148.26 546.199 155.141L553.673 158.834L546.735 162.607L553.596 165.197C540.144 171.717 553.737 176.025 552 180.828L560.864 179.009L561.577 181.075L554.279 186.222C558.791 190.417 560.758 185.659 563.367 184.313C566.082 182.889 568.491 180.935 571.023 179.189L572.726 181.126L568.332 187.185L578.262 192.917C571.895 197.63 570.252 191.678 566.701 188.508C566.536 189.972 566.418 190.969 566.235 192.607L561.164 189.274C560.929 192.314 560.74 194.764 560.575 197.213C562.855 196.824 564.521 201.774 567.195 197.905C568.132 198.575 569.651 199.099 569.887 199.944C570.476 202.224 571.159 204.764 570.647 206.954C570.334 208.266 567.867 209.122 566.754 209.904L573.12 227.01C577.243 225.766 577.349 225 573.173 218.266C574.834 218.491 577.031 218.592 577.043 218.829C577.378 224.009 581.754 229.33 577.343 234.33C574.869 237.145 571.518 239.234 567.119 242.832L577.249 241.903C568.774 251.002 579.905 259.921 577.32 269.161C574.734 278.401 577.997 284.651 588.062 287.179C588.527 287.297 588.651 288.767 589.122 290.327C587.391 290.068 586.177 289.961 585 289.685C583.91 289.426 582.868 288.981 580.288 288.108C579.569 293.384 579.198 298.097 578.191 302.686C577.679 305.006 576.607 307.984 574.752 309.105C570.152 311.92 568.556 314.375 573.079 318.39C575.924 320.912 575.246 322.979 572.007 324.713C566.288 327.77 563.355 331.509 566.889 338.226C567.967 340.276 566.583 343.857 565.634 346.475C563.597 352.151 565.841 356.537 569.963 360.096C573.108 362.821 573.161 364.544 570.517 367.844C567.437 371.684 566.206 375.923 570.711 380.676C572.667 382.737 571.612 387.432 572.007 391.785L562.325 390.462L566.859 398.784L571.536 395.833L578.427 411.143C578.98 410.58 579.534 410.017 580.082 409.454L588.121 407.692L585.806 418.333C585.104 417.86 584.406 417.384 583.716 416.903C581.36 417.151 579.004 417.162 576.76 417.68C570.281 419.184 563.626 419.64 559.975 426.954C558.797 429.358 552.365 430.8 548.661 430.332C542.082 429.505 539.791 432.748 537.853 437.404L538.024 437.258L533.99 432.596C531.675 437.663 529.278 444.026 523.129 443.581C527.01 447.613 531.157 451.92 536.086 457.05C530.232 461.07 525.285 464.741 519.996 467.883C518.777 468.615 516.38 467.585 514.536 467.32C511.055 466.796 507.58 466.239 504.1 465.693L503.894 467.686L509.783 469.651C493.781 470.405 498.51 482.168 494.935 488.835L484.028 486.261L483.127 488.44L490.277 494.465C490.129 495.141 489.988 495.822 489.847 496.498C482.432 491.746 475.07 488.531 468.833 495.22C470.329 498.035 471.777 500.794 473.379 503.761C462.778 506.577 462.36 506.374 462.996 498.328L429.684 516.61L434.985 517.9L435.438 520L411.091 525.552C411.244 526.177 411.391 526.802 411.544 527.433L420.738 529.82L412.699 532.635L412.893 533.761L422.776 533.761L420.379 537.579C425.679 537.224 429.955 537.016 434.213 536.639C442.459 535.918 450.704 534.916 458.532 537.804C458.532 538.609 458.532 539.409 458.485 540.214L433.454 540.214L433.077 542.033L437.676 545.467L428.712 549.842L444.997 560.366L440.286 570.017L447.353 575.085C442.153 576.346 437.488 577.275 432.971 578.643C428.671 579.938 424.531 581.717 420.302 583.243C418.629 583.846 416.503 585.22 415.266 584.719C402.25 579.386 388.999 583.345 375.888 583.643C369.251 583.789 362.637 585.58 356.017 585.552C349.397 585.524 342.806 583.919 336.163 583.418C329.684 582.928 322.069 580.817 316.886 583.226C306.992 587.827 297.621 584.032 289.117 582.63C275.57 580.377 263.29 587.179 249.909 584.51C243.825 583.3 236.793 586.763 230.132 587.742C226.186 588.305 221.598 589.899 220.072 583.716C219.813 582.658 216.126 582.061 213.953 581.819C209.047 581.256 204.094 581.081 199.158 580.749C199.158 580.118 199.158 579.493 199.188 578.868L226.416 580.372L226.61 576.892L170.918 574.674C170.847 574.178 170.77 573.688 170.694 573.193L187.185 571.031L187.45 570.467L177.178 569.099C176.195 565.597 175.529 563.21 175.158 561.892C170.658 562.984 167.178 564.978 165.328 564.037C161.989 562.348 163.455 553.069 167.095 550.214L160.958 548.069L160.988 546.757L176.949 544.826C175.941 543.733 175.352 542.782 174.481 542.207C166.506 536.937 166.412 535.045 173.014 528.694C176.065 525.76 178.468 522.213 182.037 517.883C173.751 518.896 166.754 519.809 159.733 520.552C158.432 520.693 156.641 520.552 155.764 519.826C148.213 513.457 142.259 519.262 135.798 522.297L129.402 516.909L131.204 512.021L122.593 506.532C117.882 508.384 112.316 509.291 109.819 502.799C111.886 499.595 113.635 496.892 114.795 495.107L102.38 488.384L101.579 489.42L105.761 494.707C104.695 496.656 103.587 498.688 102.474 500.738C92.2734 494.589 91.8729 493.564 95.9957 484.302C88.7867 482.815 81.6308 477.973 73.297 487.207C71.0649 477.478 69.3569 470.045 67.6548 462.618L69.5866 461.526L77.8674 466.25L78.9805 464.561C71.1944 458.626 65.2165 449.78 53.0662 450.907C51.2227 451.076 48.9729 451.357 47.5064 450.569C40.2385 446.627 36.3632 449.865 33.9602 456.83L32.1521 456.588C31.2098 453.958 29.7962 451.357 29.6313 448.705C29.5901 448.018 33.6363 447.382 35.4621 446.228C37.6059 444.871 40.0795 443.288 41.069 441.216C41.7227 439.854 40.5978 436.847 39.2373 435.636C33.3477 430.4 29.861 424.223 29.0424 416.571C28.5476 411.943 28.0529 407.275 26.9103 402.77C26.5157 401.222 23.83 400.327 22.7876 398.773C21.056 396.244 18.7296 393.485 18.5412 390.704C17.9993 382.63 18.3704 374.499 18.4293 366.391C18.4293 364.392 18.1407 362.224 18.818 360.422C21.2268 354.02 24.9314 347.917 26.3096 341.346C27.2814 336.746 26.2625 331.177 24.3601 326.734C21.3152 319.595 14.8778 322.979 8.72905 324.617C9.4358 321.548 9.96587 319.257 10.6019 316.503L2.00309 313.925L11.3087 308.93C5.7489 307.241 2.62739 298.941 4.52385 294.048C6.8797 287.973 6.8797 287.973 0.878174 285.152C3.18102 284.246 5.35429 283.654 7.23308 282.59C10.5607 280.71 14.8248 279.437 9.25322 274.617C6.30841 272.061 5.52509 267.185 4.02912 263.919L17.6931 263.919C15.8673 261.002 13.052 257.005 10.9023 252.703C10.3723 251.639 11.5561 249.116 12.7281 248.069C17.0452 244.223 21.6921 240.749 26.5687 236.807C26.7984 237.106 27.8055 238.373 30.2556 241.475C30.5266 237.945 31.1803 236.194 30.6797 234.837C28.4004 228.671 34.2135 217.77 40.7922 215.557C45.8337 213.868 50.622 211.464 56.6942 208.88C54.7329 207.511 54.1793 207.286 53.8789 206.886C49.6089 201.256 44.4909 195.997 41.4283 189.809C39.1549 185.214 46.6759 181.926 54.3854 183.682C56.4998 184.172 60.0689 183.851 61.1467 182.556C63.6439 179.505 67.6253 175.591 59.6802 173.114C55.6105 171.847 56.9298 166.137 62.0655 161.881L56.6058 151.453L58.2373 150.721L59.8569 137.331L61.9477 137.207C62.7899 140.023 63.6263 142.838 64.4508 145.591C69.563 142.173 70.0754 138.48 66.4827 133.649C65.9585 132.939 67.3132 130.952 67.802 129.555L69.5689 130.051C68.5382 125.518 67.5134 120.985 66.0351 114.448L80.2173 120.321L80.9359 119.302L77.1194 114.617L75.2229 112.838L85.783 101.149L87.067 102.275L81.943 104.775C80.1761 99.848 78.4917 95.2027 76.6423 90.1352L72.1485 92.3874C72.82 87.5 73.456 82.866 74.2453 77.1397C77.6789 75.0225 80.5825 73.5924 82.9796 80.6644C84.2105 84.3131 87.2613 90.7489 95.0003 87.866C93.8931 85.1689 92.9802 82.9448 91.6255 79.6566L104.812 80.732C108.164 77.4944 111.88 72.9054 116.55 69.6228C122.758 65.2815 124.207 66.3007 124.613 73.6374C124.666 74.2844 124.758 74.9263 124.89 75.5631L140.975 65.7601L142.418 67.6802L132.152 76.5484L137.559 81.875L136.77 84.0259L149.762 82.5563L150.204 80.0057L144.344 77.0383L160.652 63.705L164.633 69.3356C165.411 66.3007 165.587 64.4764 166.341 62.9054C167.985 59.4764 173.88 57.393 169.875 52.2072C169.681 51.9482 170.229 50.9347 170.67 50.518C174.752 46.4415 178.916 42.4719 182.95 38.339C183.728 37.5394 184.063 36.2331 184.305 35.1014C185.848 27.9505 189.016 26.6554 195.053 30.7151C196.685 32.6239 198.316 34.5383 200.407 37.0045L199.064 40.3379C208.193 38.8626 202.474 33.7444 203.658 29.5327L194.888 30.8502ZM77.8261 470.76L84.4225 469.983C83.8984 471.948 83.5273 473.362 83.0915 474.994L92.9978 476.684C88.0211 466.29 84.8054 465.04 77.8261 470.76ZM38.9134 365.09L33.9838 359.792L28.0529 365.096C28.424 365.76 28.795 366.425 29.1602 367.089L38.9134 365.09Z"   fill="url(#linear_fill_WeJmLHtEPSSrpphh55P7i)" >
</path>
<path d="M116.704 57.1453C114.66 60.0676 112.581 62.973 110.572 65.9122C108.988 68.2376 107.48 70.6081 105.937 72.9561L107.581 74.3975L101.438 73.8345C97.5623 62.134 112.333 63.1363 113.871 55.3829L116.704 57.1453Z"   fill="url(#linear_fill_lqSoPE0XpAIQ635SzPb6x)" >
</path>
<path d="M49.1909 145.681C51.8471 147.331 53.9026 148.615 55.9463 149.893L52.3654 153.688C49.768 151.701 46.5582 150.085 44.8384 147.551C44.0374 146.363 45.7395 143.159 47.0117 141.318C47.7302 140.282 49.8799 140.146 51.3877 139.628C51.1132 141.186 50.7539 142.725 50.3099 144.246C50.1823 144.522 50.024 144.782 49.8352 145.024C49.6463 145.266 49.4315 145.485 49.1909 145.681Z"   fill="url(#linear_fill_hxn6GeFWd2L69TPZKvpPf)" >
</path>
<path d="M537.789 437.382L543.089 437.382C545.033 442.821 544.226 443.576 536.693 448.429C537.123 446.706 537.318 445.642 537.659 444.617C538.001 443.593 538.472 442.63 539.19 440.912L531.646 444.336L530.68 443.013C533.106 441.109 535.531 439.201 537.954 437.286L537.789 437.382Z"   fill="url(#linear_fill_IR7M1YIL5uwV5aSLpEAXk)" >
</path>
<path d="M198.086 13.6487C198.481 9.27365 198.882 4.90428 199.329 0L205.961 7.38176L199.671 14.223L198.086 13.6487Z"   fill="url(#linear_fill_X1Az-nXTibfj8FFlQUUS5)" >
</path>
<path d="M65.0515 119.217C63.3965 129.724 61.235 131.205 53.2722 129.234L65.0515 119.217Z"   fill="url(#linear_fill_ce8ufEaLmlbkxccg5i9uc)" >
</path>
<path d="M77.8262 470.761C84.8054 465.04 88.0211 466.29 92.9978 476.673L83.0915 474.984C83.5273 473.339 83.8984 471.937 84.4226 469.972L77.8262 470.761Z"   fill="#FFFFFF" >
</path>
<path d="M194.888 30.8503L203.682 29.5158C202.504 33.7275 208.217 38.8458 199.088 40.321L200.431 36.9877C198.34 34.5214 196.708 32.607 195.077 30.6982L194.888 30.8503Z"   fill="#FFFFFF" >
</path>
<path d="M38.9132 365.09L29.16 367.089C28.7948 366.425 28.4238 365.76 28.0527 365.096L33.9836 359.792L38.9132 365.09Z"   fill="#FFFFFF" >
</path>
<defs>
<linearGradient id="linear_fill_WeJmLHtEPSSrpphh55P7i" x1="295.000244140625" y1="17.16217041015625" x2="295.000244140625" y2="588.3490600585938" gradientUnits="userSpaceOnUse">
<stop offset="0" stop-color="#000000"  />
<stop offset="1" stop-color="#CC5D21"  />
</linearGradient>
<linearGradient id="linear_fill_lqSoPE0XpAIQ635SzPb6x" x1="108.747802734375" y1="55.38287353515625" x2="108.747802734375" y2="74.39752197265625" gradientUnits="userSpaceOnUse">
<stop offset="0" stop-color="#000000"  />
<stop offset="1" stop-color="#CC5D21"  />
</linearGradient>
<linearGradient id="linear_fill_hxn6GeFWd2L69TPZKvpPf" x1="50.2890625" y1="139.62847900390625" x2="50.2890625" y2="153.68817138671875" gradientUnits="userSpaceOnUse">
<stop offset="0" stop-color="#000000"  />
<stop offset="1" stop-color="#CC5D21"  />
</linearGradient>
<linearGradient id="linear_fill_IR7M1YIL5uwV5aSLpEAXk" x1="537.334716796875" y1="437.28631591796875" x2="537.334716796875" y2="448.42938232421875" gradientUnits="userSpaceOnUse">
<stop offset="0" stop-color="#000000"  />
<stop offset="1" stop-color="#CC5D21"  />
</linearGradient>
<linearGradient id="linear_fill_X1Az-nXTibfj8FFlQUUS5" x1="202.023681640625" y1="0" x2="202.023681640625" y2="14.22296142578125" gradientUnits="userSpaceOnUse">
<stop offset="0" stop-color="#000000"  />
<stop offset="1" stop-color="#CC5D21"  />
</linearGradient>
<linearGradient id="linear_fill_ce8ufEaLmlbkxccg5i9uc" x1="59.161865234375" y1="119.21746826171875" x2="59.161865234375" y2="129.97979736328125" gradientUnits="userSpaceOnUse">
<stop offset="0" stop-color="#000000"  />
<stop offset="1" stop-color="#CC5D21"  />
</linearGradient>
</defs>
</svg>
