<svg xmlns="http://www.w3.org/2000/svg" xmlns:xlink="http://www.w3.org/1999/xlink" width="43.73284912109375" height="52" viewBox="0 0 43.73284912109375 52" fill="none">
<path d="M21.9578 52C21.4703 51.2078 21.0234 50.4765 20.5766 49.7453C19.825 48.5062 19.0531 47.2875 18.3219 46.0281C18.1188 45.6828 18.0172 45.2562 17.9359 44.85C17.6516 43.4281 17.3875 42.0062 17.1031 40.5844C17.0828 40.4625 16.9406 40.3203 16.8188 40.2797C13.8125 39.4875 11.3141 37.9031 9.30314 35.5265C9.28283 35.5062 9.28283 35.4859 9.26251 35.425C10.3188 35.1203 10.9688 34.4703 10.8875 33.3328C10.8469 32.5203 10.3797 31.9515 9.60783 31.6469C8.83595 31.3422 8.16564 31.5453 7.31252 32.3781C7.25159 32.2156 7.17034 32.0937 7.1094 31.9515C5.60628 28.1531 5.60628 24.3547 7.2719 20.5969C8.55158 17.7328 10.4813 15.4984 13.5281 14.4016C13.6703 14.3406 13.8328 14.3 14.0359 14.2187C12.2078 16.0062 11.2531 18.1594 10.8875 20.5766C10.5219 23.0141 10.9485 25.3297 12.0047 27.5641C11.2531 27.0156 10.6235 26.3453 10.1969 25.5125C9.79064 24.7 9.48595 23.8469 9.18126 23.1156C8.95783 24.6594 9.52658 27.9094 11.2735 30.4078C13.0406 32.9469 15.4375 34.5515 18.4641 35.2422C18.5859 34.8359 18.3422 34.5515 18.1391 34.3078C17.7125 33.8203 17.6922 33.2719 17.7125 32.6828C17.7938 30.875 17.8547 29.0672 17.8953 27.2594C17.9156 26.9141 18.0172 26.65 18.3016 26.4265C18.5453 26.2234 18.8094 26.0609 18.8703 25.6547C18.9922 25.0656 18.7891 24.7 18.3219 24.375C18.2 24.2937 18.1188 24.0906 18.1188 23.9484C18.1188 23.2781 18.1391 22.5875 18.2 21.9172C18.2203 21.6734 18.1594 21.5312 17.9766 21.3891C17.3875 20.9016 16.8188 20.4141 16.25 19.9266C15.8031 19.5609 15.8031 19.5609 16.1078 18.9719C14.9906 19.9266 14.1578 20.9625 13.5078 22.1812C13.4875 22.1609 13.4469 22.1609 13.4063 22.1406C13.4266 21.9375 13.4469 21.7344 13.4875 21.5516C13.9141 19.2156 14.8281 17.1234 16.3922 15.3156C16.4734 15.2344 16.5344 15.0109 16.4734 14.95C15.7625 13.9953 15.5797 12.7766 15.1734 11.6391C15.0109 11.1719 14.8688 10.6844 14.7063 10.1969C14.5844 9.81093 14.6453 9.70937 15.0516 9.64843C15.3766 9.60781 15.7219 9.52656 16.0469 9.52656C16.2094 9.52656 16.4328 9.60781 16.5344 9.72968C16.8391 10.075 17.1234 10.4609 17.4078 10.8266C17.7734 11.2734 18.6469 11.2125 18.9516 10.7453C19.0328 10.6031 19.1344 10.4812 19.1953 10.3391C19.4391 9.79062 19.8859 9.46562 20.4344 9.30312C20.7188 9.22187 20.8406 9.03906 20.8406 8.73437C20.8203 6.47968 20.8406 4.225 20.8 1.97031C20.8 1.32031 20.6781 0.670312 20.5969 0C21.5109 0 22.4047 0 23.2984 0C23.2172 1.1375 23.1157 2.25469 23.0953 3.39219C23.0547 5.11875 23.075 6.86562 23.075 8.59218C23.075 8.87656 23.1157 9.16093 23.4609 9.2625C24.2328 9.46562 24.6188 10.0953 24.9844 10.725C25.2891 11.2328 26.1625 11.2937 26.5282 10.8062C26.8125 10.4406 27.0969 10.0953 27.361 9.70937C27.5032 9.50625 27.6657 9.425 27.9297 9.48593C28.2141 9.54687 28.5188 9.5875 28.8032 9.60781C29.1485 9.62812 29.2704 9.81093 29.1688 10.1156C29.0063 10.6641 28.8438 11.2328 28.661 11.7812C28.5594 12.0656 28.6 12.1875 28.9047 12.3297C31.0985 13.2437 32.9469 14.6047 34.4907 16.4937C33.3938 16.7984 32.7641 17.4484 32.825 18.6062C32.8657 19.3984 33.3125 19.9875 34.0641 20.2719C34.9782 20.6172 35.7297 20.2922 36.4 19.5609C36.4813 19.7234 36.5422 19.8453 36.5829 19.9672C38.3704 24.5578 38.025 28.9453 35.4454 33.1703C34.1657 35.2422 32.3985 36.7047 30.1235 37.5375C29.9813 37.5781 29.8594 37.6187 29.7375 37.6594C31.4844 35.8922 32.4594 33.7594 32.8047 31.3422C33.1704 28.9047 32.7641 26.5891 31.6875 24.3547C32.4594 24.9031 33.0891 25.5734 33.4954 26.4062C33.9016 27.2187 34.2063 28.0719 34.511 28.7828C34.8969 23.8875 31.4844 18.5656 26.5891 17.0828C26.6704 17.3062 26.711 17.4891 26.8125 17.6516C27.1375 18.1594 27.4829 18.6672 27.8485 19.1547C28.0313 19.4187 28.011 19.5812 27.7672 19.7844C27.1579 20.2922 26.5485 20.8 25.9391 21.3078C25.7156 21.4906 25.6141 21.7141 25.6547 22.0187C25.6953 22.6484 25.7359 23.2781 25.7156 23.9078C25.7156 24.1109 25.5328 24.375 25.3703 24.5172C24.8422 24.9641 24.7407 25.7562 25.2891 26.1828C25.8375 26.5891 25.9594 27.0969 25.9797 27.7062C26.0203 29.4734 26.1016 31.2406 26.1219 33.0078C26.1219 33.3531 26.0203 33.7187 25.9594 34.0844C27.7266 33.0281 29.1485 31.5453 30.1844 29.6969C30.2047 29.7172 30.2454 29.7172 30.2657 29.7375C30.225 29.9609 30.2047 30.1844 30.1641 30.4078C29.7172 32.825 28.7219 34.9781 27.0563 36.8062C26.9344 36.9484 26.8532 37.1312 26.7719 37.314C26.7516 37.3953 26.7922 37.5578 26.8532 37.5781C27.4219 37.8015 27.2188 38.2687 27.1579 38.614C26.8938 40.0969 26.5891 41.5594 26.2844 43.0219C26.1219 43.814 26 44.5859 25.8375 45.3781C25.7969 45.5609 25.7156 45.7234 25.6141 45.8859C24.4563 47.8156 23.2781 49.7453 22.1203 51.675C22.1203 51.7969 22.0594 51.8578 21.9578 52Z"   fill="#7E91AB" >
</path>
<path d="M15.8031 47.7547C13.2641 46.2922 10.7453 44.8297 8.22656 43.3875C6.41875 42.3516 4.63125 41.2953 2.82344 40.2797C0.934374 39.2031 0 37.5781 0 35.4047C0 29.1687 0 22.9125 0 16.6766C0 14.5234 0.914062 12.8984 2.78281 11.8219C7.67812 8.99844 12.5531 6.175 17.4484 3.35156C17.55 3.29063 17.6719 3.22969 17.814 3.14844C17.8344 3.33125 17.875 3.49375 17.875 3.67656C17.8953 4.63125 17.9156 5.58594 17.9156 6.54062C17.9156 6.84531 17.7734 6.94687 17.489 6.84531C16.1484 6.35781 14.8484 6.6625 13.5687 7.04844C12.7969 7.29219 12.2484 7.90156 11.9641 8.65312C11.7812 9.14062 11.7812 9.70937 11.6594 10.2375C11.6391 10.3594 11.4969 10.4812 11.3953 10.5422C9.62812 11.5578 7.84062 12.5937 6.03281 13.6297C4.14375 14.7062 3.22969 16.3312 3.22969 18.4844C3.22969 23.5219 3.22969 28.5391 3.22969 33.5766C3.22969 35.7297 4.16406 37.3547 6.03281 38.4312C8.81562 40.0359 11.5781 41.6406 14.3609 43.225C14.6047 43.3672 14.7062 43.5094 14.7672 43.7937C14.9297 44.7281 15.1125 45.6625 15.3562 46.5969C15.4375 46.9828 15.6406 47.3484 15.8031 47.7547Z"   fill="#C9BEA9" >
</path>
<path d="M26.061 6.86561C26.061 5.66717 26.061 4.46874 26.061 3.22968C26.2235 3.31093 26.3453 3.37186 26.4469 3.4328C31.2407 6.1953 36.0344 8.97811 40.8282 11.7203C42.7782 12.8375 43.7328 14.4828 43.7328 16.7375C43.7125 22.9531 43.7328 29.1687 43.7328 35.4047C43.7328 37.5578 42.8188 39.1625 40.95 40.239C36.786 42.6359 32.6219 45.0328 28.4782 47.45C28.3766 47.5109 28.2953 47.5515 28.1328 47.6328C28.8844 46.3734 28.9047 44.9922 29.2094 43.6718C29.2703 43.4078 29.3922 43.2656 29.6157 43.1437C32.3172 41.5797 35.0188 40.0156 37.7203 38.4718C39.6703 37.3547 40.625 35.7093 40.6047 33.475C40.5844 28.4984 40.6047 23.5219 40.6047 18.525C40.6047 16.3312 39.6703 14.6859 37.761 13.589C35.9938 12.5734 34.2266 11.5375 32.4594 10.5219C32.2766 10.4203 32.175 10.3187 32.2157 10.075C32.3375 8.93748 31.586 7.51561 30.55 7.06874C30.0016 6.82499 29.3516 6.80467 28.7625 6.64217C27.8891 6.39842 27.0563 6.60155 26.2235 6.88592C26.1625 6.88592 26.1219 6.86561 26.061 6.86561Z"   fill="#C9BEA9" >
</path>
</svg>
