<svg width="12" height="12" viewBox="0 0 12 12" fill="none" xmlns="http://www.w3.org/2000/svg">
<path d="M10.6667 0H1.33333C0.6 0 0 0.6 0 1.33333V10.6667C0 11.4 0.6 12 1.33333 12H10.6667C11.4 12 12 11.4 12 10.6667V1.33333C12 0.6 11.4 0 10.6667 0ZM8.6 2.6C8.6 2.6 8.13333 2.4 7.93333 2.4C7.53333 2.33333 7.26667 2.46667 7.13333 3.13333L6 9.2C5.86667 9.73333 5.66667 10.1333 5.33333 10.4C5.06667 10.6 4.8 10.6667 4.46667 10.6667C3.93333 10.6667 3.13333 10.3333 3.13333 10.3333L3.46667 9.4C3.46667 9.4 4 9.6 4.13333 9.6C4.33333 9.66667 4.46667 9.6 4.6 9.53333C4.73333 9.46667 4.8 9.26667 4.86667 9.06667L5.93333 2.93333C6 2.4 6.26667 2 6.6 1.66667C7 1.4 7.46667 1.33333 8 1.4C8.46667 1.46667 9 1.73333 9 1.73333L8.6 2.6Z" fill="black"/>
</svg>
