<svg width="16" height="16" viewBox="0 0 16 16" fill="none" xmlns="http://www.w3.org/2000/svg">
<path d="M7.99733 5.39233C6.00485 5.39233 4.38965 7.00753 4.38965 9.00001C4.38965 10.9925 6.00485 12.6077 7.99733 12.6077C9.98981 12.6077 11.6048 10.9925 11.6048 9.00001C11.6048 7.00753 9.98965 5.39233 7.99733 5.39233ZM7.99733 11.0173C6.88309 11.0173 5.97989 10.1141 5.97989 9.00001C5.97989 7.88577 6.88309 6.98257 7.99733 6.98257C9.11157 6.98257 10.0146 7.88577 10.0146 9.00001C10.0146 10.1141 9.11141 11.0173 7.99733 11.0173Z" fill="black"/>
<path d="M8 3C4.68608 3 2 5.68688 2 9.00032C2 12.3139 4.68608 15 8 15C11.3139 15 14 12.3139 14 9.00032C14 5.68688 11.3139 3 8 3ZM8 13.4098C5.56816 13.4098 3.5904 11.4318 3.5904 9.00032C3.5904 6.56912 5.56832 4.5904 8 4.5904C10.4317 4.5904 12.4096 6.56912 12.4096 9.00032C12.4096 11.4317 10.4317 13.4098 8 13.4098Z" fill="black"/>
<path d="M7.99768 10.2194C8.67111 10.2194 9.21704 9.67343 9.21704 9C9.21704 8.32657 8.67111 7.78064 7.99768 7.78064C7.32425 7.78064 6.77832 8.32657 6.77832 9C6.77832 9.67343 7.32425 10.2194 7.99768 10.2194Z" fill="black"/>
</svg>
