<svg width="40" height="40" viewBox="0 0 40 40" fill="none" xmlns="http://www.w3.org/2000/svg">
    <rect width="40" height="40" rx="5" fill="white" />
    <path
        d="M10.1567 27.8201V28.0701C10.6151 28.7119 11.2373 29.2189 11.9584 29.5384V28.6667C11.2967 28.4834 10.8334 27.8101 10.1567 27.8201Z"
        fill="#E54E60" />
    <path
        d="M20.6666 14.6667C21 14.3334 21.8333 14.3334 21.8333 14.1667C22.3416 12.2617 23.7216 10.7451 25.3816 9.76172C22.8966 9.99839 19.6366 14.2951 19.6366 14.2951L19.5516 14.3117C19.6662 14.7992 19.8751 15.2596 20.1666 15.6667C20 15.1667 20.5 15.0001 20.6666 14.6667Z"
        fill="#E54E60" />
    <path
        d="M30.03 14.0201L29.2917 12.1451C28.64 11.8167 28.08 11.1667 27.3334 11.1667C28.2067 12.1851 28.6984 13.8334 30.03 14.0201Z"
        fill="#E54E60" />
    <path
        d="M8.58667 26.4001C9.62333 24.7717 9.92 21.1884 9.92 21.1884L11.4867 22.9117L10.1533 24.9484V27.8201C10.835 27.8101 11.2933 28.4867 11.955 28.6717V26.6667L13.8333 25.4184L15.5583 22.9184L17.7567 24.1667H19.7933V25.2634L18.8533 26.3601L19.8367 29.3817V30.9767C20.4017 30.8951 20.9717 30.8417 21.5317 30.7617L21.5167 30.7484V26.6667C21.83 26.1967 22.3817 27.3334 22.3817 27.3334V30.6034C23.0795 30.4644 23.7404 30.1805 24.3217 29.7701L24.18 29.6284V23.5284C24.18 23.5284 26.2167 22.7451 26.2167 20.0817C26.2167 17.4184 25.12 16.3334 25.12 16.3334L26.3733 14.4534C26.6867 15.5501 27.47 15.5501 27.47 15.5501L28.41 16.8034L29.9583 15.4917C30.0997 15.3724 30.2002 15.2118 30.2459 15.0326C30.2917 14.8533 30.2803 14.6642 30.2133 14.4917L30.03 14.0284C28.6967 13.8484 28.2067 12.1951 27.3333 11.1751C28.08 11.1751 28.64 11.8251 29.2917 12.1534L28.41 9.91508L28.0967 8.66174L27.7833 9.75008H25.59C25.5217 9.75008 25.4517 9.75008 25.3817 9.76174C23.715 10.7451 22.3417 12.2617 21.8333 14.1667C21.8333 14.3334 21 14.3334 20.6667 14.6667C20.5 15.0001 20 15.1667 20.1667 15.6667C19.8751 15.2596 19.6662 14.7992 19.5517 14.3117L18.8533 14.4517V13.0417C18.8533 12.1001 17.6 11.0001 16.8167 11.0001C16.0333 11.0001 16.3467 13.0384 16.3467 13.1951C16.3467 13.3517 16.66 14.1351 15.72 14.7617C14.78 15.3884 14 16.6451 14 16.6451C14 16.6451 14.7833 16.6451 11.3333 16.9584C8.72333 17.1951 7.46 21.1134 7 23.0001C7.15667 24.1034 7.31667 25.7901 8.58667 26.4001Z"
        fill="#2B365F" />
    <path
        d="M35.3834 16.0967C35.0967 15.3934 34.6967 14.5434 33.895 14.2951C32.8717 13.9767 31.6817 14.7951 31.0734 15.5484C30.2967 16.5234 30.2884 17.6517 30.29 18.0484C30.3 19.4517 30.9667 19.9251 31.3867 21.4951C31.6505 22.6245 31.7036 23.793 31.5434 24.9417C31.3384 26.3151 29.815 29.0351 27.1567 30.7401C26.7704 30.9881 26.3685 31.2108 25.9534 31.4067C25.6646 31.6477 25.3437 31.8474 25 32.0001C23.5 32.6667 21.6667 33.1667 19.8334 32.5001H19.8134C17.431 32.3461 15.1172 31.6397 13.055 30.4367C12.8267 30.3017 12.4367 30.0717 11.9584 29.7384V29.5434C11.2373 29.2239 10.6151 28.7169 10.1567 28.0751V28.2551C9.57536 27.6937 9.04701 27.08 8.57835 26.4217L8.58669 26.4084C7.31669 25.7901 7.15669 24.1034 7.00002 23.0001C6.98669 23.0584 6.97169 23.1167 6.96002 23.1667C6.89835 22.9784 6.84002 22.7867 6.79335 22.5884C5.27002 16.8551 8.66669 12.1917 9.60835 11.0001C9.82335 10.7334 13.145 6.65005 16.3467 6.45672C16.9667 6.42005 17.8017 6.51505 19.0134 6.14339C20.225 5.77172 20.6534 5.28339 21.68 5.36005C22.2134 5.40005 22.3467 5.55172 23.2467 5.67339C23.7917 5.74738 24.3421 5.77359 24.8917 5.75172C23.6384 5.60672 22.865 5.18172 22.3917 4.81172C22.0334 4.53505 21.9517 4.37672 21.6084 4.18505C20.735 3.70005 19.735 3.88005 19.1084 4.02839C13.9417 5.23839 11.41 7.00839 11.41 7.00839C9.82335 8.11839 6.71669 10.2917 4.98669 14.3734C2.83335 19.4517 3.50002 25.8534 7.18002 30.5101C10.5267 34.7517 15.045 35.8684 16.2684 36.1517C22.385 37.5667 27.2184 34.9851 28.4884 34.2717C31.2741 32.7084 33.5983 30.4382 35.2267 27.6901C35.3423 28.8092 35.1809 29.9396 34.7567 30.9817C34.7284 31.0467 35.9234 29.0667 36.48 27.5334C38.0934 23.0784 36.5 18.8501 35.3834 16.0967Z"
        fill="#FFA811" />
    <path
        d="M22.3817 30.8217L23.715 32.155H23.705C23.45 32.2184 23.3484 32.2734 23.09 32.3217L21.5367 30.7667C20.9767 30.8467 20.4067 30.9 19.8417 30.9817V32.5H19.8184H19.8384C21.6717 33.1667 23.505 32.6667 25.005 32C25.3475 31.8476 25.6672 31.6485 25.955 31.4084L24.3267 29.78C23.7455 30.1905 23.0845 30.4744 22.3867 30.6134L22.3817 30.8217Z"
        fill="#E54E60" />
    <path
        d="M27.7834 5.83335C27.2667 5.80502 26.6984 6.05835 26.6867 6.30335C26.6767 6.52169 27.1134 6.61669 27.94 7.08669C28.487 7.41222 29.0085 7.77883 29.5 8.18335C30.0147 8.60642 30.487 9.07865 30.91 9.59335C30.5841 8.68657 30.1074 7.84135 29.5 7.09335C28.5417 5.90335 27.9434 5.84335 27.7834 5.83335Z"
        fill="#FFA811" />
    <path
        d="M31.3867 8.81C31.2784 8.91333 31.3517 9.25166 31.5434 9.43666C31.735 9.62166 31.9834 9.55166 32.17 9.74999C32.2795 9.88139 32.3354 10.0492 32.3267 10.22C32.3517 10.1367 32.5217 9.54 32.17 9.12333C31.94 8.85 31.515 8.68833 31.3867 8.81Z"
        fill="#FFA811" />
</svg>