<svg width="40" height="40" viewBox="0 0 40 40" fill="none" xmlns="http://www.w3.org/2000/svg">
    <path
        d="M33.895 14.2951C32.8717 13.9767 31.6817 14.7951 31.0734 15.5484C30.2967 16.5234 30.2884 17.6517 30.29 18.0484C30.3 19.4517 30.9667 19.9251 31.3867 21.4951C31.6505 22.6245 31.7036 23.793 31.5434 24.9417C31.3384 26.3151 29.815 29.0351 27.1567 30.7401C26.7704 30.9881 26.3685 31.2108 25.9534 31.4067L24.18 29.6351V23.5351C24.18 23.5351 26.2167 22.7517 26.2167 20.0884C26.2167 17.4251 25.12 16.3334 25.12 16.3334L26.3734 14.4534C26.6867 15.5501 27.47 15.5501 27.47 15.5501L28.41 16.8034L29.9584 15.4917C30.0997 15.3723 30.2002 15.2118 30.246 15.0325C30.2917 14.8533 30.2803 14.6642 30.2134 14.4917L28.41 9.90672L28.0967 8.65339L27.7834 9.75005H25.59C23.09 9.75005 19.6367 14.2951 19.6367 14.2951L18.8534 14.4517V13.0417C18.8534 12.1001 17.6 11.0001 16.8167 11.0001C16.0334 11.0001 16.3467 13.0384 16.3467 13.1951C16.3467 13.3517 16.66 14.1351 15.72 14.7617C14.78 15.3884 14 16.6451 14 16.6451C14 16.6451 14.7834 16.6451 11.3334 16.9584C8.64169 17.2034 7.38335 21.3667 6.96169 23.1767C6.90002 22.9884 6.84169 22.7967 6.79502 22.5984C5.27002 16.8551 8.66669 12.1917 9.60835 11.0001C9.82335 10.7334 13.145 6.65005 16.3467 6.45672C16.9667 6.42005 17.8017 6.51505 19.0134 6.14339C20.225 5.77172 20.6534 5.28339 21.68 5.36005C22.2134 5.40005 22.3467 5.55172 23.2467 5.67339C23.7917 5.74738 24.3421 5.77359 24.8917 5.75172C23.6384 5.60672 22.865 5.18172 22.3917 4.81172C22.0334 4.53505 21.9517 4.37672 21.6084 4.18505C20.735 3.70005 19.735 3.88005 19.1084 4.02839C13.9417 5.23839 11.41 7.00839 11.41 7.00839C9.82335 8.11839 6.71669 10.2917 4.98669 14.3734C2.83335 19.4517 3.50002 25.8534 7.18002 30.5101C10.5267 34.7517 15.045 35.8684 16.2684 36.1517C22.385 37.5667 27.2184 34.9851 28.4884 34.2717C31.2741 32.7084 33.5983 30.4382 35.2267 27.6901C35.3423 28.8092 35.1809 29.9396 34.7567 30.9817C34.7284 31.0467 35.9234 29.0667 36.48 27.5334C38.0934 23.0784 36.505 18.8501 35.3834 16.0967C35.0967 15.3934 34.6967 14.5434 33.895 14.2951ZM10.1567 24.9484V28.2501C9.57536 27.6887 9.04701 27.075 8.57835 26.4167C9.62169 24.7967 9.92169 21.1917 9.92169 21.1917L11.4884 22.9151L10.1567 24.9484ZM19.8334 32.5001C17.4427 32.3497 15.1204 31.6426 13.0517 30.4351C12.8234 30.3001 12.4334 30.0701 11.955 29.7367V26.6667L13.8334 25.4184L15.5584 22.9184L17.7567 24.1667H19.7934V25.2634L18.8534 26.3601L19.8367 29.3817L19.8334 32.5001ZM23.6967 32.1534C23.4417 32.2167 23.34 32.2717 23.0817 32.3201L21.5134 30.7517V26.6667C21.8267 26.1967 22.3784 27.3334 22.3784 27.3334V30.8151L23.7117 32.1484L23.6967 32.1534Z"
        fill="#A3A5A7" />
    <path
        d="M27.7834 5.83335C27.2667 5.80502 26.6984 6.05835 26.6867 6.30335C26.6767 6.52169 27.1134 6.61669 27.94 7.08669C28.487 7.41222 29.0085 7.77883 29.5 8.18335C30.0147 8.60642 30.487 9.07865 30.91 9.59335C30.5841 8.68657 30.1074 7.84135 29.5 7.09335C28.5417 5.90335 27.9434 5.84335 27.7834 5.83335Z"
        fill="#A3A5A7" />
    <path
        d="M31.3867 8.81C31.2784 8.91333 31.3517 9.25166 31.5434 9.43666C31.735 9.62166 31.9834 9.55166 32.17 9.74999C32.2795 9.88139 32.3354 10.0492 32.3267 10.22C32.3517 10.1367 32.5217 9.54 32.17 9.12333C31.94 8.85 31.515 8.68833 31.3867 8.81Z"
        fill="#A3A5A7" />
</svg>