<svg width="40" height="40" viewBox="0 0 40 40" fill="none" xmlns="http://www.w3.org/2000/svg">
<path d="M13.2134 15.3334C13.9839 14.2504 15.0022 13.3675 16.1834 12.7583C17.3646 12.1491 18.6743 11.8312 20.0034 11.8312C21.3324 11.8312 22.6422 12.1491 23.8234 12.7583C25.0045 13.3675 26.0229 14.2504 26.7934 15.3334H34.6667C34.6667 15.3334 32.8334 10.6667 32.5 9.50002C33.3334 8.83335 33.1667 7.33335 33.1667 7.33335C33.1667 5.83335 32.1667 6.00002 30.8334 6.00002C30.8334 8.33335 30.1917 8.35668 30.1917 8.35668H9.81004C9.81004 8.35668 9.16671 8.33335 9.16671 6.00002C7.83337 6.00002 6.83337 5.83335 6.83337 7.33335C6.83337 7.33335 6.66671 8.83335 7.50004 9.50002C7.16671 10.6667 5.33337 15.3334 5.33337 15.3334H13.2134Z" fill="#A3A5A7"/>
<path d="M3.65667 20C3.98207 20.1099 4.32319 20.1662 4.66667 20.1666H5V30.5L1.5 34H38.5L35 30.5V20.1666H35.3333C35.6701 20.1645 36.0044 20.1082 36.3233 20C36.9324 19.8604 37.4771 19.5204 37.8699 19.0345C38.2628 18.5486 38.4811 17.9448 38.49 17.32C38.5017 17.2093 38.5073 17.098 38.5067 16.9866H26.4367C25.8461 15.7843 24.9304 14.7716 23.7934 14.0634C22.6564 13.3552 21.3437 12.9797 20.0042 12.9797C18.6646 12.9797 17.3519 13.3552 16.215 14.0634C15.078 14.7716 14.1623 15.7843 13.5717 16.9866H1.5C1.50125 17.1193 1.51015 17.2517 1.52667 17.3833C1.54649 17.9924 1.76557 18.5783 2.15032 19.0509C2.53506 19.5236 3.06423 19.857 3.65667 20ZM30.2567 20.1666H32.09V29.6666H30.2567V20.1666ZM11.2567 20.1666H14.59C14.6393 18.7629 15.2315 17.4332 16.2419 16.4576C17.2524 15.482 18.6021 14.9367 20.0067 14.9367C21.4112 14.9367 22.761 15.482 23.7714 16.4576C24.7818 17.4332 25.3741 18.7629 25.4233 20.1666H28.7567V29.6666H11.25L11.2567 20.1666ZM7.92333 20.1666H9.75667V29.6666H7.92333V20.1666Z" fill="#A3A5A7"/>
<path d="M20 16.8333C20.3682 16.8333 20.6667 16.5349 20.6667 16.1667C20.6667 15.7985 20.3682 15.5 20 15.5C19.6319 15.5 19.3334 15.7985 19.3334 16.1667C19.3334 16.5349 19.6319 16.8333 20 16.8333Z" fill="#A3A5A7"/>
<path d="M20 23.6117C20 23.6117 20.8333 23.6667 20.8333 23C22.5 23.3333 22.8566 22.1667 22.8566 22.1667H22C22 22.1667 22.6666 21.8333 22.6666 20.5C22.6666 17.6667 20.3333 17.5 20 17.5C19.6666 17.5 17.3333 17.6667 17.3333 20.5C17.3333 21.8333 18 22.1667 18 22.1667H17.1433C17.1433 22.1667 17.5 23.3333 19.1666 23C19.1666 23.6667 20 23.6117 20 23.6117Z" fill="#A3A5A7"/>
<path d="M20.5 24.5H20H19.5L19.1666 27.8333H20H20.8333L20.5 24.5Z" fill="#A3A5A7"/>
</svg>
