<svg width="40" height="40" viewBox="0 0 40 40" fill="none" xmlns="http://www.w3.org/2000/svg">
<rect width="40" height="40" rx="5" fill="white"/>
<path d="M17.3633 9.52338L17.5049 9.34338C17.4549 9.40338 17.4083 9.46172 17.3633 9.52338Z" fill="#434649"/>
<path d="M29.1467 9.74497C30.2303 9.00954 31.504 8.60427 32.8134 8.5783C33.3182 8.57411 33.8218 8.63006 34.3134 8.74497C33.9375 9.49841 33.3983 10.1586 32.7353 10.6775C32.0722 11.1965 31.3018 11.5611 30.4801 11.745L31.3134 12.245C33.3301 11.6966 34.7334 10.52 34.8134 9.24497C34.8434 8.78664 34.7234 7.9533 34.1467 7.5783C33.6851 7.27664 33.1301 7.41164 32.4801 7.5783C31.1192 7.93554 29.7831 8.38092 28.4801 8.91164C28.0189 9.10942 27.5473 9.30608 27.0651 9.50164C26.5251 9.72386 25.9928 9.93053 25.4684 10.1216L26.8017 11.23L29.1467 9.74497Z" fill="#213A30"/>
<path d="M21.1467 30.245C20.8137 30.2679 20.4796 30.2679 20.1467 30.245C20.3233 31.245 20.4217 32.1034 20.48 32.745C20.675 34.9117 20.495 35.5784 20.1467 36.0784C19.9661 36.3387 19.7403 36.5645 19.48 36.745C19.5312 36.5823 19.5312 36.4078 19.48 36.245C19.385 35.955 19.1117 35.695 18.98 35.745C18.8483 35.795 18.8133 36.0684 18.98 37.0784C18.8933 36.9967 18.7767 36.885 18.6467 36.745C18.3133 36.3867 18.2467 36.2267 18.1467 36.245C18.0067 36.27 17.895 36.6217 17.98 36.9117C18.0216 37.0266 18.0879 37.131 18.1743 37.2174C18.2607 37.3038 18.3651 37.3701 18.48 37.4117C18.319 37.4668 18.1736 37.5595 18.0556 37.6821C17.9376 37.8047 17.8506 37.9536 17.8017 38.1166C17.7528 38.2795 17.7435 38.4518 17.7745 38.619C17.8055 38.7863 17.876 38.9438 17.98 39.0784C18.3817 39.64 19.2583 39.6817 19.8133 39.5784C20.575 39.435 20.8133 39.005 21.98 38.245C22.4601 37.9329 22.9613 37.6545 23.48 37.4117C23.425 37.0784 23.36 36.6184 23.3133 36.0784C23.2232 35.0247 23.2232 33.9653 23.3133 32.9117C23.4001 31.9797 23.5532 31.0552 23.7717 30.145L23.8133 30.0784L22.1617 30.13C21.826 30.1893 21.487 30.2277 21.1467 30.245Z" fill="#213A30"/>
<path d="M25.48 16.5783C25.4367 16.7 24.625 19.0433 26.1467 20.5783C27.1467 21.5783 28.4967 21.5867 28.8133 21.5783C28.7017 21.19 28.5917 20.8 28.48 20.4117C28.2183 20.4117 27.2883 20.4117 26.6467 19.745C25.745 18.805 25.965 17.1284 26.8133 16.245C26.8725 16.1856 26.9354 16.1299 27.0016 16.0784L26.3467 15.1833C25.9668 15.5853 25.672 16.0598 25.48 16.5783Z" fill="#213A30"/>
<path d="M12.1466 31.745C11.5866 32.86 11.16 33.2133 10.8133 33.4117C10.5047 33.5866 10.1651 33.6998 9.81329 33.745C9.86481 34.2512 9.80799 34.7625 9.64663 35.245C9.34996 36.1067 8.90663 36.23 8.81329 36.9117C8.72663 37.545 8.97996 38.3967 9.64663 38.745C9.85185 38.8543 10.0808 38.9114 10.3133 38.9114C10.5458 38.9114 10.7747 38.8543 10.98 38.745C11.3716 38.515 11.5133 38.115 11.6466 37.745C11.7611 37.4242 11.8175 37.0856 11.8133 36.745C11.875 36.745 12.8616 36.8017 13.1466 36.245C13.2416 36.0583 13.3133 35.6983 13.1466 35.5783C13.0947 35.5531 13.0377 35.54 12.98 35.54C12.9222 35.54 12.8652 35.5531 12.8133 35.5783C12.9663 34.8663 13.2488 34.1884 13.6466 33.5783C14.0633 32.9483 14.4366 32.6583 15.3133 31.745C15.7183 31.3233 16.235 30.7633 16.8133 30.0783C16.323 29.8441 15.873 29.5335 15.48 29.1583L12.9466 29.5933C12.705 30.2683 12.6266 30.79 12.1466 31.745Z" fill="#213A30"/>
<path d="M9.47994 6.0783C8.89005 6.34856 8.41687 6.82174 8.14661 7.41163L9.81327 8.24497C10.0904 7.6599 10.5615 7.18879 11.1466 6.91163C11.7733 6.63163 12.3399 6.68997 12.8133 6.74497L12.8983 6.7583C12.4674 6.45302 11.9878 6.22308 11.4799 6.0783C10.9883 5.9383 10.2616 5.74497 9.47994 6.0783Z" fill="#213A30"/>
<path d="M26.8134 11.245L26.795 11.23" stroke="black" stroke-miterlimit="10"/>
<path d="M26.3617 29.2417C26.3467 29.2984 26.33 29.355 26.3134 29.4084C26.3328 29.3538 26.349 29.2982 26.3617 29.2417Z" fill="black"/>
<path d="M13.8133 19.245C14.18 19.095 14.7016 18.8734 15.3133 18.5784C15.825 18.3317 16.2666 18.1184 16.6466 17.925L16.925 17.0734C16.2983 17.3434 15.0416 17.635 12.6483 17.9067L13.8133 19.245Z" fill="#213A30"/>
<path d="M17.1467 16.3334C17.0833 16.5634 17.0083 16.81 16.9233 17.0784L16.865 17.255C18.365 17.8784 19.9433 18.0034 21.2283 17.9534L21.26 17.8384H21.465C21.465 17.8384 21.465 17.8817 21.4733 17.94C22.1861 17.9004 22.8945 17.8034 23.5917 17.65C23.4724 17.3019 23.3794 16.9454 23.3133 16.5834C23.3133 16.5334 23.295 16.4817 23.2867 16.43C19.74 17.685 17.1467 16.3334 17.1467 16.3334ZM21.5633 16.9184C21.5633 16.9184 21.8133 17.085 21.8133 17.2517C21.7958 17.3781 21.7373 17.4952 21.6467 17.585C21.6031 17.608 21.5553 17.6219 21.5063 17.6259C21.4572 17.6299 21.4078 17.624 21.3611 17.6084C21.3144 17.5928 21.2713 17.568 21.2345 17.5353C21.1976 17.5026 21.1677 17.4629 21.1467 17.4184C20.98 17.0784 21.5633 16.9134 21.5633 16.9134V16.9184Z" fill="#213A30"/>
<path d="M35.6467 22.0784C35.109 21.219 34.7676 20.2515 34.6467 19.245C35.3692 18.7565 35.9915 18.1342 36.48 17.4117C37.205 16.323 37.6093 15.0525 37.6467 13.745C36.8824 13.5207 36.1025 13.3536 35.3134 13.245C33.095 12.94 32.575 13.345 30.98 13.0784C28.8483 12.7217 27.2683 11.5784 26.8133 11.245L26.795 11.23L25.4617 10.1217C24.9423 9.67596 24.389 9.2714 23.8067 8.9117C23.275 8.57836 22.8067 8.33003 22.4617 8.15503C22.4617 8.15503 21.9933 9.83336 20.8267 10.5C19.66 11.1667 17.3033 15.3234 17.3033 15.3234L17.185 16.1567C17.1717 16.2117 17.155 16.2684 17.14 16.3234C17.14 16.3234 19.7333 17.68 23.28 16.42C23.1517 15.6934 23.0517 14.8717 23.4733 14.0734C23.64 13.74 23.7317 13.495 23.9733 13.4067C24.0867 13.365 24.6183 13.2134 25.9733 14.74C26.1033 14.8867 26.225 15.0317 26.34 15.1734L27 16.0734C27.3733 16.6367 27.6667 17.1834 27.9783 17.74C29.1583 19.8884 29.7483 20.9634 29.9783 21.24C30.9847 22.4665 32.3117 23.3897 33.8117 23.9067C35.099 24.337 36.4709 24.4513 37.8117 24.24C36.937 23.691 36.1971 22.9522 35.6467 22.0784Z" fill="#5E8E7D"/>
<path d="M23.98 18.5783C23.8316 18.2754 23.702 17.9637 23.5917 17.645C22.8945 17.7983 22.1861 17.8953 21.4734 17.935C21.4832 18.0321 21.4804 18.1302 21.465 18.2266C21.7834 18.2083 22.3134 18.245 22.3134 19.0783C22.3134 19.9116 21.48 19.76 21.1467 19.745C21.1467 20.6283 20.3134 21.245 20.3134 21.245C20.3134 21.245 19.6467 20.9116 19.48 20.5783C20.1467 20.745 20.6467 20.245 20.8134 19.745C20.48 19.745 19.8134 19.4116 19.98 18.745C20.1467 18.0783 21.1467 18.245 21.1467 18.245L21.2284 17.9483C19.9434 17.9983 18.3584 17.8733 16.865 17.25L16.645 17.9166C16.1734 19.3616 15.925 20.1 15.8117 20.2366C15.2484 20.925 14.71 21.0116 11.4784 22.07L11.1167 22.1883C11.1161 21.1933 11.2376 20.202 11.4784 19.2366C11.605 18.7366 12.2534 16.16 13.3117 16.07C13.5336 16.0872 13.7565 16.0872 13.9784 16.07C14.1496 16.044 14.3173 15.9987 14.4784 15.935C14.7166 15.8453 14.9411 15.7224 15.145 15.57C15.3301 15.4335 15.498 15.2751 15.645 15.0983L16.145 14.295C16.3117 13.9616 16.4384 13.73 16.645 13.7366C16.8934 13.7366 17.0684 14.085 17.145 14.2366C17.1795 14.3035 17.2096 14.3725 17.235 14.4433C17.235 14.3966 17.2534 14.3466 17.2634 14.295C18.0734 12.5 18.8334 11.3833 19.345 10.7566C19.495 9.9233 19.365 8.80997 19.2934 8.3233C19.195 8.34663 19.09 8.37497 18.98 8.41163C18.6265 8.53442 18.2904 8.70249 17.98 8.91163C17.8013 9.03325 17.6399 9.17845 17.5 9.3433L17.3584 9.5233C16.7645 8.83463 16.074 8.23563 15.3084 7.74497C14.725 7.37163 13.965 6.91163 12.8934 6.7583C13.7184 7.3333 14.3534 8.11663 14.98 8.91163C15.4478 9.50535 15.868 10.1351 16.2367 10.795C16.115 10.9156 15.9713 11.0118 15.8134 11.0783C15.115 11.32 14.48 10.8016 13.6467 10.4116C12.3867 9.81997 12.275 10.27 10.6467 9.74497C8.57169 9.0783 7.98002 8.08997 7.31335 8.41163C6.94502 8.58997 6.68335 9.10663 6.64669 10.745C6.60038 12.8444 6.93932 14.9345 7.64669 16.9116C8.37446 18.8586 9.37016 20.6946 10.605 22.3666C8.79835 22.9716 8.40169 23.1583 7.98002 23.4116C6.92841 24.0524 6.02054 24.9035 5.31335 25.9116C5.83363 25.6444 6.39855 25.4749 6.98002 25.4116C6.90111 25.6878 6.72308 25.9252 6.48002 26.0783C6.22669 26.2183 5.98002 26.18 5.98002 26.245C5.96835 26.34 6.45502 26.5416 6.98002 26.5783C7.50068 26.6016 8.01822 26.4866 8.48002 26.245C9.09502 25.9516 10.075 25.6333 11.6467 25.5783C11.4184 25.785 11.0784 26.0783 10.6467 26.4116C9.83502 27.035 9.00335 27.6616 7.81335 28.0783C7.37979 28.2291 6.93355 28.3407 6.48002 28.4116C7.29607 28.6554 8.133 28.8227 8.98002 28.9116C9.82835 29 10.48 29.0683 11.3134 28.9116C12.154 28.7499 12.9499 28.4088 13.6467 27.9116C13.338 28.2177 13.0034 28.4966 12.6467 28.745C12.2781 29.001 11.8877 29.224 11.48 29.4116C11.9607 29.5259 12.4526 29.5868 12.9467 29.5933L15.48 29.1666C15.8371 29.0175 16.1732 28.8225 16.48 28.5866C17.2849 27.9496 17.8682 27.0747 18.1467 26.0866C18.363 26.7032 18.4152 27.3653 18.2984 28.0081C18.1815 28.651 17.8995 29.2524 17.48 29.7533C17.724 29.6924 17.9516 29.5786 18.1467 29.42C18.3649 29.2416 18.5365 29.0128 18.6467 28.7533C18.5325 29.7247 18.0564 30.6173 17.3134 31.2533C17.9794 31.2295 18.621 30.9962 19.1467 30.5866C19.8367 30.0266 20.0534 29.2966 20.3134 28.42C20.5833 27.501 20.696 26.5431 20.6467 25.5866C20.8119 26.4341 21.0346 27.2694 21.3134 28.0866C21.5367 28.7917 21.8222 29.4755 22.1667 30.13L23.8184 30.0783C23.9709 30.1349 24.1095 30.2237 24.2245 30.3388C24.3396 30.4538 24.4285 30.5924 24.485 30.745C24.5562 30.9615 24.5562 31.1951 24.485 31.4116C24.8158 31.1263 25.0973 30.7884 25.3184 30.4116C25.7738 29.6019 25.9495 28.6647 25.8184 27.745C26.0472 27.9133 26.2214 28.1454 26.3189 28.4122C26.4164 28.679 26.4331 28.9687 26.3667 29.245C26.5734 28.5239 26.7795 27.8016 26.985 27.0783C27.3067 23.8633 26.5734 22.1866 25.8184 21.245C25.4534 20.7966 24.6667 19.9866 23.98 18.5783Z" fill="#5E8E7D"/>
<path d="M24.8133 7.74504C24.6692 7.42361 24.5576 7.08862 24.4799 6.74504C24.3133 6.03838 24.4349 5.86504 24.3133 5.07838C24.2291 4.50134 24.0606 3.9398 23.8133 3.41171C23.6725 3.11919 23.5051 2.84024 23.3133 2.57838C23.4502 2.31162 23.5618 2.03262 23.6466 1.74504C23.7272 1.47286 23.783 1.19395 23.8133 0.911711L22.8133 1.24504L22.3133 1.41171C22.1008 1.3226 21.876 1.2664 21.6466 1.24504C21.2083 1.20338 21.0066 1.31838 20.6466 1.24504C20.2349 1.16004 20.0216 0.865044 19.9799 0.911711C19.9383 0.958378 20.1633 1.24504 20.3133 1.41171C20.3783 1.48171 20.4366 1.53838 20.4799 1.57838C20.2208 1.45317 19.934 1.39582 19.6466 1.41171C19.3866 1.42838 19.3533 1.49838 18.9799 1.57838C18.6466 1.65004 18.2299 1.73671 17.8133 1.57838C17.6244 1.50481 17.4538 1.39108 17.3133 1.24504C17.4586 1.67312 17.6849 2.06921 17.9799 2.41171C18.0834 2.53021 18.1948 2.64157 18.3133 2.74504C18.1055 3.05617 17.9375 3.39213 17.8133 3.74504C17.547 4.49329 17.4894 5.29988 17.6466 6.07838C17.7333 6.48171 17.8016 6.48671 17.8133 6.74504C17.8449 7.43671 17.3849 8.02004 16.9799 8.41171C17.7899 8.39005 18.1466 8.14838 18.3133 7.91171C18.4799 7.67505 18.4516 7.50171 18.6466 7.41171C18.9466 7.27171 19.3599 7.55171 19.6466 7.74504C19.8566 7.88671 19.9916 7.97838 19.9799 8.07838C19.9649 8.20838 19.6866 8.23004 19.2933 8.32338C19.3649 8.81004 19.4949 9.92004 19.3449 10.7567C18.8333 11.3834 18.0733 12.5 17.2649 14.3034C17.2549 14.355 17.2449 14.405 17.2366 14.4517C17.3061 14.6461 17.3438 14.8504 17.3483 15.0567C16.9713 14.7698 16.5691 14.5176 16.1466 14.3034L15.6466 15.1067C15.9936 15.2973 16.3277 15.5105 16.6466 15.745C16.8766 15.9117 17.0566 16.045 17.1916 16.16L17.3099 15.3267C17.3099 15.3267 19.6666 11.1667 20.8333 10.5C21.9999 9.83338 22.4683 8.15504 22.4683 8.15504L22.3666 8.14504C22.5862 7.96849 22.8661 7.88476 23.1466 7.91171C23.8399 8.02004 24.1299 8.70338 24.1466 8.74504C24.1855 8.52452 24.1855 8.2989 24.1466 8.07838C24.0784 7.70429 23.905 7.3574 23.6466 7.07838C23.8196 7.1128 23.9876 7.16879 24.1466 7.24504C24.3994 7.36642 24.626 7.5363 24.8133 7.74504ZM22.8133 6.07838C22.8056 6.51769 22.6261 6.9365 22.3133 7.24504C22.1231 7.41121 21.8936 7.52596 21.6466 7.57838C21.6712 7.74414 21.6712 7.91262 21.6466 8.07838C21.5583 8.66504 21.1733 9.05005 20.8133 9.41171C20.5611 9.66416 20.2816 9.88775 19.9799 10.0784C20.0785 9.52796 20.1342 8.97074 20.1466 8.41171C20.1466 8.29671 20.1466 8.18838 20.1466 8.07838C20.1466 8.02338 20.1466 7.96504 20.1466 7.91171C19.1133 7.16171 18.8533 6.52671 18.8133 6.07838C18.8033 5.96171 18.8133 5.88171 18.8133 5.24504C18.8133 4.67504 18.8133 4.21171 18.8133 3.91171C18.8804 4.15331 18.9936 4.37968 19.1466 4.57838C19.2434 4.70292 19.3554 4.81489 19.4799 4.91171C19.2885 4.37825 19.2312 3.80586 19.3133 3.24504C19.6161 3.99396 20.1391 4.63328 20.8133 5.07838C21.1715 5.30913 21.5658 5.47815 21.9799 5.57838C21.8021 5.09963 21.7449 4.58448 21.8133 4.07838C22.1824 4.32358 22.472 4.6711 22.6466 5.07838C22.781 5.39368 22.8382 5.73653 22.8133 6.07838Z" fill="#213A30"/>
</svg>
