<svg width="40" height="40" viewBox="0 0 40 40" fill="none" xmlns="http://www.w3.org/2000/svg">
<path d="M26.3617 29.2417C26.3467 29.2984 26.33 29.355 26.3134 29.4084C26.3328 29.3538 26.349 29.2982 26.3617 29.2417Z" fill="#A3A5A7"/>
<path d="M35.6467 22.0784C35.109 21.219 34.7676 20.2515 34.6467 19.245C35.3692 18.7565 35.9915 18.1342 36.48 17.4117C37.205 16.3231 37.6093 15.0525 37.6467 13.745C36.8824 13.5207 36.1025 13.3536 35.3134 13.245C33.095 12.94 32.575 13.345 30.98 13.0784C28.8484 12.7217 27.2684 11.5784 26.8134 11.245L26.795 11.23L29.1467 9.74504C30.2303 9.00961 31.504 8.60434 32.8134 8.57838C33.3182 8.57419 33.8217 8.63014 34.3134 8.74504C33.9374 9.49848 33.3983 10.1587 32.7352 10.6776C32.0721 11.1966 31.3017 11.5612 30.48 11.745L31.3134 12.245C33.33 11.6967 34.7334 10.52 34.8134 9.24504C34.8434 8.78671 34.7234 7.95338 34.1467 7.57838C33.685 7.27671 33.13 7.41171 32.48 7.57838C31.1192 7.93561 29.783 8.381 28.48 8.91171C28.0189 9.10949 27.5472 9.30616 27.065 9.50171C26.525 9.72004 25.9934 9.92505 25.4684 10.1217C24.949 9.67598 24.3956 9.27142 23.8134 8.91171C23.3283 8.60784 22.8276 8.32968 22.3134 8.07838C22.5637 7.92865 22.858 7.86978 23.1467 7.91171C23.84 8.02004 24.13 8.70338 24.1467 8.74504C24.1856 8.52452 24.1856 8.2989 24.1467 8.07838C24.0785 7.70429 23.905 7.3574 23.6467 7.07838C23.8197 7.1128 23.9876 7.16879 24.1467 7.24504C24.3995 7.36642 24.626 7.5363 24.8134 7.74504C24.6693 7.42361 24.5576 7.08862 24.48 6.74504C24.3134 6.03838 24.435 5.86504 24.3134 5.07838C24.2292 4.50134 24.0607 3.9398 23.8134 3.41171C23.6726 3.11919 23.5052 2.84024 23.3134 2.57838C23.4503 2.31162 23.5618 2.03262 23.6467 1.74504C23.7273 1.47286 23.7831 1.19395 23.8134 0.911711L22.8134 1.24504L22.3134 1.41171C22.1009 1.3226 21.8761 1.2664 21.6467 1.24504C21.2084 1.20338 21.0067 1.31838 20.6467 1.24504C20.235 1.16004 20.0217 0.865044 19.98 0.911711C19.9384 0.958378 20.1634 1.24504 20.3134 1.41171C20.3784 1.48171 20.4367 1.53838 20.48 1.57838C20.2208 1.45317 19.9341 1.39582 19.6467 1.41171C19.3867 1.42838 19.3534 1.49838 18.98 1.57838C18.6467 1.65004 18.23 1.73671 17.8134 1.57838C17.6245 1.50481 17.4539 1.39108 17.3134 1.24504C17.4586 1.67312 17.685 2.06921 17.98 2.41171C18.0835 2.53021 18.1949 2.64157 18.3134 2.74504C18.1056 3.05617 17.9376 3.39213 17.8134 3.74504C17.5471 4.49329 17.4895 5.29988 17.6467 6.07838C17.7334 6.48171 17.8017 6.48671 17.8134 6.74504C17.845 7.43671 17.385 8.02004 16.98 8.41171C17.79 8.39005 18.1467 8.14838 18.3134 7.91171C18.48 7.67505 18.4517 7.50171 18.6467 7.41171C18.9467 7.27171 19.36 7.55171 19.6467 7.74504C19.8567 7.88671 19.9917 7.97838 19.98 8.07838C19.96 8.24504 19.5317 8.23171 18.98 8.41171C18.6265 8.5345 18.2904 8.70256 17.98 8.91171C17.7404 9.07806 17.5316 9.28507 17.3634 9.52338C16.7695 8.83471 16.079 8.23571 15.3134 7.74504C14.73 7.37171 13.97 6.91171 12.8984 6.75838C13.7184 7.33338 14.3534 8.11671 14.98 8.91171C15.4478 9.50542 15.868 10.1352 16.2367 10.795C16.115 10.9157 15.9713 11.0118 15.8134 11.0784C15.115 11.32 14.48 10.8017 13.6467 10.4117C12.3867 9.82004 12.275 10.27 10.6467 9.74504C8.57169 9.07838 7.98002 8.09004 7.31335 8.41171C6.94502 8.59004 6.68335 9.10671 6.64669 10.745C6.60038 12.8444 6.93932 14.9345 7.64669 16.9117C8.37446 18.8587 9.37016 20.6947 10.605 22.3667C8.79835 22.9717 8.40169 23.1584 7.98002 23.4117C6.92841 24.0525 6.02054 24.9036 5.31335 25.9117C5.83363 25.6444 6.39855 25.475 6.98002 25.4117C6.90111 25.6879 6.72308 25.9253 6.48002 26.0784C6.22669 26.2184 5.98002 26.18 5.98002 26.245C5.96835 26.34 6.45502 26.5417 6.98002 26.5784C7.50068 26.6016 8.01822 26.4866 8.48002 26.245C9.09502 25.9517 10.075 25.6334 11.6467 25.5784C11.4184 25.785 11.0784 26.0784 10.6467 26.4117C9.83502 27.035 9.00335 27.6617 7.81335 28.0784C7.37979 28.2292 6.93355 28.3407 6.48002 28.4117C7.29607 28.6554 8.133 28.8228 8.98002 28.9117C9.82835 29 10.48 29.0684 11.3134 28.9117C12.154 28.75 12.9499 28.4089 13.6467 27.9117C13.338 28.2178 13.0034 28.4966 12.6467 28.745C12.2781 29.001 11.8877 29.2241 11.48 29.4117C11.9607 29.526 12.4526 29.5869 12.9467 29.5934C12.705 30.2684 12.6267 30.79 12.1467 31.745C11.5867 32.86 11.16 33.2134 10.8134 33.4117C10.5048 33.5866 10.1651 33.6998 9.81335 33.745C9.86487 34.2512 9.80805 34.7625 9.64669 35.245C9.35002 36.1067 8.90669 36.23 8.81335 36.9117C8.72669 37.545 8.98002 38.3967 9.64669 38.745C9.85191 38.8543 10.0808 38.9115 10.3134 38.9115C10.5459 38.9115 10.7748 38.8543 10.98 38.745C11.3717 38.515 11.5134 38.115 11.6467 37.745C11.7611 37.4242 11.8176 37.0856 11.8134 36.745C11.875 36.745 12.8617 36.8017 13.1467 36.245C13.2417 36.0584 13.3134 35.6984 13.1467 35.5784C13.0947 35.5532 13.0378 35.5401 12.98 35.5401C12.9223 35.5401 12.8653 35.5532 12.8134 35.5784C12.9664 34.8663 13.2488 34.1884 13.6467 33.5784C14.0634 32.9484 14.4367 32.6584 15.3134 31.745C15.7184 31.3234 16.235 30.7634 16.8134 30.0784C16.3231 29.8441 15.873 29.5336 15.48 29.1584C15.8371 29.0092 16.1732 28.8142 16.48 28.5784C17.2849 27.9413 17.8682 27.0664 18.1467 26.0784C18.363 26.6949 18.4152 27.3571 18.2984 27.9999C18.1815 28.6427 17.8995 29.2441 17.48 29.745C17.724 29.6841 17.9516 29.5703 18.1467 29.4117C18.3649 29.2333 18.5365 29.0045 18.6467 28.745C18.5325 29.7164 18.0564 30.6091 17.3134 31.245C17.9794 31.2213 18.621 30.988 19.1467 30.5784C19.8367 30.0184 20.0534 29.2884 20.3134 28.4117C20.5833 27.4928 20.696 26.5349 20.6467 25.5784C20.8119 26.4259 21.0346 27.2612 21.3134 28.0784C21.5362 28.7863 21.8218 29.4729 22.1667 30.13C21.8311 30.1893 21.4921 30.2277 21.1517 30.245C20.8187 30.2679 20.4846 30.2679 20.1517 30.245C20.3284 31.245 20.4267 32.1034 20.485 32.745C20.68 34.9117 20.5 35.5784 20.1517 36.0784C19.9712 36.3387 19.7454 36.5645 19.485 36.745C19.5362 36.5823 19.5362 36.4078 19.485 36.245C19.39 35.955 19.1167 35.695 18.985 35.745C18.8534 35.795 18.8184 36.0684 18.985 37.0784C18.8984 36.9967 18.7817 36.885 18.6517 36.745C18.3184 36.3867 18.2517 36.2267 18.1517 36.245C18.0117 36.27 17.9 36.6217 17.985 36.9117C18.0266 37.0266 18.093 37.131 18.1794 37.2174C18.2658 37.3038 18.3701 37.3701 18.485 37.4117C18.3241 37.4668 18.1786 37.5595 18.0606 37.6821C17.9427 37.8047 17.8556 37.9536 17.8067 38.1166C17.7579 38.2795 17.7485 38.4518 17.7795 38.619C17.8105 38.7863 17.881 38.9438 17.985 39.0784C18.3867 39.64 19.2634 39.6817 19.8184 39.5784C20.58 39.435 20.8184 39.005 21.985 38.245C22.4652 37.9329 22.9664 37.6545 23.485 37.4117C23.43 37.0784 23.365 36.6184 23.3184 36.0784C23.2283 35.0247 23.2283 33.9653 23.3184 32.9117C23.4051 31.9798 23.5583 31.0552 23.7767 30.145L23.8184 30.0784C23.9709 30.1349 24.1095 30.2238 24.2245 30.3389C24.3396 30.4539 24.4285 30.5925 24.485 30.745C24.5563 30.9616 24.5563 31.1952 24.485 31.4117C24.8158 31.1263 25.0973 30.7885 25.3184 30.4117C25.7738 29.602 25.9495 28.6647 25.8184 27.745C26.0472 27.9134 26.2214 28.1455 26.3189 28.4123C26.4164 28.6791 26.4331 28.9688 26.3667 29.245L26.985 27.0784C27.3067 23.8634 26.5734 22.1867 25.8184 21.245C25.4584 20.7967 24.67 19.9867 23.985 18.5784C23.6706 17.9461 23.4462 17.2729 23.3184 16.5784C23.18 15.815 23.0334 14.9334 23.485 14.0784C23.6517 13.745 23.7434 13.5 23.985 13.4117C24.0984 13.37 24.63 13.2184 25.985 14.745C26.115 14.8917 26.2367 15.0367 26.3517 15.1784C25.9713 15.5818 25.6765 16.058 25.485 16.5784C25.4417 16.7 24.63 19.0434 26.1517 20.5784C27.1517 21.5784 28.5017 21.5867 28.8184 21.5784C28.7067 21.1884 28.5967 20.8 28.485 20.4117C28.2234 20.4117 27.2934 20.4117 26.6517 19.745C25.75 18.805 25.97 17.1284 26.8184 16.245C26.8776 16.1856 26.9405 16.1299 27.0067 16.0784C27.38 16.6417 27.6734 17.1884 27.985 17.745C29.165 19.8934 29.755 20.9684 29.985 21.245C30.9914 22.4716 32.3184 23.3947 33.8184 23.9117C35.1057 24.342 36.4776 24.4564 37.8184 24.245C36.9407 23.6953 36.1984 22.9547 35.6467 22.0784ZM17.1467 14.245C17.2755 14.4964 17.3446 14.7742 17.3484 15.0567C16.9714 14.7698 16.5692 14.5176 16.1467 14.3034C16.3134 13.97 16.44 13.7384 16.6467 13.745C16.895 13.7517 17.07 14.0934 17.1467 14.245ZM15.8134 20.245C15.25 20.9334 14.7117 21.02 11.48 22.0784L11.1184 22.1967C11.1178 21.2017 11.2392 20.2104 11.48 19.245C11.6067 18.745 12.255 16.1684 13.3134 16.0784C13.5352 16.0956 13.7581 16.0956 13.98 16.0784C14.4038 16.0093 14.8044 15.8376 15.1467 15.5784C15.3318 15.4419 15.4997 15.2835 15.6467 15.1067C15.9937 15.2973 16.3278 15.5105 16.6467 15.745C16.8767 15.9117 17.0567 16.045 17.1917 16.16C17.1217 16.435 17.025 16.7384 16.9234 17.0734C16.2967 17.345 15.04 17.635 12.6467 17.9067L13.8134 19.24C14.18 19.09 14.7017 18.8684 15.3134 18.5734C15.825 18.3267 16.2667 18.1134 16.6467 17.92C16.1667 19.37 15.925 20.1084 15.8134 20.245ZM20.1467 8.41171C20.1467 8.23949 20.1467 8.07282 20.1467 7.91171C19.1134 7.16171 18.8534 6.52671 18.8134 6.07838C18.8034 5.96171 18.8134 5.88171 18.8134 5.24504C18.8134 4.67504 18.8134 4.21171 18.8134 3.91171C18.8805 4.15331 18.9937 4.37968 19.1467 4.57838C19.2435 4.70292 19.3555 4.81489 19.48 4.91171C19.2885 4.37825 19.2313 3.80586 19.3134 3.24504C19.6162 3.99396 20.1392 4.63328 20.8134 5.07838C21.1715 5.30913 21.5659 5.47815 21.98 5.57838C21.8022 5.09963 21.745 4.58448 21.8134 4.07838C22.1825 4.32358 22.4721 4.6711 22.6467 5.07838C22.7811 5.39368 22.8382 5.73653 22.8134 6.07838C22.8057 6.51769 22.6262 6.9365 22.3134 7.24504C22.1232 7.41121 21.8937 7.52596 21.6467 7.57838C21.6713 7.74414 21.6713 7.91262 21.6467 8.07838C21.5584 8.66504 21.1734 9.05005 20.8134 9.41171C20.5612 9.66416 20.2817 9.88775 19.98 10.0784C20.0786 9.52796 20.1343 8.97074 20.1467 8.41171ZM21.8134 17.245C21.7959 17.3714 21.7373 17.4886 21.6467 17.5784C21.6031 17.6013 21.5554 17.6152 21.5063 17.6192C21.4572 17.6233 21.4078 17.6173 21.3611 17.6017C21.3144 17.5862 21.2713 17.5613 21.2345 17.5286C21.1976 17.496 21.1678 17.4562 21.1467 17.4117C20.98 17.0784 21.5634 16.9117 21.5634 16.9117C21.5634 16.9117 21.8134 17.0784 21.8134 17.245ZM21.1467 19.745C21.1467 20.6284 20.3134 21.245 20.3134 21.245C20.3134 21.245 19.6467 20.9117 19.48 20.5784C20.1467 20.745 20.6467 20.245 20.8134 19.745C20.48 19.745 19.8134 19.4117 19.98 18.745C20.1467 18.0784 21.1467 18.245 21.1467 18.245L21.26 17.8334H21.465C21.481 17.964 21.481 18.0961 21.465 18.2267C21.7834 18.2084 22.3134 18.245 22.3134 19.0784C22.3134 19.9117 21.48 19.76 21.1467 19.745Z" fill="#A3A5A7"/>
<path d="M9.48006 6.07842C8.89017 6.34868 8.41699 6.82186 8.14673 7.41176L9.8134 8.24509C10.0905 7.66002 10.5617 7.18891 11.1467 6.91176C11.7734 6.63176 12.3401 6.69009 12.8134 6.74509L12.8984 6.75842C12.4675 6.45314 11.9879 6.22321 11.4801 6.07842C10.9884 5.93842 10.2617 5.74509 9.48006 6.07842Z" fill="#A3A5A7"/>
</svg>
