<svg width="40" height="40" viewBox="0 0 40 40" fill="none" xmlns="http://www.w3.org/2000/svg">
<rect width="40" height="40" rx="5" fill="white"/>
<path d="M25.6 36.7683L13.5 34.595V32.5V29.1667V21.6667V10.5H6.33337V14.5V21.6667V31.3217V32.5V33.07V35.1667L13.5 36.1417L27.4 39.0883L27.235 36.165L30.3667 37.1433L25.535 35.6333L25.6 36.7683Z" fill="#324148"/>
<path d="M19.3334 4.20831V31.375H33.6667V4.20831H19.3334ZM29.3334 23.625H24.6667V8.62498H29.3334V23.625Z" fill="#245E93"/>
<path d="M15.3334 32.4467L25.535 35.6333L15.3334 32.4467Z" fill="#FFE7D7"/>
<path d="M28.5317 31.375L28.6334 34.8567L17 31.22V8.23834H15.3334V32.4467L25.535 35.6333L30.3667 37.1433L30.1984 31.375H28.5317Z" fill="#C4A44D"/>
</svg>
