<svg width="40" height="40" viewBox="0 0 40 40" fill="none" xmlns="http://www.w3.org/2000/svg">
<path d="M11.7083 11.2C11.7737 11.2304 11.8445 11.2474 11.9166 11.25L11.7083 11.2Z" fill="#A3A5A7"/>
<path d="M28.625 11.2L28.4166 11.25C28.4887 11.2474 28.5595 11.2304 28.625 11.2Z" fill="#A3A5A7"/>
<path d="M22.9049 3.60333H17.4283C14.3333 3.60333 14.6666 8.16667 14.6666 9V9.125C16.9899 8.09167 19.7966 8.15333 20.1666 8.16667C20.5366 8.15333 23.3433 8.09167 25.6666 9.125V9C25.6666 8.16667 25.9999 3.60333 22.9049 3.60333Z" fill="#A3A5A7"/>
<path d="M11.6667 25.3C11.6667 25.17 11.655 25.095 11.655 25.095C11.6518 25.1635 11.6557 25.2322 11.6667 25.3Z" fill="#A3A5A7"/>
<path d="M10.5 24.8333C10.5 24.8333 9.16663 24.6667 9.16663 26.8333C9.16663 29 11.1666 30.7783 11.1666 30.7783L10.5 24.8333Z" fill="#A3A5A7"/>
<path d="M10.3333 19.445C10.3333 19.445 9.99996 17.6667 5.99996 17.6667C1.99996 17.6667 1.16663 19.1667 1.16663 19.1667V24.1667H10.3333V19.445Z" fill="#A3A5A7"/>
<path d="M31.2233 5.04667C30.9559 5.49072 30.6284 5.89567 30.25 6.25C30.9167 4.58333 30.8333 2 30.8333 2C30.055 2.73667 29.4083 3.75667 28.8733 4.875C28.8733 4.89833 28.2517 7.09 28.5833 8.41667C28.31 8.05333 28.1867 7.29167 28.13 6.675C27.5441 8.35418 27.0982 10.079 26.7967 11.8317C26.465 11.5282 26.1056 11.2565 25.7233 11.02V11.035C23.645 9.70167 20.245 9.83 20.21 9.83333H20.1367C20.1017 9.83333 16.7017 9.7 14.6233 11.035V11.02C14.2358 11.2562 13.8714 11.5286 13.535 11.8333C13.2335 10.0806 12.7875 8.35585 12.2017 6.67667C12.145 7.29333 12.0217 8.055 11.7483 8.41833C12.0817 7.085 11.4633 4.9 11.4583 4.87667C10.925 3.75667 10.2783 2.73667 9.50001 2C9.50001 2 9.41667 4.58333 10.0833 6.25C9.70498 5.89567 9.37744 5.49072 9.11 5.04667C8.99 6.23667 8.98334 7.34167 9.31334 8.41667C9.31334 8.42667 10.8233 10.83 11.7083 11.2L11.9167 11.25C11.8446 11.2474 11.7738 11.2304 11.7083 11.2C11.3971 11.1278 11.0931 11.0273 10.8 10.9C11.4086 11.5365 12.0842 12.1054 12.815 12.5967C11.8212 13.8574 11.245 15.3966 11.1667 17V22.6667C11.1667 22.6667 11.5 25.095 14.4767 25.095H25.8567C28.8333 25.095 29.1667 22.6667 29.1667 22.6667V17C29.0883 15.3966 28.5122 13.8574 27.5183 12.5967C28.2492 12.1054 28.9248 11.5365 29.5333 10.9C29.2403 11.0273 28.9363 11.1278 28.625 11.2C28.5596 11.2304 28.4888 11.2474 28.4167 11.25L28.625 11.2C29.51 10.83 31.015 8.42667 31.02 8.41667C31.35 7.34167 31.3433 6.23667 31.2233 5.04667ZM23.5833 22.4167C20.1133 23.3633 15.63 22.7 14.9167 20.75C14.705 20.1733 14.74 19.25 15.25 18.75C15.5267 18.4767 16.1033 18.1717 16.5833 18.4167C16.764 18.5148 16.9084 18.6685 16.995 18.855C16.874 18.4996 16.847 18.1189 16.9167 17.75C17.1183 16.75 18.0833 15.985 19.0833 15.9167C19.87 15.8633 20.965 16.2117 21.25 17.0833C21.4167 17.5733 21.3767 18.4167 20.75 18.75C20.23 19.0217 19.4967 18.8367 19.0833 18.25C19.0945 18.4419 19.1446 18.6295 19.2305 18.8014C19.3165 18.9733 19.4365 19.126 19.5833 19.25C20.115 19.6617 20.9383 19.565 21.4167 19.0833C21.6023 18.8866 21.7313 18.6433 21.79 18.3793C21.8487 18.1152 21.8349 17.8402 21.75 17.5833C21.8083 17.5467 22.6133 17.0683 23.25 17.4167C24.04 17.8467 24.11 19.29 23.4167 19.9167C23.0033 20.29 22.4367 20.2667 22.25 20.25C22.6566 20.7057 23.173 21.0499 23.75 21.25C25.4033 21.8117 26.87 20.8883 27.0833 20.75C26.0235 21.5066 24.8388 22.0708 23.5833 22.4167Z" fill="#A3A5A7"/>
<path d="M28.6833 25.095C28.6833 25.095 28.6833 25.17 28.6716 25.3C28.6825 25.2322 28.6865 25.1635 28.6833 25.095Z" fill="#A3A5A7"/>
<path d="M20.1666 38.1117C24 38.1117 27.3333 33.8333 27.8333 32.6667C28.28 31.6233 28.6066 26.3933 28.6666 25.3C28.6016 25.7017 28.2416 26.555 26.3333 26.555H14C12.0866 26.555 11.7266 25.7017 11.6666 25.3C11.7316 26.3933 12.0583 31.6233 12.5 32.6667C13 33.8333 16.3333 38.1117 20.1666 38.1117Z" fill="#A3A5A7"/>
<path d="M29.8333 24.8333L29.1666 30.7783C29.1666 30.7783 31.1666 29 31.1666 26.8333C31.1666 24.6667 29.8333 24.8333 29.8333 24.8333Z" fill="#A3A5A7"/>
<path d="M34.3333 17.6667C30.3333 17.6667 30 19.445 30 19.445V24.1667H39.1667V19.1667C39.1667 19.1667 38.3333 17.6667 34.3333 17.6667Z" fill="#A3A5A7"/>
<path d="M17 18.855C17.0255 18.9326 17.055 19.0088 17.0883 19.0833C17.0654 19.0048 17.0359 18.9284 17 18.855Z" fill="#A3A5A7"/>
</svg>
