<svg width="40" height="40" viewBox="0 0 40 40" fill="none" xmlns="http://www.w3.org/2000/svg">
<path d="M34.4167 27.25C35.9717 25.1933 34.2984 22.2783 34.0834 21.9166C33.4127 20.8166 32.425 19.9451 31.25 19.4166C31.8362 17.0205 31.6015 14.4969 30.5834 12.25C29.7274 10.4023 28.3705 8.83177 26.6667 7.71662C26.8234 6.98604 26.8234 6.23055 26.6667 5.49996C26.65 5.42829 26.62 5.29329 26.5667 5.11663C30.3334 5.39829 32.655 5.75996 32.6667 5.66663C32.6784 5.57329 30.0984 4.99996 26.3684 4.56663C26.0267 3.74663 25.3334 2.61996 24 1.99996C22.4267 1.27163 20.9484 1.70329 20.5 1.83329C18.8584 2.31163 17.9417 3.43996 17.5 3.99996V4.00829C15.3117 3.99996 13.4484 4.07329 12 4.16663C11.9048 3.94123 11.7254 3.76186 11.5 3.66663C10.9884 3.48329 10.2967 3.90663 10.1667 4.49996C10.128 4.68122 10.1384 4.86955 10.197 5.0454C10.2557 5.22125 10.3603 5.3782 10.5 5.49996C10.69 5.64973 10.9248 5.73119 11.1667 5.73119C11.4086 5.73119 11.6434 5.64973 11.8334 5.49996C11.9913 5.36972 12.1072 5.19579 12.1667 4.99996L12.6384 4.97329C12.5848 5.25858 12.5944 5.55215 12.6667 5.83329C12.7584 6.17829 12.905 6.33329 13.1017 6.61496C13.2517 6.11496 13.38 5.89829 13.3334 5.49996C13.3107 5.30665 13.2542 5.11881 13.1667 4.94496C14.2367 4.88996 15.5 4.84329 16.945 4.82163C16.649 5.33807 16.4189 5.88959 16.26 6.46329C15.3168 6.66514 14.4086 7.0055 13.565 7.47329C13.4784 7.27496 13.385 7.09829 13.3334 6.99996C13.2642 6.86698 13.1868 6.7384 13.1017 6.61496C13.0684 6.72662 13.0334 6.85329 13 6.99996C12.9172 7.31009 12.8614 7.62684 12.8334 7.94663C12.6367 8.08996 12.4434 8.24496 12.25 8.41663C9.78004 10.6116 9.39171 13.6466 9.25004 14.75C9.03226 16.488 9.20304 18.2526 9.75004 19.9166C9.48171 20.1 6.99504 21.8583 7.08338 24.5833C7.09671 24.9766 7.16504 27.11 8.75004 27.9166C9.62671 28.3616 10.535 28.1833 10.9167 28.0833C11.3406 28.7274 11.5718 29.479 11.5834 30.25C11.5834 30.4833 11.5934 32.1216 10.5834 32.75C10.03 33.0933 9.68837 32.8116 8.75004 32.9166C8.63838 32.9283 6.36838 33.2166 5.33338 35C4.57838 36.3016 4.88171 37.7116 5.00004 38.1666C4.98245 37.5196 5.1564 36.8818 5.50004 36.3333C5.63004 36.1333 6.23171 35.265 8.00004 34.8333C9.79671 34.395 10.8617 35.1466 12.3334 35C13.4734 34.8866 19.4834 34.2933 21.8334 30C22.1215 29.4731 22.3453 28.9135 22.5 28.3333C22.2884 28.5533 19.525 31.3516 17 30.5C15.9534 30.1466 15.3334 29.2933 14.5 28.1666C13.5096 26.8112 12.7753 25.2862 12.3334 23.6666V16.3333C14.6734 15.7935 16.7427 14.4336 18.1667 12.5C19.8768 15.0966 22.4417 17.0129 25.4167 17.9166C25.8267 19.145 25.6584 20.3766 24.9167 21.0833C24.3534 21.6216 23.2767 22.03 22.75 21.5833C22.425 21.3083 22.2367 20.645 22.5834 20.25C22.835 19.9616 23.315 19.8816 23.75 20.0833C23.4724 19.8945 23.1379 19.808 22.8035 19.8384C22.4692 19.8688 22.1558 20.0142 21.9167 20.25C21.4034 20.805 21.6067 21.64 21.9167 22.0833C22.4967 22.9166 23.7417 22.785 24.0834 22.75C25.8784 22.565 26.8317 20.9033 26.9167 20.75C27.2774 20.0867 27.4503 19.3376 27.4167 18.5833C27.7369 18.4507 28.0966 18.4507 28.4167 18.5833C29.2217 18.99 29.1234 20.4866 29.0834 21.0833C29.035 21.81 28.94 23.25 27.75 24.25C27.1793 24.7175 26.4839 25.0073 25.75 25.0833C25.8596 27.1487 25.4589 29.2094 24.5834 31.0833C23.9017 32.5166 23.2934 33.7966 21.9167 34.5833C20.065 35.6433 18.8867 34.6283 16.75 35.75C14.9717 36.6816 13.9934 38.5066 14.0834 38.4166C14.6552 37.8442 15.335 37.391 16.0834 37.0833C16.7934 36.7966 17.73 36.5833 20.5834 36.9166C23.6434 37.2716 24.3267 37.72 26.4167 37.5833C27.5734 37.5083 28.3284 37.45 29.0834 36.9166C30.2767 36.075 30.595 34.6716 30.9167 33.25C31.247 31.7728 31.3035 30.2475 31.0834 28.75C31.465 28.7416 33.35 28.6666 34.4167 27.25ZM20.0117 5.88329C20.2432 5.64337 20.5233 5.45582 20.8334 5.33329C21.3689 5.1223 21.9645 5.1223 22.5 5.33329C22.7676 5.42889 23 5.60319 23.1667 5.83329C23.2484 5.95411 23.3082 6.08839 23.3434 6.22996C22.2555 5.95343 21.1332 5.83665 20.0117 5.88329Z" fill="#A3A5A7"/>
<path d="M34.4167 27.25C35.9717 25.1933 34.2984 22.2783 34.0834 21.9166C33.4127 20.8166 32.425 19.9451 31.25 19.4166C31.8362 17.0205 31.6015 14.4969 30.5834 12.25C29.7274 10.4023 28.3705 8.83177 26.6667 7.71662C26.8234 6.98604 26.8234 6.23055 26.6667 5.49996C26.65 5.42829 26.62 5.29329 26.5667 5.11663C30.3334 5.39829 32.655 5.75996 32.6667 5.66663C32.6784 5.57329 30.0984 4.99996 26.3684 4.56663C26.0267 3.74663 25.3334 2.61996 24 1.99996C22.4267 1.27163 20.9484 1.70329 20.5 1.83329C18.8584 2.31163 17.9417 3.43996 17.5 3.99996V4.00829C15.3117 3.99996 13.4484 4.07329 12 4.16663C11.9048 3.94123 11.7254 3.76186 11.5 3.66663C10.9884 3.48329 10.2967 3.90663 10.1667 4.49996C10.128 4.68122 10.1384 4.86955 10.197 5.0454C10.2557 5.22125 10.3603 5.3782 10.5 5.49996C10.69 5.64973 10.9248 5.73119 11.1667 5.73119C11.4086 5.73119 11.6434 5.64973 11.8334 5.49996C11.9913 5.36972 12.1072 5.19579 12.1667 4.99996L12.6384 4.97329C12.5848 5.25858 12.5944 5.55215 12.6667 5.83329C12.7584 6.17829 12.905 6.33329 13.1017 6.61496C13.2517 6.11496 13.38 5.89829 13.3334 5.49996C13.3107 5.30665 13.2542 5.11881 13.1667 4.94496C14.2367 4.88996 15.5 4.84329 16.945 4.82163C16.649 5.33807 16.4189 5.88959 16.26 6.46329C15.3168 6.66514 14.4086 7.0055 13.565 7.47329C13.4784 7.27496 13.385 7.09829 13.3334 6.99996C13.2642 6.86698 13.1868 6.7384 13.1017 6.61496C13.0684 6.72662 13.0334 6.85329 13 6.99996C12.9172 7.31009 12.8614 7.62684 12.8334 7.94663C12.6367 8.08996 12.4434 8.24496 12.25 8.41663C9.78004 10.6116 9.39171 13.6466 9.25004 14.75C9.03226 16.488 9.20304 18.2526 9.75004 19.9166C9.48171 20.1 6.99504 21.8583 7.08338 24.5833C7.09671 24.9766 7.16504 27.11 8.75004 27.9166C9.62671 28.3616 10.535 28.1833 10.9167 28.0833C11.3406 28.7274 11.5718 29.479 11.5834 30.25C11.5834 30.4833 11.5934 32.1216 10.5834 32.75C10.03 33.0933 9.68837 32.8116 8.75004 32.9166C8.63838 32.9283 6.36838 33.2166 5.33338 35C4.57838 36.3016 4.88171 37.7116 5.00004 38.1666C4.98245 37.5196 5.1564 36.8818 5.50004 36.3333C5.63004 36.1333 6.23171 35.265 8.00004 34.8333C9.79671 34.395 10.8617 35.1466 12.3334 35C13.4734 34.8866 19.4834 34.2933 21.8334 30C22.1215 29.4731 22.3453 28.9135 22.5 28.3333C22.2884 28.5533 19.525 31.3516 17 30.5C15.9534 30.1466 15.3334 29.2933 14.5 28.1666C13.5096 26.8112 12.7753 25.2862 12.3334 23.6666V16.3333C14.6734 15.7935 16.7427 14.4336 18.1667 12.5C19.8768 15.0966 22.4417 17.0129 25.4167 17.9166C25.8267 19.145 25.6584 20.3766 24.9167 21.0833C24.3534 21.6216 23.2767 22.03 22.75 21.5833C22.425 21.3083 22.2367 20.645 22.5834 20.25C22.835 19.9616 23.315 19.8816 23.75 20.0833C23.4724 19.8945 23.1379 19.808 22.8035 19.8384C22.4692 19.8688 22.1558 20.0142 21.9167 20.25C21.4034 20.805 21.6067 21.64 21.9167 22.0833C22.4967 22.9166 23.7417 22.785 24.0834 22.75C25.8784 22.565 26.8317 20.9033 26.9167 20.75C27.2774 20.0867 27.4503 19.3376 27.4167 18.5833C27.7369 18.4507 28.0966 18.4507 28.4167 18.5833C29.2217 18.99 29.1234 20.4866 29.0834 21.0833C29.035 21.81 28.94 23.25 27.75 24.25C27.1793 24.7175 26.4839 25.0073 25.75 25.0833C25.8596 27.1487 25.4589 29.2094 24.5834 31.0833C23.9017 32.5166 23.2934 33.7966 21.9167 34.5833C20.065 35.6433 18.8867 34.6283 16.75 35.75C14.9717 36.6816 13.9934 38.5066 14.0834 38.4166C14.6552 37.8442 15.335 37.391 16.0834 37.0833C16.7934 36.7966 17.73 36.5833 20.5834 36.9166C23.6434 37.2716 24.3267 37.72 26.4167 37.5833C27.5734 37.5083 28.3284 37.45 29.0834 36.9166C30.2767 36.075 30.595 34.6716 30.9167 33.25C31.247 31.7728 31.3035 30.2475 31.0834 28.75C31.465 28.7416 33.35 28.6666 34.4167 27.25ZM20.0117 5.88329C20.2432 5.64337 20.5233 5.45582 20.8334 5.33329C21.3689 5.1223 21.9645 5.1223 22.5 5.33329C22.7676 5.42889 23 5.60319 23.1667 5.83329C23.2484 5.95411 23.3082 6.08839 23.3434 6.22996C22.2555 5.95343 21.1332 5.83665 20.0117 5.88329Z"/>
</svg>
