<svg width="40" height="40" viewBox="0 0 40 40" fill="none" xmlns="http://www.w3.org/2000/svg">
<rect width="40" height="40" rx="5" fill="white"/>
<path d="M11.5 34C11.9634 35.6884 16.5334 35.795 18.1667 35.8334C22.28 35.93 24.8017 35.99 27 34.3334C30.4784 31.7134 30.58 26.7367 30.6667 22.5C30.74 18.91 30.7884 16.5 29.1667 14.1667C26.5 10.3334 21.0117 9.12004 16.8334 10.3334C16.5 10.4317 10.5167 12.2467 10.3334 16.1667C10.2684 17.56 11.4567 17.7417 11.8334 19.8334C12.2967 22.4084 10.8034 23.1134 11.3334 25.3334C11.87 27.5817 13.6034 27.7034 13.6667 29.5C13.745 31.7234 11.1317 32.6667 11.5 34Z" fill="#FFE7D7"/>
<path d="M25.3334 10.6666C25.155 8.48327 21.5434 7.23327 21.4717 5.9166C20.9861 5.87697 20.4986 5.86584 20.0117 5.88327C20.2432 5.64334 20.5233 5.4558 20.8334 5.33327C21.1691 5.20588 21.5287 5.1541 21.8867 5.1816C22.5767 4.7116 23.8834 4.6666 24 3.99994C24.15 3.1516 22.1417 2.35994 21.1017 1.68494C20.835 1.7366 20.625 1.7966 20.5 1.83327C18.8584 2.3116 17.9417 3.43994 17.5 3.99994V4.00827C15.3117 3.99994 13.4484 4.07327 12 4.1666C11.9048 3.94121 11.7254 3.76184 11.5 3.6666C10.9884 3.48327 10.2967 3.9066 10.1667 4.49994C10.128 4.6812 10.1384 4.86953 10.197 5.04538C10.2557 5.22123 10.3603 5.37818 10.5 5.49994C10.69 5.64971 10.9248 5.73116 11.1667 5.73116C11.4086 5.73116 11.6434 5.64971 11.8334 5.49994C11.9913 5.3697 12.1072 5.19577 12.1667 4.99994L12.6384 4.97327C12.5848 5.25856 12.5944 5.55213 12.6667 5.83327C12.7584 6.17827 12.905 6.33327 13.1017 6.61494C13.2517 6.11494 13.38 5.89827 13.3334 5.49994C13.3107 5.30662 13.2542 5.11879 13.1667 4.94494C14.2367 4.88994 15.5 4.84327 16.945 4.8216C16.649 5.33805 16.4189 5.88957 16.26 6.46327C15.3168 6.66512 14.4086 7.00548 13.565 7.47327C13.4784 7.27494 13.385 7.09827 13.3334 6.99994C13.2642 6.86695 13.1868 6.73838 13.1017 6.61494C13.0684 6.7266 13.0334 6.85327 13 6.99994C12.9172 7.31007 12.8614 7.62682 12.8334 7.9466C12.6367 8.08994 12.4434 8.24494 12.25 8.4166C9.78004 10.6116 9.39171 13.6466 9.25004 14.7499C9.03226 16.4879 9.20304 18.2526 9.75004 19.9166C9.48171 20.0999 6.99504 21.8583 7.08338 24.5833C7.09671 24.9766 7.16504 27.1099 8.75004 27.9166C9.62671 28.3616 10.535 28.1833 10.9167 28.0833C11.3406 28.7273 11.5718 29.479 11.5834 30.2499C11.5834 30.4833 11.5934 32.1216 10.5834 32.7499C10.03 33.0933 9.68838 32.8116 8.75004 32.9166C8.63838 32.9283 6.36838 33.2166 5.33338 34.9999C4.57838 36.3016 4.88171 37.7116 5.00004 38.1666C4.98245 37.5196 5.1564 36.8818 5.50004 36.3333C5.63004 36.1333 6.23171 35.2649 8.00004 34.8333C9.79671 34.3949 10.8617 35.1466 12.3334 34.9999C13.4734 34.8866 19.4834 34.2933 21.8334 29.9999C22.1215 29.4731 22.3453 28.9135 22.5 28.3333C22.2884 28.5533 19.525 31.3516 17 30.4999C15.9534 30.1466 15.3334 29.2933 14.5 28.1666C13.5096 26.8112 12.7753 25.2861 12.3334 23.6666V16.3333C14.6734 15.7935 16.7427 14.4336 18.1667 12.4999C18.8871 13.5924 19.7643 14.5729 20.77 15.4099C22.5434 13.7183 25.5 12.6983 25.3334 10.6666Z" fill="#826C67"/>
<path d="M21.7134 21.6884C21.7645 21.8279 21.8328 21.9606 21.9167 22.0834C22.1079 22.3476 22.379 22.5434 22.69 22.6417C22.3667 22.315 22.035 22 21.7134 21.6884Z" fill="#684D49"/>
<path d="M24.0833 22.75C25.8783 22.565 26.8317 20.9033 26.9167 20.75C27.2774 20.0867 27.4503 19.3376 27.4167 18.5833C27.7368 18.4507 28.0965 18.4507 28.4167 18.5833C29.2217 18.99 29.1233 20.4866 29.0833 21.0833C29.035 21.81 28.94 23.25 27.75 24.25C27.1793 24.7176 26.4839 25.0073 25.75 25.0833C25.8595 27.1488 25.4589 29.2094 24.5833 31.0833C23.9017 32.5166 23.2933 33.7966 21.9167 34.5833C20.065 35.6433 18.8867 34.6283 16.75 35.75C14.9717 36.6816 13.9933 38.5066 14.0833 38.4166C14.6552 37.8442 15.335 37.391 16.0833 37.0833C16.7933 36.7966 17.73 36.5833 20.5833 36.9166C23.6433 37.2716 24.3267 37.72 26.4167 37.5833C27.5733 37.5083 28.3283 37.45 29.0833 36.9166C30.2767 36.075 30.595 34.6716 30.9167 33.25C31.247 31.7728 31.3035 30.2475 31.0833 28.75C31.465 28.7416 33.35 28.6616 34.4167 27.25C35.9717 25.1933 34.2983 22.2783 34.0833 21.9166C33.4127 20.8166 32.425 19.9451 31.25 19.4166C31.8362 17.0205 31.6014 14.4969 30.5833 12.25C29.7274 10.4024 28.3704 8.83179 26.6667 7.71664C26.8233 6.98606 26.8233 6.23056 26.6667 5.49998C26.65 5.42831 26.62 5.29331 26.5667 5.11664C30.3333 5.39831 32.655 5.75998 32.6667 5.66664C32.6783 5.57331 30.0983 4.99998 26.3683 4.56664C26.0267 3.74664 25.3333 2.61998 24 1.99998C23.0911 1.59265 22.0769 1.48242 21.1017 1.68498C22.1417 2.35998 24.15 3.15164 24 3.99998C23.8833 4.66664 22.5767 4.71164 21.8867 5.18164C22.0979 5.19902 22.305 5.25022 22.5 5.33331C22.7676 5.42891 23 5.60321 23.1667 5.83331C23.2484 5.95413 23.3082 6.0884 23.3433 6.22998C22.7296 6.07181 22.1034 5.96698 21.4717 5.91664C21.5433 7.23331 25.155 8.48331 25.3333 10.6666C25.5 12.6983 22.5433 13.7183 20.77 15.41C20.9733 15.5766 21.1883 15.7433 21.4167 15.91C22.6278 16.7973 23.9801 17.4735 25.4167 17.91C25.8267 19.1383 25.6583 20.37 24.9167 21.0766C24.3533 21.615 23.2767 22.0233 22.75 21.5766C22.425 21.3016 22.2367 20.6383 22.5833 20.2433C22.835 19.955 23.315 19.875 23.75 20.0766C23.4724 19.8879 23.1378 19.8013 22.8035 19.8317C22.4692 19.8621 22.1557 20.0076 21.9167 20.2433C21.5317 20.66 21.55 21.2333 21.7133 21.6816C22.035 21.9933 22.3667 22.3083 22.69 22.635C23.1411 22.7714 23.616 22.8106 24.0833 22.75Z" fill="#684D49"/>
</svg>
