<svg width="40" height="40" viewBox="0 0 40 40" fill="none" xmlns="http://www.w3.org/2000/svg">
<rect width="40" height="40" rx="5" fill="white"/>
<path d="M5.91671 18.9167H5.41671V23.9167L15.25 22.75V21.4167C15.25 21.4167 13.9167 21.5834 13.9167 18.5834C13.9167 16.4167 14.75 16.5834 14.75 16.5834H18.5834C18.5834 16.5834 18.5834 13.0834 17.75 11.4167C17.0834 10.0967 15.5934 8.88169 15 8.43336V6.16669H20.8334V16.4284C20.8334 16.4284 22.3334 16.1667 22.8334 17.5H27.8884C27.8884 17.5 27.5284 13.6667 25.8334 11.1667C24.6667 9.16669 25.5 4.50003 28.1667 4.50003H30.9684V2.66669H27.445L26.6384 1.86169H24.1384L23.4134 2.58503H21.3334L20.8067 3.83336H13.3334C12.9355 3.83336 12.554 3.9914 12.2727 4.2727C11.9914 4.55401 11.8334 4.93554 11.8334 5.33336V7.71003C11.8343 8.17032 12.0135 8.61236 12.3334 8.94336L12.35 8.96003L12.38 8.99003L14.9417 11.5584C14.9417 11.5584 16 13.8334 16 16.1667H10.535C10.535 15.9015 10.4297 15.6471 10.2421 15.4596C10.0546 15.2721 9.80026 15.1667 9.53504 15.1667H4.83337C4.56816 15.1667 4.3138 15.2721 4.12627 15.4596C3.93873 15.6471 3.83337 15.9015 3.83337 16.1667V17.1267C4.01483 17.4993 4.30019 17.8115 4.65505 18.0256C5.00992 18.2397 5.41914 18.3466 5.83337 18.3334C7.33337 18.3334 7.16671 17 7.16671 17H6.08337V16.5834H7.75004C7.75004 16.5834 8.25004 18.9167 5.91671 18.9167Z" fill="#66504D"/>
<path d="M10 33.3333V28.57C12.7817 29.5383 16.3333 30.6667 16.3333 30.6667L15.2433 29.4167L15.3333 24L5.42334 25.0833C5.42334 25.0833 5.74167 26.3333 6.50001 27.0683V33.3333H7.20501V34.1667H6.66667V36.3333H10.1667V34.1667H9.62834V33.3333H10Z" fill="#66504D"/>
<path d="M31.5833 13.7501C31.1323 12.7906 30.7697 11.7921 30.5 10.7667V8.50008H33C33.3094 8.50008 33.6062 8.37717 33.825 8.15837C34.0438 7.93958 34.1667 7.64283 34.1667 7.33341C34.1667 7.024 34.0438 6.72725 33.825 6.50846C33.6062 6.28966 33.3094 6.16675 33 6.16675H28.8333C28.4355 6.16675 28.054 6.32478 27.7727 6.60609C27.4914 6.88739 27.3333 7.26892 27.3333 7.66675V10.0434C27.3333 10.5217 28 12.3334 28 12.3334L28.775 13.8917C28.775 13.8917 30.5 18.5001 30 18.5001H21.7017C21.7017 18.2349 21.5963 17.9805 21.4088 17.793C21.2212 17.6054 20.9669 17.5001 20.7017 17.5001H16C15.7348 17.5001 15.4804 17.6054 15.2929 17.793C15.1054 17.9805 15 18.2349 15 18.5001V19.4601C15.1815 19.8327 15.4668 20.1449 15.8217 20.359C16.1765 20.5731 16.5858 20.68 17 20.6667C18.5 20.6667 18.3333 19.3334 18.3333 19.3334H17.25V18.9167H18.9167C18.9167 18.9167 19.4167 21.2501 17.0833 21.2501H16.5833V29.2967L17.6667 30.3801V35.0001H18.3333V36.0001H17.6667V38.1667H22V36.0001H21.3333V35.0001H22V31.3334H30.1667V35.0001H30.8333V36.0001H30.1667V38.1667H34.5V36.0001H33.8333V35.0001H34.5V21.0001L33.42 18.9167C33.42 18.9167 32.4167 15.4167 31.5833 13.7501ZM30.1667 27.1667H26.3333V21.6667H26.8333V25.8334H27.8333V21.6667H30.1667V27.1667Z" fill="#826C67"/>
</svg>
