<svg width="40" height="40" viewBox="0 0 40 40" fill="none" xmlns="http://www.w3.org/2000/svg">
<path d="M3.47501 15.2333H4.88168V28.5967C4.46483 28.5967 4.06498 28.7619 3.76975 29.0562C3.47452 29.3505 3.308 29.7498 3.30668 30.1667V30.8783H4.88168V36.3333H8.92501V33.5117C8.98335 33.5117 9.04168 33.52 9.10168 33.52C9.80097 33.52 10.4716 33.2422 10.9661 32.7477C11.4606 32.2533 11.7383 31.5826 11.7383 30.8833H28.175C28.175 31.5826 28.4528 32.2533 28.9473 32.7477C29.4417 33.2422 30.1124 33.52 30.8117 33.52C30.8717 33.52 30.9283 33.52 30.9883 33.5117V36.3333H35.0317V30.8833H36.605V30.1667C36.6052 29.9599 36.5647 29.7551 36.4857 29.5641C36.4068 29.373 36.2909 29.1993 36.1448 29.0531C35.9987 28.9068 35.8251 28.7908 35.6342 28.7116C35.4432 28.6324 35.2384 28.5917 35.0317 28.5917V15.2333H36.4383V14.185L38.8167 11.365H36.4383C36.4383 11.365 34.1517 11.0983 34.1517 8.76999V6.45833C34.1517 5.89916 33.9296 5.3629 33.5342 4.96751C33.1388 4.57212 32.6025 4.34999 32.0433 4.34999V6.96999H7.87668V4.34999C7.59911 4.34889 7.32405 4.40262 7.0673 4.50808C6.81054 4.61354 6.57713 4.76867 6.38047 4.96455C6.18381 5.16044 6.02777 5.39323 5.92129 5.64957C5.81482 5.90591 5.76001 6.18075 5.76001 6.45833V8.76999C5.76001 11.1033 3.47501 11.365 3.47501 11.365H1.09668L3.47501 14.185V15.2333ZM30.9883 32.1C30.8137 32.1259 30.6355 32.1138 30.4659 32.0645C30.2964 32.0152 30.1394 31.9299 30.0059 31.8144C29.8723 31.6989 29.7653 31.5559 29.6921 31.3952C29.6189 31.2345 29.5812 31.0599 29.5817 30.8833H30.9883V32.1ZM8.92501 15.2333H30.9883V26.8333H8.92501V15.2333ZM8.92501 30.8833H10.3333C10.3338 31.0599 10.2962 31.2345 10.2229 31.3952C10.1497 31.5559 10.0427 31.6989 9.90914 31.8144C9.77559 31.9299 9.61867 32.0152 9.44911 32.0645C9.27955 32.1138 9.10135 32.1259 8.92668 32.1L8.92501 30.8833Z" fill="#A3A5A7"/>
<path d="M17.6234 18.6683H14.3967V21.3H16.6801V25.3333H19.5584V22.1083H17.6234V18.6683Z" fill="#A3A5A7"/>
<path d="M24.9333 20.12V20.0116V15.4417L19.5583 18.705V18.6683H18.2683V21.4633H19.5583V21.425L24.9333 24.6883V20.12Z" fill="#A3A5A7"/>
</svg>
