<svg width="40" height="40" viewBox="0 0 40 40" fill="none" xmlns="http://www.w3.org/2000/svg">
<rect width="40" height="40" rx="5" fill="white"/>
<path d="M17.6234 18.6683H14.3967V21.3H16.6801V25.3333H19.5584V22.1083H17.6234V18.6683Z" fill="#EA8F34"/>
<path d="M24.9333 20.12V20.0116V15.4417L19.5583 18.705V18.6683H18.2683V21.4633H19.5583V21.425L24.9333 24.6883V20.12Z" fill="#FFC44D"/>
<path d="M36.4383 15.2333V14.185L36.455 14.1667H3.45497L3.47164 14.185V15.2333H4.87831V28.5967C4.46203 28.5975 4.06304 28.7632 3.76853 29.0574C3.47402 29.3516 3.30796 29.7504 3.30664 30.1667V30.8783H4.88164V36.3333H8.92497V33.5117C8.98331 33.5117 9.04164 33.52 9.10164 33.52C9.80093 33.52 10.4716 33.2422 10.966 32.7477C11.4605 32.2533 11.7383 31.5826 11.7383 30.8833H28.175C28.175 31.5826 28.4528 32.2533 28.9472 32.7477C29.4417 33.2422 30.1124 33.52 30.8116 33.52C30.8716 33.52 30.9283 33.52 30.9883 33.5117V36.3333H35.0316V30.8833H36.605V30.1667C36.6052 29.9599 36.5647 29.7551 36.4857 29.5641C36.4067 29.373 36.2909 29.1993 36.1447 29.0531C35.9986 28.9068 35.8251 28.7907 35.6341 28.7116C35.4431 28.6324 35.2384 28.5917 35.0316 28.5917V15.2333H36.4383ZM9.10497 32.1133C9.04584 32.1131 8.9868 32.1086 8.92831 32.1V30.8833H10.3333C10.3329 31.2097 10.2029 31.5225 9.97197 31.7532C9.74104 31.9838 9.42801 32.1133 9.10164 32.1133H9.10497ZM30.9916 32.1C30.817 32.1259 30.6388 32.1138 30.4692 32.0645C30.2997 32.0152 30.1427 31.9299 30.0092 31.8144C29.8756 31.6989 29.7686 31.5559 29.6954 31.3952C29.6222 31.2345 29.5845 31.0599 29.585 30.8833H30.9916V32.1ZM30.9916 26.8383H8.92497V15.2333H30.9883L30.9916 26.8383Z" fill="#684D49"/>
<path d="M38.8167 11.365H36.4383C36.4383 11.365 34.1517 11.0983 34.1517 8.76999V6.45833C34.1517 5.89916 33.9296 5.3629 33.5342 4.96751C33.1388 4.57212 32.6025 4.34999 32.0433 4.34999V6.96999H7.87668V4.34999C7.59911 4.34889 7.32405 4.40262 7.0673 4.50808C6.81054 4.61354 6.57713 4.76867 6.38047 4.96455C6.18381 5.16044 6.02777 5.39323 5.92129 5.64957C5.81482 5.90591 5.76001 6.18075 5.76001 6.45833V8.76999C5.76001 11.1033 3.47501 11.365 3.47501 11.365H1.09668L3.45835 14.1667H36.4583L38.8167 11.365Z" fill="#5E8E7D"/>
<path d="M9.00004 15.1667H4.83337V36.3333H9.00004V15.1667Z" fill="#826C67"/>
<path d="M35.1667 15.1667H31V36.3333H35.1667V15.1667Z" fill="#826C67"/>
</svg>
