<svg width="40" height="40" viewBox="0 0 40 40" fill="none" xmlns="http://www.w3.org/2000/svg">
<rect width="40" height="40" rx="5" fill="white"/>
<path d="M7.15002 20.57L8.83502 22.14L12.8334 20.5L13.8334 19.6667L15.19 17.5384L19.3334 19.8334L19.1667 21L15 33.3334L20.8334 38.1667H30L26 24.5L27.1667 9.16671L22.7134 5.61004L20.5 4.92004L19.3334 5.50004L17.1284 5.61671L15.445 6.91671L17.1667 10.3334L15.9167 12.54L10.8334 15L8.62169 15.38L7.50002 16.5L7.15002 20.57Z" fill="#E54E60"/>
<path d="M5.83339 19C5.97006 19.6667 6.47839 20.0567 6.83339 20.3334C7.18839 20.61 7.45006 20.8134 7.83339 20.8334C8.62839 20.875 9.19672 20.0334 9.33339 19.8334C9.72006 19.2667 10.0551 18.29 9.66672 17.5C9.50006 17.1517 9.16672 16.8784 8.50006 16.3334C8.13839 16.0367 8.05006 16.01 8.00006 16C7.30839 15.8484 6.52006 16.815 6.16672 17.5C5.96339 17.8934 5.70672 18.3917 5.83339 19Z" fill="#826C67"/>
<path d="M15.0001 7.00004C14.9201 7.0467 14.9168 7.07337 14.5001 7.50004C14.3601 7.64337 14.1151 7.89337 14.0001 8.00004C13.3518 8.60004 12.8468 8.30504 12.3334 8.83337C12.1418 9.0317 12.0384 9.29837 11.8334 9.83337C11.694 10.2136 11.5826 10.6035 11.5001 11C11.1668 12.1967 10.1101 12.1667 9.16676 13.6667C8.87842 14.125 8.38509 14.9084 8.66676 15.5C8.85009 15.8834 9.15176 15.7484 9.83342 16.3334C10.5151 16.9184 10.5901 17.3534 11.1668 17.5C11.3861 17.5509 11.6141 17.5509 11.8334 17.5C12.7234 17.3334 13.1484 16.6517 13.8334 16C14.6351 15.2384 14.6918 15.5684 16.1668 14.5C17.4051 13.6034 18.0234 13.155 18.3334 12.5C19.1151 10.8434 18.1134 9.0317 18.0001 8.83337C17.6361 8.21367 17.1198 7.69732 16.5001 7.33337C16.1784 7.1467 15.4618 6.7317 15.0001 7.00004ZM15.2501 11.5834C14.7651 11.96 14.7501 12.0034 14.5834 12.0834C14.2164 12.2422 13.8136 12.2998 13.4168 12.25C13.1328 12.2317 12.8526 12.1757 12.5834 12.0834C12.6601 12.0034 12.7734 11.885 12.9168 11.75C13.3201 11.3667 13.5218 11.175 13.7501 11.0834C14.0084 10.98 14.1334 11.0467 14.7501 11.0834C15.1386 11.1063 15.5282 11.1063 15.9168 11.0834C15.7618 11.195 15.5284 11.3667 15.2501 11.5834Z" fill="#826C67"/>
<path d="M19.8334 1.83337C19.362 1.91673 18.91 2.08622 18.5001 2.33337C17.8549 2.73876 17.3355 3.3159 17.0001 4.00004C16.7251 4.50004 16.5451 4.83337 16.6668 5.16671C16.8184 5.57671 17.3334 5.69337 17.6668 5.83337C18.2851 6.09004 19.0634 6.73837 19.6668 8.50004C20.3268 6.45892 21.2217 4.50136 22.3334 2.66671C21.9942 2.61198 21.6475 2.62462 21.3131 2.70389C20.9787 2.78315 20.6633 2.92751 20.3847 3.1287C20.1061 3.3299 19.8699 3.58399 19.6895 3.87648C19.5091 4.16897 19.3881 4.49412 19.3334 4.83337C19.2029 3.80599 19.3768 2.7629 19.8334 1.83337Z" fill="#826C67"/>
<path d="M8.5001 21.8333C8.47676 22.11 9.65343 22.5467 10.8334 22.5C11.3334 22.48 12.0984 22.45 12.3334 22C12.5684 21.55 12.1668 21 12.5001 20.6667C12.5917 20.5785 12.708 20.5204 12.8334 20.5C12.7423 20.2301 12.567 19.9964 12.3334 19.8333C12.1089 19.6918 11.8489 19.6167 11.5834 19.6167C11.318 19.6167 11.058 19.6918 10.8334 19.8333C10.3118 20.1667 10.5268 20.6533 10.0001 21.1667C9.36176 21.79 8.5201 21.6 8.5001 21.8333Z" fill="#684D49"/>
<path d="M19 14.3334C17.2467 14.8751 15.5967 16.2201 14.5 17.0001C13.8076 17.4912 13.0839 17.9366 12.3334 18.3334C12.4167 18.517 12.5293 18.6858 12.6667 18.8334C12.8 18.9767 12.8817 19.0167 13.3334 19.3334C13.785 19.6501 13.7867 19.6667 13.8334 19.6667C14.31 19.6301 14.37 18.4884 15 18.3334C15.1417 18.2984 15.2617 18.3334 15.6667 18.5001C16.8634 19.0167 17.215 19.3951 18 19.6667C18.6267 19.8834 19.01 20.0184 19.3334 19.8334C19.7534 19.5934 19.6934 19.0584 19.8334 17.0001C19.95 15.2767 20.0667 14.5701 19.6667 14.3334C19.4484 14.2034 19.1834 14.2767 19 14.3334Z" fill="#684D49"/>
<path d="M24 5.5C22.6917 5.64167 22.725 5.57 22.5 5.66667C21.5 6.09833 21.1267 7.39 21 7.83333C20.8333 8.38833 20.925 8.5 20.6667 10.1667C20.6017 10.59 20.5417 10.9383 20.5 11.1667C21.8683 10.4567 22.9333 9.805 23.6667 9.33333C24.765 8.625 25.35 8.16667 26.3333 8C27.0586 7.88485 27.8008 7.94194 28.5 8.16667C27.905 7.57768 27.232 7.07298 26.5 6.66667C26.2733 6.54167 26.05 6.43 25.8333 6.33333C26.0824 5.9352 26.199 5.46848 26.1667 5C26.1382 4.64458 26.0238 4.3014 25.8333 4C26.0383 4.58167 25.915 4.87167 25.8333 5C25.6783 5.24167 25.3867 5.35 24 5.5Z" fill="#684D49"/>
<path d="M33.5 22.1667C33.8478 22.0499 34.143 21.8137 34.3334 21.5C33.5016 21.2648 32.7515 20.8032 32.1667 20.1667C31.5317 19.4584 31.3117 18.73 31 17.6667C30.6999 16.6366 30.5319 15.5725 30.5 14.5C30.6195 14.652 30.7711 14.7756 30.944 14.8621C31.1169 14.9485 31.3068 14.9956 31.5 15C31.8091 14.9939 32.1053 14.8754 32.3334 14.6667C31.945 14.595 31.4234 14.4317 31.1667 14C30.8334 13.445 31.2167 12.91 31.1667 11.8334C31.1467 11.4034 31.11 10.625 30.6667 10C29.8734 8.88004 28.085 8.68338 26.8334 9.00004C26.3034 9.13504 26.4617 9.21004 25.1667 9.83338C23.18 10.7884 22.63 10.6934 21.6667 11.5C21.135 11.945 20.6667 12.3334 20.5 13C20.255 13.9784 20.925 14.5434 21.1667 15.8334C21.3667 16.9017 21.0784 17.42 20.8334 18.8334C20.4217 21.21 20.64 23.1334 20.8334 24.6667C21.0267 26.2 21.2067 27.7317 22 29.5C23.2167 32.2117 25.095 33.935 27.1667 35.8334C28.0688 36.6612 29.0146 37.4401 30 38.1667C30.1507 37.5649 30.1507 36.9352 30 36.3334C29.75 35.3917 29.1934 34.96 29.1667 34C29.1595 33.6592 29.216 33.3201 29.3334 33C29.3775 33.3521 29.4907 33.692 29.6667 34C30.2034 34.93 31.1567 35.2267 31.5 35.3334C32.2064 35.5477 32.9604 35.5477 33.6667 35.3334C33.35 35.3484 32.1167 35.3667 31.3334 34.5C30.305 33.36 30.865 31.59 31 31.1667C31.4084 29.8784 32.0084 29.975 32.5 28.6667C32.925 27.5367 32.8234 26.54 32.6667 25C32.5561 23.924 32.3327 22.8626 32 21.8334C32.0434 21.8717 32.7084 22.4184 33.5 22.1667Z" fill="#684D49"/>
<path d="M11.3334 35.6667C12.7734 36.6583 14.1434 36.9767 16.5001 37.5C17.9285 37.8163 19.376 38.039 20.8334 38.1667C19.5444 36.9135 18.573 35.3707 18.0001 33.6667C17.2267 31.3033 17.5001 29.275 17.8334 26.6667C18.0878 24.738 18.5344 22.8397 19.1667 21C16.802 22.4572 14.6199 24.1917 12.6667 26.1667C10.1667 28.7083 8.16673 30.7867 8.66673 32.8333C8.98006 34.095 10.1351 34.8417 11.3334 35.6667Z" fill="#826C67"/>
</svg>
