<svg width="9" height="15" viewBox="0 0 9 15" fill="none" xmlns="http://www.w3.org/2000/svg">
<path fill-rule="evenodd" clip-rule="evenodd" d="M0.455161 8.52584C0.163707 8.23403 0 7.83845 0 7.42602C0 7.01358 0.163707 6.61801 0.455161 6.32619L6.32366 0.455625C6.61562 0.163796 7.01156 -9.72478e-05 7.42437 4.3291e-08C7.62877 4.82169e-05 7.83116 0.0403555 8.01998 0.118621C8.2088 0.196886 8.38036 0.311576 8.52486 0.456143C8.66936 0.600711 8.78397 0.772324 8.86215 0.961184C8.94032 1.15004 8.98053 1.35245 8.98049 1.55685C8.98044 1.76125 8.94013 1.96364 8.86187 2.15247C8.7836 2.34129 8.66891 2.51285 8.52434 2.65735L3.75567 7.42602L8.52434 12.1947C8.67306 12.3382 8.7917 12.5099 8.87336 12.6997C8.95501 12.8896 8.99804 13.0938 8.99993 13.3004C9.00183 13.5071 8.96254 13.712 8.88438 13.9033C8.80622 14.0946 8.69073 14.2685 8.54467 14.4147C8.39861 14.5609 8.2249 14.6765 8.03366 14.7548C7.84243 14.8332 7.63751 14.8727 7.43086 14.871C7.22421 14.8693 7.01996 14.8264 6.83004 14.745C6.64013 14.6635 6.46833 14.545 6.32469 14.3964L0.453086 8.52584H0.455161Z" fill="#FFD159"/>
</svg>
