<svg width="40" height="40" viewBox="0 0 40 40" fill="none" xmlns="http://www.w3.org/2000/svg">
<path d="M3.83337 24.1434C3.83337 26.285 6.73837 28.3334 6.73837 28.3334V30.5H29.5C29.5 29.3334 33.8334 24.3334 36.3334 24.3334C38.8334 24.3334 39.1667 21.6667 39.1667 21.6667H3.83337V24.1434Z" fill="#A3A5A7"/>
<path d="M9 31.8333V33.06H10.1067L11.215 34.1666V36.3333H29.5C29.5 36.3333 24.3333 34.3333 22.3333 33.1666C22.3333 32.25 22.6667 31.8333 22.6667 31.8333H9Z" fill="#A3A5A7"/>
<path d="M10.4467 7.69501L8.98334 7.03168L8.23834 8.79501L8.18167 8.92834L8.13834 9.03334L8.08167 9.16501L7.33667 10.9283L8.83167 11.5167L10.4467 7.69501Z" fill="#A3A5A7"/>
<path d="M33.5367 19.7666L33.58 19.6616L34.1133 18.4L21.2317 12.5733L19.8467 15.8516L33.0033 21.0283L33.5367 19.7666Z" fill="#A3A5A7"/>
<path d="M8.94671 18.9033L14.355 21.1883C14.514 21.2555 14.6847 21.2907 14.8573 21.2919C15.0299 21.2931 15.2011 21.2602 15.361 21.1952C15.5209 21.1302 15.6664 21.0343 15.7892 20.913C15.912 20.7917 16.0097 20.6474 16.0767 20.4883L17.8917 16.1967L18.295 15.24L19.7134 11.885L19.9034 11.4383L21.9317 6.63833C22.067 6.31694 22.0693 5.95499 21.9381 5.63191C21.8069 5.30882 21.5528 5.051 21.2317 4.915L15.8334 2.63C15.6736 2.56157 15.5019 2.5255 15.3281 2.52386C15.1543 2.52223 14.9819 2.55506 14.8208 2.62046C14.6598 2.68587 14.5133 2.78254 14.3899 2.9049C14.2665 3.02726 14.1685 3.17288 14.1017 3.33333L12.2684 7.66666L11.9667 8.38166L10.3834 12.1267L10.2567 12.4283L8.25671 17.18C8.12033 17.5001 8.11638 17.8612 8.24571 18.1842C8.37503 18.5072 8.62711 18.7658 8.94671 18.9033Z" fill="#A3A5A7"/>
</svg>
