<svg width="12" height="11" viewBox="0 0 12 11" xmlns="http://www.w3.org/2000/svg">
    <path
        d="M10.6667 8.70829C10.8914 8.7084 11.1074 8.79496 11.2701 8.95003C11.4327 9.1051 11.5294 9.31679 11.5402 9.54124C11.551 9.76569 11.4751 9.98569 11.3281 10.1557C11.1811 10.3256 10.9743 10.4325 10.7507 10.4542L10.6667 10.4583H1.33334C1.10863 10.4582 0.89258 10.3716 0.729951 10.2166C0.567323 10.0615 0.470586 9.84979 0.459788 9.62534C0.448989 9.40089 0.524955 9.18089 0.671946 9.01093C0.818936 8.84096 1.02568 8.73406 1.24934 8.71238L1.33334 8.70829H10.6667ZM10.6667 4.62496C10.8987 4.62496 11.1213 4.71715 11.2854 4.88124C11.4495 5.04534 11.5417 5.26789 11.5417 5.49996C11.5417 5.73202 11.4495 5.95458 11.2854 6.11868C11.1213 6.28277 10.8987 6.37496 10.6667 6.37496H1.33334C1.10128 6.37496 0.878719 6.28277 0.714625 6.11868C0.550531 5.95458 0.458344 5.73202 0.458344 5.49996C0.458344 5.26789 0.550531 5.04534 0.714625 4.88124C0.878719 4.71715 1.10128 4.62496 1.33334 4.62496H10.6667ZM10.6667 0.541626C10.8987 0.541626 11.1213 0.633813 11.2854 0.797908C11.4495 0.962002 11.5417 1.18456 11.5417 1.41663C11.5417 1.64869 11.4495 1.87125 11.2854 2.03534C11.1213 2.19944 10.8987 2.29163 10.6667 2.29163H1.33334C1.10128 2.29163 0.878719 2.19944 0.714625 2.03534C0.550531 1.87125 0.458344 1.64869 0.458344 1.41663C0.458344 1.18456 0.550531 0.962002 0.714625 0.797908C0.878719 0.633813 1.10128 0.541626 1.33334 0.541626H10.6667Z" />
</svg>