<svg width="20" height="20" viewBox="0 0 20 20" fill="none" xmlns="http://www.w3.org/2000/svg">
<path d="M9.89801 3.38235C10.0848 3.35635 10.2832 3.40515 10.422 3.53675C10.5672 3.66115 10.6304 3.85595 10.6288 4.04315C10.628 4.31115 10.6368 4.57955 10.624 4.84755C10.6156 5.13795 10.3752 5.40075 10.086 5.43235C9.74961 5.49115 9.39921 5.21915 9.38041 4.87715C9.37881 4.57235 9.38081 4.26715 9.37921 3.96235C9.38121 3.67755 9.61801 3.42195 9.89801 3.38235Z" fill="white"/>
<path d="M4.9284 7.5624C5.1728 7.3716 5.5596 7.4028 5.7664 7.6356C5.9832 7.8632 5.9888 8.2576 5.7688 8.4852C5.326 8.9516 4.8788 9.4136 4.436 9.88C5.504 9.8796 6.5716 9.8808 7.6392 9.8792C7.8276 9.8688 8.0144 9.962 8.13 10.1088C8.3348 10.3568 8.302 10.766 8.0524 10.972C7.9208 11.0932 7.7376 11.1328 7.5632 11.13C6.5244 11.13 5.4856 11.1308 4.4468 11.1292C4.8836 11.5932 5.328 12.05 5.7668 12.5124C5.9744 12.7256 5.9864 13.0912 5.8012 13.3224C5.6052 13.5904 5.1836 13.642 4.9256 13.4356C4.8392 13.3612 4.762 13.2772 4.6844 13.1944C4.0128 12.4932 3.3416 11.7916 2.67 11.09C2.5824 10.9916 2.4744 10.9072 2.4156 10.786C2.2964 10.56 2.3356 10.262 2.5112 10.076C3.19 9.3664 3.8696 8.6576 4.548 7.9476C4.6768 7.8212 4.7912 7.68 4.9284 7.5624Z" fill="white"/>
<path d="M9.81561 7.46317C10.084 7.38037 10.4008 7.49517 10.54 7.74277C10.6692 7.96637 10.62 8.23477 10.63 8.48117C10.6212 8.73277 10.6712 9.01557 10.514 9.23397C10.3428 9.49357 9.96561 9.57757 9.69721 9.42397C9.50201 9.31997 9.36841 9.10197 9.37921 8.87957C9.38041 8.59957 9.38001 8.31997 9.37961 8.04037C9.37361 7.77837 9.56721 7.53597 9.81561 7.46317Z" fill="white"/>
<path d="M14.2908 7.61714C14.5228 7.37874 14.9512 7.37594 15.1784 7.62274C15.9636 8.43834 16.7444 9.25794 17.528 10.0751C17.6904 10.2471 17.7368 10.5139 17.6492 10.7327C17.5828 10.9043 17.4292 11.0159 17.3124 11.1507C16.652 11.8391 15.9924 12.5287 15.3332 13.2183C15.2272 13.3247 15.1312 13.4507 14.9892 13.5099C14.7336 13.6243 14.4024 13.5479 14.2364 13.3191C14.0536 13.0875 14.0668 12.7239 14.2736 12.5119C14.7124 12.0495 15.1564 11.5923 15.594 11.1291C14.5316 11.1291 13.4688 11.1331 12.4068 11.1271C12.1056 11.1339 11.8208 10.8991 11.7824 10.5987C11.7152 10.2507 11.9992 9.88354 12.3564 9.87994C13.4388 9.88034 14.5216 9.87914 15.6044 9.88034C15.1612 9.41434 14.7144 8.95194 14.2716 8.48594C14.0444 8.25194 14.0584 7.84274 14.2908 7.61714Z" fill="white"/>
<path d="M9.77522 11.5395C10.0444 11.4331 10.3816 11.5399 10.5304 11.7907C10.6696 12.0079 10.6204 12.2775 10.63 12.5211C10.6204 12.7827 10.6744 13.0771 10.51 13.3039C10.3196 13.5819 9.89442 13.6471 9.62842 13.4419C9.47522 13.3343 9.37722 13.1495 9.37962 12.9619C9.38042 12.6675 9.37922 12.3735 9.38002 12.0795C9.38322 11.8399 9.55402 11.6227 9.77522 11.5395Z" fill="white"/>
<path d="M9.82002 15.5876C10.1796 15.4644 10.6004 15.7456 10.6212 16.1256C10.6376 16.4228 10.6308 16.7216 10.6256 17.0192C10.6244 17.3468 10.3276 17.6396 9.99842 17.6232C9.68122 17.636 9.38242 17.36 9.37962 17.0416C9.38002 16.7476 9.38002 16.4536 9.37962 16.16C9.37642 15.8996 9.57202 15.6572 9.82002 15.5876Z" fill="white"/>
</svg>
