<svg width="40" height="40" viewBox="0 0 40 40" fill="none" xmlns="http://www.w3.org/2000/svg">
<path d="M30.6017 11.5183C31.7501 10.5866 31.9351 9.09663 31.9351 9.09663H31.1284C32.2601 8.61163 32.0984 7.31663 32.0984 7.31663H31.2901C32.0984 6.50663 31.7751 5.04996 31.7751 5.04996C31.7751 5.04996 31.4517 5.21663 30.4801 5.37496C30.6467 3.75663 29.0234 1.16663 29.0234 1.16663C29.0234 1.16663 28.5384 4.40329 26.4351 5.37496C25.0517 6.01163 24.0201 7.06829 23.4734 7.71829C20.7778 7.20408 17.9897 7.51798 15.4759 8.61869C12.9621 9.7194 10.8404 11.5553 9.39006 13.885C8.76362 13.8256 8.13228 13.8429 7.51006 13.9366C5.22339 14.305 3.02172 11.8833 3.02172 11.8833C3.02172 11.8833 3.11506 14.9366 4.14839 16.1916C3.25172 16.5966 2.89172 16.6416 2.89172 16.6416C2.89172 16.6416 3.43172 18.0333 4.55839 18.255L3.89172 18.705C3.89172 18.705 4.47672 19.8716 5.68839 19.6466L5.02172 20.0933C5.02172 20.0933 5.95339 21.17 7.35506 21.3516C7.39553 23.3754 7.8877 25.3646 8.7956 27.1738C9.7035 28.983 11.0042 30.5665 12.6026 31.8085C14.201 33.0505 16.0567 33.9197 18.0341 34.3525C20.0115 34.7853 22.0606 34.7707 24.0317 34.31C24.2785 34.0702 24.4672 33.7772 24.5834 33.4533C25.2651 33.4533 25.3734 33.6816 26.7501 33.3683C28.7161 32.4413 30.4311 31.0563 31.7513 29.3295C33.0714 27.6027 33.9581 25.5844 34.3371 23.4441C34.716 21.3037 34.5761 19.1037 33.929 17.0286C33.282 14.9536 32.1467 13.0639 30.6184 11.5183H30.6017ZM7.34839 20.7466C6.83261 20.5866 6.36086 20.3093 5.97006 19.9366C5.97006 19.9366 6.10506 19.8483 6.91172 19.3083C6.10339 19.2633 5.02672 18.8166 5.02672 18.8166L6.10339 18.0966C5.60339 18.2316 4.08172 17.1116 4.08172 17.1116C4.41687 16.9275 4.76121 16.7606 5.11339 16.6116C4.53006 16.0283 4.48506 15.67 4.39339 14.3683C5.09339 15.7183 6.59006 16.6916 7.86839 17.3166C7.54826 18.4328 7.37349 19.5857 7.34839 20.7466ZM24.8984 32.4816C25.5467 31.5116 26.3551 29.8916 26.1934 28.5983C26.0317 27.305 26.1934 25.5233 24.0901 23.4183C24.0901 23.4183 21.3384 24.5516 20.0434 22.7716C18.7484 20.9916 20.1817 18.66 22.2984 17.56C24.4151 16.46 26.5167 17.5933 27.1651 18.7266C27.8134 19.86 27.3317 21.64 26.0317 22.45C27.1651 24.0683 28.1351 25.2016 28.1351 28.6C28.1351 31.9983 26.3551 32.9666 24.8984 32.4816ZM30.1817 11.1133C29.3743 10.3629 28.4789 9.71315 27.5151 9.17829C28.3484 7.93663 29.4734 5.86829 29.2651 3.99829C29.9117 5.13163 30.0734 5.45496 29.9117 6.26496C30.2864 6.19008 30.6647 6.13445 31.0451 6.09829C31.0451 6.09829 30.3984 7.87829 29.9117 8.03996H31.2067C31.2067 8.03996 30.5601 9.00996 29.9117 9.49663H31.0451C31.0451 9.49663 30.8417 10.5316 30.1817 11.1133Z" fill="#A3A5A7"/>
</svg>
