<svg width="40" height="40" viewBox="0 0 40 40" fill="none" xmlns="http://www.w3.org/2000/svg">
<rect width="40" height="40" rx="5" fill="white"/>
<path d="M22.2983 17.5599C20.1817 18.6599 18.7483 20.9916 20.0433 22.7716C21.3383 24.5516 24.09 23.4183 24.09 23.4183C26.1933 25.5233 26.0317 27.3033 26.1933 28.5983C26.355 29.8933 25.5467 31.5116 24.8983 32.4816C26.355 32.9666 28.135 31.9966 28.135 28.5983C28.135 25.1999 27.165 24.0666 26.0317 22.4483C27.3267 21.6383 27.8117 19.8583 27.165 18.7249C26.5183 17.5916 24.4133 16.4599 22.2983 17.5599Z" fill="#9E481D"/>
<path d="M30.71 11.3517C31.8583 10.42 32.0433 8.93 32.0433 8.93H31.2367C32.3683 8.445 32.2067 7.15 32.2067 7.15H31.3983C32.2067 6.34 31.8833 4.88333 31.8833 4.88333C31.8833 4.88333 31.56 5.05 30.5883 5.20833C30.755 3.59 29.1317 1 29.1317 1C29.1317 1 28.6467 4.23667 26.5433 5.20833C25.16 5.845 24.1283 6.90167 23.5817 7.55167C20.8861 7.03745 18.0979 7.35135 15.5842 8.45206C13.0704 9.55277 10.9487 11.3887 9.49833 13.7183C8.8719 13.6589 8.24056 13.6763 7.61833 13.77C5.33167 14.1383 3.13 11.7167 3.13 11.7167C3.13 11.7167 3.22333 14.77 4.25667 16.025C3.36 16.43 3 16.475 3 16.475C3 16.475 3.54 17.8667 4.66667 18.0883L4 18.5383C4 18.5383 4.585 19.705 5.79667 19.48L5.13 19.9267C5.13 19.9267 6.06167 21.0033 7.46333 21.185C7.50381 23.2088 7.99598 25.198 8.90388 27.0072C9.81178 28.8164 11.1125 30.3999 12.7109 31.6419C14.3093 32.8839 16.165 33.753 18.1424 34.1858C20.1198 34.6186 22.1689 34.6041 24.14 34.1433C24.3868 33.9036 24.5755 33.6105 24.6917 33.2867C25.3733 33.2867 25.4817 33.515 26.8583 33.2017C28.8244 32.2747 30.5394 30.8897 31.8596 29.1628C33.1797 27.436 34.0664 25.4178 34.4454 23.2775C34.8243 21.1371 34.6844 18.9371 34.0373 16.862C33.3902 14.7869 32.255 12.8973 30.7267 11.3517H30.71ZM7.45667 20.58C6.94089 20.42 6.46913 20.1427 6.07833 19.77C6.07833 19.77 6.21333 19.6817 7.02 19.1417C6.21167 19.0967 5.135 18.65 5.135 18.65L6.21167 17.93C5.71167 18.065 4.19 16.945 4.19 16.945C4.52515 16.7609 4.86948 16.594 5.22167 16.445C4.63833 15.8617 4.59333 15.5033 4.50167 14.2017C5.20167 15.5517 6.69833 16.525 7.97667 17.15C7.65654 18.2662 7.48176 19.4191 7.45667 20.58ZM25.0067 32.315C25.655 31.345 26.4633 29.725 26.3017 28.4317C26.14 27.1383 26.3017 25.3567 24.1983 23.2517C24.1983 23.2517 21.4467 24.385 20.1517 22.605C18.8567 20.825 20.29 18.4933 22.4067 17.3933C24.5233 16.2933 26.625 17.4267 27.2733 18.56C27.9217 19.6933 27.44 21.4733 26.14 22.2833C27.2733 23.9017 28.2433 25.035 28.2433 28.4333C28.2433 31.8317 26.4633 32.8 25.0067 32.315ZM30.29 10.9467C29.4826 10.1963 28.5872 9.54652 27.6233 9.01167C28.4567 7.77 29.5817 5.70167 29.3733 3.83167C30.02 4.965 30.1817 5.28833 30.02 6.09833C30.3947 6.02345 30.773 5.96782 31.1533 5.93167C31.1533 5.93167 30.5067 7.71167 30.02 7.87333H31.315C31.315 7.87333 30.6683 8.84333 30.02 9.33H31.1533C31.1533 9.33 30.95 10.365 30.29 10.9467Z" fill="#FFC44D"/>
<path d="M9.66675 20.3333C9.67841 21.4683 9.84508 28.1666 14.6667 31.3333C16.9751 32.8483 20.9734 33.9649 22.3334 32.3333C23.4434 30.9999 22.7784 27.8699 21.0001 26.6666C18.9451 25.2766 16.7167 27.3499 14.0001 26.3333C11.7717 25.4999 10.4651 23.0549 9.66675 20.3333Z" fill="white"/>
<path d="M29.6667 11.8333C29.47 11.2116 27.0767 9.05826 23.5817 8.21993C21.915 7.81826 19.2633 7.95326 18.7017 9.1066C18.2417 10.0449 19.175 11.6449 20.47 11.9733C21.97 12.3533 22.99 10.7949 24.83 10.8449C26.3333 10.8866 28.72 10.4866 29.6667 11.8333Z" fill="#EA8F34"/>
</svg>
