<svg width="40" height="40" viewBox="0 0 40 40" fill="none" xmlns="http://www.w3.org/2000/svg">
<rect width="40" height="40" rx="5" fill="white"/>
<path d="M33.0316 8.62836H6.96831C6.96831 8.62836 6.27998 12.295 4.55998 12.295H1.89331L3.54498 13.5H12.98C14.9239 11.8008 17.4181 10.8644 20 10.8644C22.5818 10.8644 25.0761 11.8008 27.02 13.5H36.455L38.11 12.29H35.4433C33.72 12.2917 33.0316 8.62836 33.0316 8.62836Z" fill="#FFC152"/>
<path d="M7.84493 4.59833C7.61242 4.59833 7.38944 4.69069 7.22503 4.8551C7.06062 5.0195 6.96826 5.24249 6.96826 5.47499V7.30833H33.0316V5.47499C33.0316 5.24249 32.9392 5.0195 32.7748 4.8551C32.6104 4.69069 32.3874 4.59833 32.1549 4.59833H31.4583V5.94166H8.54159V4.59833H7.84493Z" fill="#FFC44D"/>
<path d="M28.1934 14.7C29.7952 16.6163 30.6709 19.0357 30.6667 21.5333C30.6667 21.9 30.6489 22.2617 30.6134 22.6183H35.4467L37.135 21.4133H35.6184C34.415 21.4133 34.415 20.4633 34.415 20.4633V14.7H28.1934Z" fill="#FDAB4A"/>
<path d="M5.5917 14.7V20.46C5.5917 20.46 5.5917 21.41 4.38837 21.41H2.8717L4.56004 22.615H9.39337C9.35782 22.2583 9.34004 21.8967 9.34004 21.53C9.33582 19.0323 10.2115 16.613 11.8134 14.6967L5.5917 14.7Z" fill="#FDAB4A"/>
<path d="M5.42004 34.3333H37.1284L34.58 31.785V24H30.3784C29.824 26.3358 28.4979 28.4162 26.6145 29.9049C24.7312 31.3935 22.4007 32.2033 20 32.2033C17.5994 32.2033 15.2689 31.3935 13.3856 29.9049C11.5022 28.4162 10.1761 26.3358 9.6217 24H5.42004V31.7933L2.8717 34.3333H5.42004Z" fill="#FC9447"/>
<path d="M15.54 24.56L19.1667 28.185C19.3883 28.4048 19.6879 28.5282 20 28.5282C20.3122 28.5282 20.6117 28.4048 20.8334 28.185L24.4584 24.56L26.1517 22.865L26.6517 22.365C26.8715 22.1434 26.9949 21.8438 26.9949 21.5317C26.9949 21.2195 26.8715 20.92 26.6517 20.6983L20.8334 14.8767C20.6122 14.656 20.3125 14.5321 20 14.5321C19.6876 14.5321 19.3879 14.656 19.1667 14.8767L13.345 20.695C13.1252 20.9166 13.0018 21.2162 13.0018 21.5283C13.0018 21.8405 13.1252 22.14 13.345 22.3617L13.845 22.8617L15.54 24.56Z" fill="#FFC44D"/>
</svg>
