<svg width="40" height="40" viewBox="0 0 40 40" fill="none" xmlns="http://www.w3.org/2000/svg">
<path d="M2.66663 9.5C2.66663 9.5 12.3333 11.3333 13.8333 14C15.3333 16.6667 15.6666 29 14.6666 32C13.6666 35 13 35.6667 13 35.6667C13.9195 35.3766 14.7555 34.8691 15.4373 34.1873C16.1191 33.5056 16.6265 32.6695 16.9166 31.75C17.9166 28.5833 17.9166 27.75 17.9166 27.75L20.0833 28.5833C20.0833 28.5833 21.4166 37.9167 22.0833 39.0833C22.75 36.9167 23.0833 28.4167 23.0833 28.4167C23.0833 28.4167 25.75 27.5833 26.25 26.9167C27.25 30.9167 27.75 31.9167 28.0833 32.75C28.4166 33.5833 29.89 35.6667 30.9866 35.6667C30.3466 34.25 29.5833 32.25 29.25 30.4167C28.9166 28.5833 27.25 19.4167 28.5833 14.75C31.0833 12.0833 35.25 8.75 35.6666 4.66667C35.6666 4.66667 27.6666 8.83333 20.8333 8.83333C20.5533 8.83333 20.2766 8.83333 20 8.81167V5.08333C20 4.79602 19.8858 4.52047 19.6827 4.3173C19.4795 4.11414 19.2039 4 18.9166 4C18.6293 4 18.3538 4.11414 18.1506 4.3173C17.9474 4.52047 17.8333 4.79602 17.8333 5.08333V8.59833C17.0916 8.48667 16.3683 8.33333 15.6666 8.16667V5.08333C15.6666 4.79602 15.5525 4.52047 15.3493 4.3173C15.1462 4.11414 14.8706 4 14.5833 4C14.296 4 14.0204 4.11414 13.8173 4.3173C13.6141 4.52047 13.5 4.79602 13.5 5.08333V7.56C9.99996 6.44333 7.20163 5 5.66663 5C3.16663 5 2.66663 9.5 2.66663 9.5ZM21.5833 22.4167H22.4166V18.5833H21.5833V16.9167H23.9166V24.0833H21.5833V22.4167Z" fill="#A3A5A7"/>
</svg>
