<svg width="40" height="40" viewBox="0 0 40 40" fill="none" xmlns="http://www.w3.org/2000/svg">
<rect width="40" height="40" rx="5" fill="white"/>
<path d="M17.9166 27.75L17.9066 27.8833C17.9166 27.79 17.9166 27.75 17.9166 27.75Z" fill="#FFC44D"/>
<path d="M28.5833 14.75C31.0833 12.0833 35.25 8.75 35.6666 4.66667C35.6666 4.66667 27.6666 8.83333 20.8333 8.83333C20.5533 8.83333 20.2766 8.83333 20 8.81167V5.08333C20 4.79602 19.8858 4.52047 19.6827 4.3173C19.4795 4.11414 19.2039 4 18.9166 4C18.6293 4 18.3538 4.11414 18.1506 4.3173C17.9474 4.52047 17.8333 4.79602 17.8333 5.08333V8.59833C17.1566 8.49667 16.5 8.365 15.8516 8.21333H15.8366L15.6666 8.16667L13.5 7.56C9.99996 6.44333 7.20163 5 5.66663 5C3.16663 5 2.66663 9.5 2.66663 9.5C2.66663 9.5 12.3333 11.3333 13.8333 14C14.795 15.71 15.2766 21.3967 15.235 26.0467L17.9166 27.75L20.0833 28.5833C20.0833 28.5833 21.4166 37.9167 22.0833 39.0833C22.75 36.9167 23.0833 28.4167 23.0833 28.4167C23.0833 28.4167 25.75 27.5833 26.25 26.9167L28.4616 25.25C28.0533 21.795 27.7983 17.5 28.5833 14.75ZM23.9166 24.0833H21.5833V22.4167H22.4166V18.5833H21.5833V16.9167H23.9166V24.0833Z" fill="#FFC44D"/>
<path d="M15.6667 5.08333C15.6667 4.79602 15.5525 4.52047 15.3494 4.3173C15.1462 4.11414 14.8707 4 14.5833 4C14.296 4 14.0205 4.11414 13.8173 4.3173C13.6141 4.52047 13.5 4.79602 13.5 5.08333V7.56L15.6667 8.16667V5.08333Z" fill="#EA8F34"/>
<path d="M30.9867 35.6667C30.3467 34.25 29.5833 32.25 29.25 30.4167C29.1133 29.6617 28.75 27.6617 28.4617 25.25L26.25 26.9167C27.25 30.9167 27.75 31.9167 28.0833 32.75C28.4167 33.5833 29.89 35.6667 30.9867 35.6667Z" fill="#EA8F34"/>
<path d="M14.6667 32C13.6667 35 13 35.6667 13 35.6667C13.9195 35.3766 14.7556 34.8692 15.4373 34.1874C16.1191 33.5056 16.6266 32.6695 16.9167 31.75C17.7 29.27 17.87 28.2217 17.9067 27.8834L17.9167 27.75L15.235 26.0467C15.2117 28.6467 15.025 30.9234 14.6667 32Z" fill="#EA8F34"/>
</svg>
