<svg width="20" height="20" viewBox="0 0 20 20" fill="none" xmlns="http://www.w3.org/2000/svg">
<path d="M9.50832 8.48459C9.01194 8.48459 8.54709 8.67717 8.19514 9.02913C7.84485 9.38108 7.65061 9.84592 7.65061 10.3423C7.65061 10.8387 7.84485 11.3035 8.19514 11.6555C8.54709 12.0058 9.01194 12.2 9.50832 12.2C10.0047 12.2 10.4696 12.0058 10.8215 11.6555C11.1718 11.3035 11.366 10.8387 11.366 10.3423C11.366 9.84592 11.1718 9.38108 10.8215 9.02913C10.6496 8.8559 10.445 8.71856 10.2196 8.62508C9.99413 8.5316 9.75237 8.48385 9.50832 8.48459ZM16.3531 12.3943L15.2674 11.4662C15.3189 11.1508 15.3454 10.8287 15.3454 10.5083C15.3454 10.1879 15.3189 9.86418 15.2674 9.55042L16.3531 8.62239C16.4352 8.55217 16.4939 8.45866 16.5214 8.35427C16.549 8.24988 16.5442 8.13958 16.5075 8.03801L16.4926 7.99485C16.1938 7.15928 15.7461 6.38476 15.1711 5.70881L15.1412 5.67395C15.0714 5.59186 14.9784 5.53285 14.8743 5.50469C14.7703 5.47654 14.6602 5.48056 14.5585 5.51624L13.2105 5.99602C12.7124 5.58762 12.1579 5.26555 11.557 5.04143L11.2963 3.63196C11.2766 3.52578 11.2251 3.42809 11.1486 3.35189C11.0721 3.27568 10.9742 3.22455 10.868 3.2053L10.8232 3.197C9.95989 3.04094 9.05012 3.04094 8.18684 3.197L8.14202 3.2053C8.03576 3.22455 7.93788 3.27568 7.86137 3.35189C7.78487 3.42809 7.73336 3.52578 7.7137 3.63196L7.45139 5.04807C6.85611 5.27398 6.30156 5.59527 5.8095 5.99934L4.45149 5.51624C4.34983 5.48028 4.23964 5.47611 4.13555 5.50428C4.03147 5.53245 3.93842 5.59163 3.86877 5.67395L3.83889 5.70881C3.26496 6.38548 2.81735 7.1598 2.51741 7.99485L2.50246 8.03801C2.42776 8.24553 2.48918 8.47795 2.65686 8.62239L3.75588 9.56038C3.70442 9.87249 3.67952 10.1912 3.67952 10.5067C3.67952 10.8254 3.70442 11.1442 3.75588 11.453L2.66018 12.3909C2.57816 12.4612 2.51946 12.5547 2.49188 12.6591C2.4643 12.7634 2.46915 12.8738 2.50578 12.9753L2.52073 13.0185C2.82121 13.8535 3.26448 14.6255 3.84221 15.3045L3.87209 15.3394C3.94191 15.4215 4.03496 15.4805 4.13898 15.5086C4.24301 15.5368 4.35312 15.5328 4.45481 15.4971L5.81282 15.014C6.30754 15.4207 6.85871 15.7428 7.45471 15.9653L7.71702 17.3814C7.73668 17.4876 7.78819 17.5852 7.86469 17.6614C7.9412 17.7377 8.03908 17.7888 8.14534 17.808L8.19016 17.8163C9.06193 17.9732 9.95472 17.9732 10.8265 17.8163L10.8713 17.808C10.9776 17.7888 11.0755 17.7377 11.152 17.6614C11.2285 17.5852 11.28 17.4876 11.2996 17.3814L11.5603 15.9719C12.1613 15.7461 12.7157 15.4257 13.2138 15.0173L14.5618 15.4971C14.6635 15.5331 14.7737 15.5372 14.8778 15.509C14.9819 15.4809 15.0749 15.4217 15.1446 15.3394L15.1744 15.3045C15.7522 14.6222 16.1954 13.8535 16.4959 13.0185L16.5109 12.9753C16.5822 12.7695 16.5208 12.5387 16.3531 12.3943ZM9.50832 13.2609C7.89631 13.2609 6.58977 11.9543 6.58977 10.3423C6.58977 8.7303 7.89631 7.42376 9.50832 7.42376C11.1203 7.42376 12.4269 8.7303 12.4269 10.3423C12.4269 11.9543 11.1203 13.2609 9.50832 13.2609Z" fill="white" fill-opacity="0.58"/>
</svg>
