<svg width="23" height="18" viewBox="0 0 23 18" fill="none" xmlns="http://www.w3.org/2000/svg">
<path fill-rule="evenodd" clip-rule="evenodd" d="M14.1121 0.744005L21.5561 4.505C21.8707 4.66505 22.1192 4.93024 22.2586 5.25451C22.398 5.57877 22.4194 5.94161 22.3191 6.28C21.9291 7.611 21.9721 8.17 22.2271 8.801C22.4841 9.439 22.3061 10.25 21.6401 10.671L11.3561 17.181C10.9251 17.454 10.3761 17.496 9.8991 17.263L6.0591 15.368L4.4551 14.563L3.3151 13.981L2.6191 13.616L2.2591 13.42L1.9981 13.27C0.978099 12.655 0.660099 11.405 0.666099 10.45C0.670099 9.479 1.0041 8.26601 1.9311 7.60001L2.2311 7.393L3.0891 6.832L5.1341 5.526L12.6421 0.811005C12.8608 0.674546 13.1109 0.59678 13.3684 0.585219C13.6259 0.573657 13.8821 0.627691 14.1121 0.744005ZM20.0331 7.688L11.3601 13.178L11.2521 13.241L11.1411 13.293C11.0311 13.701 10.9931 13.994 10.9971 14.266C10.9991 14.428 11.0171 14.594 11.0521 14.783L11.0941 14.98L20.2421 9.19L20.1701 8.941C20.085 8.6156 20.0387 8.28128 20.0321 7.945L20.0331 7.688ZM2.8001 9.67801C2.70982 9.92808 2.66445 10.1921 2.6661 10.458C2.6631 11.13 2.9031 11.481 3.0311 11.558L3.3391 11.733L3.9651 12.066L5.7351 12.969L9.0101 14.6C9.00209 14.4992 8.99742 14.3981 8.9961 14.297C8.99242 13.9229 9.03066 13.5496 9.1101 13.184L9.1771 12.896L2.8001 9.67801ZM13.9641 3.914C13.738 3.79475 13.4748 3.76661 13.2286 3.83538C12.9824 3.90414 12.7719 4.06457 12.6403 4.28373C12.5087 4.50288 12.466 4.76411 12.521 5.01375C12.576 5.26338 12.7246 5.48247 12.9361 5.62601L13.0361 5.686L15.1361 6.78601C15.3622 6.90526 15.6254 6.93339 15.8716 6.86463C16.1178 6.79587 16.3283 6.63543 16.4599 6.41628C16.5915 6.19713 16.6342 5.9359 16.5792 5.68626C16.5242 5.43663 16.3756 5.21754 16.1641 5.07401L16.0641 5.014L13.9641 3.914Z" fill="#24292E"/>
</svg>
