<svg t="1723355650572" class="icon" viewBox="0 0 1024 1024" version="1.1" xmlns="http://www.w3.org/2000/svg" p-id="5932"><path d="M511.96571656 583.8920075l413.93614781-195.62031281a45.52817625 45.52817625 0 0 1 44.56824469 3.35976c13.30190719 8.77651594 21.39275813 23.99828625 21.46132406 40.45425375v460.49282156C991.93143313 947.36318844 949.55731719 991.93143313 897.17248813 991.93143313H126.75894594C74.51124875 991.93143313 32 947.36318844 32 892.64709687V432.01714156c0-16.38740063 8.09085094-31.67773688 21.46132406-40.52281969a45.45961031 45.45961031 0 0 1 44.70537844-3.22262718L511.96571656 583.8920075z m-386.6466675-76.79451469v385.54960407c0 2.05699594 0.95993156 3.08549344 1.43989688 3.08549343h770.34497531c0.47996531 0 1.43989688-1.09706437 1.43989688-3.08549343V507.02892687l-367.17377344 173.47332282a45.25391062 45.25391062 0 0 1-38.94578906 0l-367.10520657-173.47332281z" p-id="5933"></path><path d="M212.80994187 128.19884281V463.969145a47.31090656 47.31090656 0 0 1-46.48810781 48.13370438 47.31090656 47.31090656 0 0 1-46.55667468-48.13370438V119.35376C119.76515937 70.87722313 160.28797906 32 209.51874875 32h604.89393563c49.23076969 0 89.75358938 38.87722313 89.75358937 87.35376v344.54681813a47.31090656 47.31090656 0 0 1-46.55667469 48.13370531 47.31090656 47.31090656 0 0 1-46.48810781-48.13370532V128.19884281H212.80994187z" p-id="5934"></path><path d="M715.12834813 292.41568437H532.53567594c-24.13541906 0-43.67688-21.52989094-43.67688-48.13370437 0-26.5352475 19.54146094-48.06513844 43.67688-48.06513844h182.52410531c24.13541906 0 43.67688 21.52989094 43.67688 48.06513844 0 26.60381437-19.54146094 48.13370438-43.67688 48.13370437z m-1e-8 133.77330188H309.48875094c-24.13541906 0-43.67688-21.52989094-43.67688-48.0651375 0-26.60381437 19.54146094-48.13370438 43.67688-48.13370531h405.63959718c24.13541906 0 43.67688 21.52989094 43.67688 48.13370531 0 26.5352475-19.54146094 48.06513844-43.67688 48.0651375z" p-id="5935"></path></svg>