<?xml version="1.0" encoding="UTF-8" ?>
<!DOCTYPE svg PUBLIC "-//W3C//DTD SVG 1.1//EN" "http://www.w3.org/Graphics/SVG/1.1/DTD/svg11.dtd">
<svg width="49pt" height="49pt" viewBox="0 0 49 49" version="1.1" xmlns="http://www.w3.org/2000/svg">
<g id="#fafe34fe">
<path fill="#fafe34" opacity="0.06" d=" M 23.60 0.00 L 25.56 0.00 C 27.51 2.01 29.49 3.99 31.44 6.00 C 34.95 6.00 38.47 5.99 41.98 6.02 C 42.01 9.54 42.00 13.05 42.00 16.57 C 44.39 18.92 46.81 21.25 49.00 23.79 L 49.00 25.25 C 46.78 27.75 44.38 30.09 42.00 32.43 C 42.00 35.95 42.01 39.46 41.98 42.98 C 38.47 43.00 34.96 43.00 31.44 43.00 C 29.47 45.04 27.51 47.10 25.40 49.00 L 23.44 49.00 C 21.49 46.99 19.51 45.01 17.56 43.00 C 14.05 43.00 10.53 43.01 7.02 42.98 C 6.99 39.46 7.00 35.95 7.00 32.43 C 4.61 30.08 2.19 27.75 0.00 25.21 L 0.00 23.75 C 2.22 21.24 4.62 18.91 7.01 16.56 C 6.99 13.05 6.99 9.54 7.02 6.02 C 10.53 5.99 14.04 6.00 17.56 6.00 C 19.53 3.96 21.49 1.90 23.60 0.00 M 20.39 5.97 C 20.97 5.90 22.13 5.77 22.71 5.71 C 22.78 5.13 22.91 3.97 22.97 3.40 C 21.84 2.85 19.86 4.84 20.39 5.97 M 26.02 3.41 C 26.09 3.99 26.24 5.15 26.31 5.73 C 26.89 5.79 28.04 5.90 28.62 5.96 C 29.13 4.83 27.15 2.83 26.02 3.41 M 9.00 7.87 C 9.00 10.06 8.99 12.26 9.00 14.45 C 11.44 12.12 13.76 9.65 16.23 7.35 C 13.86 7.86 11.42 7.82 9.00 7.87 M 32.80 7.38 C 35.26 9.68 37.57 12.12 40.00 14.45 C 40.00 12.26 40.00 10.06 40.00 7.87 C 37.60 7.82 35.17 7.84 32.80 7.38 M 17.56 7.90 C 14.81 11.11 12.07 14.34 9.00 17.26 C 8.99 19.51 8.98 21.75 8.86 24.00 C 12.22 24.00 15.58 24.00 18.95 24.00 C 19.00 22.38 19.06 20.75 19.15 19.13 C 20.74 19.06 22.33 19.03 23.92 19.02 C 22.68 15.47 23.23 11.63 23.07 7.94 C 21.23 7.93 19.40 7.91 17.56 7.90 M 25.93 7.94 C 25.77 11.62 26.32 15.46 25.09 19.00 C 26.68 19.03 28.28 19.08 29.87 19.15 C 29.95 20.77 30.00 22.38 30.04 24.00 C 33.41 24.00 36.77 24.00 40.13 24.00 C 40.02 21.76 40.01 19.51 40.01 17.27 C 36.94 14.35 34.19 11.11 31.44 7.90 C 29.60 7.91 27.76 7.93 25.93 7.94 M 2.54 24.00 C 4.03 24.00 5.51 24.00 7.00 24.00 C 7.00 22.47 7.00 20.93 7.00 19.40 C 5.52 20.94 4.03 22.47 2.54 24.00 M 42.00 19.40 C 42.00 20.93 42.00 22.47 42.00 24.00 C 43.49 24.00 44.97 24.00 46.46 24.00 C 44.97 22.47 43.48 20.94 42.00 19.40 M 21.00 21.00 C 20.98 21.75 20.95 23.25 20.94 24.00 C 21.70 24.00 23.21 24.00 23.97 24.00 C 23.97 23.25 23.97 21.75 23.97 21.00 C 23.23 21.00 21.74 21.00 21.00 21.00 M 25.03 21.00 C 25.03 21.75 25.03 23.25 25.03 24.00 C 25.79 24.00 27.30 24.00 28.06 24.00 C 28.05 23.25 28.02 21.75 28.00 21.00 C 27.26 21.00 25.77 21.00 25.03 21.00 M 2.54 25.00 C 4.02 26.53 5.52 28.05 7.00 29.59 C 7.00 28.06 7.00 26.53 7.00 25.00 C 5.51 25.00 4.03 25.00 2.54 25.00 M 8.87 25.00 C 8.98 27.24 8.99 29.48 8.99 31.73 C 12.05 34.65 14.81 37.89 17.56 41.10 C 19.40 41.09 21.23 41.07 23.07 41.06 C 23.24 37.38 22.67 33.53 23.92 29.99 C 22.33 29.97 20.73 29.93 19.14 29.86 C 19.05 28.24 19.00 26.62 18.95 25.00 C 15.59 25.00 12.23 25.00 8.87 25.00 M 20.94 25.00 C 20.95 25.75 20.98 27.25 21.00 28.00 C 21.74 28.00 23.23 28.00 23.97 28.00 C 23.97 27.25 23.97 25.75 23.97 25.00 C 23.21 25.00 21.70 25.00 20.94 25.00 M 25.03 25.00 C 25.03 25.75 25.03 27.25 25.03 28.00 C 25.77 28.00 27.26 28.00 28.00 28.00 C 28.02 27.25 28.05 25.75 28.06 25.00 C 27.30 25.00 25.79 25.00 25.03 25.00 M 30.05 25.00 C 30.00 26.62 29.95 28.24 29.86 29.86 C 28.27 29.93 26.68 29.97 25.09 30.00 C 26.32 33.54 25.77 37.38 25.93 41.06 C 27.76 41.07 29.60 41.09 31.44 41.10 C 34.19 37.89 36.94 34.65 40.01 31.73 C 40.01 29.49 40.02 27.24 40.13 25.00 C 36.77 25.00 33.41 25.00 30.05 25.00 M 42.00 25.00 C 42.00 26.53 42.00 28.06 42.00 29.59 C 43.48 28.06 44.97 26.53 46.46 25.00 C 44.97 25.00 43.49 25.00 42.00 25.00 M 9.00 34.55 C 9.00 36.74 9.00 38.94 9.00 41.13 C 11.39 41.19 13.81 41.17 16.17 41.61 C 13.73 39.30 11.42 36.87 9.00 34.55 M 32.85 41.59 C 35.21 41.17 37.61 41.18 40.00 41.13 C 40.00 38.94 40.00 36.74 40.00 34.55 C 37.59 36.86 35.28 39.28 32.85 41.59 M 20.39 43.03 C 19.85 44.16 21.84 46.15 22.97 45.60 C 22.91 45.02 22.78 43.87 22.71 43.29 C 22.13 43.23 20.97 43.10 20.39 43.03 M 26.29 43.29 C 26.22 43.87 26.09 45.02 26.03 45.60 C 27.16 46.15 29.14 44.16 28.61 43.03 C 28.03 43.10 26.87 43.23 26.29 43.29 Z" />
</g>
</svg>
