<svg id="图层_1" data-name="图层 1" xmlns="http://www.w3.org/2000/svg" viewBox="0 0 384 384"><path d="M192.75,553.5v-225a14,14,0,0,0,.68-1.72c3.37-13.27,13.56-21.74,27.23-22,13.37-.27,26.75-.25,40.12,0a27.68,27.68,0,0,1,26.81,20.61c.42,1.53.72,3.1,1.14,4.89.82-.39,1.38-.6,1.88-.91a186.81,186.81,0,0,0,36.54-29.71c14.55-15.55,23.33-33.18,22.53-55.29-.34-9.31,1.51-18.91,3.71-28.06,2.78-11.55,10.1-19.62,22.17-22.52,1.32-.32,2.63-.68,3.94-1H390c3.55,1.09,7.23,1.88,10.62,3.33,16.41,7.06,26.09,20.14,31.34,36.65,7.88,24.78,6.45,49.75.36,74.66-1.08,4.41-2.52,8.74-3.88,13.42h4.91c23.11,0,46.23-.27,69.33.13a75.17,75.17,0,0,1,71.9,58.14c.8,3.37,1.45,6.78,2.17,10.17V403.5c-.35,1.94-.71,3.87-1,5.81-5.93,34.43-11.67,68.9-17.84,103.29-5.15,28.69-21.45,48.68-48.64,59.35-6,2.33-12.47,3.24-18.73,4.8H437.25c-1.09-.19-2.18-.45-3.28-.56-18.12-1.83-36.35-2.94-54.35-5.61C348.89,566,319.15,557.7,291.08,544c-.64-.3-1.34-.48-2.35-.85,0,2.33,0,4.31,0,6.28a28,28,0,0,1-17.93,25.38c-2,.76-4,1.29-6,1.92h-48c-8.85-2.1-16.18-6.42-20.55-14.7A89.79,89.79,0,0,1,192.75,553.5Zm96-116.7c0,24,.2,48-.15,72-.08,5.33,1.79,7.92,6.26,10.24,34,17.65,70.5,26.12,108.16,30.7,26.48,3.22,53.1,3.28,79.72,3,26-.28,46.78-17.83,51.29-43.31,5.56-31.46,10.92-63,16.38-94.45,1.65-9.48,3.42-18.92,1.32-28.61-5.37-24.76-25.94-41.43-51.67-41.51-29.25-.1-58.49,0-87.73,0a30.49,30.49,0,0,1-4.49-.19c-8.72-1.31-13.23-10.07-8.94-17.79C410,306.91,414,285.43,413.08,262.93c-.46-11.68-2.53-23.1-8.89-33.27-3.6-5.76-8.17-10.42-15-12.29-7.56-2.07-11.91,0-13.37,7.59a121.15,121.15,0,0,0-2.35,23.4c.13,20.44-6.34,38.48-18.33,54.75-16.85,22.88-39,39.57-63.37,53.52-2.23,1.28-3.12,2.57-3.1,5.19C288.79,386.81,288.75,411.8,288.75,436.8Zm-24,3.82V334.91c0-5-1.14-6.2-6.13-6.21q-18,0-36,0c-4.62,0-5.88,1.24-5.88,5.7q0,106.28,0,212.55c0,4.58,1.19,5.78,5.73,5.79q17.81,0,35.61,0c5.76,0,6.65-.91,6.65-6.79Z" transform="translate(-192.75 -192.75)"/></svg>