<svg id="图层_1" data-name="图层 1" xmlns="http://www.w3.org/2000/svg" viewBox="0 0 384 382.79"><path d="M576.75,535.5c-1.79,7.83-4.19,15.39-9.24,21.85-8.46,10.8-19.41,17.15-33.17,18-7.59.47-15.24.29-22.86.3q-44.81,0-89.62,0a26,26,0,0,1-5.22-.38,7.35,7.35,0,0,1,.38-14.39,31.46,31.46,0,0,1,4.86-.21q53.25,0,106.5,0c11.19,0,20.56-3.51,27.39-12.71a28.9,28.9,0,0,0,5.93-17.44c.07-27.62.18-55.25,0-82.87a30.26,30.26,0,0,0-30-29.88c-28.75-.19-57.5-.07-86.25-.08q-102.55,0-205.12,0c-15.51,0-27.4,8.55-31.34,22.39a33.63,33.63,0,0,0-1.2,9.26c0,26.5,0,53,0,79.5,0,17.72,12.08,30.63,29.82,31.59,8.72.47,17.49.19,26.24.2h85.12c6.14.05,9.61,2.78,9.55,7.54s-3.53,7.45-9.72,7.45q-46.87,0-93.75,0c-8.48,0-17,.75-25.42-1A45.71,45.71,0,0,1,193.48,538a24.41,24.41,0,0,0-.73-2.49v-93c.72-.51.59-1.31.73-2q5.24-25.52,29.51-35c2.6-1,5.36-1.64,7.5-2.28C213.1,330,230.55,268.11,292.22,224c55.23-39.55,114.76-40.17,174.48-7.72,68.58,45.09,90.41,108.19,72.43,187.09l2.67.73c16.8,4.51,27.76,15.14,33.09,31.62.79,2.47,1.25,5,1.86,7.57ZM459.87,273c7.56,24.34,10.95,49,11.81,74.05h58.75c-2.12-33.26-13.86-62.24-35.31-87.53A212.14,212.14,0,0,1,459.87,273ZM297.8,347.16c.84-25.33,4.26-49.93,11.79-74.19-12.24-3.68-23.95-7.81-35-13.4-19.39,19.47-38.76,68.15-34.9,87.59Zm79.2-.06V282.75a302.32,302.32,0,0,1-52.75-6.18c-7.39,23.06-10.66,46.47-11.38,70.53Zm15.46-64.35V347h64.17c-.83-24.13-4-47.55-11.43-70.42A302.69,302.69,0,0,1,392.46,282.75Zm-79.63,79.71c.59,13.77,1.53,27,4.1,40H377v-40Zm79.52,40h60.27a263.82,263.82,0,0,0,3.94-39.92H392.35Zm79.36-40.06A344.76,344.76,0,0,1,468,402.28a5.15,5.15,0,0,0,1.08.38c17.12,0,34.24,0,51.35.1a2.55,2.55,0,0,0,2.89-2.15c1.21-4.45,2.67-8.85,3.67-13.35,1.81-8.11,3.26-16.29,3.27-24.83Zm-224.8,40.06h54.7a332.1,332.1,0,0,1-3.86-40H239.14A139.9,139.9,0,0,0,246.91,402.49Zm130.14-135V210.14c-18.87,2.63-38.91,28.08-47.07,52C339,264.75,366.85,268,377.05,267.5ZM392.63,210c-.72,4.75-.51,54.89.26,57.69a269.39,269.39,0,0,0,46.64-5.41c-3.28-15.31-21.62-39.85-35.84-48.06A30.63,30.63,0,0,0,392.63,210Zm91.42,38.05c-15.79-14.48-33.25-25.06-53.38-31.23,10.37,12.63,18,26.71,24.14,41.85A180.54,180.54,0,0,0,484.05,248.05ZM314.69,258.67c6.23-15.38,13.95-29.62,24.59-42.2A141.83,141.83,0,0,0,285.5,248,175.11,175.11,0,0,0,314.69,258.67Z" transform="translate(-192.75 -193.01)"/><path d="M283.5,498.88V459.56c0-1.13-.05-2.26,0-3.37.33-4.32,3.43-7.27,7.56-7.23a7.25,7.25,0,0,1,7.36,7.39c.15,6.87.05,13.74.05,20.61q0,21.74,0,43.46c0,4.69-1.64,7.38-5.13,8.61s-6.45,0-9.26-3.79q-15.24-20.64-30.42-41.32c-.85-1.16-1.76-2.29-2.73-3.55-1.05,1.34-.62,2.62-.63,3.79,0,11.74,0,23.48,0,35.22a18.91,18.91,0,0,1-.51,4.81,7.29,7.29,0,0,1-7.7,5.24,7.39,7.39,0,0,1-6.67-6.53,10.52,10.52,0,0,1-.07-1.12c0-21.73-.08-43.46,0-65.19,0-6.1,5.9-9.51,11-6.72a11.45,11.45,0,0,1,3.61,3.72l30.42,41.31C281.21,496,282,497,283.5,498.88Z" transform="translate(-192.75 -193.01)"/><path d="M417.24,504.27c-7.08,7.63-13.75,14.89-20.5,22.07-3.21,3.42-6.7,4-10,2-2.57-1.59-3.55-4-3.55-7,0-21.36,0-42.72,0-64.08,0-5,2.86-8.19,7.2-8.31,4.51-.13,7.72,3.12,7.75,8.21.08,13.49,0,27,0,40.47v5.13c4.35-4.7,8-8.66,11.7-12.65,5.42-5.91,9.16-5.95,14.63-.1l11.24,12.08c1.1-1.38.64-2.67.64-3.83.05-13.74,0-27.48.05-41.22,0-5.22,3.43-8.47,8.16-8,4.15.38,6.76,3.46,6.8,8.37.07,9.12,0,18.24,0,27.35q0,17.43,0,34.85c0,5.43-1.46,8.11-5.12,9.41-4.31,1.52-7.06-.89-9.71-3.79C430.26,518.29,423.88,511.44,417.24,504.27Z" transform="translate(-192.75 -193.01)"/><path d="M495.28,529.5c-5.12,0-10.24,0-15.36,0-5.46,0-8.87-2.92-8.91-7.45s3.36-7.52,8.78-7.53c10,0,20,0,30,0,5.52-.06,9.24-3.64,9.35-8.66.11-5.21-3.6-8.89-9.26-9.16-1,0-2,0-3,0-4.24,0-8.49.07-12.73-.07a23.75,23.75,0,0,1-23.12-23c-.32-12.88,9-23.77,21.85-24.46,11.2-.59,22.47-.34,33.7-.2,4.73.06,7.62,3.28,7.56,7.55s-3.06,7.22-7.82,7.29c-9.36.12-18.73,0-28.1.06a30.22,30.22,0,0,0-4.85.28,8.68,8.68,0,0,0-7.33,9,8.51,8.51,0,0,0,8,8.38c5.49.25,11,0,16.48.17,12.42.33,22.62,9.68,23.52,21.41,1,13.13-7.18,23.84-20,26.06a43,43,0,0,1-6.72.35C503.27,529.54,499.28,529.5,495.28,529.5Z" transform="translate(-192.75 -193.01)"/><path d="M333.28,463.82v17.82c7,0,13.87,0,20.71,0a12,12,0,0,1,5.14.79,7.4,7.4,0,0,1,4.15,8,7.08,7.08,0,0,1-7,6.1c-6.24.16-12.49.05-18.74.1-1.34,0-2.74-.31-4.23.47V514.5h21c5.72,0,9.23,2.94,9.15,7.58s-3.53,7.39-9,7.41q-13.69,0-27.37,0c-6.14,0-9-2.83-9-8.94q0-31.48,0-63c0-5.73,2.75-8.62,8.47-8.7,9.5-.13,19-.11,28.49,0,5.19.07,8.48,3.21,8.41,7.61s-3.35,7.27-8.64,7.33C347.72,463.88,340.62,463.82,333.28,463.82Z" transform="translate(-192.75 -193.01)"/><path d="M392.21,568.18a7.48,7.48,0,1,1-7.34-7.45A7.41,7.41,0,0,1,392.21,568.18Z" transform="translate(-192.75 -193.01)"/></svg>